<svg width="18" height="22" viewBox="0 0 18 22" xmlns="http://www.w3.org/2000/svg">
<path fill-rule="evenodd" clip-rule="evenodd" d="M2.7693 0.319546C0.651577 1.36041 -0.311427 2.68183 0.0887952 3.99785C0.285228 4.64363 0.961149 5.13703 2.31369 5.62207C5.15522 6.64131 6.00731 7.14404 6.07811 7.8434C6.18 8.85084 5.57724 9.59088 4.08644 10.2884C1.34527 11.571 0.048537 12.8114 0.0396524 14.1599C0.0327113 15.2121 0.542602 15.6149 3.05846 16.5449C5.65428 17.5044 6.10393 17.8306 6.08977 18.7433C6.07547 19.6615 5.52768 20.2223 3.80865 21.0785C3.34277 21.3105 3.14939 21.4842 3.14925 21.6702C3.14897 22.1019 3.53948 22.1094 4.41836 21.6948C6.09976 20.9016 7.03611 19.8601 7.03611 18.7834C7.03611 17.4032 6.25733 16.8074 2.82733 15.5644C1.45119 15.0657 0.927971 14.6884 0.927971 14.1948C0.927971 13.2834 2.09254 12.1483 3.86002 11.337C6.06992 10.3224 7.03611 9.33109 7.03611 8.07812C7.03611 6.96156 6.22554 6.1951 4.30799 5.49881C1.23643 4.38323 0.927971 4.19177 0.927971 3.40098C0.927971 2.58795 1.80255 1.71679 3.40218 0.936447C3.89819 0.69448 4.05145 0.549471 4.05145 0.322004C4.05145 -0.105649 3.63582 -0.106386 2.7693 0.319546ZM13.756 0.309961C11.6435 1.34874 10.6006 2.81566 11.0847 4.06765C11.3437 4.73776 11.9988 5.15583 13.8777 5.85027C16.0866 6.66687 16.7343 7.01944 16.9793 7.53864C17.4594 8.55542 16.7347 9.46369 14.5919 10.5312C11.9064 11.8691 10.6742 13.2935 11.0686 14.604C11.2262 15.1271 11.9936 15.7842 12.7972 16.0841C16.3799 17.4204 16.9256 17.7133 17.0764 18.3809C17.2861 19.309 16.4617 20.3221 14.9137 21.0382C14.3215 21.3121 14.1166 21.4746 14.1163 21.6702C14.1157 22.1019 14.5064 22.1094 15.3853 21.6948C17.1312 20.8711 17.994 19.8921 18 18.7279C18.0069 17.3974 17.2209 16.8062 13.7942 15.5644C13.1974 15.3481 12.5258 15.0347 12.3019 14.868C11.2198 14.0618 12.3721 12.499 14.9427 11.2866C17.2963 10.1764 18.0873 9.31106 17.9775 7.96641C17.8761 6.72635 17.1862 6.16782 14.6281 5.25475C12.0888 4.34833 11.7481 4.0733 11.9551 3.09646C12.0831 2.49246 13.0653 1.5853 14.1854 1.03636C14.8523 0.709472 15.0183 0.568027 15.0183 0.326182C15.0183 -0.103314 14.6072 -0.108598 13.756 0.309961ZM3.93179 2.23624C3.76604 2.61879 4.26413 3.04251 4.88688 3.04878C5.33333 3.0532 6.37963 3.05185 6.82136 3.0462C7.3257 3.03981 7.91971 2.55747 7.79033 2.25922C7.68441 2.0148 7.2828 1.99022 6.89535 2.20441C6.67587 2.3257 6.56343 2.3257 6.34395 2.20441C5.99481 2.01135 5.71745 2.01135 5.36831 2.20441C5.14884 2.3257 5.03639 2.3257 4.81691 2.20441C4.44265 1.99747 4.02882 2.01234 3.93179 2.23624ZM9.52518 7.89944C9.39372 8.03978 9.38303 8.15112 9.48714 8.29883C9.77437 8.70596 10.211 8.77736 12.3067 8.75991C14.1164 8.74479 14.4085 8.71407 14.6609 8.51192C15.0056 8.23566 15.0253 8.03683 14.7295 7.81944C14.5573 7.69286 14.4529 7.68967 14.2454 7.80433C13.9033 7.99345 13.3847 7.99136 13.1686 7.80002C13.0343 7.68119 12.941 7.68119 12.7263 7.80002C12.5765 7.88285 12.3094 7.95056 12.1328 7.95056C11.9561 7.95056 11.7351 7.88285 11.6415 7.80002C11.5073 7.68119 11.414 7.68119 11.1992 7.80002C10.8705 7.98178 10.2781 7.99751 10.1596 7.82767C10.032 7.64494 9.73203 7.67886 9.52518 7.89944ZM6.15529 12.0886C5.83461 12.2373 5.68483 12.2442 5.35957 12.1248C4.87161 11.9459 4.53733 12.0402 4.53733 12.3566C4.53733 12.8522 5.0475 12.9671 7.25545 12.9693C9.47049 12.9714 9.95136 12.8641 9.95136 12.3679C9.95136 12.0398 9.62236 11.944 9.12399 12.1267C8.78832 12.2498 8.66504 12.2427 8.4117 12.0856C8.13516 11.9141 8.0645 11.9143 7.68566 12.0877C7.30904 12.2601 7.22963 12.2606 6.90812 12.0925C6.59008 11.9263 6.50623 11.9258 6.15529 12.0886ZM2.96004 13.7878C2.78651 14.1881 3.32542 14.6137 3.99814 14.6074C4.3588 14.6041 5.207 14.6006 5.6479 14.6006C6.0888 14.6006 6.937 14.6041 7.29765 14.6074C7.69954 14.6111 8.24442 14.3672 8.34326 14.1391C8.54371 13.6764 8.00939 13.447 7.45063 13.7559C7.23116 13.8772 7.11871 13.8772 6.89924 13.7559C6.5501 13.5629 6.27273 13.5629 5.9236 13.7559C5.70412 13.8772 5.59168 13.8772 5.3722 13.7559C5.02306 13.5629 4.7457 13.5629 4.39656 13.7559C4.17709 13.8772 4.06464 13.8772 3.84516 13.7559C3.4709 13.549 3.05707 13.5639 2.96004 13.7878ZM10.8121 18.9122C10.5515 19.1429 10.6158 19.4794 10.9578 19.676C11.404 19.9325 13.7574 19.9234 14.2054 19.6636C14.5709 19.4516 14.631 19.113 14.3409 18.8999C14.1944 18.7923 14.0516 18.809 13.7336 18.9705C13.34 19.1704 13.2979 19.1703 12.9496 18.9683C12.6019 18.7666 12.5593 18.7664 12.18 18.9647C11.8045 19.1611 11.7555 19.1614 11.4251 18.9697C11.0035 18.7252 11.0214 18.7269 10.8121 18.9122Z" />
</svg>
