<svg width="512" height="528" viewBox="0 0 512 528" xmlns="http://www.w3.org/2000/svg">
<path fill-rule="evenodd" clip-rule="evenodd" d="M412.903 34.0486H99.0968C62.6103 34.0486 33.0323 64.5368 33.0323 102.146V425.608C33.0323 463.217 62.6103 493.705 99.0968 493.705H412.903C449.39 493.705 478.968 463.217 478.968 425.608V102.146C478.968 64.5368 449.39 34.0486 412.903 34.0486ZM99.0968 0C44.3671 0 0 45.7323 0 102.146V425.608C0 482.022 44.3671 527.754 99.0968 527.754H412.903C467.633 527.754 512 482.022 512 425.608V102.146C512 45.7323 467.633 0 412.903 0H99.0968Z" />
<path d="M66.0645 102.146C66.0645 83.3414 80.8536 68.0973 99.0968 68.0973H198.194V51.073H99.0968C71.732 51.073 49.5484 73.9391 49.5484 102.146V425.608C49.5484 453.815 71.732 476.681 99.0968 476.681H412.903C440.268 476.681 462.452 453.815 462.452 425.608V306.438H445.935V425.608C445.935 444.412 431.146 459.657 412.903 459.657H99.0968C80.8536 459.657 66.0645 444.412 66.0645 425.608V102.146Z"/>
<path d="M206.375 155.586V371.576H167.329V201.299L115.613 218.46V186.801L201.954 155.586H206.375Z" />
<path d="M379.871 245.385V281.63C379.871 298.199 378.201 312.351 374.861 324.088C371.522 335.824 366.708 345.44 360.422 352.936C354.135 360.333 346.621 365.807 337.879 369.357C329.137 372.809 319.412 374.535 308.705 374.535C300.16 374.535 292.203 373.45 284.836 371.28C277.469 369.012 270.839 365.56 264.945 360.925C259.15 356.191 254.14 350.174 249.917 342.876C245.791 335.578 242.599 326.849 240.339 316.691C238.178 306.533 237.098 294.845 237.098 281.63V245.385C237.098 228.815 238.768 214.712 242.108 203.074C245.546 191.436 250.408 181.919 256.694 174.522C262.981 167.125 270.495 161.75 279.237 158.397C287.98 154.945 297.704 153.219 308.411 153.219C317.055 153.219 325.011 154.304 332.28 156.474C339.647 158.643 346.228 162.046 352.024 166.681C357.917 171.218 362.927 177.136 367.052 184.434C371.178 191.634 374.321 200.313 376.482 210.471C378.741 220.531 379.871 232.169 379.871 245.385ZM340.973 286.955V239.911C340.973 231.626 340.482 224.427 339.5 218.312C338.616 212.098 337.29 206.822 335.521 202.482C333.753 198.143 331.543 194.642 328.891 191.979C326.239 189.217 323.194 187.195 319.756 185.913C316.318 184.631 312.536 183.99 308.411 183.99C303.303 183.99 298.735 185.026 294.708 187.097C290.681 189.069 287.292 192.225 284.542 196.565C281.791 200.904 279.679 206.674 278.206 213.874C276.831 220.975 276.143 229.654 276.143 239.911V286.955C276.143 295.24 276.585 302.489 277.469 308.702C278.452 314.916 279.827 320.242 281.595 324.68C283.461 329.118 285.671 332.767 288.225 335.627C290.877 338.389 293.922 340.46 297.36 341.841C300.798 343.123 304.58 343.764 308.705 343.764C313.911 343.764 318.479 342.728 322.408 340.657C326.435 338.586 329.824 335.331 332.575 330.893C335.325 326.356 337.388 320.488 338.763 313.288C340.236 305.99 340.973 297.212 340.973 286.955Z"/>
</svg>
