<svg width="512" height="512" viewBox="0 0 512 512"  xmlns="http://www.w3.org/2000/svg">
<g clip-path="url(#clip0_972_342)">
<path fill-rule="evenodd" clip-rule="evenodd" d="M179.802 24.7471C369.091 -36.6726 547.736 140.503 487.881 330.305C447.206 459.305 312.397 528.709 180.819 488.065C106.733 465.17 47.1441 404.697 23.2196 327.818C-16.0391 201.64 54.3318 65.4562 179.802 24.7471ZM32.6293 175.984C70.4098 74.9889 157.224 17.2864 266.16 20.6101C286.452 21.2271 301.125 22.5596 315.316 26.0616C329.514 29.5654 342.935 35.1681 360.809 43.973C438.474 82.221 489.65 157.965 490.015 236.719C490.054 245.376 490.04 251.19 490.026 256.639L490.025 256.874V256.879V256.883C490.02 259.391 490.015 261.825 490.015 264.436V270.604H248.334L247.542 265.356C246.726 259.945 246.194 252.821 245.623 243.646L239.093 241.572L238.649 286.5L214.824 242.966C212.587 238.879 210.631 235.238 208.975 232.004L197.188 228.259C202.263 236.836 208.079 247.843 214.982 261.683C227.665 287.106 235.127 303.413 239.756 320.059C244.396 336.742 246.115 353.498 247.775 379.687L251.494 438.32L239.797 441.423L195.142 350.215C171.083 301.085 156.322 265.501 150.852 242.01C148.158 230.444 147.425 220.679 149.913 213.481C149.938 213.409 149.963 213.337 149.989 213.266L128.062 206.3C128.041 207.082 128.019 207.874 127.997 208.675L125.19 256.639H31.8953C28.6256 239.941 31.8927 213.162 44.1843 180.306C44.257 180.112 44.3299 179.918 44.4029 179.724L32.6293 175.984ZM133.253 368.142L133.252 368.159C132.17 387.253 130.771 405.059 129.383 418.381C128.69 425.03 127.992 430.637 127.326 434.756C126.996 436.8 126.656 438.593 126.302 440.005C126.128 440.703 125.919 441.435 125.662 442.113L125.659 442.121C125.494 442.556 124.986 443.895 123.862 445.02C119.304 449.579 113.235 448.007 109.503 446.264C105.394 444.345 100.91 440.891 96.3723 436.636C87.1861 428.023 76.3856 414.798 65.9141 399.26C45.0624 368.319 24.5147 326.705 20.931 291.751L20.2341 284.953H137.499L133.253 368.142ZM249.389 290.041H255.996H256.015L256.276 290.042C256.469 290.042 256.773 290.043 257.226 290.045C258.131 290.049 259.629 290.056 262.008 290.071C266.768 290.101 275.059 290.16 289.193 290.278C317.458 290.514 369.097 290.987 462.603 291.932H491.701L482.932 327.875L482.829 328.166C467.883 370.546 443.404 409.03 415.369 433.653C400.193 446.979 378.455 460.299 356.293 470.853C334.17 481.387 311.033 489.446 292.965 491.869L292.963 491.87L261.424 496.111L256.614 405.597C255.391 382.579 253.699 355.342 252.311 333.847C251.617 323.103 251 313.798 250.556 307.18C250.334 303.87 250.156 301.233 250.033 299.423L249.96 298.356L249.842 296.636L249.842 296.633L249.389 290.041ZM148.812 294.519C149.746 293.664 151.434 292.593 153.74 292.693C155.586 292.773 156.87 293.622 157.31 293.929C157.892 294.335 158.346 294.774 158.647 295.089C159.262 295.731 159.844 296.49 160.356 297.209C161.41 298.687 162.674 300.715 164.088 303.13C166.938 307.999 170.681 314.936 175.039 323.385C183.768 340.307 195.107 363.567 206.96 389.096C218.116 413.124 226.58 431.657 232.399 445.752C238.128 459.627 241.615 469.93 242.285 477.181C242.624 480.84 242.351 484.682 240.385 487.922C238.242 491.454 234.83 493.103 231.429 493.707C228.224 494.276 224.617 494.013 221.002 493.454C217.305 492.883 213.082 491.915 208.47 490.757L203.389 474.043C201.574 472.403 199.608 470.274 197.46 467.529C191.684 460.149 185.102 448.986 176.914 432.725C167.13 413.288 161.7 400.871 158.625 388.597C155.563 376.373 154.756 363.962 154.756 344.407C154.756 334.152 155.126 324.747 155.734 317.291L148.812 294.519ZM151.196 427.392C152.784 429.101 154.733 431.647 156.972 434.606L156.975 434.61C159.893 438.474 162.51 442.964 164.417 447.146C166.212 451.082 167.783 455.607 167.783 459.299C167.783 463.732 165.616 467.774 161.425 469.737C157.642 471.509 153.348 471.056 149.638 469.634L149.631 469.632C144.728 467.747 141.396 463.119 139.392 458.725C137.277 454.089 136.045 448.462 136.115 442.829L151.196 427.392Z"     />
<path fill-rule="evenodd" clip-rule="evenodd" d="M255.996 290.041V296.21L249.842 296.633L249.842 296.636L249.96 298.356L250.033 299.423C250.156 301.233 250.334 303.87 250.556 307.18C251 313.798 251.617 323.103 252.311 333.847C253.699 355.342 255.391 382.579 256.614 405.597L261.424 496.111L292.963 491.87L292.965 491.869C311.033 489.446 334.17 481.387 356.293 470.853C378.455 460.299 400.193 446.979 415.369 433.653C443.404 409.03 467.883 370.546 482.829 328.166L482.932 327.875L491.701 291.932H462.603C369.097 290.987 317.458 290.514 289.193 290.278C275.059 290.16 266.768 290.101 262.008 290.071C259.629 290.056 258.131 290.049 257.226 290.045C256.773 290.043 256.469 290.042 256.276 290.042L256.015 290.041H255.996ZM289.089 302.615C275.602 302.502 267.443 302.443 262.6 302.412C262.68 303.589 262.769 304.908 262.866 306.354C263.31 312.98 263.928 322.296 264.622 333.053C266.011 354.561 267.707 381.854 268.934 404.943L273.034 482.102L291.321 479.642L291.324 479.642C307.601 477.46 329.428 469.981 350.989 459.714C372.511 449.465 393.179 436.719 407.229 424.382C433.296 401.487 456.685 365.063 471.093 324.351L475.992 304.269H462.541L462.51 304.269C368.987 303.323 317.347 302.851 289.089 302.615Z"     />
<path fill-rule="evenodd" clip-rule="evenodd" d="M266.16 20.6101C157.224 17.2864 70.4098 74.9889 32.6293 175.984L44.4029 179.724C80.4157 84.1194 162.255 29.7827 265.784 32.9415C285.778 33.5494 299.432 34.8489 312.36 38.0394C325.282 41.2281 337.774 46.3787 355.358 55.0405C429.405 91.5066 477.337 163.314 477.678 236.776C477.717 245.389 477.703 251.167 477.689 256.607V256.61L477.688 256.843L477.685 258.267H259.097C258.683 254.176 258.325 249.135 257.936 242.879C256.047 212.547 256.338 186.041 258.33 167.257C259.331 157.809 260.731 150.645 262.348 146C263.104 143.83 263.794 142.549 264.278 141.887C268.807 141.502 272.388 138.775 274.674 135.568C277.156 132.084 278.511 127.587 278.511 122.904C278.511 111.856 270.474 103.425 260.656 97.5521C250.605 91.5398 237.097 87.1697 222.545 84.6009C193.612 79.4935 158.286 81.1405 134.346 93.5721C122.167 99.8967 113.538 109.172 110.785 118.827C109.381 123.748 109.48 128.964 111.801 133.667C114.133 138.392 118.349 141.871 123.808 143.967C124.425 144.204 124.919 144.502 125.514 145.654C126.271 147.12 127.069 149.797 127.637 154.733C128.738 164.291 128.765 180.032 128.062 206.3L149.989 213.266C151.315 209.553 153.56 206.403 156.884 204.244C160.208 202.086 164.081 201.261 168.063 201.261C176.221 201.261 182.828 207.16 189.371 216.169C191.789 219.497 194.374 223.504 197.188 228.259L208.975 232.004C207.69 229.495 206.586 227.231 205.67 225.196C203.677 220.767 202.147 216.532 202.147 212.828C202.147 210.783 202.607 208.566 203.988 206.57C205.361 204.587 207.239 203.407 209.027 202.7C212.252 201.425 216.362 201.261 220.235 201.261C223.244 201.261 226.479 201.525 229.406 202.819C232.645 204.25 234.953 206.682 236.437 209.905C237.802 212.867 238.446 216.434 238.79 220.368C239.14 224.373 239.216 229.278 239.157 235.18L239.093 241.572L245.623 243.646C246.194 252.821 246.726 259.945 247.542 265.356L248.334 270.604H490.015V264.436C490.015 261.825 490.02 259.391 490.025 256.883V256.879V256.874L490.026 256.639C490.04 251.19 490.054 245.376 490.015 236.719C489.65 157.965 438.474 82.221 360.809 43.973C342.935 35.1681 329.514 29.5654 315.316 26.0616C301.125 22.5596 286.452 21.2271 266.16 20.6101ZM239.958 107.766C242.357 108.745 244.946 110.061 246.808 111.924C247.957 113.073 249.922 115.674 249.074 119.219C248.326 122.344 245.863 123.899 244.688 124.527C242.099 125.912 238.305 126.68 234.272 127.22C225.753 128.359 212.273 128.904 194.181 128.904C181.332 128.904 170.808 128.51 162.77 127.758C158.753 127.383 155.271 126.91 152.384 126.328C149.595 125.767 146.97 125.029 144.908 123.958C143.293 123.119 139.449 120.693 139.713 115.925C139.833 113.766 140.826 112.121 141.714 111.059C142.602 109.995 143.671 109.163 144.663 108.512C148.407 106.058 154.873 103.783 163.287 101.548C168.622 100.131 175.901 99.5908 183.569 99.5789C191.356 99.5669 199.992 100.103 208.262 101.038C216.518 101.972 224.552 103.319 231.11 104.971C234.383 105.795 237.407 106.724 239.958 107.766ZM148.932 129.596H239.43V194.054H148.932V129.596Z"     />
<path fill-rule="evenodd" clip-rule="evenodd" d="M239.43 129.596H148.932V194.054H239.43V129.596ZM161.27 141.933V181.716H227.093V141.933H161.27Z"     />
<path fill-rule="evenodd" clip-rule="evenodd" d="M179.802 24.7471C369.091 -36.6726 547.736 140.503 487.881 330.305C447.206 459.305 312.397 528.709 180.819 488.065C106.733 465.17 47.1441 404.697 23.2196 327.818C-16.0391 201.64 54.3318 65.4562 179.802 24.7471ZM499.647 334.015C562.518 134.649 374.823 -51.5029 175.994 13.0123C44.0808 55.812 -29.8204 198.873 11.4396 331.483C36.522 412.083 99.0465 475.708 177.178 499.852C315.059 542.444 456.875 469.664 499.647 334.015ZM168.063 201.261C164.081 201.261 160.208 202.086 156.884 204.244C153.56 206.403 151.315 209.553 149.989 213.266C149.963 213.337 149.938 213.409 149.913 213.481C147.425 220.679 148.158 230.444 150.852 242.01C156.322 265.501 171.083 301.085 195.142 350.215L239.797 441.423L251.494 438.32L247.775 379.687C246.115 353.498 244.396 336.742 239.756 320.059C235.127 303.413 227.665 287.106 214.982 261.683C208.079 247.843 202.263 236.836 197.188 228.259C194.374 223.504 191.789 219.497 189.371 216.169C182.828 207.16 176.221 201.261 168.063 201.261ZM206.222 344.789C182.153 295.64 167.985 261.188 162.867 239.212C160.267 228.046 160.292 221.22 161.574 217.511C161.635 217.333 161.699 217.165 161.764 217.006C162.302 215.693 162.959 215.009 163.603 214.591C164.391 214.08 165.735 213.598 168.063 213.598C169.619 213.598 172.766 214.594 178.604 222.356C178.86 222.697 179.122 223.051 179.389 223.419C185.499 231.831 193.204 245.664 203.942 267.19C216.635 292.635 223.594 307.987 227.87 323.364C232.136 338.703 233.806 354.334 235.462 380.467L237.214 408.091L206.222 344.789ZM225.646 237.043C221.672 229.783 218.798 224.306 216.921 220.134C215.524 217.031 214.886 215.075 214.631 213.907C215.694 213.729 217.442 213.598 220.235 213.598C222.74 213.598 223.885 213.867 224.419 214.103L224.427 214.106C224.648 214.204 224.882 214.307 225.232 215.067C225.707 216.098 226.198 217.988 226.5 221.443C226.796 224.827 226.878 229.242 226.82 235.058L226.78 239.115L225.646 237.043ZM114.127 437.738C114.089 437.836 114.091 437.808 114.142 437.694C114.135 437.715 114.13 437.73 114.127 437.738ZM116.303 435.663C116.402 435.655 116.46 435.665 116.465 435.672C116.469 435.68 116.42 435.684 116.303 435.663ZM255.996 290.041H249.389L249.842 296.633L255.996 296.21V290.041ZM153.74 292.693C151.434 292.593 149.746 293.664 148.812 294.519L155.734 317.291C155.126 324.747 154.756 334.152 154.756 344.407C154.756 363.962 155.563 376.373 158.625 388.597C161.7 400.871 167.13 413.288 176.914 432.725C185.102 448.986 191.684 460.149 197.46 467.529C199.608 470.274 201.574 472.403 203.389 474.043L208.47 490.757C213.082 491.915 217.305 492.883 221.002 493.454C224.617 494.013 228.224 494.276 231.429 493.707C234.83 493.103 238.242 491.454 240.385 487.922C242.351 484.682 242.624 480.84 242.285 477.181C241.615 469.93 238.128 459.627 232.399 445.752C226.58 431.657 218.116 413.124 206.96 389.096C195.107 363.567 183.768 340.307 175.039 323.385C170.681 314.936 166.938 307.999 164.088 303.13C162.674 300.715 161.41 298.687 160.356 297.209C159.844 296.49 159.262 295.731 158.647 295.089C158.346 294.774 157.892 294.335 157.31 293.929C156.87 293.622 155.586 292.773 153.74 292.693ZM203.389 474.043C206.463 476.821 209.105 478.197 211.47 478.79L211.472 478.79C216.012 479.93 219.779 480.782 222.885 481.262C226.072 481.754 228.079 481.772 229.272 481.56C229.579 481.505 229.77 481.449 229.881 481.407C229.978 481.116 230.179 480.243 230.001 478.316C229.525 473.171 226.788 464.491 220.996 450.46C215.295 436.65 206.942 418.353 195.771 394.291C183.968 368.872 172.705 345.771 164.075 329.041C161.019 323.118 158.312 318.028 156.038 313.932C155.931 315.001 155.83 316.122 155.734 317.291L203.389 474.043ZM230.014 481.34C230.018 481.341 230.003 481.354 229.961 481.374C229.989 481.35 230.01 481.34 230.014 481.34ZM156.972 434.606C154.733 431.647 152.784 429.101 151.196 427.392L136.115 442.829C136.045 448.462 137.277 454.089 139.392 458.725C141.396 463.119 144.728 467.747 149.631 469.632L149.638 469.634C153.348 471.056 157.642 471.509 161.425 469.737C165.616 467.774 167.783 463.732 167.783 459.299C167.783 455.607 166.212 451.082 164.417 447.146C162.51 442.964 159.893 438.474 156.975 434.61L156.972 434.606ZM153.192 452.265C151.932 449.503 150.278 446.555 148.456 443.892C148.543 447.418 149.372 450.877 150.617 453.606C152.078 456.81 153.584 457.933 154.056 458.115C154.575 458.314 155.01 458.428 155.357 458.49C155.138 457.267 154.497 455.127 153.192 452.265Z"     />
<path fill-rule="evenodd" clip-rule="evenodd" d="M133.252 368.159L133.253 368.142L137.499 284.953H20.2341L20.931 291.751C24.5147 326.705 45.0624 368.319 65.9141 399.26C76.3856 414.798 87.1861 428.023 96.3723 436.636C100.91 440.891 105.394 444.345 109.503 446.264C113.235 448.007 119.304 449.579 123.862 445.02C124.986 443.895 125.494 442.556 125.659 442.121L125.662 442.113C125.919 441.435 126.128 440.703 126.302 440.005C126.656 438.593 126.996 436.8 127.326 434.756C127.992 430.637 128.69 425.03 129.383 418.381C130.771 405.059 132.17 387.253 133.252 368.159ZM34.118 297.29C39.1712 327.937 57.1396 364.164 76.1448 392.365C86.3148 407.456 96.5314 419.873 104.811 427.636C109.005 431.569 112.367 433.985 114.723 435.086L114.745 435.096C114.871 434.432 115.006 433.664 115.147 432.788C115.759 429.002 116.429 423.657 117.112 417.103C118.475 404.022 119.86 386.423 120.934 367.479L120.935 367.461L124.517 297.29H34.118ZM114.127 437.738C114.089 437.836 114.091 437.808 114.142 437.694C114.135 437.715 114.13 437.73 114.127 437.738ZM116.303 435.663C116.402 435.655 116.46 435.665 116.465 435.672C116.469 435.68 116.42 435.684 116.303 435.663Z"     />
</g>
<defs>
<clipPath id="clip0_972_342">
<rect width="512" height="512" fill="white"/>
</clipPath>
</defs>
</svg>
