<svg width="512" height="512" viewBox="0 0 512 512" xmlns="http://www.w3.org/2000/svg">
<path fill-rule="evenodd" clip-rule="evenodd" d="M235.932 1.47617C183.731 9.46421 139.755 52.0798 130.279 103.858L128.647 112.779L118.013 112.177C47.3037 108.169 -9.37053 170.651 1.29466 240.856C8.71257 289.69 47.6398 327.764 97.3774 334.834C101.776 335.459 160.743 335.829 255.94 335.829C351.136 335.829 410.103 335.459 414.502 334.834C470.506 326.874 512 279.641 512 223.854C512 160.037 457.555 108.567 393.866 112.177L383.233 112.779L381.6 103.858C369.357 36.9558 304.045 -8.94819 235.932 1.47617ZM279.095 34.6855C321.713 45.8799 349.326 80.4895 351.826 125.841C353.045 147.971 358.644 152.209 379.264 146.611C429.823 132.887 479.483 171.163 479.483 223.854C479.483 261.486 457.245 290.112 419.019 301.682C411.923 303.83 113.19 304.885 99.8843 302.809C42.7039 293.889 13.3774 228.655 44.8678 180.428C63.8342 151.383 99.5502 137.723 132.891 146.763C153.086 152.239 158.843 147.804 160.053 125.841C162.8 75.9909 193.345 41.9784 243.935 32.4392C249.801 31.3321 271.643 32.7282 279.095 34.6855ZM89.8754 368.942C82.3355 372.111 64.3644 399.602 64.3644 407.966C64.3644 420.446 78.7961 428.418 88.5509 421.327C95.4436 416.317 111.383 390.145 111.383 383.837C111.383 372.556 100.011 364.68 89.8754 368.942ZM225.929 368.942C218.389 372.111 200.418 399.602 200.418 407.966C200.418 420.446 214.849 428.418 224.604 421.327C231.497 416.317 247.436 390.145 247.436 383.837C247.436 372.556 236.065 364.68 225.929 368.942ZM377.988 368.942C370.448 372.111 352.477 399.602 352.477 407.966C352.477 420.446 366.909 428.418 376.664 421.327C383.557 416.317 399.496 390.145 399.496 383.837C399.496 372.556 388.124 364.68 377.988 368.942ZM153.901 400.946C146.361 404.116 128.39 431.606 128.39 439.97C128.39 452.45 142.821 460.422 152.576 453.331C159.469 448.321 175.408 422.149 175.408 415.841C175.408 404.561 164.037 396.685 153.901 400.946ZM297.957 400.946C290.417 404.116 272.446 431.606 272.446 439.97C272.446 452.45 286.878 460.422 296.633 453.331C303.525 448.321 319.464 422.149 319.464 415.841C319.464 404.561 308.093 396.685 297.957 400.946ZM81.8723 456.954C74.3323 460.123 56.3613 487.614 56.3613 495.978C56.3613 508.457 70.7929 516.429 80.5478 509.338C87.4405 504.329 103.38 478.156 103.38 471.848C103.38 460.568 92.0083 452.692 81.8723 456.954ZM225.929 456.954C218.389 460.123 200.418 487.614 200.418 495.978C200.418 508.457 214.849 516.429 224.604 509.338C231.497 504.329 247.436 478.156 247.436 471.848C247.436 460.568 236.065 452.692 225.929 456.954ZM369.985 456.954C362.445 460.123 344.474 487.614 344.474 495.978C344.474 508.457 358.906 516.429 368.661 509.338C375.553 504.329 391.493 478.156 391.493 471.848C391.493 460.568 380.121 452.692 369.985 456.954Z" />
</svg>
