<svg width="512" height="512" viewBox="0 0 512 512" xmlns="http://www.w3.org/2000/svg">
<g clip-path="url(#clip0_972_342)">
<path fill-rule="evenodd" clip-rule="evenodd" d="M398.677 155.382C398.677 149.446 394.426 144.633 389.183 144.633H135.72C130.477 144.633 126.226 149.446 126.226 155.382V329.73C126.226 335.666 130.477 340.479 135.72 340.479H239.747H285.156H389.183C394.426 340.479 398.677 335.666 398.677 329.73V155.382ZM373.909 204.344C373.909 198.407 369.658 193.594 364.414 193.594H160.489C155.245 193.594 150.994 198.407 150.994 204.344V256.288C150.994 262.224 155.245 267.037 160.489 267.037H364.414C369.658 267.037 373.909 262.224 373.909 256.288V204.344Z" />
<path fill-rule="evenodd" clip-rule="evenodd" d="M267.792 1.86155C264.569 -0.620519 260.334 -0.620516 257.111 1.86155L129.018 100.516C121.289 106.468 125.01 120.152 134.358 120.152H390.545C399.893 120.152 403.614 106.468 395.885 100.516L267.792 1.86155ZM262.451 95.6715C274.99 95.6715 285.156 84.7113 285.156 71.1908C285.156 57.6702 274.99 46.71 262.451 46.71C249.913 46.71 239.747 57.6702 239.747 71.1908C239.747 84.7113 249.913 95.6715 262.451 95.6715Z" />
<path d="M239.747 427.653C239.747 433.589 243.998 438.402 249.242 438.402H275.661C280.905 438.402 285.156 433.589 285.156 427.653V340.479H239.747V427.653Z" />
<path fill-rule="evenodd" clip-rule="evenodd" d="M340.717 428.602C372.452 401.808 405.592 417.768 418.067 428.848L418.139 428.912C427.906 437.732 437.998 439.461 446.962 438.191C456.288 436.869 464.305 432.261 468.509 428.709C481.128 417.779 494.482 414.851 501.243 415.105C507.509 415.341 512.411 421.009 512.192 427.765C511.973 434.521 506.717 439.807 500.451 439.571C500.451 439.571 500.404 439.569 500.302 439.572C500.202 439.575 500.065 439.582 499.89 439.596C499.538 439.625 499.072 439.681 498.503 439.782C497.362 439.983 495.902 440.345 494.223 440.948C490.869 442.154 486.786 444.271 482.687 447.829L482.586 447.917C475.656 453.796 463.874 460.486 449.92 462.463C435.589 464.494 418.901 461.511 403.602 447.717C395.504 440.547 374.65 431 354.66 447.923L354.52 448.042C341.539 458.682 307.239 474.261 275.23 448.187C273.243 446.695 269.404 444.232 264.835 442.16C260.052 439.991 255.372 438.665 251.626 438.665H251.208L250.79 438.632C246.56 438.295 241.528 439.664 236.476 442.162C231.497 444.625 227.496 447.69 225.681 449.382L225.065 449.956L224.379 450.43C191.811 472.92 161.389 460.035 149.446 449.65L149.214 449.448L148.991 449.233C144.942 445.315 138.841 442.239 136.298 441.237C116.117 434.582 101.789 444.371 98.0209 448.601L97.1381 449.592L96.0735 450.347C71.0246 468.12 59.0084 466.408 38.8032 449.872C33.3268 445.391 28.3587 442.853 24.5555 441.475C22.6477 440.783 21.062 440.394 19.8821 440.192C18.8185 440.01 18.2478 440.007 18.1501 440.006C18.1326 440.006 18.1374 440.007 18.1501 440.006C11.8957 440.477 6.46452 435.391 6.02801 428.647C5.59151 421.903 10.3078 416.055 16.5622 415.584C23.8813 415.033 37.8603 418.367 52.5296 430.372C64.4717 440.145 65.5648 442.188 82.6843 430.529C92.076 420.874 114.518 408.305 143.256 417.932L143.461 418L143.663 418.077C147.599 419.574 156.75 423.96 163.888 430.756C170.288 436.168 189.558 444.998 211.529 430.227C215.004 427.123 220.504 423.129 227.011 419.91C233.799 416.553 242.675 413.548 252.045 414.187C259.918 414.276 267.62 416.865 273.637 419.594C279.864 422.417 285.215 425.819 288.469 428.298L288.632 428.422L288.791 428.552C309.266 445.335 331.77 435.894 340.717 428.602ZM340.717 477.564C372.452 450.769 405.592 466.729 418.067 477.81L418.139 477.873C427.906 486.694 437.998 488.422 446.962 487.152C456.288 485.831 464.305 481.223 468.509 477.67C481.128 466.741 494.482 463.812 501.243 464.067C507.509 464.302 512.411 469.97 512.192 476.726C511.973 483.483 506.717 488.768 500.451 488.533C500.451 488.533 500.404 488.531 500.302 488.534C500.202 488.536 500.065 488.543 499.89 488.557C499.538 488.586 499.072 488.643 498.503 488.743C497.362 488.944 495.902 489.306 494.223 489.91C490.869 491.115 486.786 493.232 482.687 496.791L482.586 496.878C475.656 502.757 463.874 509.447 449.92 511.424C435.589 513.455 418.901 510.473 403.602 496.679C395.504 489.508 374.65 479.961 354.66 496.885L354.52 497.003C341.539 507.643 307.239 523.222 275.23 497.149C273.243 495.657 269.404 493.193 264.835 491.121C260.052 488.952 255.372 487.627 251.626 487.627H251.208L250.79 487.594C246.56 487.257 241.528 488.626 236.476 491.124C231.497 493.586 227.496 496.652 225.681 498.343L225.065 498.918L224.379 499.391C191.811 521.881 161.389 508.996 149.446 498.612L149.214 498.409L148.991 498.194C144.942 494.276 138.841 491.201 136.298 490.198C116.117 483.544 101.789 493.332 98.0209 497.562L97.1381 498.554L96.0735 499.309C71.0246 517.082 59.0084 515.369 38.8032 498.834C33.3268 494.352 28.3587 491.814 24.5555 490.436C22.6477 489.745 21.062 489.355 19.8821 489.153C18.8185 488.971 18.2478 488.968 18.1501 488.968C18.1326 488.968 18.1374 488.969 18.1501 488.968C11.8957 489.439 6.46453 484.352 6.02801 477.608C5.5915 470.865 10.3078 465.016 16.5622 464.545C23.8813 463.995 37.8603 467.329 52.5296 479.334C64.4717 489.107 65.5648 491.15 82.6843 479.49C92.076 469.835 114.518 457.266 143.256 466.893L143.461 466.962L143.663 467.039C147.599 468.535 156.75 472.922 163.888 479.717C170.288 485.129 189.558 493.959 211.529 479.188C215.004 476.085 220.504 472.09 227.011 468.872C233.799 465.515 242.676 462.51 252.045 463.148C259.918 463.238 267.62 465.826 273.637 468.555C279.864 471.379 285.215 474.781 288.469 477.259L288.632 477.383L288.791 477.513C309.266 494.297 331.77 484.856 340.717 477.564Z" />
</g>
</svg>
