<svg width="24" height="25" viewBox="0 0 24 25"  xmlns="http://www.w3.org/2000/svg">
<path fill-rule="evenodd" clip-rule="evenodd" d="M0.793374 0.18392C0.69354 0.440023 0.777153 0.494601 2.12498 1.05164C3.62071 1.66995 5.81254 2.79261 6.85454 3.4743C9.2223 5.02324 9.82393 6.24718 8.88797 7.61103C8.3913 8.33474 7.7676 8.75528 5.76292 9.71807C3.37059 10.8671 2.70359 11.2573 1.9073 11.9735C1.10135 12.6984 0.564244 13.5055 0.248757 14.4662C-0.0668491 15.4273 -0.0846214 17.3796 0.209634 18.768C0.676006 20.9685 2.34063 25 2.78303 25C3.09971 25 3.00464 24.539 2.44882 23.3793C0.370062 19.0428 -0.0200926 15.5775 1.3405 13.5358C2.21551 12.2231 2.9784 11.684 6.00147 10.2425C8.69152 8.95962 9.55293 8.18427 9.81844 6.80692C9.96503 6.04613 9.8293 5.53732 9.28158 4.7946C8.78575 4.1223 7.32735 3.03533 5.75779 2.16854C4.57433 1.51491 1.24543 0 0.992566 0C0.922432 0 0.832855 0.0827465 0.793374 0.18392ZM5.68372 0.18392C5.58293 0.442254 5.6737 0.497535 7.01532 0.99507C9.46658 1.90399 12.1563 3.35857 13.4369 4.46784C15.2346 6.02488 15.1267 7.74225 13.0397 10.7969C12.1581 12.0872 11.7913 12.8094 11.5441 13.7407C11.0425 15.6318 11.6454 17.1256 13.8104 19.3549C15.3692 20.96 18.352 23.3793 20.41 24.7077C20.876 25.0086 20.9398 25.0219 21.11 24.8546C21.3096 24.6582 21.2771 24.6305 18.7974 22.8823C18.1203 22.405 18.0551 22.3212 18.0519 21.9266C18.038 20.2015 19.3045 17.0093 20.9852 14.5331C21.933 13.1365 21.9482 13.1527 20.4052 13.9146C17.921 15.1414 16.2682 16.9704 15.585 19.2488L15.4266 19.777L15.4918 19.0141C15.6524 17.139 16.2828 14.9527 17.1614 13.2241C17.9395 11.6928 18.1095 11.4864 18.4784 11.6244C18.9158 11.788 19.6802 11.7624 20.0554 11.5716C20.4025 11.395 22.9922 8.52054 23.4061 7.85246C23.6994 7.37899 23.7261 6.69742 23.4703 6.21068C23.2927 5.87265 23.299 5.84495 23.6492 5.42688C24.0521 4.94589 24.0988 4.7527 23.8362 4.65352C23.7302 4.61338 23.5033 4.75082 23.2651 4.99918C22.8709 5.41033 22.8685 5.41103 22.321 5.26702C21.8512 5.14331 21.6959 5.15129 21.2407 5.3223C20.8004 5.48779 20.4559 5.81467 19.2297 7.23063C18.416 8.17031 17.685 9.05376 17.6053 9.19378C17.421 9.51772 17.4109 10.4634 17.5876 10.8453C17.705 11.0986 17.6736 11.2144 17.3553 11.7026C16.2816 13.3491 15.4765 15.5488 15.0513 17.9975C14.8222 19.3178 14.8204 19.3996 15.0166 19.6407C15.1303 19.7803 14.7712 19.4454 14.2188 18.8967C12.4308 17.1207 11.8868 16.0657 12 14.5933C12.0809 13.5404 12.4548 12.6948 13.5712 11.0393C14.5798 9.54354 15.0164 8.61737 15.1901 7.60434C15.4338 6.18275 15.1377 5.32148 14.0449 4.2716C12.7888 3.06479 10.1289 1.57394 7.33809 0.512441C5.82411 -0.0634976 5.78331 -0.0714789 5.68372 0.18392ZM22.3801 5.88228C22.8214 6.10434 23.0525 6.48591 23.0554 6.99683C23.0579 7.44871 22.957 7.5946 21.4776 9.27934C19.7282 11.2715 19.4691 11.4407 18.7106 11.0866C18.2261 10.8603 17.8792 10.2278 17.986 9.76561C18.0695 9.40481 20.865 6.14272 21.289 5.91127C21.6354 5.72218 22.0405 5.71138 22.3801 5.88228ZM19.3507 16.1284C18.4676 17.7831 18.0094 19.0007 17.6903 20.5413L17.4444 21.7286L17.7166 21.9653C18.2372 22.418 17.5251 21.9256 16.7481 21.2955C16.1179 20.7846 16.0325 20.6653 16.0269 20.2881C16.012 19.2619 16.7564 17.6617 17.76 16.5634C18.3109 15.9603 19.7697 14.7887 19.9695 14.7887C20.0224 14.7887 19.7439 15.3915 19.3507 16.1284Z" />
</svg>
