<svg width="512" height="528" viewBox="0 0 512 528"  xmlns="http://www.w3.org/2000/svg">
<path fill-rule="evenodd" clip-rule="evenodd" d="M412.903 34.0486H99.0968C62.6103 34.0486 33.0323 64.5368 33.0323 102.146V425.608C33.0323 463.217 62.6103 493.705 99.0968 493.705H412.903C449.39 493.705 478.968 463.217 478.968 425.608V102.146C478.968 64.5368 449.39 34.0486 412.903 34.0486ZM99.0968 0C44.3671 0 0 45.7323 0 102.146V425.608C0 482.022 44.3671 527.754 99.0968 527.754H412.903C467.633 527.754 512 482.022 512 425.608V102.146C512 45.7323 467.633 0 412.903 0H99.0968Z" />
<path d="M66.0645 102.146C66.0645 83.3414 80.8536 68.0973 99.0968 68.0973H198.194V51.073H99.0968C71.732 51.073 49.5484 73.9391 49.5484 102.146V425.608C49.5484 453.815 71.732 476.681 99.0968 476.681H412.903C440.268 476.681 462.452 453.815 462.452 425.608V306.438H445.935V425.608C445.935 444.412 431.146 459.657 412.903 459.657H99.0968C80.8536 459.657 66.0645 444.412 66.0645 425.608V102.146Z" />
<path fill-rule="evenodd" clip-rule="evenodd" d="M252.929 246.436H230.901V255.75H259.139C271.262 255.75 281.759 257.18 290.629 260.038C291.4 260.275 292.159 260.521 292.907 260.776C292.927 260.782 292.947 260.789 292.967 260.796C291.265 261.574 289.501 262.306 287.672 262.995C279.393 266.05 269.882 267.578 259.139 267.578H230.901V276.596H252.929C260.716 276.596 267.418 277.779 273.036 280.144C278.753 282.51 283.139 286.206 286.194 291.233C289.249 296.259 290.777 302.814 290.777 310.896C290.777 317.696 289.397 323.561 286.637 328.489C283.878 333.318 279.886 337.064 274.662 339.725C269.537 342.288 263.377 343.569 256.182 343.569C249.677 343.569 243.812 342.288 238.589 339.725C233.464 337.064 229.422 333.417 226.466 328.785C223.607 324.152 222.178 318.879 222.178 312.965H183C183 323.216 185.021 332.234 189.062 340.021C193.103 347.708 198.573 354.115 205.472 359.24C212.371 364.267 220.108 368.061 228.683 370.624C237.357 373.088 246.277 374.32 255.443 374.32C265.989 374.32 275.796 372.94 284.863 370.18C293.931 367.322 301.816 363.183 308.518 357.762C315.319 352.341 320.592 345.737 324.337 337.951C328.083 330.066 329.955 321.097 329.955 311.043C329.955 303.356 328.526 296.161 325.668 289.458C322.908 282.756 318.621 276.892 312.806 271.865C307.504 267.192 300.891 263.503 292.967 260.796C299.062 258.011 304.345 254.653 308.814 250.724C314.629 245.599 319.015 239.882 321.972 233.574C325.027 227.168 326.555 220.761 326.555 214.355C326.555 200.95 323.549 189.714 317.537 180.647C311.623 171.579 303.294 164.729 292.551 160.096C281.907 155.365 269.488 153 255.295 153C242.285 153 230.507 155.513 219.961 160.54C209.414 165.567 201.037 172.515 194.827 181.386C188.717 190.158 185.661 200.359 185.661 211.989H224.839C224.839 206.174 226.219 201.197 228.979 197.057C231.837 192.819 235.632 189.566 240.363 187.299C245.192 185.033 250.465 183.899 256.182 183.899C263.278 183.899 269.094 185.18 273.627 187.743C278.26 190.207 281.709 193.755 283.976 198.388C286.243 202.921 287.377 208.293 287.377 214.502C287.377 220.81 286.095 226.379 283.533 231.209C281.069 235.94 277.274 239.685 272.149 242.445C267.122 245.106 260.716 246.436 252.929 246.436Z" />
<path d="M259.139 267.578C269.882 267.578 279.393 266.05 287.672 262.995C289.501 262.306 291.265 261.574 292.967 260.796L292.907 260.776C292.159 260.521 291.4 260.275 290.629 260.038C281.759 257.18 271.262 255.75 259.139 255.75H230.901V267.578H259.139Z"/>
</svg>
