<svg width="512" height="512" viewBox="0 0 512 512"  xmlns="http://www.w3.org/2000/svg">
<path fill-rule="evenodd" clip-rule="evenodd" d="M207.274 74.9497C207.36 81.6014 212.776 86.9487 219.429 86.9487C226.081 86.9487 231.497 81.6014 231.583 74.9497L231.883 51.6161C231.973 44.6748 226.37 39 219.429 39C212.487 39 206.884 44.6748 206.974 51.6161L207.274 74.9497ZM64.2754 102.469C59.7259 106.991 59.7414 114.357 64.3099 118.859L82.0069 136.3C86.6 140.827 93.9776 140.823 98.5669 136.293C103.12 131.798 103.12 124.448 98.5663 119.953L80.8283 102.442C76.237 97.9097 68.8516 97.9219 64.2754 102.469ZM208.571 136.074C165.529 139.608 128.017 165.667 109.143 205.146C81.6103 262.737 105.873 332.884 163.429 362.094C183.686 372.374 200.966 376.04 226 375.366C229.339 375.277 232 372.544 232 369.203V141.075C232 138.286 229.739 136.026 226.951 136.026C224.174 136.026 221.216 135.846 220.379 135.627C219.542 135.409 214.229 135.609 208.571 136.074ZM256.038 171.282L256.052 175.626C256.066 180.035 258.619 184.043 262.609 185.919C266.202 187.609 273.413 191.352 278.631 194.233C295.069 203.313 305.848 202.466 325.722 190.53C340.141 181.871 342.2 181.858 356.615 190.332C379.411 203.734 388.992 203.774 411.12 190.557C425.831 181.771 427.598 181.794 443.197 190.961C462.832 202.501 473.101 203.222 489.419 194.207C494.61 191.339 501.798 187.609 505.391 185.919C509.381 184.043 511.934 180.035 511.948 175.626L511.962 171.282C511.999 159.897 511.959 159.718 509.325 159.718C504.043 159.718 495.722 163.018 485.285 169.252C471.187 177.672 468.962 177.917 458.857 172.165C430.625 156.093 422.111 155.751 398.882 169.757C388.334 176.118 385.357 177.222 381.403 176.243C379.975 175.889 374.447 172.97 369.118 169.757C345.889 155.751 337.375 156.093 309.143 172.165C299.038 177.917 296.813 177.672 282.715 169.252C272.278 163.018 263.957 159.718 258.675 159.718C256.041 159.718 256.001 159.897 256.038 171.282ZM256 221.937C256 233.096 256.187 234.18 258.114 234.18C259.277 234.18 265.063 237.061 270.971 240.583C282.158 247.251 292.369 251.103 298.857 251.103C305.246 251.103 315.469 247.217 326.857 240.46C340.333 232.466 343.158 232.447 355.863 240.264C369.702 248.778 374.266 250.427 384 250.427C393.682 250.427 397.712 248.983 412.11 240.355C425.962 232.054 427.801 232.184 445.143 242.681C463.877 254.021 474.623 253.756 495.597 241.441C502.397 237.447 508.87 234.18 509.981 234.18C511.787 234.18 512 232.89 512 221.937V215.631C512 212.513 509.217 210.131 506.136 210.611C499.689 211.617 496.621 212.988 482.443 221.198C469.933 228.445 468.157 228.39 454.69 220.35C441.184 212.286 435.633 210.342 426.038 210.311C417.529 210.285 411.974 212.325 398.817 220.303C394.71 222.794 389.506 225.49 387.253 226.294C383.335 227.693 382.789 227.552 374.721 223.075C354.786 212.009 350.378 210.286 342.055 210.311C332.366 210.341 326.843 212.27 313.31 220.35C300.047 228.269 297.951 228.383 286.711 221.796C272.992 213.757 268.215 211.602 261.942 210.624C258.82 210.136 256 212.55 256 215.71V221.937ZM0 255.615C0 262.469 5.60145 268.001 12.4544 267.915L36.7262 267.61C43.292 267.528 48.5714 262.182 48.5714 255.615C48.5714 249.049 43.292 243.703 36.7262 243.621L12.4544 243.316C5.60143 243.23 0 248.762 0 255.615ZM256 279.536C256 281.961 257.468 284.144 259.714 285.059C261.758 285.891 268.043 289.26 273.685 292.546C285.597 299.486 289.438 300.729 298.999 300.737C307.827 300.745 312.803 299.001 326.008 291.266C339.821 283.175 340.895 282.971 348.585 286.978C352.035 288.774 359.47 292.654 365.106 295.598L366.706 296.433C372.373 299.392 378.72 300.804 385.106 300.526C395.664 300.066 396.944 299.593 413.557 290.01C419.649 286.496 424.451 284.497 426.806 284.497C429.263 284.497 434.48 286.799 442.392 291.373C457.414 300.055 460.936 301.143 471.982 300.512C479.745 300.069 481.822 299.439 489.259 295.281C493.91 292.681 500.929 288.93 504.857 286.946C509.238 284.732 512 280.242 512 275.334V264.848C512 262.267 509.692 260.299 507.143 260.706C500.719 261.731 494.215 264.598 483.863 270.967C471.158 278.784 468.333 278.765 454.857 270.771C443.469 264.014 433.246 260.128 426.857 260.128C420.369 260.128 410.158 263.98 398.971 270.648C384.723 279.141 383.458 279.106 367.597 269.79C355.861 262.899 348.154 260.128 340.722 260.128C335.05 260.128 325.307 263.608 317.143 268.55C299.801 279.047 297.962 279.177 284.11 270.875C273.234 264.359 267.195 261.718 260.857 260.706C258.308 260.299 256 262.267 256 264.848V279.536ZM256 322.622C256 333.909 256.097 334.37 258.625 334.996C260.069 335.354 265.914 338.422 271.616 341.815C294.531 355.453 302.741 355.072 330.857 339.065C340.962 333.314 343.187 333.559 357.285 341.978C378.742 354.794 389.151 354.814 410.621 342.078C416.408 338.645 422.567 335.498 424.307 335.085C428.138 334.177 432.465 335.795 442.112 341.741C463.36 354.84 475.043 354.783 497.118 341.474C502.447 338.261 507.975 335.342 509.403 334.988C511.895 334.371 512 333.872 512 322.622C512 311.08 511.958 310.897 509.325 310.897C503.994 310.897 495.682 314.221 484.88 320.673C470.347 329.354 468.313 329.357 453.777 320.726C439.694 312.364 433.8 310.463 424.133 311.165C416.112 311.746 412.133 313.365 396.027 322.596C391.015 325.469 385.722 327.821 384.267 327.821C381.242 327.821 375.251 324.973 366.038 319.154C347.537 307.471 334.627 308.081 312.517 321.685C300.063 329.348 297.496 329.26 283.12 320.673C272.318 314.221 264.006 310.897 258.675 310.897C256.042 310.897 256 311.08 256 322.622ZM64.0169 391.561C59.3038 396.222 59.307 403.835 64.024 408.492C68.7745 413.181 76.4132 413.178 81.1598 408.485L98.2688 391.567C102.982 386.906 102.979 379.293 98.2617 374.637C93.5112 369.947 85.8725 369.95 81.1259 374.644L64.0169 391.561ZM207.656 424.433C207.217 424.868 206.857 435.799 206.857 448.727V459.637C206.857 466.592 212.496 472.231 219.451 472.231C226.381 472.231 231.973 466.566 231.884 459.638L231.576 435.772C231.494 429.352 226.36 424.141 219.942 423.963C213.625 423.788 208.096 423.999 207.656 424.433Z" />
</svg>
