<svg width="512" height="512" viewBox="0 0 512 512" xmlns="http://www.w3.org/2000/svg">

<path fill-rule="evenodd" d="M263.378 3.23125C258.5 12.9359 259.235 22.4728 265.6 32.0382C267.536 34.949 269.12 38.8714 269.12 40.7552C269.12 44.6144 266.416 50.5313 262.901 54.3631C260.988 56.4504 260.799 57.3929 261.889 59.4208C266.13 67.3106 277.658 53.9086 277.658 41.0872C277.658 37.1339 276.839 33.3342 275.48 30.9803C269.948 21.3946 269.124 19.4109 269.122 15.6813C269.121 13.4893 269.972 9.9073 271.014 7.72122C273.56 2.38038 272.854 -0.475689 268.873 -0.93385C266.186 -1.24445 265.283 -0.558991 263.378 3.23125ZM314.217 9.89421C311.257 14.3925 309.524 22.4704 310.369 27.8339C310.796 30.5412 312.984 35.7832 315.232 39.4819C317.48 43.1805 319.32 47.624 319.32 49.3579C319.32 53.0351 316.516 58.9721 312.945 62.8587C310.99 64.9865 310.719 66.0385 311.719 67.6189C313.773 70.8664 316.907 70.7105 320.612 67.175C328.802 59.3636 329.866 45.7152 323.105 35.2013C318.795 28.5003 317.99 20.3022 321.194 15.748C323.947 11.8351 322.993 7.84617 319.199 7.40705C316.992 7.1512 315.548 7.87235 314.217 9.89421ZM209.942 25.4705C207.466 29.2333 205.77 35.3584 205.784 40.4839C205.795 44.2158 207.968 49.5578 213.698 59.9313C216.2 64.4593 214.975 70.4023 210.495 75.4825C206.686 79.8012 206.153 82.0456 208.402 84.2852C213.854 89.7129 223.701 76.5274 223.701 63.7977C223.701 59.3494 221.614 54.3143 217.44 48.6939C214.56 44.8156 214.39 36.2426 217.089 31.0458C218.164 28.9763 218.711 26.2392 218.303 24.9623C217.249 21.6541 212.254 21.9575 209.942 25.4705ZM261.178 82.1895C248.062 84.7743 234.371 95.5655 228.152 108.218C224.522 115.606 224.299 116.817 224.299 129.149C224.299 141.072 224.596 142.844 227.639 149.013C234.878 163.687 247.749 173.366 264.04 176.383C284.196 180.114 305.694 168.653 315.382 149.013C318.425 142.844 318.722 141.072 318.722 129.149C318.722 117.226 318.425 115.454 315.382 109.285C305.131 88.5026 283.646 77.7626 261.178 82.1895ZM202.784 157.196C196.211 161.142 188.746 166.352 186.197 168.775C179.328 175.303 172.569 186.269 169.575 195.741C167.09 203.607 166.933 206.2 167.016 238.037L167.103 271.952L173.934 296.348C177.869 310.402 181.977 322.574 183.627 325.062C186.75 329.771 195.008 334.429 200.233 334.429C207.537 334.429 214.139 327.973 214.139 320.832C214.139 319.179 211.642 306.166 208.59 291.914L203.039 266.002L202.49 237.116C202.077 215.386 202.304 207.795 203.406 206.472C205.482 203.982 210.243 204.293 211.707 207.017C212.454 208.409 212.944 219.901 212.944 236.054V262.789L218.416 289.386C224.746 320.158 224.948 326.851 219.752 333.635C214.391 340.631 209.729 343.217 201.541 343.737C195.776 344.103 193.156 343.66 189.207 341.654L184.193 339.107L184.867 361.462C185.237 373.756 186.055 408.591 186.685 438.873C187.624 484.093 188.161 494.722 189.686 498.359C193.655 507.816 201.727 512.944 212.597 512.914C221.246 512.889 227.552 509.579 232.615 502.41L236.251 497.261L236.849 435.376L237.446 373.492L240.928 370.511C245.205 366.849 250.446 367.418 254.478 371.98L257.168 375.023V434.496C257.168 498.542 257.196 498.867 263.5 505.595C270.418 512.979 283.808 515.234 293.003 510.564C298.25 507.899 303.367 501.86 304.907 496.518C305.472 494.555 306.11 462.936 306.324 426.254L306.714 359.559L300.256 356.2C292.761 352.302 288.244 345.355 288.244 337.724C288.244 335.161 290.482 320.116 293.218 304.293C297.908 277.171 298.234 273.758 298.896 244.709C299.526 217.114 299.817 213.758 301.69 212.584C303.213 211.63 304.351 211.63 305.874 212.586C307.755 213.766 307.999 216.766 308.302 242.33L308.639 270.762L303.043 305.065C297.665 338.036 297.524 339.526 299.405 343.452C303.531 352.067 314.043 354.83 320.547 349.007C323.775 346.119 325.246 342.197 333.074 315.635C337.951 299.08 342.609 282.212 343.423 278.149C345.802 266.286 345.399 220.422 342.824 210.071C340.036 198.857 331.548 181.932 324.261 173.055L318.297 165.79L311.772 171.933C288.657 193.695 253.008 193.2 230.255 170.8C226.266 166.873 221.411 160.583 219.468 156.82C217.523 153.058 215.663 149.99 215.334 150.001C215.006 150.013 209.358 153.25 202.784 157.196Z" />
</svg>
