<svg width="512" height="512" viewBox="0 0 512 512" xmlns="http://www.w3.org/2000/svg">
<path d="M416.802 264.987C379.253 141.5 268.742 9.70765 263.124 3.049C262.246 2.08834 261.178 1.32106 259.988 0.79609C258.798 0.271125 257.511 0 256.21 0C254.909 0 253.622 0.271125 252.432 0.79609C251.241 1.32106 250.173 2.08834 249.296 3.049C243.678 9.70765 133.148 141.481 95.5795 264.987C87.8805 290.316 83 315.343 83 338.819C83 434.31 160.709 512 256.2 512C351.691 512 429.363 434.31 429.363 338.819C429.382 315.343 424.501 290.335 416.802 264.987ZM256.219 493.916C170.697 493.916 101.122 424.341 101.122 338.837C101.122 315.627 106.286 290.543 114.534 265.006C147.392 163.329 231.495 53.9725 256.219 23.233C280.943 53.9725 365.046 163.329 397.867 265.006C406.114 290.562 411.279 315.627 411.279 338.837C411.279 424.341 341.722 493.916 256.219 493.916Z" />
<path d="M159.14 264.989C149.682 289.013 143.364 313.075 143.364 334.981C143.364 364.91 155.253 393.613 176.416 414.776C197.579 435.939 226.282 447.828 256.211 447.828C286.139 447.828 314.843 435.939 336.005 414.776C357.168 393.613 369.057 364.91 369.057 334.981C369.057 313.075 362.739 289.013 353.281 264.989H159.14Z"/>
</svg>
