<svg width="512" height="512" viewBox="0 0 512 512"  xmlns="http://www.w3.org/2000/svg">

<path d="M133.474 353.097C137.439 354.591 140.649 357.597 142.401 361.455C144.153 365.312 144.304 369.707 142.82 373.676L94.8136 501.692C94.136 503.734 93.0533 505.619 91.6305 507.233C90.2077 508.848 88.4738 510.159 86.5327 511.087C84.5916 512.016 82.4831 512.544 80.3333 512.639C78.1835 512.734 76.0367 512.395 74.0211 511.641C72.0055 510.888 70.1626 509.735 68.6027 508.253C67.0428 506.77 65.7979 504.989 64.9424 503.014C64.087 501.04 63.6386 498.913 63.6241 496.761C63.6095 494.609 64.0291 492.476 64.8578 490.491L112.864 362.474C113.6 360.505 114.718 358.699 116.153 357.162C117.588 355.624 119.311 354.385 121.225 353.514C123.14 352.643 125.207 352.158 127.309 352.086C129.41 352.015 131.506 352.358 133.474 353.097ZM229.487 353.097C233.451 354.591 236.661 357.597 238.413 361.455C240.165 365.312 240.316 369.707 238.832 373.676L190.826 501.692C190.148 503.734 189.065 505.619 187.643 507.233C186.22 508.848 184.486 510.159 182.545 511.087C180.604 512.016 178.495 512.544 176.345 512.639C174.196 512.734 172.049 512.395 170.033 511.641C168.018 510.888 166.175 509.735 164.615 508.253C163.055 506.77 161.81 504.989 160.955 503.014C160.099 501.04 159.651 498.913 159.636 496.761C159.622 494.609 160.041 492.476 160.87 490.491L208.876 362.474C209.613 360.505 210.73 358.699 212.165 357.162C213.6 355.624 215.323 354.385 217.238 353.514C219.152 352.643 221.219 352.158 223.321 352.086C225.422 352.015 227.518 352.358 229.487 353.097ZM325.499 353.097C329.463 354.591 332.674 357.597 334.425 361.455C336.177 365.312 336.328 369.707 334.844 373.676L286.838 501.692C286.16 503.734 285.078 505.619 283.655 507.233C282.232 508.848 280.498 510.159 278.557 511.087C276.616 512.016 274.507 512.544 272.358 512.639C270.208 512.734 268.061 512.395 266.045 511.641C264.03 510.888 262.187 509.735 260.627 508.253C259.067 506.77 257.822 504.989 256.967 503.014C256.111 501.04 255.663 498.913 255.648 496.761C255.634 494.609 256.053 492.476 256.882 490.491L304.888 362.474C305.625 360.505 306.742 358.699 308.177 357.162C309.612 355.624 311.335 354.385 313.25 353.514C315.164 352.643 317.231 352.158 319.333 352.086C321.434 352.015 323.53 352.358 325.499 353.097ZM421.511 353.097C425.475 354.591 428.686 357.597 430.438 361.455C432.189 365.312 432.34 369.707 430.856 373.676L382.85 501.692C381.256 505.513 378.242 508.567 374.443 510.213C370.644 511.859 366.355 511.968 362.477 510.518C358.599 509.068 355.434 506.171 353.647 502.437C351.86 498.702 351.59 494.42 352.894 490.491L400.9 362.474C401.637 360.505 402.754 358.699 404.189 357.162C405.624 355.624 407.348 354.385 409.262 353.514C411.176 352.643 413.243 352.158 415.345 352.086C417.447 352.015 419.542 352.358 421.511 353.097ZM428.84 128.909C422.194 95.406 405.004 64.9077 379.784 41.8734C354.564 18.8391 322.636 4.47689 288.67 0.886765C254.703 -2.70336 220.479 4.66687 191.001 21.9198C161.522 39.1728 138.337 65.4036 124.833 96.777C109.69 95.0325 94.3504 96.3971 79.7531 100.787C65.1557 105.177 51.608 112.501 39.9394 122.309C28.2708 132.117 18.7268 144.204 11.8918 157.829C5.05686 171.454 1.0747 186.33 0.189179 201.548C-0.696346 216.765 1.53339 232.004 6.74188 246.329C11.9504 260.655 20.028 273.767 30.4802 284.863C40.9324 295.958 53.5393 304.803 67.5289 310.857C81.5185 316.911 96.5965 320.045 111.84 320.069H415.878C440.237 320.097 463.695 310.865 481.502 294.244C499.309 277.623 510.132 254.855 511.78 230.552C513.428 206.249 505.777 182.229 490.377 163.356C474.977 144.483 452.979 132.17 428.84 128.909ZM271.86 32.0328C303.35 32.0263 333.739 43.6269 357.214 64.6165C380.689 85.6062 395.605 114.512 399.108 145.807C399.543 149.739 401.419 153.371 404.374 156.001C407.329 158.631 411.154 160.073 415.11 160.049H415.878C432.854 160.049 449.135 166.793 461.139 178.796C473.142 190.8 479.886 207.081 479.886 224.057C479.886 241.033 473.142 257.314 461.139 269.318C449.135 281.321 432.854 288.065 415.878 288.065H111.84C100.513 288.059 89.3159 285.649 78.9901 280.993C68.6643 276.336 59.4448 269.541 51.9415 261.055C44.4382 252.57 38.8221 242.588 35.4648 231.77C32.1074 220.952 31.0854 209.544 32.4661 198.302C33.8469 187.059 37.5991 176.238 43.4745 166.554C49.3499 156.869 57.2145 148.543 66.5482 142.126C75.8818 135.708 86.4717 131.345 97.6174 129.326C108.763 127.307 120.21 127.678 131.202 130.413C135.124 131.391 139.27 130.849 142.808 128.896C146.346 126.943 149.015 123.723 150.277 119.884C158.735 94.3182 175.035 72.0688 196.862 56.2976C218.689 40.5265 244.931 32.036 271.86 32.0328Z" />
</svg>
