<svg width="512" height="512" viewBox="0 0 512 512"  xmlns="http://www.w3.org/2000/svg">

<path fill-rule="evenodd" clip-rule="evenodd" d="M163.361 375.254L176.629 367.98V249.79C176.404 249.811 176.176 249.824 175.946 249.824H151.079V352.85C124.81 367.249 107 395.162 107 427.233C107 474.049 144.952 512 191.768 512C238.585 512 276.537 474.049 276.537 427.233C276.537 396.562 260.247 369.694 235.848 354.812V42.3843C235.848 18.976 216.872 0 193.464 0C170.056 0 151.079 18.976 151.079 42.3843V93.8498H175.946C176.176 93.8498 176.404 93.8613 176.629 93.8838V42.3843C176.629 33.0865 184.166 25.549 193.464 25.549C202.762 25.549 210.299 33.0865 210.299 42.3843V369.155L222.544 376.623C239.656 387.063 250.988 405.836 250.988 427.233C250.988 459.939 224.474 486.451 191.768 486.451C159.063 486.451 132.549 459.939 132.549 427.233C132.549 404.863 144.943 385.351 163.361 375.254ZM176.629 107.379C176.404 107.401 176.176 107.413 175.946 107.413H151.079V165.055H175.946C176.176 165.055 176.404 165.066 176.629 165.089V107.379ZM176.629 178.584C176.404 178.606 176.176 178.618 175.946 178.618H151.079V236.26H175.946C176.176 236.26 176.404 236.272 176.629 236.293V178.584Z"/>
<path fill-rule="evenodd" clip-rule="evenodd" d="M336.041 291.272L289.585 244.815C284.596 239.827 284.596 231.738 289.585 226.75C294.574 221.761 302.662 221.761 307.651 226.75L332.304 251.403V38.3235C332.304 31.2684 338.023 25.549 345.079 25.549C352.134 25.549 357.853 31.2684 357.853 38.3235V251.404L382.509 226.749C387.498 221.761 395.587 221.761 400.575 226.75C405.564 231.739 405.564 239.827 400.575 244.816L354.111 291.277C353.488 291.9 352.816 292.446 352.108 292.914M349.968 294.049C348.462 294.674 346.811 295.018 345.079 295.018C343.346 295.018 341.695 294.673 340.189 294.049C338.651 293.411 337.265 292.482 336.1 291.331C336.082 291.313 336.059 291.29 336.041 291.272" />
</svg>
