<svg width="512" height="512" viewBox="0 0 512 512" xmlns="http://www.w3.org/2000/svg">

<path fill-rule="evenodd" clip-rule="evenodd" d="M163.361 375.254L176.629 367.98V249.79C176.404 249.811 176.176 249.824 175.946 249.824H151.079V352.85C124.81 367.249 107 395.162 107 427.233C107 474.049 144.952 512 191.768 512C238.585 512 276.537 474.049 276.537 427.233C276.537 396.562 260.247 369.694 235.848 354.812V42.3843C235.848 18.976 216.872 0 193.464 0C170.056 0 151.079 18.976 151.079 42.3843V93.8498H175.946C176.176 93.8498 176.404 93.8613 176.629 93.8837V42.3843C176.629 33.0865 184.166 25.549 193.464 25.549C202.762 25.549 210.299 33.0865 210.299 42.3843V369.155L222.544 376.623C239.656 387.063 250.988 405.836 250.988 427.233C250.988 459.939 224.474 486.451 191.768 486.451C159.063 486.451 132.549 459.939 132.549 427.233C132.549 404.863 144.943 385.351 163.361 375.254ZM176.629 107.379C176.404 107.401 176.176 107.413 175.946 107.413H151.079V165.055H175.946C176.176 165.055 176.404 165.066 176.629 165.089V107.379ZM176.629 178.584C176.404 178.606 176.176 178.618 175.946 178.618H151.079V236.26H175.946C176.176 236.26 176.404 236.272 176.629 236.293V178.584Z" />
<path fill-rule="evenodd" clip-rule="evenodd" d="M354.119 29.2952L400.575 75.7518C405.564 80.7406 405.564 88.8289 400.575 93.8177C395.586 98.8064 387.498 98.8064 382.509 93.8176L357.856 69.1641V282.244C357.856 289.299 352.136 295.018 345.081 295.018C338.026 295.018 332.307 289.299 332.307 282.244V69.1629L307.65 93.8179C302.662 98.8065 294.573 98.8063 289.585 93.8174C284.596 88.8286 284.596 80.7402 289.585 75.7515L336.048 29.2904C336.672 28.6668 337.344 28.1213 338.052 27.6536M340.191 26.5183C341.698 25.8937 343.349 25.549 345.081 25.549C346.813 25.549 348.465 25.8938 349.971 26.5184C351.508 27.1559 352.894 28.085 354.06 29.2366C354.078 29.2546 354.101 29.2771 354.119 29.2952M354.119 29.2952C354.119 29.2956 354.118 29.2948 354.119 29.2952Z" />
</svg>
