<svg width="512" height="512" viewBox="0 0 512 512" xmlns="http://www.w3.org/2000/svg">
<path d="M400 64C378.783 64 358.434 72.4286 343.431 87.4315C328.429 102.434 320 122.783 320 144C320 148.243 318.314 152.313 315.314 155.314C312.313 158.314 308.243 160 304 160C299.757 160 295.687 158.314 292.686 155.314C289.686 152.313 288 148.243 288 144C288 121.849 294.569 100.194 306.875 81.7762C319.182 63.3579 336.674 49.0026 357.139 40.5255C377.605 32.0485 400.124 29.8306 421.85 34.1521C443.576 38.4736 463.532 49.1406 479.196 64.8041C494.859 80.4676 505.526 100.424 509.848 122.15C514.169 143.876 511.951 166.395 503.474 186.861C494.997 207.326 480.642 224.818 462.224 237.125C443.806 249.431 422.151 256 400 256H16C11.7565 256 7.68687 254.314 4.68629 251.314C1.68571 248.313 0 244.243 0 240C0 235.757 1.68571 231.687 4.68629 228.686C7.68687 225.686 11.7565 224 16 224H400C421.217 224 441.566 215.571 456.568 200.569C471.571 185.566 480 165.217 480 144C480 122.783 471.571 102.434 456.568 87.4315C441.566 72.4286 421.217 64 400 64V64ZM176 96C167.513 96 159.374 99.3715 153.373 105.373C147.371 111.374 144 119.513 144 128C144 132.243 142.314 136.313 139.314 139.314C136.313 142.314 132.243 144 128 144C123.757 144 119.687 142.314 116.686 139.314C113.686 136.313 112 132.243 112 128C112 115.342 115.754 102.968 122.786 92.4435C129.818 81.9188 139.814 73.7158 151.508 68.8718C163.203 64.0277 176.071 62.7603 188.486 65.2298C200.901 67.6992 212.304 73.7946 221.255 82.7452C230.205 91.6958 236.301 103.099 238.77 115.514C241.24 127.929 239.972 140.797 235.128 152.492C230.284 164.186 222.081 174.182 211.556 181.214C201.032 188.246 188.658 192 176 192H16C11.7565 192 7.68687 190.314 4.68629 187.314C1.68571 184.313 0 180.243 0 176C0 171.757 1.68571 167.687 4.68629 164.686C7.68687 161.686 11.7565 160 16 160H176C184.487 160 192.626 156.629 198.627 150.627C204.629 144.626 208 136.487 208 128C208 119.513 204.629 111.374 198.627 105.373C192.626 99.3715 184.487 96 176 96V96ZM0 304C0 299.757 1.68571 295.687 4.68629 292.686C7.68687 289.686 11.7565 288 16 288H337.344C356.331 288 374.892 293.63 390.679 304.179C406.466 314.728 418.77 329.721 426.036 347.262C433.302 364.804 435.204 384.107 431.499 402.729C427.795 421.351 418.652 438.456 405.226 451.882C391.8 465.308 374.695 474.451 356.073 478.155C337.45 481.86 318.148 479.958 300.606 472.692C283.065 465.426 268.072 453.122 257.523 437.335C246.974 421.548 241.344 402.987 241.344 384C241.344 379.757 243.03 375.687 246.03 372.686C249.031 369.686 253.1 368 257.344 368C261.587 368 265.657 369.686 268.658 372.686C271.658 375.687 273.344 379.757 273.344 384C273.344 396.658 277.098 409.032 284.13 419.557C291.162 430.081 301.158 438.284 312.852 443.128C324.547 447.972 337.415 449.24 349.83 446.77C362.245 444.301 373.648 438.205 382.599 429.255C391.549 420.304 397.645 408.901 400.114 396.486C402.584 384.071 401.316 371.203 396.472 359.508C391.628 347.814 383.425 337.818 372.9 330.786C362.376 323.754 350.002 320 337.344 320H16C11.7565 320 7.68687 318.314 4.68629 315.314C1.68571 312.313 0 308.243 0 304Z" />
</svg>
