<svg width="230" height="67" viewBox="0 0 230 67" fill="none" xmlns="http://www.w3.org/2000/svg">
<path d="M60.5032 60.9781H61.6698C61.8643 59.1243 62.0198 55.4167 61.0865 55.4167C60.6084 55.4167 60.7373 55.9589 60.9277 56.7595C61.2019 57.9124 60.9277 59.5001 60.5032 60.9781Z" fill="#9C66FF"/>
<path d="M39.4033 60.9781C36.6033 56.7781 42.9033 48.1448 46.4033 45.2281C42.4762 43.9577 29.3722 44.3334 13.0388 47.8334C10.7055 61.8334 28.7889 60.9781 39.4033 60.9781Z" fill="#BD99FF"/>
<path d="M65.5388 60.9781C68.3388 56.7781 64.9555 47.2501 58.5388 45.2281C53.8722 41.4948 48.504 43.6726 46.4033 45.2281C42.9033 48.1448 36.6033 56.7781 39.4033 60.9781H43.3722C43.1777 59.1243 43.0222 55.4167 43.9555 55.4167C44.4337 55.4167 44.3047 55.9589 44.1143 56.7595C43.8401 57.9124 43.4385 59.601 44.5389 60.9781H52.8199H60.5032C60.9277 59.5001 61.2019 57.9124 60.9277 56.7595C60.7373 55.9589 60.6084 55.4167 61.0865 55.4167C62.0198 55.4167 61.8643 59.1243 61.6698 60.9781H65.5388Z" fill="#BD99FF"/>
<path d="M43.3722 60.9781H44.5389C43.4385 59.601 43.8401 57.9124 44.1143 56.7595C44.3047 55.9589 44.4337 55.4167 43.9555 55.4167C43.0222 55.4167 43.1777 59.1243 43.3722 60.9781Z" fill="#BD99FF"/>
<ellipse cx="51.3333" cy="45.5001" rx="7" ry="5.83333" fill="#DF9C7C"/>
<path fill-rule="evenodd" clip-rule="evenodd" d="M28.7976 60.9781C28.9921 59.1243 29.1476 55.4167 28.2143 55.4167C27.7362 55.4167 27.8651 55.9589 28.0555 56.7595C28.3297 57.9124 28.7313 59.601 27.631 60.9781H28.7976ZM11.6666 60.9781C10.5663 59.601 10.9679 57.9124 11.2421 56.7595C11.4325 55.9589 11.5614 55.4167 11.0833 55.4167C10.15 55.4167 10.3055 59.1243 10.5 60.9781H11.6666Z" fill="#F52E98"/>
<path d="M32.6666 60.9781C35.4666 56.7781 29.1666 48.1448 25.6666 45.2281C21 41.4948 15.6318 43.6726 13.5311 45.2281C10.0311 48.1448 3.73107 56.7781 6.53107 60.9781H10.5C10.3055 59.1243 10.15 55.4167 11.0833 55.4167C11.5614 55.4167 11.4325 55.9589 11.2421 56.7595C10.9679 57.9124 10.5663 59.601 11.6666 60.9781H19.9477H27.631C28.7313 59.601 28.3297 57.9124 28.0555 56.7595C27.8651 55.9589 27.7362 55.4167 28.2143 55.4167C29.1476 55.4167 28.9921 59.1243 28.7976 60.9781H32.6666Z" fill="#FF8BC9"/>
<ellipse cx="19.8333" cy="45.5001" rx="7" ry="5.83333" fill="#FBA983"/>
<path fill-rule="evenodd" clip-rule="evenodd" d="M31.5394 27.5671C32.1795 38.2291 40.5357 46.6666 50.75 46.6666C60.9643 46.6666 69.3205 38.2291 69.9606 27.5671C69.5289 21.2479 65.5873 15.8178 59.9331 12.952C57.2037 11.5686 54.0753 10.7827 50.75 10.7827C46.5075 10.7827 42.5856 12.0619 39.4039 14.229C34.9254 17.2794 31.9137 22.0892 31.5394 27.5671Z" fill="#EBAF92"/>
<path fill-rule="evenodd" clip-rule="evenodd" d="M50.75 46.6666C40.5357 46.6666 32.1795 38.2291 31.5394 27.5671C31.9137 22.0892 34.9254 17.2794 39.4039 14.229C42.5856 12.0619 46.5075 10.7827 50.75 10.7827C54.0753 10.7827 57.2037 11.5686 59.9331 12.952C65.5873 15.8178 69.5289 21.2479 69.9606 27.5671C69.3205 38.2291 60.9643 46.6666 50.75 46.6666Z" fill="#EBAF92"/>
<path d="M50.75 10.7827C46.5075 10.7827 42.5856 12.0619 39.4039 14.229C43.75 19.8333 54.2334 14.7807 56.5833 15.7499C58.736 14.953 56.5868 13.25 59.9331 12.952C57.2037 11.5686 54.0753 10.7827 50.75 10.7827Z" fill="#BCBCBC"/>
<path d="M70 26.2499C70 14.9741 61.3815 5.83325 50.75 5.83325C43.0775 5.83325 36.4534 10.594 33.3604 17.4822C35.1755 15.7582 34.4167 25.6666 39.4039 14.229C42.5856 12.0619 46.5075 10.7827 50.75 10.7827C54.0753 10.7827 57.2037 11.5686 59.9331 12.952C63.0808 14.5474 65.6977 16.9375 67.4738 19.8333C68.8881 22.1392 69.7692 24.7658 69.9606 27.5671C69.9867 27.1316 70 26.6924 70 26.2499Z" fill="#BCBCBC"/>
<path d="M39.4039 14.229C34.4167 25.6666 35.1755 15.7582 33.3604 17.4822C32.1676 20.1387 31.5 23.1116 31.5 26.2499C31.5 26.6924 31.5133 27.1316 31.5394 27.5671C31.9137 22.0892 34.9254 17.2794 39.4039 14.229Z" fill="#BCBCBC"/>
<path d="M59.9331 12.952C56.5868 13.25 58.736 14.953 56.5833 15.7499C60.7325 15.7676 64.0528 16.0999 67.4738 19.8333C65.6977 16.9375 63.0808 14.5474 59.9331 12.952Z" fill="#BCBCBC"/>
<circle cx="8.16667" cy="47.8334" r="4.66667" fill="#EBAF92"/>
<path fill-rule="evenodd" clip-rule="evenodd" d="M0.0394187 29.8252C0.679529 39.8779 9.03573 47.8333 19.25 47.8333C29.4643 47.8333 37.8205 39.8779 38.4606 29.8252C38.0289 23.867 34.0873 18.7473 28.4331 16.0452C25.7037 14.7409 22.5753 13.9999 19.25 13.9999C15.0075 13.9999 11.0856 15.206 7.90391 17.2492C3.42539 20.1254 0.413662 24.6603 0.0394187 29.8252Z" fill="#FFC2A6"/>
<path fill-rule="evenodd" clip-rule="evenodd" d="M19.25 47.8333C9.03573 47.8333 0.679529 39.8779 0.0394187 29.8252C0.413662 24.6603 3.42539 20.1254 7.90391 17.2492C11.0856 15.206 15.0075 13.9999 19.25 13.9999C22.5753 13.9999 25.7037 14.7409 28.4331 16.0452C34.0873 18.7473 38.0289 23.867 38.4606 29.8252C37.8205 39.8779 29.4643 47.8333 19.25 47.8333Z" fill="#FFC2A6"/>
<path d="M17.5 37.3356C19.5741 41.5572 21.4753 39.0946 22.1667 37.3356C21 37.8009 20.79 37.3684 20.0278 37.3345C19.2655 37.3006 18.537 37.9953 17.5 37.3356Z" fill="#EE5959"/>
<circle cx="19.8333" cy="7" r="7" fill="#7C7B7B"/>
<path d="M38.5 28.5833C38.5 17.9518 29.8815 9.33325 19.25 9.33325C11.5775 9.33325 4.95339 13.8219 1.86045 20.3165C3.67551 18.6911 5.77572 17.7427 7.90391 17.2492C11.0856 15.206 15.0075 13.9999 19.25 13.9999C22.5753 13.9999 25.854 15.9449 28.5833 17.2492C33.25 18.0833 38.0289 23.867 38.4606 29.8252C38.4867 29.4146 38.5 29.0005 38.5 28.5833Z" fill="#B8B8B8"/>
<path d="M7.90391 17.2492C5.77572 17.7427 3.67551 18.6911 1.86045 20.3165C0.667619 22.8212 0 25.6243 0 28.5833C0 29.0005 0.0132726 29.4146 0.0394187 29.8252C0.413662 24.6603 3.42539 20.1254 7.90391 17.2492Z" fill="#B8B8B8"/>
<path fill-rule="evenodd" clip-rule="evenodd" d="M7.90391 17.2492C12.3411 16.2204 11.6667 20.3165 19.25 20.9999C24.5 20.3165 22.75 17.2492 28.5833 17.2492C25.854 15.9449 22.5753 13.9999 19.25 13.9999C15.0075 13.9999 11.0856 15.206 7.90391 17.2492Z" fill="#B8B8B8"/>
<path d="M12.25 30.9167C12.25 31.8832 11.1443 32.6667 10.5 32.6667C9.85565 32.6667 9.33331 31.8832 9.33331 30.9167C9.33331 29.9502 9.85565 29.1667 10.5 29.1667C11.1443 29.1667 12.25 29.9502 12.25 30.9167Z" fill="black"/>
<path d="M30.3333 30.9167C30.3333 31.8832 29.811 32.6667 29.1666 32.6667C28.5223 32.6667 27.4166 31.8832 27.4166 30.9167C27.4166 29.9502 28.5223 29.1667 29.1666 29.1667C29.811 29.1667 30.3333 29.9502 30.3333 30.9167Z" fill="black"/>
<path d="M43.75 30.9167C43.75 31.8832 42.6443 32.6667 42 32.6667C41.3556 32.6667 40.8333 31.8832 40.8333 30.9167C40.8333 29.9502 41.3556 29.1667 42 29.1667C42.6443 29.1667 43.75 29.9502 43.75 30.9167Z" fill="black"/>
<path d="M61.8333 30.9167C61.8333 31.8832 61.311 32.6667 60.6666 32.6667C60.0223 32.6667 58.9166 31.8832 58.9166 30.9167C58.9166 29.9502 60.0223 29.1667 60.6666 29.1667C61.311 29.1667 61.8333 29.9502 61.8333 30.9167Z" fill="black"/>
<path d="M57.7501 38.5C58.4501 40.2498 54.2501 37.9166 51.3335 37.9166C48.4168 37.9166 44.2167 40.2498 44.9166 38.5C47.25 32.6665 50.1668 35 51.3335 35.0001C52.5001 35 55.4168 32.6665 57.7501 38.5Z" fill="#7C7B7B"/>
<path d="M47.8333 19.8333H55.4166M46.0833 22.1666H57.75M44.3333 24.4999H59.5" stroke="#DF9C7C" stroke-linecap="round" stroke-linejoin="round"/>
<circle cx="60.6667" cy="36.1667" r="1.16667" fill="#FF757C"/>
<circle cx="29.1667" cy="36.1667" r="1.16667" fill="#FF757C"/>
<circle cx="40.8334" cy="36.1667" r="1.16667" fill="#FF757C"/>
<circle cx="10.5" cy="36.1667" r="1.16667" fill="#FF757C"/>
<path fill-rule="evenodd" clip-rule="evenodd" d="M129.472 29.6468C129.887 30.199 130.248 30.7715 130.25 30.9287C130.253 31.1229 130.303 31.2358 130.422 31.2751C126.865 33.2922 127.384 31.6871 128.088 30.6324C128.393 30.427 129.098 29.9425 129.472 29.6468ZM140.604 39.7881C141.186 39.157 141.523 38.4134 141.633 37.6545C136.392 40.2268 126.778 45.5406 130.25 46.2165C130.817 46.327 132.039 45.4274 133.614 44.2683C135.454 42.9133 137.776 41.2037 140.097 40.3385L140.604 39.7881ZM147.295 41.9663C148.696 45.2639 151.623 50.8549 151.623 46.8325C151.623 45.8226 150.821 44.4029 149.882 42.7412C148.426 40.1625 146.641 37.0008 147.011 33.8821C146.886 33.9831 146.76 34.0967 146.628 34.2242C145.856 34.9734 145.479 35.9015 145.479 37.0521C145.479 37.9656 145.505 38.0466 146.415 39.9789C146.929 41.072 147.325 41.9663 147.295 41.9663ZM153.642 34.5216C154.385 35.3301 155.805 36.3341 155.534 33.8821C155.534 32.5628 155.863 32.141 156.049 32.1003C155.893 32.1299 155.736 32.1711 155.58 32.2243C154.735 32.5115 153.779 33.5562 153.779 34.1916C153.779 34.3265 153.717 34.4751 153.642 34.5216ZM159.947 38.5785C158.923 42.5119 155.922 40.4454 154.155 39.2287C153.707 38.9199 153.338 38.6657 153.101 38.5785C152.165 38.2335 153.902 40.3964 154.887 41.521C154.887 41.4926 155.178 41.6209 155.534 41.806C156.818 42.474 158.416 42.1656 159.187 41.1012C159.629 40.4917 159.854 39.7947 159.947 38.5785Z" fill="#FFC2A6"/>
<path d="M128.721 28.7538C128.172 28.2062 128.132 28.1214 128.088 27.4329C128.032 26.5626 127.828 26.1232 127.242 25.608C126.766 25.1901 126.032 25.018 125.15 25.1174L124.626 25.1764L124.147 24.4355C123.144 22.887 121.241 21.1183 119.401 20.0255C116.873 18.5236 113.246 17.7483 110.268 18.0732C107.598 18.3647 105.11 19.3498 103.022 20.8776C97.9972 30.1658 94.9136 45.6622 117.251 45.6622C117.547 45.6622 117.868 45.6812 118.201 45.7009C120.057 45.8109 122.261 45.9414 122.302 42.8903C122.314 42.8599 122.326 42.8289 122.338 42.7974L122.339 42.7964C122.831 41.5297 123.664 39.385 128.721 37.6545C131.129 36.8302 131.991 32.7585 130.681 31.2751C130.572 31.2961 130.487 31.2965 130.422 31.2751C126.865 33.2922 127.384 31.6871 128.088 30.6324C128.393 30.427 129.098 29.9425 129.472 29.6468C129.218 29.3079 128.944 28.9766 128.721 28.7538Z" fill="#FFC2A6"/>
<path d="M158.59 50.7923C158.879 48.7609 158.523 47.6513 156.492 44.2554C155.609 42.7799 154.887 41.5494 154.887 41.521C153.902 40.3964 152.165 38.2335 153.101 38.5785C153.338 38.6657 153.707 38.9199 154.155 39.2287C155.922 40.4454 158.923 42.5119 159.947 38.5785C159.984 38.0947 160 37.5289 160 36.8537C160 34.8591 159.985 34.7271 159.682 34.0811C158.981 32.5872 157.541 31.8214 156.058 32.0986C156.055 32.0991 156.052 32.0996 156.049 32.1003C155.863 32.141 155.534 32.5628 155.534 33.8821C155.805 36.3341 154.385 35.3301 153.642 34.5216C153.566 34.5682 152.833 34.2804 152.013 33.8821C150.53 33.1622 150.514 33.1579 149.409 33.1579C148.313 33.1579 147.689 33.3322 147.011 33.8821C146.641 37.0008 148.426 40.1625 149.882 42.7412C150.821 44.4029 151.623 45.8226 151.623 46.8325C151.623 50.8549 148.696 45.2639 147.295 41.9663C147.264 41.9663 147.034 41.8618 146.782 41.7341C145.594 41.1302 143.284 40.5947 141.117 40.4205L140.097 40.3385C137.776 41.2037 135.454 42.9133 133.614 44.2683C132.039 45.4274 130.817 46.327 130.25 46.2165C126.778 45.5406 136.392 40.2268 141.633 37.6545C141.855 36.108 141.131 34.4979 139.593 33.6465C138.965 33.2982 138.863 33.2808 137.426 33.2767L135.918 33.2724L135.56 32.7077C135.154 32.0664 134.617 31.62 133.818 31.2572C133.474 31.1015 132.949 31.0162 132.414 31.0052C133.285 31.1597 132.905 34.3038 132.589 35.9298C132.835 35.3548 133.525 34.4021 134.314 35.1906C134.405 35.2818 134.5 35.3645 134.59 35.4429C134.611 35.461 134.631 35.4788 134.652 35.4965C135.5 36.2292 135.962 36.6283 127.661 40.0568C123.842 41.6342 120.393 46.8547 126.861 51.7603C138.49 60.5811 152.338 56.4212 157.808 53.2387C158.2 52.4905 158.466 51.6664 158.59 50.7923Z" fill="#FFC2A6"/>
<path d="M98.5588 26.1357C98.0046 27.2313 97.707 28.0268 97.337 29.4004C96.9838 30.7122 96.8852 33.9664 97.152 35.5005C98.0819 40.8452 101.964 45.3619 107.088 47.0615C109.12 47.7355 109.54 47.7798 114.529 47.8452L119.199 47.9064L119.513 48.2934C120.142 49.0681 122.449 51.3714 123.349 52.1246C127.063 55.2298 131.759 57.4991 136.73 58.5905C140.476 59.4132 144.77 59.479 148.358 58.7689C150.873 58.2712 154.091 56.9127 155.775 55.6388C156.63 54.9915 157.318 54.1745 157.808 53.2387C152.338 56.4212 138.49 60.5811 126.861 51.7603C120.393 46.8547 123.842 41.6342 127.661 40.0568C135.962 36.6283 135.5 36.2292 134.652 35.4965C134.631 35.4788 134.611 35.461 134.59 35.4429C134.5 35.3645 134.405 35.2818 134.314 35.1906C133.525 34.4021 132.835 35.3548 132.589 35.9298C132.905 34.3038 133.285 31.1597 132.414 31.0052C132.37 31.0043 132.326 31.0039 132.281 31.0041C131.804 31.0053 131.33 31.066 130.981 31.1891C130.865 31.2299 130.766 31.2588 130.681 31.2751C131.991 32.7585 131.129 36.8302 128.721 37.6545C123.664 39.385 122.831 41.5297 122.339 42.7964L122.338 42.7974C122.326 42.8289 122.314 42.8599 122.302 42.8903C122.261 45.9414 120.057 45.8109 118.201 45.7009C117.868 45.6812 117.547 45.6622 117.251 45.6622C94.9136 45.6622 97.9972 30.1658 103.022 20.8776C101.166 22.2364 99.6267 24.0245 98.5588 26.1357Z" fill="#D29679"/>
<path fill-rule="evenodd" clip-rule="evenodd" d="M129.472 29.6468C129.887 30.199 130.248 30.7715 130.25 30.9287C130.253 31.1229 130.303 31.2358 130.422 31.2751C126.865 33.2922 127.384 31.6871 128.088 30.6324C128.393 30.427 129.098 29.9425 129.472 29.6468ZM140.604 39.7881C141.186 39.157 141.523 38.4134 141.633 37.6545C136.392 40.2268 126.778 45.5406 130.25 46.2165C130.817 46.327 132.039 45.4274 133.614 44.2683C135.454 42.9133 137.776 41.2037 140.097 40.3385L140.604 39.7881ZM147.295 41.9663C148.696 45.2639 151.623 50.8549 151.623 46.8325C151.623 45.8226 150.821 44.4029 149.882 42.7412C148.426 40.1625 146.641 37.0008 147.011 33.8821C146.886 33.9831 146.76 34.0967 146.628 34.2242C145.856 34.9734 145.479 35.9015 145.479 37.0521C145.479 37.9656 145.505 38.0466 146.415 39.9789C146.929 41.072 147.325 41.9663 147.295 41.9663ZM153.642 34.5216C154.385 35.3301 155.805 36.3341 155.534 33.8821C155.534 32.5628 155.863 32.141 156.049 32.1003C155.893 32.1299 155.736 32.1711 155.58 32.2243C154.735 32.5115 153.779 33.5562 153.779 34.1916C153.779 34.3265 153.717 34.4751 153.642 34.5216ZM159.947 38.5785C158.923 42.5119 155.922 40.4454 154.155 39.2287C153.707 38.9199 153.338 38.6657 153.101 38.5785C152.165 38.2335 153.902 40.3964 154.887 41.521C154.887 41.4926 155.178 41.6209 155.534 41.806C156.818 42.474 158.416 42.1656 159.187 41.1012C159.629 40.4917 159.854 39.7947 159.947 38.5785Z" fill="#D29679"/>
<path d="M121.502 27.7373C120.812 29.9055 119.284 29.8727 118.606 29.5852C117.559 29.8316 118.606 31.3099 121.255 30.8172C123.904 30.3244 122.364 25.027 121.502 27.7373Z" fill="#D29679"/>
<path d="M118.114 40.0568C109.059 46.5245 108.32 37.5313 113.617 36.053C114.726 35.7435 116.019 36.9127 114.233 37.3465C109.921 38.3937 111.276 43.4447 116.574 38.8248C117.437 38.0718 119.53 39.0448 118.114 40.0568Z" fill="#D29679"/>
<path d="M206.005 5.50656C208.01 7.00005 212.691 13.244 213.536 14.9821L193.418 15.0475C192.232 11.3956 190.161 4.0907 191.369 4.08677C195 4.07496 203.17 3.39445 206.005 5.50656Z" fill="#FFC2A6"/>
<path d="M214.101 11.5C197.713 7.36305 197.502 9.14284 196.464 6.46363C194.712 1.94246 182.552 1.68022 188.803 24.596C190.722 31.6316 188.33 37.6751 196.567 38.1513C187.537 47.0332 190.12 60.3036 192.54 65.8286C201.119 65.9683 218.894 66.1453 221.363 65.7349C223.833 65.3244 221.684 58.8597 220.301 55.6786C236.329 45.9692 226.924 34.5317 220.218 30.0267C227.601 22.5 218.269 12.5523 214.101 11.5Z" fill="#6DABFE"/>
<path d="M220.132 44.6342L219.682 43.7223C219.571 43.4964 219.377 43.1718 219.104 42.9098C218.835 42.6518 218.513 42.4767 218.125 42.4779C217.287 42.4807 216.627 43.1598 216.63 43.9737C216.632 44.592 216.911 45.0276 217.57 45.6913C217.739 45.8613 217.931 46.0449 218.145 46.2475C218.7 46.7767 219.391 47.4351 220.144 48.3159C220.891 47.4302 221.578 46.7673 222.13 46.2345C222.342 46.0306 222.534 45.8452 222.702 45.6746C223.356 45.0067 223.632 44.5692 223.63 43.9509C223.627 43.1371 222.963 42.4622 222.125 42.4649C221.737 42.4662 221.417 42.6434 221.15 42.9031C220.878 43.167 220.687 43.4928 220.576 43.7194L220.132 44.6342ZM220.342 48.8672C220.318 48.8964 220.288 48.9199 220.254 48.9361C220.221 48.9523 220.184 48.9607 220.146 48.9608C220.109 48.961 220.072 48.9528 220.038 48.9368C220.004 48.9209 219.974 48.8976 219.95 48.8685C219.146 47.9 218.42 47.208 217.821 46.6386C216.786 45.652 216.134 45.0317 216.13 43.9753C216.127 42.8699 217.019 41.971 218.124 41.9674C218.924 41.9648 219.485 42.4991 219.829 42.9871C219.96 43.173 220.059 43.3519 220.129 43.4926C220.214 43.3159 220.314 43.1463 220.425 42.9851C220.766 42.4944 221.324 41.957 222.124 41.9544C223.229 41.9508 224.126 42.8439 224.13 43.9493C224.133 45.0057 223.486 45.6302 222.456 46.6235C221.862 47.1973 221.139 47.8945 220.342 48.8672Z" fill="#FF6F6F"/>
<path d="M220.132 44.6342L219.682 43.7223C219.571 43.4964 219.377 43.1718 219.104 42.9098C218.835 42.6518 218.513 42.4767 218.125 42.4779C217.287 42.4807 216.627 43.1598 216.63 43.9737C216.632 44.592 216.911 45.0276 217.57 45.6913C217.739 45.8613 217.931 46.0449 218.145 46.2475C218.7 46.7767 219.391 47.4351 220.144 48.3159C220.891 47.4302 221.578 46.7673 222.13 46.2345C222.342 46.0306 222.534 45.8452 222.702 45.6746C223.356 45.0067 223.632 44.5692 223.63 43.9509C223.627 43.1371 222.963 42.4622 222.125 42.4649C221.737 42.4662 221.417 42.6434 221.15 42.9031C220.878 43.167 220.687 43.4928 220.576 43.7194L220.132 44.6342Z" fill="#FF6F6F"/>
<path d="M220.667 55.4593C217.502 55.9696 206.601 54 202.101 52.5C203.101 54 217.601 60 220.667 55.4593Z" fill="#408EF7"/>
<path d="M199.719 31.5271C194.303 32.9993 195.062 25.5422 195.712 21.5401L188.601 22.9998C188.653 38.9998 193.263 38.5204 199.719 37.4994C223.083 31.5276 220.102 29.9998 220.102 29.9998C220.102 29.9998 212.152 28.1474 199.719 31.5271Z" fill="#FFC2A6" stroke="#FFC2A6" stroke-width="0.5"/>
</svg>
