<svg width="56" height="58" viewBox="0 0 56 58" fill="none" xmlns="http://www.w3.org/2000/svg">
<path d="M50.2766 6.06647C50.5659 5.7791 51.0334 5.78068 51.3208 6.07C51.6082 6.35932 51.6066 6.82681 51.3173 7.11418L8.66486 49.4791L7.62421 48.4314L50.2766 6.06647Z" fill="#7F9298"/>
<rect x="7.51733" y="47.3364" width="3.24079" height="10.5953" transform="rotate(45.1938 7.51733 47.3364)" fill="#003644"/>
<path d="M19 23.3363C21.8 11.7363 11.1667 8.83631 5.5 8.83631C16.4856 -0.521758 29.8715 -2.01643 40 2.33163C45.0129 4.48363 49.2279 8.06684 51.959 12.8363C52.0409 12.9462 52.1076 13.0655 52.1597 13.1939C57.2625 22.4668 56.8291 36.0927 46 52.3363C48.8 40.7363 38.1667 37.8363 32.5 37.8363C35.3 26.2363 24.6667 23.3363 19 23.3363Z" fill="#008B4F"/>
<path fill-rule="evenodd" clip-rule="evenodd" d="M19 23.3363C24.6667 23.3363 35.3 26.2363 32.5 37.8363C39.9132 31.2509 53.8687 17.4008 52.1597 13.1939C52.1076 13.0655 52.0409 12.9462 51.959 12.8363C50.25 9.8518 47.96 7.33179 45.257 5.3363C36.6626 4.1363 24.1713 16.8363 19 23.3363Z" fill="#006B4D"/>
<path fill-rule="evenodd" clip-rule="evenodd" d="M51.959 12.8363C52.0409 12.9462 52.1076 13.0655 52.1597 13.1939C52.0937 13.0739 52.0268 12.9548 51.959 12.8363Z" fill="#004C4A"/>
<path d="M32.5 37.8363C38.1667 37.8363 48.8 40.7363 46 52.3363C56.8291 36.0927 57.2625 22.4668 52.1597 13.1939C52.0937 13.0739 52.0268 12.9548 51.959 12.8363C51.2434 11.5867 50.4261 10.4186 49.5192 9.3363C51.1345 16.9363 38.8461 31.503 32.5 37.8363Z" fill="#004C4A"/>
</svg>
