<svg width="121" height="59" viewBox="0 0 121 59" fill="none" xmlns="http://www.w3.org/2000/svg">
<path d="M18.4234 41.0678C17.8005 44.2132 22.504 45.3593 23.8562 42.391C24.5666 40.8321 24.4757 40.4793 23.0717 39.3426C21.6758 38.212 21.3135 38.1702 20.0657 38.9971C19.2859 39.5143 18.5466 40.4456 18.4234 41.0678Z" fill="#168FFF"/>
<path d="M15.7271 29.9301C14.4154 30.7617 15.0315 33.6546 16.583 33.9508C18.3695 34.2916 19.8119 32.2317 18.9344 30.5927C18.2112 29.2412 17.1574 29.0237 15.7271 29.9301Z" fill="#168FFF"/>
<path d="M20.7512 23.434C20.1863 24.3309 20.2745 24.8569 21.1317 25.7147C23.1491 27.7322 26.1592 25.0959 24.3404 22.904C23.2932 21.6428 21.7344 21.8731 20.7512 23.434Z" fill="#168FFF"/>
<path fill-rule="evenodd" clip-rule="evenodd" d="M19.9944 14.9238C22.3209 16.3951 23.2111 16.5783 26.5282 16.2632C28.6406 16.0625 30.5435 16.181 30.757 16.5258C30.9698 16.8705 30.3779 24.3094 29.4412 33.0553C28.5045 41.8018 27.7382 49.0891 27.7382 49.2487C27.7382 49.409 24.2535 49.5403 19.9944 49.5403C15.7352 49.5403 12.2505 49.4063 12.2505 49.2433C12.2505 49.0797 11.4929 41.8826 10.567 33.2505C9.64181 24.6178 8.88426 16.9217 8.88358 16.148C8.88358 12.9427 15.6793 12.1939 19.9944 14.9238ZM21.1317 25.7147C20.2745 24.8569 20.1863 24.3309 20.7512 23.434C21.7344 21.8731 23.2932 21.6428 24.3404 22.904C26.1592 25.0959 23.1491 27.7322 21.1317 25.7147ZM16.583 33.9508C15.0315 33.6546 14.4154 30.7617 15.7271 29.9301C17.1574 29.0237 18.2112 29.2412 18.9344 30.5927C19.8119 32.2317 18.3695 34.2916 16.583 33.9508ZM23.8562 42.391C22.504 45.3593 17.8005 44.2132 18.4234 41.0678C18.5466 40.4456 19.2859 39.5143 20.0657 38.9971C21.3135 38.1702 21.6758 38.212 23.0717 39.3426C24.4757 40.4793 24.5666 40.8321 23.8562 42.391Z" fill="#168FFF"/>
<path fill-rule="evenodd" clip-rule="evenodd" d="M0.24464 4.03968C-0.292044 4.68612 0.0311826 9.36073 1.44393 21.3792C2.50855 30.4288 3.76104 41.1423 4.22837 45.1866C4.97111 51.616 5.31049 52.7998 6.93132 54.6139L8.78445 56.6879H19.9349H31.0861L32.8901 54.8833C34.6517 53.1224 34.7635 52.4975 37.5378 28.9581C39.4724 12.5451 40.1653 4.56895 39.7061 3.99591C38.7027 2.74342 1.28636 2.7845 0.24464 4.03968ZM33.0524 32.0355C34.2732 21.5206 35.4389 11.63 35.6422 10.0563L36.0133 7.19446H20.0972C5.38994 7.19446 4.18056 7.28402 4.17652 8.37288C4.17383 9.02067 5.25998 18.945 6.5899 30.4261C8.4821 46.7623 9.24369 51.484 10.0901 52.1426C11.678 53.3776 28.6707 53.3136 29.9165 52.0685C30.5218 51.4625 31.5838 44.6789 33.0524 32.0355Z" fill="#464646"/>
<path fill-rule="evenodd" clip-rule="evenodd" d="M85.7446 0.248751C85.6414 0.297848 85.1617 0.586309 84.4403 1.03052C83.4191 1.6594 81.9137 2.60044 80.3071 3.61637L75.3227 6.76831L71.1631 15.0945C68.8753 19.6739 67.0018 23.5572 67 23.7239C66.9979 23.9116 67.0984 24.106 67.2636 24.2337C67.4106 24.3473 69.55 25.5872 72.0177 26.989L76.5047 29.5378L76.5084 43.647C76.5112 54.4656 76.5439 57.7879 76.6481 57.8921C76.8456 58.0897 110.39 58.0897 110.587 57.8921C110.691 57.7879 110.724 54.4656 110.727 43.647L110.731 29.5378L115.218 26.989C117.685 25.5872 119.825 24.3473 119.972 24.2337C120.136 24.1067 120.238 23.9105 120.237 23.7239C120.235 23.555 118.391 19.7324 116.073 15.0945L111.913 6.76831L106.815 3.51748C105.488 2.67129 104.468 2.02367 103.67 1.53052C101.27 0.0480407 100.876 -0.0385305 100.18 0.072825C99.935 0.11202 99.2054 0.416633 98.5587 0.74968C95.3598 2.39747 92.4234 2.3372 88.7548 0.548719C87.8124 0.0893641 87.5992 0.0284187 86.9423 0.0305711C86.4487 0.0322703 86.0449 0.10579 85.7446 0.248751Z" fill="#FF7D7D"/>
<path d="M86.9423 0.030508C86.4487 0.0322072 86.0449 0.105727 85.7446 0.248688C85.6414 0.297785 85.1617 0.586246 84.4403 1.03045C86.5 7.53046 95.8055 16.3305 103.67 1.53045C101.27 0.0479777 101.696 -0.0808455 101 0.03051C99 11.5305 86.5 7.53046 86.9423 0.030508Z" fill="#FEAFAF"/>
<path fill-rule="evenodd" clip-rule="evenodd" d="M111.913 6.76825C111.043 9.2898 110.762 22.9986 110.731 29.5378L115.218 26.9889C117.685 25.5871 119.825 24.3472 119.972 24.2336C120.136 24.1066 120.238 23.9104 120.237 23.7238C120.235 23.5549 118.391 19.7324 116.073 15.0944L111.913 6.76825ZM71.1631 15.0944L75.3227 6.76825C76.1107 12.0272 77.4503 23.9436 76.5047 29.5378L72.0177 26.9889C69.55 25.5871 67.4106 24.3472 67.2636 24.2336C67.0984 24.1059 66.9979 23.9116 67 23.7238C67.0018 23.5571 68.8753 19.6738 71.1631 15.0944Z" fill="#FEAFAF"/>
</svg>
