<svg width="67" height="53" viewBox="0 0 67 53" fill="none" xmlns="http://www.w3.org/2000/svg">
<path d="M7.13351 31.182V34.2409V45.9963V50.6822H11.2859H15.4385L15.476 44.998L15.5137 39.3137L15.8959 38.5342C16.3839 37.5386 17.378 36.5445 18.3721 36.0577C19.0765 35.7127 19.2769 35.6758 20.4509 35.6758C21.6328 35.6758 21.8264 35.7119 22.595 36.0762C23.6773 36.5892 24.6046 37.5165 25.1175 38.5988L25.5179 39.4437L25.5568 45.0629L25.5956 50.6822H29.7478H33.8998L33.8664 40.9174L33.8332 31.1526L27.1772 28.0387L20.5213 24.9246L19.5613 25.3465L18.6011 25.7685L18.4451 26.4658C18.3587 26.8517 18.0618 27.5034 17.7804 27.925C16.5554 29.7593 14.1892 30.4789 12.2823 29.5973C11.8628 29.4033 11.4462 29.2445 11.3566 29.2445C11.267 29.2445 10.2802 29.6804 9.16359 30.2132L7.13351 31.182Z" fill="#528FBD"/>
<path d="M7.13351 50.6822V45.9963C7.13351 42.9419 7.08556 41.2208 6.99566 41.0529C6.6624 40.4303 5.57947 40.5468 5.39783 41.2249C5.35392 41.3885 5.31728 43.5835 5.31637 46.1023L5.31455 50.6822H7.13351Z" fill="#528FBD"/>
<path d="M33.8332 31.1526L33.8664 40.9174L33.8998 50.6822H35.7171V41.3925C35.7171 36.2832 35.7476 32.1029 35.7849 32.1029L33.8332 31.1526Z" fill="#528FBD"/>
<path fill-rule="evenodd" clip-rule="evenodd" d="M46.1073 0.941516C46.0188 0.879504 45.9237 0.814426 45.8218 0.745908C45.9068 0.808334 46.0024 0.874102 46.1073 0.941516ZM45.208 2.48444C45.2757 2.53265 45.3488 2.58108 45.4268 2.62938C45.356 2.58625 45.2831 2.53793 45.208 2.48444Z" fill="#528FBD"/>
<path fill-rule="evenodd" clip-rule="evenodd" d="M26.9219 16.3054C26.5589 16.6172 26.5572 16.6268 26.515 18.4491C26.4917 19.4559 26.4495 20.2797 26.4211 20.2797C26.3927 20.2797 25.22 19.7476 23.815 19.0973C20.5462 17.5845 20.4737 17.5789 18.0958 18.6656C17.1243 19.1096 16.7169 19.3451 16.4324 19.2419C16.1625 19.144 16.0031 18.7415 15.5775 17.9235C14.8729 16.5691 14.2707 16.2409 13.3573 16.7132C13.0368 16.879 12.7336 17.3914 11.6423 19.6115L10.3167 22.3083L5.46526 24.5698C-0.0125189 27.1232 -0.0804699 27.1693 0.0200923 28.2641C0.107532 29.2172 1.64013 32.3438 2.17244 32.6551C2.74008 32.987 3.3962 32.9363 4.27515 32.4926C4.69987 32.2783 5.10745 32.1029 5.18086 32.1029L7.13351 31.182L9.16359 30.2132C10.2802 29.6804 11.267 29.2445 11.3566 29.2445C11.4462 29.2445 11.8628 29.4033 12.2823 29.5973C14.1892 30.4789 16.5554 29.7593 17.7804 27.925C18.0618 27.5034 18.3587 26.8517 18.4451 26.4658L18.6011 25.7685L19.5613 25.3465L20.5213 24.9246L27.1772 28.0387L33.8332 31.1526L35.7849 32.1029C35.8222 32.1029 36.2395 32.2783 36.7123 32.4926C37.8163 32.9933 38.4398 33.0022 38.9638 32.5251C39.4408 32.0908 41.0443 28.712 41.0435 28.1426C41.0432 27.9269 40.9316 27.5676 40.7955 27.3442L40.7883 27.3324C40.7634 27.2916 40.7411 27.2549 40.7164 27.2197C40.4962 26.9053 40.0958 26.717 36.1122 24.8436L35.9769 24.78L33.9631 23.833L33.8981 21.4199C33.8417 19.3264 33.8019 18.9724 33.5968 18.7462C33.2621 18.3769 28.1279 15.9921 27.6676 15.9921C27.4521 15.9921 27.1279 16.1283 26.9219 16.3054ZM32.0715 19.8249L30.2888 19.0102C29.3084 18.5621 28.4605 18.1966 28.4046 18.1981C28.3488 18.1997 28.3195 18.8824 28.3397 19.7155L28.3763 21.2302L30.1303 22.0492C31.095 22.4998 31.9282 22.8706 31.9817 22.8734C32.0353 22.876 32.0775 22.1913 32.0753 21.3515L32.0715 19.8249ZM16.7451 25.5196C16.7467 25.2215 16.566 24.4621 16.3435 23.8318C16.1211 23.2016 15.5172 21.8084 15.0017 20.7357L14.0642 18.7855L13.6906 19.5001C12.3594 22.0459 11.2903 24.6906 11.2919 25.4346C11.2942 26.666 12.172 27.7878 13.355 28.0715C15.0716 28.4834 16.7362 27.2304 16.7451 25.5196ZM39.0623 28.3582C39.0446 28.2636 34.996 26.2998 30.0653 23.9941C25.1347 21.6883 20.9543 19.7756 20.7757 19.7435C20.2843 19.655 20.0478 19.7283 18.5578 20.4305L17.1844 21.0777L17.7324 22.441C18.0337 23.1908 18.3098 23.8336 18.3458 23.8696C18.3818 23.9056 18.7239 23.7747 19.1063 23.5786C19.3715 23.4426 19.5709 23.3273 19.7853 23.2605C20.6938 22.9777 21.8732 23.5654 29.4807 27.1332L37.8609 31.0635L38.4776 29.7967C38.8168 29.1 39.0799 28.4526 39.0623 28.3582ZM9.76112 26.8764C9.55519 26.2627 9.46489 25.7381 9.49373 25.3232C9.51764 24.9788 9.50789 24.6976 9.47216 24.6986C9.39915 24.7004 1.9005 28.1978 1.84009 28.2583C1.81878 28.2796 2.09201 28.9193 2.4471 29.6799L3.09296 31.0628L4.04128 30.6261C4.56293 30.3859 6.13321 29.6525 7.53082 28.9964L10.0719 27.8033L9.76112 26.8764Z" fill="#528FBD"/>
<path d="M30.2888 19.0102L32.0715 19.8249L32.0753 21.3515C32.0775 22.1913 32.0353 22.876 31.9817 22.8734C31.9282 22.8706 31.095 22.4998 30.1303 22.0492L28.3763 21.2302L28.3397 19.7155C28.3195 18.8824 28.3488 18.1997 28.4046 18.1981C28.4605 18.1966 29.3084 18.5621 30.2888 19.0102Z" fill="#528FBD"/>
<path d="M16.3435 23.8318C16.566 24.4621 16.7467 25.2215 16.7451 25.5196C16.7362 27.2304 15.0716 28.4834 13.355 28.0715C12.172 27.7878 11.2942 26.666 11.2919 25.4346C11.2903 24.6906 12.3594 22.0459 13.6906 19.5001L14.0642 18.7855L15.0017 20.7357C15.5172 21.8084 16.1211 23.2016 16.3435 23.8318Z" fill="#528FBD"/>
<path d="M6.74555 12.1165C7.91228 14.5057 8.46004 16.009 8.4655 16.8379C8.47551 18.3373 7.29786 19.5001 5.76929 19.5001C4.23864 19.5001 3.08724 18.3651 3.08724 16.856C3.08724 16.4336 3.23588 15.7761 3.49066 15.0721C3.91422 13.9015 5.63677 10.2754 5.76929 10.2754C5.81165 10.2754 6.25105 11.1038 6.74555 12.1165Z" fill="#528FBD"/>
<path fill-rule="evenodd" clip-rule="evenodd" d="M5.5149 7.90311C4.95869 8.04109 4.68 8.39007 3.85484 9.98191C2.10682 13.3537 1.28686 15.5457 1.28686 16.8465C1.28686 18.5283 2.30808 20.1286 3.87121 20.8962C4.50304 21.2066 4.75535 21.254 5.76929 21.2535C7.17963 21.2527 7.83108 20.9996 8.83124 20.0641C9.62522 19.3215 10.0719 18.4957 10.232 17.4751C10.3802 16.5303 10.1913 15.5803 9.524 13.9133C8.72535 11.9184 6.90523 8.35239 6.58132 8.14814C6.20246 7.90921 5.83256 7.82424 5.5149 7.90311ZM8.4655 16.8379C8.46004 16.009 7.91228 14.5057 6.74555 12.1165C6.25105 11.1038 5.81165 10.2754 5.76929 10.2754C5.63677 10.2754 3.91422 13.9015 3.49066 15.0721C3.23588 15.7761 3.08724 16.4336 3.08724 16.856C3.08724 18.3651 4.23864 19.5001 5.76929 19.5001C7.29786 19.5001 8.47551 18.3373 8.4655 16.8379Z" fill="#528FBD"/>
<path d="M5.18086 32.1029C5.26791 32.1029 5.31455 32.9817 5.31455 34.6189L5.31457 34.7501C5.31531 36.9748 5.33725 37.1638 5.58389 37.4772C5.91325 37.8961 6.49973 37.9337 6.87366 37.5597C7.11883 37.3146 7.13351 37.1267 7.13351 34.2409V31.182L5.18086 32.1029Z" fill="#528FBD"/>
<path d="M6.87366 37.5597C6.49973 37.9337 5.91325 37.8961 5.58389 37.4772C5.33725 37.1638 5.31531 36.9748 5.31457 34.7501L5.31637 46.1023C5.31728 43.5835 5.35392 41.3885 5.39783 41.2249C5.57947 40.5468 6.6624 40.4303 6.99566 41.0529C7.08556 41.2208 7.13351 42.9419 7.13351 45.9963V34.2409C7.13351 37.1267 7.11883 37.3146 6.87366 37.5597Z" fill="#528FBD"/>
<path fill-rule="evenodd" clip-rule="evenodd" d="M46.1073 0.941516C46.0188 0.879504 45.9237 0.814426 45.8218 0.745908C45.9068 0.808334 46.0024 0.874102 46.1073 0.941516ZM45.208 2.48444C45.2757 2.53265 45.3488 2.58108 45.4268 2.62938C45.356 2.58625 45.2831 2.53793 45.208 2.48444Z" fill="#EF7781"/>
<path d="M9.49373 25.3232C9.46489 25.7381 9.55519 26.2627 9.76112 26.8764L10.0719 27.8033L7.53082 28.9964C6.13321 29.6525 4.56293 30.3859 4.04128 30.6261L3.09296 31.0628L2.4471 29.6799C2.09201 28.9193 1.81878 28.2796 1.84009 28.2583C1.9005 28.1978 9.39915 24.7004 9.47216 24.6986C9.50789 24.6976 9.51764 24.9788 9.49373 25.3232Z" fill="#EF7781"/>
<path d="M30.0653 23.9941C34.996 26.2998 39.0446 28.2636 39.0623 28.3582C39.0799 28.4526 38.8168 29.1 38.4776 29.7967L37.8609 31.0635L29.4807 27.1332C29.1294 26.9685 28.7918 26.8101 28.4673 26.6578C21.7648 23.513 20.6518 22.9908 19.7853 23.2605C19.6128 23.3142 19.45 23.3993 19.2549 23.5014C19.2075 23.5262 19.1581 23.552 19.1063 23.5786C18.7239 23.7747 18.3818 23.9056 18.3458 23.8696C18.3098 23.8336 18.0337 23.1908 17.7324 22.441L17.1844 21.0777L18.5578 20.4305C20.0478 19.7283 20.2843 19.655 20.7757 19.7435C20.9543 19.7756 25.1347 21.6883 30.0653 23.9941Z" fill="#EF7781"/>
<path fill-rule="evenodd" clip-rule="evenodd" d="M33.9631 23.833L31.9817 22.8734C31.9282 22.8706 31.095 22.4998 30.1303 22.0492L28.3763 21.2302L26.4211 20.2797C26.3927 20.2797 25.22 19.7476 23.815 19.0973C20.5462 17.5845 20.4737 17.5789 18.0958 18.6656C17.9385 18.7375 17.7959 18.804 17.6663 18.8644C16.9956 19.177 16.6708 19.3284 16.4324 19.2419C16.2086 19.1607 16.0608 18.8702 15.7742 18.3069C15.7151 18.1909 15.6502 18.0632 15.5775 17.9235C14.8729 16.5691 14.2707 16.2409 13.3573 16.7132C13.0368 16.879 12.7336 17.3914 11.6423 19.6115L10.3167 22.3083L5.46526 24.5698C-0.0125189 27.1232 -0.0804699 27.1693 0.0200923 28.2641C0.107532 29.2172 1.64013 32.3438 2.17244 32.6551C2.74008 32.987 3.3962 32.9363 4.27515 32.4926C4.69987 32.2783 5.10745 32.1029 5.18086 32.1029L7.13351 31.182L9.16359 30.2132C10.2802 29.6804 11.267 29.2445 11.3566 29.2445C11.4462 29.2445 11.8628 29.4033 12.2823 29.5973C14.1892 30.4789 16.5554 29.7593 17.7804 27.925C18.0618 27.5034 18.3587 26.8517 18.4451 26.4658L18.6011 25.7685L19.5613 25.3465L20.5213 24.9246L27.1772 28.0387L33.8332 31.1526L35.7849 32.1029C35.8222 32.1029 36.2395 32.2783 36.7123 32.4926C37.8163 32.9933 38.4398 33.0022 38.9638 32.5251C39.4408 32.0908 41.0443 28.712 41.0435 28.1426C41.0432 27.9269 40.9316 27.5676 40.7955 27.3442L40.7883 27.3324C40.7634 27.2916 40.7411 27.2549 40.7164 27.2197C40.4962 26.9053 40.0958 26.717 36.1122 24.8436L35.9769 24.78L33.9631 23.833ZM16.3435 23.8318C16.566 24.4621 16.7467 25.2215 16.7451 25.5196C16.7362 27.2304 15.0716 28.4834 13.355 28.0715C12.172 27.7878 11.2942 26.666 11.2919 25.4346C11.2903 24.6906 12.3594 22.0459 13.6906 19.5001L14.0642 18.7855L15.0017 20.7357C15.5172 21.8084 16.1211 23.2016 16.3435 23.8318ZM30.0653 23.9941C34.996 26.2998 39.0446 28.2636 39.0623 28.3582C39.0799 28.4526 38.8168 29.1 38.4776 29.7967L37.8609 31.0635L29.4807 27.1332C29.1294 26.9685 28.7918 26.8101 28.4673 26.6578C21.7648 23.513 20.6518 22.9908 19.7853 23.2605C19.6128 23.3142 19.45 23.3993 19.2549 23.5014C19.2075 23.5262 19.1581 23.552 19.1063 23.5786C18.7239 23.7747 18.3818 23.9056 18.3458 23.8696C18.3098 23.8336 18.0337 23.1908 17.7324 22.441L17.1844 21.0777L18.5578 20.4305C20.0478 19.7283 20.2843 19.655 20.7757 19.7435C20.9543 19.7756 25.1347 21.6883 30.0653 23.9941ZM9.49373 25.3232C9.46489 25.7381 9.55519 26.2627 9.76112 26.8764L10.0719 27.8033L7.53082 28.9964C6.13321 29.6525 4.56293 30.3859 4.04128 30.6261L3.09296 31.0628L2.4471 29.6799C2.09201 28.9193 1.81878 28.2796 1.84009 28.2583C1.9005 28.1978 9.39915 24.7004 9.47216 24.6986C9.50789 24.6976 9.51764 24.9788 9.49373 25.3232Z" fill="#EF7781"/>
<path fill-rule="evenodd" clip-rule="evenodd" d="M46.1073 0.941516C46.0188 0.879504 45.9237 0.814426 45.8218 0.745908C45.9068 0.808334 46.0024 0.874102 46.1073 0.941516ZM45.208 2.48444C45.2757 2.53265 45.3488 2.58108 45.4268 2.62938C45.356 2.58625 45.2831 2.53793 45.208 2.48444Z" fill="#F2A600"/>
<path d="M43.3151 0.433567C42.9163 0.805024 42.8397 0.983542 42.6797 1.91784C42.2084 4.66784 40.2527 6.60515 37.4576 7.09055C36.2617 7.29817 35.7393 7.71095 35.6309 8.5335C35.5717 8.98305 35.64 9.15247 36.2285 10.0156C37.0661 11.244 37.419 12.3395 37.4244 13.7279C37.4305 15.2907 37.1196 16.2298 36.141 17.6053C35.5461 18.4414 35.4671 19.0313 35.8704 19.6254C36.1974 20.1073 36.6006 20.2903 37.8392 20.5198C40.1786 20.9533 42.1914 22.9583 42.6196 25.2818C42.8501 26.5332 43.0338 26.9443 43.5039 27.2611C44.1491 27.6958 44.5272 27.6337 45.6195 26.9137C46.9537 26.0339 47.9685 25.7078 49.3593 25.7117C50.7949 25.7157 51.8681 26.0563 53.1125 26.9026C54.1199 27.5876 54.4716 27.6732 55.0502 27.3738C55.6563 27.0605 55.8455 26.7275 56.0591 25.5984C56.5598 22.9525 58.4542 20.9644 60.9017 20.5163L61.9306 20.3279C62.4679 20.2295 63.0108 19.6147 63.0915 19.0132C63.1591 18.5085 63.1086 18.377 62.5015 17.4783C61.6744 16.2539 61.3119 15.1319 61.3139 13.8022C61.3163 12.2686 61.7465 10.9884 62.6415 9.85095C63.1336 9.22588 63.2445 8.49323 62.9284 7.95806C62.6322 7.45668 62.1182 7.20346 61.0525 7.03404C58.5319 6.63348 56.566 4.62691 56.0522 1.93018C55.8349 0.789433 55.6991 0.518149 55.1965 0.22127C54.569 -0.149278 54.0588 -0.0462467 53.0213 0.660677C52.4269 1.06565 51.7214 1.411 51.1374 1.58289C50.8537 1.74924 50.5559 1.86236 50.2514 1.932C50.1201 2.00102 50.0219 2.06613 49.9764 2.11831C49.4716 2.69661 49.8955 3.51929 50.6983 3.51929C51.3032 3.51929 52.5817 3.06339 53.4598 2.53459C53.8699 2.28773 54.2159 2.10129 54.2289 2.12039C54.2417 2.13949 54.3251 2.49223 54.4141 2.90423C54.9829 5.53872 57.5996 8.14269 60.273 8.7345C60.666 8.82155 61.0032 8.90275 61.0223 8.91496C61.0414 8.92731 60.8549 9.27278 60.6081 9.68282C59.8888 10.8774 59.604 11.8566 59.5293 13.3936C59.4481 15.0625 59.7724 16.4573 60.5336 17.7136C60.8042 18.1602 61.0032 18.5628 60.9757 18.6082C60.9483 18.6535 60.6603 18.7304 60.3357 18.779C60.0112 18.8277 59.2267 19.1274 58.5924 19.4449C56.5216 20.4814 55.0071 22.3477 54.4473 24.5525L54.2177 25.4563L53.6399 25.0978C50.9345 23.4188 47.4115 23.4773 44.9088 25.2427L44.8598 25.2775C44.7324 25.3681 44.6539 25.424 44.594 25.4084C44.4981 25.3834 44.45 25.175 44.3248 24.6326L44.2946 24.5022C43.6603 21.7647 41.26 19.4813 38.2137 18.7177L37.6571 18.5783L37.9283 18.1974C38.3078 17.6645 38.8975 16.3098 39.0863 15.5374C39.3037 14.6486 39.2767 12.7092 39.0342 11.7937C38.8379 11.0518 38.2558 9.76052 37.8692 9.20847C37.6769 8.93393 37.6913 8.92367 38.5852 8.69669C41.3397 7.99717 43.619 5.69048 44.343 2.86967C44.5393 2.10454 44.6224 2.06751 45.208 2.48444C45.2757 2.53265 45.3488 2.58108 45.4268 2.62938C46.1139 3.04837 46.5983 2.97852 46.9665 2.41662C47.2705 1.9526 47.109 1.64324 46.1073 0.941516C46.0024 0.874102 45.9068 0.808334 45.8218 0.745908C44.4796 -0.156294 44.0113 -0.21463 43.3151 0.433567Z" fill="#F2A600"/>
<path fill-rule="evenodd" clip-rule="evenodd" d="M53.4598 2.53459C52.5817 3.06339 51.3032 3.51929 50.6983 3.51929C48.9538 4.07707 46.6193 3.36823 45.4268 2.62938C45.356 2.58625 45.2831 2.53793 45.208 2.48444C44.6224 2.06751 44.5393 2.10454 44.343 2.86967C43.619 5.69048 41.3397 7.99717 38.5852 8.69669C37.6913 8.92367 37.6769 8.93393 37.8692 9.20847C38.2558 9.76052 38.8379 11.0518 39.0342 11.7937C39.2767 12.7092 39.3037 14.6486 39.0863 15.5374C38.8975 16.3098 38.3078 17.6645 37.9283 18.1974L37.6571 18.5783L38.2137 18.7177C41.26 19.4813 43.6603 21.7647 44.2946 24.5022L44.3248 24.6326C44.45 25.175 44.4981 25.3834 44.594 25.4084C44.6539 25.424 44.7324 25.3681 44.8598 25.2775L44.9088 25.2427C47.4115 23.4773 50.9345 23.4188 53.6399 25.0978L54.2177 25.4563L54.4473 24.5525C55.0071 22.3477 56.5216 20.4814 58.5924 19.4449C59.2267 19.1274 60.0112 18.8277 60.3357 18.779C60.6603 18.7304 60.9483 18.6535 60.9757 18.6082C61.0032 18.5628 60.8042 18.1602 60.5336 17.7136C59.7724 16.4573 59.4481 15.0625 59.5293 13.3936C59.604 11.8566 59.8888 10.8774 60.6081 9.68282C60.8549 9.27278 61.0414 8.92731 61.0223 8.91496C61.0032 8.90275 60.666 8.82155 60.273 8.7345C57.5996 8.14269 54.9829 5.53872 54.4141 2.90423C54.3251 2.49223 54.2417 2.13949 54.2289 2.12039C54.2159 2.10129 53.8699 2.28773 53.4598 2.53459ZM42.9322 12.034C43.5838 9.53211 45.7467 7.61142 48.419 7.16149C49.2984 7.01338 49.4568 7.01364 50.3987 7.16474C50.8748 7.24101 51.7015 7.52113 52.2941 7.80696C56.5437 9.85614 57.3151 15.6537 53.7529 18.7698C51.116 21.0765 47.2121 20.9428 44.6701 18.4585C43.0401 16.8655 42.3439 14.2923 42.9322 12.034Z" fill="#F2A600"/>
<path d="M50.6983 3.51929C49.8955 3.51929 49.4716 2.69661 49.9764 2.11831C50.0219 2.06613 50.1201 2.00102 50.2514 1.932C48.732 2.27956 47.0461 1.54466 46.1073 0.941516C47.109 1.64324 47.2705 1.9526 46.9665 2.41662C46.5983 2.97852 46.1139 3.04837 45.4268 2.62938C46.6193 3.36823 48.9538 4.07707 50.6983 3.51929Z" fill="#F2A600"/>
<path fill-rule="evenodd" clip-rule="evenodd" d="M48.419 7.16149C45.7467 7.61142 43.5838 9.53211 42.9322 12.034C42.3439 14.2923 43.0401 16.8655 44.6701 18.4585C47.2121 20.9428 51.116 21.0765 53.7529 18.7698C57.3151 15.6537 56.5437 9.85614 52.2941 7.80696C51.7015 7.52113 50.8748 7.24101 50.3987 7.16474C49.4568 7.01364 49.2984 7.01338 48.419 7.16149ZM51.4691 18.1595C55.696 16.0839 54.8398 9.8351 50.2123 8.98746C49.3 8.82038 49.2436 8.82155 48.3199 9.02683C46.8334 9.35736 45.5925 10.338 44.9639 11.6791C44.6569 12.3341 44.617 12.576 44.6174 13.7834C44.6176 14.9123 44.6669 15.254 44.9024 15.7649C45.2996 16.6259 46.3951 17.7396 47.2659 18.1675C47.9212 18.4894 48.133 18.5257 49.3593 18.5257C50.5925 18.5257 50.7951 18.4905 51.4691 18.1595Z" fill="#F2A600"/>
<path fill-rule="evenodd" clip-rule="evenodd" d="M46.1073 0.941516C46.0188 0.879504 45.9237 0.814426 45.8218 0.745908C45.9068 0.808334 46.0024 0.874102 46.1073 0.941516ZM45.208 2.48444C45.2757 2.53265 45.3488 2.58108 45.4268 2.62938C45.356 2.58625 45.2831 2.53793 45.208 2.48444Z" fill="#3F3F3F"/>
<path d="M51.7989 30.2429C51.4791 30.3268 49.353 33.4697 49.2701 33.9809C49.1876 34.4893 49.261 34.6408 50.4248 36.3631L51.3283 37.6999L50.265 39.278L50.2559 39.2915C49.6066 40.255 49.2773 40.7437 49.2749 41.234C49.2724 41.7388 49.6163 42.2452 50.3142 43.2729L50.3237 43.287C50.8692 44.0906 51.2993 44.7824 51.2794 44.8243C51.2594 44.8662 50.8194 45.527 50.3012 46.2929C49.7831 47.0587 49.3593 47.8068 49.3593 47.9553C49.3593 48.2905 49.9136 48.8632 50.2379 48.8632C50.633 48.8632 50.8604 48.6156 52.0201 46.9218C53.4804 44.7893 53.4817 44.748 52.1536 42.8118C51.618 42.0312 51.1795 41.3299 51.1791 41.2533C51.1786 41.1767 51.6167 40.4577 52.1526 39.6556C52.947 38.4667 53.1271 38.1041 53.1271 37.6934C53.1271 37.2804 52.9516 36.9317 52.1526 35.7577C51.6167 34.9701 51.1782 34.2598 51.1782 34.1791C51.1782 34.0985 51.5875 33.4314 52.0877 32.6965C52.5879 31.9616 52.9972 31.2324 52.9972 31.0761C52.9972 30.7591 52.452 30.1457 52.191 30.1691C52.0985 30.1774 51.9219 30.2106 51.7989 30.2429Z" fill="#3F3F3F"/>
<path d="M58.0309 30.4368C57.8494 30.6029 57.2565 31.4049 56.7133 32.2193C55.4079 34.1763 55.4079 34.1791 56.763 36.1845L57.8004 37.7198L56.763 39.2265C55.397 41.2106 55.3968 41.2313 56.7215 43.1776C57.2692 43.9823 57.7172 44.6991 57.717 44.7706C57.7168 44.842 57.2952 45.5132 56.7801 46.2623C55.7327 47.7851 55.6479 48.1802 56.2695 48.6422C56.8657 49.0853 57.2049 48.8202 58.4892 46.9073C59.3591 45.6116 59.6234 45.1154 59.6234 44.7779C59.6234 44.4459 59.3708 43.9556 58.5946 42.7809L57.566 41.224L58.5946 39.6957L58.6016 39.6854C59.276 38.6834 59.6127 38.1832 59.6099 37.6849C59.6071 37.1881 59.2669 36.6933 58.5876 35.7051L58.5806 35.6948L57.5377 34.1776L58.5156 32.7407C59.0534 31.9503 59.4934 31.1976 59.4934 31.068C59.4934 30.7338 59.0981 30.309 58.6997 30.2151C58.4509 30.1563 58.2729 30.2153 58.0309 30.4368Z" fill="#3F3F3F"/>
<path fill-rule="evenodd" clip-rule="evenodd" d="M33.8998 50.6822H29.7478H25.5956L25.5568 45.0629L25.5179 39.4437L25.1175 38.5988C24.6046 37.5165 23.6773 36.5892 22.595 36.0762C21.8264 35.7119 21.6328 35.6758 20.4509 35.6758C19.2769 35.6758 19.0765 35.7127 18.3721 36.0577C17.378 36.5445 16.3839 37.5386 15.8959 38.5342L15.5137 39.3137L15.476 44.998L15.4385 50.6822H11.2859H7.13351H5.31455H3.12336C1.10328 50.6822 0.905404 50.7032 0.589815 50.9515C0.170936 51.2809 0.133387 51.8674 0.507312 52.2413C0.765734 52.4997 0.940354 52.5012 33.2485 52.5012C65.5567 52.5012 65.7313 52.4997 65.9897 52.2413C66.3636 51.8674 66.3261 51.2809 65.9072 50.9515C65.5654 50.6826 65.5424 50.6822 50.641 50.6822H35.7171H33.8998ZM23.4555 39.3064C23.0978 38.5382 22.2864 37.7941 21.5737 37.5807C20.3311 37.2083 19.0336 37.5028 18.1872 38.3493L18.1647 38.3717C17.9819 38.5545 17.8365 38.6998 17.721 38.8658C17.2735 39.5088 17.273 40.4629 17.2706 45.1123L17.2705 45.2578L17.2677 50.6822H20.5158H23.764L23.7627 45.3228C23.7614 39.9686 23.7611 39.9627 23.4555 39.3064Z" fill="#3F3F3F"/>
</svg>
