<svg width="956" height="452" viewBox="0 0 956 452" fill="none" xmlns="http://www.w3.org/2000/svg">
<g filter="url(#filter0_d_513:315)">
<path d="M58.3486 439.5L133.849 439.5L251.349 439.5C364.371 444.189 397.058 294.136 274.349 328C218.37 117.914 64.4527 234.527 81.1391 319.623C-32.6903 334.377 -2.19918 436.988 58.3486 439.5Z" fill="url(#paint0_linear_513:315)"/>
<path d="M600.632 268.931L675.844 268.931L792.896 268.931C890.869 268.931 996.766 178.171 928.528 61.6179C873.937 -31.625 804.023 29.74 775.89 72.0778C708.496 -8.94786 609.831 80.6425 623.336 149.511C509.94 164.21 540.315 266.428 600.632 268.931Z" fill="url(#paint1_linear_513:315)"/>
</g>
<defs>
<filter id="filter0_d_513:315" x="0.320709" y="12.7637" width="953.9" height="434.844" filterUnits="userSpaceOnUse" color-interpolation-filters="sRGB">
<feFlood flood-opacity="0" result="BackgroundImageFix"/>
<feColorMatrix in="SourceAlpha" type="matrix" values="0 0 0 0 0 0 0 0 0 0 0 0 0 0 0 0 0 0 127 0" result="hardAlpha"/>
<feOffset dy="4"/>
<feGaussianBlur stdDeviation="2"/>
<feComposite in2="hardAlpha" operator="out"/>
<feColorMatrix type="matrix" values="0 0 0 0 0 0 0 0 0 0 0 0 0 0 0 0 0 0 0.25 0"/>
<feBlend mode="normal" in2="BackgroundImageFix" result="effect1_dropShadow_513:315"/>
<feBlend mode="normal" in="SourceGraphic" in2="effect1_dropShadow_513:315" result="shape"/>
</filter>
<linearGradient id="paint0_linear_513:315" x1="185.11" y1="210.087" x2="175.389" y2="444.356" gradientUnits="userSpaceOnUse">
<stop stop-color="#54E1FF"/>
<stop offset="1" stop-color="#01C3ED"/>
</linearGradient>
<linearGradient id="paint1_linear_513:315" x1="755.389" y1="8.29158" x2="744.326" y2="274.893" gradientUnits="userSpaceOnUse">
<stop stop-color="#54E1FF"/>
<stop offset="1" stop-color="#01C3ED"/>
</linearGradient>
</defs>
</svg>
