<svg width="635" height="41" viewBox="0 0 635 41" fill="none" xmlns="http://www.w3.org/2000/svg">
<path d="M5.34558 32.0979H0V1.67176H5.34558V32.0979Z" fill="#FE901A"/>
<path d="M16.2277 9.48726L16.3761 12.0994C18.0732 10.0793 20.3005 9.06932 23.0581 9.06932C27.838 9.06932 30.2704 11.765 30.3553 17.1565V32.0979H25.2006V17.449C25.2006 16.0141 24.8824 14.9553 24.246 14.2727C23.6238 13.5761 22.5985 13.2278 21.1702 13.2278C19.0914 13.2278 17.5428 14.1543 16.5246 16.0071V32.0979H11.37V9.48726H16.2277Z" fill="#FE901A"/>
<path d="M34.6614 20.6254C34.6614 17.1425 35.4817 14.3493 37.1221 12.2457C38.7625 10.1281 40.9616 9.06932 43.7192 9.06932C46.1516 9.06932 48.1173 9.9052 49.6163 11.577V0H54.771V32.0979H50.1042L49.8497 29.7574C48.3082 31.5963 46.2506 32.5158 43.6768 32.5158C40.9899 32.5158 38.812 31.4501 37.1433 29.3186C35.4887 27.1871 34.6614 24.2893 34.6614 20.6254ZM39.8161 21.0642C39.8161 23.3629 40.2616 25.16 41.1525 26.4557C42.0576 27.7373 43.3374 28.3782 44.992 28.3782C47.0991 28.3782 48.6406 27.4517 49.6163 25.5989V15.9444C48.6688 14.1334 47.1415 13.2278 45.0344 13.2278C43.3657 13.2278 42.0788 13.8826 41.1737 15.1922C40.2686 16.4878 39.8161 18.4451 39.8161 21.0642Z" fill="#FE901A"/>
<path d="M65.6319 32.0979H60.4772V9.48726H65.6319V32.0979ZM60.159 3.61519C60.159 2.83503 60.4065 2.18722 60.9015 1.67176C61.4106 1.1563 62.1318 0.898573 63.0651 0.898573C63.9985 0.898573 64.7197 1.1563 65.2288 1.67176C65.7379 2.18722 65.9925 2.83503 65.9925 3.61519C65.9925 4.38141 65.7379 5.02226 65.2288 5.53772C64.7197 6.03925 63.9985 6.29001 63.0651 6.29001C62.1318 6.29001 61.4106 6.03925 60.9015 5.53772C60.4065 5.02226 60.159 4.38141 60.159 3.61519Z" fill="#FE901A"/>
<path d="M84.9778 32.0979C84.7515 31.666 84.5535 30.9625 84.3838 29.9873C82.7434 31.673 80.7353 32.5158 78.3594 32.5158C76.0543 32.5158 74.1735 31.868 72.7169 30.5724C71.2603 29.2768 70.532 27.6747 70.532 25.7661C70.532 23.3559 71.4371 21.51 73.2472 20.2283C75.0715 18.9327 77.6736 18.2849 81.0534 18.2849H84.2141V16.8012C84.2141 15.631 83.8818 14.6976 83.2171 14.001C82.5525 13.2905 81.5413 12.9353 80.1837 12.9353C79.01 12.9353 78.0483 13.2278 77.2988 13.8129C76.5493 14.3841 76.1745 15.1155 76.1745 16.0071H71.0199C71.0199 14.7672 71.4371 13.6109 72.2714 12.5382C73.1058 11.4516 74.2371 10.6018 75.6654 9.98879C77.1079 9.37581 78.713 9.06932 80.4807 9.06932C83.1676 9.06932 85.3101 9.73802 86.9081 11.0754C88.5062 12.3989 89.3264 14.2657 89.3688 16.6758V26.8736C89.3688 28.9076 89.6587 30.5306 90.2385 31.7426V32.0979H84.9778ZM79.314 28.4409C80.3322 28.4409 81.2868 28.1971 82.1777 27.7095C83.0828 27.2219 83.7616 26.5671 84.2141 25.7452V21.4822H81.4353C79.5261 21.4822 78.0908 21.8095 77.1291 22.4643C76.1675 23.1191 75.6867 24.0455 75.6867 25.2436C75.6867 26.2188 76.0119 26.999 76.6624 27.5841C77.3271 28.1553 78.211 28.4409 79.314 28.4409Z" fill="#FE901A"/>
<path d="M113.042 1.67176L121.951 24.9929L130.839 1.67176H137.776V32.0979H132.43V22.0673L132.961 8.65138L123.839 32.0979H120L110.9 8.67227L111.43 22.0673V32.0979H106.084V1.67176H113.042Z" fill="#FE901A"/>
<path d="M153.749 32.5158C150.482 32.5158 147.831 31.5058 145.794 29.4857C143.772 27.4517 142.761 24.7491 142.761 21.3777V20.7508C142.761 18.4939 143.199 16.4808 144.076 14.7115C144.967 12.9283 146.212 11.5421 147.81 10.553C149.408 9.56388 151.189 9.06932 153.155 9.06932C156.28 9.06932 158.692 10.0515 160.389 12.0158C162.1 13.9801 162.955 16.7594 162.955 20.3537V22.4016H147.958C148.114 24.2684 148.743 25.7452 149.846 26.8318C150.963 27.9185 152.363 28.4618 154.046 28.4618C156.408 28.4618 158.331 27.5214 159.816 25.6407L162.595 28.2528C161.676 29.6041 160.445 30.656 158.904 31.4083C157.376 32.1466 155.658 32.5158 153.749 32.5158ZM153.134 13.1442C151.72 13.1442 150.574 13.6318 149.698 14.607C148.835 15.5822 148.283 16.9405 148.043 18.682H157.864V18.3058C157.751 16.6062 157.292 15.3245 156.486 14.4608C155.679 13.5831 154.562 13.1442 153.134 13.1442Z" fill="#FE901A"/>
<path d="M173.434 3.99134V9.48726H177.486V13.2487H173.434V25.8705C173.434 26.7343 173.604 27.3612 173.944 27.7513C174.297 28.1274 174.919 28.3155 175.81 28.3155C176.404 28.3155 177.005 28.2458 177.613 28.1065V32.0352C176.44 32.3556 175.308 32.5158 174.219 32.5158C170.26 32.5158 168.28 30.3634 168.28 26.0586V13.2487H164.504V9.48726H168.28V3.99134H173.434Z" fill="#FE901A"/>
<path d="M191.55 32.5158C188.283 32.5158 185.632 31.5058 183.595 29.4857C181.573 27.4517 180.562 24.7491 180.562 21.3777V20.7508C180.562 18.4939 181 16.4808 181.877 14.7115C182.768 12.9283 184.012 11.5421 185.61 10.553C187.209 9.56388 188.99 9.06932 190.956 9.06932C194.081 9.06932 196.493 10.0515 198.19 12.0158C199.901 13.9801 200.756 16.7594 200.756 20.3537V22.4016H185.759C185.915 24.2684 186.544 25.7452 187.647 26.8318C188.764 27.9185 190.164 28.4618 191.847 28.4618C194.209 28.4618 196.132 27.5214 197.617 25.6407L200.396 28.2528C199.476 29.6041 198.246 30.656 196.705 31.4083C195.177 32.1466 193.459 32.5158 191.55 32.5158ZM190.935 13.1442C189.521 13.1442 188.375 13.6318 187.498 14.607C186.636 15.5822 186.084 16.9405 185.844 18.682H195.665V18.3058C195.552 16.6062 195.093 15.3245 194.286 14.4608C193.48 13.5831 192.363 13.1442 190.935 13.1442Z" fill="#FE901A"/>
<path d="M203.811 20.5836C203.811 18.3685 204.256 16.3763 205.147 14.607C206.038 12.8238 207.29 11.4585 208.902 10.5112C210.514 9.54995 212.367 9.06932 214.46 9.06932C217.557 9.06932 220.067 10.0515 221.99 12.0158C223.928 13.9801 224.974 16.5853 225.13 19.8313L225.151 21.0224C225.151 23.2514 224.712 25.2436 223.836 26.999C222.973 28.7543 221.729 30.1126 220.102 31.0739C218.49 32.0352 216.623 32.5158 214.502 32.5158C211.264 32.5158 208.669 31.457 206.717 29.3394C204.78 27.208 203.811 24.3729 203.811 20.8344V20.5836ZM208.966 21.0224C208.966 23.349 209.453 25.174 210.429 26.4975C211.405 27.807 212.763 28.4618 214.502 28.4618C216.242 28.4618 217.592 27.7931 218.554 26.4557C219.529 25.1182 220.017 23.1609 220.017 20.5836C220.017 18.2988 219.515 16.4878 218.511 15.1504C217.521 13.8129 216.171 13.1442 214.46 13.1442C212.777 13.1442 211.44 13.806 210.45 15.1295C209.461 16.439 208.966 18.4033 208.966 21.0224Z" fill="#FE901A"/>
<path d="M241.527 14.1264C240.848 14.015 240.148 13.9592 239.427 13.9592C237.065 13.9592 235.474 14.8508 234.654 16.634V32.0979H229.499V9.48726H234.421L234.548 12.0158C235.792 10.0515 237.518 9.06932 239.724 9.06932C240.459 9.06932 241.067 9.16684 241.548 9.36188L241.527 14.1264Z" fill="#FE901A"/>
<path d="M243.054 20.5836C243.054 18.3685 243.5 16.3763 244.391 14.607C245.282 12.8238 246.533 11.4585 248.145 10.5112C249.757 9.54995 251.61 9.06932 253.703 9.06932C256.8 9.06932 259.31 10.0515 261.233 12.0158C263.171 13.9801 264.217 16.5853 264.373 19.8313L264.394 21.0224C264.394 23.2514 263.956 25.2436 263.079 26.999C262.216 28.7543 260.972 30.1126 259.346 31.0739C257.733 32.0352 255.867 32.5158 253.745 32.5158C250.507 32.5158 247.912 31.457 245.96 29.3394C244.023 27.208 243.054 24.3729 243.054 20.8344V20.5836ZM248.209 21.0224C248.209 23.349 248.697 25.174 249.673 26.4975C250.648 27.807 252.006 28.4618 253.745 28.4618C255.485 28.4618 256.835 27.7931 257.797 26.4557C258.773 25.1182 259.261 23.1609 259.261 20.5836C259.261 18.2988 258.759 16.4878 257.755 15.1504C256.765 13.8129 255.414 13.1442 253.703 13.1442C252.02 13.1442 250.684 13.806 249.694 15.1295C248.704 16.439 248.209 18.4033 248.209 21.0224Z" fill="#FE901A"/>
<path d="M274.237 32.0979H269.082V0H274.237V32.0979Z" fill="#FE901A"/>
<path d="M278.904 20.5836C278.904 18.3685 279.349 16.3763 280.24 14.607C281.131 12.8238 282.382 11.4585 283.995 10.5112C285.607 9.54995 287.459 9.06932 289.552 9.06932C292.649 9.06932 295.16 10.0515 297.083 12.0158C299.02 13.9801 300.067 16.5853 300.222 19.8313L300.244 21.0224C300.244 23.2514 299.805 25.2436 298.928 26.999C298.066 28.7543 296.821 30.1126 295.195 31.0739C293.583 32.0352 291.716 32.5158 289.595 32.5158C286.356 32.5158 283.761 31.457 281.81 29.3394C279.872 27.208 278.904 24.3729 278.904 20.8344V20.5836ZM284.058 21.0224C284.058 23.349 284.546 25.174 285.522 26.4975C286.498 27.807 287.855 28.4618 289.595 28.4618C291.334 28.4618 292.685 27.7931 293.646 26.4557C294.622 25.1182 295.11 23.1609 295.11 20.5836C295.11 18.2988 294.608 16.4878 293.604 15.1504C292.614 13.8129 291.264 13.1442 289.552 13.1442C287.869 13.1442 286.533 13.806 285.543 15.1295C284.553 16.439 284.058 18.4033 284.058 21.0224Z" fill="#FE901A"/>
<path d="M303.701 20.6254C303.701 17.1147 304.536 14.3145 306.204 12.2248C307.887 10.1211 310.114 9.06932 312.886 9.06932C315.502 9.06932 317.56 9.96789 319.059 11.765L319.292 9.48726H323.938V31.4083C323.938 34.3756 322.998 36.7161 321.117 38.4297C319.25 40.1432 316.726 41 313.544 41C311.861 41 310.213 40.6517 308.601 39.9551C307.003 39.2725 305.787 38.3739 304.953 37.2594L307.392 34.2085C308.976 36.0613 310.928 36.9878 313.247 36.9878C314.958 36.9878 316.309 36.528 317.298 35.6086C318.288 34.703 318.783 33.3656 318.783 31.5963V30.0708C317.298 31.7008 315.319 32.5158 312.844 32.5158C310.157 32.5158 307.958 31.464 306.247 29.3603C304.55 27.2567 303.701 24.3451 303.701 20.6254ZM308.835 21.0642C308.835 23.335 309.301 25.1252 310.235 26.4348C311.182 27.7304 312.49 28.3782 314.159 28.3782C316.238 28.3782 317.779 27.5005 318.783 25.7452V15.7982C317.808 14.0846 316.28 13.2278 314.201 13.2278C312.504 13.2278 311.182 13.8896 310.235 15.213C309.301 16.5365 308.835 18.4869 308.835 21.0642Z" fill="#FE901A"/>
<path d="M334.735 32.0979H329.581V9.48726H334.735V32.0979ZM329.262 3.61519C329.262 2.83503 329.51 2.18722 330.005 1.67176C330.514 1.1563 331.235 0.898573 332.169 0.898573C333.102 0.898573 333.823 1.1563 334.332 1.67176C334.841 2.18722 335.096 2.83503 335.096 3.61519C335.096 4.38141 334.841 5.02226 334.332 5.53772C333.823 6.03925 333.102 6.29001 332.169 6.29001C331.235 6.29001 330.514 6.03925 330.005 5.53772C329.51 5.02226 329.262 4.38141 329.262 3.61519Z" fill="#FE901A"/>
<path d="M349.796 28.4618C351.083 28.4618 352.151 28.0926 352.999 27.3542C353.848 26.6159 354.3 25.7034 354.357 24.6167H359.215C359.158 26.0238 358.713 27.3403 357.878 28.5663C357.044 29.7783 355.913 30.7396 354.484 31.4501C353.056 32.1605 351.514 32.5158 349.86 32.5158C346.65 32.5158 344.104 31.4918 342.223 29.4439C340.342 27.396 339.402 24.568 339.402 20.9597V20.4373C339.402 16.9963 340.335 14.2448 342.202 12.183C344.069 10.1072 346.614 9.06932 349.839 9.06932C352.568 9.06932 354.788 9.85644 356.499 11.4307C358.225 12.991 359.13 15.0459 359.215 17.5953H354.357C354.3 16.2997 353.848 15.2339 352.999 14.3981C352.165 13.5622 351.097 13.1442 349.796 13.1442C348.127 13.1442 346.841 13.7433 345.936 14.9414C345.03 16.1256 344.571 17.9297 344.557 20.3537V21.1687C344.557 23.6206 345.002 25.4526 345.893 26.6646C346.798 27.8627 348.099 28.4618 349.796 28.4618Z" fill="#FE901A"/>
<path d="M376.821 32.0979C376.595 31.666 376.397 30.9625 376.227 29.9873C374.587 31.673 372.579 32.5158 370.203 32.5158C367.898 32.5158 366.017 31.868 364.56 30.5724C363.104 29.2768 362.375 27.6747 362.375 25.7661C362.375 23.3559 363.28 21.51 365.091 20.2283C366.915 18.9327 369.517 18.2849 372.897 18.2849H376.057V16.8012C376.057 15.631 375.725 14.6976 375.06 14.001C374.396 13.2905 373.385 12.9353 372.027 12.9353C370.853 12.9353 369.892 13.2278 369.142 13.8129C368.393 14.3841 368.018 15.1155 368.018 16.0071H362.863C362.863 14.7672 363.28 13.6109 364.115 12.5382C364.949 11.4516 366.08 10.6018 367.509 9.98879C368.951 9.37581 370.556 9.06932 372.324 9.06932C375.011 9.06932 377.153 9.73802 378.751 11.0754C380.349 12.3989 381.17 14.2657 381.212 16.6758V26.8736C381.212 28.9076 381.502 30.5306 382.082 31.7426V32.0979H376.821ZM371.157 28.4409C372.176 28.4409 373.13 28.1971 374.021 27.7095C374.926 27.2219 375.605 26.5671 376.057 25.7452V21.4822H373.279C371.369 21.4822 369.934 21.8095 368.972 22.4643C368.011 23.1191 367.53 24.0455 367.53 25.2436C367.53 26.2188 367.855 26.999 368.506 27.5841C369.17 28.1553 370.054 28.4409 371.157 28.4409Z" fill="#FE901A"/>
<path d="M392.094 32.0979H386.94V0H392.094V32.0979Z" fill="#FE901A"/>
<path d="M409.043 32.0979V1.67176H418.165C420.894 1.67176 423.312 2.27081 425.419 3.46891C427.54 4.66701 429.181 6.36663 430.341 8.56779C431.5 10.7689 432.08 13.2905 432.08 16.1325V17.658C432.08 20.5418 431.493 23.0773 430.319 25.2645C429.16 27.4517 427.498 29.1374 425.334 30.3216C423.185 31.5058 420.717 32.0979 417.931 32.0979H409.043ZM414.41 5.93476V27.8767H417.91C420.724 27.8767 422.881 27.0129 424.38 25.2854C425.893 23.544 426.664 21.0503 426.692 17.8043V16.1116C426.692 12.8099 425.964 10.2883 424.507 8.54689C423.05 6.80547 420.936 5.93476 418.165 5.93476H414.41Z" fill="#FE901A"/>
<path d="M447.035 32.5158C443.768 32.5158 441.117 31.5058 439.08 29.4857C437.058 27.4517 436.047 24.7491 436.047 21.3777V20.7508C436.047 18.4939 436.485 16.4808 437.362 14.7115C438.253 12.9283 439.497 11.5421 441.095 10.553C442.693 9.56388 444.475 9.06932 446.441 9.06932C449.566 9.06932 451.977 10.0515 453.674 12.0158C455.386 13.9801 456.241 16.7594 456.241 20.3537V22.4016H441.244C441.399 24.2684 442.029 25.7452 443.132 26.8318C444.249 27.9185 445.649 28.4618 447.332 28.4618C449.694 28.4618 451.617 27.5214 453.102 25.6407L455.881 28.2528C454.961 29.6041 453.731 30.656 452.19 31.4083C450.662 32.1466 448.944 32.5158 447.035 32.5158ZM446.42 13.1442C445.006 13.1442 443.86 13.6318 442.983 14.607C442.121 15.5822 441.569 16.9405 441.329 18.682H451.15V18.3058C451.037 16.6062 450.577 15.3245 449.771 14.4608C448.965 13.5831 447.848 13.1442 446.42 13.1442Z" fill="#FE901A"/>
<path d="M480.36 21.0224C480.36 24.5192 479.554 27.3124 477.942 29.4021C476.33 31.4779 474.166 32.5158 471.451 32.5158C468.933 32.5158 466.918 31.7008 465.405 30.0708V40.791H460.25V9.48726H465.002L465.214 11.7859C466.727 9.97486 468.785 9.06932 471.387 9.06932C474.187 9.06932 476.379 10.1002 477.963 12.1621C479.561 14.21 480.36 17.059 480.36 20.709V21.0224ZM475.226 20.5836C475.226 18.3267 474.767 16.5365 473.848 15.213C472.943 13.8896 471.642 13.2278 469.945 13.2278C467.837 13.2278 466.324 14.0846 465.405 15.7982V25.8287C466.338 27.5841 467.866 28.4618 469.987 28.4618C471.627 28.4618 472.907 27.814 473.826 26.5183C474.76 25.2088 475.226 23.2305 475.226 20.5836Z" fill="#FE901A"/>
<path d="M498.454 32.0979C498.228 31.666 498.03 30.9625 497.86 29.9873C496.22 31.673 494.212 32.5158 491.836 32.5158C489.531 32.5158 487.65 31.868 486.193 30.5724C484.737 29.2768 484.009 27.6747 484.009 25.7661C484.009 23.3559 484.914 21.51 486.724 20.2283C488.548 18.9327 491.15 18.2849 494.53 18.2849H497.691V16.8012C497.691 15.631 497.358 14.6976 496.694 14.001C496.029 13.2905 495.018 12.9353 493.66 12.9353C492.486 12.9353 491.525 13.2278 490.775 13.8129C490.026 14.3841 489.651 15.1155 489.651 16.0071H484.496C484.496 14.7672 484.914 13.6109 485.748 12.5382C486.582 11.4516 487.714 10.6018 489.142 9.98879C490.584 9.37581 492.19 9.06932 493.957 9.06932C496.644 9.06932 498.787 9.73802 500.385 11.0754C501.983 12.3989 502.803 14.2657 502.845 16.6758V26.8736C502.845 28.9076 503.135 30.5306 503.715 31.7426V32.0979H498.454ZM492.791 28.4409C493.809 28.4409 494.763 28.1971 495.654 27.7095C496.559 27.2219 497.238 26.5671 497.691 25.7452V21.4822H494.912C493.003 21.4822 491.567 21.8095 490.606 22.4643C489.644 23.1191 489.163 24.0455 489.163 25.2436C489.163 26.2188 489.488 26.999 490.139 27.5841C490.804 28.1553 491.687 28.4409 492.791 28.4409Z" fill="#FE901A"/>
<path d="M520.261 14.1264C519.582 14.015 518.882 13.9592 518.161 13.9592C515.799 13.9592 514.208 14.8508 513.388 16.634V32.0979H508.233V9.48726H513.155L513.282 12.0158C514.526 10.0515 516.252 9.06932 518.458 9.06932C519.193 9.06932 519.801 9.16684 520.282 9.36188L520.261 14.1264Z" fill="#FE901A"/>
<path d="M531.037 3.99134V9.48726H535.089V13.2487H531.037V25.8705C531.037 26.7343 531.207 27.3612 531.546 27.7513C531.9 28.1274 532.522 28.3155 533.413 28.3155C534.007 28.3155 534.608 28.2458 535.216 28.1065V32.0352C534.042 32.3556 532.911 32.5158 531.822 32.5158C527.862 32.5158 525.882 30.3634 525.882 26.0586V13.2487H522.106V9.48726H525.882V3.99134H531.037Z" fill="#FE901A"/>
<path d="M543.892 9.48726L544.04 11.8486C545.652 9.99575 547.859 9.06932 550.659 9.06932C553.727 9.06932 555.827 10.2256 556.959 12.5382C558.627 10.2256 560.975 9.06932 564.001 9.06932C566.533 9.06932 568.414 9.75892 569.644 11.1381C570.888 12.5173 571.525 14.5513 571.553 17.2401V32.0979H566.398V17.3863C566.398 15.9514 566.08 14.8996 565.444 14.2309C564.807 13.5622 563.754 13.2278 562.283 13.2278C561.109 13.2278 560.148 13.5413 559.398 14.1682C558.663 14.7812 558.147 15.5892 557.85 16.5923L557.871 32.0979H552.716V17.2192C552.645 14.5583 551.267 13.2278 548.58 13.2278C546.515 13.2278 545.051 14.0567 544.189 15.7146V32.0979H539.034V9.48726H543.892Z" fill="#FE901A"/>
<path d="M586.953 32.5158C583.687 32.5158 581.035 31.5058 578.999 29.4857C576.976 27.4517 575.965 24.7491 575.965 21.3777V20.7508C575.965 18.4939 576.404 16.4808 577.28 14.7115C578.171 12.9283 579.416 11.5421 581.014 10.553C582.612 9.56388 584.394 9.06932 586.359 9.06932C589.485 9.06932 591.896 10.0515 593.593 12.0158C595.304 13.9801 596.16 16.7594 596.16 20.3537V22.4016H581.162C581.318 24.2684 581.947 25.7452 583.05 26.8318C584.167 27.9185 585.567 28.4618 587.25 28.4618C589.612 28.4618 591.535 27.5214 593.02 25.6407L595.799 28.2528C594.88 29.6041 593.65 30.656 592.108 31.4083C590.581 32.1466 588.863 32.5158 586.953 32.5158ZM586.338 13.1442C584.924 13.1442 583.779 13.6318 582.902 14.607C582.039 15.5822 581.488 16.9405 581.247 18.682H591.069V18.3058C590.955 16.6062 590.496 15.3245 589.69 14.4608C588.884 13.5831 587.767 13.1442 586.338 13.1442Z" fill="#FE901A"/>
<path d="M604.963 9.48726L605.111 12.0994C606.808 10.0793 609.036 9.06932 611.793 9.06932C616.573 9.06932 619.006 11.765 619.091 17.1565V32.0979H613.936V17.449C613.936 16.0141 613.618 14.9553 612.981 14.2727C612.359 13.5761 611.334 13.2278 609.905 13.2278C607.827 13.2278 606.278 14.1543 605.26 16.0071V32.0979H600.105V9.48726H604.963Z" fill="#FE901A"/>
<path d="M630.821 3.99134V9.48726H634.873V13.2487H630.821V25.8705C630.821 26.7343 630.991 27.3612 631.33 27.7513C631.684 28.1274 632.306 28.3155 633.197 28.3155C633.791 28.3155 634.392 28.2458 635 28.1065V32.0352C633.826 32.3556 632.695 32.5158 631.606 32.5158C627.646 32.5158 625.666 30.3634 625.666 26.0586V13.2487H621.891V9.48726H625.666V3.99134H630.821Z" fill="#FE901A"/>
</svg>
