<svg width="523" height="147" viewBox="0 0 523 147" fill="none" xmlns="http://www.w3.org/2000/svg">
<path d="M16.4252 20.8548H6.62223L4.57125 26.7611H0L9.55965 1.39381H13.5052L23.0822 26.7611H18.4936L16.4252 20.8548ZM7.8563 17.3006H15.1912L11.5237 6.77738L7.8563 17.3006Z" fill="#F7F7F7"/>
<path d="M30.0521 26.7611H25.8284V0H30.0521V26.7611Z" fill="#F7F7F7"/>
<path d="M39.1598 26.7611H34.9362V0H39.1598V26.7611Z" fill="#F7F7F7"/>
<path d="M63.8759 26.7611C63.6905 26.401 63.5283 25.8144 63.3892 25.0014C62.0451 26.4068 60.3996 27.1095 58.4529 27.1095C56.5642 27.1095 55.0231 26.5694 53.8295 25.4892C52.636 24.409 52.0393 23.0733 52.0393 21.482C52.0393 19.4726 52.7809 17.9336 54.2641 16.865C55.7589 15.7848 57.8909 15.2447 60.6604 15.2447H63.2502V14.0077C63.2502 13.0321 62.9778 12.2539 62.4332 11.6731C61.8886 11.0808 61.0601 10.7846 59.9477 10.7846C58.986 10.7846 58.198 11.0285 57.5839 11.5163C56.9697 11.9925 56.6627 12.6023 56.6627 13.3457H52.439C52.439 12.3119 52.7809 11.3479 53.4645 10.4535C54.1482 9.54757 55.0752 8.83905 56.2455 8.32799C57.4275 7.81692 58.7426 7.56139 60.1911 7.56139C62.3927 7.56139 64.1482 8.11892 65.4576 9.23396C66.7669 10.3374 67.439 11.8938 67.4738 13.9032V22.4054C67.4738 24.1012 67.7113 25.4544 68.1864 26.4649V26.7611H63.8759ZM59.2351 23.7121C60.0694 23.7121 60.8515 23.5089 61.5816 23.1023C62.3232 22.6958 62.8794 22.1499 63.2502 21.4646V17.9104H60.9732C59.4089 17.9104 58.2328 18.1834 57.4448 18.7293C56.6569 19.2752 56.2629 20.0476 56.2629 21.0465C56.2629 21.8595 56.5294 22.51 57.0624 22.9978C57.6071 23.474 58.3313 23.7121 59.2351 23.7121Z" fill="#F7F7F7"/>
<path d="M76.3903 26.7611H72.1667V0H76.3903V26.7611Z" fill="#F7F7F7"/>
<path d="M89.2872 27.1095C86.6105 27.1095 84.4378 26.2674 82.7692 24.5832C81.1122 22.8874 80.2837 20.6341 80.2837 17.8233V17.3006C80.2837 15.419 80.6429 13.7406 81.3614 12.2655C82.0914 10.7788 83.1111 9.62306 84.4204 8.7984C85.7298 7.97373 87.1898 7.56139 88.8005 7.56139C91.3613 7.56139 93.337 8.38025 94.7275 10.018C96.1296 11.6557 96.8306 13.9729 96.8306 16.9696V18.677H84.5421C84.6696 20.2334 85.1852 21.4646 86.089 22.3706C87.0044 23.2765 88.1516 23.7295 89.5305 23.7295C91.4656 23.7295 93.0415 22.9455 94.2582 21.3775L96.5351 23.5553C95.7819 24.682 94.7738 25.5589 93.5108 26.1861C92.2594 26.8017 90.8515 27.1095 89.2872 27.1095ZM88.7831 10.9588C87.6244 10.9588 86.6858 11.3653 85.9674 12.1784C85.2605 12.9914 84.8086 14.1239 84.6116 15.5758H92.6591V15.2622C92.5664 13.8451 92.1898 12.7765 91.5294 12.0564C90.8689 11.3247 89.9535 10.9588 88.7831 10.9588Z" fill="#F7F7F7"/>
<path d="M109.971 11.7777C109.415 11.6847 108.841 11.6383 108.25 11.6383C106.315 11.6383 105.011 12.3816 104.339 13.8684V26.7611H100.116V7.90984H104.148L104.252 10.018C105.272 8.38025 106.686 7.56139 108.493 7.56139C109.096 7.56139 109.594 7.6427 109.988 7.80531L109.971 11.7777Z" fill="#F7F7F7"/>
<path d="M118.8 3.32771V7.90984H122.12V11.0459H118.8V21.5691C118.8 22.2893 118.939 22.8119 119.218 23.1372C119.507 23.4508 120.017 23.6076 120.747 23.6076C121.234 23.6076 121.726 23.5495 122.225 23.4334V26.7088C121.263 26.9759 120.336 27.1095 119.444 27.1095C116.199 27.1095 114.577 25.315 114.577 21.7259V11.0459H111.483V7.90984H114.577V3.32771H118.8Z" fill="#F7F7F7"/>
<path d="M135.904 21.6388C135.904 20.8839 135.591 20.3089 134.965 19.914C134.351 19.5191 133.325 19.1706 131.888 18.8686C130.452 18.5666 129.252 18.1834 128.291 17.7188C126.182 16.6966 125.127 15.2157 125.127 13.276C125.127 11.6499 125.811 10.2909 127.178 9.19911C128.545 8.1073 130.284 7.56139 132.393 7.56139C134.64 7.56139 136.454 8.11892 137.833 9.23396C139.223 10.349 139.919 11.7951 139.919 13.5722H135.695C135.695 12.7591 135.394 12.0855 134.791 11.5512C134.189 11.0053 133.389 10.7323 132.393 10.7323C131.466 10.7323 130.707 10.9472 130.116 11.3769C129.536 11.8067 129.247 12.3816 129.247 13.1018C129.247 13.7522 129.519 14.2575 130.063 14.6175C130.608 14.9776 131.709 15.3435 133.366 15.7152C135.023 16.0752 136.321 16.5108 137.259 17.0218C138.209 17.5213 138.91 18.1253 139.362 18.8338C139.826 19.5423 140.058 20.4018 140.058 21.4123C140.058 23.1081 139.357 24.4845 137.954 25.5415C136.552 26.5868 134.716 27.1095 132.445 27.1095C130.904 27.1095 129.53 26.8308 128.325 26.2732C127.12 25.7157 126.182 24.9491 125.51 23.9735C124.838 22.9978 124.501 21.9466 124.501 20.82H128.603C128.661 21.8189 129.038 22.5913 129.733 23.1372C130.428 23.6715 131.35 23.9386 132.497 23.9386C133.609 23.9386 134.455 23.7295 135.034 23.3114C135.614 22.8816 135.904 22.3241 135.904 21.6388Z" fill="#F7F7F7"/>
<path d="M163.852 26.7611C163.667 26.401 163.505 25.8144 163.366 25.0014C162.022 26.4068 160.376 27.1095 158.43 27.1095C156.541 27.1095 155 26.5694 153.806 25.4892C152.613 24.409 152.016 23.0733 152.016 21.482C152.016 19.4726 152.757 17.9336 154.241 16.865C155.735 15.7848 157.868 15.2447 160.637 15.2447H163.227V14.0077C163.227 13.0321 162.954 12.2539 162.41 11.6731C161.865 11.0808 161.037 10.7846 159.924 10.7846C158.963 10.7846 158.175 11.0285 157.56 11.5163C156.946 11.9925 156.639 12.6023 156.639 13.3457H152.416C152.416 12.3119 152.757 11.3479 153.441 10.4535C154.125 9.54757 155.052 8.83905 156.222 8.32799C157.404 7.81692 158.719 7.56139 160.168 7.56139C162.369 7.56139 164.125 8.11892 165.434 9.23396C166.744 10.3374 167.416 11.8938 167.45 13.9032V22.4054C167.45 24.1012 167.688 25.4544 168.163 26.4649V26.7611H163.852ZM159.212 23.7121C160.046 23.7121 160.828 23.5089 161.558 23.1023C162.3 22.6958 162.856 22.1499 163.227 21.4646V17.9104H160.95C159.386 17.9104 158.209 18.1834 157.421 18.7293C156.633 19.2752 156.24 20.0476 156.24 21.0465C156.24 21.8595 156.506 22.51 157.039 22.9978C157.584 23.474 158.308 23.7121 159.212 23.7121Z" fill="#F7F7F7"/>
<path d="M181.72 11.7777C181.164 11.6847 180.591 11.6383 180 11.6383C178.064 11.6383 176.761 12.3816 176.089 13.8684V26.7611H171.865V7.90984H175.898L176.002 10.018C177.022 8.38025 178.435 7.56139 180.243 7.56139C180.845 7.56139 181.344 7.6427 181.738 7.80531L181.72 11.7777Z" fill="#F7F7F7"/>
<path d="M192.323 27.1095C189.646 27.1095 187.474 26.2674 185.805 24.5832C184.148 22.8874 183.319 20.6341 183.319 17.8233V17.3006C183.319 15.419 183.679 13.7406 184.397 12.2655C185.127 10.7788 186.147 9.62306 187.456 8.7984C188.766 7.97373 190.226 7.56139 191.836 7.56139C194.397 7.56139 196.373 8.38025 197.763 10.018C199.165 11.6557 199.866 13.9729 199.866 16.9696V18.677H187.578C187.705 20.2334 188.221 21.4646 189.125 22.3706C190.04 23.2765 191.187 23.7295 192.566 23.7295C194.501 23.7295 196.077 22.9455 197.294 21.3775L199.571 23.5553C198.818 24.682 197.81 25.5589 196.546 26.1861C195.295 26.8017 193.887 27.1095 192.323 27.1095ZM191.819 10.9588C190.66 10.9588 189.721 11.3653 189.003 12.1784C188.296 12.9914 187.844 14.1239 187.647 15.5758H195.695V15.2622C195.602 13.8451 195.226 12.7765 194.565 12.0564C193.905 11.3247 192.989 10.9588 191.819 10.9588Z" fill="#F7F7F7"/>
<path d="M211.286 17.1961C211.286 14.2691 211.969 11.9345 213.337 10.1922C214.716 8.43833 216.541 7.56139 218.812 7.56139C220.955 7.56139 222.641 8.31056 223.87 9.8089L224.061 7.90984H227.867V26.1861C227.867 28.6601 227.097 30.6114 225.556 32.0401C224.026 33.4688 221.958 34.1831 219.351 34.1831C217.972 34.1831 216.622 33.8927 215.301 33.3119C213.991 32.7428 212.995 31.9936 212.311 31.0644L214.31 28.5207C215.608 30.0655 217.207 30.8379 219.107 30.8379C220.509 30.8379 221.616 30.4546 222.427 29.6881C223.238 28.9331 223.644 27.818 223.644 26.3429V25.0711C222.427 26.43 220.805 27.1095 218.777 27.1095C216.575 27.1095 214.774 26.2326 213.371 24.4787C211.981 22.7248 211.286 20.2973 211.286 17.1961ZM215.492 17.5619C215.492 19.4552 215.874 20.9477 216.639 22.0395C217.416 23.1197 218.487 23.6598 219.855 23.6598C221.558 23.6598 222.821 22.9281 223.644 21.4646V13.1715C222.844 11.7428 221.593 11.0285 219.889 11.0285C218.499 11.0285 217.416 11.5802 216.639 12.6836C215.874 13.7871 215.492 15.4132 215.492 17.5619Z" fill="#F7F7F7"/>
<path d="M240.504 27.1095C237.827 27.1095 235.654 26.2674 233.986 24.5832C232.329 22.8874 231.5 20.6341 231.5 17.8233V17.3006C231.5 15.419 231.859 13.7406 232.578 12.2655C233.308 10.7788 234.327 9.62306 235.637 8.7984C236.946 7.97373 238.406 7.56139 240.017 7.56139C242.578 7.56139 244.553 8.38025 245.944 10.018C247.346 11.6557 248.047 13.9729 248.047 16.9696V18.677H235.758C235.886 20.2334 236.402 21.4646 237.305 22.3706C238.221 23.2765 239.368 23.7295 240.747 23.7295C242.682 23.7295 244.258 22.9455 245.475 21.3775L247.751 23.5553C246.998 24.682 245.99 25.5589 244.727 26.1861C243.476 26.8017 242.068 27.1095 240.504 27.1095ZM239.999 10.9588C238.841 10.9588 237.902 11.3653 237.184 12.1784C236.477 12.9914 236.025 14.1239 235.828 15.5758H243.875V15.2622C243.783 13.8451 243.406 12.7765 242.746 12.0564C242.085 11.3247 241.17 10.9588 239.999 10.9588Z" fill="#F7F7F7"/>
<path d="M255.26 7.90984L255.382 10.0877C256.772 8.40348 258.597 7.56139 260.857 7.56139C264.773 7.56139 266.767 9.8089 266.836 14.3039V26.7611H262.612V14.5478C262.612 13.3515 262.352 12.4688 261.83 11.8996C261.32 11.3189 260.48 11.0285 259.31 11.0285C257.607 11.0285 256.338 11.8009 255.503 13.3457V26.7611H251.28V7.90984H255.26Z" fill="#F7F7F7"/>
<path d="M279.437 27.1095C276.761 27.1095 274.588 26.2674 272.919 24.5832C271.262 22.8874 270.434 20.6341 270.434 17.8233V17.3006C270.434 15.419 270.793 13.7406 271.512 12.2655C272.242 10.7788 273.261 9.62306 274.571 8.7984C275.88 7.97373 277.34 7.56139 278.951 7.56139C281.512 7.56139 283.487 8.38025 284.878 10.018C286.28 11.6557 286.981 13.9729 286.981 16.9696V18.677H274.692C274.82 20.2334 275.335 21.4646 276.239 22.3706C277.155 23.2765 278.302 23.7295 279.681 23.7295C281.616 23.7295 283.192 22.9455 284.408 21.3775L286.685 23.5553C285.932 24.682 284.924 25.5589 283.661 26.1861C282.41 26.8017 281.002 27.1095 279.437 27.1095ZM278.933 10.9588C277.775 10.9588 276.836 11.3653 276.118 12.1784C275.411 12.9914 274.959 14.1239 274.762 15.5758H282.809V15.2622C282.717 13.8451 282.34 12.7765 281.68 12.0564C281.019 11.3247 280.104 10.9588 278.933 10.9588Z" fill="#F7F7F7"/>
<path d="M300.121 11.7777C299.565 11.6847 298.991 11.6383 298.4 11.6383C296.465 11.6383 295.162 12.3816 294.49 13.8684V26.7611H290.266V7.90984H294.298L294.403 10.018C295.422 8.38025 296.836 7.56139 298.644 7.56139C299.246 7.56139 299.744 7.6427 300.138 7.80531L300.121 11.7777Z" fill="#F7F7F7"/>
<path d="M313.505 26.7611C313.319 26.401 313.157 25.8144 313.018 25.0014C311.674 26.4068 310.028 27.1095 308.082 27.1095C306.193 27.1095 304.652 26.5694 303.458 25.4892C302.265 24.409 301.668 23.0733 301.668 21.482C301.668 19.4726 302.41 17.9336 303.893 16.865C305.388 15.7848 307.52 15.2447 310.289 15.2447H312.879V14.0077C312.879 13.0321 312.607 12.2539 312.062 11.6731C311.517 11.0808 310.689 10.7846 309.576 10.7846C308.615 10.7846 307.827 11.0285 307.213 11.5163C306.598 11.9925 306.291 12.6023 306.291 13.3457H302.068C302.068 12.3119 302.41 11.3479 303.093 10.4535C303.777 9.54757 304.704 8.83905 305.874 8.32799C307.056 7.81692 308.371 7.56139 309.82 7.56139C312.021 7.56139 313.777 8.11892 315.086 9.23396C316.396 10.3374 317.068 11.8938 317.102 13.9032V22.4054C317.102 24.1012 317.34 25.4544 317.815 26.4649V26.7611H313.505ZM308.864 23.7121C309.698 23.7121 310.48 23.5089 311.21 23.1023C311.952 22.6958 312.508 22.1499 312.879 21.4646V17.9104H310.602C309.038 17.9104 307.861 18.1834 307.073 18.7293C306.286 19.2752 305.892 20.0476 305.892 21.0465C305.892 21.8595 306.158 22.51 306.691 22.9978C307.236 23.474 307.96 23.7121 308.864 23.7121Z" fill="#F7F7F7"/>
<path d="M326.819 3.32771V7.90984H330.138V11.0459H326.819V21.5691C326.819 22.2893 326.958 22.8119 327.236 23.1372C327.525 23.4508 328.035 23.6076 328.765 23.6076C329.252 23.6076 329.744 23.5495 330.243 23.4334V26.7088C329.281 26.9759 328.354 27.1095 327.462 27.1095C324.217 27.1095 322.595 25.315 322.595 21.7259V11.0459H319.501V7.90984H322.595V3.32771H326.819Z" fill="#F7F7F7"/>
<path d="M341.662 27.1095C338.985 27.1095 336.813 26.2674 335.144 24.5832C333.487 22.8874 332.659 20.6341 332.659 17.8233V17.3006C332.659 15.419 333.018 13.7406 333.736 12.2655C334.466 10.7788 335.486 9.62306 336.795 8.7984C338.105 7.97373 339.565 7.56139 341.175 7.56139C343.736 7.56139 345.712 8.38025 347.102 10.018C348.504 11.6557 349.205 13.9729 349.205 16.9696V18.677H336.917C337.044 20.2334 337.56 21.4646 338.464 22.3706C339.379 23.2765 340.526 23.7295 341.905 23.7295C343.84 23.7295 345.416 22.9455 346.633 21.3775L348.91 23.5553C348.157 24.682 347.149 25.5589 345.886 26.1861C344.634 26.8017 343.226 27.1095 341.662 27.1095ZM341.158 10.9588C339.999 10.9588 339.061 11.3653 338.342 12.1784C337.635 12.9914 337.184 14.1239 336.987 15.5758H345.034V15.2622C344.941 13.8451 344.565 12.7765 343.904 12.0564C343.244 11.3247 342.328 10.9588 341.158 10.9588Z" fill="#F7F7F7"/>
<path d="M351.708 17.1961C351.708 14.2923 352.38 11.9635 353.725 10.2096C355.069 8.44414 356.871 7.56139 359.13 7.56139C361.123 7.56139 362.734 8.2583 363.962 9.6521V0H368.186V26.7611H364.362L364.153 24.8097C362.89 26.3429 361.204 27.1095 359.095 27.1095C356.894 27.1095 355.109 26.221 353.742 24.4439C352.386 22.6668 351.708 20.2508 351.708 17.1961ZM355.932 17.5619C355.932 19.4784 356.297 20.9768 357.027 22.057C357.769 23.1256 358.817 23.6598 360.173 23.6598C361.9 23.6598 363.163 22.8874 363.962 21.3426V13.2934C363.186 11.7835 361.934 11.0285 360.208 11.0285C358.84 11.0285 357.786 11.5744 357.044 12.6662C356.303 13.7464 355.932 15.3783 355.932 17.5619Z" fill="#F7F7F7"/>
<path d="M397.96 17.5271C397.96 20.4541 397.305 22.7829 395.996 24.5136C394.698 26.2442 392.908 27.1095 390.625 27.1095C388.423 27.1095 386.708 26.3139 385.48 24.7226L385.271 26.7611H381.448V0H385.671V9.72179C386.888 8.28153 388.528 7.56139 390.59 7.56139C392.884 7.56139 394.686 8.4151 395.996 10.1225C397.305 11.8299 397.96 14.2168 397.96 17.2832V17.5271ZM393.736 17.1612C393.736 15.117 393.377 13.5838 392.658 12.5617C391.94 11.5395 390.897 11.0285 389.53 11.0285C387.699 11.0285 386.413 11.8299 385.671 13.4328V21.2033C386.424 22.841 387.722 23.6598 389.565 23.6598C390.886 23.6598 391.905 23.1662 392.624 22.1789C393.342 21.1916 393.713 19.6991 393.736 17.7013V17.1612Z" fill="#F7F7F7"/>
<path d="M412.751 26.7611C412.566 26.401 412.404 25.8144 412.264 25.0014C410.92 26.4068 409.275 27.1095 407.328 27.1095C405.439 27.1095 403.898 26.5694 402.705 25.4892C401.511 24.409 400.915 23.0733 400.915 21.482C400.915 19.4726 401.656 17.9336 403.139 16.865C404.634 15.7848 406.766 15.2447 409.536 15.2447H412.125V14.0077C412.125 13.0321 411.853 12.2539 411.308 11.6731C410.764 11.0808 409.935 10.7846 408.823 10.7846C407.861 10.7846 407.073 11.0285 406.459 11.5163C405.845 11.9925 405.538 12.6023 405.538 13.3457H401.314C401.314 12.3119 401.656 11.3479 402.34 10.4535C403.023 9.54757 403.95 8.83905 405.121 8.32799C406.303 7.81692 407.618 7.56139 409.066 7.56139C411.268 7.56139 413.023 8.11892 414.333 9.23396C415.642 10.3374 416.314 11.8938 416.349 13.9032V22.4054C416.349 24.1012 416.587 25.4544 417.062 26.4649V26.7611H412.751ZM408.11 23.7121C408.945 23.7121 409.727 23.5089 410.457 23.1023C411.198 22.6958 411.755 22.1499 412.125 21.4646V17.9104H409.848C408.284 17.9104 407.108 18.1834 406.32 18.7293C405.532 19.2752 405.138 20.0476 405.138 21.0465C405.138 21.8595 405.405 22.51 405.938 22.9978C406.482 23.474 407.207 23.7121 408.11 23.7121Z" fill="#F7F7F7"/>
<path d="M431.314 21.6388C431.314 20.8839 431.001 20.3089 430.376 19.914C429.762 19.5191 428.736 19.1706 427.299 18.8686C425.862 18.5666 424.663 18.1834 423.701 17.7188C421.592 16.6966 420.538 15.2157 420.538 13.276C420.538 11.6499 421.222 10.2909 422.589 9.19911C423.956 8.1073 425.694 7.56139 427.803 7.56139C430.051 7.56139 431.865 8.11892 433.244 9.23396C434.634 10.349 435.329 11.7951 435.329 13.5722H431.106C431.106 12.7591 430.804 12.0855 430.202 11.5512C429.599 11.0053 428.8 10.7323 427.803 10.7323C426.876 10.7323 426.117 10.9472 425.526 11.3769C424.947 11.8067 424.657 12.3816 424.657 13.1018C424.657 13.7522 424.93 14.2575 425.474 14.6175C426.019 14.9776 427.12 15.3435 428.777 15.7152C430.434 16.0752 431.731 16.5108 432.67 17.0218C433.62 17.5213 434.321 18.1253 434.773 18.8338C435.237 19.5423 435.468 20.4018 435.468 21.4123C435.468 23.1081 434.767 24.4845 433.365 25.5415C431.963 26.5868 430.127 27.1095 427.855 27.1095C426.314 27.1095 424.941 26.8308 423.736 26.2732C422.531 25.7157 421.592 24.9491 420.92 23.9735C420.248 22.9978 419.912 21.9466 419.912 20.82H424.014C424.072 21.8189 424.449 22.5913 425.144 23.1372C425.839 23.6715 426.76 23.9386 427.908 23.9386C429.02 23.9386 429.866 23.7295 430.445 23.3114C431.025 22.8816 431.314 22.3241 431.314 21.6388Z" fill="#F7F7F7"/>
<path d="M447.444 27.1095C444.767 27.1095 442.595 26.2674 440.926 24.5832C439.269 22.8874 438.441 20.6341 438.441 17.8233V17.3006C438.441 15.419 438.8 13.7406 439.518 12.2655C440.248 10.7788 441.268 9.62306 442.577 8.7984C443.887 7.97373 445.347 7.56139 446.957 7.56139C449.518 7.56139 451.494 8.38025 452.884 10.018C454.286 11.6557 454.987 13.9729 454.987 16.9696V18.677H442.699C442.826 20.2334 443.342 21.4646 444.246 22.3706C445.161 23.2765 446.308 23.7295 447.687 23.7295C449.622 23.7295 451.198 22.9455 452.415 21.3775L454.692 23.5553C453.939 24.682 452.931 25.5589 451.668 26.1861C450.416 26.8017 449.008 27.1095 447.444 27.1095ZM446.94 10.9588C445.781 10.9588 444.843 11.3653 444.124 12.1784C443.417 12.9914 442.965 14.1239 442.768 15.5758H450.816V15.2622C450.723 13.8451 450.347 12.7765 449.686 12.0564C449.026 11.3247 448.11 10.9588 446.94 10.9588Z" fill="#F7F7F7"/>
<path d="M457.49 17.1961C457.49 14.2923 458.162 11.9635 459.507 10.2096C460.851 8.44414 462.653 7.56139 464.912 7.56139C466.905 7.56139 468.516 8.2583 469.744 9.6521V0H473.968V26.7611H470.144L469.935 24.8097C468.672 26.3429 466.986 27.1095 464.877 27.1095C462.676 27.1095 460.891 26.221 459.524 24.4439C458.168 22.6668 457.49 20.2508 457.49 17.1961ZM461.714 17.5619C461.714 19.4784 462.079 20.9768 462.809 22.057C463.551 23.1256 464.599 23.6598 465.955 23.6598C467.681 23.6598 468.945 22.8874 469.744 21.3426V13.2934C468.968 11.7835 467.716 11.0285 465.99 11.0285C464.622 11.0285 463.568 11.5744 462.826 12.6662C462.085 13.7464 461.714 15.3783 461.714 17.5619Z" fill="#F7F7F7"/>
<path d="M486.447 17.1612C486.447 15.3144 486.812 13.6535 487.542 12.1784C488.272 10.6916 489.298 9.55337 490.619 8.76355C491.94 7.96211 493.458 7.56139 495.173 7.56139C497.71 7.56139 499.767 8.38025 501.343 10.018C502.931 11.6557 503.788 13.8277 503.915 16.534L503.933 17.5271C503.933 19.3855 503.574 21.0465 502.855 22.51C502.148 23.9735 501.129 25.1059 499.796 25.9074C498.475 26.7088 496.946 27.1095 495.207 27.1095C492.554 27.1095 490.428 26.2268 488.829 24.4613C487.241 22.6842 486.447 20.3205 486.447 17.3703V17.1612ZM490.671 17.5271C490.671 19.4668 491.071 20.9884 491.87 22.0918C492.67 23.1836 493.782 23.7295 495.207 23.7295C496.633 23.7295 497.739 23.172 498.527 22.057C499.327 20.9419 499.727 19.31 499.727 17.1612C499.727 15.2564 499.315 13.7464 498.493 12.6314C497.681 11.5163 496.575 10.9588 495.173 10.9588C493.794 10.9588 492.699 11.5105 491.888 12.6139C491.077 13.7058 490.671 15.3435 490.671 17.5271Z" fill="#F7F7F7"/>
<path d="M511.424 7.90984L511.546 10.0877C512.936 8.40348 514.761 7.56139 517.021 7.56139C520.937 7.56139 522.93 9.8089 523 14.3039V26.7611H518.776V14.5478C518.776 13.3515 518.516 12.4688 517.994 11.8996C517.484 11.3189 516.644 11.0285 515.474 11.0285C513.771 11.0285 512.502 11.8009 511.667 13.3457V26.7611H507.444V7.90984H511.424Z" fill="#F7F7F7"/>
<path d="M74.1288 133.48L78.0222 114.385H82.3849L76.5448 139.752H72.3386L67.524 121.232L62.6051 139.752H58.3815L52.5414 114.385H56.9041L60.8322 133.445L65.6642 114.385H69.349L74.1288 133.48Z" fill="#F7F7F7"/>
<path d="M92.9179 140.101C90.2412 140.101 88.0686 139.259 86.4 137.574C84.743 135.879 83.9145 133.625 83.9145 130.814V130.292C83.9145 128.41 84.2737 126.732 84.9921 125.257C85.7221 123.77 86.7418 122.614 88.0512 121.79C89.3606 120.965 90.8206 120.553 92.4312 120.553C94.9921 120.553 96.9677 121.371 98.3582 123.009C99.7603 124.647 100.461 126.964 100.461 129.961V131.668H88.1728C88.3003 133.225 88.8159 134.456 89.7198 135.362C90.6352 136.268 91.7823 136.721 93.1612 136.721C95.0964 136.721 96.6722 135.937 97.8889 134.369L100.166 136.546C99.4127 137.673 98.4046 138.55 97.1415 139.177C95.8901 139.793 94.4822 140.101 92.9179 140.101ZM92.4139 123.95C91.2551 123.95 90.3165 124.356 89.5981 125.17C88.8913 125.983 88.4394 127.115 88.2424 128.567H96.2899V128.253C96.1972 126.836 95.8206 125.768 95.1601 125.048C94.4996 124.316 93.5842 123.95 92.4139 123.95Z" fill="#F7F7F7"/>
<path d="M114.992 139.752C114.807 139.392 114.644 138.806 114.505 137.993C113.161 139.398 111.516 140.101 109.569 140.101C107.68 140.101 106.139 139.561 104.946 138.48C103.752 137.4 103.155 136.064 103.155 134.473C103.155 132.464 103.897 130.925 105.38 129.856C106.875 128.776 109.007 128.236 111.777 128.236H114.366V126.999C114.366 126.023 114.094 125.245 113.549 124.664C113.005 124.072 112.176 123.776 111.064 123.776C110.102 123.776 109.314 124.02 108.7 124.507C108.086 124.984 107.779 125.593 107.779 126.337H103.555C103.555 125.303 103.897 124.339 104.581 123.445C105.264 122.539 106.191 121.83 107.362 121.319C108.544 120.808 109.859 120.553 111.307 120.553C113.509 120.553 115.264 121.11 116.574 122.225C117.883 123.329 118.555 124.885 118.59 126.894V135.397C118.59 137.092 118.827 138.446 119.303 139.456V139.752H114.992ZM110.351 136.703C111.186 136.703 111.968 136.5 112.698 136.093C113.439 135.687 113.995 135.141 114.366 134.456V130.902H112.089C110.525 130.902 109.349 131.174 108.561 131.72C107.773 132.266 107.379 133.039 107.379 134.038C107.379 134.851 107.646 135.501 108.179 135.989C108.723 136.465 109.447 136.703 110.351 136.703Z" fill="#F7F7F7"/>
<path d="M128.306 116.319V120.901H131.626V124.037H128.306V134.56C128.306 135.28 128.445 135.803 128.723 136.128C129.013 136.442 129.523 136.599 130.253 136.599C130.739 136.599 131.232 136.541 131.73 136.424V139.7C130.768 139.967 129.841 140.101 128.949 140.101C125.705 140.101 124.082 138.306 124.082 134.717V124.037H120.989V120.901H124.082V116.319H128.306Z" fill="#F7F7F7"/>
<path d="M139.03 122.957C140.409 121.354 142.153 120.553 144.262 120.553C148.271 120.553 150.305 122.847 150.363 127.434V139.752H146.139V127.591C146.139 126.29 145.855 125.373 145.287 124.838C144.731 124.293 143.909 124.02 142.819 124.02C141.128 124.02 139.865 124.775 139.03 126.285V139.752H134.807V112.991H139.03V122.957Z" fill="#F7F7F7"/>
<path d="M162.929 140.101C160.253 140.101 158.08 139.259 156.411 137.574C154.754 135.879 153.926 133.625 153.926 130.814V130.292C153.926 128.41 154.285 126.732 155.004 125.257C155.734 123.77 156.753 122.614 158.063 121.79C159.372 120.965 160.832 120.553 162.443 120.553C165.003 120.553 166.979 121.371 168.37 123.009C169.772 124.647 170.473 126.964 170.473 129.961V131.668H158.184C158.312 133.225 158.827 134.456 159.731 135.362C160.647 136.268 161.794 136.721 163.173 136.721C165.108 136.721 166.684 135.937 167.9 134.369L170.177 136.546C169.424 137.673 168.416 138.55 167.153 139.177C165.902 139.793 164.494 140.101 162.929 140.101ZM162.425 123.95C161.267 123.95 160.328 124.356 159.61 125.17C158.903 125.983 158.451 127.115 158.254 128.567H166.301V128.253C166.209 126.836 165.832 125.768 165.172 125.048C164.511 124.316 163.596 123.95 162.425 123.95Z" fill="#F7F7F7"/>
<path d="M183.613 124.769C183.057 124.676 182.483 124.629 181.892 124.629C179.957 124.629 178.654 125.373 177.981 126.86V139.752H173.758V120.901H177.79L177.895 123.009C178.914 121.371 180.328 120.553 182.136 120.553C182.738 120.553 183.236 120.634 183.63 120.796L183.613 124.769Z" fill="#F7F7F7"/>
<path d="M196.631 139.752V124.037H193.764V120.901H196.631V119.176C196.631 117.085 197.211 115.471 198.37 114.333C199.528 113.194 201.151 112.625 203.236 112.625C203.978 112.625 204.766 112.73 205.6 112.939L205.496 116.249C205.032 116.156 204.494 116.11 203.879 116.11C201.863 116.11 200.855 117.149 200.855 119.228V120.901H204.679V124.037H200.855V139.752H196.631Z" fill="#F7F7F7"/>
<path d="M206.973 130.152C206.973 128.306 207.338 126.645 208.068 125.17C208.798 123.683 209.824 122.545 211.145 121.755C212.466 120.953 213.984 120.553 215.699 120.553C218.236 120.553 220.293 121.371 221.869 123.009C223.456 124.647 224.314 126.819 224.441 129.525L224.459 130.518C224.459 132.377 224.1 134.038 223.381 135.501C222.674 136.965 221.655 138.097 220.322 138.898C219.001 139.7 217.472 140.101 215.733 140.101C213.08 140.101 210.954 139.218 209.355 137.452C207.767 135.675 206.973 133.312 206.973 130.361V130.152ZM211.197 130.518C211.197 132.458 211.597 133.98 212.396 135.083C213.196 136.175 214.308 136.721 215.733 136.721C217.159 136.721 218.265 136.163 219.053 135.048C219.853 133.933 220.253 132.301 220.253 130.152C220.253 128.248 219.841 126.738 219.018 125.623C218.207 124.507 217.101 123.95 215.699 123.95C214.32 123.95 213.225 124.502 212.414 125.605C211.602 126.697 211.197 128.335 211.197 130.518Z" fill="#F7F7F7"/>
<path d="M237.877 124.769C237.321 124.676 236.747 124.629 236.156 124.629C234.221 124.629 232.918 125.373 232.246 126.86V139.752H228.022V120.901H232.054L232.159 123.009C233.178 121.371 234.592 120.553 236.4 120.553C237.002 120.553 237.5 120.634 237.894 120.796L237.877 124.769Z" fill="#F7F7F7"/>
<path d="M248.48 140.101C245.803 140.101 243.63 139.259 241.962 137.574C240.305 135.879 239.476 133.625 239.476 130.814V130.292C239.476 128.41 239.835 126.732 240.554 125.257C241.284 123.77 242.303 122.614 243.613 121.79C244.922 120.965 246.382 120.553 247.993 120.553C250.554 120.553 252.529 121.371 253.92 123.009C255.322 124.647 256.023 126.964 256.023 129.961V131.668H243.734C243.862 133.225 244.378 134.456 245.281 135.362C246.197 136.268 247.344 136.721 248.723 136.721C250.658 136.721 252.234 135.937 253.451 134.369L255.728 136.546C254.974 137.673 253.966 138.55 252.703 139.177C251.452 139.793 250.044 140.101 248.48 140.101ZM247.976 123.95C246.817 123.95 245.878 124.356 245.16 125.17C244.453 125.983 244.001 127.115 243.804 128.567H251.852V128.253C251.759 126.836 251.382 125.768 250.722 125.048C250.061 124.316 249.146 123.95 247.976 123.95Z" fill="#F7F7F7"/>
<path d="M267.043 136.721C268.097 136.721 268.972 136.413 269.667 135.797C270.362 135.182 270.733 134.421 270.78 133.515H274.76C274.714 134.688 274.349 135.786 273.665 136.808C272.981 137.818 272.054 138.62 270.884 139.212C269.714 139.804 268.451 140.101 267.095 140.101C264.464 140.101 262.379 139.247 260.838 137.54C259.296 135.832 258.526 133.474 258.526 130.466V130.03C258.526 127.162 259.291 124.868 260.82 123.149C262.35 121.418 264.435 120.553 267.077 120.553C269.314 120.553 271.133 121.209 272.535 122.521C273.949 123.822 274.69 125.535 274.76 127.661H270.78C270.733 126.581 270.362 125.692 269.667 124.995C268.984 124.298 268.109 123.95 267.043 123.95C265.675 123.95 264.621 124.449 263.879 125.448C263.138 126.436 262.761 127.94 262.75 129.961V130.64C262.75 132.684 263.115 134.212 263.845 135.222C264.586 136.221 265.652 136.721 267.043 136.721Z" fill="#F7F7F7"/>
<path d="M289.186 139.752C289.001 139.392 288.839 138.806 288.7 137.993C287.355 139.398 285.71 140.101 283.763 140.101C281.875 140.101 280.333 139.561 279.14 138.48C277.946 137.4 277.35 136.064 277.35 134.473C277.35 132.464 278.091 130.925 279.575 129.856C281.069 128.776 283.201 128.236 285.971 128.236H288.561V126.999C288.561 126.023 288.288 125.245 287.744 124.664C287.199 124.072 286.371 123.776 285.258 123.776C284.296 123.776 283.508 124.02 282.894 124.507C282.28 124.984 281.973 125.593 281.973 126.337H277.749C277.749 125.303 278.091 124.339 278.775 123.445C279.459 122.539 280.386 121.83 281.556 121.319C282.738 120.808 284.053 120.553 285.501 120.553C287.703 120.553 289.459 121.11 290.768 122.225C292.077 123.329 292.749 124.885 292.784 126.894V135.397C292.784 137.092 293.022 138.446 293.497 139.456V139.752H289.186ZM284.546 136.703C285.38 136.703 286.162 136.5 286.892 136.093C287.634 135.687 288.19 135.141 288.561 134.456V130.902H286.284C284.719 130.902 283.543 131.174 282.755 131.72C281.967 132.266 281.573 133.039 281.573 134.038C281.573 134.851 281.84 135.501 282.373 135.989C282.917 136.465 283.642 136.703 284.546 136.703Z" fill="#F7F7F7"/>
<path d="M307.749 134.63C307.749 133.875 307.437 133.3 306.811 132.905C306.197 132.51 305.171 132.162 303.734 131.86C302.298 131.558 301.098 131.174 300.136 130.71C298.028 129.688 296.973 128.207 296.973 126.267C296.973 124.641 297.657 123.282 299.024 122.19C300.391 121.098 302.13 120.553 304.238 120.553C306.486 120.553 308.3 121.11 309.679 122.225C311.069 123.34 311.764 124.786 311.764 126.563H307.541C307.541 125.75 307.24 125.077 306.637 124.542C306.034 123.996 305.235 123.723 304.238 123.723C303.311 123.723 302.552 123.938 301.961 124.368C301.382 124.798 301.092 125.373 301.092 126.093C301.092 126.743 301.365 127.249 301.909 127.609C302.454 127.969 303.555 128.335 305.212 128.706C306.869 129.066 308.167 129.502 309.105 130.013C310.055 130.512 310.756 131.116 311.208 131.825C311.672 132.533 311.904 133.393 311.904 134.403C311.904 136.099 311.202 137.476 309.8 138.533C308.398 139.578 306.562 140.101 304.291 140.101C302.749 140.101 301.376 139.822 300.171 139.264C298.966 138.707 298.028 137.94 297.355 136.965C296.683 135.989 296.347 134.938 296.347 133.811H300.449C300.507 134.81 300.884 135.582 301.579 136.128C302.274 136.663 303.196 136.93 304.343 136.93C305.455 136.93 306.301 136.721 306.88 136.303C307.46 135.873 307.749 135.315 307.749 134.63Z" fill="#F7F7F7"/>
<path d="M320.89 116.319V120.901H324.209V124.037H320.89V134.56C320.89 135.28 321.029 135.803 321.307 136.128C321.596 136.442 322.106 136.599 322.836 136.599C323.323 136.599 323.815 136.541 324.314 136.424V139.7C323.352 139.967 322.425 140.101 321.533 140.101C318.288 140.101 316.666 138.306 316.666 134.717V124.037H313.572V120.901H316.666V116.319H320.89Z" fill="#F7F7F7"/>
<path d="M352.784 130.518C352.784 133.434 352.124 135.762 350.803 137.505C349.482 139.235 347.709 140.101 345.484 140.101C343.421 140.101 341.77 139.421 340.53 138.062V147H336.307V120.901H340.2L340.374 122.817C341.614 121.308 343.3 120.553 345.432 120.553C347.726 120.553 349.522 121.412 350.82 123.131C352.129 124.838 352.784 127.214 352.784 130.257V130.518ZM348.578 130.152C348.578 128.271 348.201 126.778 347.448 125.675C346.706 124.571 345.64 124.02 344.25 124.02C342.523 124.02 341.284 124.734 340.53 126.163V134.525C341.295 135.989 342.547 136.721 344.285 136.721C345.629 136.721 346.677 136.181 347.431 135.1C348.195 134.009 348.578 132.359 348.578 130.152Z" fill="#F7F7F7"/>
<path d="M366.22 124.769C365.664 124.676 365.09 124.629 364.499 124.629C362.564 124.629 361.26 125.373 360.588 126.86V139.752H356.365V120.901H360.397L360.501 123.009C361.521 121.371 362.935 120.553 364.742 120.553C365.345 120.553 365.843 120.634 366.237 120.796L366.22 124.769Z" fill="#F7F7F7"/>
<path d="M367.471 130.152C367.471 128.306 367.836 126.645 368.566 125.17C369.296 123.683 370.322 122.545 371.643 121.755C372.964 120.953 374.482 120.553 376.197 120.553C378.734 120.553 380.791 121.371 382.367 123.009C383.954 124.647 384.812 126.819 384.939 129.525L384.957 130.518C384.957 132.377 384.597 134.038 383.879 135.501C383.172 136.965 382.152 138.097 380.82 138.898C379.499 139.7 377.969 140.101 376.231 140.101C373.578 140.101 371.451 139.218 369.852 137.452C368.265 135.675 367.471 133.312 367.471 130.361V130.152ZM371.695 130.518C371.695 132.458 372.095 133.98 372.894 135.083C373.694 136.175 374.806 136.721 376.231 136.721C377.657 136.721 378.763 136.163 379.551 135.048C380.351 133.933 380.75 132.301 380.75 130.152C380.75 128.248 380.339 126.738 379.516 125.623C378.705 124.507 377.599 123.95 376.197 123.95C374.818 123.95 373.723 124.502 372.911 125.605C372.1 126.697 371.695 128.335 371.695 130.518Z" fill="#F7F7F7"/>
<path d="M387.738 130.187C387.738 127.283 388.41 124.955 389.754 123.201C391.098 121.435 392.9 120.553 395.159 120.553C397.152 120.553 398.763 121.249 399.991 122.643V112.991H404.215V139.752H400.391L400.183 137.801C398.92 139.334 397.234 140.101 395.125 140.101C392.923 140.101 391.139 139.212 389.771 137.435C388.416 135.658 387.738 133.242 387.738 130.187ZM391.961 130.553C391.961 132.47 392.326 133.968 393.056 135.048C393.798 136.117 394.847 136.651 396.202 136.651C397.929 136.651 399.192 135.879 399.991 134.334V126.285C399.215 124.775 397.964 124.02 396.237 124.02C394.87 124.02 393.815 124.566 393.074 125.657C392.332 126.738 391.961 128.369 391.961 130.553Z" fill="#F7F7F7"/>
<path d="M420.015 137.905C418.775 139.369 417.013 140.101 414.731 140.101C412.691 140.101 411.144 139.502 410.09 138.306C409.047 137.11 408.526 135.379 408.526 133.114V120.901H412.749V133.062C412.749 135.455 413.74 136.651 415.721 136.651C417.772 136.651 419.157 135.913 419.875 134.438V120.901H424.099V139.752H420.119L420.015 137.905Z" fill="#F7F7F7"/>
<path d="M436.127 136.721C437.181 136.721 438.056 136.413 438.751 135.797C439.447 135.182 439.818 134.421 439.864 133.515H443.844C443.798 134.688 443.433 135.786 442.749 136.808C442.065 137.818 441.138 138.62 439.968 139.212C438.798 139.804 437.535 140.101 436.179 140.101C433.549 140.101 431.463 139.247 429.922 137.54C428.381 135.832 427.61 133.474 427.61 130.466V130.03C427.61 127.162 428.375 124.868 429.904 123.149C431.434 121.418 433.52 120.553 436.162 120.553C438.398 120.553 440.217 121.209 441.619 122.521C443.033 123.822 443.775 125.535 443.844 127.661H439.864C439.818 126.581 439.447 125.692 438.751 124.995C438.068 124.298 437.193 123.95 436.127 123.95C434.76 123.95 433.705 124.449 432.964 125.448C432.222 126.436 431.845 127.94 431.834 129.961V130.64C431.834 132.684 432.199 134.212 432.929 135.222C433.67 136.221 434.736 136.721 436.127 136.721Z" fill="#F7F7F7"/>
<path d="M452.326 116.319V120.901H455.646V124.037H452.326V134.56C452.326 135.28 452.465 135.803 452.743 136.128C453.033 136.442 453.543 136.599 454.273 136.599C454.76 136.599 455.252 136.541 455.75 136.424V139.7C454.788 139.967 453.862 140.101 452.969 140.101C449.725 140.101 448.103 138.306 448.103 134.717V124.037H445.009V120.901H448.103V116.319H452.326Z" fill="#F7F7F7"/>
<path d="M469.429 134.63C469.429 133.875 469.116 133.3 468.491 132.905C467.877 132.51 466.851 132.162 465.414 131.86C463.977 131.558 462.778 131.174 461.816 130.71C459.707 129.688 458.653 128.207 458.653 126.267C458.653 124.641 459.337 123.282 460.704 122.19C462.071 121.098 463.809 120.553 465.918 120.553C468.166 120.553 469.98 121.11 471.359 122.225C472.749 123.34 473.444 124.786 473.444 126.563H469.221C469.221 125.75 468.919 125.077 468.317 124.542C467.714 123.996 466.915 123.723 465.918 123.723C464.991 123.723 464.232 123.938 463.641 124.368C463.062 124.798 462.772 125.373 462.772 126.093C462.772 126.743 463.045 127.249 463.589 127.609C464.134 127.969 465.235 128.335 466.892 128.706C468.549 129.066 469.846 129.502 470.785 130.013C471.735 130.512 472.436 131.116 472.888 131.825C473.352 132.533 473.583 133.393 473.583 134.403C473.583 136.099 472.882 137.476 471.48 138.533C470.078 139.578 468.242 140.101 465.97 140.101C464.429 140.101 463.056 139.822 461.851 139.264C460.646 138.707 459.707 137.94 459.035 136.965C458.363 135.989 458.027 134.938 458.027 133.811H462.129C462.187 134.81 462.564 135.582 463.259 136.128C463.954 136.663 464.875 136.93 466.023 136.93C467.135 136.93 467.981 136.721 468.56 136.303C469.14 135.873 469.429 135.315 469.429 134.63Z" fill="#F7F7F7"/>
</svg>
