<svg width="183" height="61" viewBox="0 0 183 61" fill="none" xmlns="http://www.w3.org/2000/svg">
<path d="M60.5032 60.9781H61.6699C61.8643 59.1243 62.0199 55.4167 61.0866 55.4167C60.6084 55.4167 60.7374 55.9589 60.9278 56.7595C61.2019 57.9124 60.9278 59.5001 60.5032 60.9781Z" fill="#9C66FF"/>
<path d="M39.4033 60.9781C36.6033 56.7781 42.9033 48.1448 46.4033 45.2281C42.4763 43.9577 29.3722 44.3334 13.0389 47.8334C10.7056 61.8334 28.7889 60.9781 39.4033 60.9781Z" fill="#BD99FF"/>
<path d="M65.5389 60.9781C68.3389 56.7781 64.9556 47.2501 58.5389 45.2281C53.8722 41.4948 48.5041 43.6726 46.4033 45.2281C42.9033 48.1448 36.6033 56.7781 39.4033 60.9781H43.3722C43.1778 59.1243 43.0222 55.4167 43.9556 55.4167C44.4337 55.4167 44.3048 55.9589 44.1144 56.7595C43.8402 57.9124 43.4386 59.601 44.5389 60.9781H52.82H60.5032C60.9278 59.5001 61.2019 57.9124 60.9278 56.7595C60.7374 55.9589 60.6084 55.4167 61.0866 55.4167C62.0199 55.4167 61.8643 59.1243 61.6699 60.9781H65.5389Z" fill="#BD99FF"/>
<path d="M43.3722 60.9781H44.5389C43.4386 59.601 43.8402 57.9124 44.1144 56.7595C44.3048 55.9589 44.4337 55.4167 43.9556 55.4167C43.0222 55.4167 43.1778 59.1243 43.3722 60.9781Z" fill="#BD99FF"/>
<ellipse cx="51.3334" cy="45.5001" rx="7" ry="5.83333" fill="#DF9C7C"/>
<path fill-rule="evenodd" clip-rule="evenodd" d="M28.7977 60.9781C28.9921 59.1243 29.1477 55.4167 28.2144 55.4167C27.7362 55.4167 27.8652 55.9589 28.0556 56.7595C28.3298 57.9124 28.7314 59.601 27.631 60.9781H28.7977ZM11.6667 60.9781C10.5664 59.601 10.968 57.9124 11.2422 56.7595C11.4326 55.9589 11.5615 55.4167 11.0834 55.4167C10.15 55.4167 10.3056 59.1243 10.5 60.9781H11.6667Z" fill="#F52E98"/>
<path d="M32.6667 60.9781C35.4667 56.7781 29.1667 48.1448 25.6667 45.2281C21 41.4948 15.6319 43.6726 13.5311 45.2281C10.0311 48.1448 3.73113 56.7781 6.53113 60.9781H10.5C10.3056 59.1243 10.15 55.4167 11.0834 55.4167C11.5615 55.4167 11.4326 55.9589 11.2422 56.7595C10.968 57.9124 10.5664 59.601 11.6667 60.9781H19.9478H27.631C28.7314 59.601 28.3298 57.9124 28.0556 56.7595C27.8652 55.9589 27.7362 55.4167 28.2144 55.4167C29.1477 55.4167 28.9921 59.1243 28.7977 60.9781H32.6667Z" fill="#FF8BC9"/>
<ellipse cx="19.8334" cy="45.5001" rx="7" ry="5.83333" fill="#FBA983"/>
<path fill-rule="evenodd" clip-rule="evenodd" d="M31.5394 27.5672C32.1795 38.2292 40.5357 46.6667 50.75 46.6667C60.9643 46.6667 69.3205 38.2292 69.9606 27.5673C69.5289 21.248 65.5873 15.8179 59.9331 12.9521C57.2037 11.5687 54.0753 10.7829 50.75 10.7829C46.5075 10.7829 42.5856 12.062 39.4039 14.2291C34.9254 17.2795 31.9137 22.0893 31.5394 27.5672Z" fill="#EBAF92"/>
<path fill-rule="evenodd" clip-rule="evenodd" d="M50.75 46.6667C40.5357 46.6667 32.1795 38.2292 31.5394 27.5672C31.9137 22.0893 34.9254 17.2795 39.4039 14.2291C42.5856 12.062 46.5075 10.7829 50.75 10.7829C54.0753 10.7829 57.2037 11.5687 59.9331 12.9521C65.5873 15.8179 69.5289 21.248 69.9606 27.5673C69.3205 38.2292 60.9643 46.6667 50.75 46.6667Z" fill="#EBAF92"/>
<path d="M50.75 10.7829C46.5075 10.7829 42.5856 12.062 39.4039 14.2291C43.75 19.8334 54.2334 14.7808 56.5833 15.75C58.736 14.9531 56.5868 13.2501 59.9331 12.9521C57.2037 11.5687 54.0753 10.7829 50.75 10.7829Z" fill="#BCBCBC"/>
<path d="M70 26.25C70 14.9742 61.3815 5.83337 50.75 5.83337C43.0775 5.83337 36.4534 10.5941 33.3604 17.4823C35.1755 15.7583 34.4167 25.6667 39.4039 14.2291C42.5856 12.062 46.5075 10.7829 50.75 10.7829C54.0753 10.7829 57.2037 11.5687 59.9331 12.9521C63.0808 14.5475 65.6977 16.9376 67.4738 19.8334C68.8881 22.1393 69.7692 24.7659 69.9606 27.5673C69.9867 27.1318 70 26.6925 70 26.25Z" fill="#BCBCBC"/>
<path d="M39.4039 14.2291C34.4167 25.6667 35.1755 15.7583 33.3604 17.4823C32.1676 20.1388 31.5 23.1117 31.5 26.25C31.5 26.6925 31.5133 27.1317 31.5394 27.5672C31.9137 22.0893 34.9254 17.2795 39.4039 14.2291Z" fill="#BCBCBC"/>
<path d="M59.9331 12.9521C56.5868 13.2501 58.736 14.9531 56.5833 15.75C60.7325 15.7677 64.0528 16.1 67.4738 19.8334C65.6977 16.9376 63.0808 14.5475 59.9331 12.9521Z" fill="#BCBCBC"/>
<circle cx="8.16667" cy="47.8334" r="4.66667" fill="#EBAF92"/>
<path fill-rule="evenodd" clip-rule="evenodd" d="M0.0394187 29.8253C0.679529 39.878 9.03573 47.8334 19.25 47.8334C29.4643 47.8334 37.8205 39.878 38.4606 29.8253C38.0289 23.8672 34.0873 18.7474 28.4331 16.0453C25.7037 14.741 22.5753 14 19.25 14C15.0075 14 11.0856 15.2061 7.90391 17.2494C3.42539 20.1255 0.413662 24.6604 0.0394187 29.8253Z" fill="#FFC2A6"/>
<path fill-rule="evenodd" clip-rule="evenodd" d="M19.25 47.8334C9.03573 47.8334 0.679529 39.878 0.0394187 29.8253C0.413662 24.6604 3.42539 20.1255 7.90391 17.2494C11.0856 15.2061 15.0075 14 19.25 14C22.5753 14 25.7037 14.741 28.4331 16.0453C34.0873 18.7474 38.0289 23.8672 38.4606 29.8253C37.8205 39.878 29.4643 47.8334 19.25 47.8334Z" fill="#FFC2A6"/>
<path d="M17.5 37.3358C19.5741 41.5573 21.4753 39.0947 22.1667 37.3358C21 37.801 20.79 37.3685 20.0278 37.3346C19.2655 37.3007 18.537 37.9954 17.5 37.3358Z" fill="#EE5959"/>
<circle cx="19.8334" cy="7.00006" r="7" fill="#7C7B7B"/>
<path d="M38.5 28.5834C38.5 17.9519 29.8815 9.33337 19.25 9.33337C11.5775 9.33337 4.95339 13.8221 1.86045 20.3166C3.67551 18.6912 5.77572 17.7428 7.90391 17.2494C11.0856 15.2061 15.0075 14 19.25 14C22.5753 14 25.854 15.9451 28.5833 17.2494C33.25 18.0834 38.0289 23.8672 38.4606 29.8253C38.4867 29.4147 38.5 29.0006 38.5 28.5834Z" fill="#B8B8B8"/>
<path d="M7.90391 17.2494C5.77572 17.7428 3.67551 18.6912 1.86045 20.3166C0.667619 22.8213 0 25.6244 0 28.5834C0 29.0006 0.0132726 29.4147 0.0394187 29.8253C0.413662 24.6604 3.42539 20.1255 7.90391 17.2494Z" fill="#B8B8B8"/>
<path fill-rule="evenodd" clip-rule="evenodd" d="M7.90391 17.2494C12.3411 16.2206 11.6667 20.3166 19.25 21C24.5 20.3166 22.75 17.2494 28.5833 17.2494C25.854 15.9451 22.5753 14 19.25 14C15.0075 14 11.0856 15.2061 7.90391 17.2494Z" fill="#B8B8B8"/>
<path d="M12.25 30.9167C12.25 31.8832 11.1444 32.6667 10.5 32.6667C9.85571 32.6667 9.33337 31.8832 9.33337 30.9167C9.33337 29.9502 9.85571 29.1667 10.5 29.1667C11.1444 29.1667 12.25 29.9502 12.25 30.9167Z" fill="black"/>
<path d="M30.3334 30.9167C30.3334 31.8832 29.811 32.6667 29.1667 32.6667C28.5224 32.6667 27.4167 31.8832 27.4167 30.9167C27.4167 29.9502 28.5224 29.1667 29.1667 29.1667C29.811 29.1667 30.3334 29.9502 30.3334 30.9167Z" fill="black"/>
<path d="M43.75 30.9167C43.75 31.8832 42.6444 32.6667 42 32.6667C41.3557 32.6667 40.8334 31.8832 40.8334 30.9167C40.8334 29.9502 41.3557 29.1667 42 29.1667C42.6444 29.1667 43.75 29.9502 43.75 30.9167Z" fill="black"/>
<path d="M61.8334 30.9167C61.8334 31.8832 61.311 32.6667 60.6667 32.6667C60.0224 32.6667 58.9167 31.8832 58.9167 30.9167C58.9167 29.9502 60.0224 29.1667 60.6667 29.1667C61.311 29.1667 61.8334 29.9502 61.8334 30.9167Z" fill="black"/>
<path d="M57.7501 38.5C58.4501 40.2499 54.2501 37.9167 51.3335 37.9167C48.4168 37.9167 44.2167 40.2499 44.9166 38.5C47.25 32.6666 50.1668 35.0001 51.3335 35.0001C52.5001 35.0001 55.4168 32.6666 57.7501 38.5Z" fill="#7C7B7B"/>
<path d="M47.8334 19.8334H55.4167M46.0834 22.1667H57.75M44.3334 24.5H59.5" stroke="#DF9C7C" stroke-linecap="round" stroke-linejoin="round"/>
<circle cx="60.6667" cy="36.1667" r="1.16667" fill="#FF757C"/>
<circle cx="29.1667" cy="36.1667" r="1.16667" fill="#FF757C"/>
<circle cx="40.8333" cy="36.1667" r="1.16667" fill="#FF757C"/>
<circle cx="10.5" cy="36.1667" r="1.16667" fill="#FF757C"/>
<path fill-rule="evenodd" clip-rule="evenodd" d="M152.472 21.6469C152.887 22.1991 153.248 22.7716 153.25 22.9287C153.253 23.123 153.303 23.2359 153.422 23.2752C149.865 25.2923 150.384 23.6871 151.088 22.6324C151.393 22.4271 152.098 21.9425 152.472 21.6469ZM163.604 31.7882C164.186 31.1571 164.523 30.4135 164.633 29.6545C159.392 32.2269 149.778 37.5406 153.25 38.2166C153.817 38.327 155.039 37.4274 156.614 36.2683C158.454 34.9133 160.776 33.2037 163.097 32.3386L163.604 31.7882ZM170.295 33.9664C171.696 37.2639 174.623 42.855 174.623 38.8326C174.623 37.8226 173.821 36.403 172.882 34.7412C171.426 32.1625 169.641 29.0008 170.011 25.8822C169.886 25.9832 169.76 26.0968 169.628 26.2243C168.856 26.9735 168.479 27.9016 168.479 29.0521C168.479 29.9656 168.505 30.0467 169.415 31.979C169.929 33.0721 170.325 33.9664 170.295 33.9664ZM176.642 26.5217C177.385 27.3302 178.805 28.3342 178.534 25.8822C178.534 24.5628 178.863 24.141 179.049 24.1003C178.893 24.13 178.736 24.1712 178.58 24.2244C177.735 24.5115 176.779 25.5562 176.779 26.1917C176.779 26.3266 176.717 26.4751 176.642 26.5217ZM182.947 30.5785C181.923 34.512 178.922 32.4455 177.155 31.2288C176.707 30.9199 176.338 30.6658 176.101 30.5785C175.165 30.2336 176.902 32.3965 177.887 33.521C177.887 33.4927 178.178 33.6209 178.534 33.8061C179.818 34.4741 181.416 34.1657 182.187 33.1013C182.629 32.4917 182.854 31.7947 182.947 30.5785Z" fill="#FFC2A6"/>
<path d="M151.721 20.7538C151.172 20.2062 151.132 20.1215 151.088 19.4329C151.032 18.5627 150.828 18.1232 150.242 17.608C149.766 17.1902 149.032 17.0181 148.15 17.1175L147.626 17.1765L147.147 16.4356C146.144 14.887 144.241 13.1183 142.401 12.0256C139.873 10.5237 136.246 9.74831 133.268 10.0733C130.598 10.3648 128.11 11.3498 126.022 12.8777C120.997 22.1658 117.914 37.6622 140.251 37.6622C140.547 37.6622 140.868 37.6813 141.201 37.7009C143.057 37.8109 145.261 37.9414 145.302 34.8903C145.314 34.86 145.326 34.829 145.338 34.7975L145.339 34.7965C145.831 33.5298 146.664 31.3851 151.721 29.6545C154.129 28.8303 154.991 24.7585 153.681 23.2752C153.572 23.2962 153.487 23.2966 153.422 23.2752C149.865 25.2923 150.384 23.6871 151.088 22.6324C151.393 22.4271 152.098 21.9425 152.472 21.6469C152.218 21.3079 151.944 20.9767 151.721 20.7538Z" fill="#FFC2A6"/>
<path d="M181.59 42.7923C181.879 40.761 181.523 39.6513 179.492 36.2555C178.609 34.78 177.887 33.5495 177.887 33.521C176.902 32.3965 175.165 30.2336 176.101 30.5785C176.338 30.6658 176.707 30.9199 177.155 31.2288C178.922 32.4455 181.923 34.512 182.947 30.5785C182.984 30.0948 183 29.5289 183 28.8538C183 26.8591 182.985 26.7272 182.682 26.0812C181.981 24.5873 180.541 23.8215 179.058 24.0987C179.055 24.0992 179.052 24.0997 179.049 24.1003C178.863 24.141 178.534 24.5628 178.534 25.8822C178.805 28.3342 177.385 27.3302 176.642 26.5217C176.566 26.5683 175.833 26.2805 175.013 25.8822C173.53 25.1622 173.514 25.1579 172.409 25.1579C171.313 25.1579 170.689 25.3322 170.011 25.8822C169.641 29.0008 171.426 32.1625 172.882 34.7412C173.821 36.403 174.623 37.8226 174.623 38.8326C174.623 42.855 171.696 37.2639 170.295 33.9664C170.264 33.9664 170.034 33.8619 169.782 33.7342C168.594 33.1303 166.284 32.5947 164.117 32.4205L163.097 32.3386C160.776 33.2037 158.454 34.9133 156.614 36.2683C155.039 37.4274 153.817 38.327 153.25 38.2166C149.778 37.5406 159.392 32.2269 164.633 29.6545C164.855 28.1081 164.131 26.498 162.593 25.6465C161.965 25.2982 161.863 25.2809 160.426 25.2768L158.918 25.2725L158.56 24.7078C158.154 24.0664 157.617 23.6201 156.818 23.2573C156.474 23.1016 155.949 23.0162 155.414 23.0053C156.285 23.1597 155.905 26.3039 155.589 27.9298C155.835 27.3549 156.525 26.4022 157.314 27.1906C157.405 27.2818 157.5 27.3646 157.59 27.443C157.611 27.461 157.631 27.4789 157.652 27.4965C158.5 28.2293 158.962 28.6284 150.661 32.0569C146.842 33.6343 143.393 38.8548 149.861 43.7604C161.49 52.5812 175.338 48.4213 180.808 45.2387C181.2 44.4906 181.466 43.6665 181.59 42.7923Z" fill="#FFC2A6"/>
<path d="M121.559 18.1358C121.005 19.2314 120.707 20.0269 120.337 21.4005C119.984 22.7123 119.885 25.9665 120.152 27.5006C121.082 32.8453 124.964 37.362 130.088 39.0616C132.12 39.7356 132.54 39.7798 137.529 39.8452L142.199 39.9065L142.513 40.2934C143.142 41.0682 145.449 43.3715 146.349 44.1247C150.063 47.2298 154.759 49.4992 159.73 50.5906C163.476 51.4133 167.77 51.4791 171.358 50.769C173.873 50.2713 177.091 48.9128 178.775 47.6388C179.63 46.9916 180.318 46.1746 180.808 45.2387C175.338 48.4213 161.49 52.5812 149.861 43.7604C143.393 38.8548 146.842 33.6343 150.661 32.0569C158.962 28.6284 158.5 28.2293 157.652 27.4965C157.631 27.4789 157.611 27.461 157.59 27.443C157.5 27.3646 157.405 27.2818 157.314 27.1906C156.525 26.4022 155.835 27.3549 155.589 27.9298C155.905 26.3039 156.285 23.1597 155.414 23.0053C155.37 23.0044 155.326 23.004 155.281 23.0041C154.804 23.0054 154.33 23.0661 153.981 23.1891C153.865 23.23 153.766 23.2588 153.681 23.2752C154.991 24.7585 154.129 28.8303 151.721 29.6545C146.664 31.3851 145.831 33.5298 145.339 34.7965L145.338 34.7975C145.326 34.829 145.314 34.86 145.302 34.8903C145.261 37.9414 143.057 37.8109 141.201 37.7009C140.868 37.6813 140.547 37.6622 140.251 37.6622C117.914 37.6622 120.997 22.1658 126.022 12.8777C124.166 14.2365 122.627 16.0245 121.559 18.1358Z" fill="#D29679"/>
<path fill-rule="evenodd" clip-rule="evenodd" d="M152.472 21.6469C152.887 22.1991 153.248 22.7716 153.25 22.9287C153.253 23.123 153.303 23.2359 153.422 23.2752C149.865 25.2923 150.384 23.6871 151.088 22.6324C151.393 22.4271 152.098 21.9425 152.472 21.6469ZM163.604 31.7882C164.186 31.1571 164.523 30.4135 164.633 29.6545C159.392 32.2269 149.778 37.5406 153.25 38.2166C153.817 38.327 155.039 37.4274 156.614 36.2683C158.454 34.9133 160.776 33.2037 163.097 32.3386L163.604 31.7882ZM170.295 33.9664C171.696 37.2639 174.623 42.855 174.623 38.8326C174.623 37.8226 173.821 36.403 172.882 34.7412C171.426 32.1625 169.641 29.0008 170.011 25.8822C169.886 25.9832 169.76 26.0968 169.628 26.2243C168.856 26.9735 168.479 27.9016 168.479 29.0521C168.479 29.9656 168.505 30.0467 169.415 31.979C169.929 33.0721 170.325 33.9664 170.295 33.9664ZM176.642 26.5217C177.385 27.3302 178.805 28.3342 178.534 25.8822C178.534 24.5628 178.863 24.141 179.049 24.1003C178.893 24.13 178.736 24.1712 178.58 24.2244C177.735 24.5115 176.779 25.5562 176.779 26.1917C176.779 26.3266 176.717 26.4751 176.642 26.5217ZM182.947 30.5785C181.923 34.512 178.922 32.4455 177.155 31.2288C176.707 30.9199 176.338 30.6658 176.101 30.5785C175.165 30.2336 176.902 32.3965 177.887 33.521C177.887 33.4927 178.178 33.6209 178.534 33.8061C179.818 34.4741 181.416 34.1657 182.187 33.1013C182.629 32.4917 182.854 31.7947 182.947 30.5785Z" fill="#D29679"/>
<path d="M144.501 19.7373C143.812 21.9056 142.284 21.8727 141.606 21.5853C140.559 21.8317 141.606 23.31 144.255 22.8172C146.904 22.3244 145.364 17.0271 144.501 19.7373Z" fill="#D29679"/>
<path d="M141.114 32.0569C132.059 38.5246 131.32 29.5314 136.617 28.053C137.726 27.7436 139.019 28.9127 137.233 29.3466C132.921 30.3937 134.276 35.4447 139.574 30.8249C140.437 30.0718 142.53 31.0449 141.114 32.0569Z" fill="#D29679"/>
</svg>
