<svg width="161" height="61" viewBox="0 0 161 61" fill="none" xmlns="http://www.w3.org/2000/svg">
<path d="M124.418 5.11337C125.381 6.84471 127.737 7.23625 129.336 5.93092C129.793 5.55682 129.897 5.52794 130.161 5.69981C130.417 5.86703 130.441 5.98789 130.32 6.51457C129.958 8.09251 130.457 9.48756 131.658 10.2532C132.288 10.6543 133.369 10.8931 133.844 10.7358C134.147 10.635 134.449 10.8405 134.48 11.1692C134.5 11.38 134.419 11.5065 134.066 11.8121C132.285 13.3537 132.326 16.0932 134.148 17.2913C134.592 17.5834 134.705 17.7232 134.682 17.952C134.652 18.2433 134.36 18.5574 134.21 18.4598C134.041 18.3501 132.789 18.7076 132.271 19.0137C131.883 19.2427 131.59 19.5424 131.246 20.0645C130.636 20.9871 130.517 21.7996 130.812 23.0055C130.999 23.7713 130.992 23.8963 130.753 24.0325C130.54 24.1547 130.342 24.1114 129.824 23.829C128.671 23.2009 127.335 23.2634 126.244 23.9969C125.618 24.4181 124.981 25.3184 124.804 26.0332C124.702 26.4435 124.634 26.5485 124.424 26.6183C124.06 26.7392 123.925 26.6117 123.564 25.8006C122.728 23.9231 120.385 23.3587 118.615 24.6085C117.574 25.344 117.34 25.1468 117.561 23.7174C117.799 22.1721 117.223 20.9536 115.914 20.2352C115.423 19.9654 115.048 19.8711 114.461 19.8695C113.588 19.8671 113.397 19.7944 113.365 19.4512C113.348 19.2787 113.509 19.0613 113.995 18.5982C114.596 18.0263 114.667 17.9169 114.882 17.2339C115.362 15.7091 114.951 14.3127 113.734 13.3358C113.183 12.8928 113.121 12.7968 113.235 12.5568C113.328 12.3589 113.638 12.2227 114.353 12.0655C116.012 11.7006 116.996 10.5967 117.159 8.91653C117.2 8.49473 117.136 7.90021 117.017 7.59555C116.838 7.13906 116.843 6.98503 117.046 6.72035C117.288 6.40635 117.31 6.40783 118.04 6.79241C118.92 7.25591 119.751 7.35737 120.591 7.10391C121.766 6.74923 122.559 5.98022 122.96 4.80713C123.16 4.2236 123.279 4.0169 123.449 3.96045C123.712 3.87296 124.071 4.07275 124.061 4.30179C124.058 4.38939 124.218 4.75462 124.418 5.11337Z" fill="#FF8B00"/>
<ellipse cx="124.077" cy="15.3661" rx="5" ry="4.5" transform="rotate(95.0575 124.077 15.3661)" fill="#FFD300"/>
<path d="M146.255 43.8818C143.675 44.792 141.827 47.2497 141.827 50.1409C141.827 53.8057 144.798 56.7767 148.463 56.7767C152.128 56.7767 155.099 53.8057 155.099 50.1409C155.099 47.2413 153.24 44.7776 150.649 43.8738V22.585C150.649 21.3716 149.665 20.3879 148.452 20.3879C147.238 20.3879 146.255 21.3716 146.255 22.585V43.8818ZM149.255 44.2569L149.347 43.5636L149.255 44.2569ZM149.255 43.5519V22.585C149.255 22.7301 149.216 22.8663 149.149 22.9838V43.5402C149.184 43.5438 149.22 43.5477 149.255 43.5519ZM147.755 22.9838V43.5425L147.649 22.585C147.649 22.7301 147.687 22.8663 147.755 22.9838Z" fill="#FF0000" stroke="#FF0000" stroke-width="3"/>
<path d="M148.286 59.3499C153.177 59.3499 157.141 55.3855 157.141 50.4951C157.141 47.2912 155.439 44.4847 152.891 42.9301V10.2941C152.891 7.84892 150.908 5.8667 148.463 5.8667C146.018 5.8667 144.036 7.84893 144.036 10.2941V42.7251C141.292 44.2294 139.431 47.145 139.431 50.4951C139.431 55.3855 143.396 59.3499 148.286 59.3499Z" stroke="#D8D8D8" stroke-width="3"/>
<rect x="155.724" y="14.7215" width="4.95871" height="1.41677" rx="0.708387" fill="#006C9F"/>
<rect x="155.724" y="22.1596" width="4.95871" height="1.41677" rx="0.708387" fill="#006C9F"/>
<rect x="155.724" y="29.5976" width="4.95871" height="1.41677" rx="0.708387" fill="#006C9F"/>
<path d="M21.2209 32.2743C25.7209 32.2743 29.7209 34.2684 31.2209 35.2655C32.7209 36.2626 44.0703 42.5935 46.2209 44.7378C47.5436 46.0566 49.2551 50.0892 41.0699 54.7842C39.9729 55.4135 38.6981 56.0546 37.2209 56.7027C33.9279 56.7635 29.4167 56.8065 25 56.778C17.3454 56.7286 9.97453 56.4644 9.72089 55.7056C9.32089 54.5091 15.2209 45.2363 18.2209 40.7495C17.3947 40.2003 12.9276 42.8275 8.99769 45.2151C5.79296 47.1622 2.94545 48.95 2.72086 48.7261C2.32086 48.3273 2.55419 44.5716 2.72086 42.7436C3.63198 42.0623 4.75529 41.2479 6 40.3784C11.1306 36.7945 18.3237 32.2743 21.2209 32.2743Z" fill="#26DCFF"/>
<path fill-rule="evenodd" clip-rule="evenodd" d="M37.2209 56.7027L30 54.6874C28.8 55.4851 26.1667 56.4135 25 56.778C29.4167 56.8065 33.9279 56.7635 37.2209 56.7027ZM6 40.3784L8.99769 45.2151C8.59903 45.4574 8.2059 45.6971 7.82266 45.9308C5.12511 47.5759 2.91751 48.9222 2.72086 48.7261C2.32086 48.3273 2.55419 44.5716 2.72086 42.7436C3.63198 42.0623 4.75529 41.2479 6 40.3784Z" fill="#FFA386"/>
<path d="M37.1668 46.6729C35.073 48.8582 31.5082 54.3617 24 56.6815C25.5 57.6786 39.1334 50.5966 37.1668 46.6729Z" fill="#00BFFF"/>
<ellipse cx="36" cy="36.2626" rx="5.5" ry="4.98539" fill="#FD8F6C"/>
<path d="M56.5 23.3005C56.5 24.5021 56.3579 25.6707 56.0895 26.7903C54.5128 33.3671 48.5791 38.2567 41.5 38.2567C33.2157 38.2567 26.5 31.5606 26.5 23.3005C26.5 21.1734 26.9453 19.15 27.7481 17.318C30.0628 12.0358 35.349 8.34431 41.5 8.34431C47.651 8.34431 52.9372 12.0358 55.2519 17.318C56.0547 19.15 56.5 21.1734 56.5 23.3005Z" fill="#FFA386"/>
<path d="M27.7481 17.318C30.0628 12.0358 35.349 8.34431 41.5 8.34431C47.651 8.34431 52.9372 12.0358 55.2519 17.318C58 7.34728 29.5 -1.12786 30.5 10.3385C29.3 11.1361 28.1654 15.3239 27.7481 17.318Z" fill="#434343"/>
<path d="M55.2519 17.318C56.0547 19.15 56.5 21.1734 56.5 23.3005C56.5 24.5021 56.3579 25.6707 56.0895 26.7903C60.161 19.2125 57.2276 17.318 55.2519 17.318Z" fill="#434343"/>
<path d="M41.5 8.34431C35.349 8.34431 30.0628 12.0358 27.7481 17.318C25.4335 22.6003 31 15.8225 34.5 16.321C37.6694 16.7725 46 22.802 53.5 20.3093C52.5976 22.6359 51.7636 27.4883 55.6464 28.286C55.8192 27.7985 55.9674 27.2995 56.0895 26.7903C56.3579 25.6707 56.5 24.5021 56.5 23.3005C56.5 21.1734 56.0547 19.15 55.2519 17.318C52.9372 12.0358 47.651 8.34431 41.5 8.34431Z" fill="#434343"/>
<rect width="5.99764" height="2.99242" rx="1.49621" transform="matrix(0.930601 0.366036 -0.367894 0.929868 35.6008 30.2802)" fill="#FF595A"/>
<path d="M34.2643 22.7036C34.6864 22.4827 35.2082 22.6447 35.4299 23.0656L36.8635 25.7881C37.0851 26.2089 36.9226 26.7293 36.5005 26.9502C36.0784 27.1712 35.5566 27.0092 35.335 26.5883L33.9013 23.8658C33.6797 23.4449 33.8422 22.9246 34.2643 22.7036Z" fill="#676767"/>
<path d="M37.5549 23.7978C37.3503 23.3684 36.8354 23.1857 36.4048 23.3897L33.6192 24.7093C33.1886 24.9133 33.0054 25.4267 33.2099 25.8561C33.4145 26.2854 33.9295 26.4681 34.3601 26.2641L37.1456 24.9445C37.5763 24.7405 37.7595 24.2271 37.5549 23.7978Z" fill="#676767"/>
<path d="M43.6381 26.3906C44.0602 26.1697 44.582 26.3317 44.8036 26.7526L46.2373 29.4751C46.4589 29.896 46.2964 30.4163 45.8743 30.6372C45.4522 30.8582 44.9304 30.6962 44.7088 30.2753L43.2751 27.5528C43.0535 27.1319 43.216 26.6116 43.6381 26.3906Z" fill="#676767"/>
<path d="M46.9287 27.4848C46.7241 27.0554 46.2092 26.8727 45.7786 27.0767L42.993 28.3963C42.5624 28.6003 42.3791 29.1137 42.5837 29.5431C42.7883 29.9724 43.3032 30.1551 43.7338 29.9511L46.5194 28.6315C46.95 28.4275 47.1333 27.9141 46.9287 27.4848Z" fill="#676767"/>
<path d="M20 8.32322C20 5.83052 25.4 1.34367 47 3.33782M29 11.813C41.5 12.9763 64.7 13.3086 57.5 5.332" stroke="#FFDA05" stroke-width="2" stroke-linecap="round" stroke-linejoin="round"/>
<path d="M3 25.2736C5.33333 23.9442 11.3 21.6841 16.5 23.2795M1 30.7575C6 28.5972 16.6 25.1739 19 28.7634M6.5 20.7867C7.83333 19.4573 11.2 17.297 14 19.2911" stroke="#6A5D69" stroke-width="2" stroke-linecap="round" stroke-linejoin="round"/>
<path d="M55.0844 3.43125C55.2626 3.39407 55.3476 3.41539 55.4687 3.52785C55.5542 3.60721 55.6389 3.74183 55.6567 3.82706C55.7062 4.06286 55.5106 4.34859 55.2646 4.39991L55.0578 4.44304L55.1859 4.61422C55.4531 4.97118 55.3798 5.38213 55.0363 5.45378C54.7847 5.50625 54.6774 5.46733 54.53 5.27027L54.3968 5.0923L54.3519 5.28031C54.2613 5.66019 53.8704 5.81524 53.6109 5.57435C53.4257 5.40254 53.3869 5.25608 53.4523 4.97585L53.5008 4.76784L53.3031 4.80908C53.0549 4.86086 52.8373 4.73437 52.7357 4.47906C52.6279 4.20839 52.7968 3.90843 53.0918 3.84691L53.2985 3.80379L53.1704 3.6326C52.8766 3.24 52.9867 2.84098 53.4031 2.78894C53.6003 2.76431 53.6774 2.79209 53.8115 2.93591L53.9769 3.11332L54.0384 2.9014C54.1101 2.65441 54.266 2.5279 54.4979 2.52876C54.8124 2.52984 54.9979 2.86883 54.9041 3.27097L54.8556 3.47898L55.0844 3.43125Z" fill="#FF5155"/>
<path d="M25.1953 10.1116C25.3236 9.98287 25.4064 9.95411 25.5695 9.98164C25.6848 10.001 25.8297 10.0671 25.8916 10.1285C26.063 10.2983 26.0571 10.6442 25.8799 10.822L25.731 10.9713L25.9324 11.0441C26.3524 11.1958 26.5178 11.5792 26.2704 11.8274C26.0892 12.0091 25.9781 12.0354 25.7463 11.9517L25.5369 11.876L25.6031 12.0577C25.7369 12.4247 25.4959 12.7685 25.1463 12.7095C24.8968 12.6675 24.7837 12.5665 24.6837 12.2966L24.6095 12.0962L24.4671 12.2391C24.2884 12.4184 24.0369 12.432 23.8112 12.2745C23.5719 12.1075 23.5476 11.7643 23.7601 11.5512L23.909 11.4019L23.7076 11.3291C23.2457 11.1622 23.1176 10.7686 23.4367 10.4969C23.5878 10.3682 23.6676 10.3491 23.8589 10.3957L24.0949 10.4532L24.0294 10.2425C23.953 9.99691 24.0135 9.80576 24.2077 9.67935C24.471 9.50785 24.8129 9.6893 24.9563 10.0766L25.0305 10.277L25.1953 10.1116Z" fill="#FF5155"/>
<path d="M51.8258 1.72751C51.9446 1.70284 52.0013 1.71709 52.0821 1.79211C52.1392 1.84505 52.1958 1.93481 52.2077 1.99162C52.2409 2.14879 52.1106 2.33908 51.9465 2.37314L51.8087 2.40175L51.8942 2.5159C52.0726 2.75394 52.024 3.02776 51.7949 3.0753C51.6272 3.11012 51.5556 3.08411 51.4571 2.95271L51.3682 2.83403L51.3384 2.95929C51.2782 3.21239 51.0176 3.31549 50.8443 3.1548C50.7207 3.04019 50.6948 2.94257 50.7382 2.75586L50.7704 2.61727L50.6386 2.64463C50.4731 2.67899 50.3279 2.59457 50.26 2.42437C50.1879 2.24393 50.3004 2.04414 50.4971 2.00332L50.6349 1.9747L50.5494 1.86055C50.3532 1.59874 50.4264 1.3329 50.7041 1.29847C50.8356 1.28217 50.887 1.30073 50.9766 1.39665L51.087 1.51498L51.1278 1.37379C51.1755 1.20924 51.2794 1.12502 51.4341 1.12574C51.6438 1.12665 51.7677 1.35265 51.7054 1.62059L51.6732 1.75918L51.8258 1.72751Z" fill="#FF5155"/>
<path d="M21.5335 10.4753C21.619 10.3895 21.6741 10.3704 21.7829 10.3887C21.8596 10.4016 21.9562 10.4457 21.9975 10.4866C22.1116 10.5997 22.1077 10.8302 21.9897 10.9487L21.8905 11.0482L22.0246 11.0967C22.3045 11.1978 22.4147 11.4533 22.2498 11.6186C22.1291 11.7397 22.0551 11.7572 21.9006 11.7014L21.7611 11.651L21.8052 11.7721C21.8943 12.0166 21.7338 12.2457 21.5008 12.2064C21.3346 12.1784 21.2592 12.1111 21.1926 11.9312L21.1432 11.7978L21.0483 11.8929C20.9292 12.0124 20.7616 12.0215 20.6112 11.9165C20.4518 11.8052 20.4356 11.5766 20.5771 11.4346L20.6763 11.3351L20.5422 11.2866C20.2344 11.1754 20.149 10.9131 20.3616 10.732C20.4623 10.6463 20.5155 10.6336 20.643 10.6646L20.8002 10.7029L20.7566 10.5625C20.7057 10.3989 20.746 10.2715 20.8754 10.1873C21.0508 10.073 21.2786 10.1939 21.3742 10.452L21.4236 10.5855L21.5335 10.4753Z" fill="#FF5155"/>
</svg>
