<svg width="27" height="55" viewBox="0 0 27 55" fill="none" xmlns="http://www.w3.org/2000/svg">
<path d="M0 8.17175C0 7.61947 0.447715 7.17175 1 7.17175H19C19.5523 7.17175 20 7.61947 20 8.17175V49.0491H19.9592H0.0407664H0V8.17175Z" fill="#ECE5DC"/>
<path d="M19.9592 49.0491H0.0407664C0.500065 51.8441 4.7836 54.0345 10 54.0345C15.2164 54.0345 19.4999 51.8441 19.9592 49.0491Z" fill="#ECE5DC"/>
<path d="M2 19.1367H18V47.6489H17.9674H2.03261H2V19.1367Z" fill="#FFD800"/>
<path d="M17.9674 47.6489H2.03261C2.40005 49.552 5.82688 51.0432 10 51.0432C14.1731 51.0432 17.5999 49.552 17.9674 47.6489Z" fill="#FFD800"/>
<path fill-rule="evenodd" clip-rule="evenodd" d="M18 19.1367H15C15.8792 25.3707 16.2946 38.73 12.0323 47.6489H17.9674H18V19.1367ZM2 47.3095V47.6489H2.03261C2.01103 47.5371 2 47.4239 2 47.3095Z" fill="#F3CD04"/>
<path fill-rule="evenodd" clip-rule="evenodd" d="M12.0323 47.6489H17.9674C17.5999 49.552 14.1731 51.0432 10 51.0432C10.773 50.0156 11.4468 48.8742 12.0323 47.6489Z" fill="#F3CD04"/>
<path d="M25.5151 0C26.0636 0 26.5082 0.444635 26.5082 0.99312C26.5082 1.54469 26.0588 1.99059 25.5072 1.98621L16.9719 1.91842L15.2629 1.90485L15.0022 3.78301L15 3.79878L12.3176 23.125L11.0327 32.3819C10.5 33.0958 9.2238 32.786 9.05298 32.0987L10.2985 23.125L13.2479 1.87542L13.2491 1.86708C13.3441 1.18221 13.5081 0 15.5 0H25.5151Z" fill="#FFA600"/>
<path fill-rule="evenodd" clip-rule="evenodd" d="M11.0327 32.3819L12.3176 23.125H10.2985L9.05298 32.0987C9.2238 32.786 10.5 33.0958 11.0327 32.3819Z" fill="#FFC566"/>
<mask id="mask0_106_916" style="mask-type:alpha" maskUnits="userSpaceOnUse" x="2" y="16" width="7" height="14">
<path d="M2.55575 19.7448C2.24883 19.287 2.37224 18.6678 2.83139 18.3618L5.3255 16.6995C5.78465 16.3935 6.40567 16.5165 6.71259 16.9743L8.37976 19.4612C8.68667 19.919 8.56326 20.5382 8.10411 20.8442L5.61001 22.5065C5.15086 22.8125 4.52984 22.6895 4.22292 22.2316L2.55575 19.7448Z" fill="#8CC7F4"/>
<path d="M3.03048 19.4559C2.72356 18.9981 2.84697 18.3789 3.30612 18.0728L5.33791 16.7187C5.79706 16.4127 6.41808 16.5357 6.725 16.9935L7.91743 18.7722C8.22434 19.23 8.10093 19.8492 7.64178 20.1552L5.61 21.5094C5.15085 21.8154 4.52983 21.6924 4.22291 21.2346L3.03048 19.4559Z" fill="#8CC7F4"/>
<path d="M3.17153 29.347C2.62113 29.3016 2.21184 28.82 2.25736 28.2712L2.50464 25.2901C2.55017 24.7413 3.03326 24.3332 3.58367 24.3786L6.57346 24.6252C7.12386 24.6705 7.53315 25.1522 7.48763 25.701L7.24035 28.6821C7.19483 29.2309 6.71173 29.639 6.16133 29.5936L3.17153 29.347Z" fill="#8CC7F4"/>
<path d="M3.24016 28.7967C2.68975 28.7513 2.28046 28.2696 2.32599 27.7208L2.52743 25.2924C2.57295 24.7436 3.05605 24.3355 3.60645 24.3809L5.74488 24.5572C6.29528 24.6026 6.70457 25.0843 6.65905 25.6331L6.45761 28.0615C6.41208 28.6103 5.92899 29.0184 5.37858 28.973L3.24016 28.7967Z" fill="#8CC7F4"/>
</mask>
<g mask="url(#mask0_106_916)">
<rect width="4.99549" height="4.98991" rx="1" transform="matrix(0.832117 -0.5546 0.556847 0.830615 2 18.9159)" fill="#45A7ED"/>
<rect width="4.4399" height="4.13736" rx="1" transform="matrix(0.832117 -0.5546 0.556847 0.830615 2.47473 18.627)" fill="#8CC7F4"/>
<rect width="4.99207" height="4.99333" rx="1" transform="matrix(0.0825572 -0.995264 0.997928 0.0822953 2.17493 29.2649)" fill="#45A7ED"/>
<rect width="4.43686" height="4.1402" rx="1" transform="matrix(0.0824557 -0.995272 0.99792 0.0823965 2.24268 28.7142)" fill="#8CC7F4"/>
<g style="mix-blend-mode:multiply">
<path d="M2 19.1366H18V46.7578H17.9674H2.03261H2V19.1366Z" fill="#E7DFAF"/>
<path d="M17.9674 46.7578H2.03261C2.40005 48.6014 5.82688 50.046 10 50.046C14.1731 50.046 17.5999 48.6014 17.9674 46.7578Z" fill="#E7DFAF"/>
</g>
</g>
<ellipse cx="11" cy="35.09" rx="1" ry="0.997079" fill="#FFE861"/>
<ellipse cx="5" cy="37.0841" rx="2" ry="1.99416" fill="#FFE861"/>
<ellipse cx="9" cy="42.0695" rx="1" ry="0.997079" fill="#FFE861"/>
</svg>
