<svg width="40" height="54" viewBox="0 0 40 54" fill="none" xmlns="http://www.w3.org/2000/svg">
<path fill-rule="evenodd" clip-rule="evenodd" d="M20.4678 12.1441C22.7943 13.6111 23.6846 13.7938 27.0016 13.4795C29.114 13.2795 31.017 13.3976 31.2304 13.7414C31.4432 14.0852 30.8513 21.5023 29.9147 30.2226C28.978 38.9436 28.2117 46.2096 28.2117 46.3687C28.2117 46.5285 24.7269 46.6594 20.4678 46.6594C16.2087 46.6594 12.7239 46.5258 12.7239 46.3633C12.7239 46.2002 11.9664 39.0241 11.0405 30.4173C10.1153 21.8098 9.35772 14.1362 9.35704 13.3647C9.35704 10.1688 16.1528 9.42219 20.4678 12.1441ZM21.2247 20.6294C20.6597 21.5237 20.7479 22.0481 21.6051 22.9035C23.6226 24.9151 26.6326 22.2865 24.8138 20.101C23.7667 18.8435 22.2078 19.0731 21.2247 20.6294ZM17.0565 31.1156C15.505 30.8201 14.8889 27.9357 16.2006 27.1065C17.6309 26.2028 18.6847 26.4197 19.4079 27.7672C20.2853 29.4014 18.8429 31.4553 17.0565 31.1156ZM18.8968 38.2117C18.2739 41.3479 22.9775 42.4906 24.3296 39.5311C25.0401 37.9767 24.9492 37.6249 23.5452 36.4916C22.1493 35.3643 21.787 35.3226 20.5392 36.1471C19.7594 36.6628 19.02 37.5913 18.8968 38.2117Z" fill="#168FFF"/>
<path d="M16.2006 27.1065C14.8889 27.9357 15.505 30.8201 17.0565 31.1156C18.8429 31.4553 20.2853 29.4014 19.4079 27.7672C18.6847 26.4197 17.6309 26.2028 16.2006 27.1065Z" fill="#168FFF"/>
<path d="M21.2247 20.6294C20.6597 21.5237 20.7479 22.0481 21.6051 22.9035C23.6226 24.9151 26.6326 22.2865 24.8138 20.101C23.7667 18.8435 22.2078 19.0731 21.2247 20.6294Z" fill="#168FFF"/>
<path d="M18.8968 38.2117C18.2739 41.3479 22.9775 42.4906 24.3296 39.5311C25.0401 37.9767 24.9492 37.6249 23.5452 36.4916C22.1493 35.3643 21.787 35.3226 20.5392 36.1471C19.7594 36.6628 19.02 37.5913 18.8968 38.2117Z" fill="#168FFF"/>
<path fill-rule="evenodd" clip-rule="evenodd" d="M0.24464 1.2909C-0.292044 1.93545 0.0311826 6.5964 1.44393 18.5798C2.50855 27.6029 3.76104 38.2851 4.22837 42.3176C4.97111 48.7283 5.31049 49.9086 6.93132 51.7174L8.78445 53.7853H19.9349H31.0861L32.8901 51.986C34.6517 50.2302 34.7635 49.6071 37.5378 26.1365C39.4724 9.77152 40.1653 1.81862 39.7061 1.24725C38.7027 -0.00157675 1.28636 0.0393812 0.24464 1.2909ZM33.0524 29.2049C34.2732 18.7208 35.4389 8.85906 35.6422 7.28997L36.0133 4.43646H20.0972C5.38994 4.43646 4.18056 4.52576 4.17652 5.61144C4.17383 6.25734 5.25998 16.1526 6.5899 27.6002C8.4821 43.8887 9.24369 48.5967 10.0901 49.2533C11.678 50.4847 28.6707 50.4209 29.9165 49.1794C30.5218 48.5752 31.5838 41.8114 33.0524 29.2049Z" fill="#464646"/>
</svg>
