<svg width="29" height="35" viewBox="0 0 29 35" fill="none" xmlns="http://www.w3.org/2000/svg">
<path fill-rule="evenodd" clip-rule="evenodd" d="M14.0129 0.0714886C13.8921 0.106271 13.4732 0.352477 13.0818 0.618568C11.7969 1.49213 10.4937 2.11901 8.85809 2.6502C6.77691 3.3261 4.97293 3.63096 1.8234 3.83913C1.0893 3.88761 0.948578 3.91668 0.677898 4.07529C0.479244 4.19174 0.303534 4.36805 0.184688 4.5703L0 4.88441L0.000532011 9.40683C0.000997554 13.3413 0.0164934 14.0546 0.119844 14.8936C0.748261 19.9976 2.78209 24.521 6.14145 28.2863C7.93771 30.2995 10.0918 31.9924 12.5697 33.3378C14.1797 34.212 14.6181 34.2407 15.9561 33.559C18.2422 32.3943 20.3159 30.8627 22.1404 28.9914C22.383 28.7427 22.6513 28.4372 22.9322 28.0959C23.9897 26.8112 25.2257 25.019 25.9378 23.8343C26.0734 23.6085 26.19 23.4049 26.2828 23.231C26.3271 23.1445 26.3736 23.0518 26.4217 22.9544C26.7684 22.251 27.1934 21.3005 27.4285 20.668C28.2267 18.5204 28.7201 16.2837 28.8984 14.0046C28.9448 13.4116 28.9642 11.5412 28.9511 8.93636L28.9302 4.80806L28.7467 4.53093C28.6458 4.37843 28.4423 4.17366 28.2945 4.07582C28.0586 3.9198 27.9302 3.89147 27.2476 3.84518C23.9836 3.62365 22.3729 3.36594 20.3841 2.74683C18.7171 2.22795 17.2876 1.5605 15.9947 0.697312C14.9687 0.0123646 14.6104 -0.100762 14.0129 0.0714886ZM21.6506 27.5888C20.5179 28.8158 18.517 30.5032 16.9415 31.4821C15.9083 32.1241 14.7286 32.7172 14.485 32.7172C14.097 32.7172 12.3052 31.7349 10.9147 30.7599C7.79978 28.5759 5.22672 25.5594 3.59273 22.176C2.51679 19.9482 1.84528 17.7071 1.48774 15.1508C1.35639 14.2113 1.34243 13.7725 1.31516 9.71515C1.2976 7.10964 1.31024 5.27673 1.34595 5.24101C1.37921 5.20776 1.91298 5.15063 2.53216 5.11412C7.03137 4.84869 10.8447 3.72088 13.6706 1.8198C14.074 1.54839 14.4342 1.32633 14.4709 1.32633C14.5077 1.32633 14.903 1.56801 15.3494 1.86336C17.0844 3.01133 19.2684 3.91322 21.6105 4.44879C23.2679 4.82781 24.4721 4.98397 27.0892 5.15934L27.6423 5.19639L27.6152 9.72905C27.5863 14.5345 27.5766 14.7048 27.2295 16.4897C26.8293 18.5478 26.1838 20.4608 25.2676 22.3046C24.4938 23.8294 22.5794 26.5885 21.6506 27.5888ZM13.5535 7.1655C13.7654 7.02171 14.0347 6.8623 14.152 6.81129C14.601 6.61603 14.9643 6.70495 15.6667 7.18193C17.0318 8.10889 19.1423 8.75121 21.3485 8.91096C22.6984 9.00872 22.7485 9.01889 23.0082 9.24694C23.4543 9.63853 23.4617 9.70191 23.4247 12.7772C23.4001 14.8301 23.3647 15.7001 23.2849 16.2159C22.5618 20.8936 19.7157 24.9198 15.6739 26.9831C14.9977 27.3282 14.9493 27.3425 14.5335 27.3187C14.0127 27.2888 13.3783 26.9886 12.2371 26.232C10.0271 24.7668 8.42121 22.9253 7.2503 20.5134C6.57613 19.1246 6.16798 17.8129 5.91546 16.2237C5.77234 15.3233 5.69313 10.3056 5.81484 9.85488C5.91014 9.50206 6.22371 9.13634 6.5043 9.05075C6.62136 9.0151 7.06129 8.96702 7.48195 8.94401C9.91082 8.811 12.054 8.18318 13.5535 7.1655ZM21.149 10.2334C18.7363 10.0221 16.6384 9.38528 15.1115 8.40072C14.8634 8.24084 14.624 8.11162 14.5794 8.11361C14.5348 8.11561 14.3487 8.22248 14.1658 8.35097C13.6695 8.69987 12.4659 9.26477 11.6386 9.53718C10.5257 9.90356 9.2147 10.1427 7.59833 10.2741L7.08291 10.316L7.08351 12.3886C7.0843 15.3842 7.21319 16.5493 7.72183 18.1573C7.95826 18.9048 8.50142 20.1992 8.69402 20.4742C8.78952 20.6105 8.79903 20.6037 9.02901 20.231C9.5729 19.3499 10.6393 18.607 11.6281 18.4204L12.058 18.3393L11.8483 17.8967L11.6386 17.4541L11.6176 15.8342C11.5927 13.9074 11.6541 13.5903 12.1885 12.8886C12.7928 12.0952 13.6128 11.7013 14.6601 11.7013C15.9478 11.7013 16.9226 12.2903 17.457 13.3911C17.7135 13.9192 17.7896 14.44 17.7886 15.6584C17.7875 16.8917 17.7086 17.4628 17.4704 17.9591L17.2858 18.3437L17.7464 18.4477C18.7091 18.6651 19.6411 19.3198 20.1885 20.1632L20.2037 20.1867C20.3185 20.3637 20.3846 20.4656 20.4498 20.4651C20.5382 20.4644 20.6251 20.2761 20.8298 19.8328L20.8498 19.7896C21.4825 18.4202 21.9103 16.8099 22.0445 15.2926C22.1467 14.1379 22.1357 10.3049 22.0302 10.304C21.9845 10.3036 21.5879 10.2718 21.149 10.2334ZM16.4474 16.2736C16.4144 17.1544 16.3023 17.5021 15.932 17.8724C15.6153 18.1891 15.3537 18.3014 14.8489 18.3375C14.2545 18.3801 13.8713 18.2651 13.4905 17.93C13.0663 17.5566 12.9386 17.2474 12.9371 16.5895L12.9359 16.0574L13.6173 16.05C14.2482 16.0431 14.3508 16.0223 14.9971 15.77C15.5243 15.5644 15.7912 15.4969 16.086 15.4949L16.4767 15.4921L16.4474 16.2736ZM14.0993 21.5552L14.0763 20.6186L14.0533 19.682L13.112 19.6893C12.0247 19.6977 11.7131 19.7467 11.2237 19.9861C10.7312 20.2271 10.2881 20.7036 9.94174 21.3648L9.64725 21.9269L9.84252 22.2087C10.1454 22.6457 11.1789 23.7116 11.8094 24.2372C12.8374 25.094 14.4104 26.0458 14.6828 25.9756C14.8916 25.9218 16.1385 25.1696 16.7979 24.6994C17.4165 24.2585 18.7904 22.9253 19.2681 22.3023L19.5793 21.8966L19.3104 21.3573C18.8552 20.4445 18.1909 19.9084 17.3144 19.7469C17.1075 19.7088 16.5987 19.686 16.1837 19.6964L15.4294 19.7153L15.3962 20.6614C15.3583 21.7404 15.3047 21.857 14.8168 21.9225C14.5875 21.9533 14.5191 21.9302 14.3249 21.7568L14.0993 21.5552ZM15.5382 13.2168C15.7846 13.3447 15.9618 13.5014 16.1111 13.7231C16.23 13.8996 16.3273 14.0706 16.3273 14.103C16.3273 14.1355 16.1552 14.162 15.9449 14.1621C15.6646 14.1621 15.3315 14.2419 14.6979 14.4607C13.8665 14.7478 13.331 14.8316 13.0407 14.7202C12.7878 14.6232 13.0048 13.9048 13.4076 13.5055C13.7583 13.1577 14.0883 13.0345 14.6737 13.0329C15.1013 13.0316 15.2378 13.0607 15.5382 13.2168Z" fill="black"/>
<path fill-rule="evenodd" clip-rule="evenodd" d="M21.6506 27.5888C20.5179 28.8158 18.517 30.5032 16.9415 31.4821C15.9083 32.1241 14.7286 32.7172 14.485 32.7172C14.097 32.7172 12.3052 31.7349 10.9147 30.7599C7.79978 28.5759 5.22672 25.5594 3.59273 22.176C2.51679 19.9482 1.84528 17.7071 1.48774 15.1508C1.35639 14.2113 1.34243 13.7725 1.31516 9.71515C1.2976 7.10964 1.31024 5.27673 1.34595 5.24101C1.37921 5.20776 1.91298 5.15063 2.53216 5.11412C7.03137 4.84869 10.8447 3.72088 13.6706 1.8198C14.074 1.54839 14.4342 1.32633 14.4709 1.32633C14.5077 1.32633 14.903 1.56801 15.3494 1.86336C17.0844 3.01133 19.2684 3.91322 21.6105 4.44879C23.2679 4.82781 24.4721 4.98397 27.0892 5.15934L27.6423 5.19639L27.6152 9.72905C27.5863 14.5345 27.5766 14.7048 27.2295 16.4897C26.8293 18.5478 26.1838 20.4608 25.2676 22.3046C24.4938 23.8294 22.5794 26.5885 21.6506 27.5888ZM13.5535 7.1655C13.7654 7.02171 14.0347 6.8623 14.152 6.81129C14.601 6.61603 14.9643 6.70495 15.6667 7.18193C17.0318 8.10889 19.1423 8.75121 21.3485 8.91096C22.6984 9.00872 22.7485 9.01889 23.0082 9.24694C23.4543 9.63853 23.4617 9.70191 23.4247 12.7772C23.4001 14.8301 23.3647 15.7001 23.2849 16.2159C22.5618 20.8936 19.7157 24.9198 15.6739 26.9831C14.9977 27.3282 14.9493 27.3425 14.5335 27.3187C14.0127 27.2888 13.3783 26.9886 12.2371 26.232C10.0271 24.7668 8.42121 22.9253 7.2503 20.5134C6.57613 19.1246 6.16798 17.8129 5.91546 16.2237C5.77234 15.3233 5.69313 10.3056 5.81484 9.85488C5.91014 9.50206 6.22371 9.13634 6.5043 9.05075C6.62136 9.0151 7.06129 8.96702 7.48195 8.94401C9.91082 8.811 12.054 8.18318 13.5535 7.1655Z" fill="#3EA819"/>
<path fill-rule="evenodd" clip-rule="evenodd" d="M14.0763 20.6186L14.0993 21.5552L14.3249 21.7568C14.5191 21.9302 14.5875 21.9533 14.8168 21.9225C15.3047 21.857 15.3583 21.7404 15.3962 20.6614L15.4294 19.7153L16.1837 19.6964C16.5987 19.686 17.1075 19.7088 17.3144 19.7469C18.1909 19.9084 18.8552 20.4445 19.3104 21.3573L19.5793 21.8966L19.2681 22.3023C18.7904 22.9253 17.4165 24.2585 16.7979 24.6994C16.1385 25.1696 14.8916 25.9218 14.6828 25.9756C14.4104 26.0458 12.8374 25.094 11.8094 24.2372C11.1789 23.7116 10.1454 22.6457 9.84252 22.2087L9.64725 21.9269L9.94174 21.3648C10.2881 20.7036 10.7312 20.2271 11.2237 19.9861C11.7131 19.7467 12.0247 19.6977 13.112 19.6893L14.0533 19.682L14.0763 20.6186ZM14.5017 24.5094C13.9829 24.2926 13.9619 23.5774 14.4668 23.3234C14.7482 23.1817 14.7573 23.1815 15.0277 23.3098C15.5539 23.5595 15.5126 24.3559 14.9642 24.5369C14.7892 24.5946 14.6917 24.5888 14.5017 24.5094Z" fill="#0066A6"/>
<path d="M16.4474 16.2736C16.4144 17.1544 16.3023 17.5021 15.932 17.8724C15.6153 18.1891 15.3537 18.3014 14.8489 18.3375C14.2545 18.3801 13.8713 18.2651 13.4905 17.93C13.0663 17.5566 12.9386 17.2474 12.9371 16.5895L12.9359 16.0574L13.6173 16.05C14.2482 16.0431 14.3508 16.0223 14.9971 15.77C15.5243 15.5644 15.7912 15.4969 16.086 15.4949L16.4767 15.4921L16.4474 16.2736Z" fill="#F3CE70"/>
<path d="M15.5382 13.2168C15.7846 13.3447 15.9618 13.5014 16.1111 13.7231C16.23 13.8996 16.3273 14.0706 16.3273 14.103C16.3273 14.1355 16.1552 14.162 15.9449 14.1621C15.6646 14.1621 15.3315 14.2419 14.6979 14.4607C13.8665 14.7478 13.331 14.8316 13.0407 14.7202C12.7878 14.6232 13.0048 13.9048 13.4076 13.5055C13.7583 13.1577 14.0883 13.0345 14.6737 13.0329C15.1013 13.0316 15.2378 13.0607 15.5382 13.2168Z" fill="#424242"/>
</svg>
