<svg width="60" height="58" viewBox="0 0 60 58" fill="none" xmlns="http://www.w3.org/2000/svg">
<path d="M32.2547 40.7428V12.3975C32.2547 12.0051 31.9366 11.687 31.5443 11.687C31.1519 11.687 30.8338 12.0051 30.8338 12.3975V40.7459C28.6367 41.0917 26.9564 42.9933 26.9564 45.2875C26.9564 47.8268 29.0149 49.8853 31.5542 49.8853C34.0935 49.8853 36.1519 47.8268 36.1519 45.2875C36.1519 42.9864 34.4615 41.0803 32.2547 40.7428Z" fill="#3EA819" stroke="#3EA819" stroke-width="0.2"/>
<path d="M25.9708 22.644C22.4589 22.644 19.6119 19.797 19.6119 16.285C19.6119 12.7731 22.4589 9.92615 25.9708 9.92615V22.644Z" fill="black"/>
<path d="M34.6817 38.9727V39.3937L35.0412 39.613C37.0594 40.844 38.404 43.0642 38.404 45.5978C38.404 49.4665 35.2679 52.6026 31.3993 52.6026C27.5306 52.6026 24.3945 49.4665 24.3945 45.5978C24.3945 42.9487 25.8648 40.6419 28.0375 39.4508L28.427 39.2373V38.7932V10.3912C28.427 8.66403 29.8272 7.26385 31.5544 7.26385C33.2816 7.26385 34.6817 8.66403 34.6817 10.3912V38.9727Z" stroke="black" stroke-width="1.5"/>
<rect x="37.9133" y="14.2686" width="4.34266" height="1.24076" rx="0.620381" fill="black"/>
<rect x="12.0257" y="11.6482" width="7.46678" height="1.24076" rx="0.620381" transform="rotate(13.2012 12.0257 11.6482)" fill="black"/>
<rect x="11.2368" y="19.2495" width="7.46678" height="1.24076" rx="0.620381" transform="rotate(-12.1293 11.2368 19.2495)" fill="black"/>
<rect x="14.0704" y="26.3944" width="7.46678" height="1.24076" rx="0.620381" transform="rotate(-39.3907 14.0704 26.3944)" fill="black"/>
<rect x="19.9219" y="31.2644" width="7.46678" height="1.24076" rx="0.620381" transform="rotate(-59.737 19.9219 31.2644)" fill="black"/>
<rect x="14.8296" y="4.65295" width="7.46678" height="1.24076" rx="0.620381" transform="rotate(40.212 14.8296 4.65295)" fill="black"/>
<rect x="21.006" width="7.46678" height="1.24076" rx="0.620381" transform="rotate(60.8923 21.006 0)" fill="black"/>
<rect x="37.9133" y="20.783" width="4.34266" height="1.24076" rx="0.620381" fill="black"/>
<rect x="37.9133" y="27.2968" width="4.34266" height="1.24076" rx="0.620381" fill="black"/>
</svg>
