<svg width="512" height="512" viewBox="0 0 512 512"  xmlns="http://www.w3.org/2000/svg">
<path d="M414.6 209.8H414.4L414.2 210L349.2 268.1L349.6 268.5L349.2 268.1C345.6 271.3 341.1 273.4 336.4 274.1C331.7 274.8 326.8 274.1 322.5 272.1C318.2 270.1 314.5 266.8 311.9 262.6C309.3 258.5 307.9 253.6 307.9 248.7V210.1V209.5L307.3 209.4C293.4 207.8 280.5 201 271.2 190.3C261.9 179.6 256.7 165.7 256.7 151.3V59.2C256.7 43.7 262.7 28.7999 273.4 17.7999C284.1 6.79995 298.6 0.699951 313.7 0.699951H454.5C469.6 0.699951 484.1 6.89995 494.8 17.7999C505.5 28.7999 511.5 43.7 511.5 59.2V151.3C511.5 159 510 166.6 507.2 173.7C504.3 180.8 500.1 187.3 494.8 192.7C489.5 198.1 483.2 202.4 476.3 205.4C469.4 208.3 462 209.9 454.5 209.9H414.6V209.8ZM224 316.4C239.1 316.4 253.6 322.6 264.3 333.5C275 344.5 281 359.4 281 374.9V414.4L280.8 417.2C276.9 445 262.8 465.5 239.5 479.1C216.2 492.7 183.6 499.5 142.6 499.5C101.8 499.5 69.1 492.9 45.2 479.4C21.3 465.9 6.3 445.6 0.999998 418.2L0.599998 414.4V375C0.599998 359.5 6.6 344.6 17.3 333.6C28 322.6 42.5 316.5 57.6 316.5H224V316.4ZM140.8 105.9C152.5 105.9 164 108.3 174.8 112.9C185.6 117.5 195.4 124.2 203.7 132.7C212 141.2 218.5 151.3 223 162.4C227.5 173.5 229.8 185.4 229.8 197.4C229.8 209.4 227.5 221.3 223 232.4C218.5 243.5 212 253.6 203.7 262.1C195.4 270.6 185.6 277.3 174.8 281.9C164 286.5 152.4 288.9 140.8 288.9C117.2 288.9 94.6 279.3 77.9 262.1C61.2 245 51.8 221.7 51.8 197.4C51.8 173.1 61.2 149.9 77.9 132.7C94.6 115.5 117.2 105.9 140.8 105.9Z"/>
</svg>
