<svg xmlns="http://www.w3.org/2000/svg" viewBox="0 0 512 512">
	<title>loc</title>
<path d="M47.6,183.6l404.2-147c3.3-1.2,6.8-1.4,10.3-0.7c3.4,0.8,6.5,2.5,9,4.9c2.5,2.5,4.2,5.6,5,9
	c0.8,3.4,0.5,7-0.7,10.3l-147,404.2c-1.3,3.5-3.6,6.5-6.6,8.7c-3,2.2-6.6,3.4-10.4,3.4h-0.3c-3.7,0-7.3-1.1-10.3-3.2
	c-3-2.1-5.4-5-6.8-8.4l-70.6-176.4L47.1,217.9c-3.5-1.4-6.4-3.8-8.5-6.9c-2.1-3.1-3.1-6.8-3.1-10.5c0.1-3.7,1.3-7.4,3.4-10.4
	C41.1,187.2,44.1,184.9,47.6,183.6z M244.5,257.3l7.3,2.9l2.9,7.3l55.6,139.1l117.1-322l-322,117.1L244.5,257.3z"/>
</svg>
