<svg xmlns="http://www.w3.org/2000/svg" viewBox="0 0 512 512">
<path d="M380.7,33.1c1.7,1.7,4.2,3.1,5.5,3.1c4.5,0,8.3,2.3,15.4,9.2c7.6,7.4,8.3,7.8,11.8,5.6c1.8-1.1,3.5-0.6,9,2.5
	c3.7,2.1,9.2,6.1,12.1,8.9c2.9,2.8,6.1,5,7,5c0.9,0,2.6,1.1,3.9,2.5c1.3,1.5,3.8,2.5,6.1,2.5c4.5,0,11.8,3.5,13.7,6.4
	c1.2,1.9,0.9,3-2.7,9.9c-0.8,1.6,3.7,4.8,6.7,4.8c2.5,0,3-0.5,2.3-2.5c-0.6-1.8-0.2-2.5,1.2-2.5c1.1,0,2.3-0.8,2.7-1.9
	c1.1-3,2.9-2.2,4.9,2.2c3.2,7.3,7,10.5,14.3,12.2c8.5,2,10,3.1,10,7.2c0,1.8,1.1,5.1,2.5,7.4c1.4,2.2,2.5,4.5,2.5,5
	c0,1.4-14.7,6.2-21.8,7.1c-8.6,1.2-13.6,4-24,13.6c-8.7,8-15.3,18.6-15.3,24.3c0,3.1,6.5,18.5,10.4,24.7c1.8,2.9,3.3,6.2,3.3,7.4
	c0,1.2,0.8,4.4,1.8,7.2c1,2.7,1.5,5.4,1.1,5.9c-0.3,0.5-4.6,3.9-9.5,7.6c-4.9,3.6-9.9,7.6-11.1,8.8c-3.1,3.1-4,7.9-2.2,11.4
	c2.3,4.2,0.8,7.1-3.1,6.1c-2.8-0.7-3.1-0.4-3.1,2.4c0,2.6-1.2,3.8-6.3,6.4c-3.9,2-7.1,4.7-8.4,7.1c-1.1,2.1-3.9,6-6.1,8.5
	c-2.2,2.5-4,5.5-4,6.6c0,1.1-3.3,3.6-7.8,6c-7.6,3.9-11.3,5.1-35.8,11.6c-7.4,2-18.1,6.3-28.6,11.6c-20.8,10.5-28.8,15.6-38.2,24.6
	c-4.1,3.9-9.1,8.1-11.2,9.4c-5.7,3.6-19.3,18.1-19.3,20.8c0,1.7-1.4,0.8-4.9-3.3c-2.7-3.1-5-4.9-5-4c0,0.9-0.9,1.6-1.9,1.6
	s-1.9,0.4-1.9,0.9s-1.2,1.7-2.6,2.6c-2.2,1.4-2.8,1.3-4.1-0.5c-1.4-1.9-2-1.6-6.7,3c-2.9,2.8-5.2,6.1-5.2,7.3c0,1.2-1.7,3.2-3.7,4.4
	c-2.8,1.6-3.7,3-3.7,5.8c0,4.4-0.5,4.8-8.3,6.4c-12.9,2.7-14.8,2.8-16.5,0.7c-1.2-1.4-2.9-1.8-6.2-1.3c-6.4,1-10.8-1.1-13.3-6.3
	c-1.5-3.1-2.9-4.4-4.9-4.4c-2,0-3.3-1.1-4.4-4c-0.9-2.2-2.9-5.8-4.5-8c-1.6-2.2-2.9-4.6-2.9-5.3c0-0.7-1.2-1.3-2.6-1.3
	c-1.7,0-2.4,0.6-2,1.7c0.4,1-0.7,2.9-2.4,4.4c-1.7,1.4-3,3.2-3,3.9c0,0.7-1.4,1.3-3.1,1.3c-2.3,0-3.1,0.7-3.1,2.4
	c0,1.3-0.6,2.8-1.2,3.2c-0.7,0.4-1.2,1.9-1.2,3.2c0,1.4-0.9,2.4-2,2.4c-1.3,0-1.7,0.7-1.3,1.9c1,2.7-2.7,8-5.6,8
	c-1.3,0-2.7,0.8-3.1,1.9c-0.4,1-1.5,1.9-2.5,1.9c-1,0-1.7,0.6-1.7,1.4c0,0.8-1,1.1-2.5,0.6c-1.4-0.4-3.5-1.1-4.7-1.5
	c-1.6-0.5-2.9,0.8-5.3,5.3c-1.7,3.3-3.5,6.2-4.1,6.4c-1.1,0.5-1.2,4.2-0.2,7c0.4,1.1,1.8,2,3.1,2c3,0,3,0.6-0.2,5.8
	c-2.4,3.8-2.4,4.4-0.6,6.2c2.9,2.9,2.5,3.6-3.7,5.4c-5.3,1.6-5.9,1.5-8.5-1c-1.6-1.5-4.3-2.7-6.2-2.7c-2.7,0-3.3,0.6-3.3,2.9
	c0,2-1.7,4.1-5.7,6.9c-3.2,2.2-6,5.1-6.4,6.5c-0.3,1.3-1.4,2.4-2.3,2.4c-2.5,0-4.6-4.7-3.7-8.2c0.6-2.4,0.1-3.3-2.4-4.4
	c-1.7-0.8-3.1-2.4-3.1-3.7c0-1.2-0.5-2.5-1.1-2.9c-0.6-0.4-0.8-1.8-0.5-3.2c0.4-1.4,0.1-2.5-0.6-2.5c-0.7,0-2.1-0.3-3.1-0.7
	c-2.8-1.1-7.4,6.3-7.8,12.7c-0.2,3,0.2,5.5,0.8,5.5c2.1,0,1.2,3.1-1.3,4.7c-3.2,2-3.4,8.4-0.3,10.2c1.8,1,1.9,1.5,0.5,2.4
	c-1.2,0.8-1.4,2.3-0.8,5c0.7,3.4,0.5,3.9-2.4,4.7c-1.8,0.4-3.2,1.3-3.2,2c0,2.4-3.8,2.5-7.1,0.1c-1.9-1.3-4.9-2.8-6.7-3.2
	c-3.9-0.9-10.6,2.1-11.6,5.2c-0.7,2-8.7,6.5-11.7,6.5c-0.8,0-3.7,2-6.4,4.5c-3,2.7-5.7,4.2-6.9,3.8c-2.6-1-2.4-2.9,0.6-4.5
	c1.5-0.8,3.3-4.2,4.5-8.5c1.1-3.9,2.6-8.3,3.2-9.6c0.6-1.4,1.2-5.9,1.4-10c0.3-7.4,0.4-7.5,6.1-11.2c3.2-2.1,6.5-5,7.3-6.5
	c0.8-1.5,3.1-3.3,5.1-4c2.5-0.9,3.6-2.1,3.6-4.1c0-2.9,9.7-12.5,15.9-15.8c2.6-1.4,4-5.1,1.9-5.2c-0.5,0-1.7-0.5-2.7-1.1
	c-2.9-1.9,4-10,8.5-10c1.9,0,4.3-0.9,5.1-2c0.9-1.1,3.2-2.8,5.2-3.8c3.1-1.6,3.5-2.4,2.8-5.5c-0.7-3.2-0.4-3.8,2.5-4.9
	c2.5-1,3.1-1.8,2.4-3.4c-0.5-1.2-1.4-4.5-1.9-7.3c-0.6-2.8-2.1-7.3-3.5-10c-1.4-2.7-3.1-9.9-3.8-16.1c-1.6-13-4.4-19.5-8.1-19
	c-2.6,0.3-2.8-1.6-3.2-23.7c-0.1-3.5-0.5-4.1-3.1-4.1c-2,0-3.4-0.9-4.1-2.7c-0.5-1.5-2.9-3.6-5.3-4.7c-3.9-1.8-4.3-2.6-5.1-8.9
	c-0.6-5.1-0.4-7.6,1-9.6c2.6-4.1,7.9-3.7,12.3,0.9c1.9,2,4,3.4,4.5,3.1c0.5-0.3,1.3,0,1.8,0.7c0.4,0.7,2.1,0.9,3.7,0.5
	c1.6-0.4,3.3-0.1,3.8,0.7c0.6,1,1.3,1,2.5,0c2.7-2.2,6.4,0.6,10,7.5c1.7,3.4,3.4,6.2,3.8,6.2c0.4,0,2-0.9,3.6-1.9
	c7.6-5,16-4.9,21.1,0.2c5.8,5.8,9,0.3,5.6-9.6c-2-5.7-3.1-6.3-10.7-5.4c-12.9,1.5-15.7-2.2-14.8-19.4c0.4-7.1,0.1-11.2-0.7-11.5
	c-0.9-0.3-0.9-1.3,0.1-3.1c1.7-3.3,1.9-7.8,0.2-7.8c-2,0-4.8-6.7-6.4-15.1c-1.8-10-3.4-23.9-2.8-25c0.6-1.2,5.1,0.2,6.8,2.2
	c2.5,3,4.4,1.9,7.3-4.4c1.6-3.4,3.7-6.5,4.6-6.8c2.6-1,5.5-9,4.6-12.6c-1.2-4.9,2-6.4,13.1-6.2c6.2,0.1,10.9-0.4,13.4-1.6
	c3.8-1.8,4-1.7,8.5,2.7c3.3,3.3,5.6,4.5,8.4,4.5c4.2,0,9-4.1,10.4-9c0.4-1.6,1.3-4,1.9-5.3s1.4-4,1.8-5.8c0.9-4,4.1-5.3,8.7-3.6
	c4.8,1.8,5.4-1,1.4-6.9c-2.2-3.2-2.9-5.6-2.4-7.3c1.1-3.4,6.2-15.4,8.6-19.8c1-1.9,1.8-4.9,1.8-6.5c0-2.1,0.7-3,2.4-3
	c1.3,0,3.6-1,5.1-2.3c2.7-2.2,2.7-2.4,0.8-6.2c-2.3-4.5-2.7-12.2-0.7-13.5c0.8-0.5,1.1-2.4,0.6-4.5c-1.2-5.9,3.8-12.4,11.5-15.1
	c3.5-1.2,7.7-3.6,9.2-5.2c4.5-4.8,8.9-5.9,17.2-4.2l7.3,1.5l6.9-4.8c6.3-4.3,7.4-4.7,12.2-3.9c2.9,0.5,6.1,0.8,7.2,0.7
	c1-0.1,6.7-0.3,12.6-0.6c6.6-0.3,12.2-1.2,14.6-2.5c6.6-3.4,7.3-2.9,8.1,6.3c0.6,7.7-0.5,13.2-4.5,22.9c-0.6,1.4,1,2.7,5.6,4.8
	c10.8,4.9,13.6,4.9,21.4-0.3l6.9-4.6l5.4,2.7c2.9,1.5,7.4,4.1,9.9,5.8l4.6,3l5.1-2.6c6.5-3.3,12-3.5,10.7-0.4
	c-2.7,6.3-2.3,7.5,2.7,8.1c6.1,0.8,8.4-1.1,11.7-10.1c2.1-5.7,2.3-7.5,1.2-10.1c-1.2-2.7-1.1-3.4,1.2-5.3c2.2-1.8,2.4-2.6,1.2-4.8
	c-0.8-1.5-1.1-4-0.7-5.7c0.6-2.2-0.1-4.1-2.4-6.8c-3.6-4.3-4-6.1-1.3-6.1c1.1,0,2.2-0.8,2.6-1.9C374.3,29.1,377.2,29.5,380.7,33.1z"
	/>
</svg>
