<svg xmlns="http://www.w3.org/2000/svg" viewBox="0 0 512 512">
	<title>setting</title>
<path d="M208.9,511.6L208.9,511.6c-2.3,0-4.7,0-4.7-2.3c-2.3-2.3-2.3-2.3-2.3-4.7l0,0l-14.1-53.9l-2.3-9.4l-7-4.7
	c-14.1-7-25.8-14.1-37.5-21.1l-7-4.7l-9.4,2.3l-49.2,16.4l0,0c-2.3,0-4.7,0-4.7,0c-2.3,0-2.3-2.3-4.7-4.7l0,0l-49.2-86.8l0,0
	c0-2.3-2.3-4.7,0-7c0-2.3,2.3-4.7,2.3-4.7l0,0l37.5-35.2l7-4.7v-9.4c-2.3-14.1-2.3-30.5,0-44.6v-9.4l-7-7l-37.5-32.8l0,0
	c-2.3-2.3-2.3-4.7-2.3-7c0-2.3,0-4.7,2.3-7l0,0l49.2-86.8l0,0c0-2.3,2.3-2.3,4.7-4.7c2.3,0,4.7,0,4.7,0l0,0l49.2,16.4l7,4.7l7-4.7
	c7-4.7,11.7-9.4,18.8-11.7c7-4.7,11.7-7,18.8-9.4l9.4-4.7l2.3-9.4l11.7-51.6c0-2.3,2.3-4.7,2.3-4.7c2.3-2.3,4.7-2.3,4.7-2.3H305
	c2.3,0,4.7,0,4.7,2.3c2.3,2.3,2.3,2.3,2.3,4.7l0,0L323.8,59l2.3,9.4l7,4.7c7,2.3,14.1,7,21.1,9.4l0,0c7,4.7,11.7,7,16.4,11.7
	l9.4,4.7l9.4-2.3l49.2-16.4c2.3,0,4.7,0,4.7,0c2.3,0,2.3,2.3,4.7,4.7l0,0l46.9,84.4l0,0c2.3,4.7,2.3,9.4-2.3,11.7l0,0l-37.5,35.2
	l-7,7v9.4c2.3,14.1,2.3,30.5,0,44.6v9.4l7,7l37.5,35.2l0,0c2.3,2.3,4.7,9.4,2.3,11.7l0,0L448,427.2l0,0c0,2.3-2.3,2.3-4.7,4.7
	c-2.3,0-4.7,0-4.7,0l0,0l-49.2-16.4l-9.4-2.3l-7,4.7c-11.7,9.4-23.4,16.4-37.5,21.1l-7,4.7l-4.7,7L312,502.2l0,0
	c0,2.3-2.3,4.7-2.3,4.7c-2.3,2.3-4.7,2.3-4.7,2.3h-96.1V511.6z M255.8,127c-32.8,0-65.7,14.1-86.8,37.5
	c-23.4,23.4-35.2,56.3-35.2,89.1s14.1,65.7,35.2,89.1c23.4,23.4,53.9,37.5,86.8,37.5s65.7-14.1,86.8-37.5
	c23.4-23.4,35.2-56.3,35.2-89.1s-14.1-65.7-35.2-89.1C321.4,141.1,288.6,127,255.8,127z"/>
</svg>
