<svg width="197" height="111" viewBox="0 0 197 111" fill="none" xmlns="http://www.w3.org/2000/svg">
<path fill-rule="evenodd" clip-rule="evenodd" d="M123.16 89.0829C122.151 89.9963 122.133 91.6716 123.126 92.2319C123.736 92.5763 123.779 92.7714 123.344 93.2116C122.641 93.9208 122.649 94.4576 123.363 94.4576C123.904 94.4576 127.153 91.3207 127.153 90.7991C127.153 90.2244 125.207 88.3623 124.605 88.3623C124.248 88.3623 123.598 88.6867 123.16 89.0829ZM123.895 91.4156C124.665 92.0552 125.412 91.6111 125.412 90.5135C125.412 89.9745 125.113 89.6684 124.588 89.6684C123.534 89.6684 123.102 90.7578 123.895 91.4156Z" fill="#2E2E2E"/>
<path d="M121.844 87.7906C121.172 88.4341 120.623 89.2561 120.623 89.6175C120.623 90.0472 121.15 89.7634 122.146 88.7977C123.597 87.3914 124.029 86.6208 123.368 86.6208C123.201 86.6208 122.515 87.1472 121.844 87.7906Z" fill="#2E2E2E"/>
<path d="M120.915 85.75C120.754 85.75 120.623 85.4561 120.623 85.097C120.623 84.7378 120.427 84.4439 120.187 84.4439C119.948 84.4439 119.752 84.7378 119.752 85.097C119.752 85.5323 119.316 85.75 118.446 85.75C117.727 85.75 117.139 85.9459 117.139 86.1854C117.139 86.6077 118.054 86.8071 119.246 86.6447C119.646 86.5899 119.739 86.8472 119.543 87.4637C119.386 87.9578 119.396 88.3623 119.565 88.3623C120.218 88.3623 123.572 84.9185 123.09 84.7426C122.81 84.6407 122.273 84.8257 121.894 85.1536C121.516 85.4818 121.075 85.75 120.915 85.75Z" fill="#2E2E2E"/>
<path d="M124.106 85.6773C124.106 86.2442 124.623 86.6212 125.044 86.3613C125.494 86.0831 125.106 85.3147 124.515 85.3147C124.29 85.3147 124.106 85.4779 124.106 85.6773Z" fill="#2E2E2E"/>
<path fill-rule="evenodd" clip-rule="evenodd" d="M126.808 92.3647C126.406 92.767 126.501 93.1101 127.231 93.8868C128.301 95.0266 128.071 95.7485 126.983 94.6609C125.888 93.566 125.203 94.1032 126.171 95.2979C127.86 97.3842 131.038 95.1464 129.569 92.9046C128.82 91.7622 127.641 91.5314 126.808 92.3647ZM128.033 93.3796C128.63 94.0993 129.163 93.9386 128.695 93.1806C128.537 92.9251 128.199 92.7161 127.945 92.7161C127.656 92.7161 127.689 92.966 128.033 93.3796Z" fill="#2E2E2E"/>
<path d="M133.918 98.504C134.09 99.1871 133.886 99.7584 133.273 100.313C132.353 101.146 132.104 101.859 132.735 101.859C132.931 101.859 133.75 101.272 134.553 100.554C135.998 99.2642 136.005 99.239 135.176 98.403C134.047 97.2645 133.616 97.2989 133.918 98.504Z" fill="#2E2E2E"/>
<path d="M137.602 99.2759C137.602 99.9921 137.416 100.117 136.688 99.8864C135.899 99.6356 135.816 99.7274 136.082 100.564C136.279 101.185 136.182 101.661 135.811 101.89C135.493 102.086 135.362 102.376 135.519 102.534C135.895 102.909 138.244 102.122 138.293 101.605C138.314 101.386 138.482 100.863 138.666 100.444C139.056 99.5598 138.704 98.376 138.051 98.376C137.804 98.376 137.602 98.7809 137.602 99.2759Z" fill="#2E2E2E"/>
<path d="M140.65 102.994C140.65 103.088 141.054 103.165 141.546 103.165C142.039 103.165 142.327 102.978 142.186 102.749C141.953 102.373 140.65 102.581 140.65 102.994Z" fill="#2E2E2E"/>
<path fill-rule="evenodd" clip-rule="evenodd" d="M50.4251 3.66278C49.1246 2.41324 47.4893 1.08141 46.7906 0.70307C46.0913 0.324725 44.9319 0.00863748 44.2135 0.000365275C42.4698 -0.0196622 39.6421 0.788401 39.6421 1.30694C39.3156 0.70307 39.1301 1.79909 38.322 0.959942C38.322 0.745822 37.7038 0.849657 37.7038 0.995643C37.3711 1.43451 35.9109 2.35533 34.4589 3.04236C31.1139 4.62409 30.0677 6.19538 30.0655 9.64184C30.0646 11.0046 29.8678 12.2406 29.6284 12.3886C28.6649 12.9842 29.1812 15.3827 30.5845 16.8304C31.3499 17.6202 32.1845 18.2663 32.4392 18.2663C32.6934 18.2663 33.1584 18.6773 33.4723 19.1793C33.6101 19.3999 33.7306 19.5688 33.833 19.6906C34.4256 20.3957 34.4124 19.5226 33.6547 17.982C32.7339 16.1094 32.8227 14.7832 33.8689 14.7832C34.2503 14.7832 34.4336 14.6544 34.276 14.4967C33.8376 14.0583 34.8607 13.0417 35.7406 13.0417C36.1703 13.0417 36.587 12.8754 36.6671 12.6716C36.7468 12.4683 37.9384 12.1888 39.3155 12.0504C41.3118 11.8496 41.819 11.9245 41.819 12.42C41.819 12.8088 42.27 13.0417 43.0228 13.0417C43.6846 13.0417 44.9768 13.444 45.8941 13.9355C47.4375 14.7628 47.6395 14.778 48.6087 14.1432C49.1847 13.7657 49.6558 13.2006 49.6558 12.8876C49.6558 12.5746 50.1391 12.0595 50.7294 11.7434C51.6002 11.2776 51.9293 11.2736 52.4709 11.7234C53.3569 12.4587 53.3251 15.162 52.4183 16.1638C51.7439 16.9088 51.7513 16.9601 52.5315 16.9601C53.535 16.9601 55.5739 18.7635 55.9653 19.9969C56.5448 21.822 54.1937 27.8707 51.4352 31.6542C50.3128 33.1932 49.8408 33.5045 48.63 33.5045C47.1794 33.5045 44.6341 31.9855 43.0058 30.1482C42.2435 29.2883 42.2609 29.2787 44.312 29.4555C46.6373 29.6558 48.6366 28.7049 49.8804 26.8071C50.8896 25.2663 52.3351 21.3139 51.8893 21.3139C51.6829 21.3139 51.0969 22.4585 50.5866 23.857C49.5578 26.6791 48.8338 27.505 46.552 28.4581C44.0886 29.4873 41.8081 28.5007 38.6812 25.053C37.6171 23.8796 37.0607 23.5126 37.0485 23.9754C37.0381 24.3616 38.0094 25.5941 39.2067 26.7139C40.404 27.8342 41.3836 28.9235 41.3836 29.1346C41.3836 30.7098 46.6665 34.3753 48.9365 34.3753C51.0917 34.3753 54.3587 29.6475 56.2113 23.8483C57.2301 20.66 56.9488 19.0787 55.0697 17.429L53.6277 16.1629L57.3528 15.853C62.5412 15.4206 68.162 15.9296 70.4843 17.0415C73.5198 18.4953 75.9766 22.4555 79.4505 31.4931C80.4741 34.1559 82.7407 39.8611 84.487 44.1713C86.2337 48.4816 87.7532 52.8071 87.8642 53.7832C88.0518 55.4376 87.9373 55.6679 86.1871 57.1661C81.849 60.8799 73.8454 64.0607 70.7777 63.2906C69.7964 63.0441 69.7903 63.0045 70.3933 60.7897C71.7417 55.839 72.2903 50.2096 72.2929 41.2991C72.295 33.171 72.3717 32.2437 73.1083 31.3943C73.5555 30.8788 74.1432 30.4569 74.4145 30.4569C74.6857 30.4569 74.9078 30.261 74.9078 30.0215C74.9078 29.3044 73.7941 29.5269 72.572 30.4887L71.4247 31.3908V39.6486C71.4247 49.2783 70.9036 54.6853 69.4181 60.4667C69.3088 60.8918 69.2066 61.2917 69.1104 61.6678C68.0595 65.7775 67.7352 67.0457 67.0094 67.347C66.6855 67.4815 66.2816 67.4233 65.6974 67.3392C65.5777 67.3219 65.4504 67.3036 65.3146 67.2856C62.0645 66.8546 60.4745 66.1823 60.7336 65.3486C60.8555 64.9554 61.0039 59.5402 61.0627 53.3143C61.1655 42.4838 61.1189 41.7423 59.9843 36.1673C59.3325 32.9625 58.7987 29.5831 58.7987 28.657C58.7987 27.7314 58.6028 26.9738 58.3634 26.9738C57.6167 26.9738 57.8827 30.7886 59.0582 36.9458C60.2381 43.1247 60.394 45.5859 60.2137 55.1938C60.1053 60.9761 60.1023 60.9913 59.1253 60.7179C56.8469 60.0796 56.1865 59.5006 56.1843 58.1387C56.183 57.2619 55.3984 55.5904 53.9199 53.3143C52.676 51.3986 51.5436 49.7333 51.4043 49.6136C50.4791 48.8203 44.2001 40.0587 42.435 37.099C41.2582 35.1246 40.0422 33.5084 39.7326 33.5071C39.1174 33.5041 40.3578 35.8617 43.2287 40.1515C44.153 41.5321 44.7913 42.8526 44.6476 43.0851C44.5035 43.318 44.6411 43.4159 44.9528 43.3036C45.2946 43.18 46.9891 45.1056 49.2204 48.1546C56.1791 57.6615 56.4429 58.5436 53.3552 61.9892C51.4487 64.1169 51.4304 64.1252 51.022 63.0777C50.796 62.4969 49.6122 59.8193 48.3919 57.1273C46.3813 52.6926 46.1723 51.9359 46.1667 49.0728C46.1606 45.77 45.4962 43.3036 44.9528 43.3036C44.7765 43.3036 45.0813 45.8636 45.1875 48.1986C45.3756 52.329 45.4618 52.6259 48.3792 59.1919L51.3781 65.9403L50.1904 66.9181C49.5374 67.4563 48.0431 68.2164 46.8702 68.6074C44.7639 69.3097 44.7286 69.3062 43.9845 68.3196C43.5701 67.7702 41.7245 64.4169 39.8833 60.8677C36.6863 54.7058 36.4873 54.148 35.4624 48.4994C34.8721 45.2458 34.0052 40.9817 33.5354 39.0238C32.5154 34.7676 32.3826 28.0832 33.2764 25.9446C33.6064 25.1544 34.3966 24.0986 35.0323 23.5988C35.6046 23.1485 35.8993 22.7323 35.8203 22.5121C35.8051 22.47 35.7764 22.4351 35.7332 22.4085C35.0096 21.9609 32.8031 24.4857 32.2842 26.3552C31.5449 29.0179 31.7325 34.6278 32.7121 39.1645C33.2037 41.4393 34.0618 45.7609 34.6195 48.7681C35.5112 53.5781 35.9597 54.8873 38.3477 59.6525C41.3226 65.5885 43.6315 69.4072 44.8914 70.4747C45.6769 71.1404 45.6294 71.3176 43.5304 75.5186C42.028 78.5271 41.3061 80.5403 41.1946 82.0341L41.0331 84.1957L36.0928 85.841C27.5211 88.6949 25.2746 88.5069 25.2746 84.9354C25.2746 84.0425 25.0395 83.0768 24.7521 82.7895C24.1208 82.1581 20.6456 82.0907 20.2677 82.7024C20.1018 82.9706 20.8437 83.1377 22.2012 83.1377H24.4038V84.8309C24.4038 88.1464 25.8658 88.8303 31.5876 88.1934C36.9836 87.5921 38.16 87.549 38.7761 87.93C39.7753 88.5473 37.3716 90.7477 33.488 92.771C29.5509 94.8216 27.1915 97.0368 26.5058 99.3256C26.0992 100.682 25.8049 100.988 24.9076 100.988C23.402 100.988 20.05 99.309 20.05 98.555C20.05 98.2171 19.8541 97.9406 19.6146 97.9406C19.3752 97.9406 19.1793 98.4392 19.1793 99.0487C19.1793 100.368 17.3964 102.294 16.1756 102.294C15.6993 102.294 14.7615 101.823 14.0919 101.247C12.878 100.203 12.8767 100.197 13.724 99.2616C14.7606 98.1157 14.5368 97.9311 10.4717 96.574C5.91371 95.0528 4.8148 94.145 4.33371 91.5057C4.06421 90.025 4.81175 89.0663 7.86986 86.97C8.60216 86.468 8.73322 86.2237 8.27824 86.208C7.90991 86.1959 6.93031 86.7653 6.10135 87.4737C5.27238 88.1825 4.28366 88.7703 3.90488 88.7798C2.94791 88.8047 -0.324829 91.8397 0.311691 92.1118C0.668701 92.2642 0.700928 92.7396 0.420547 93.7166C-0.424088 96.6632 -0.0357361 98.851 1.9435 102.294C4.47348 106.696 6.40741 108.166 9.84778 108.302C12.1017 108.391 12.7361 108.226 14.5412 107.081C15.6893 106.353 17.5453 105.519 18.666 105.227C19.7862 104.935 20.9622 104.45 21.2787 104.148C21.6257 103.818 22.3031 103.712 22.9832 103.883C23.9092 104.116 24.0625 104.038 23.8378 103.453C23.6702 103.016 23.7686 102.78 24.093 102.844C24.3838 102.901 24.5723 102.703 24.5127 102.403C24.4526 102.104 24.7957 101.859 25.2746 101.859C25.8606 101.859 26.1453 102.149 26.1453 102.747C26.1453 104.151 27.6974 106.827 29.3575 108.285C31.8553 110.478 34.2181 110.771 44.4987 110.163C61.8555 109.137 68.9522 108.86 69.5369 109.187C70.4316 109.688 75.6658 108.7 76.3066 107.909C76.7324 107.384 78.5384 107.071 83.833 106.607C87.6644 106.27 92.3177 105.996 94.1733 105.998C96.0289 106 97.5475 105.853 97.5475 105.672C97.5475 105.213 91.0294 105.26 85.9181 105.755L85.6664 105.779C77.7971 106.541 76.4791 106.669 76.2532 106.232C76.2077 106.144 76.2065 106.033 76.205 105.9L76.2047 105.88C76.1995 105.464 75.7154 103.764 75.1285 102.101C74.542 100.438 74.1119 99.0269 74.1733 98.9655C74.3931 98.7457 85.6799 99.7092 90.7991 100.385C94.5882 100.885 97.6985 101.001 102.119 100.807L108.214 100.539L113.003 102.265C118.933 104.402 118.093 104.593 111.915 102.512C111.606 102.408 111.316 102.31 111.045 102.219C107.877 101.151 107.258 100.942 107.145 101.098C107.118 101.136 107.12 101.195 107.123 101.269L107.125 101.3C107.125 101.309 107.125 101.319 107.126 101.329C107.126 101.337 107.126 101.344 107.126 101.352C107.126 101.553 109.489 102.454 112.379 103.356C115.267 104.258 117.54 105.087 117.428 105.198C117.316 105.31 115.145 104.8 112.602 104.066C110.059 103.331 107.64 102.743 107.225 102.759C106.256 102.798 113.982 105.342 115.068 105.342C115.517 105.342 115.776 105.518 115.644 105.732C115.503 105.959 114.63 105.941 113.55 105.69C112.441 105.431 110.212 105.395 107.997 105.599C105.961 105.787 102.973 105.952 101.357 105.968C100.49 105.976 99.4581 105.842 98.687 105.741C98.0195 105.655 97.5475 105.593 97.5475 105.672C97.5483 106.342 101.584 107.142 104.597 106.634C106.605 106.295 109.358 106.2 112.059 106.377C115.952 106.632 116.454 106.576 117.61 105.752C118.309 105.255 118.881 104.507 118.881 104.091C118.881 103.443 119.645 103.258 124.214 102.8L124.512 102.77L125.073 102.714C128.893 102.33 130.257 102.192 131.565 102.402C132.292 102.518 133.002 102.742 134.106 103.089L134.114 103.092L134.263 103.139L134.445 103.196L134.555 103.23C137.527 104.162 138.561 104.25 146.092 104.214C156.65 104.163 171.684 102.584 177.504 100.915C179.305 100.398 182.907 100.756 187.286 101.888C191.386 102.947 192.206 102.172 193.535 95.9801C194.101 93.3465 195.101 89.8208 195.759 88.1446C196.725 85.6843 196.963 84.3555 196.994 81.2508C197.028 77.7112 196.95 77.3381 196.004 76.5705C194.901 75.6753 192.689 75.4494 192.234 76.1852C192.076 76.4408 191.338 76.5178 190.517 76.3637C189.15 76.1073 188.956 76.2448 186.698 79.0713C185.39 80.7092 182.967 83.3128 181.315 84.8575C179.663 86.4018 178.31 87.8712 178.31 88.1228C178.31 88.7093 172.19 89.1216 162.544 89.1843C153.736 89.2418 146.009 88.3601 132.763 85.7866C117.055 82.735 110.076 81.9548 94.7863 81.5403C87.0566 81.3309 84.3524 81.1189 84.1957 80.7105C84.0799 80.4092 84.8592 77.7465 85.9276 74.7928C88.7981 66.8563 89.4107 63.6223 89.1107 57.9889L89.1008 57.8037C89.035 56.5634 88.9848 55.6177 88.86 54.682C88.4595 51.6783 87.2909 48.777 82.371 36.5627L82.1424 35.9953C73.953 15.6644 73.3204 15.0331 61.1193 15.0127L54.0792 15.0009L53.8328 13.4771C53.6974 12.639 53.407 10.5988 53.1876 8.94349C52.8058 6.06258 52.6878 5.83706 50.4251 3.66278ZM51.3246 14.7832C51.5244 14.7832 51.6877 14.2042 51.6877 13.4963C51.6877 12.7883 51.5244 12.3103 51.3246 12.4335C51.1252 12.5567 50.9619 13.1358 50.9619 13.7205C50.9619 14.3052 51.1252 14.7832 51.3246 14.7832ZM68.0505 17.8405C68.7088 17.8352 69.2478 17.635 69.2478 17.3955C69.2478 16.6915 66.5602 16.9144 64.6763 17.7747C62.2787 18.8697 58.0986 23.4908 59.5058 23.4908C59.6551 23.4908 60.5781 22.5809 61.5569 21.4693C63.4442 19.3251 66.0726 17.8561 68.0505 17.8405ZM58.9633 76.5518C60.0979 76.035 60.5403 74.148 60.5403 69.8234C60.5403 68.5543 60.687 67.4441 60.8668 67.3566C61.0466 67.2691 62.075 67.4376 63.1525 67.731C64.2301 68.0244 65.5523 68.2804 66.0913 68.3C66.6303 68.3192 67.0709 68.442 67.0709 68.573C67.0709 68.8364 64.1404 79.0704 63.7834 80.054C63.6123 80.5246 63.4386 80.5503 63.0506 80.1624C62.6627 79.7744 62.2012 79.9839 61.1058 81.0458C59.4422 82.658 59.3303 82.462 60.549 80.0727C61.455 78.2968 62.1564 77.962 63.0654 78.871C63.4059 79.2115 63.5879 79.2298 63.5879 78.9241C63.5879 77.9637 62.3688 77.5018 60.1811 77.6324C57.7782 77.7761 57.2688 77.3241 58.9633 76.5518ZM46.9347 69.4442C47.593 69.2836 48.8625 68.6749 49.7555 68.0906C51.6916 66.8241 51.7826 66.8123 52.1331 67.7906C53.1009 70.4935 54.1502 72.9952 55.1106 74.8908C56.3523 77.3407 56.2213 77.9911 54.5211 77.8157C53.5999 77.7208 53.3273 77.9001 53.2172 78.6751C53.141 79.2141 52.9107 79.6547 52.7061 79.6547C52.373 79.6547 45.7374 70.3899 45.7374 69.9253C45.7374 69.8208 46.2764 69.6044 46.9347 69.4442ZM64.3868 80.1989C64.6036 79.7801 65.322 77.4778 65.9829 75.0832C66.6438 72.6887 67.4771 70.4356 67.8346 70.0764C68.4123 69.4965 68.4576 69.5452 68.2382 70.5118C68.1024 71.1104 67.7488 73.7061 67.4528 76.2805L66.9142 80.9609H65.4535C64.2022 80.9609 64.0494 80.8516 64.3868 80.1989ZM194.67 85.5323C195.324 83.81 195.672 81.9191 195.694 79.9817C195.711 78.3656 195.763 77.0433 195.809 77.0429C196.24 77.0403 196.496 78.5153 196.481 80.9143C196.468 83.0167 196.049 85.0452 194.942 88.3684C194.105 90.8792 193.086 94.5991 192.677 96.6345C192.268 98.6699 191.734 100.58 191.49 100.879C191.247 101.179 190.457 101.424 189.735 101.424H188.423L189.548 100.299C190.282 99.5642 190.843 98.319 191.163 96.7072C191.674 94.1385 192.972 90.0002 194.67 85.5323ZM57.9223 82.267C57.2148 82.267 57.4334 80.9413 58.3991 79.3796C59.2528 77.9977 60.5403 77.3829 60.5403 78.3573C60.5403 79.0648 58.3964 82.267 57.9223 82.267ZM56.1351 82.4485C55.4541 83.2135 55.2953 81.5865 55.8852 79.8833C56.4634 78.2127 57.0568 77.6224 57.6054 78.1709C57.8914 78.4574 56.7612 81.7458 56.1351 82.4485ZM53.9608 82.89C53.7484 82.7585 53.5742 81.6832 53.5742 80.4998C53.5742 78.4931 54.0348 77.7682 54.6635 78.7853C55.058 79.4235 54.4162 83.1713 53.9608 82.89ZM49.5152 81.8577C49.3179 81.6649 49.7098 81.3745 50.3859 81.2129C51.0621 81.0514 51.9812 80.8102 52.4283 80.677C52.9803 80.512 53.1797 80.6204 53.0491 81.0127C52.8206 81.6975 50.032 82.3645 49.5152 81.8577ZM63.1743 82.7899C65.2319 82.9026 65.5301 82.8191 65.4191 82.1581C65.3007 81.4528 65.9677 81.3962 74.4275 81.3962C79.4527 81.3962 83.6593 81.5508 83.776 81.7393C84.392 82.7363 85.4108 90.2175 85.504 94.4258C85.5959 98.592 85.5188 99.2224 84.9393 99.0604C84.5701 98.9577 81.8246 98.7374 78.8375 98.5706C75.2456 98.3708 73.0761 98.0517 72.4317 97.6293C71.7038 97.1526 70.7638 97.0607 68.7197 97.2662C58.3773 98.3068 45.1487 97.7643 43.0511 96.2131C41.5242 95.0846 41.0205 95.0763 42.0345 96.1965C43.3571 97.6581 45.5624 97.9794 56.1133 98.248L66.2711 98.5062L66.7218 99.6386C66.9695 100.261 67.323 102.142 67.5076 103.818C67.6918 105.494 67.9839 107.209 68.1563 107.628C68.4393 108.315 68.1346 108.391 65.0495 108.399C63.1682 108.404 57.4164 108.694 52.2681 109.043C39.05 109.939 33.798 109.89 31.5057 108.849C29.3985 107.892 27.246 105.18 26.8289 102.956C26.1362 99.2638 28.3549 96.1277 33.6156 93.3631C36.968 91.6015 39.6421 89.466 39.6421 88.5504C39.6421 87.6544 37.9833 86.9512 36.3271 87.1445C34.4532 87.3635 34.4188 86.8289 36.2679 86.2307C38.8571 85.393 47.6678 83.2209 49.6906 82.9209C51.6651 82.6288 51.689 82.6401 52.1009 84.076C52.5706 85.7148 54.0096 86.3639 54.0096 84.9367C54.0096 83.5879 54.6522 83.4917 55.7637 84.6751C57.5993 86.6286 59.1793 85.8027 57.6855 83.6702C56.8017 82.4081 57.534 82.4324 59.0918 83.7168C60.6439 84.9959 61.7402 85.4035 62.0928 84.8327C62.2435 84.5889 62.0149 83.9998 61.5843 83.5244C60.8119 82.6706 60.832 82.661 63.1743 82.7899ZM63.1608 82.361C62.432 82.2539 61.7284 81.9931 61.5978 81.7815C61.347 81.3762 61.5203 81.3666 62.9348 81.7067C64.3964 82.058 64.5723 82.5683 63.1608 82.361ZM16.567 83.2126C16.567 82.9558 16.2361 82.5604 15.8312 82.334C14.8433 81.7811 14.172 82.0972 13.582 83.392C13.3121 83.9846 12.6486 84.6472 12.1078 84.8645L11.1248 85.2593L12.0874 85.2872C13.0439 85.3147 13.4449 85.006 14.5756 83.372C15.0784 82.6449 15.2709 82.604 15.8669 83.0986C16.2944 83.4534 16.567 83.4978 16.567 83.2126ZM53.2477 82.8469C53.7618 84.103 53.6647 85.5794 53.1049 85.0195C52.8467 84.7613 52.6995 83.9872 52.7783 83.2997C52.8954 82.2735 52.9795 82.1921 53.2477 82.8469ZM61.1106 84.4439C60.8711 84.4439 60.3204 84.052 59.8872 83.5731C59.454 83.0942 59.2951 82.7024 59.5345 82.7024C59.774 82.7024 60.3247 83.0942 60.7579 83.5731C61.1911 84.052 61.3501 84.4439 61.1106 84.4439ZM20.2803 85.097C20.0992 84.618 19.8528 83.8831 19.7322 83.4643C19.6116 83.0454 19.3269 82.7024 19.0992 82.7024C18.5349 82.7024 19.117 84.5096 19.9408 85.3147C20.5377 85.8976 20.5738 85.8745 20.2803 85.097ZM57.7029 85.2493C57.443 85.5097 55.7511 83.9981 55.7511 83.5056C55.7511 83.3032 55.9357 83.1377 56.1616 83.1377C56.6601 83.1377 57.9911 84.9611 57.7029 85.2493ZM120.623 85.097C120.623 85.4561 120.754 85.75 120.915 85.75C121.075 85.75 121.516 85.4818 121.894 85.1536C122.273 84.8257 122.81 84.6407 123.09 84.7426C123.572 84.9185 120.218 88.3623 119.565 88.3623C119.396 88.3623 119.386 87.9578 119.543 87.4637C119.739 86.8472 119.646 86.5899 119.246 86.6447C118.054 86.8071 117.139 86.6077 117.139 86.1854C117.139 85.9459 117.727 85.75 118.446 85.75C119.316 85.75 119.752 85.5323 119.752 85.097C119.752 84.7378 119.948 84.4439 120.187 84.4439C120.427 84.4439 120.623 84.7378 120.623 85.097ZM125.044 86.3613C124.623 86.6212 124.106 86.2442 124.106 85.6773C124.106 85.4779 124.29 85.3147 124.515 85.3147C125.106 85.3147 125.494 86.0831 125.044 86.3613ZM11.3546 88.7977C11.6764 89.2818 11.7643 89.0289 11.6942 87.8181C11.6424 86.9203 11.4439 86.1854 11.2536 86.1854C10.7643 86.1854 10.8348 88.0162 11.3546 88.7977ZM120.623 89.6175C120.623 89.2561 121.172 88.4341 121.844 87.7906C122.515 87.1472 123.201 86.6208 123.368 86.6208C124.029 86.6208 123.597 87.3914 122.146 88.7977C121.15 89.7634 120.623 90.0472 120.623 89.6175ZM14.0057 88.3623C14.4606 88.3623 14.4767 88.2234 14.1258 87.3096C13.7422 86.3099 13.1245 86.4632 13.3931 87.4915C13.5185 87.9705 13.7941 88.3623 14.0057 88.3623ZM123.126 92.2319C122.133 91.6716 122.151 89.9963 123.16 89.0829C123.598 88.6867 124.248 88.3623 124.605 88.3623C125.207 88.3623 127.153 90.2244 127.153 90.7991C127.153 91.3207 123.904 94.4576 123.363 94.4576C122.649 94.4576 122.641 93.9208 123.344 93.2116C123.779 92.7714 123.736 92.5763 123.126 92.2319ZM177.683 90.5392C176.097 90.5392 175.582 89.8596 176.9 89.5061C178.151 89.1708 178.322 89.1725 178.673 89.5235C179.294 90.1439 178.908 90.5392 177.683 90.5392ZM123.895 91.4156C124.665 92.0552 125.412 91.6111 125.412 90.5135C125.412 89.9745 125.113 89.6684 124.588 89.6684C123.534 89.6684 123.102 90.7578 123.895 91.4156ZM177.411 95.7694C177.393 92.6834 177.537 91.41 177.903 91.41C178.187 91.41 178.982 91.302 179.671 91.1701C180.892 90.9354 180.947 91.0068 181.957 94.1502C182.95 97.2471 182.961 97.4147 182.233 98.5262C181.666 99.3909 181.113 99.6822 180.037 99.6822C179.246 99.6822 178.337 99.7827 178.017 99.9055C177.557 100.082 177.431 99.2206 177.411 95.7694ZM21.6827 95.7607C22.2435 95.7555 23.9693 92.9225 23.9514 92.036C23.9388 91.4221 23.7795 91.548 23.365 92.4984C23.052 93.2172 22.472 94.0736 22.0759 94.4023C21.3292 95.0219 21.1141 95.7659 21.6827 95.7607ZM127.231 93.8868C126.501 93.1101 126.406 92.767 126.808 92.3647C127.641 91.5314 128.82 91.7622 129.569 92.9046C131.038 95.1464 127.86 97.3842 126.171 95.2979C125.203 94.1032 125.888 93.566 126.983 94.6609C128.071 95.7485 128.301 95.0266 127.231 93.8868ZM128.033 93.3796C128.63 94.0993 129.163 93.9386 128.695 93.1806C128.537 92.9251 128.199 92.7161 127.945 92.7161C127.656 92.7161 127.689 92.966 128.033 93.3796ZM130.489 97.1469C129.581 96.1443 129.57 95.4969 130.454 95.1573L130.508 95.1367L130.562 95.1155L130.567 95.1139L130.569 95.1129C130.888 94.9896 131.072 94.9183 131.249 94.934C131.49 94.9555 131.717 95.1396 132.254 95.5754L132.259 95.5795C132.302 95.6147 132.348 95.6516 132.395 95.6902C133.155 96.3058 133.314 96.7512 133.09 97.6428C132.634 99.4597 129.693 99.8285 129.049 98.1496C128.643 97.0921 129.268 96.8187 129.952 97.7539C130.289 98.2149 130.711 98.447 130.888 98.2694C131.066 98.0913 130.886 97.5867 130.489 97.1469ZM131.516 96.8626C132.113 97.5823 132.646 97.4217 132.178 96.6637C132.02 96.4081 131.682 96.1991 131.428 96.1991C131.139 96.1991 131.172 96.449 131.516 96.8626ZM133.273 100.313C133.886 99.7584 134.09 99.1871 133.918 98.504C133.616 97.2989 134.047 97.2645 135.176 98.403C136.005 99.239 135.998 99.2642 134.553 100.554C133.75 101.272 132.931 101.859 132.735 101.859C132.104 101.859 132.353 101.146 133.273 100.313ZM67.9439 103.311C67.7336 101.435 67.4284 99.4592 67.2655 98.9202C66.9812 97.9798 67.0744 97.9406 69.6009 97.9406C71.8658 97.9406 72.3477 98.0874 73.0609 98.9938C74.0252 100.22 75.9609 106.415 75.6409 107.25C75.4646 107.709 71.5066 108.825 70.0559 108.825C69.2021 108.825 68.2961 106.46 67.9439 103.311ZM136.688 99.8864C137.416 100.117 137.602 99.9921 137.602 99.2759C137.602 98.7809 137.804 98.376 138.051 98.376C138.704 98.376 139.056 99.5598 138.666 100.444C138.482 100.863 138.314 101.386 138.293 101.605C138.244 102.122 135.895 102.909 135.519 102.534C135.362 102.376 135.493 102.086 135.811 101.89C136.182 101.661 136.279 101.185 136.082 100.564C135.816 99.7274 135.899 99.6356 136.688 99.8864ZM141.546 103.165C141.054 103.165 140.65 103.088 140.65 102.994C140.65 102.581 141.953 102.373 142.186 102.749C142.327 102.978 142.039 103.165 141.546 103.165Z" fill="#2E2E2E"/>
<path d="M35.8203 22.5121C35.8051 22.47 35.7764 22.4351 35.7332 22.4085C35.2276 21.684 34.3357 20.4072 33.833 19.6906C34.4256 20.3957 34.4124 19.5226 33.6547 17.982C34.0071 18.5185 34.5135 19.2771 35.0858 20.1154C34.9415 20.3022 34.8529 20.4625 34.8529 20.5551C34.8529 20.705 35.0846 20.7098 35.4094 20.5875C36.5181 22.1989 37.8001 23.9966 38.6812 25.053C37.6171 23.8796 37.0607 23.5126 37.0485 23.9754L35.8203 22.5121Z" fill="#2E2E2E"/>
<path d="M34.8529 20.5551C34.8529 20.4625 34.9415 20.3022 35.0858 20.1154C35.1916 20.2703 35.2997 20.428 35.4094 20.5875C35.0846 20.7098 34.8529 20.705 34.8529 20.5551Z" fill="#2E2E2E"/>
<path fill-rule="evenodd" clip-rule="evenodd" d="M130.454 95.1573C129.57 95.4969 129.581 96.1443 130.489 97.1469C130.886 97.5867 131.066 98.0913 130.888 98.2694C130.711 98.447 130.289 98.2149 129.952 97.7539C129.268 96.8187 128.643 97.0921 129.049 98.1496C129.693 99.8285 132.634 99.4597 133.09 97.6428C133.314 96.7512 133.155 96.3058 132.395 95.6902C132.348 95.6516 132.302 95.6147 132.259 95.5795L132.254 95.5754C131.717 95.1396 131.49 94.9555 131.249 94.934C131.072 94.9183 130.888 94.9896 130.569 95.1129L130.567 95.1139L130.562 95.1155L130.508 95.1367L130.454 95.1573ZM131.516 96.8626C132.113 97.5823 132.646 97.4217 132.178 96.6637C132.02 96.4081 131.682 96.1991 131.428 96.1991C131.139 96.1991 131.172 96.449 131.516 96.8626Z" fill="#2E2E2E"/>
<path d="M34.8529 20.5551C34.8529 20.4625 34.9415 20.3022 35.0858 20.1154C35.1916 20.2703 35.2997 20.428 35.4094 20.5874C35.0846 20.7098 34.8529 20.705 34.8529 20.5551Z" fill="#FFC42E"/>
<path fill-rule="evenodd" clip-rule="evenodd" d="M33.833 19.6906C33.7306 19.5688 33.6101 19.3999 33.4723 19.1793C33.5105 19.2317 33.6443 19.4217 33.833 19.6906ZM35.8203 22.5121C35.8051 22.47 35.7764 22.4351 35.7332 22.4085L35.8203 22.5121ZM68.0505 17.8405C68.7088 17.8352 69.2478 17.635 69.2478 17.3955C69.2478 16.6915 66.5602 16.9144 64.6763 17.7747C62.2787 18.8697 58.0986 23.4908 59.5058 23.4908C59.6551 23.4908 60.5781 22.5809 61.5569 21.4693C63.4442 19.3251 66.0726 17.8561 68.0505 17.8405Z" fill="#FFC42E"/>
<path fill-rule="evenodd" clip-rule="evenodd" d="M35.0323 23.5988C34.3966 24.0986 33.6064 25.1544 33.2764 25.9446C32.3826 28.0832 32.5154 34.7676 33.5354 39.0238C34.0052 40.9817 34.8721 45.2458 35.4624 48.4994C36.4873 54.148 36.6863 54.7057 39.8833 60.8677C41.7245 64.4169 43.5701 67.7702 43.9845 68.3196C44.7286 69.3062 44.7639 69.3097 46.8702 68.6074C48.0431 68.2164 49.5374 67.4563 50.1904 66.9181L51.3781 65.9403L48.3792 59.1919C45.4618 52.6259 45.3756 52.329 45.1875 48.1986C45.1464 47.2951 45.0755 46.358 45.0144 45.5485C44.9211 44.3141 44.8503 43.3765 44.9414 43.3077C44.6377 43.4135 44.5053 43.3151 44.6476 43.0851C44.7913 42.8526 44.153 41.5321 43.2287 40.1515C40.3578 35.8617 39.1174 33.5041 39.7326 33.5071C40.0422 33.5084 41.2582 35.1246 42.435 37.099C44.2001 40.0587 50.4791 48.8203 51.4043 49.6136C51.5436 49.7333 52.676 51.3986 53.9199 53.3143C55.3984 55.5904 56.183 57.2619 56.1843 58.1387C56.1865 59.5006 56.8469 60.0796 59.1253 60.7179C60.1023 60.9913 60.1053 60.9761 60.2137 55.1938C60.394 45.5859 60.2381 43.1247 59.0582 36.9458C57.8827 30.7886 57.6167 26.9738 58.3634 26.9738C58.6028 26.9738 58.7987 27.7314 58.7987 28.657C58.7987 29.5831 59.3325 32.9625 59.9843 36.1673C61.1189 41.7423 61.1655 42.4838 61.0627 53.3143C61.0039 59.5402 60.8555 64.9554 60.7336 65.3486C60.4745 66.1823 62.0645 66.8546 65.3146 67.2856C65.4498 67.3035 65.5766 67.3218 65.6959 67.339L65.6974 67.3392C66.2816 67.4233 66.6855 67.4815 67.0094 67.347C67.7352 67.0457 68.0595 65.7775 69.1104 61.6678C69.2066 61.2917 69.3088 60.8918 69.4181 60.4667C70.9036 54.6853 71.4247 49.2783 71.4247 39.6486V31.3908L72.572 30.4887C73.7941 29.5269 74.9078 29.3044 74.9078 30.0215C74.9078 30.261 74.6857 30.4569 74.4145 30.4569C74.1432 30.4569 73.5555 30.8788 73.1083 31.3942C72.3717 32.2437 72.295 33.171 72.2929 41.2991C72.2903 50.2096 71.7417 55.839 70.3933 60.7897C69.7903 63.0045 69.7964 63.0441 70.7778 63.2906C73.8454 64.0607 81.849 60.8799 86.1871 57.1661C87.9373 55.6679 88.0518 55.4376 87.8642 53.7832C87.7532 52.8071 86.2337 48.4816 84.487 44.1713C82.7407 39.8611 80.4741 34.1559 79.4505 31.4931C75.9766 22.4555 73.5198 18.4953 70.4843 17.0415C68.162 15.9296 62.5413 15.4206 57.3528 15.853L53.6277 16.1629L55.0697 17.429C56.9488 19.0787 57.2301 20.66 56.2113 23.8483C54.3587 29.6475 51.0917 34.3753 48.9365 34.3753C46.6665 34.3753 41.3836 30.7098 41.3836 29.1346C41.3836 28.9235 40.404 27.8342 39.2067 26.7139C38.0094 25.5941 37.0381 24.3616 37.0485 23.9754L35.8203 22.5121C35.8993 22.7323 35.6046 23.1485 35.0323 23.5988ZM44.9414 43.3077C44.9452 43.3063 44.949 43.305 44.9528 43.3036C44.9487 43.3036 44.945 43.305 44.9414 43.3077ZM69.2478 17.3955C69.2478 17.635 68.7088 17.8352 68.0505 17.8405C66.0726 17.8561 63.4442 19.3251 61.5569 21.4693C60.5781 22.5809 59.6551 23.4908 59.5058 23.4908C58.0986 23.4908 62.2787 18.8697 64.6763 17.7747C66.5602 16.9144 69.2478 16.6915 69.2478 17.3955Z" fill="#FFC42E"/>
<path d="M34.8529 20.5551C34.8529 20.4625 34.9415 20.3022 35.0858 20.1154C35.1916 20.2703 35.2997 20.428 35.4094 20.5874C35.0846 20.7098 34.8529 20.705 34.8529 20.5551Z" fill="#2E8EFF"/>
<path d="M65.4191 82.1581C65.5301 82.819 65.2319 82.9026 63.1743 82.7899C60.832 82.661 60.8119 82.6706 61.5843 83.5244C62.0149 83.9998 62.2435 84.5889 62.0928 84.8327C61.7402 85.4035 60.6439 84.9959 59.0918 83.7168C57.534 82.4324 56.8017 82.4081 57.6855 83.6702C59.1793 85.8027 57.5993 86.6286 55.7637 84.6751C54.6522 83.4917 54.0096 83.5879 54.0096 84.9367C54.0096 86.3639 52.5706 85.7148 52.1009 84.076C51.689 82.6401 51.6651 82.6288 49.6906 82.9209C47.6678 83.2209 38.8571 85.393 36.2679 86.2307C34.4188 86.8289 34.4532 87.3635 36.3271 87.1445C37.9833 86.9512 39.6421 87.6544 39.6421 88.5504C39.6421 89.466 36.968 91.6015 33.6156 93.3631C28.3549 96.1277 26.1362 99.2637 26.8289 102.956C27.246 105.18 29.3985 107.892 31.5057 108.849C33.798 109.89 39.05 109.939 52.2681 109.043C57.4164 108.694 63.1682 108.404 65.0495 108.399C68.1346 108.391 68.4393 108.315 68.1563 107.628C67.9839 107.209 67.6918 105.494 67.5076 103.818C67.323 102.142 66.9695 100.261 66.7218 99.6386L66.2711 98.5062L56.1133 98.248C45.5624 97.9794 43.3571 97.6581 42.0345 96.1965C41.0205 95.0763 41.5242 95.0846 43.0511 96.2131C45.1487 97.7643 58.3773 98.3068 68.7197 97.2662C70.7638 97.0607 71.7038 97.1526 72.4317 97.6293C73.0761 98.0517 75.2456 98.3708 78.8375 98.5706C81.8246 98.7374 84.5701 98.9577 84.9393 99.0604C85.5188 99.2224 85.5959 98.592 85.504 94.4258C85.4108 90.2174 84.392 82.7363 83.776 81.7393C83.6593 81.5508 79.4527 81.3962 74.4275 81.3962C65.9677 81.3962 65.3007 81.4528 65.4191 82.1581Z" fill="#2E8EFF"/>
<path d="M67.2655 98.9202C67.4284 99.4592 67.7336 101.435 67.9439 103.311C68.2961 106.46 69.2021 108.825 70.0559 108.825C71.5066 108.825 75.4646 107.709 75.6409 107.25C75.9609 106.415 74.0252 100.22 73.0609 98.9938C72.3477 98.0874 71.8658 97.9406 69.6009 97.9406C67.0744 97.9406 66.9812 97.9798 67.2655 98.9202Z" fill="#2E8EFF"/>
<path fill-rule="evenodd" clip-rule="evenodd" d="M33.833 19.6906C33.7306 19.5688 33.6101 19.3999 33.4723 19.1793C33.5105 19.2317 33.6443 19.4217 33.833 19.6906ZM35.8203 22.5121C35.8051 22.47 35.7764 22.4351 35.7332 22.4085L35.8203 22.5121Z" fill="#2E8EFF"/>
<path d="M35.8203 22.5121C35.8051 22.47 35.7764 22.4351 35.7332 22.4085C35.2276 21.684 34.3357 20.4072 33.833 19.6906C34.4256 20.3957 34.4124 19.5226 33.6547 17.982C34.0071 18.5185 34.5135 19.2771 35.0858 20.1154C34.9415 20.3022 34.8529 20.4625 34.8529 20.5551C34.8529 20.705 35.0846 20.7098 35.4094 20.5875C36.5181 22.1989 37.8001 23.9966 38.6812 25.053C37.6171 23.8796 37.0607 23.5126 37.0485 23.9754L35.8203 22.5121Z" fill="#FFE7C3"/>
<path d="M34.8529 20.5551C34.8529 20.4625 34.9415 20.3022 35.0858 20.1154C35.1916 20.2703 35.2997 20.428 35.4094 20.5875C35.0846 20.7098 34.8529 20.705 34.8529 20.5551Z" fill="#FFE7C3"/>
<path fill-rule="evenodd" clip-rule="evenodd" d="M4.33371 91.5057C4.06421 90.025 4.81175 89.0663 7.86986 86.97L12.0874 85.2872C13.0439 85.3147 13.4449 85.006 14.5756 83.372C15.0784 82.6449 15.2709 82.604 15.8669 83.0986C16.2944 83.4534 16.567 83.4978 16.567 83.2126C17.2467 83.0135 18.7048 82.6327 19.0992 82.7024C18.5349 82.7024 19.117 84.5096 19.9408 85.3147C20.5376 85.8976 20.5738 85.8745 20.2803 85.097C20.0992 84.618 19.8528 83.8831 19.7322 83.4643C19.6116 83.0455 19.3269 82.7024 19.0992 82.7024H20.2677C20.1018 82.9706 20.8437 83.1377 22.2012 83.1377H24.4038V84.8309C24.4038 88.1464 25.8658 88.8303 31.5876 88.1934C36.9836 87.5921 38.16 87.549 38.7761 87.93C39.7753 88.5473 37.3716 90.7477 33.488 92.771C29.5509 94.8216 27.1915 97.0368 26.5058 99.3256C26.0992 100.682 25.8049 100.988 24.9076 100.988C23.402 100.988 20.05 99.309 20.05 98.555C20.05 98.2171 19.8541 97.9406 19.6146 97.9406C19.3752 97.9406 19.1793 98.4392 19.1793 99.0487C19.1793 100.368 17.3964 102.294 16.1756 102.294C15.6993 102.294 14.7615 101.823 14.0919 101.247C12.878 100.203 12.8767 100.197 13.724 99.2616C14.7606 98.1157 14.5368 97.9311 10.4717 96.574C5.91371 95.0528 4.8148 94.145 4.33371 91.5057ZM11.3546 88.7977C11.6764 89.2818 11.7643 89.0289 11.6942 87.8181C11.6424 86.9203 11.4439 86.1854 11.2536 86.1854C10.7643 86.1854 10.8348 88.0162 11.3546 88.7977ZM14.0057 88.3623C14.4606 88.3623 14.4767 88.2234 14.1258 87.3096C13.7423 86.3099 13.1245 86.4632 13.3931 87.4915C13.5185 87.9705 13.7941 88.3623 14.0057 88.3623ZM21.6827 95.7607C22.2435 95.7555 23.9693 92.9225 23.9514 92.036C23.9388 91.4221 23.7795 91.548 23.365 92.4984C23.052 93.2172 22.472 94.0736 22.0759 94.4023C21.3292 95.0219 21.1141 95.7659 21.6827 95.7607Z" fill="#FFE7C3"/>
<path d="M107.997 105.599C105.961 105.787 102.973 105.952 101.357 105.968C100.598 105.975 99.7136 105.873 98.9876 105.78C98.8843 105.767 98.7842 105.754 98.6882 105.742L98.687 105.741C98.0195 105.655 97.5475 105.593 97.5475 105.672C97.5475 105.213 91.0294 105.26 85.9181 105.755L85.6664 105.779C77.7971 106.541 76.4791 106.669 76.2532 106.232C76.2077 106.144 76.2065 106.033 76.205 105.9L76.2047 105.88C76.1995 105.464 75.7154 103.764 75.1285 102.101C74.542 100.438 74.1119 99.0269 74.1733 98.9655C74.3931 98.7457 85.6799 99.7092 90.7991 100.385C94.5882 100.885 97.6985 101.001 102.119 100.807L108.214 100.539L113.003 102.265C118.933 104.402 118.093 104.593 111.915 102.512C111.606 102.408 111.316 102.31 111.045 102.219C107.877 101.151 107.258 100.942 107.145 101.098C107.118 101.136 107.12 101.195 107.123 101.269L107.125 101.3C107.125 101.309 107.125 101.319 107.126 101.329C107.126 101.337 107.126 101.344 107.126 101.352C107.126 101.553 109.489 102.454 112.379 103.356C115.267 104.258 117.54 105.087 117.428 105.198C117.316 105.31 115.145 104.8 112.602 104.066C110.059 103.331 107.64 102.743 107.225 102.759C106.256 102.798 113.982 105.342 115.068 105.342C115.517 105.342 115.776 105.518 115.644 105.732C115.503 105.959 114.63 105.941 113.55 105.69C112.441 105.431 110.212 105.395 107.997 105.599Z" fill="#FFE7C3"/>
<path d="M60.5403 69.8234C60.5403 74.148 60.0979 76.035 58.9633 76.5518C57.2688 77.3241 57.7782 77.7761 60.1811 77.6324C62.3688 77.5018 63.5879 77.9637 63.5879 78.9241C63.5879 79.2298 63.4059 79.2115 63.0654 78.871C62.1564 77.962 61.455 78.2968 60.549 80.0727C59.3303 82.462 59.4422 82.658 61.1058 81.0458C62.2012 79.9839 62.6627 79.7744 63.0506 80.1624C63.4386 80.5503 63.6123 80.5246 63.7834 80.054C64.1404 79.0704 67.0709 68.8364 67.0709 68.573C67.0709 68.442 66.6303 68.3192 66.0913 68.3C65.5523 68.2804 64.2301 68.0244 63.1525 67.731C62.075 67.4376 61.0466 67.2691 60.8668 67.3566C60.687 67.4441 60.5403 68.5543 60.5403 69.8234Z" fill="#FFE7C3"/>
<path d="M49.7555 68.0906C48.8625 68.6749 47.593 69.2836 46.9347 69.4442C46.2764 69.6044 45.7374 69.8208 45.7374 69.9253C45.7374 70.3899 52.373 79.6547 52.7061 79.6547C52.9107 79.6547 53.141 79.2141 53.2172 78.6751C53.3273 77.9001 53.5999 77.7208 54.5211 77.8157C56.2213 77.9911 56.3523 77.3407 55.1106 74.8908C54.1502 72.9952 53.1009 70.4935 52.1331 67.7906C51.7826 66.8123 51.6916 66.8241 49.7555 68.0906Z" fill="#FFE7C3"/>
<path d="M53.5742 80.4998C53.5742 81.6832 53.7483 82.7585 53.9608 82.89C54.4162 83.1713 55.058 79.4235 54.6635 78.7853C54.0348 77.7682 53.5742 78.4931 53.5742 80.4998Z" fill="#FFE7C3"/>
<path d="M55.8852 79.8833C55.2952 81.5865 55.4541 83.2135 56.1351 82.4485C56.7612 81.7458 57.8914 78.4574 57.6054 78.1709C57.0568 77.6224 56.4634 78.2127 55.8852 79.8833Z" fill="#FFE7C3"/>
<path d="M58.3991 79.3796C57.4334 80.9413 57.2148 82.267 57.9223 82.267C58.3965 82.267 60.5403 79.0648 60.5403 78.3573C60.5403 77.3829 59.2528 77.9977 58.3991 79.3796Z" fill="#FFE7C3"/>
<path d="M55.7511 83.5056C55.7511 83.9981 57.443 85.5097 57.7029 85.2493C57.9911 84.9611 56.6601 83.1377 56.1616 83.1377C55.9357 83.1377 55.7511 83.3032 55.7511 83.5056Z" fill="#FFE7C3"/>
<path d="M59.8872 83.5731C60.3204 84.052 60.8711 84.4439 61.1106 84.4439C61.3501 84.4439 61.1911 84.052 60.7579 83.5731C60.3247 83.0942 59.774 82.7024 59.5345 82.7024C59.2951 82.7024 59.454 83.0942 59.8872 83.5731Z" fill="#FFE7C3"/>
<path d="M61.5978 81.7815C61.7284 81.9931 62.432 82.2539 63.1608 82.361C64.5723 82.5683 64.3964 82.058 62.9348 81.7067C61.5203 81.3666 61.347 81.3762 61.5978 81.7815Z" fill="#FFE7C3"/>
<path d="M50.3859 81.2129C49.7098 81.3745 49.3179 81.6649 49.5152 81.8577C50.032 82.3645 52.8206 81.6975 53.0491 81.0127C53.1797 80.6204 52.9803 80.512 52.4283 80.677C51.9811 80.8102 51.0621 81.0514 50.3859 81.2129Z" fill="#FFE7C3"/>
<path d="M53.1049 85.0195C53.6647 85.5794 53.7618 84.103 53.2477 82.8469C52.9795 82.1921 52.8954 82.2735 52.7783 83.2997C52.6995 83.9872 52.8467 84.7613 53.1049 85.0195Z" fill="#FFE7C3"/>
<path fill-rule="evenodd" clip-rule="evenodd" d="M33.833 19.6906C33.7306 19.5688 33.6101 19.3999 33.4723 19.1793C33.5105 19.2317 33.6443 19.4217 33.833 19.6906ZM35.8203 22.5121C35.8051 22.47 35.7764 22.4351 35.7332 22.4085L35.8203 22.5121ZM51.3246 14.7832C51.5244 14.7832 51.6877 14.2042 51.6877 13.4963C51.6877 12.7883 51.5244 12.3103 51.3246 12.4335C51.1252 12.5567 50.9619 13.1358 50.9619 13.7205C50.9619 14.3052 51.1252 14.7832 51.3246 14.7832Z" fill="#FFE7C3"/>
<path d="M177.903 91.41C177.537 91.41 177.393 92.6834 177.411 95.7694C177.431 99.2207 177.557 100.082 178.017 99.9055C178.337 99.7827 179.246 99.6822 180.037 99.6822C181.113 99.6822 181.666 99.3909 182.233 98.5262C182.961 97.4147 182.95 97.2471 181.957 94.1502C180.947 91.0068 180.892 90.9354 179.671 91.1701C178.982 91.302 178.187 91.41 177.903 91.41Z" fill="#FFE7C3"/>
<path d="M176.9 89.5061C175.582 89.8596 176.097 90.5392 177.683 90.5392C178.908 90.5392 179.294 90.1439 178.673 89.5235C178.322 89.1725 178.151 89.1708 176.9 89.5061Z" fill="#FFE7C3"/>
<path fill-rule="evenodd" clip-rule="evenodd" d="M46.552 28.4581C44.0886 29.4873 41.8081 28.5007 38.6812 25.053C37.8001 23.9966 36.5181 22.1989 35.4094 20.5875C35.507 20.5507 35.613 20.5024 35.7236 20.4432C36.2026 20.1867 36.5944 19.6921 36.5944 19.3438C36.5944 18.8266 36.4342 18.8471 35.7236 19.4557C35.4724 19.6709 35.2452 19.9093 35.0858 20.1154C34.5135 19.2771 34.0071 18.5185 33.6547 17.982C32.7339 16.1094 32.8227 14.7832 33.8689 14.7832C34.2503 14.7832 34.4336 14.6544 34.276 14.4967C33.8376 14.0583 34.8607 13.0417 35.7406 13.0417C36.1703 13.0417 36.587 12.8754 36.6671 12.6716C36.7468 12.4683 37.9384 12.1888 39.3155 12.0504C41.3118 11.8496 41.819 11.9245 41.819 12.42C41.819 12.8088 42.27 13.0417 43.0228 13.0417C43.6846 13.0417 44.9768 13.444 45.8941 13.9355C47.4375 14.7628 47.6395 14.778 48.6087 14.1432C49.1847 13.7657 49.6558 13.2006 49.6558 12.8876C49.6558 12.5746 50.1391 12.0595 50.7294 11.7434C51.6002 11.2776 51.9293 11.2736 52.4709 11.7234C53.3569 12.4587 53.3251 15.162 52.4183 16.1638C51.7439 16.9088 51.7513 16.9601 52.5315 16.9601C53.535 16.9601 55.5739 18.7635 55.9653 19.9969C56.5448 21.822 54.1937 27.8707 51.4352 31.6542C50.3128 33.1932 49.8408 33.5045 48.63 33.5045C47.1794 33.5045 44.6341 31.9855 43.0058 30.1482C42.2435 29.2883 42.2609 29.2787 44.312 29.4555C46.6373 29.6558 48.6366 28.7049 49.8804 26.8071C50.8896 25.2663 52.3351 21.3139 51.8893 21.3139C51.6829 21.3139 51.0969 22.4585 50.5866 23.857C49.5578 26.6791 48.8338 27.505 46.552 28.4581ZM51.3246 14.7832C51.5244 14.7832 51.6877 14.2042 51.6877 13.4963C51.6877 12.7883 51.5244 12.3103 51.3246 12.4335C51.1252 12.5567 50.9619 13.1358 50.9619 13.7205C50.9619 14.3052 51.1252 14.7832 51.3246 14.7832ZM46.717 18.3224C47.1537 17.8783 47.0579 17.6032 46.2333 16.9292C44.9485 15.8791 44.8405 15.8826 45.0059 16.9662C45.2136 18.3263 46.0561 18.9942 46.717 18.3224ZM39.848 17.8117C40.1319 18.271 41.1398 17.9985 42.4603 17.1055C43.1813 16.6179 43.2026 16.5247 42.5948 16.5247C42.1964 16.5247 41.7493 16.7207 41.6013 16.9601C41.4532 17.1996 40.9404 17.3955 40.4615 17.3955C39.9825 17.3955 39.7065 17.5827 39.848 17.8117ZM42.6079 19.9081C42.8926 20.003 43.1251 19.7701 43.1251 19.3908C43.1251 19.0121 42.8151 18.7016 42.4359 18.7016C41.667 18.7016 41.8007 19.639 42.6079 19.9081ZM40.0774 22.6558C40.0774 22.1964 39.9586 21.5107 39.8132 21.1319C39.3421 19.9042 39.1597 20.4018 39.4675 22.0758C39.7466 23.5931 40.2664 24.3389 41.0571 24.355C41.2369 24.3585 41.3836 24.1657 41.3836 23.9262C41.3836 23.6867 41.0897 23.4908 40.7305 23.4908C40.3713 23.4908 40.0774 23.1151 40.0774 22.6558ZM37.2475 22.6201C37.9276 22.6201 38.1113 22.105 37.6102 21.6043C37.1095 21.1032 36.5944 21.2869 36.5944 21.967C36.5944 22.3262 36.8883 22.6201 37.2475 22.6201ZM41.819 26.5285C43.2357 27.4654 45.7374 26.4557 45.7374 24.9472C45.7374 24.0629 43.5096 24.2497 42.2543 25.2389C41.3322 25.9659 41.2656 26.1627 41.819 26.5285Z" fill="#FFE7C3"/>
<path fill-rule="evenodd" clip-rule="evenodd" d="M45.7374 24.9472C45.7374 26.4557 43.2357 27.4654 41.819 26.5285C41.2656 26.1627 41.3322 25.9659 42.2543 25.2389C43.5096 24.2497 45.7374 24.0629 45.7374 24.9472ZM43.5265 26.0069C42.5056 26.1249 42.4986 26.1074 43.3171 25.4626C44.3407 24.6563 45.0038 24.6006 44.7599 25.3412C44.6616 25.6407 44.1064 25.9403 43.5265 26.0069Z" fill="#FFE7C3"/>
<path d="M43.3171 25.4626C42.4986 26.1074 42.5056 26.1249 43.5265 26.0069C44.1064 25.9403 44.6616 25.6407 44.7599 25.3412C45.0038 24.6006 44.3407 24.6563 43.3171 25.4626Z" fill="#FFE7C3"/>
<path d="M39.8132 21.1319C39.9586 21.5107 40.0774 22.1964 40.0774 22.6558C40.0774 23.1151 40.3713 23.4908 40.7305 23.4908C41.0897 23.4908 41.3836 23.6867 41.3836 23.9262C41.3836 24.1657 41.2369 24.3585 41.0571 24.355C40.2664 24.3389 39.7466 23.5931 39.4675 22.0758C39.1597 20.4018 39.3421 19.9042 39.8132 21.1319Z" fill="#FFE7C3"/>
<path d="M37.6102 21.6043C38.1113 22.105 37.9276 22.6201 37.2475 22.6201C36.8883 22.6201 36.5944 22.3262 36.5944 21.967C36.5944 21.2869 37.1095 21.1032 37.6102 21.6043Z" fill="#FFE7C3"/>
<path d="M36.5944 19.3438C36.5944 19.6921 36.2026 20.1867 35.7236 20.4432C35.613 20.5024 35.507 20.5507 35.4094 20.5875C35.2997 20.428 35.1916 20.2703 35.0858 20.1154C35.2452 19.9093 35.4724 19.6709 35.7236 19.4557C36.4342 18.8471 36.5944 18.8266 36.5944 19.3438Z" fill="#FFE7C3"/>
<path d="M42.4603 17.1055C41.1398 17.9985 40.1319 18.271 39.848 17.8117C39.7065 17.5827 39.9825 17.3955 40.4615 17.3955C40.9404 17.3955 41.4532 17.1996 41.6013 16.9601C41.7493 16.7207 42.1964 16.5247 42.5948 16.5247C43.2026 16.5247 43.1813 16.6179 42.4603 17.1055Z" fill="#FFE7C3"/>
<path d="M43.1251 19.3908C43.1251 19.7701 42.8926 20.003 42.6079 19.9081C41.8007 19.639 41.667 18.7016 42.4359 18.7016C42.8151 18.7016 43.1251 19.0121 43.1251 19.3908Z" fill="#FFE7C3"/>
<path d="M46.2333 16.9292C47.0579 17.6032 47.1537 17.8783 46.717 18.3224C46.0561 18.9942 45.2136 18.3263 45.0059 16.9662C44.8405 15.8826 44.9485 15.8791 46.2333 16.9292Z" fill="#FFE7C3"/>
</svg>
