<svg width="124" height="166" viewBox="0 0 124 166" fill="none" xmlns="http://www.w3.org/2000/svg">
<path fill-rule="evenodd" clip-rule="evenodd" d="M9.51281 108.731C20.9596 98.6292 36.9381 84.551 40.3871 81.5288C41.7618 80.3241 42.9647 79.3695 43.0603 79.4067C43.1556 79.4442 47.9159 83.7153 53.6384 88.8981C59.3612 94.0809 68.6668 102.508 74.3176 107.625L84.592 116.928L83.7059 117.74C81.9726 119.329 79.519 119.369 76.8695 117.853C76.1779 117.456 68.2702 110.55 59.2968 102.505C44.7486 89.4622 42.9373 87.9163 42.5724 88.2324C33.3621 96.2104 7.02803 118.166 6.20615 118.553C4.15772 119.516 1.93601 119.2 0.584726 117.753L0 117.127L9.51281 108.731ZM69.8732 100.981L66.181 97.8408V87.8999H74.4803V96.3394C74.4803 104.451 74.4625 104.766 74.0229 104.45C73.7714 104.269 71.904 102.708 69.8732 100.981ZM18.33 113.779C22.028 110.68 29.0092 104.835 33.8437 100.789C38.6782 96.743 42.6737 93.4328 42.723 93.4328C42.7721 93.4328 49.3716 99.2653 57.3887 106.394L71.9654 119.355V136.042C71.9654 152.098 71.9473 152.753 71.4845 153.324L71.0039 153.917L41.8114 153.983C12.8499 154.049 12.6148 154.045 12.1125 153.543C11.6156 153.046 11.6065 152.736 11.6065 136.225V119.412L18.33 113.779ZM50.2292 124.993H34.1335V153.915H50.2292V124.993Z" fill="#EBDCB1"/>
<path fill-rule="evenodd" clip-rule="evenodd" d="M40.3871 81.5288C36.9381 84.551 20.9596 98.6292 9.51281 108.731L0 117.127L0.584726 117.753C1.93601 119.2 4.15772 119.516 6.20615 118.553C7.02803 118.166 33.3621 96.2104 42.5724 88.2324C42.9373 87.9163 44.7486 89.4622 59.2968 102.505C68.2702 110.55 76.1779 117.456 76.8695 117.853C79.519 119.369 81.9726 119.329 83.7059 117.74L84.592 116.928L74.3176 107.625C68.6668 102.508 59.3612 94.0809 53.6384 88.8981C47.9159 83.7153 43.1556 79.4442 43.0603 79.4067C42.9647 79.3695 41.7618 80.3241 40.3871 81.5288ZM66.181 97.8408L69.8732 100.981C71.904 102.708 73.7714 104.269 74.0229 104.45C74.4625 104.766 74.4803 104.451 74.4803 96.3394V87.8999H66.181V97.8408Z" fill="#201E19"/>
<path d="M80.8264 136.874C80.9317 135.598 81.0091 135.429 81.6237 135.131C82.6021 134.656 83.1847 134.69 83.8411 135.262C84.1583 135.538 84.5783 135.764 84.7741 135.764C85.4589 135.764 85.8566 136.856 85.6869 138.271C85.5846 139.124 85.4648 139.458 85.3391 139.238C85.0741 138.775 85.0936 139.11 85.3804 139.946C85.5474 140.431 85.6744 140.548 85.7976 140.327C85.9358 140.079 86.0388 140.095 86.2662 140.398C86.4263 140.612 86.7408 140.787 86.965 140.787C87.1889 140.787 87.5424 140.859 87.7503 140.947C88.0477 141.074 88.0645 141.151 87.8292 141.312C87.6087 141.463 87.7802 141.754 88.4829 142.42C89.3233 143.216 89.4211 143.417 89.3106 144.126C89.1032 145.459 88.2562 148.675 88.0246 149.011C87.7559 149.4 86.6807 149.423 86.3408 149.046C85.9719 148.638 86.4372 147.316 86.95 147.316C87.5683 147.316 87.8353 146.788 87.9996 145.241L88.1498 143.826L87.1041 143.263C86.5287 142.954 85.9946 142.771 85.917 142.857C85.8394 142.943 85.5371 143.742 85.2454 144.631C84.7301 146.203 84.7251 146.292 85.077 147.724C85.2764 148.536 85.4623 150.11 85.4904 151.222C85.5306 152.814 85.664 153.512 86.1173 154.502C86.7907 155.973 87.0462 156.234 88.0107 156.436C88.4039 156.518 89.5227 157.161 90.4972 157.865C92.0801 159.009 92.3607 159.128 93.1292 158.985L93.9893 158.824L93.9859 161.043C93.9839 162.264 93.8875 163.429 93.7713 163.632C93.5083 164.092 93.4564 164.019 93.1138 162.698C92.9615 162.112 92.6112 161.395 92.3355 161.106C91.3252 160.049 87.6638 158.366 86.3732 158.366C85.6753 158.366 84.925 157.543 83.7792 155.522C83.3424 154.751 82.8977 154.115 82.7908 154.109C82.684 154.102 82.2245 154.42 81.7698 154.816C81.3151 155.211 80.6177 155.719 80.2197 155.944C79.6007 156.294 79.4771 156.526 79.3618 157.548C79.2878 158.205 78.822 159.659 78.3267 160.78C77.6819 162.239 77.4262 163.14 77.4262 163.952V165.086L76.0081 165.202C74.4097 165.332 73.1152 165.036 73.1152 164.539C73.1152 164.355 73.4653 164.144 73.9021 164.066C74.335 163.988 75.0522 163.606 75.4962 163.217C76.4991 162.338 77.1639 160.182 77.3588 157.177L77.4931 155.11L79.0891 153.574C81.596 151.163 81.5119 151.37 81.2643 148.215C81.0081 144.949 80.8434 144.486 80.2778 145.442C79.9436 146.006 79.7573 146.097 79.1494 145.987C77.9145 145.766 76.7455 145.115 76.7455 144.649C76.7455 144.132 77.3826 143.298 77.7772 143.298C77.9315 143.298 78.1234 143.588 78.2038 143.942C78.3136 144.426 78.4735 144.567 78.8474 144.507C79.2338 144.446 79.473 144.044 79.9172 142.711C80.3944 141.278 80.6394 140.891 81.3968 140.375C81.9073 140.027 82.1095 139.789 81.8588 139.832C81.1579 139.951 80.6846 138.595 80.8264 136.874Z" fill="black"/>
<path d="M44.7402 55.5278L63.6578 59.8626L92.0341 66.3648C121.461 73.1078 126.89 30.1055 93.9162 29.1867C84.8069 -8.29772 51.2202 12.7663 53.3444 27.6331C23.1946 24.043 28.9756 51.9155 44.7402 55.5278Z" fill="#5BCBFB"/>
<path d="M69.65 66.0687L54.9363 62.6972L75.9114 38.7433L89.5741 41.874L77.5539 55.7121L85.9617 57.6387L58.046 87.7453L69.65 66.0687Z" fill="#FFD12F"/>
<rect x="35.8939" y="127.257" width="12.5748" height="26.6585" fill="#201E19"/>
</svg>
