<svg xmlns="http://www.w3.org/2000/svg" viewBox="0 0 512 512">
	<title>fav</title>
<path d="M240.4,1.6c-35.3,4.1-61.3,12.1-86.4,26.6c-51.4,29.5-85.3,77.8-95.4,135.7c-2.5,14.6-2.5,41.8,0,55.8
	c11.3,61.8,50.2,131.8,118.9,214.2c19.6,23.5,58.8,65.9,67.1,72.6c7.1,5.7,15.8,5.7,22.9,0c1.8-1.4,10.1-9.8,18.6-18.7
	c87-90.9,145-179.3,163-248.5c4.8-18.4,6.2-28.6,6.2-47c0.2-51.2-20.3-98.6-58.3-134.9c-30.1-28.8-67.8-47.1-110.8-53.9
	C276.5,1.9,247.6,0.8,240.4,1.6z M264,67.4c2,0.9,4.4,2.8,5.4,4.1c1,1.4,7.8,14.9,15.3,30l13.6,27.5l31.3,4.6
	c17.8,2.6,32.8,5.3,34.6,6.3c6.3,3.1,9.7,11.5,7.4,18.7c-1,3.2-5.9,8.6-24.6,26.8c-19.4,18.9-23.3,23.1-22.8,25
	c1.7,6.8,9.9,58.2,9.9,61.9c0,10.4-12.2,18.4-22.1,14.5c-1.9-0.7-15-7.5-29.3-15.1c-14.2-7.6-26.3-13.7-26.7-13.7
	c-0.5,0-12.5,6.2-26.7,13.7c-14.2,7.6-27.4,14.3-29.3,15.1c-9.9,3.9-22.1-4.1-22.1-14.6c0-3.7,8.2-54.8,9.9-61.7
	c0.4-1.8-3.6-6.2-22.4-24.6c-23-22.5-26-26.3-26-32.7c0-4.4,3.9-10.7,8-13c2.3-1.3,13.1-3.3,34.8-6.5l31.5-4.7l13.6-27.5
	c7.5-15.1,14.4-28.6,15.3-30C246.5,66.1,256.8,64.1,264,67.4z"/>
</svg>
