<svg width="44" height="47" viewBox="0 0 44 47" fill="none" xmlns="http://www.w3.org/2000/svg">
<path d="M28.2604 39.8954C28.2604 37.8049 26.7902 36.0583 24.8272 35.6324V10.9215C24.8272 10.4036 24.4074 9.98373 23.8894 9.98373C23.3715 9.98373 22.9517 10.4036 22.9517 10.9215V35.6362C20.9974 36.0687 19.536 37.8111 19.536 39.8954C19.536 42.3046 21.489 44.2576 23.8982 44.2576C26.3074 44.2576 28.2604 42.3046 28.2604 39.8954Z" fill="#5A5A5A" stroke="#5A5A5A" stroke-width="0.8"/>
<path d="M18.9795 19.9477C15.8858 19.9477 13.3778 17.4397 13.3778 14.3459C13.3778 11.2522 15.8858 8.7442 18.9795 8.7442V19.9477Z" fill="#5A5A5A"/>
<path d="M20.7229 34.6126L20.9825 34.4703V34.1742V9.15405C20.9825 7.54375 22.2879 6.23834 23.8982 6.23834C25.5085 6.23834 26.8139 7.54375 26.8139 9.15404V34.3323V34.613L27.0535 34.7591C28.8772 35.8715 30.093 37.8783 30.093 40.1686C30.093 43.6653 27.2583 46.5 23.7616 46.5C20.2648 46.5 17.4302 43.6653 17.4302 40.1686C17.4302 37.7739 18.7595 35.6889 20.7229 34.6126Z" stroke="#5A5A5A"/>
<rect x="29.5" y="12.5698" width="3.82558" height="1.09302" rx="0.546512" fill="#5A5A5A"/>
<rect x="6.69476" y="10.2611" width="6.57771" height="1.09302" rx="0.546512" transform="rotate(13.2012 6.69476 10.2611)" fill="#5A5A5A"/>
<rect x="6" y="16.9576" width="6.57771" height="1.09302" rx="0.546512" transform="rotate(-12.1293 6 16.9576)" fill="#5A5A5A"/>
<rect x="8.49629" y="23.2517" width="6.57771" height="1.09302" rx="0.546512" transform="rotate(-39.3907 8.49629 23.2517)" fill="#5A5A5A"/>
<rect x="13.6512" y="27.5417" width="6.57771" height="1.09302" rx="0.546512" transform="rotate(-59.737 13.6512 27.5417)" fill="#5A5A5A"/>
<rect x="9.16495" y="4.09882" width="6.57771" height="1.09302" rx="0.546512" transform="rotate(40.212 9.16495 4.09882)" fill="#5A5A5A"/>
<rect x="14.6061" width="6.57771" height="1.09302" rx="0.546512" transform="rotate(60.8923 14.6061 0)" fill="#5A5A5A"/>
<rect x="29.5" y="18.3081" width="3.82558" height="1.09302" rx="0.546512" fill="#5A5A5A"/>
<rect x="29.5" y="24.0465" width="3.82558" height="1.09302" rx="0.546512" fill="#5A5A5A"/>
</svg>
