<svg xmlns="http://www.w3.org/2000/svg" viewBox="0 0 512 512">
	<title>heatwave</title>
<g>
	<path  d="M211,216.1c-33.8,0-61.3-27.4-61.3-61.3c0-33.8,27.4-61.3,61.3-61.3V216.1z"/>
	<path  d="M263.3,512c41.3,0,74.7-33.5,74.7-74.7c0-27-14.4-50.7-35.9-63.8V98c0-20.6-16.7-37.4-37.4-37.4
		c-20.6,0-37.4,16.7-37.4,37.4v273.7c-23.2,12.7-38.9,37.3-38.9,65.6C188.5,478.5,222,512,263.3,512z"/>
	<path  d="M326.1,141.3c0-3.3,2.7-6,6-6h29.9c3.3,0,6,2.7,6,6c0,3.3-2.7,6-6,6H332C328.7,147.3,326.1,144.6,326.1,141.3z
		"/>
	<path  d="M75.2,115.9c0.8-3.2,4-5.2,7.2-4.5l58.4,13.7c3.2,0.8,5.2,4,4.5,7.2c-0.8,3.2-4,5.2-7.2,4.5l-58.4-13.7
		C76.5,122.4,74.5,119.1,75.2,115.9z"/>
	<path  d="M70.2,189.2c-0.7-3.2,1.4-6.4,4.6-7.1l58.7-12.6c3.2-0.7,6.4,1.4,7.1,4.6c0.7,3.2-1.4,6.4-4.6,7.1l-58.7,12.6
		C74.1,194.5,70.9,192.4,70.2,189.2z"/>
	<path  d="M100.1,256.8c-2.1-2.6-1.7-6.3,0.8-8.4l46.4-38.1c2.6-2.1,6.3-1.7,8.4,0.8c2.1,2.6,1.7,6.3-0.8,8.4l-46.4,38.1
		C105.9,259.7,102.2,259.4,100.1,256.8z"/>
	<path  d="M157.8,302.2c-2.9-1.7-3.8-5.3-2.2-8.2l30.2-51.8c1.7-2.9,5.3-3.8,8.2-2.2c2.9,1.7,3.8,5.3,2.2,8.2L166,300
		C164.4,302.9,160.7,303.8,157.8,302.2z"/>
	<path  d="M99.7,47.3c2.1-2.5,5.9-2.8,8.4-0.7L154,85.3c2.5,2.1,2.8,5.9,0.7,8.4c-2.1,2.5-5.9,2.8-8.4,0.7l-45.8-38.7
		C97.9,53.5,97.6,49.8,99.7,47.3z"/>
	<path  d="M157.9,0.8c2.9-1.6,6.5-0.6,8.1,2.3l29.2,52.4c1.6,2.9,0.6,6.5-2.3,8.1c-2.9,1.6-6.5,0.6-8.1-2.3L155.6,8.9
		C154,6,155,2.4,157.9,0.8z"/>
	<path  d="M326.1,204.1c0-3.3,2.7-6,6-6h29.9c3.3,0,6,2.7,6,6c0,3.3-2.7,6-6,6H332C328.7,210.1,326.1,207.4,326.1,204.1z
		"/>
	<path  d="M326.1,266.9c0-3.3,2.7-6,6-6h29.9c3.3,0,6,2.7,6,6c0,3.3-2.7,6-6,6H332C328.7,272.9,326.1,270.2,326.1,266.9z
		"/>
</g>
</svg>
