<svg xmlns="http://www.w3.org/2000/svg" viewBox="0 0 512 512">
	<title>map</title>
<path d="M385.4,0.9c-43.1,5.4-80.6,37.7-92.9,80.1c-5.1,17.6-5.6,33.9-1.5,50.4c8.4,33.6,41.4,86.3,88.1,140.9
	c13.5,15.8,17.5,17.9,26.6,14.3c2.9-1.2,6.7-4.8,14.8-14.3c47.1-55.1,79.7-107.2,88.2-141.4c2.8-11.1,3.3-19.5,2.1-31
	C504.1,37.6,447.8-6.9,385.4,0.9z M420.4,34.3c3.3,0.9,10.1,3.6,15,6.1c26.7,13.2,44.5,41.3,44.5,70.6c0,23.1-26.4,70-70.3,124.8
	c-5,6.2-9.4,11.3-9.7,11.3c-1,0-20.8-25-30.7-38.5c-18.5-25.5-29-42.6-38.8-62.7c-8.6-17.8-10.9-26.6-10.1-38.9
	c0.8-12.3,2.7-19.4,8.2-30.5c10.8-21.9,30.9-37.6,55.1-43C392.1,31.5,411.7,32,420.4,34.3z M391.9,64.8c-17.6,3.3-31.1,15-37.2,32
	c-1.5,4.1-2,8.1-2,15.1c0,16.9,7.1,30.4,20.8,39.5c8.7,5.8,15.5,7.8,26.5,7.8c11,0,17.8-2,26.5-7.8c13.7-9.1,20.8-22.6,20.8-39.5
	c0-17.5-7.6-31.3-22.5-40.7C416,65.7,401.9,62.9,391.9,64.8z M406.3,97.2c10.3,4.3,12.8,17.8,4.8,25.8c-6.5,6.5-15.8,6.5-22.2,0
	C376.5,110.7,390.1,90.5,406.3,97.2z M171.9,128.5c-15.2,5.7-162.4,65-164.7,66.4c-1.8,1.1-4,3.4-5,5.3c-1.7,3.1-1.8,11-2.1,150.8
	C-0.1,495.3-0.1,498.7,1.8,503c2.2,4.9,6.3,8,12.2,9c3.4,0.6,12.7-2.9,82.9-30.9l79.1-31.5l77.2,31c62.5,25.1,78.2,31.1,82.2,31.2
	c4.4,0.1,14.8-3.8,85.5-32.2c44.3-17.8,82-33.2,83.7-34.3c1.8-1.1,4-3.4,5-5.3c1.7-3.1,1.8-9.2,2.1-102.9l0.3-99.6l-2.3-4.5
	c-2.4-4.8-8.8-9-13.8-9c-4.2,0-11.3,4.2-13.5,8c-2,3.4-2,5.4-2.5,96.6l-0.5,93.1l-62,24.8c-34.1,13.7-62.8,25.1-63.8,25.4
	c-1.7,0.5-1.8-4-1.8-84.9v-85.5l-2.3-4.5c-2.4-4.8-8.8-9-13.8-9c-4.9,0-11.3,4.2-13.8,9l-2.3,4.5V387c0,80.9-0.1,85.4-1.8,84.9
	c-1-0.3-29.7-11.7-63.8-25.4l-62-24.8l-0.3-126.9c-0.1-69.8,0-126.9,0.2-126.9c0.3,0,17.4,6.8,38,15c40.8,16.3,43.3,17,49.5,12.8
	c7.6-5.2,9.8-12.5,6.1-20.1c-1.2-2.5-3.2-5.2-4.5-6c-4.4-2.9-100-40.7-104.1-41.2C175.2,128.2,172.7,128.2,171.9,128.5z
	 M159.7,294.8l-0.3,126.9l-62,24.8c-34.1,13.7-62.8,25.1-63.8,25.4c-1.7,0.5-1.7-5.8-1.5-126.4l0.3-127l62.5-25.2
	c34.4-13.9,63.1-25.3,63.8-25.3C159.7,168,159.9,193.6,159.7,294.8z"/>
</svg>
