<svg xmlns="http://www.w3.org/2000/svg" viewBox="0 0 24 24" >
<path d="M9.31002 11.2938C9.21732 11.3863 9.14377 11.4962 9.09359 11.6171C9.04341 11.7381 9.01758 11.8678 9.01758 11.9988C9.01758 12.1297 9.04341 12.2594 9.09359 12.3804C9.14377 12.5014 9.21732 12.6112 9.31002 12.7038L13.19 16.5838L9.31002 20.4638C9.12304 20.6507 9.018 20.9043 9.018 21.1688C9.018 21.4332 9.12304 21.6868 9.31002 21.8738C9.497 22.0607 9.7506 22.1658 10.015 22.1658C10.2794 22.1658 10.533 22.0607 10.72 21.8738L15.31 17.2838C15.4027 17.1912 15.4763 17.0814 15.5265 16.9604C15.5766 16.8394 15.6025 16.7097 15.6025 16.5788C15.6025 16.4478 15.5766 16.3181 15.5265 16.1971C15.4763 16.0762 15.4027 15.9663 15.31 15.8738L10.72 11.2838C10.34 10.9038 9.70002 10.9038 9.31002 11.2938Z" />
</svg>
