<svg width="53" height="49" viewBox="0 0 53 49" fill="none" xmlns="http://www.w3.org/2000/svg">
<path d="M10.5 33.5C11.3284 33.5 12 32.8284 12 32C12 31.1716 11.3284 30.5 10.5 30.5V33.5ZM40 31C39.1716 31 38.5 31.6716 38.5 32.5C38.5 33.3284 39.1716 34 40 34V31ZM34.8623 10.795L33.5249 11.4741L34.8623 10.795ZM36.0035 11.3701L35.7574 9.89045L36.0035 11.3701ZM11.9927 16.0368L11.7537 14.556L11.9927 16.0368ZM10.5 30.5C6.94927 30.5 4.17484 27.7087 3.83178 24.7577C3.66684 23.3388 4.06103 21.8649 5.26871 20.5885C6.49905 19.288 8.6754 18.0915 12.2316 17.5177L11.7537 14.556C7.77012 15.1988 4.90675 16.6059 3.08948 18.5267C1.24955 20.4714 0.588216 22.8362 0.851849 25.1041C1.36593 29.5263 5.38498 33.5 10.5 33.5V30.5ZM14.4431 14.4214C14.2166 12.8091 14.7296 10.7762 15.9043 8.83403C17.0696 6.90743 18.7901 5.23472 20.7342 4.29982C22.6489 3.37904 24.7536 3.17821 26.8616 4.09591C29.0045 5.02875 31.3595 7.20923 33.5249 11.4741L36.1998 10.1159C33.8413 5.47063 31.0519 2.6481 28.0591 1.34524C25.0314 0.027217 22.0088 0.357968 19.434 1.5962C16.8886 2.8203 14.7572 4.93401 13.3373 7.28139C11.9269 9.61324 11.1215 12.3418 11.4723 14.8388L14.4431 14.4214ZM36.2497 12.8498C40.1633 12.1987 43.1523 13.0911 45.2497 14.6689C47.3708 16.2646 48.6817 18.6374 49.0779 21.1049C49.4748 23.577 48.941 26.0464 47.5079 27.8717C46.1018 29.6626 43.6992 31 40 31V34C44.4844 34 47.8138 32.3401 49.8676 29.7243C51.8944 27.1427 52.5483 23.7957 52.0399 20.6294C51.5309 17.4584 49.8437 14.3708 47.0532 12.2716C44.2391 10.1546 40.403 9.11761 35.7574 9.89045L36.2497 12.8498ZM33.5249 11.4741C34.032 12.473 35.1533 13.0322 36.2497 12.8498L35.7574 9.89045C35.8662 9.87235 35.9541 9.89449 36.015 9.92518C36.0762 9.95595 36.1483 10.0145 36.1998 10.1159L33.5249 11.4741ZM12.2316 17.5177C13.8053 17.2637 14.6282 15.7386 14.4431 14.4214L11.4723 14.8388C11.4643 14.7817 11.4776 14.7389 11.5016 14.703C11.5295 14.6611 11.61 14.5792 11.7537 14.556L12.2316 17.5177Z" fill="white"/>
<path d="M17.1451 34.0416H13L17.1451 26H20.994L18.6254 30.6394H20.994L15.3686 40.8461L17.1451 34.0416Z" stroke="white" stroke-linejoin="round"/>
<path d="M25.7101 34.0416H21.5651L25.7101 26H29.5591L27.1905 30.6394H29.5591L23.9337 40.8461L25.7101 34.0416Z" stroke="white" stroke-linejoin="round"/>
<path d="M34.2751 34.0416H30.13L34.2751 26H38.124L35.7554 30.6394H38.124L32.4986 40.8461L34.2751 34.0416Z" stroke="white" stroke-linejoin="round"/>
</svg>
