<svg width="14" height="17" viewBox="0 0 14 17" fill="none" xmlns="http://www.w3.org/2000/svg">
<path fill-rule="evenodd" clip-rule="evenodd" d="M6.99792 0C10.8565 0 13.9958 3.25092 13.9958 7.24723C13.9958 12.1598 8.51965 17 6.99792 17C5.47619 17 0 12.1598 0 7.24723C0 3.25092 3.13931 0 6.99792 0ZM6.99792 1.30769C3.8408 1.30769 1.27235 3.97277 1.27235 7.24723C1.27235 11.4135 6.04281 15.4726 6.99792 15.6888C7.95303 15.4717 12.7235 11.4127 12.7235 7.24723C12.7235 3.97277 10.155 1.30769 6.99792 1.30769ZM6.99877 4.35897C8.5188 4.35897 9.75552 5.63005 9.75552 7.19318C9.75552 8.75544 8.5188 10.0256 6.99877 10.0256C5.47873 10.0256 4.24201 8.75544 4.24201 7.19318C4.24201 5.63005 5.47873 4.35897 6.99877 4.35897ZM6.99877 5.66667C6.18022 5.66667 5.51436 6.35103 5.51436 7.19318C5.51436 8.03446 6.18022 8.71795 6.99877 8.71795C7.81731 8.71795 8.48317 8.03446 8.48317 7.19318C8.48317 6.35103 7.81731 5.66667 6.99877 5.66667Z" fill="#FDB600"/>
</svg>
