<svg width="512" height="512" viewBox="0 0 512 512" xmlns="http://www.w3.org/2000/svg">
<path d="M170.667 128H426.667V177.778H170.667V128Z" />
<path d="M170.667 234.667H426.667V284.445H170.667V234.667Z" />
<path d="M170.667 341.333H426.667V391.111H170.667V341.333Z" />
<path d="M85.3333 341.333H135.111V391.111H85.3333V341.333Z" />
<path d="M85.3333 234.667H135.111V284.445H85.3333V234.667Z" />
<path d="M85.3333 128H135.111V177.778H85.3333V128Z" />
<path d="M419.555 177.778H177.778C175.892 177.778 174.083 177.029 172.749 175.695C171.416 174.361 170.667 172.553 170.667 170.667V135.111C170.667 133.225 171.416 131.416 172.749 130.083C174.083 128.749 175.892 128 177.778 128H419.555C421.441 128 423.25 128.749 424.584 130.083C425.917 131.416 426.666 133.225 426.666 135.111V170.667C426.666 172.553 425.917 174.361 424.584 175.695C423.25 177.029 421.441 177.778 419.555 177.778Z"  stroke-width="2" stroke-miterlimit="10" stroke-linecap="round" stroke-linejoin="round"/>
<path d="M419.555 284.445H177.778C175.892 284.445 174.083 283.695 172.749 282.362C171.416 281.028 170.667 279.219 170.667 277.333V241.778C170.667 239.892 171.416 238.083 172.749 236.75C174.083 235.416 175.892 234.667 177.778 234.667H419.555C421.441 234.667 423.25 235.416 424.584 236.75C425.917 238.083 426.666 239.892 426.666 241.778V277.333C426.666 279.219 425.917 281.028 424.584 282.362C423.25 283.695 421.441 284.445 419.555 284.445Z"  stroke-width="2" stroke-miterlimit="10" stroke-linecap="round" stroke-linejoin="round"/>
<path d="M419.555 391.111H177.778C175.892 391.111 174.083 390.362 172.749 389.028C171.416 387.695 170.667 385.886 170.667 384V348.445C170.667 346.559 171.416 344.75 172.749 343.416C174.083 342.083 175.892 341.333 177.778 341.333H419.555C421.441 341.333 423.25 342.083 424.584 343.416C425.917 344.75 426.666 346.559 426.666 348.445V384C426.666 385.886 425.917 387.695 424.584 389.028C423.25 390.362 421.441 391.111 419.555 391.111Z"  stroke-width="2" stroke-miterlimit="10" stroke-linecap="round" stroke-linejoin="round"/>
<path d="M128 177.778H92.4444C90.5584 177.778 88.7496 177.029 87.416 175.695C86.0825 174.361 85.3333 172.553 85.3333 170.667V135.111C85.3333 133.225 86.0825 131.416 87.416 130.083C88.7496 128.749 90.5584 128 92.4444 128H128C129.886 128 131.695 128.749 133.028 130.083C134.362 131.416 135.111 133.225 135.111 135.111V170.667C135.111 172.553 134.362 174.361 133.028 175.695C131.695 177.029 129.886 177.778 128 177.778Z"  stroke-width="2" stroke-miterlimit="10" stroke-linecap="round" stroke-linejoin="round"/>
<path d="M128 284.445H92.4444C90.5584 284.445 88.7496 283.695 87.416 282.362C86.0825 281.028 85.3333 279.219 85.3333 277.333V241.778C85.3333 239.892 86.0825 238.083 87.416 236.75C88.7496 235.416 90.5584 234.667 92.4444 234.667H128C129.886 234.667 131.695 235.416 133.028 236.75C134.362 238.083 135.111 239.892 135.111 241.778V277.333C135.111 279.219 134.362 281.028 133.028 282.362C131.695 283.695 129.886 284.445 128 284.445Z"  stroke-width="2" stroke-miterlimit="10" stroke-linecap="round" stroke-linejoin="round"/>
<path d="M128 391.111H92.4444C90.5584 391.111 88.7496 390.362 87.416 389.028C86.0825 387.695 85.3333 385.886 85.3333 384V348.445C85.3333 346.559 86.0825 344.75 87.416 343.416C88.7496 342.083 90.5584 341.333 92.4444 341.333H128C129.886 341.333 131.695 342.083 133.028 343.416C134.362 344.75 135.111 346.559 135.111 348.445V384C135.111 385.886 134.362 387.695 133.028 389.028C131.695 390.362 129.886 391.111 128 391.111Z"  stroke-width="2" stroke-miterlimit="10" stroke-linecap="round" stroke-linejoin="round"/>
</svg>
