<svg width="512" height="512" viewBox="0 0 512 512"  xmlns="http://www.w3.org/2000/svg">
<path d="M122.88 23C122.88 20.7909 124.671 19 126.88 19H139.36C141.569 19 143.36 20.7909 143.36 23V488C143.36 490.209 141.569 492 139.36 492H126.88C124.671 492 122.88 490.209 122.88 488V23Z"  />
<path d="M184.32 135.026C184.32 132.817 186.111 131.026 188.32 131.026H200.8C203.009 131.026 204.8 132.817 204.8 135.026V375.974C204.8 378.183 203.009 379.974 200.8 379.974H188.32C186.111 379.974 184.32 378.183 184.32 375.974V135.026Z"  />
<path d="M245.76 209.711C245.76 207.501 247.551 205.711 249.76 205.711H262.24C264.449 205.711 266.24 207.501 266.24 209.711V313.737C266.24 315.946 264.449 317.737 262.24 317.737H249.76C247.551 317.737 245.76 315.946 245.76 313.737V209.711Z"  />
<path d="M81.92 135.026C81.92 132.817 80.1291 131.026 77.92 131.026H65.44C63.2309 131.026 61.44 132.817 61.44 135.026V375.974C61.44 378.183 63.2309 379.974 65.44 379.974H77.92C80.1291 379.974 81.92 378.183 81.92 375.974V135.026Z"  />
<path d="M20.48 209.711C20.48 207.501 18.6891 205.711 16.48 205.711H4C1.79086 205.711 0 207.501 0 209.711V313.737C0 315.946 1.79086 317.737 4 317.737H16.48C18.6891 317.737 20.48 315.946 20.48 313.737V209.711Z"  />
<path d="M368.64 23C368.64 20.7909 370.431 19 372.64 19H385.12C387.329 19 389.12 20.7909 389.12 23V488C389.12 490.209 387.329 492 385.12 492H372.64C370.431 492 368.64 490.209 368.64 488V23Z"  />
<path d="M430.08 135.026C430.08 132.817 431.871 131.026 434.08 131.026H446.56C448.769 131.026 450.56 132.817 450.56 135.026V375.974C450.56 378.183 448.769 379.974 446.56 379.974H434.08C431.871 379.974 430.08 378.183 430.08 375.974V135.026Z"  />
<path d="M491.52 209.711C491.52 207.501 493.311 205.711 495.52 205.711H508C510.209 205.711 512 207.501 512 209.711V313.737C512 315.946 510.209 317.737 508 317.737H495.52C493.311 317.737 491.52 315.946 491.52 313.737V209.711Z"  />
<path d="M327.68 135.026C327.68 132.817 325.889 131.026 323.68 131.026H311.2C308.991 131.026 307.2 132.817 307.2 135.026V375.974C307.2 378.183 308.991 379.974 311.2 379.974H323.68C325.889 379.974 327.68 378.183 327.68 375.974V135.026Z"  />
</svg>
