<svg width="512" height="512" viewBox="0 0 512 512" xmlns="http://www.w3.org/2000/svg">
<path d="M384 32H480V64H384V32Z"  />
<path d="M384 128H448V160H384V128Z"  />
<path d="M384 224H480V256H384V224Z"  />
<path d="M384 320H448V352H384V320Z"  />
<path d="M480 448H384C352.037 447.888 320.835 438.239 294.388 420.288C267.942 402.337 247.455 376.901 235.552 347.237C223.648 317.573 220.869 285.031 227.57 253.778C234.272 222.525 250.149 193.984 273.168 171.808C252.261 164.102 230.169 160.106 207.888 160C188.409 159.803 169.225 164.761 152.281 174.371C135.337 183.981 121.236 197.901 111.408 214.72C79.952 262.96 64 341.44 64 448H32C32 335.136 49.696 250.768 84.592 197.232C97.3434 175.959 115.427 158.382 137.054 146.239C158.681 134.097 183.102 127.81 207.904 128H208C243.948 128.512 279.305 137.224 311.376 153.472C313.847 154.761 315.939 156.674 317.443 159.021C318.948 161.367 319.813 164.066 319.954 166.85C320.095 169.634 319.506 172.406 318.245 174.892C316.985 177.378 315.097 179.492 312.768 181.024C289.954 196.353 272.661 218.599 263.432 244.489C254.203 270.379 253.526 298.547 261.5 324.851C269.474 351.154 285.678 374.205 307.729 390.613C329.78 407.02 356.514 415.919 384 416H480V448Z"  />
</svg>
