<svg width="512" height="512" viewBox="0 0 512 512"  xmlns="http://www.w3.org/2000/svg">

<path d="M112 64C133.217 64 153.566 72.4286 168.569 87.4315C183.571 102.434 192 122.783 192 144C192 148.244 193.686 152.313 196.686 155.314C199.687 158.314 203.757 160 208 160C212.243 160 216.313 158.314 219.314 155.314C222.314 152.313 224 148.244 224 144C224 121.849 217.431 100.194 205.125 81.7762C192.818 63.3579 175.326 49.0026 154.861 40.5255C134.395 32.0485 111.876 29.8306 90.1499 34.1521C68.424 38.4736 48.4675 49.1406 32.804 64.8041C17.1406 80.4676 6.47358 100.424 2.15204 122.15C-2.16951 143.876 0.0484676 166.395 8.52548 186.861C17.0025 207.326 31.3578 224.818 49.7761 237.125C68.1944 249.431 89.8485 256 112 256H496C500.243 256 504.313 254.314 507.314 251.314C510.314 248.313 512 244.244 512 240C512 235.757 510.314 231.687 507.314 228.686C504.313 225.686 500.243 224 496 224H112C90.7827 224 70.4344 215.571 55.4315 200.569C40.4285 185.566 32 165.217 32 144C32 122.783 40.4285 102.434 55.4315 87.4315C70.4344 72.4286 90.7827 64 112 64V64ZM336 96C344.487 96 352.626 99.3715 358.627 105.373C364.629 111.374 368 119.513 368 128C368 132.244 369.686 136.313 372.686 139.314C375.687 142.314 379.757 144 384 144C388.243 144 392.313 142.314 395.314 139.314C398.314 136.313 400 132.244 400 128C400 115.342 396.246 102.968 389.214 92.4436C382.182 81.9188 372.186 73.7158 360.492 68.8718C348.797 64.0278 335.929 62.7603 323.514 65.2298C311.099 67.6992 299.696 73.7947 290.745 82.7452C281.795 91.6958 275.699 103.099 273.23 115.514C270.76 127.929 272.028 140.797 276.872 152.492C281.716 164.186 289.919 174.182 300.444 181.214C310.968 188.247 323.342 192 336 192H496C500.243 192 504.313 190.314 507.314 187.314C510.314 184.313 512 180.244 512 176C512 171.757 510.314 167.687 507.314 164.686C504.313 161.686 500.243 160 496 160H336C327.513 160 319.374 156.629 313.373 150.627C307.371 144.626 304 136.487 304 128C304 119.513 307.371 111.374 313.373 105.373C319.374 99.3715 327.513 96 336 96V96ZM512 304C512 299.757 510.314 295.687 507.314 292.686C504.313 289.686 500.243 288 496 288H174.656C155.669 288 137.108 293.63 121.321 304.179C105.534 314.728 93.2296 329.721 85.9636 347.262C78.6975 364.804 76.7964 384.107 80.5006 402.729C84.2048 421.351 93.3479 438.456 106.774 451.882C120.2 465.308 137.305 474.451 155.927 478.155C174.55 481.86 193.852 479.959 211.394 472.693C228.935 465.426 243.928 453.122 254.477 437.335C265.026 421.548 270.656 402.987 270.656 384C270.656 379.757 268.97 375.687 265.97 372.686C262.969 369.686 258.899 368 254.656 368C250.413 368 246.343 369.686 243.342 372.686C240.342 375.687 238.656 379.757 238.656 384C238.656 396.658 234.902 409.032 227.87 419.557C220.838 430.081 210.842 438.284 199.148 443.128C187.453 447.972 174.585 449.24 162.17 446.77C149.755 444.301 138.352 438.205 129.401 429.255C120.451 420.304 114.355 408.901 111.886 396.486C109.416 384.071 110.684 371.203 115.528 359.508C120.372 347.814 128.575 337.818 139.1 330.786C149.624 323.754 161.998 320 174.656 320H496C500.243 320 504.313 318.314 507.314 315.314C510.314 312.313 512 308.244 512 304Z"/>
</svg>
