<svg width="25" height="27" viewBox="0 0 25 27" fill="none" xmlns="http://www.w3.org/2000/svg">
<path d="M13.751 6.709C17.711 6.709 19.958 9.293 20.285 12.415H20.385C22.934 12.415 25 14.447 25 16.954C25 19.461 22.934 21.493 20.385 21.493H7.11701C4.56801 21.493 2.50201 19.461 2.50201 16.954C2.50201 14.498 4.48701 12.497 6.96401 12.418L7.21701 12.415C7.54601 9.273 9.79001 6.709 13.751 6.709ZM13.751 8.246C11.089 8.246 8.767 10.371 8.767 13.305C8.767 13.77 8.35701 14.135 7.88801 14.135H6.99901C5.37701 14.135 4.06301 15.438 4.06301 17.045C4.06301 18.652 5.37701 19.954 6.99901 19.954H20.502C22.124 19.954 23.438 18.651 23.438 17.045C23.438 15.438 22.124 14.135 20.502 14.135H19.615C19.145 14.135 18.735 13.77 18.735 13.305C18.735 10.333 16.414 8.246 13.751 8.246ZM9.999 3C10.958 3 11.902 3.23 12.75 3.67C13.598 4.111 14.324 4.749 14.866 5.529C14.153 5.446 13.432 5.442 12.718 5.519C11.963 4.874 10.998 4.518 9.999 4.518C7.947 4.518 6.19701 6.011 5.84701 8.028L5.65101 9.155C5.62601 9.298 5.55101 9.429 5.43801 9.523C5.32501 9.616 5.18301 9.668 5.03501 9.668H3.81801C2.52901 9.668 1.48401 10.722 1.48401 12.023C1.48401 12.705 1.77101 13.318 2.23001 13.748C1.95801 14.149 1.73901 14.582 1.57801 15.037C0.905005 14.519 0.413005 13.806 0.170005 12.998C-0.0729948 12.191 -0.0539948 11.329 0.224005 10.532C0.501005 9.736 1.02401 9.046 1.72001 8.556C2.41501 8.067 3.24801 7.804 4.10201 7.804H4.19101C4.43201 6.458 5.14701 5.239 6.20901 4.36C7.27101 3.481 8.613 3 9.999 3Z" fill="#fff"/>
</svg>
