<svg width="512" height="512" viewBox="0 0 512 512"  xmlns="http://www.w3.org/2000/svg">
<path d="M405.333 85.3333H362.667V64C362.667 58.342 360.419 52.9158 356.418 48.9151C352.418 44.9143 346.991 42.6667 341.333 42.6667C335.675 42.6667 330.249 44.9143 326.248 48.9151C322.248 52.9158 320 58.342 320 64V85.3333H192V64C192 58.342 189.752 52.9158 185.752 48.9151C181.751 44.9143 176.325 42.6667 170.667 42.6667C165.009 42.6667 159.583 44.9143 155.582 48.9151C151.581 52.9158 149.333 58.342 149.333 64V85.3333H106.667C89.6928 85.3333 73.4142 92.0762 61.4118 104.079C49.4095 116.081 42.6667 132.359 42.6667 149.333V405.333C42.6667 422.307 49.4095 438.586 61.4118 450.588C73.4142 462.591 89.6928 469.333 106.667 469.333H405.333C422.307 469.333 438.586 462.591 450.588 450.588C462.591 438.586 469.333 422.307 469.333 405.333V149.333C469.333 132.359 462.591 116.081 450.588 104.079C438.586 92.0762 422.307 85.3333 405.333 85.3333V85.3333ZM426.667 405.333C426.667 410.991 424.419 416.418 420.418 420.418C416.418 424.419 410.991 426.667 405.333 426.667H106.667C101.009 426.667 95.5825 424.419 91.5817 420.418C87.581 416.418 85.3333 410.991 85.3333 405.333V256H426.667V405.333ZM426.667 213.333H85.3333V149.333C85.3333 143.675 87.581 138.249 91.5817 134.248C95.5825 130.248 101.009 128 106.667 128H149.333V149.333C149.333 154.991 151.581 160.418 155.582 164.418C159.583 168.419 165.009 170.667 170.667 170.667C176.325 170.667 181.751 168.419 185.752 164.418C189.752 160.418 192 154.991 192 149.333V128H320V149.333C320 154.991 322.248 160.418 326.248 164.418C330.249 168.419 335.675 170.667 341.333 170.667C346.991 170.667 352.418 168.419 356.418 164.418C360.419 160.418 362.667 154.991 362.667 149.333V128H405.333C410.991 128 416.418 130.248 420.418 134.248C424.419 138.249 426.667 143.675 426.667 149.333V213.333Z" fill="#0066A6"/>
</svg>
