<?xml version="1.0" encoding="utf-8"?>
<!-- Generator: Adobe Illustrator 25.2.1, SVG Export Plug-In . SVG Version: 6.00 Build 0)  -->
<svg version="1.1" id="Layer_1" xmlns="http://www.w3.org/2000/svg" xmlns:xlink="http://www.w3.org/1999/xlink" x="0px" y="0px"
	 viewBox="0 0 50 54" style="enable-background:new 0 0 50 54;" xml:space="preserve">

<path class="st0" d="M45.9,13.4c2.3,0,4.1-1.9,4.1-4.1c0-2.7-1.5-6-4.1-9.5c-2.6,3.5-4.1,6.8-4.1,9.5C41.8,11.5,43.6,13.4,45.9,13.4
	z M45.9,2.7c1.6,2.6,2.4,4.8,2.4,6.6c0,1.4-1.1,2.5-2.4,2.5c-1.3,0-2.4-1.1-2.4-2.5C43.5,7.5,44.3,5.2,45.9,2.7z"/>
<path class="st0" d="M35.3,14.1c-0.7-1.9-1.8-3.9-3.4-6c-1.1,1.5-1.9,2.9-2.6,4.2c-1.2-0.2-2.4-0.3-3.6-0.4V8.8
	c0-0.2-0.1-0.4-0.2-0.6C25.4,8.1,25.2,8,24.9,8c-0.2,0-0.4,0.1-0.6,0.2c-0.1,0.1-0.2,0.3-0.2,0.6V12c-1.2,0-2.3,0.2-3.5,0.4
	c0.4-0.4,0.8-0.9,1-1.4c0.2-0.5,0.4-1.1,0.4-1.7c0-2.7-1.5-6-4.1-9.5c-2.6,3.5-4.1,6.8-4.1,9.5c0,0.9,0.3,1.8,0.9,2.5
	c0.6,0.7,1.3,1.2,2.2,1.5c-3.3,1-6.3,2.7-8.9,5c0-0.2,0.1-0.4,0.1-0.5c0-2.7-1.5-6-4.1-9.5c-2.6,3.5-4.1,6.8-4.1,9.5
	c0,2.3,1.8,4.1,4.1,4.1c0.2,0,0.4,0,0.7-0.1c-2.3,2.9-3.9,6.2-4.8,9.9c0.8-0.8,1.7-1.4,2.7-1.8c1-0.4,2.1-0.6,3.2-0.6
	c1.2,0,2.5,0.3,3.6,0.8c1.1,0.5,2.1,1.3,2.8,2.3c0.8-1,1.7-1.8,2.8-2.3c1.1-0.5,2.3-0.8,3.6-0.8c2.1,0,4.1,0.8,5.6,2.3v7.4h-0.8v4.7
	c0,0.8-0.3,1.6-0.9,2.2c-0.6,0.6-1.4,0.9-2.2,0.9c-0.8,0-1.6-0.3-2.2-0.9c-0.6-0.6-0.9-1.4-0.9-2.2c0-0.4-0.2-0.8-0.5-1.1
	C16.4,42.2,16,42,15.6,42c-0.4,0-0.8,0.2-1.1,0.4c-0.3,0.3-0.5,0.7-0.5,1.1c0,3.5,2.8,6.3,6.3,6.3c3.5,0,6.3-2.8,6.3-6.3v-4.7h-0.8
	v-7.4c1.5-1.5,3.5-2.3,5.6-2.3c1.2,0,2.5,0.3,3.6,0.8c1.1,0.5,2.1,1.3,2.8,2.3c0.8-1,1.7-1.8,2.8-2.3c1.1-0.5,2.3-0.8,3.6-0.8
	c1.1,0,2.2,0.2,3.2,0.6c1,0.4,1.9,1,2.7,1.8C48.2,23.8,42.7,17.3,35.3,14.1z M15.5,9.2c0-1.8,0.8-4,2.4-6.6c1.6,2.6,2.4,4.8,2.4,6.6
	c0,1.4-1.1,2.5-2.4,2.5C16.6,11.7,15.5,10.6,15.5,9.2z M1.6,17.6c0-1.7,0.9-4,2.4-6.6c1.6,2.6,2.4,4.8,2.4,6.6
	c0,1.4-1.1,2.5-2.4,2.5C2.7,20.1,1.6,19,1.6,17.6z M31.9,11.1c1.6,2.6,2.4,4.8,2.4,6.6c0,1.4-1.1,2.5-2.4,2.5
	c-1.3,0-2.4-1.1-2.4-2.5C29.5,15.9,30.4,13.6,31.9,11.1z"/>
</svg>
