<svg width="52" height="48" viewBox="0 0 52 48" fill="none" xmlns="http://www.w3.org/2000/svg">
<g clip-path="url(#clip0_1207_333)">
<path fill-rule="evenodd" clip-rule="evenodd" d="M23.7 0.800054C18.6 1.50005 14.3 5.40005 13.4 10.1001L13.2 10.9001L12.2 10.8001C5.30003 10.4001 -0.299968 16.1001 0.800032 22.4001C1.50003 26.8001 5.30003 30.3001 10.2 30.9001C10.6 31.0001 16.3 31.0001 25.6 31.0001C34.9 31.0001 40.7 31.0001 41.1 30.9001C46.6 30.2001 50.6 25.9001 50.6 20.9001C50.6 15.1001 45.3 10.5001 39.1 10.8001L38.1 10.9001L37.9 10.0001C36.7 4.00005 30.3 -0.199946 23.7 0.800054ZM27.9 3.80005C32.1 4.80005 34.8 7.90005 35 12.0001C35.1 14.0001 35.7 14.4001 37.7 13.9001C42.6 12.7001 47.5 16.1001 47.5 20.9001C47.5 24.3001 45.3 26.9001 41.6 27.9001C40.9 28.1001 11.7 28.2001 10.4 28.0001C4.80003 27.2001 2.00003 21.3001 5.00003 17.0001C6.90003 14.4001 10.3 13.1001 13.6 14.0001C15.6 14.5001 16.1 14.1001 16.3 12.1001C16.6 7.60005 19.6 4.50005 24.5 3.70005C25 3.50005 27.2 3.60005 27.9 3.80005ZM9.40003 34.0001C8.70003 34.3001 6.90003 36.8001 6.90003 37.5001C6.90003 38.6001 8.30003 39.3001 9.30003 38.7001C10 38.2001 11.5 35.9001 11.5 35.3001C11.5 34.3001 10.4 33.6001 9.40003 34.0001ZM22.7 34.0001C22 34.3001 20.2 36.8001 20.2 37.5001C20.2 38.6001 21.6 39.3001 22.6 38.7001C23.3 38.2001 24.8 35.9001 24.8 35.3001C24.8 34.3001 23.7 33.6001 22.7 34.0001ZM37.6 34.0001C36.9 34.3001 35.1 36.8001 35.1 37.5001C35.1 38.6001 36.5 39.3001 37.5 38.7001C38.2 38.2001 39.7 35.9001 39.7 35.3001C39.7 34.3001 38.6 33.6001 37.6 34.0001ZM15.7 36.9001C15 37.2001 13.2 39.7001 13.2 40.4001C13.2 41.5001 14.6 42.2001 15.6 41.6001C16.3 41.1001 17.8 38.8001 17.8 38.2001C17.8 37.2001 16.7 36.5001 15.7 36.9001ZM29.7 36.9001C29 37.2001 27.2 39.7001 27.2 40.4001C27.2 41.5001 28.6 42.2001 29.6 41.6001C30.3 41.1001 31.8 38.8001 31.8 38.2001C31.8 37.2001 30.7 36.5001 29.7 36.9001ZM8.60003 42.0001C7.90003 42.3001 6.10003 44.8001 6.10003 45.5001C6.10003 46.6001 7.50003 47.3001 8.50003 46.7001C9.20003 46.2001 10.7 43.9001 10.7 43.3001C10.7 42.3001 9.60003 41.6001 8.60003 42.0001ZM22.7 42.0001C22 42.3001 20.2 44.8001 20.2 45.5001C20.2 46.6001 21.6 47.3001 22.6 46.7001C23.3 46.2001 24.8 43.9001 24.8 43.3001C24.8 42.3001 23.7 41.6001 22.7 42.0001ZM36.8 42.0001C36.1 42.3001 34.3 44.8001 34.3 45.5001C34.3 46.6001 35.7 47.3001 36.7 46.7001C37.4 46.2001 38.9 43.9001 38.9 43.3001C38.9 42.3001 37.8 41.6001 36.8 42.0001Z" fill="#1966A1"/>
<path d="M21.8 47.6C21.4 47.6 21.1 47.5 20.7 47.3C20 46.9 19.6 46.2 19.6 45.5C19.6 44.5 21.5 41.7 22.5 41.4C23.2 41.1 24 41.2 24.6 41.6C25.2 42 25.5 42.6 25.5 43.3C25.5 44.2 23.7 46.7 23 47.2C22.6 47.5 22.2 47.6 21.8 47.6ZM22.9 42.6C22.4 42.8 20.9 45 20.8 45.5C20.8 45.8 21 46 21.3 46.2C21.5 46.3 21.9 46.4 22.2 46.2C22.7 45.9 24.1 43.8 24.1 43.3C24.1 43.1 24 42.8 23.7 42.7C23.5 42.5 23.2 42.5 22.9 42.6ZM7.70002 47.6C7.30002 47.6 7.00002 47.5 6.60002 47.3C5.90002 46.9 5.50002 46.2 5.50002 45.5C5.50002 44.5 7.40002 41.7 8.40002 41.4C9.10002 41.1 9.90002 41.2 10.5 41.6C11.1 42 11.4 42.6 11.4 43.3C11.4 44.2 9.60002 46.7 8.90002 47.2C8.50002 47.5 8.10002 47.6 7.70002 47.6ZM8.90002 42.6C8.40002 42.8 6.90002 45 6.80002 45.5C6.80002 45.8 7.00002 46 7.30002 46.2C7.50002 46.3 7.90002 46.4 8.20002 46.2C8.70002 45.9 10.1 43.8 10.1 43.3C10.1 43.1 10 42.8 9.70002 42.7C9.50002 42.5 9.20002 42.5 8.90002 42.6ZM35.8 47.6C35.4 47.6 35.1 47.5 34.7 47.3C34 46.9 33.6 46.2 33.6 45.5C33.6 44.5 35.5 41.7 36.5 41.4C37.2 41.1 38 41.2 38.6 41.6C39.2 42 39.5 42.6 39.5 43.3C39.5 44.2 37.7 46.7 37 47.2C36.7 47.5 36.3 47.6 35.8 47.6ZM37 42.6C36.5 42.8 35 45 34.9 45.5C34.9 45.8 35.1 46 35.4 46.2C35.6 46.3 36 46.4 36.3 46.2C36.8 45.8 38.2 43.8 38.2 43.3C38.2 43.1 38.1 42.8 37.8 42.7C37.6 42.5 37.3 42.5 37 42.6ZM28.8 42.5C28.4 42.5 28.1 42.4 27.7 42.2C27 41.8 26.6 41.1 26.6 40.4C26.6 39.4 28.5 36.6 29.5 36.3C30.2 36 31 36.1 31.6 36.5C32.2 36.9 32.5 37.5 32.5 38.2C32.5 39.1 30.7 41.6 30 42.1C29.6 42.4 29.2 42.5 28.8 42.5ZM30 37.5C29.5 37.7 28 39.9 27.9 40.4C27.9 40.7 28.1 40.9 28.4 41.1C28.6 41.2 29 41.3 29.3 41.1C29.8 40.8 31.2 38.7 31.2 38.2C31.2 38 31.1 37.7 30.8 37.6C30.6 37.4 30.3 37.4 30 37.5ZM14.7 42.5C14.3 42.5 14 42.4 13.6 42.2C12.9 41.8 12.5 41.1 12.5 40.4C12.5 39.4 14.4 36.6 15.4 36.3C16.1 36 16.9 36.1 17.5 36.5C18.1 36.9 18.4 37.5 18.4 38.2C18.4 39.1 16.6 41.6 15.9 42.1C15.6 42.4 15.2 42.5 14.7 42.5ZM15.9 37.5C15.4 37.7 13.9 39.9 13.8 40.4C13.8 40.7 14 40.9 14.3 41.1C14.5 41.2 14.9 41.3 15.2 41.1C15.7 40.7 17.1 38.7 17.1 38.2C17.1 38 17 37.7 16.7 37.6C16.5 37.4 16.2 37.4 15.9 37.5ZM36.6 39.6C36.2 39.6 35.9 39.5 35.5 39.3C34.8 38.9 34.4 38.2 34.4 37.5C34.4 36.5 36.3 33.7 37.3 33.4C38 33.1 38.8 33.2 39.4 33.6C40 34 40.3 34.6 40.3 35.3C40.3 36.2 38.5 38.7 37.8 39.2C37.4 39.5 37 39.6 36.6 39.6ZM37.8 34.6C37.3 34.8 35.8 37 35.7 37.5C35.7 37.8 35.9 38 36.2 38.2C36.4 38.3 36.8 38.4 37.1 38.2C37.6 37.8 39 35.8 39 35.3C39 35.1 38.9 34.8 38.6 34.7C38.4 34.5 38.1 34.5 37.8 34.6ZM21.8 39.6C21.4 39.6 21.1 39.5 20.7 39.3C20 38.9 19.6 38.2 19.6 37.5C19.6 36.5 21.5 33.7 22.5 33.4C23.2 33.1 24 33.2 24.6 33.6C25.2 34 25.5 34.6 25.5 35.3C25.5 36.2 23.7 38.7 23 39.2C22.6 39.5 22.2 39.6 21.8 39.6ZM22.9 34.6C22.4 34.8 20.9 37 20.8 37.5C20.8 37.8 21 38 21.3 38.2C21.5 38.3 21.9 38.4 22.2 38.2C22.7 37.8 24.1 35.8 24.1 35.3C24.1 35.1 24 34.8 23.7 34.7C23.6 34.5 23.2 34.5 22.9 34.6ZM8.50002 39.6C8.10002 39.6 7.80002 39.5 7.40002 39.3C6.70002 38.9 6.30002 38.2 6.30002 37.5C6.30002 36.5 8.20002 33.7 9.20002 33.4C9.90002 33.1 10.7 33.2 11.3 33.6C11.9 34 12.2 34.6 12.2 35.3C12.2 36.2 10.4 38.7 9.70002 39.2C9.30002 39.5 8.90002 39.6 8.50002 39.6ZM9.70002 34.6C9.20002 34.8 7.70002 37 7.60002 37.5C7.60002 37.8 7.80002 38 8.10002 38.2C8.30002 38.3 8.70002 38.4 9.00002 38.2C9.50002 37.8 10.9 35.8 10.9 35.3C10.9 35.1 10.8 34.8 10.5 34.7C10.3 34.5 9.90002 34.5 9.70002 34.6ZM25.6 31.7C20.1 31.7 10.7 31.7 10 31.6C4.80002 30.9 0.800019 27.3 0.100019 22.6C-0.399981 19.6 0.500019 16.4 2.70002 14.1C5.10002 11.5 8.50002 10.1 12.2 10.2H12.7L12.8 9.90003C13.8 4.90003 18.3 0.900026 23.7 0.100026C30.7 -0.899974 37.4 3.50003 38.7 9.90003L38.8 10.2H39.3C42.6 10 45.9 11.2 48.2 13.4C50.3 15.4 51.5 18.1 51.5 20.9C51.5 26.2 47.2 30.8 41.4 31.6C40.6 31.7 31.2 31.7 25.6 31.7ZM11.5 11.4C8.40002 11.4 5.60002 12.6 3.60002 14.8C1.70002 16.9 0.900019 19.6 1.40002 22.3C2.10002 26.5 5.60002 29.7 10.2 30.3C10.6 30.3 14.8 30.4 25.6 30.4C36.4 30.4 40.6 30.4 41 30.3C46.1 29.6 50 25.6 50 20.9C50 18.4 49 16.1 47.1 14.3C45 12.3 42.1 11.3 39.2 11.4L37.6 11.5L37.3 10.1C36.2 4.40003 30.1 0.500026 23.8 1.40003C19 2.10003 14.9 5.80003 14 10.2L13.7 11.6L12.1 11.5C11.9 11.4 11.7 11.4 11.5 11.4ZM20.9 28.8C15.4 28.8 10.9 28.8 10.3 28.7C7.30002 28.3 4.90002 26.4 3.70002 23.8C2.70002 21.4 2.90002 18.8 4.50002 16.6C6.50002 13.7 10.2 12.4 13.8 13.3C14.6 13.5 15.1 13.5 15.3 13.4C15.5 13.3 15.6 12.8 15.7 12C16 7.20003 19.2 3.90003 24.4 3.00003C25.1 2.90003 27.3 3.00003 28.1 3.20003C32.5 4.30003 35.4 7.70003 35.7 12C35.7 12.8 35.9 13.2 36 13.4C36.2 13.5 36.7 13.5 37.5 13.3C40.1 12.6 43 13.2 45.1 14.9C47 16.4 48.1 18.6 48.1 21C48.1 24.7 45.7 27.5 41.7 28.7C41.2 28.7 29.8 28.8 20.9 28.8ZM11.6 14.3C9.20002 14.3 6.90002 15.4 5.50002 17.3C4.20002 19.1 4.00002 21.2 4.90002 23.2C5.80002 25.4 7.90002 26.9 10.5 27.3C11.8 27.5 40.1 27.4 41.4 27.2C44.8 26.2 46.8 23.9 46.8 20.8C46.8 18.9 45.9 17 44.3 15.8C42.5 14.4 40.1 13.9 37.8 14.5C36.9 14.7 35.9 14.9 35.2 14.4C34.5 13.9 34.4 13 34.3 12C34.1 8.20003 31.6 5.30003 27.7 4.40003C27 4.20003 25 4.10003 24.5 4.20003C20 5.00003 17.2 7.90003 16.9 12.1C16.8 13 16.7 14 16 14.5C15.3 15 14.4 14.9 13.4 14.6C12.9 14.4 12.2 14.3 11.6 14.3Z" fill="#1966A1"/>
</g>
<defs>
<clipPath id="clip0_1207_333">
<rect width="51.3" height="47.6" fill="white"/>
</clipPath>
</defs>
</svg>
