<svg width="25" height="27" viewBox="0 0 25 27" fill="none" xmlns="http://www.w3.org/2000/svg">
<mask  style="mask-type:alpha" maskUnits="userSpaceOnUse" x="0" y="0" width="25" height="27">
<path d="M25 0H0V27H25V0Z" fill="white"/>
</mask>
<path d="M13.0575 15.0924V5.63635H11.5424V15.0924C11.0369 15.2615 10.6109 15.5944 10.3397 16.0323C10.0684 16.4701 9.96933 16.9846 10.06 17.4849C10.1506 17.9852 10.4252 18.439 10.8351 18.7661C11.245 19.0933 11.7639 19.2727 12.3 19.2727C12.8361 19.2727 13.355 19.0933 13.7649 18.7661C14.1748 18.439 14.4493 17.9852 14.54 17.4849C14.6306 16.9846 14.5316 16.4701 14.2603 16.0323C13.9891 15.5944 13.563 15.2615 13.0575 15.0924Z" fill="white"/>
<path d="M12.3 22C11.3158 22.0011 10.3532 21.7114 9.53314 21.1672C8.71306 20.623 8.07201 19.8486 7.6905 18.9413C7.30899 18.0339 7.20403 17.0341 7.38879 16.0673C7.57355 15.1005 8.03981 14.2098 8.72901 13.5072V5.57143C8.72901 4.62423 9.10524 3.71582 9.77493 3.04605C10.4446 2.37627 11.3529 2 12.3 2C13.2471 2 14.1554 2.37627 14.8251 3.04605C15.4947 3.71582 15.871 4.62423 15.871 5.57143V13.5072C16.5602 14.2098 17.0264 15.1005 17.2112 16.0673C17.396 17.0341 17.291 18.0339 16.9094 18.9413C16.528 19.8486 15.8869 20.623 15.0668 21.1672C14.2467 21.7114 13.2842 22.0011 12.3 22ZM12.3 3.42857C11.7319 3.42914 11.1873 3.65508 10.7856 4.05683C10.3839 4.45856 10.158 5.00328 10.1574 5.57143V14.1307L9.92029 14.3443C9.38098 14.8264 9.00077 15.4609 8.82998 16.1638C8.65919 16.8668 8.70587 17.6051 8.96384 18.2809C9.22183 18.9567 9.67893 19.5383 10.2747 19.9485C10.8704 20.3588 11.5767 20.5785 12.3 20.5785C13.0234 20.5785 13.7296 20.3588 14.3254 19.9485C14.9211 19.5383 15.3782 18.9567 15.6362 18.2809C15.8941 17.6051 15.9408 16.8668 15.77 16.1638C15.5992 15.4609 15.219 14.8264 14.6797 14.3443L14.4425 14.1307V5.57143C14.442 5.00328 14.2161 4.45856 13.8144 4.05683C13.4127 3.65508 12.8681 3.42914 12.3 3.42857Z" fill="white"/>
<path d="M21.8417 6.28838V15.7649C21.8417 16.1234 22.0784 16.414 22.3702 16.414H22.8232C23.1151 16.414 23.3517 16.1234 23.3517 15.7649V6.28838H24.7681C25.1601 6.28838 25.3683 5.82556 25.1083 5.5323L22.999 3.15301C22.8207 2.95195 22.5079 2.94855 22.3254 3.1457L20.1219 5.52498C19.8525 5.81596 20.0588 6.28838 20.4554 6.28838H21.8417Z" fill="white"/>

</svg>
