<svg width="25" height="27" viewBox="0 0 25 27" fill="none" xmlns="http://www.w3.org/2000/svg">
<mask id="mask0_1104_139" style="mask-type:alpha" maskUnits="userSpaceOnUse" x="0" y="0" width="25" height="27">
<path d="M25 0H0V27H25V0Z" fill="black"/>
</mask>
<g mask="url(#mask0_1104_139)">
<path d="M9.38823 16.8004V4.66626H7.44399V16.8004C6.79537 17.0175 6.24869 17.4447 5.90059 18.0065C5.5525 18.5684 5.42538 19.2286 5.54172 19.8706C5.65805 20.5126 6.01035 21.0949 6.53635 21.5146C7.06234 21.9345 7.72816 22.1648 8.41613 22.1648C9.10405 22.1648 9.76993 21.9345 10.2959 21.5146C10.8219 21.0949 11.1742 20.5126 11.2905 19.8706C11.4069 19.2286 11.2798 18.5684 10.9317 18.0065C10.5836 17.4447 10.0368 17.0175 9.38823 16.8004Z" fill="#0066A6"/>
<path d="M8.41612 25.6645C7.1532 25.6659 5.918 25.2941 4.86564 24.5958C3.81329 23.8975 2.99067 22.9038 2.50111 21.7394C2.01155 20.5751 1.87686 19.2921 2.11395 18.0515C2.35105 16.8108 2.94935 15.6679 3.83375 14.7663V4.58294C3.83375 3.36747 4.31654 2.20178 5.1759 1.34231C6.03525 0.482844 7.2008 0 8.41612 0C9.63145 0 10.797 0.482844 11.6564 1.34231C12.5157 2.20178 12.9985 3.36747 12.9985 4.58294V14.7663C13.8829 15.6679 14.4812 16.8108 14.7183 18.0515C14.9554 19.2921 14.8207 20.5751 14.3311 21.7394C13.8416 22.9038 13.0189 23.8975 11.9666 24.5958C10.9142 25.2941 9.67905 25.6659 8.41612 25.6645ZM8.41612 1.83318C7.68716 1.8339 6.98824 2.12384 6.47278 2.63937C5.95732 3.15489 5.66742 3.85388 5.6667 4.58294V15.5664L5.36243 15.8405C4.67038 16.4591 4.18249 17.2734 3.96332 18.1753C3.74416 19.0774 3.80406 20.0248 4.1351 20.892C4.46615 21.7593 5.05271 22.5055 5.81717 23.032C6.58164 23.5585 7.48793 23.8404 8.41612 23.8404C9.34436 23.8404 10.2507 23.5585 11.0151 23.032C11.7796 22.5055 12.3661 21.7593 12.6972 20.892C13.0281 20.0248 13.0881 19.0774 12.8689 18.1753C12.6497 17.2734 12.1618 16.4591 11.4698 15.8405L11.1655 15.5664V4.58294C11.1648 3.85388 10.8749 3.15489 10.3595 2.63937C9.844 2.12384 9.14511 1.8339 8.41612 1.83318Z" fill="#0066A6"/>
<path d="M20.6603 14.2767V2.11616C20.6603 1.65618 20.964 1.28323 21.3385 1.28323H21.9198C22.2944 1.28323 22.598 1.65618 22.598 2.11616V14.2767H24.4155C24.9185 14.2767 25.1857 14.8706 24.852 15.2469L22.1454 18.3C21.9166 18.5581 21.5152 18.5624 21.281 18.3094L18.4534 15.2563C18.1077 14.8829 18.3725 14.2767 18.8813 14.2767H20.6603Z" fill="#0066A6"/>
</g>
</svg>
