<svg width="25" height="27" viewBox="0 0 25 27" fill="none" xmlns="http://www.w3.org/2000/svg">
<mask style="mask-type:alpha" maskUnits="userSpaceOnUse" x="0" y="0" width="25" height="27">
<path d="M25 0H0V27H25V0Z" fill="white"/>
</mask>
<g mask="url(#mask0_1103_80)">
<path d="M13.0576 15.0924V5.63635H11.5424V15.0924C11.037 15.2615 10.611 15.5944 10.3397 16.0323C10.0684 16.4701 9.96936 16.9846 10.06 17.4849C10.1507 17.9852 10.4252 18.439 10.8351 18.7661C11.245 19.0933 11.7639 19.2727 12.3 19.2727C12.8361 19.2727 13.355 19.0933 13.7649 18.7661C14.1748 18.439 14.4494 17.9852 14.54 17.4849C14.6306 16.9846 14.5316 16.4701 14.2604 16.0323C13.9891 15.5944 13.563 15.2615 13.0576 15.0924Z" fill="white"/>
<path d="M12.3 22C13.2842 22.0011 14.2468 21.7114 15.0669 21.1672C15.8869 20.623 16.528 19.8486 16.9095 18.9413C17.291 18.0339 17.396 17.0341 17.2112 16.0673C17.0265 15.1005 16.5602 14.2098 15.871 13.5072V5.57143C15.871 4.62423 15.4948 3.71582 14.8251 3.04605C14.1554 2.37627 13.2471 2 12.3 2C11.3529 2 10.4447 2.37627 9.77493 3.04605C9.10529 3.71582 8.72902 4.62423 8.72902 5.57143V13.5072C8.03984 14.2098 7.57356 15.1005 7.38884 16.0673C7.20402 17.0341 7.30902 18.0339 7.69056 18.9413C8.07202 19.8486 8.71311 20.623 9.5332 21.1672C10.3533 21.7114 11.3158 22.0011 12.3 22ZM12.3 3.42857C12.8681 3.42914 13.4127 3.65508 13.8144 4.05683C14.2161 4.45856 14.442 5.00328 14.4426 5.57143V14.1307L14.6797 14.3443C15.219 14.8264 15.5992 15.4609 15.77 16.1638C15.9408 16.8668 15.8941 17.6051 15.6362 18.2809C15.3782 18.9567 14.9211 19.5383 14.3253 19.9485C13.7296 20.3588 13.0233 20.5785 12.3 20.5785C11.5767 20.5785 10.8704 20.3588 10.2747 19.9485C9.67893 19.5383 9.22184 18.9567 8.96384 18.2809C8.70593 17.6051 8.6592 16.8668 8.83002 16.1638C9.00084 15.4609 9.38102 14.8264 9.92029 14.3443L10.1575 14.1307V5.57143C10.158 5.00328 10.3839 4.45856 10.7856 4.05683C11.1873 3.65508 11.7319 3.42914 12.3 3.42857Z" fill="white"/>
<path d="M23.3819 13.1256V3.64909C23.3819 3.29063 23.1452 3 22.8534 3H22.4004C22.1085 3 21.8719 3.29063 21.8719 3.64909V13.1256H20.4555C20.0635 13.1256 19.8553 13.5884 20.1153 13.8817L22.2246 16.261C22.4029 16.4621 22.7157 16.4655 22.8982 16.2683L25.1017 13.889C25.3711 13.598 25.1648 13.1256 24.7682 13.1256H23.3819Z" fill="white"/>
</g>
</svg>
