<svg width="18" height="22" viewBox="0 0 18 22" fill="none" xmlns="http://www.w3.org/2000/svg">
<mask maskUnits="userSpaceOnUse" x="0" y="0" width="9" height="22" fill="black">
<rect fill="white" width="9" height="22"/>
<path fill-rule="evenodd" clip-rule="evenodd" d="M3.20599 15.6876L3.72529 15.4029V14.8107V10.7769C3.7165 10.7777 3.70759 10.7782 3.69857 10.7782H2.72529V14.8107C1.6971 15.3743 1 16.4668 1 17.7221C1 19.5545 2.48546 21.0399 4.31787 21.0399C6.15028 21.0399 7.63574 19.5545 7.63574 17.7221C7.63574 16.5216 6.99817 15.47 6.04316 14.8875V2.65894C6.04316 1.74273 5.30043 1 4.38423 1C3.46802 1 2.72529 1.74273 2.72529 2.65894V4.67332H3.69857C3.70759 4.67332 3.7165 4.67377 3.72529 4.67465V2.65894C3.72529 2.29502 4.02031 2 4.38423 2C4.74815 2 5.04316 2.29502 5.04316 2.65894V14.8875V15.4489L5.52243 15.7412C6.1922 16.1498 6.63574 16.8846 6.63574 17.7221C6.63574 19.0022 5.598 20.0399 4.31787 20.0399C3.03775 20.0399 2 19.0022 2 17.7221C2 16.8465 2.48512 16.0828 3.20599 15.6876ZM3.72529 5.20285C3.7165 5.20373 3.70759 5.20418 3.69857 5.20418H2.72529V7.46032H3.69857C3.70759 7.46032 3.7165 7.46077 3.72529 7.46165V5.20285ZM3.72529 7.98985C3.7165 7.99073 3.70759 7.99118 3.69857 7.99118H2.72529V10.2473H3.69857C3.70759 10.2473 3.7165 10.2478 3.72529 10.2486V7.98985Z"/>
</mask>
<path fill-rule="evenodd" clip-rule="evenodd" d="M3.20599 15.6876L3.72529 15.4029V14.8107V10.7769C3.7165 10.7777 3.70759 10.7782 3.69857 10.7782H2.72529V14.8107C1.6971 15.3743 1 16.4668 1 17.7221C1 19.5545 2.48546 21.0399 4.31787 21.0399C6.15028 21.0399 7.63574 19.5545 7.63574 17.7221C7.63574 16.5216 6.99817 15.47 6.04316 14.8875V2.65894C6.04316 1.74273 5.30043 1 4.38423 1C3.46802 1 2.72529 1.74273 2.72529 2.65894V4.67332H3.69857C3.70759 4.67332 3.7165 4.67377 3.72529 4.67465V2.65894C3.72529 2.29502 4.02031 2 4.38423 2C4.74815 2 5.04316 2.29502 5.04316 2.65894V14.8875V15.4489L5.52243 15.7412C6.1922 16.1498 6.63574 16.8846 6.63574 17.7221C6.63574 19.0022 5.598 20.0399 4.31787 20.0399C3.03775 20.0399 2 19.0022 2 17.7221C2 16.8465 2.48512 16.0828 3.20599 15.6876ZM3.72529 5.20285C3.7165 5.20373 3.70759 5.20418 3.69857 5.20418H2.72529V7.46032H3.69857C3.70759 7.46032 3.7165 7.46077 3.72529 7.46165V5.20285ZM3.72529 7.98985C3.7165 7.99073 3.70759 7.99118 3.69857 7.99118H2.72529V10.2473H3.69857C3.70759 10.2473 3.7165 10.2478 3.72529 10.2486V7.98985Z" fill="#0066A6"/>
<path d="M3.72529 15.4029L3.96564 15.8414L4.22529 15.699V15.4029H3.72529ZM3.20599 15.6876L2.96564 15.2491L2.96564 15.2491L3.20599 15.6876ZM3.72529 10.7769H4.22529V10.2244L3.67557 10.2793L3.72529 10.7769ZM2.72529 10.7782V10.2782H2.22529V10.7782H2.72529ZM2.72529 14.8107L2.96564 15.2491L3.22529 15.1068V14.8107H2.72529ZM6.04316 14.8875H5.54316V15.1682L5.7828 15.3144L6.04316 14.8875ZM2.72529 4.67332H2.22529V5.17332H2.72529V4.67332ZM3.72529 4.67465L3.67556 5.17217L4.22529 5.22712V4.67465H3.72529ZM5.04316 15.4489H4.54316V15.7296L4.7828 15.8757L5.04316 15.4489ZM5.52243 15.7412L5.26206 16.1681L5.26206 16.1681L5.52243 15.7412ZM3.72529 5.20285H4.22529V4.65036L3.67555 4.70533L3.72529 5.20285ZM2.72529 5.20418V4.70418H2.22529V5.20418H2.72529ZM2.72529 7.46032H2.22529V7.96032H2.72529V7.46032ZM3.72529 7.46165L3.67555 7.95917L4.22529 8.01414V7.46165H3.72529ZM3.72529 7.98985H4.22529V7.43736L3.67555 7.49233L3.72529 7.98985ZM2.72529 7.99118V7.49118H2.22529V7.99118H2.72529ZM2.72529 10.2473H2.22529V10.7473H2.72529V10.2473ZM3.72529 10.2486L3.67557 10.7462L4.22529 10.8011V10.2486H3.72529ZM3.48495 14.9645L2.96564 15.2491L3.44633 16.126L3.96564 15.8414L3.48495 14.9645ZM3.22529 14.8107V15.4029H4.22529V14.8107H3.22529ZM3.22529 10.7769V14.8107H4.22529V10.7769H3.22529ZM3.67557 10.2793C3.68327 10.2786 3.69094 10.2782 3.69857 10.2782V11.2782C3.72423 11.2782 3.74974 11.2769 3.77501 11.2744L3.67557 10.2793ZM3.69857 10.2782H2.72529V11.2782H3.69857V10.2782ZM3.22529 14.8107V10.7782H2.22529V14.8107H3.22529ZM1.5 17.7221C1.5 16.6566 2.09111 15.7285 2.96564 15.2491L2.48495 14.3723C1.30309 15.0201 0.5 16.277 0.5 17.7221H1.5ZM4.31787 20.5399C2.7616 20.5399 1.5 19.2783 1.5 17.7221H0.5C0.5 19.8306 2.20932 21.5399 4.31787 21.5399V20.5399ZM7.13574 17.7221C7.13574 19.2783 5.87414 20.5399 4.31787 20.5399V21.5399C6.42642 21.5399 8.13574 19.8306 8.13574 17.7221H7.13574ZM5.7828 15.3144C6.59519 15.8099 7.13574 16.7031 7.13574 17.7221H8.13574C8.13574 16.3401 7.40115 15.1301 6.30353 14.4606L5.7828 15.3144ZM5.54316 2.65894V14.8875H6.54316V2.65894H5.54316ZM4.38423 1.5C5.02429 1.5 5.54316 2.01887 5.54316 2.65894H6.54316C6.54316 1.46659 5.57658 0.5 4.38423 0.5V1.5ZM3.22529 2.65894C3.22529 2.01887 3.74417 1.5 4.38423 1.5V0.5C3.19188 0.5 2.22529 1.46659 2.22529 2.65894H3.22529ZM3.22529 4.67332V2.65894H2.22529V4.67332H3.22529ZM3.69857 4.17332H2.72529V5.17332H3.69857V4.17332ZM3.77503 4.17713C3.74975 4.1746 3.72423 4.17332 3.69857 4.17332V5.17332C3.69094 5.17332 3.68326 5.17294 3.67556 5.17217L3.77503 4.17713ZM3.22529 2.65894V4.67465H4.22529V2.65894H3.22529ZM4.38423 1.5C3.74417 1.5 3.22529 2.01887 3.22529 2.65894H4.22529C4.22529 2.57116 4.29645 2.5 4.38423 2.5V1.5ZM5.54316 2.65894C5.54316 2.01887 5.02429 1.5 4.38423 1.5V2.5C4.47201 2.5 4.54316 2.57116 4.54316 2.65894H5.54316ZM5.54316 14.8875V2.65894H4.54316V14.8875H5.54316ZM5.54316 15.4489V14.8875H4.54316V15.4489H5.54316ZM5.7828 15.3144L5.30353 15.022L4.7828 15.8757L5.26206 16.1681L5.7828 15.3144ZM7.13574 17.7221C7.13574 16.7034 6.59548 15.8101 5.7828 15.3144L5.26206 16.1681C5.78893 16.4894 6.13574 17.0657 6.13574 17.7221H7.13574ZM4.31787 20.5399C5.87414 20.5399 7.13574 19.2783 7.13574 17.7221H6.13574C6.13574 18.7261 5.32185 19.5399 4.31787 19.5399V20.5399ZM1.5 17.7221C1.5 19.2783 2.7616 20.5399 4.31787 20.5399V19.5399C3.31389 19.5399 2.5 18.7261 2.5 17.7221H1.5ZM2.96564 15.2491C2.09077 15.7287 1.5 16.657 1.5 17.7221H2.5C2.5 17.0359 2.87946 16.4368 3.44634 16.126L2.96564 15.2491ZM3.69857 5.70418C3.72422 5.70418 3.74973 5.7029 3.77504 5.70037L3.67555 4.70533C3.68327 4.70456 3.69096 4.70418 3.69857 4.70418V5.70418ZM2.72529 5.70418H3.69857V4.70418H2.72529V5.70418ZM3.22529 7.46032V5.20418H2.22529V7.46032H3.22529ZM3.69857 6.96032H2.72529V7.96032H3.69857V6.96032ZM3.77504 6.96413C3.74973 6.9616 3.72422 6.96032 3.69857 6.96032V7.96032C3.69096 7.96032 3.68327 7.95994 3.67555 7.95917L3.77504 6.96413ZM3.22529 5.20285V7.46165H4.22529V5.20285H3.22529ZM3.69857 8.49118C3.72422 8.49118 3.74973 8.4899 3.77504 8.48737L3.67555 7.49233C3.68327 7.49156 3.69096 7.49118 3.69857 7.49118V8.49118ZM2.72529 8.49118H3.69857V7.49118H2.72529V8.49118ZM3.22529 10.2473V7.99118H2.22529V10.2473H3.22529ZM2.72529 10.7473H3.69857V9.74732H2.72529V10.7473ZM3.69857 10.7473C3.69094 10.7473 3.68327 10.7469 3.67557 10.7462L3.77501 9.75113C3.74974 9.7486 3.72423 9.74732 3.69857 9.74732V10.7473ZM3.22529 7.98985V10.2486H4.22529V7.98985H3.22529Z" fill="#0066A6" mask="url(#path-1-outside-1_631_369)"/>
<path d="M14.4543 14.5472V5M14.4543 14.5472L12.6357 12.7287M14.4543 14.5472L16.2728 12.7287" stroke="#0066A6" stroke-width="2" stroke-linecap="round" stroke-linejoin="round"/>
</svg>
