<?xml version="1.0" encoding="utf-8"?>
<!-- Generator: Adobe Illustrator 25.2.1, SVG Export Plug-In . SVG Version: 6.00 Build 0)  -->
<svg version="1.1" id="Layer_1" xmlns="http://www.w3.org/2000/svg" xmlns:xlink="http://www.w3.org/1999/xlink" x="0px" y="0px"
	 viewBox="0 0 50 54" style="enable-background:new 0 0 50 54;" xml:space="preserve">
<style type="text/css">
	.st0{clip-path:url(#SVGID_2_);}
	.st1{fill:#C4C4C4;filter:url(#Adobe_OpacityMaskFilter);}
	.st2{mask:url(#mask0_631_362_1_);}
	.st3{fill-rule:evenodd;clip-rule:evenodd;fill:#FFFFFF;}
	.st4{fill:none;stroke:#FFFFFF;stroke-linecap:round;stroke-linejoin:round;}
</style>
<g>
	<defs>
		<rect id="SVGID_1_" width="50" height="54"/>
	</defs>
	<clipPath id="SVGID_2_">
		<use xlink:href="#SVGID_1_"  style="overflow:visible;"/>
	</clipPath>
	<g class="st0">
		<defs>
			<filter id="Adobe_OpacityMaskFilter" filterUnits="userSpaceOnUse" x="18" y="4" width="20.9" height="40.1">
				<feColorMatrix  type="matrix" values="1 0 0 0 0  0 1 0 0 0  0 0 1 0 0  0 0 0 1 0"/>
			</filter>
		</defs>
		<mask maskUnits="userSpaceOnUse" x="18" y="4" width="20.9" height="40.1" id="mask0_631_362_1_">
			<path class="st1" d="M174-36H-10v184h184V-36z"/>
		</mask>
		<g class="st2">
			<path class="st3" d="M22.4,33.4l1-0.6v-1.2v-8.1c0,0,0,0-0.1,0h-1.9v8.1c-2.1,1.1-3.5,3.3-3.5,5.8c0,3.7,3,6.6,6.6,6.6
				s6.6-3,6.6-6.6c0-2.4-1.3-4.5-3.2-5.7V7.3c0-1.8-1.5-3.3-3.3-3.3s-3.3,1.5-3.3,3.3v4h1.9c0,0,0,0,0.1,0v-4C23.5,6.6,24,6,24.8,6
				s1.3,0.6,1.3,1.3v24.5v1.1l1,0.6c1.3,0.8,2.2,2.3,2.2,4c0,2.6-2.1,4.6-4.6,4.6c-2.6,0-4.6-2.1-4.6-4.6C20,35.7,21,34.2,22.4,33.4
				z M23.5,12.4C23.4,12.4,23.4,12.4,23.5,12.4l-2,0v4.5h1.9c0,0,0,0,0.1,0V12.4z M23.5,18C23.4,18,23.4,18,23.5,18l-2,0v4.5h1.9
				c0,0,0,0,0.1,0V18z"/>
			<path class="st4" d="M34.8,30.4V11.3 M34.8,30.4l-3.6-3.6 M34.8,30.4l3.6-3.6"/>
		</g>
	</g>
</g>
</svg>
