<svg width="25" height="27" viewBox="0 0 25 27" fill="none" xmlns="http://www.w3.org/2000/svg">
<g clip-path="url(#clip0_631_362)">
<mask id="mask0_631_362" style="mask-type:alpha" maskUnits="userSpaceOnUse" x="-5" y="-18" width="92" height="92">
<path d="M87 -18H-5V74H87V-18Z" fill="#C4C4C4"/>
</mask>
<g mask="url(#mask0_631_362)">
<path fill-rule="evenodd" clip-rule="evenodd" d="M11.206 16.6876L11.7253 16.4029V15.8107V11.7769C11.7165 11.7777 11.7076 11.7782 11.6986 11.7782H10.7253V15.8107C9.6971 16.3743 9 17.4668 9 18.7221C9 20.5545 10.4855 22.0399 12.3179 22.0399C14.1503 22.0399 15.6357 20.5545 15.6357 18.7221C15.6357 17.5216 14.9982 16.47 14.0432 15.8875V3.65894C14.0432 2.74273 13.3004 2 12.3842 2C11.468 2 10.7253 2.74273 10.7253 3.65894V5.67332H11.6986C11.7076 5.67332 11.7165 5.67377 11.7253 5.67465V3.65894C11.7253 3.29502 12.0203 3 12.3842 3C12.7481 3 13.0432 3.29502 13.0432 3.65894V15.8875V16.4489L13.5224 16.7412C14.1922 17.1498 14.6357 17.8846 14.6357 18.7221C14.6357 20.0022 13.598 21.0399 12.3179 21.0399C11.0377 21.0399 10 20.0022 10 18.7221C10 17.8465 10.4851 17.0828 11.206 16.6876ZM11.7253 6.20285C11.7165 6.20373 11.7076 6.20418 11.6986 6.20418H10.7253V8.46032H11.6986C11.7076 8.46032 11.7165 8.46077 11.7253 8.46165V6.20285ZM11.7253 8.98985C11.7165 8.99073 11.7076 8.99118 11.6986 8.99118H10.7253V11.2473H11.6986C11.7076 11.2473 11.7165 11.2478 11.7253 11.2486V8.98985Z" fill="white"/>
<path d="M17.38 5.67327V15.2205M17.38 5.67327L15.5615 7.49179M17.38 5.67327L19.1985 7.49179" stroke="white" stroke-linecap="round" stroke-linejoin="round"/>
</g>
</g>
<defs>
<clipPath id="clip0_631_362">
<rect width="25" height="27" fill="white"/>
</clipPath>
</defs>
</svg>
