<?xml version="1.0" encoding="utf-8"?>
<!-- Generator: Adobe Illustrator 25.2.1, SVG Export Plug-In . SVG Version: 6.00 Build 0)  -->
<svg version="1.1" id="Layer_1" xmlns="http://www.w3.org/2000/svg" xmlns:xlink="http://www.w3.org/1999/xlink" x="0px" y="0px"
	 viewBox="0 0 512 512" style="enable-background:new 0 0 512 512;" xml:space="preserve">
<path class="st0" d="M302.4,0.6c-4.5,2.1-4.8,3.8-4.8,28.7v23.2l2.2,2.7c3,3.6,8.6,3.7,11.6,0.3c2.9-3.3,3.4-8.1,3-30.6
	c-0.3-18.9-0.3-19.2-2.5-21.7C309.4,0.3,305.2-0.8,302.4,0.6z M148.1,54.7c-3.4,3.8-3.4,7.6,0,12.7c4.2,6.4,27.2,31.3,30,32.5
	c5.7,2.4,11.2-2,11.2-8.9c0-3.3-1.2-5-15.9-21.4c-15-16.9-16.1-17.8-19.3-17.8C151.6,51.8,150.1,52.5,148.1,54.7z M438.4,69.1
	c-10.1,11.3-15.7,18.3-16.1,20.2c-1.4,6.3,4.4,12.8,10.1,11.2c1.6-0.4,8.1-7,17.9-18c14.2-16,15.4-17.6,15.4-20.9
	c0-5.5-3.6-9.8-8.3-9.8C454,51.8,453.4,52.4,438.4,69.1z M294.5,106.1c-28.2,3.1-53.5,17.8-71.8,40.6v9.5l11.7,4.3
	c14.4-18.2,33.8-30.7,54.2-34.4c3.7-0.7,7.3-1.4,8.1-1.6c3.1-0.8,21.5,0.5,28.1,2c37.5,8.8,66.1,40.9,74.4,83.4
	c2.1,10.6,2.1,32.1,0,42.9l1.9,10.4l11.8,5.2c7.1-26.2,6.5-54.4-2.1-81.3c-9-28.1-30.4-54.6-55.4-68.8
	C338.1,108.6,314.6,103.9,294.5,106.1z M465.1,222.8c-3.8,1.9-5.9,7.1-4.6,11.4c1.8,5.9,3.1,6.2,25.4,6.2c12.2,0,20.9-0.4,21.9-1
	c2.6-1.5,4.6-6.7,4-10c-0.3-1.5-1.6-3.9-2.8-5.2c-2.2-2.3-2.6-2.4-21.6-2.6C472,221.4,467.4,221.7,465.1,222.8z"/>
<path class="st1" d="M86.3,465.7h101.5H340c157.9,0,135.3-250.2-33.8-212.7C215.9,52.8,69.3,215.5,97.5,296.8
	C-60.4,315.5,1.7,465.7,86.3,465.7z"/>
</svg>
