<svg width="30" height="30" viewBox="0 0 30 30" fill="none" xmlns="http://www.w3.org/2000/svg">
<g clip-path="url(#clip0_1509_316)">
<path d="M13.582 0.521838C10.9597 0.844089 8.60841 1.96169 6.7562 3.77088C5.43193 5.06448 4.46488 6.60533 3.88266 8.35089C2.60362 12.1853 3.47278 16.1054 6.44489 20.4855C8.29616 23.2139 11.3679 26.4913 14.2065 28.7717L14.6301 29.1121L14.907 29.3346L15.1826 29.1105L15.7226 28.6714C17.2853 27.4012 19.4893 25.3128 20.73 23.9262C24.8732 19.2953 26.8878 15.0255 26.6048 11.1326C26.327 7.31132 24.194 3.93791 20.8333 1.99233C18.7016 0.758169 16.0426 0.219493 13.582 0.521838Z" fill="white" stroke="black" stroke-width="1.2"/>
<path fill-rule="evenodd" clip-rule="evenodd" d="M7.82701 9.77572C9.13201 10.0822 10.3362 10.2178 11.7601 10.2184C13.2387 10.219 14.1138 10.127 15.5543 9.81931C15.9743 9.72955 16.3369 9.65273 16.3601 9.64851C16.4033 9.64072 16.7671 10.4637 16.821 10.6911L16.8508 10.8164L14.8954 10.8299C12.9676 10.8431 12.9368 10.8448 12.7087 10.9496C12.4594 11.0641 12.1353 11.3529 11.9849 11.5949L11.8914 11.7452H10.8166C9.99615 11.7452 9.72199 11.7597 9.65777 11.8066C9.56314 11.8758 9.54562 12.094 9.628 12.1765C9.66527 12.2138 9.99339 12.2352 10.675 12.2449C11.2209 12.2527 11.6675 12.2677 11.6675 12.2783C11.6675 12.2889 11.6166 12.4126 11.5544 12.5532L11.4413 12.8089H10.8656C10.3274 12.8089 10.2741 12.8172 10.0468 12.9361C9.79705 13.0667 9.62138 13.3099 9.56255 13.6068L9.5373 13.734H8.42619C7.17714 13.734 7.09195 13.7173 6.87298 13.4302L6.73962 13.2553V10.6583L6.96439 10.1365C7.14082 9.72691 7.2055 9.61974 7.26515 9.6382C7.30693 9.65109 7.55976 9.71302 7.82701 9.77572ZM8.54859 12.8914C7.56187 12.9732 7.17673 11.6529 8.05242 11.1905C8.34966 11.0335 8.84261 11.0945 9.09117 11.3191C9.24914 11.4619 9.3672 11.755 9.3672 12.0042C9.3672 12.4728 9.01675 12.8527 8.54859 12.8914Z" fill="#000206"/>
<path fill-rule="evenodd" clip-rule="evenodd" d="M11.9683 14.8633C13.2753 15.1634 14.3285 15.2781 15.7857 15.2791C17.2515 15.2801 18.2931 15.1644 19.7412 14.8398C20.0717 14.7657 20.356 14.7051 20.3731 14.7051C20.3902 14.7051 20.505 14.9393 20.6283 15.2254L20.8524 15.7457L20.8677 16.8984C20.876 17.5324 20.8696 18.1216 20.8535 18.2078C20.8064 18.4586 20.5428 18.7131 20.2694 18.7717C19.9792 18.8339 11.591 18.8389 11.324 18.7771C11.0965 18.7243 10.9306 18.6023 10.8115 18.4002C10.7281 18.2588 10.7174 18.1435 10.7035 17.2393C10.685 16.039 10.7249 15.7377 10.981 15.1434C11.0029 15.0927 11.0214 15.0474 11.0379 15.007V15.0068H11.038C11.0944 14.8687 11.1273 14.7882 11.1872 14.7508C11.2711 14.6986 11.4078 14.731 11.736 14.8088C11.8046 14.8251 11.8816 14.8434 11.9683 14.8633ZM11.5684 17.072C11.5664 16.6809 11.7507 16.3915 12.1071 16.2265C12.9783 15.8233 13.7731 16.9235 13.1353 17.6496C12.9516 17.8587 12.7564 17.9426 12.4533 17.9426C11.947 17.9426 11.5711 17.5728 11.5684 17.072ZM18.2282 17.0359C18.2315 16.6671 18.4336 16.3718 18.7934 16.2097C19.0248 16.1055 19.401 16.1462 19.6348 16.3008C19.8463 16.4407 20.0416 16.8072 20.0422 17.0656C20.0429 17.2887 19.8709 17.6076 19.6592 17.7759C19.5158 17.8899 19.431 17.9187 19.1922 17.9339C18.6199 17.9703 18.2232 17.6007 18.2282 17.0359ZM13.5647 16.5551C13.5647 16.489 13.5896 16.4099 13.6202 16.3793C13.6618 16.3378 14.2081 16.3238 15.7939 16.3238H17.9121L17.9879 16.4395C18.0581 16.5466 18.0581 16.5636 17.9879 16.6707L17.9121 16.7863H15.7939C14.2081 16.7863 13.6618 16.7724 13.6202 16.7308C13.5896 16.7003 13.5647 16.6212 13.5647 16.5551ZM13.5647 17.5495C13.5647 17.4895 13.5974 17.4077 13.6374 17.3678C13.7013 17.3039 13.96 17.295 15.7802 17.295C15.7919 17.295 15.8035 17.295 15.8151 17.295C17.5996 17.295 17.9388 17.295 18.0032 17.4281C18.0183 17.4593 18.0183 17.4979 18.0183 17.5455C18.0183 17.5468 18.0183 17.5482 18.0183 17.5495C18.0183 17.5507 18.0183 17.552 18.0183 17.5533C18.0183 17.601 18.0183 17.6395 18.0032 17.6707C17.9388 17.8038 17.5996 17.8038 15.8151 17.8038C15.8035 17.8038 15.7919 17.8038 15.7802 17.8038C15.7464 17.8038 15.7132 17.8038 15.6804 17.8038C13.9689 17.8039 13.6415 17.8039 13.5792 17.6754C13.5645 17.645 13.5646 17.6074 13.5647 17.5609C13.5647 17.5572 13.5647 17.5533 13.5647 17.5495Z" fill="#000206"/>
<path d="M8.88248 14.5495C8.86561 14.8143 8.84545 14.8714 8.73564 14.9658C8.62121 15.0642 8.56432 15.0752 8.16916 15.0752C7.5183 15.0752 7.36426 14.9544 7.36426 14.4439V14.2427H8.90199L8.88248 14.5495Z" fill="#000206"/>
<path d="M12.8706 19.5864C12.8706 19.8462 12.8544 19.9053 12.757 20.0027C12.6501 20.1096 12.6134 20.1162 12.1302 20.1162C11.6471 20.1162 11.6104 20.1096 11.5035 20.0027C11.406 19.9053 11.3899 19.8462 11.3899 19.5864V19.2837H12.8706V19.5864Z" fill="#000206"/>
<path d="M20.22 19.4415C20.245 19.6611 20.1827 19.8881 20.0649 20.0058C19.9618 20.1088 19.9201 20.1163 19.4473 20.1163H18.9404L18.8206 19.974C18.7211 19.8558 18.7008 19.7851 18.7008 19.5566V19.2815L20.2047 19.3069L20.22 19.4415Z" fill="#000206"/>
<path fill-rule="evenodd" clip-rule="evenodd" d="M17.6242 4.24109C17.5073 4.37064 16.3872 6.70629 16.3872 6.82031C16.3872 6.95865 16.4916 7.03764 16.6505 7.01941C16.7682 7.00594 16.8156 6.93475 17.1507 6.27064L17.5209 5.53673L17.544 6.22436C17.5567 6.60252 17.584 6.93803 17.6046 6.96984C17.6975 7.1134 17.9236 7.00805 19.32 6.17045C20.106 5.69902 20.7553 5.31949 20.7628 5.32708C20.7704 5.33466 20.4137 5.82417 19.97 6.41484L19.9581 6.43072C19.3669 7.21793 19.1013 7.5716 19.1889 7.73051C19.2604 7.86012 19.567 7.86012 20.1237 7.86012H20.9425L20.0646 8.44981C19.2697 8.98371 19.1854 9.05297 19.1727 9.18217C19.165 9.26068 19.1859 9.34629 19.219 9.37254C19.2521 9.39873 19.5811 9.51926 19.9501 9.64031C20.3191 9.76137 20.6377 9.87551 20.6581 9.89396C20.6784 9.91236 20.3974 9.97482 20.0334 10.0328C19.2896 10.1511 19.1635 10.2043 19.1635 10.3993C19.1635 10.6712 19.1978 10.6725 20.5447 10.4535C21.2229 10.3431 21.8299 10.2295 21.8936 10.2009C22.0317 10.1387 22.0708 9.94014 21.9657 9.83502C21.9262 9.79564 21.467 9.62168 20.9452 9.44854C20.4233 9.27533 19.9971 9.12287 19.9979 9.10969C19.9986 9.0965 20.4516 8.78396 21.0043 8.41512C21.8321 7.86264 22.0116 7.72365 22.023 7.62645C22.052 7.37766 21.9599 7.35445 20.8874 7.34074L19.9096 7.32826L20.9699 5.91762C21.5529 5.1418 22.0306 4.46341 22.0312 4.41013C22.0325 4.29895 21.8981 4.16016 21.7891 4.16016C21.7484 4.16016 20.9 4.64924 19.9038 5.24702C18.9077 5.8448 18.0837 6.33387 18.0728 6.33387C18.0619 6.33387 18.053 5.89102 18.053 5.34983C18.053 4.53399 18.0407 4.34816 17.981 4.26296C17.8946 4.13976 17.7249 4.12935 17.6242 4.24109Z" fill="#000206"/>
<path fill-rule="evenodd" clip-rule="evenodd" d="M7.71076 7.13878C8.09812 6.23339 8.46258 5.87955 9.10816 5.78186C9.25605 5.75948 10.5432 5.74514 11.9684 5.74995C12.0586 5.75026 12.1458 5.75054 12.2303 5.75083C14.2933 5.75761 14.6547 5.7588 14.9357 5.90972C14.9954 5.94177 15.0515 5.98062 15.1194 6.02767C15.1325 6.03675 15.1461 6.04613 15.1602 6.05579C15.4577 6.26046 15.5818 6.44691 15.8771 7.13339L16.1399 7.74453L16.7841 7.76767C17.3237 7.78701 17.4547 7.80622 17.5902 7.88574C17.9038 8.06984 18.0895 8.48621 18.012 8.83103C17.9146 9.26415 17.5512 9.57136 17.1361 9.57136C17.0296 9.57136 16.9425 9.58853 16.9425 9.60951C16.9425 9.63042 17.0139 9.81259 17.1012 10.0142C17.1884 10.2158 17.2846 10.4796 17.3149 10.6004L17.3699 10.8201H17.9113C18.5333 10.8201 18.8129 10.8856 19.1459 11.1096C19.4388 11.3064 19.5753 11.511 19.879 12.2076L20.1311 12.7857L20.7694 12.8088C21.3377 12.8294 21.4271 12.844 21.5844 12.9417C22.111 13.2689 22.1729 13.9796 21.7112 14.3966C21.5514 14.5408 21.2279 14.6588 20.9921 14.6588C20.9458 14.6588 20.9787 14.7831 21.1113 15.1089C21.3597 15.719 21.3947 16.0027 21.3767 17.2613C21.3626 18.2458 21.353 18.353 21.2621 18.5438C21.1571 18.7641 20.9913 18.9587 20.8039 19.0814C20.6984 19.1505 20.6905 19.1828 20.6905 19.5453C20.6905 19.987 20.6082 20.2066 20.3665 20.4099C20.1481 20.5936 19.9315 20.6375 19.3441 20.6172C18.8807 20.6012 18.7962 20.5854 18.6492 20.4873C18.3394 20.2804 18.1952 19.9695 18.193 19.5035L18.1918 19.2838H13.3915L13.37 19.6555C13.3517 19.9718 13.3283 20.0557 13.2136 20.2185C13.1395 20.3237 12.9871 20.4583 12.8749 20.5174C12.6951 20.6123 12.607 20.625 12.1303 20.625C11.6535 20.625 11.5654 20.6123 11.3856 20.5174C11.2735 20.4583 11.1202 20.3225 11.045 20.2157C10.9221 20.0414 10.9063 19.9778 10.8893 19.5888L10.8704 19.1558L10.6615 18.9813C10.534 18.8748 10.409 18.7114 10.3404 18.5615C10.2284 18.3168 10.228 18.3119 10.2421 16.9615L10.2563 15.6069L10.4468 15.1444C10.5515 14.8901 10.6245 14.678 10.6087 14.6733C10.593 14.6685 10.4631 14.6416 10.3201 14.6135C10.1381 14.5776 10.0038 14.5142 9.8731 14.4024C9.74742 14.2949 9.63955 14.2426 9.54328 14.2426C9.40758 14.2426 9.40025 14.2519 9.40025 14.4253C9.40025 15.2679 8.9748 15.6206 8.0151 15.5737C7.4806 15.5476 7.24142 15.4445 7.05199 15.1586C6.94072 14.9906 6.92273 14.913 6.90891 14.5414L6.89308 14.1163L6.68848 13.9453C6.57586 13.8513 6.42732 13.6664 6.35824 13.5344C6.23373 13.2964 6.23256 13.2855 6.21592 12.2002C6.19611 10.9126 6.23426 10.5996 6.48369 10.003L6.6641 9.57136H6.48058C5.80259 9.57136 5.36042 8.87081 5.66382 8.27732C5.72106 8.16529 5.84789 8.01001 5.94557 7.9322C6.1224 7.7914 6.12615 7.7907 6.78381 7.77587L7.44451 7.76099L7.71076 7.13878ZM14.5768 6.31331C15.0084 6.44146 15.1049 6.58314 15.6798 7.9339C16.0148 8.72093 16.1721 9.14204 16.1381 9.16138C15.9381 9.27517 14.2675 9.57394 13.3102 9.66722C12.5972 9.73665 10.9707 9.73607 10.2563 9.66605C9.27287 9.56972 7.54951 9.2573 7.44135 9.15576C7.42008 9.13583 7.63453 8.57913 7.91783 7.91867C8.50002 6.56128 8.59195 6.43132 9.07365 6.28525C9.13875 6.2655 10.3491 6.24757 11.7633 6.2454C13.9627 6.24195 14.3695 6.25179 14.5768 6.31331ZM7.21289 8.28798C7.20053 8.31974 7.12254 8.50706 7.03957 8.70417L6.88875 9.06259H6.59232C6.33926 9.06259 6.27926 9.04601 6.18228 8.9491C6.04031 8.80718 6.03152 8.56736 6.16219 8.40136C6.27275 8.26079 6.33967 8.24468 6.84867 8.23642C7.14111 8.23167 7.22994 8.24421 7.21289 8.28798ZM17.2609 8.28136C17.4119 8.33404 17.5441 8.52324 17.5441 8.68683C17.5441 8.73699 17.4901 8.84205 17.4243 8.92033C17.3133 9.05216 17.2825 9.06259 17.0059 9.06259H16.7073L16.5449 8.70095L16.5445 8.70013C16.4282 8.44161 16.3758 8.32507 16.4132 8.27263C16.4439 8.22962 16.5352 8.2298 16.7012 8.23009H16.7014H16.7265C16.7327 8.23015 16.7391 8.23015 16.7455 8.23015C16.9481 8.23015 17.18 8.25318 17.2609 8.28136ZM7.82701 9.77562C9.13201 10.0821 10.3362 10.2177 11.7601 10.2183C13.2388 10.2189 14.1138 10.1269 15.5544 9.81921C15.9743 9.72945 16.3369 9.65263 16.3601 9.64841C16.4033 9.64062 16.7672 10.4636 16.821 10.691L16.8508 10.8163L14.8954 10.8298C12.9676 10.843 12.9368 10.8447 12.7087 10.9495C12.4594 11.064 12.1354 11.3528 11.9849 11.5948L11.8914 11.7451L11.6675 12.2782C11.6675 12.2888 11.6167 12.4125 11.5545 12.5531L11.4413 12.8088H10.8656C10.3274 12.8088 10.2741 12.8171 10.0468 12.936C9.79705 13.0666 9.62144 13.3098 9.56256 13.6067L9.5373 13.7339H8.42619C7.17721 13.7339 7.09195 13.7172 6.87299 13.4301L6.73963 13.2552V10.6582L6.96439 10.1364C7.14082 9.72681 7.20557 9.61964 7.26521 9.6381C7.30699 9.65099 7.55982 9.71292 7.82701 9.77562ZM18.7797 11.4678C18.9385 11.5588 19.0602 11.6735 19.137 11.8044C19.2652 12.023 20.1982 14.1957 20.1737 14.2185C20.1653 14.2263 19.8773 14.2964 19.5337 14.3743C17.397 14.8585 14.9851 14.9193 12.8706 14.5421C12.4692 14.4705 11.4241 14.2415 11.3995 14.2197C11.392 14.2132 11.6159 13.6702 11.8969 13.0133C12.4394 11.7453 12.5429 11.5794 12.8937 11.4167C13.0674 11.3362 13.2475 11.3308 15.8089 11.3303L18.5389 11.3298L18.7797 11.4678ZM11.2048 13.3443C11.2048 13.3589 11.1285 13.5484 11.0353 13.7654L10.8657 14.1599L10.5663 14.1409C10.3095 14.1245 10.2514 14.1037 10.1575 13.9945C10.0054 13.8178 10.0147 13.6213 10.1833 13.4528C10.314 13.3221 10.3336 13.3176 10.7617 13.3176C11.0054 13.3176 11.2048 13.3296 11.2048 13.3443ZM21.4098 13.4311C21.5739 13.5951 21.5649 13.8382 21.3882 14.0149C21.269 14.1339 21.2201 14.1501 20.9781 14.1501H20.7033L20.5525 13.7916C20.4695 13.5945 20.3916 13.4072 20.3792 13.3754C20.3621 13.3315 20.4695 13.3176 20.8264 13.3176C21.2636 13.3176 21.3042 13.3255 21.4098 13.4311ZM8.88252 14.5494C8.86564 14.8142 8.84549 14.8713 8.73568 14.9657C8.62125 15.0641 8.56435 15.0751 8.1692 15.0751C7.51834 15.0751 7.3643 14.9543 7.3643 14.4438V14.2426H8.90203L8.88252 14.5494ZM11.9684 14.8633C13.2753 15.1634 14.3285 15.278 15.7857 15.2791C17.2515 15.28 18.2931 15.1644 19.7412 14.8398C20.0718 14.7656 20.3561 14.7051 20.3732 14.7051C20.3902 14.7051 20.5051 14.9393 20.6283 15.2254L20.8525 15.7457L20.8677 16.8984C20.876 17.5324 20.8696 18.1216 20.8535 18.2077C20.8064 18.4586 20.5428 18.7131 20.2694 18.7717C19.9792 18.8339 11.591 18.8388 11.3241 18.777C11.0965 18.7242 10.9306 18.6022 10.8115 18.4001C10.7282 18.2588 10.7174 18.1435 10.7036 17.2393C10.6851 16.0389 10.7249 15.7377 10.9811 15.1433C11.0029 15.0927 11.0214 15.0474 11.0379 15.007V15.0068H11.038C11.0944 14.8687 11.1274 14.7882 11.1872 14.7508C11.2711 14.6985 11.4079 14.731 11.736 14.8088C11.8046 14.8251 11.8817 14.8434 11.9684 14.8633ZM12.8706 19.5865C12.8706 19.8463 12.8545 19.9053 12.757 20.0027C12.6501 20.1096 12.6135 20.1163 12.1303 20.1163C11.6471 20.1163 11.6105 20.1096 11.5035 20.0027C11.406 19.9053 11.3899 19.8463 11.3899 19.5865V19.2838H12.8706V19.5865ZM20.22 19.4414C20.2451 19.6611 20.1827 19.888 20.0649 20.0058C19.9618 20.1088 19.9202 20.1163 19.4474 20.1163H18.9404L18.8207 19.9739C18.7211 19.8558 18.7008 19.7851 18.7008 19.5566V19.2815L20.2047 19.3069L20.22 19.4414Z" fill="#000206"/>
</g>
<defs>
<clipPath id="clip0_1509_316">
<rect width="30" height="30" fill="white"/>
</clipPath>
</defs>
</svg>
