<svg width="512" height="512" viewBox="0 0 512 512"  xmlns="http://www.w3.org/2000/svg">
<g clip-path="url(#clip0_1439_319)">
<path fill-rule="evenodd" clip-rule="evenodd" d="M70.2973 174.622C110.878 184.153 148.324 188.369 192.603 188.387C238.584 188.407 265.793 185.545 310.591 175.976C323.649 173.185 334.924 170.797 335.648 170.666C336.991 170.423 348.305 196.015 349.981 203.087L350.906 206.983L290.1 207.402C230.152 207.814 229.194 207.866 222.1 211.125C214.347 214.686 204.272 223.668 199.593 231.191L196.685 235.865H163.264C137.751 235.865 129.224 236.317 127.228 237.775C124.286 239.925 123.74 246.711 126.303 249.276C127.461 250.437 137.665 251.104 158.858 251.405C175.835 251.647 189.725 252.114 189.725 252.443C189.725 252.773 188.142 256.62 186.207 260.992L182.689 268.944H164.788C148.052 268.944 146.394 269.201 139.324 272.899C131.558 276.96 126.097 284.521 124.266 293.753L123.481 297.708H88.9294C50.0896 297.708 47.4391 297.19 40.6303 288.262L36.4834 282.825V202.067L43.4735 185.84C48.9586 173.103 50.9716 169.77 52.8263 170.344C54.1256 170.745 61.9877 172.671 70.2973 174.622ZM92.7367 271.51C62.0525 274.052 50.0752 232.997 77.3061 218.615C86.5509 213.733 101.879 215.631 109.608 222.616C114.52 227.056 118.192 236.169 118.192 243.919C118.192 258.491 107.295 270.303 92.7367 271.51Z" />
<path fill-rule="evenodd" clip-rule="evenodd" d="M199.078 332.83C239.721 342.161 272.472 345.728 317.786 345.76C363.367 345.79 395.758 342.193 440.789 332.098C451.066 329.794 459.908 327.91 460.439 327.91C460.97 327.91 464.541 335.192 468.374 344.09L475.344 360.27L475.817 396.115C476.076 415.83 475.878 434.153 475.376 436.831C473.912 444.632 465.715 452.546 457.213 454.368C448.189 456.303 187.345 456.457 179.044 454.534C171.969 452.893 166.808 449.099 163.105 442.815C160.514 438.417 160.18 434.833 159.747 406.716C159.173 369.389 160.413 360.022 168.378 341.539C169.056 339.964 169.632 338.554 170.146 337.298L170.147 337.294L170.148 337.293C171.903 332.999 172.927 330.495 174.788 329.333C177.396 327.707 181.648 328.715 191.853 331.137C193.988 331.643 196.383 332.211 199.078 332.83ZM186.644 401.512C186.58 389.349 192.312 380.35 203.394 375.221C230.486 362.684 255.201 396.895 235.368 419.475C229.655 425.977 223.585 428.584 214.16 428.584C198.414 428.584 186.728 417.087 186.644 401.512ZM393.74 400.391C393.844 388.922 400.125 379.739 411.314 374.699C418.511 371.457 430.21 372.724 437.478 377.532C444.055 381.883 450.128 393.278 450.149 401.313C450.169 408.251 444.821 418.169 438.239 423.402C433.78 426.948 431.14 427.841 423.715 428.314C405.919 429.446 393.584 417.953 393.74 400.391ZM248.719 385.438C248.719 383.382 249.496 380.922 250.446 379.973C251.738 378.682 268.728 378.247 318.041 378.247H383.909L386.265 381.843C388.448 385.174 388.448 385.703 386.265 389.034L383.909 392.629H318.041C268.728 392.629 251.738 392.195 250.446 390.903C249.496 389.954 248.719 387.495 248.719 385.438ZM248.719 416.36C248.719 414.496 249.737 411.953 250.98 410.709C252.968 408.723 261.012 408.449 317.613 408.449C317.978 408.449 318.341 408.449 318.702 408.449C374.191 408.449 384.738 408.449 386.742 412.587C387.213 413.558 387.213 414.757 387.212 416.238C387.212 416.278 387.212 416.319 387.212 416.36C387.212 416.4 387.212 416.441 387.212 416.481C387.213 417.962 387.213 419.161 386.742 420.132C384.738 424.27 374.191 424.27 318.702 424.27C318.341 424.27 317.978 424.27 317.613 424.27C316.564 424.27 315.53 424.27 314.513 424.27C261.289 424.271 251.11 424.271 249.172 420.275C248.714 419.33 248.716 418.162 248.719 416.717C248.719 416.6 248.719 416.48 248.719 416.36Z" />
<path d="M103.12 323.071C102.595 331.303 101.969 333.079 98.5541 336.014C94.9943 339.075 93.226 339.416 80.9379 339.416C60.6985 339.416 55.9084 335.659 55.9084 319.786V313.528H103.727L103.12 323.071Z"  />
<path d="M227.136 479.705C227.136 487.784 226.635 489.62 223.604 492.649C220.278 495.973 219.139 496.18 204.114 496.18C189.089 496.18 187.949 495.973 184.624 492.649C181.592 489.62 181.092 487.784 181.092 479.705V470.292H227.136V479.705Z"  />
<path d="M455.677 475.194C456.457 482.026 454.518 489.082 450.853 492.745C447.648 495.948 446.352 496.18 431.651 496.18H415.886L412.161 491.754C409.067 488.08 408.436 485.881 408.436 478.776V470.22L455.2 471.011L455.677 475.194Z"  />
<path fill-rule="evenodd" clip-rule="evenodd" d="M374.957 2.51685C371.324 6.54526 336.491 79.1759 336.491 82.7225C336.491 87.0242 339.739 89.4792 344.679 88.9125C348.338 88.494 349.815 86.2806 360.233 65.6281L371.744 42.8067L372.464 64.1898C372.859 75.95 373.707 86.3827 374.347 87.3708C377.238 91.835 384.268 88.5588 427.692 62.5129C452.133 47.8533 472.322 36.0514 472.558 36.2873C472.794 36.5232 461.7 51.7451 447.906 70.1124L447.534 70.6069C429.15 95.0857 420.89 106.084 423.615 111.025C425.838 115.057 435.372 115.056 452.685 115.056H478.146L450.846 133.393C426.127 149.996 423.504 152.15 423.111 156.167C422.872 158.608 423.52 161.271 424.55 162.087C425.58 162.902 435.811 166.649 447.286 170.414C458.761 174.178 468.668 177.727 469.301 178.301C469.934 178.874 461.193 180.817 449.876 182.619C426.747 186.299 422.825 187.951 422.825 194.015C422.825 202.47 423.892 202.512 465.774 195.7C486.865 192.27 505.741 188.735 507.719 187.845C512.016 185.912 513.231 179.738 509.962 176.469C508.735 175.244 494.455 169.834 478.228 164.45C462.001 159.065 448.745 154.323 448.771 153.914C448.795 153.504 462.879 143.784 480.066 132.315C505.811 115.135 511.391 110.813 511.744 107.79C512.646 100.053 509.784 99.3323 476.432 98.9052L446.027 98.5169L478.996 54.6517C497.129 30.5258 511.981 9.43029 512 7.77348C512.041 4.31604 507.861 0 504.471 0C503.205 0 476.825 15.209 445.847 33.7978C414.869 52.3865 389.247 67.5955 388.907 67.5955C388.569 67.5955 388.291 53.8247 388.291 36.9949C388.291 11.625 387.909 5.84629 386.051 3.19712C383.367 -0.634248 378.09 -0.957843 374.957 2.51685Z"  />
<path fill-rule="evenodd" clip-rule="evenodd" d="M66.6814 92.6245C78.7277 64.4703 90.0604 53.4666 110.136 50.4291C114.736 49.733 154.76 49.2872 199.078 49.4368C201.884 49.4463 204.598 49.4552 207.224 49.4639C271.376 49.6749 282.615 49.7119 291.354 54.4052C293.21 55.402 294.953 56.6089 297.066 58.0722C297.474 58.3544 297.895 58.646 298.334 58.9476C307.587 65.3116 311.445 71.1105 320.626 92.4577L328.798 111.461L348.833 112.18C365.609 112.782 369.684 113.379 373.898 115.853C383.65 121.578 389.425 134.524 387.015 145.248C383.988 158.716 372.685 168.27 359.778 168.27C356.467 168.27 353.758 168.803 353.758 169.455C353.758 170.106 355.978 175.77 358.691 182.039C361.404 188.308 364.394 196.512 365.337 200.27L367.049 207.101H383.884C403.227 207.101 411.919 209.139 422.276 216.103C431.382 222.225 435.629 228.586 445.073 250.247L452.91 268.225L472.76 268.944C490.434 269.584 493.214 270.037 498.103 273.076C514.479 283.251 516.406 305.35 502.047 318.316C497.078 322.802 487.018 326.472 479.687 326.472C478.246 326.472 479.269 330.336 483.393 340.467C491.117 359.44 492.205 368.263 491.645 407.401C491.208 438.015 490.91 441.35 488.084 447.281C484.819 454.131 479.662 460.183 473.835 463.999C470.554 466.147 470.308 467.151 470.308 478.425C470.308 492.159 467.748 498.989 460.234 505.309C453.44 511.023 446.707 512.388 428.439 511.758C414.029 511.261 411.4 510.769 406.83 507.717C397.198 501.284 392.714 491.616 392.643 477.124L392.608 470.292H243.334L242.664 481.851C242.095 491.687 241.369 494.297 237.802 499.36C235.497 502.63 230.758 506.814 227.27 508.653C221.678 511.605 218.939 512 204.114 512C189.289 512 186.549 511.605 180.958 508.653C177.47 506.814 172.703 502.593 170.365 499.273C166.544 493.853 166.054 491.875 165.524 479.777L164.936 466.313L158.442 460.888C154.476 457.574 150.589 452.493 148.455 447.832C144.97 440.224 144.96 440.071 145.399 398.077L145.839 355.955L151.763 341.573C155.02 333.663 157.287 327.07 156.799 326.922C156.311 326.775 152.271 325.937 147.822 325.061C142.165 323.946 137.987 321.973 133.923 318.499C130.015 315.155 126.66 313.528 123.667 313.528C119.447 313.528 119.219 313.819 119.219 319.21C119.219 345.413 105.99 356.381 76.1464 354.922C59.5258 354.11 52.0882 350.904 46.1974 342.013C42.7368 336.791 42.1771 334.376 41.7469 322.82L41.2548 309.602L34.892 304.285C31.3912 301.361 26.7709 295.611 24.6227 291.506C20.7506 284.105 20.7147 283.767 20.1967 250.017C19.5823 209.978 20.7679 200.245 28.5249 181.69L34.1352 168.27H28.4285C7.34453 168.27 -6.40548 146.485 3.0293 128.029C4.80921 124.545 8.75319 119.716 11.7907 117.297C17.2901 112.919 17.4067 112.897 37.8576 112.436L58.402 111.974L66.6814 92.6245ZM280.194 66.9555C293.614 70.9393 296.614 75.346 314.492 117.35C324.911 141.824 329.801 154.92 328.744 155.52C322.523 159.058 270.575 168.35 240.805 171.25C218.634 173.41 168.057 173.391 145.839 171.214C115.258 168.218 61.6683 158.504 58.3042 155.346C57.6437 154.726 64.3115 137.414 73.1204 116.877C91.2259 74.6657 94.085 70.6258 109.064 66.0825C111.088 65.4684 148.725 64.9104 192.701 64.8428C261.095 64.7364 273.747 65.0427 280.194 66.9555ZM51.2004 128.36C50.8162 129.349 48.3902 135.174 45.8103 141.303L41.121 152.449H31.902C24.0327 152.449 22.1665 151.933 19.152 148.919C14.7361 144.506 14.4627 137.049 18.5261 131.886C21.9651 127.515 24.0457 127.015 39.8749 126.757C48.9687 126.609 51.7299 127 51.2004 128.36ZM363.659 128.155C368.354 129.792 372.464 135.676 372.464 140.763C372.464 142.323 370.787 145.591 368.738 148.024C365.288 152.124 364.33 152.449 355.728 152.449H346.443L341.393 141.202L341.382 141.178C337.765 133.139 336.134 129.515 337.298 127.884C338.253 126.546 341.09 126.551 346.255 126.56H346.262L347.039 126.561C347.233 126.562 347.431 126.562 347.631 126.562C353.931 126.562 361.142 127.279 363.659 128.155ZM70.2973 174.622C110.878 184.153 148.324 188.369 192.603 188.387C238.584 188.407 265.793 185.545 310.591 175.976C323.649 173.185 334.924 170.797 335.648 170.666C336.991 170.423 348.305 196.015 349.981 203.087L350.906 206.983L290.1 207.402C230.152 207.814 229.194 207.866 222.1 211.125C214.347 214.686 204.272 223.668 199.593 231.191L196.685 235.865L189.725 252.443C189.725 252.773 188.142 256.62 186.207 260.992L182.689 268.944H164.788C148.052 268.944 146.394 269.201 139.324 272.899C131.558 276.96 126.097 284.521 124.266 293.753L123.481 297.708H88.9294C50.0896 297.708 47.4391 297.19 40.6303 288.262L36.4834 282.825V202.067L43.4735 185.84C48.9586 173.103 50.9716 169.77 52.8263 170.344C54.1256 170.745 61.9877 172.671 70.2973 174.622ZM410.888 227.242C415.826 230.072 419.61 233.637 421.999 237.71C425.984 244.509 454.998 312.071 454.236 312.78C453.975 313.023 445.019 315.202 434.336 317.624C367.889 332.682 292.889 334.572 227.136 322.842C214.654 320.616 182.153 313.494 181.389 312.818C181.156 312.613 188.118 295.73 196.857 275.302C213.726 235.871 216.946 230.714 227.855 225.654C233.256 223.15 238.856 222.983 318.505 222.966L403.4 222.949L410.888 227.242ZM175.336 285.594C175.336 286.05 172.963 291.942 170.064 298.69L164.792 310.957L155.481 310.364C147.495 309.856 145.686 309.209 142.767 305.816C138.036 300.318 138.326 294.209 143.57 288.968C147.633 284.906 148.243 284.764 161.556 284.764C169.134 284.764 175.336 285.137 175.336 285.594ZM492.675 288.295C497.779 293.395 497.499 300.954 492.002 306.448C488.297 310.15 486.777 310.652 479.252 310.652H470.707L466.017 299.506C463.437 293.376 461.011 287.551 460.627 286.562C460.096 285.196 463.436 284.764 474.535 284.764C488.127 284.764 489.39 285.01 492.675 288.295ZM103.12 323.071C102.595 331.303 101.969 333.079 98.5541 336.014C94.9943 339.075 93.226 339.416 80.9379 339.416C60.6985 339.416 55.9084 335.659 55.9084 319.786V313.528H103.727L103.12 323.071ZM199.078 332.83C239.721 342.161 272.472 345.728 317.786 345.76C363.367 345.79 395.758 342.193 440.789 332.098C451.066 329.794 459.908 327.91 460.439 327.91C460.97 327.91 464.541 335.192 468.374 344.09L475.344 360.27L475.817 396.115C476.076 415.83 475.878 434.153 475.376 436.831C473.912 444.632 465.715 452.546 457.213 454.368C448.189 456.303 187.345 456.457 179.044 454.534C171.969 452.893 166.808 449.099 163.105 442.815C160.514 438.417 160.18 434.833 159.747 406.716C159.173 369.389 160.413 360.022 168.378 341.539C169.056 339.964 169.632 338.554 170.146 337.298L170.147 337.294L170.148 337.293C171.903 332.999 172.927 330.495 174.788 329.333C177.396 327.707 181.648 328.715 191.853 331.137C193.988 331.643 196.383 332.211 199.078 332.83ZM227.136 479.705C227.136 487.784 226.635 489.62 223.604 492.649C220.278 495.973 219.139 496.18 204.114 496.18C189.089 496.18 187.949 495.973 184.624 492.649C181.592 489.62 181.092 487.784 181.092 479.705V470.292H227.136V479.705ZM455.677 475.194C456.457 482.026 454.518 489.082 450.853 492.745C447.648 495.948 446.352 496.18 431.651 496.18H415.886L412.161 491.754C409.067 488.08 408.436 485.881 408.436 478.776V470.22L455.2 471.011L455.677 475.194Z"  />
</g>
<defs>
<clipPath id="clip0_1439_319">
<rect width="512" height="512" fill="white"/>
</clipPath>
</defs>
</svg>
