<svg width="30" height="30" viewBox="0 0 30 30" fill="none" xmlns="http://www.w3.org/2000/svg">
<g clip-path="url(#clip0_1513_353)">
<path d="M14.9438 21.532C19.6528 21.532 23.4701 17.3039 23.4701 12.0883C23.4701 6.87263 19.6528 2.64453 14.9438 2.64453C10.2348 2.64453 6.41748 6.87263 6.41748 12.0883C6.41748 17.3039 10.2348 21.532 14.9438 21.532Z" fill="white"/>
<path d="M13.616 0.883594C11.0583 1.20271 8.76555 2.30939 6.96028 4.09955V4.09956C5.66965 5.37948 4.72766 6.90352 4.16064 8.6294C2.9152 12.4199 3.76118 16.2953 6.65623 20.6269L7.02162 20.3828L6.65623 20.6269C8.45946 23.3249 11.4515 26.5659 14.2168 28.8212L14.6293 29.1577L14.9087 29.3856L15.1868 29.1561L15.7128 28.722C15.7128 28.722 15.7128 28.722 15.7128 28.7219C17.235 27.4658 19.3819 25.4007 20.5904 24.0294L20.2606 23.7389L20.5904 24.0294C24.6263 19.4496 26.588 15.2278 26.3125 11.3794C26.042 7.60249 23.9651 4.26527 20.6885 2.33947C18.6098 1.11769 16.0165 0.584157 13.616 0.883594ZM9.17676 6.65714C10.5089 5.27078 12.144 4.44572 14.0208 4.20956L14.0209 4.20956C14.6247 4.13353 15.8879 4.18538 16.5215 4.31388C18.1973 4.65375 19.5617 5.40645 20.7616 6.65514C23.1276 9.11743 23.6544 12.7629 22.0814 15.8298L22.4724 16.0303L22.0814 15.8298C20.9446 18.0463 18.801 19.6127 16.3173 20.0374C12.8887 20.6235 9.43545 18.9037 7.85887 15.8298L7.46782 16.0303L7.85887 15.8298C6.28311 12.7575 6.80782 9.12235 9.17676 6.65714Z" fill="#616161" stroke="white"/>
<path d="M18.824 16.4175H10.6016C9.37469 16.4175 8.60476 15.093 9.21191 14.0269L13.3231 6.80781C13.9365 5.73073 15.4891 5.73073 16.1025 6.80781L20.2137 14.0269C20.8208 15.093 20.0509 16.4175 18.824 16.4175Z" fill="white" stroke="#FF0000" stroke-width="2" stroke-linejoin="round"/>
<path d="M14.7128 13.9995C15.7373 13.9995 16.5678 13.1689 16.5678 12.1444C16.5678 11.1199 15.7373 10.2893 14.7128 10.2893C13.6882 10.2893 12.8577 11.1199 12.8577 12.1444C12.8577 13.1689 13.6882 13.9995 14.7128 13.9995Z" fill="black"/>
</g>
<defs>
<clipPath id="clip0_1513_353">
<rect width="30" height="30" fill="white"/>
</clipPath>
</defs>
</svg>
