<svg width="512" height="512" viewBox="0 0 512 512"  xmlns="http://www.w3.org/2000/svg">
<path fill-rule="evenodd" clip-rule="evenodd" d="M127.08 221.764C126.544 230.564 100.678 162.589 81.1132 100.963C77.2138 88.6986 79.189 83.2262 87.5072 83.2262C95.5615 83.2262 104.195 104.409 113.628 147.295C121.376 182.538 127.43 216.053 127.08 221.764ZM67.644 213.968C37.6746 184.316 17.3771 157.635 20.6976 152.265C33.0174 132.333 48.1554 144.886 83.6844 204.504L120.448 266.207L67.644 213.968ZM110.682 285.509C21.532 250.36 8.51403 242.206 8.51403 221.508V200.359L40.4417 224.206C92.4794 263.083 124.356 290.905 110.682 285.509ZM63.37 294.981C42.5617 289.747 25.5421 281.832 25.5421 277.39C25.5421 268.879 45.6182 273.662 88.844 292.479C121.189 306.564 112.683 307.398 63.37 294.981ZM40.4417 320.854C10.8724 321.348 0 318.275 0 309.45C0 299.679 6.11308 298.964 31.9276 305.696C82.5606 318.896 83.2587 320.139 40.4417 320.854ZM215.797 491.519C143.308 479.945 85.864 444.344 42.6638 384.216L15.9723 347.058H178.36L191.506 372.471C214.971 417.842 277.37 419.272 297.991 374.905L310.762 347.424L512 347.058L495.134 370.463C428.886 462.387 322.392 508.532 215.797 491.519Z" />
<path fill-rule="evenodd" clip-rule="evenodd" d="M178.607 111.082C178.505 130.869 171.277 162.776 162.55 181.993C147.25 215.67 147.216 218.487 161.758 259.738C170.051 283.288 169.121 304.851 191.506 313.632C193.35 314.356 194.412 314.868 196.318 315.234C199.143 315.776 202.304 315.665 204.337 313.633L220.011 351.178C233.08 367.042 272.449 365.82 272.449 330.654L259.678 296.871L349.075 266.824L433.5 242.732L446.987 279.59C466.649 308.751 506.585 283.845 499.402 258.313L488.762 225.713C491.585 226.263 494.267 224.589 496.307 222.561C497.683 221.192 498.277 220.175 499.402 218.545C513.054 198.756 500.227 181.395 493.936 157.234C482.93 114.903 481.327 112.586 449.811 93.2079C431.829 82.148 407.995 59.7284 396.847 43.3771C373.275 8.81261 354.376 8.13598 272.449 34.8204C189.593 58.4642 178.828 69.2505 178.607 111.082ZM215.601 85.3454C204.601 96.3412 188.237 168.555 196.827 168.197C206.026 167.809 255.245 153.208 305.463 137.073C356.126 122.397 405.828 105.736 413.673 100.918C420.996 96.4152 367.051 45.6759 351.781 42.7035C341.808 40.7621 309.93 49.0708 280.008 58.2326C250.073 67.3522 222.785 78.1639 215.601 85.3454ZM197.79 248.13C219.041 261.5 246.456 234.096 233.08 212.853C222.148 195.508 204.643 190.946 188.603 201.278C173.84 210.785 178.829 236.189 197.79 248.13ZM457.567 167.738C447.421 190.698 409.365 183.29 408.579 158.202C407.946 137.712 419.911 124.149 438.989 123.755C456.547 123.39 466.614 147.244 457.567 167.738Z" />
</svg>
