<svg width="512" height="512" viewBox="0 0 512 512" fill="none" xmlns="http://www.w3.org/2000/svg">
<g clip-path="url(#clip0_1408_345)">
<path fill-rule="evenodd" clip-rule="evenodd" d="M231.404 2.44941C185.762 8.14378 144.947 27.8608 112.794 59.7453C89.791 82.5573 73.0217 109.689 62.9166 140.446C40.8686 207.549 55.4252 276.748 108.196 355.704C141.118 404.962 195.996 464.43 246.676 505.764L254.32 512L264.067 503.955C291.97 480.929 331.438 442.958 353.526 417.895C427.76 333.659 462.424 257.533 457.549 189.447C452.73 122.143 415.748 62.7033 357.328 28.3678C320.362 6.64075 274.112 -2.87808 231.404 2.44941ZM285.856 49.9537C318.551 56.5846 345.313 71.3588 368.682 95.6779C414.96 143.839 425.231 215.158 394.512 275.049C372.262 318.431 330.349 349.034 281.826 357.33C214.813 368.787 147.317 335.202 116.465 275.049C85.6966 215.06 95.9273 143.932 142.261 95.7145C168.218 68.7008 200.224 52.5343 236.881 47.9218C248.992 46.3968 273.291 47.4054 285.856 49.9537Z" fill="#616161"/>
<path d="M160.334 106.045C160.334 106.045 159.895 168.23 160.197 208.074C160.494 247.334 159.979 269.334 160.197 308.595H227.215V274.549V241.369V235.503H232.27H255.884H283.236C283.236 235.503 283.266 242.214 283.543 272.871C283.807 302.081 283.762 308.595 283.762 308.595H351.828V207.623V105.373H317.613H283.762V138.07V174.158H227.215V167.97V137.926V106.045H193.843H160.334Z" fill="#B72D2D"/>
</g>
<defs>
<clipPath id="clip0_1408_345">
<rect width="512" height="512" fill="white"/>
</clipPath>
</defs>
</svg>
