<svg width="30" height="30" viewBox="0 0 30 30" fill="none" xmlns="http://www.w3.org/2000/svg">
<g clip-path="url(#clip0_1513_353)">
<path d="M14.9438 21.532C19.6528 21.532 23.4701 17.3039 23.4701 12.0883C23.4701 6.87263 19.6528 2.64453 14.9438 2.64453C10.2348 2.64453 6.41748 6.87263 6.41748 12.0883C6.41748 17.3039 10.2348 21.532 14.9438 21.532Z" fill="white"/>
<path d="M13.616 0.883594C11.0583 1.20271 8.76555 2.30939 6.96028 4.09955V4.09956C5.66965 5.37948 4.72766 6.90352 4.16064 8.6294C2.9152 12.4199 3.76118 16.2953 6.65623 20.6269L7.02162 20.3828L6.65623 20.6269C8.45946 23.3249 11.4515 26.5659 14.2168 28.8212L14.6293 29.1577L14.9087 29.3856L15.1868 29.1561L15.7128 28.722C15.7128 28.722 15.7128 28.722 15.7128 28.7219C17.235 27.4658 19.3819 25.4007 20.5904 24.0294L20.2606 23.7389L20.5904 24.0294C24.6263 19.4496 26.588 15.2278 26.3125 11.3794C26.042 7.60249 23.9651 4.26527 20.6885 2.33947C18.6098 1.11769 16.0165 0.584157 13.616 0.883594ZM9.17676 6.65714C10.5089 5.27078 12.144 4.44572 14.0208 4.20956L14.0209 4.20956C14.6247 4.13353 15.8879 4.18538 16.5215 4.31388C18.1973 4.65375 19.5617 5.40645 20.7616 6.65514C23.1276 9.11743 23.6544 12.7629 22.0814 15.8298L22.4724 16.0303L22.0814 15.8298C20.9446 18.0463 18.801 19.6127 16.3173 20.0374C12.8887 20.6235 9.43545 18.9037 7.85887 15.8298L7.46782 16.0303L7.85887 15.8298C6.28311 12.7575 6.80782 9.12235 9.17676 6.65714Z" fill="#616161" stroke="white"/>
<path d="M10.0121 7.03674C10.0121 7.03674 9.99026 10.437 10.0053 12.6157C10.02 14.7624 9.99443 15.9653 10.0053 18.1121H13.3366V16.2505V14.4362V14.1155H13.588H14.7618H16.1214C16.1214 14.1155 16.1229 14.4824 16.1367 16.1587C16.1498 17.7559 16.1475 18.1121 16.1475 18.1121H19.5311V12.591V7H17.8303H16.1475V8.78786V10.7611H13.3366V10.4228V8.77999V7.03674H11.6778H10.0121Z" fill="#B72D2D"/>
</g>
<defs>
<clipPath id="clip0_1513_353">
<rect width="30" height="30" fill="white"/>
</clipPath>
</defs>
</svg>
