<svg width="512" height="512" viewBox="0 0 512 512" xmlns="http://www.w3.org/2000/svg">
<path d="M454 200.556H392.25V139.522C439.12 127.272 454 115.078 454 64.4444H392.25V37.2222C392.25 22.25 379.988 10 365 10H147C132.012 10 119.75 22.25 119.75 37.2222V64.4444H58C58 115.078 72.88 127.272 119.75 139.522V200.556H58C58 251.189 72.88 263.383 119.75 275.633V336.667H58C58 387.3 72.88 399.494 119.75 411.744V472.778C119.75 487.75 132.012 500 147 500H365C379.988 500 392.25 487.75 392.25 472.778V411.744C439.12 399.494 454 387.3 454 336.667H392.25V275.633C439.12 263.383 454 251.189 454 200.556ZM357.75 465.556H154.25V44.4444H357.75V465.556ZM256 418.333C278.618 418.333 296.875 400.094 296.875 377.5C296.875 354.906 278.618 336.667 256 336.667C233.382 336.667 215.125 354.906 215.125 377.5C215.125 400.094 233.382 418.333 256 418.333ZM256 295.833C278.618 295.833 296.875 277.594 296.875 255C296.875 232.406 278.618 214.167 256 214.167C233.382 214.167 215.125 232.406 215.125 255C215.125 277.594 233.382 295.833 256 295.833ZM256 173.333C278.618 173.333 296.875 155.094 296.875 132.5C296.875 109.906 278.618 91.6667 256 91.6667C233.382 91.6667 215.125 109.906 215.125 132.5C215.125 155.094 233.382 173.333 256 173.333Z" />
</svg>
