<svg width="512" height="512" viewBox="0 0 512 512" fill="none" xmlns="http://www.w3.org/2000/svg">
<path fill-rule="evenodd" clip-rule="evenodd" d="M64.3094 39.5445C54.8375 42.9855 46.565 50.3326 41.513 59.791C39.0858 64.3359 38.9189 65.9219 39.0222 83.3832C39.4704 158.502 66.1011 238.261 112.511 303.479C136.954 337.828 171.891 372.971 206.857 398.382C270.702 444.779 353.227 472.527 428.703 472.977C446.231 473.082 447.743 472.92 452.362 470.455C459.464 466.667 466.373 459.903 470.202 452.994L473.527 446.995L473.858 400.932C474.182 355.812 474.137 354.733 471.687 348.185C469.911 343.44 467.346 339.662 462.837 335.154C454.455 326.774 447.021 323.9 433.723 323.9C414.442 323.9 389.52 320.002 368.079 313.632C355.211 309.809 346.825 309.435 338.699 312.321C335.261 313.542 322.961 321.987 305.526 335.102L277.817 355.943L267.301 349.968C230.228 328.902 200.708 302.522 177.825 270.011C172.57 262.543 161.887 245.195 158.708 238.968L156.185 234.022L176.933 206.636C190.696 188.47 198.354 177.34 199.679 173.577C202.506 165.547 202.243 155.984 198.896 145.214C192.878 125.842 189.817 107.323 188.3 81.1142C187.469 66.7796 186.972 63.9343 184.431 58.9912C180.952 52.2227 173.604 44.9198 166.572 41.2417C161.477 38.5756 161.36 38.5688 114.94 38.3113C78.8151 38.1105 67.4969 38.3862 64.3094 39.5445ZM258.488 39.7612C247.824 43.1023 236.288 54.9989 233.412 65.6202C231.638 72.1765 232.724 83.0406 235.745 88.9628C239.086 95.51 247.575 103.857 254.103 107.011C256.995 108.409 262.102 109.833 265.45 110.176C277.66 111.424 280.049 113.534 280.049 123.068C280.049 127.712 279.494 129.422 277.263 131.651C274.579 134.334 273.917 134.436 259.071 134.436C242.395 134.436 237.505 135.58 234.24 140.242C231.681 143.894 231.891 150.515 234.676 154.055C238.303 158.665 243.426 159.703 260.028 159.195C273.12 158.793 275.722 158.378 281.32 155.794C290.207 151.69 296.429 145.661 300.677 137.034C307.431 123.318 304.724 109.367 293.044 97.6883C286.5 91.1467 279.637 87.9372 269.539 86.696C262.856 85.8757 260.849 85.1429 258.772 82.7706C255.108 78.5842 255.201 69.9438 258.957 65.5782L261.695 62.3947L279.836 61.8275C299.943 61.199 301.455 60.6612 303.893 53.2789C305.54 48.2871 303.044 42.2061 298.35 39.7794C293.78 37.4162 266.012 37.4037 258.488 39.7612ZM343.964 39.5672C333.858 42.872 325.429 50.3417 320.126 60.693L316.929 66.9328V98.1546V129.376L320.628 136.889C329.765 155.45 350.077 163.683 366.684 155.56C374.488 151.742 382.186 144.256 385.754 137.012C388.368 131.703 388.419 130.965 388.419 98.1319C388.419 65.2129 388.376 64.5821 385.763 59.6844C382.173 52.959 373.71 44.7145 367.126 41.5322C360.498 38.3295 350.377 37.4706 343.964 39.5672ZM429.838 39.0249C419.769 42.2367 410.127 50.437 405.087 60.0735C402.628 64.7772 402.093 67.3151 402.093 74.3071C402.093 81.2991 402.628 83.837 405.087 88.5407C411.59 100.974 423.24 109.031 436.811 110.481C447.15 111.586 449.551 113.818 449.636 122.401C449.685 127.425 449.184 129.122 446.946 131.506C444.244 134.383 443.91 134.436 428.47 134.436C410.638 134.436 406.068 135.643 403.246 141.098C400.898 145.638 401.009 148.985 403.655 153.323C406.934 158.699 411.679 159.762 429.713 159.162C443.528 158.702 445.832 158.327 451.542 155.602C459.077 152.008 467.571 143.381 471.023 135.817C474.573 128.039 474.449 116.471 470.735 108.91C467.379 102.073 459.123 93.5519 452.67 90.2595C450.076 88.9367 444.461 87.4153 440.192 86.8798C435.924 86.3443 431.355 85.3301 430.04 84.6255C426.423 82.69 424.611 75.4031 426.326 69.6806C428.346 62.9427 431.837 61.8275 450.909 61.8275H466.378L470.381 57.8249C474 54.207 474.324 53.3731 473.757 49.1425C473.366 46.2268 472.02 43.3531 470.185 41.5163C467.296 38.6256 466.916 38.5654 449.958 38.3442C440.453 38.2205 431.399 38.5269 429.838 39.0249ZM158.352 63.0357C163.161 64.7114 164.018 67.82 164.744 86.2195C165.487 105.073 169.483 129.599 174.995 149.143C178.847 162.808 178.916 163.383 177.033 166.292C175.96 167.948 164.998 182.659 152.671 198.984C132.823 225.272 130.26 229.153 130.26 232.915C130.26 236.032 132.266 240.781 137.795 250.75C163.919 297.859 193.684 330.604 235.793 358.554C257.111 372.704 274.026 381.76 279.135 381.76C282.871 381.76 286.686 379.289 310.935 361.166C326.09 349.839 340.167 339.118 342.217 337.342C346.709 333.448 350.84 333.212 359.907 336.331C376.997 342.209 402.69 346.469 427.847 347.594C443.161 348.281 444.796 348.561 447.138 350.902L449.697 353.461V398.778V444.095L447.096 446.679C444.6 449.16 443.826 449.253 427.805 449.011C328.616 447.505 230.713 403.382 162.327 329.365C100.767 262.737 66.8149 179.842 62.7377 86.2195C61.9831 68.891 62.6469 65.9265 67.8702 63.2842C71.5424 61.427 153.092 61.2024 158.352 63.0357ZM362.603 65.8527C365.108 68.706 365.156 69.3073 365.156 97.6838C365.156 133.872 364.962 134.436 352.53 134.436C348.062 134.436 346.32 133.86 344.112 131.651L341.326 128.867V99.0032C341.326 66.9135 341.584 65.3853 347.405 62.8928C351.695 61.056 359.773 62.6296 362.603 65.8527Z" fill="#F21606"/>
<path d="M158.352 63.0357C163.161 64.7114 164.018 67.82 164.744 86.2195C165.487 105.073 169.483 129.599 174.995 149.143C178.847 162.808 178.916 163.383 177.033 166.292C175.96 167.948 164.998 182.659 152.671 198.984C132.823 225.272 130.26 229.153 130.26 232.915C130.26 236.032 132.266 240.781 137.795 250.75C163.919 297.859 193.684 330.604 235.793 358.554C257.111 372.704 274.026 381.76 279.135 381.76C282.871 381.76 286.686 379.289 310.935 361.166C326.09 349.839 340.167 339.118 342.217 337.342C346.709 333.448 350.84 333.212 359.907 336.331C376.997 342.209 402.69 346.469 427.847 347.594C443.161 348.281 444.796 348.561 447.138 350.902L449.697 353.461V398.778V444.095L447.096 446.679C444.6 449.16 443.826 449.253 427.805 449.011C328.616 447.505 230.713 403.382 162.327 329.365C100.767 262.737 66.8149 179.842 62.7377 86.2195C61.9831 68.891 62.6469 65.9265 67.8702 63.2842C71.5424 61.427 153.092 61.2024 158.352 63.0357Z" fill="#F21606"/>
</svg>
