<svg width="30" height="30" viewBox="0 0 30 30" fill="none" xmlns="http://www.w3.org/2000/svg">
<g clip-path="url(#clip0_1513_353)">
<path d="M14.9437 21.532C19.6526 21.532 23.47 17.3039 23.47 12.0883C23.47 6.87263 19.6526 2.64453 14.9437 2.64453C10.2347 2.64453 6.41736 6.87263 6.41736 12.0883C6.41736 17.3039 10.2347 21.532 14.9437 21.532Z" fill="white"/>
<path d="M13.616 0.883594C11.0583 1.20271 8.76555 2.30939 6.96028 4.09955V4.09956C5.66965 5.37948 4.72766 6.90352 4.16064 8.6294C2.9152 12.4199 3.76118 16.2953 6.65623 20.6269L7.02162 20.3828L6.65623 20.6269C8.45946 23.3249 11.4515 26.5659 14.2168 28.8212L14.6293 29.1577L14.9087 29.3856L15.1868 29.1561L15.7128 28.722C15.7128 28.722 15.7128 28.722 15.7128 28.7219C17.235 27.4658 19.3819 25.4007 20.5904 24.0294L20.2606 23.7389L20.5904 24.0294C24.6263 19.4496 26.588 15.2278 26.3125 11.3794C26.042 7.60249 23.9651 4.26527 20.6885 2.33947C18.6098 1.11769 16.0165 0.584157 13.616 0.883594ZM9.17676 6.65714C10.5089 5.27078 12.144 4.44572 14.0208 4.20956L14.0209 4.20956C14.6247 4.13353 15.8879 4.18538 16.5215 4.31388C18.1973 4.65375 19.5617 5.40645 20.7616 6.65514C23.1276 9.11743 23.6544 12.7629 22.0814 15.8298L22.4724 16.0303L22.0814 15.8298C20.9446 18.0463 18.801 19.6127 16.3173 20.0374C12.8887 20.6235 9.43545 18.9037 7.85887 15.8298L7.46782 16.0303L7.85887 15.8298C6.28311 12.7575 6.80782 9.12235 9.17676 6.65714Z" fill="#616161" stroke="white"/>
<path d="M10.4491 10.6494C10.4353 10.4637 10.3702 10.3189 10.254 10.2149C10.1395 10.1109 9.96516 10.059 9.73102 10.059C9.58184 10.059 9.45955 10.0785 9.36416 10.1174C9.27047 10.1546 9.20109 10.2056 9.15604 10.2706C9.11092 10.3356 9.08748 10.4099 9.08578 10.4934C9.08227 10.5621 9.09357 10.6243 9.11959 10.68C9.14736 10.7338 9.19072 10.783 9.24967 10.8276C9.30867 10.8703 9.38408 10.9093 9.47602 10.9446C9.56795 10.9798 9.67723 11.0114 9.80385 11.0392L10.241 11.1395C10.5359 11.2063 10.7882 11.2945 10.9981 11.404C11.208 11.5136 11.3797 11.6426 11.5133 11.7912C11.6468 11.9378 11.7448 12.1031 11.8073 12.2869C11.8714 12.4707 11.9044 12.6712 11.9061 12.8884C11.9044 13.2634 11.8168 13.5809 11.6433 13.8408C11.4699 14.1008 11.2219 14.2985 10.8993 14.434C10.5783 14.5695 10.1924 14.6373 9.74145 14.6373C9.27832 14.6373 8.87414 14.5639 8.52897 14.4173C8.18555 14.2706 7.91842 14.045 7.72758 13.7406C7.53855 13.4343 7.44316 13.0425 7.44141 12.5654H8.8152C8.82387 12.7399 8.86459 12.8865 8.93748 13.0054C9.01031 13.1242 9.11262 13.2142 9.24445 13.2755C9.37805 13.3368 9.53672 13.3674 9.72059 13.3674C9.87498 13.3674 10.0042 13.347 10.1083 13.3061C10.2124 13.2653 10.2913 13.2087 10.345 13.1362C10.3988 13.0638 10.4266 12.9812 10.4283 12.8884C10.4266 12.8012 10.3997 12.725 10.3477 12.6601C10.2973 12.5932 10.2141 12.5338 10.0979 12.4818C9.98168 12.428 9.82465 12.3778 9.62695 12.3314L9.09615 12.2089C8.62436 12.0994 8.25229 11.9165 7.98 11.6603C7.70941 11.4022 7.57494 11.0504 7.5767 10.6048C7.57494 10.2428 7.66518 9.92619 7.84729 9.65514C8.03115 9.38227 8.28527 9.16969 8.60965 9.0174C8.93572 8.86518 9.30949 8.78906 9.73102 8.78906C10.1612 8.78906 10.5332 8.86611 10.8472 9.02022C11.1612 9.17432 11.4031 9.39152 11.5731 9.67189C11.7448 9.95033 11.8315 10.2762 11.8333 10.6494H10.4491Z" fill="#BE3333"/>
<path d="M17.6184 11.7188C17.6184 12.3537 17.503 12.8893 17.2723 13.3256C17.0417 13.76 16.7303 14.0896 16.3383 14.3143C15.9463 14.5371 15.5092 14.6484 15.027 14.6484C14.5413 14.6484 14.1025 14.5361 13.7104 14.3115C13.3202 14.0849 13.0097 13.7545 12.779 13.3201C12.55 12.8838 12.4355 12.35 12.4355 11.7188C12.4355 11.0838 12.55 10.5491 12.779 10.1147C13.0097 9.67834 13.3202 9.34881 13.7104 9.12604C14.1025 8.90139 14.5413 8.78906 15.027 8.78906C15.5092 8.78906 15.9463 8.90139 16.3383 9.12604C16.7303 9.34881 17.0417 9.67834 17.2723 10.1147C17.503 10.5491 17.6184 11.0838 17.6184 11.7188ZM16.1302 11.7188C16.1302 11.3771 16.0876 11.0894 16.0027 10.8554C15.9194 10.6196 15.7954 10.4414 15.6306 10.3208C15.4675 10.1982 15.2663 10.137 15.027 10.137C14.7876 10.137 14.5855 10.1982 14.4208 10.3208C14.2577 10.4414 14.1337 10.6196 14.0487 10.8554C13.9654 11.0894 13.9238 11.3771 13.9238 11.7188C13.9238 12.0604 13.9654 12.349 14.0487 12.5848C14.1337 12.8188 14.2577 12.997 14.4208 13.1196C14.5855 13.2402 14.7876 13.3005 15.027 13.3005C15.2663 13.3005 15.4675 13.2402 15.6306 13.1196C15.7954 12.997 15.9194 12.8188 16.0027 12.5848C16.0876 12.349 16.1302 12.0604 16.1302 11.7188Z" fill="#BE3333"/>
<path d="M21.1602 10.6494C21.1463 10.4637 21.0813 10.3189 20.965 10.2149C20.8505 10.1109 20.6762 10.059 20.4421 10.059C20.2929 10.059 20.1706 10.0785 20.0752 10.1174C19.9815 10.1546 19.9122 10.2056 19.8671 10.2706C19.822 10.3356 19.7985 10.4099 19.7968 10.4934C19.7933 10.5621 19.8046 10.6243 19.8306 10.68C19.8584 10.7338 19.9018 10.783 19.9607 10.8276C20.0197 10.8703 20.0951 10.9093 20.1871 10.9446C20.279 10.9798 20.3883 11.0114 20.5149 11.0392L20.952 11.1395C21.2469 11.2063 21.4993 11.2945 21.7092 11.404C21.919 11.5136 22.0908 11.6426 22.2243 11.7912C22.3579 11.9378 22.4559 12.1031 22.5183 12.2869C22.5825 12.4707 22.6154 12.6712 22.6172 12.8884C22.6154 13.2634 22.5278 13.5809 22.3544 13.8408C22.181 14.1008 21.9329 14.2985 21.6103 14.434C21.2894 14.5695 20.9034 14.6373 20.4525 14.6373C19.9894 14.6373 19.5852 14.5639 19.24 14.4173C18.8966 14.2706 18.6295 14.045 18.4386 13.7406C18.2496 13.4343 18.1542 13.0425 18.1525 12.5654H19.5263C19.5349 12.7399 19.5756 12.8865 19.6485 13.0054C19.7214 13.1242 19.8237 13.2142 19.9555 13.2755C20.0891 13.3368 20.2478 13.3674 20.4316 13.3674C20.586 13.3674 20.7152 13.347 20.8194 13.3061C20.9234 13.2653 21.0023 13.2087 21.0561 13.1362C21.1099 13.0638 21.1376 12.9812 21.1393 12.8884C21.1376 12.8012 21.1107 12.725 21.0587 12.6601C21.0084 12.5932 20.9251 12.5338 20.8089 12.4818C20.6927 12.428 20.5357 12.3778 20.338 12.3314L19.8072 12.2089C19.3354 12.0994 18.9633 11.9165 18.6911 11.6603C18.4205 11.4022 18.286 11.0504 18.2878 10.6048C18.286 10.2428 18.3762 9.92619 18.5583 9.65514C18.7422 9.38227 18.9963 9.16969 19.3207 9.0174C19.6468 8.86518 20.0206 8.78906 20.4421 8.78906C20.8722 8.78906 21.2443 8.86611 21.5582 9.02022C21.8722 9.17432 22.1142 9.39152 22.2841 9.67189C22.4559 9.95033 22.5426 10.2762 22.5444 10.6494H21.1602Z" fill="#BE3333"/>
</g>
<defs>
<clipPath id="clip0_1513_353">
<rect width="30" height="30" fill="white"/>
</clipPath>
</defs>
</svg>
