<svg width="25" height="27" viewBox="0 0 25 27" fill="none" xmlns="http://www.w3.org/2000/svg">
<g clip-path="url(#clip0_596_332)">
<mask id="mask0_596_332" style="mask-type:alpha" maskUnits="userSpaceOnUse" x="-5" y="-18" width="92" height="92">
<rect x="-5" y="-18" width="92" height="92" fill="#C4C4C4"/>
</mask>
<g mask="url(#mask0_596_332)">
<path fill-rule="evenodd" clip-rule="evenodd" d="M12.8218 3.08034C12.7173 3.1459 8.33199 9.60629 7.98993 10.1986C5.82015 13.9556 7.37876 19.1977 11.0911 20.6289C16.132 22.5723 20.7017 16.5163 18.377 10.9732C18.1095 10.3354 16.7845 8.2072 16.5734 8.07628L14.168 4.42818C13.1654 2.93034 13.1251 2.89 12.8218 3.08034ZM18.265 12.7124C18.0543 11.5765 17.7586 10.9363 16.7565 9.44555L13.8448 5.09684C13.175 4.091 13.0116 3.86495 12.9813 3.9028C12.8452 4.07327 8.64593 10.33 8.50699 10.5693C6.54113 13.9558 7.93395 18.667 11.2851 19.9663C15.2374 21.4988 19.142 17.4407 18.265 12.7124Z" stroke="#616161"/>
</g>
</g>
<defs>
<clipPath id="clip0_596_332">
<rect width="25" height="27" fill="white"/>
</clipPath>
</defs>
</svg>
