<svg width="25" height="25" viewBox="0 0 25 25" fill="none" xmlns="http://www.w3.org/2000/svg">
<path fill-rule="evenodd" clip-rule="evenodd" d="M12.1377 0.984634C9.89472 1.30245 8.00511 2.99794 7.59792 5.058L7.5278 5.41289L7.07091 5.38896C4.03258 5.2295 1.59736 7.71539 2.05563 10.5086C2.37437 12.4515 4.04703 13.9663 6.18418 14.2476C6.37319 14.2724 8.90692 14.2871 12.9974 14.2871C17.0879 14.2871 19.6216 14.2724 19.8106 14.2476C22.2171 13.9309 24 12.0517 24 9.83213C24 7.29311 21.6606 5.24534 18.9239 5.38896L18.467 5.41289L18.3969 5.058C17.8708 2.39622 15.0644 0.569892 12.1377 0.984634ZM13.9923 2.3059C15.8236 2.75128 17.0101 4.12825 17.1175 5.93259C17.1699 6.81307 17.4105 6.98166 18.2965 6.75893C20.469 6.21292 22.6028 7.7358 22.6028 9.83213C22.6028 11.3294 21.6472 12.4683 20.0047 12.9286C19.6998 13.014 6.86359 13.056 6.29191 12.9735C3.83494 12.6185 2.57481 10.0231 3.92791 8.10442C4.74288 6.94881 6.27755 6.40531 7.71017 6.765C8.57791 6.98283 8.82529 6.80644 8.87729 5.93259C8.9953 3.94927 10.3078 2.59605 12.4816 2.21653C12.7337 2.17247 13.6722 2.22802 13.9923 2.3059ZM5.86183 15.6046C5.53785 15.7307 4.76566 16.8244 4.76566 17.1572C4.76566 17.6537 5.38577 17.9709 5.80492 17.6888C6.10109 17.4894 6.78598 16.4482 6.78598 16.1972C6.78598 15.7484 6.29736 15.435 5.86183 15.6046ZM11.7079 15.6046C11.3839 15.7307 10.6117 16.8244 10.6117 17.1572C10.6117 17.6537 11.2318 17.9709 11.651 17.6888C11.9471 17.4894 12.632 16.4482 12.632 16.1972C12.632 15.7484 12.1434 15.435 11.7079 15.6046ZM18.2417 15.6046C17.9177 15.7307 17.1455 16.8244 17.1455 17.1572C17.1455 17.6537 17.7656 17.9709 18.1848 17.6888C18.4809 17.4894 19.1659 16.4482 19.1659 16.1972C19.1659 15.7484 18.6772 15.435 18.2417 15.6046ZM8.61292 16.8779C8.28891 17.004 7.51676 18.0977 7.51676 18.4305C7.51676 18.927 8.13683 19.2442 8.556 18.9621C8.85216 18.7628 9.53706 17.7215 9.53706 17.4705C9.53706 17.0217 9.04843 16.7083 8.61292 16.8779ZM14.8028 16.8779C14.4789 17.004 13.7067 18.0977 13.7067 18.4305C13.7067 18.927 14.3268 19.2442 14.7459 18.9621C15.0421 18.7628 15.727 17.7215 15.727 17.4705C15.727 17.0217 15.2384 16.7083 14.8028 16.8779ZM5.51795 19.1062C5.19396 19.2323 4.42177 20.326 4.42177 20.6588C4.42177 21.1553 5.04188 21.4725 5.46104 21.1904C5.75721 20.9911 6.4421 19.9497 6.4421 19.6988C6.4421 19.25 5.95348 18.9366 5.51795 19.1062ZM11.7079 19.1062C11.3839 19.2323 10.6117 20.326 10.6117 20.6588C10.6117 21.1553 11.2318 21.4725 11.651 21.1904C11.9471 20.9911 12.632 19.9497 12.632 19.6988C12.632 19.25 12.1434 18.9366 11.7079 19.1062ZM17.8978 19.1062C17.5738 19.2323 16.8016 20.326 16.8016 20.6588C16.8016 21.1553 17.4217 21.4725 17.8409 21.1904C18.137 20.9911 18.8219 19.9497 18.8219 19.6988C18.8219 19.25 18.3333 18.9366 17.8978 19.1062Z" fill="#616161"/>
</svg>
