<svg width="47" height="47" viewBox="0 0 47 47" fill="none" xmlns="http://www.w3.org/2000/svg">
<path fill-rule="evenodd" clip-rule="evenodd" d="M21.6578 0.135507C16.866 0.868785 12.8291 4.78076 11.9592 9.53389L11.8094 10.3527L10.8333 10.2975C4.34233 9.92958 -0.860185 15.6652 0.118846 22.1099C0.799787 26.5926 4.37319 30.0877 8.93894 30.7367C9.34273 30.7941 14.7557 30.828 23.4945 30.828C32.2332 30.828 37.6462 30.7941 38.05 30.7367C43.191 30.006 47 25.6702 47 20.5491C47 14.6909 42.0021 9.96612 36.1556 10.2975L35.1795 10.3527L35.0297 9.53389C33.9058 3.39243 27.9104 -0.821416 21.6578 0.135507ZM25.62 3.18402C29.5323 4.21164 32.0671 7.38868 32.2965 11.5518C32.4084 13.5833 32.9224 13.9723 34.8152 13.4584C39.4564 12.1986 44.0151 15.7123 44.0151 20.5491C44.0151 24.0036 41.9736 26.6314 38.4646 27.6935C37.8132 27.8906 10.3904 27.9875 9.16907 27.797C3.92009 26.9781 1.228 20.9898 4.11872 16.5628C5.85978 13.8965 9.1384 12.6425 12.199 13.4724C14.0528 13.975 14.5813 13.568 14.6924 11.5518C14.9445 6.97573 17.7485 3.85349 22.3925 2.97782C22.931 2.87618 24.936 3.00435 25.62 3.18402ZM8.25028 33.8677C7.55814 34.1587 5.90845 36.6822 5.90845 37.45C5.90845 38.5956 7.23323 39.3274 8.1287 38.6765C8.76142 38.2166 10.2246 35.8141 10.2246 35.235C10.2246 34.1995 9.18073 33.4765 8.25028 33.8677ZM20.7396 33.8677C20.0474 34.1587 18.3977 36.6822 18.3977 37.45C18.3977 38.5956 19.7225 39.3274 20.618 38.6765C21.2507 38.2166 22.7139 35.8141 22.7139 35.235C22.7139 34.1995 21.67 33.4765 20.7396 33.8677ZM34.6982 33.8677C34.006 34.1587 32.3563 36.6822 32.3563 37.45C32.3563 38.5956 33.6811 39.3274 34.5766 38.6765C35.2093 38.2166 36.6725 35.8141 36.6725 35.235C36.6725 34.1995 35.6286 33.4765 34.6982 33.8677ZM14.1276 36.8056C13.4354 37.0965 11.7858 39.6201 11.7858 40.3879C11.7858 41.5335 13.1105 42.2653 14.006 41.6144C14.6387 41.1545 16.1019 38.752 16.1019 38.1729C16.1019 37.1374 15.058 36.4144 14.1276 36.8056ZM27.3515 36.8056C26.6594 37.0965 25.0097 39.6201 25.0097 40.3879C25.0097 41.5335 26.3345 42.2653 27.2299 41.6144C27.8627 41.1545 29.3258 38.752 29.3258 38.1729C29.3258 37.1374 28.282 36.4144 27.3515 36.8056ZM7.51562 41.9469C6.82347 42.2378 5.17379 44.7614 5.17379 45.5292C5.17379 46.6748 6.49857 47.4066 7.39403 46.7557C8.02676 46.2958 9.48993 43.8932 9.48993 43.3142C9.48993 42.2787 8.44607 41.5557 7.51562 41.9469ZM20.7396 41.9469C20.0474 42.2378 18.3977 44.7614 18.3977 45.5292C18.3977 46.6748 19.7225 47.4066 20.618 46.7557C21.2507 46.2958 22.7139 43.8932 22.7139 43.3142C22.7139 42.2787 21.67 41.5557 20.7396 41.9469ZM33.9635 41.9469C33.2713 42.2378 31.6217 44.7614 31.6217 45.5292C31.6217 46.6748 32.9464 47.4066 33.8419 46.7557C34.4746 46.2958 35.9378 43.8932 35.9378 43.3142C35.9378 42.2787 34.8939 41.5557 33.9635 41.9469Z" fill="#FBFBFB"/>
</svg>
