<svg width="25" height="27" viewBox="0 0 25 27" fill="none" xmlns="http://www.w3.org/2000/svg">
<path d="M21.0211 6.59855C21.948 6.59855 22.7 5.838 22.7 4.90251C22.7 3.79928 22.0881 2.45755 21.0218 1C19.9722 2.43534 19.3421 3.79928 19.3421 4.90251C19.3421 5.838 20.0935 6.59855 21.0211 6.59855ZM21.0218 2.21496C21.6754 3.26013 22.0166 4.17852 22.0166 4.90251C22.0166 5.46114 21.5698 5.91521 21.0211 5.91521C20.4724 5.91521 20.0255 5.46114 20.0255 4.90251C20.0255 4.17989 20.3675 3.26149 21.0218 2.21496Z" fill="#616161"/>
<path d="M16.6932 6.89683C16.4137 6.13559 15.9436 5.30876 15.3074 4.43956C14.8728 5.03406 14.5151 5.61489 14.2393 6.17181C13.7535 6.08938 13.2626 6.04041 12.7702 6.02524V4.73681C12.7702 4.65181 12.7364 4.5703 12.6763 4.51019C12.6161 4.45009 12.5347 4.41633 12.4497 4.41633C12.3647 4.41633 12.2832 4.45009 12.2231 4.51019C12.1629 4.5703 12.1292 4.65181 12.1292 4.73681V6.02524C11.6485 6.04207 11.1694 6.09116 10.6952 6.17215C10.8761 6.01364 11.021 5.81843 11.1205 5.5995C11.2199 5.38057 11.2715 5.14297 11.272 4.90251C11.272 3.79928 10.66 2.45755 9.59367 1C8.54407 2.43534 7.91405 3.79928 7.91405 4.90251C7.91357 5.27601 8.03688 5.63913 8.26468 5.93511C8.49247 6.23109 8.81192 6.44325 9.17309 6.53841C7.83788 6.96576 6.60139 7.65526 5.53605 8.56655C5.54561 8.49275 5.55825 8.41964 5.55825 8.34344C5.55825 7.2402 4.94565 5.89711 3.8793 4.43956C2.83005 5.8749 2.20001 7.23986 2.20001 8.3431C2.20001 9.27924 2.95134 10.0388 3.87896 10.0388C3.97087 10.0388 4.05868 10.0254 4.14683 10.0114C3.21681 11.1865 2.53655 12.56 2.20001 14.0616C2.50902 13.7437 2.87882 13.4913 3.28742 13.3193C3.69601 13.1473 4.13504 13.0593 4.57835 13.0605C5.08515 13.0587 5.58552 13.1739 6.04061 13.3969C6.49569 13.62 6.89324 13.9449 7.20235 14.3466C7.51154 13.9449 7.9091 13.6201 8.36416 13.3971C8.81923 13.1741 9.31957 13.0589 9.82635 13.0605C10.6865 13.0593 11.5131 13.3941 12.1299 13.9936V17.0157H11.8094V18.9375C11.8089 19.2772 11.6738 19.6028 11.4337 19.843C11.1934 20.0832 10.8678 20.2183 10.5281 20.2188C10.1884 20.2184 9.86276 20.0833 9.62255 19.8431C9.38235 19.6029 9.24725 19.2772 9.24689 18.9375C9.24146 18.7712 9.17158 18.6136 9.05203 18.4978C8.93249 18.3821 8.77263 18.3174 8.60626 18.3174C8.43989 18.3174 8.28003 18.3821 8.16049 18.4978C8.04094 18.6136 7.97106 18.7712 7.96564 18.9375C7.96564 20.3503 9.11466 21.5 10.5281 21.5C11.9409 21.5 13.0907 20.3503 13.0907 18.9375V17.0157H12.7702V13.9933C13.3869 13.3938 14.2135 13.0591 15.0737 13.0605C15.5804 13.0588 16.0807 13.174 16.5357 13.397C16.9908 13.6201 17.3883 13.9449 17.6973 14.3466C18.0065 13.9449 18.4041 13.6201 18.8591 13.3971C19.3142 13.1741 19.8146 13.0589 20.3213 13.0605C20.7647 13.0593 21.2038 13.1472 21.6124 13.3193C22.0211 13.4913 22.3909 13.7437 22.7 14.0616C21.9788 10.8454 19.7087 8.19994 16.6932 6.89683ZM8.59772 4.90251C8.59772 4.17989 8.93972 3.26149 9.59402 2.21496C10.2476 3.26046 10.589 4.17852 10.589 4.90251C10.589 5.46114 10.142 5.91521 9.59334 5.91521C9.04462 5.91521 8.59772 5.46114 8.59772 4.90251ZM2.88335 8.3431C2.88335 7.63141 3.23253 6.69729 3.88067 5.65555C4.53394 6.70105 4.87526 7.61876 4.87526 8.3431C4.87526 8.90104 4.42836 9.35544 3.87896 9.35544C3.33025 9.35544 2.88335 8.90104 2.88335 8.3431ZM15.3084 5.65555C15.9617 6.70105 16.303 7.61876 16.303 8.3431C16.303 8.90104 15.8561 9.35544 15.3067 9.35544C14.758 9.35544 14.3111 8.90104 14.3111 8.3431C14.3111 7.63141 14.6606 6.69729 15.3084 5.65555Z" fill="#616161"/>
</svg>
