<svg width="47" height="47" viewBox="0 0 47 47" fill="none" xmlns="http://www.w3.org/2000/svg">
<path fill-rule="evenodd" clip-rule="evenodd" d="M22.7189 0.170311C22.3534 0.397331 22.0648 0.720558 21.9448 1.03727C21.8832 1.19966 21.8476 2.30833 21.8489 4.02076C21.8507 6.49917 21.8667 6.78062 22.0252 7.12992C22.5731 8.33654 24.4254 8.33654 24.9733 7.12992C25.1318 6.78062 25.1478 6.49917 25.1496 4.02076C25.1509 2.31356 25.1152 1.1992 25.054 1.03727C24.9343 0.72065 24.548 0.301951 24.2153 0.128083C23.8558 -0.0597395 23.0528 -0.037065 22.7189 0.170311ZM7.09802 6.65532C6.44267 7.04813 6.15552 7.94822 6.46038 8.65361C6.64178 9.07332 10.5332 12.9124 10.8588 12.9929C11.2662 13.0936 12.0151 12.9849 12.2835 12.7861C12.8648 12.3555 13.1165 11.6661 12.9381 10.9929C12.85 10.6601 12.5434 10.3078 10.8917 8.64067C9.82319 7.56221 8.81606 6.62236 8.65357 6.55223C8.18291 6.3488 7.53811 6.39158 7.09802 6.65532ZM38.3249 6.5559C38.1734 6.6242 37.1753 7.56239 36.1067 8.64076C34.455 10.3078 34.1485 10.6601 34.0603 10.9929C33.8733 11.6986 34.1494 12.3981 34.7834 12.8254C35.1249 13.0554 35.7782 13.1063 36.2305 12.9379C36.5744 12.8099 40.3734 9.03082 40.5374 8.65361C40.8459 7.94391 40.5545 7.04124 39.8916 6.65275C39.4477 6.39259 38.7788 6.35128 38.3249 6.5559ZM21.6173 11.7854C21.2639 11.8495 20.6649 11.9888 20.2862 12.0948C16.0613 13.278 12.8236 16.7839 11.8704 21.2074C11.6364 22.2935 11.6364 24.7051 11.8704 25.7911C12.8819 30.4852 16.4588 34.0911 21.1124 35.1083C22.0852 35.3209 24.0707 35.3944 25.0463 35.254C28.9487 34.6921 32.2148 32.3823 34.0033 28.9194C34.8533 27.2735 35.2294 25.8534 35.3134 23.9718C35.4439 21.0481 34.5752 18.398 32.7327 16.0993C31.0644 14.0177 28.5701 12.4836 25.886 11.888C24.9794 11.6869 22.4905 11.627 21.6173 11.7854ZM24.8872 15.0967C28.0679 15.6537 30.5344 17.728 31.5473 20.6976C32.4287 23.2816 32.0672 26.0353 30.5466 28.3188C29.5779 29.7736 28.0133 30.9633 26.3009 31.5474C24.9074 32.0227 23.4872 32.1429 22.1113 31.9019C20.2333 31.573 18.6845 30.7761 17.4279 29.4921C16.1587 28.1952 15.4206 26.7373 15.0966 24.8872C14.8557 23.5113 14.9758 22.0912 15.4512 20.6976C16.7853 16.7861 20.8289 14.386 24.8872 15.0967ZM1.00831 21.9498C0.715098 22.0664 0.294564 22.4645 0.128039 22.7832C0.0568023 22.9197 -0.000847944 23.2501 -2.17468e-05 23.5176C0.00199785 24.1679 0.282997 24.657 0.81617 24.9382C1.21394 25.1481 1.26737 25.1517 3.98326 25.1497C7.15788 25.1474 7.302 25.1192 7.77248 24.4083C8.31685 23.5857 8.00299 22.4217 7.12988 22.0252C6.7792 21.8661 6.5061 21.8513 3.9918 21.8547C2.39182 21.8569 1.1416 21.8967 1.00831 21.9498ZM39.8686 22.0252C39.627 22.135 39.3887 22.3445 39.226 22.5903C38.6816 23.4129 38.9955 24.5768 39.8686 24.9733C40.2179 25.1318 40.4994 25.1478 42.9778 25.1497C44.685 25.1509 45.7993 25.1152 45.9613 25.054C46.2779 24.9344 46.6966 24.5481 46.8704 24.2153C46.9417 24.0789 47 23.7568 47 23.4993C47 23.2418 46.9417 22.9197 46.8704 22.7832C46.6966 22.4505 46.2779 22.0642 45.9613 21.9446C45.7993 21.8833 44.685 21.8476 42.9778 21.8489C40.4994 21.8507 40.2179 21.8667 39.8686 22.0252ZM10.6932 34.0965C10.3244 34.2639 6.55099 38.0717 6.4289 38.3997C6.16699 39.1035 6.46975 39.9724 7.10693 40.3458C7.55418 40.6079 8.18484 40.6489 8.65357 40.4463C8.81606 40.3762 9.82319 39.4364 10.8917 38.3579C12.5434 36.6908 12.85 36.3385 12.9381 36.0056C13.1251 35.2999 12.8491 34.6004 12.215 34.1732C11.855 33.9306 11.1386 33.8945 10.6932 34.0965ZM34.8367 34.109C34.6853 34.188 34.4834 34.322 34.388 34.4068C33.953 34.7936 33.8323 35.7375 34.1417 36.332C34.3654 36.762 37.8503 40.2268 38.2707 40.4372C38.687 40.6456 39.5599 40.5898 39.904 40.3329C40.3452 40.0035 40.514 39.6897 40.555 39.1222C40.5849 38.708 40.5514 38.5039 40.4075 38.2259C40.1748 37.7765 36.5823 34.1952 36.2305 34.0622C35.8546 33.92 35.1541 33.9435 34.8367 34.109ZM22.9618 39.0149C22.5267 39.1991 22.1886 39.5091 22.0217 39.8764C21.8676 40.216 21.8507 40.5188 21.8489 42.9778C21.8476 44.685 21.8833 45.7994 21.9445 45.9613C22.0641 46.2779 22.4504 46.6966 22.7832 46.8705C22.9196 46.9417 23.2417 47 23.4992 47C23.7567 47 24.0789 46.9417 24.2153 46.8705C24.548 46.6966 24.9343 46.2779 25.054 45.9613C25.1152 45.7994 25.1509 44.685 25.1496 42.9778C25.1473 39.8568 25.1157 39.6943 24.4222 39.2353C24.01 38.9626 23.3282 38.8597 22.9618 39.0149Z" fill="#FBFBFB"/>
</svg>
