<svg width="25" height="27" viewBox="0 0 25 27" fill="none" xmlns="http://www.w3.org/2000/svg">
<mask id="mask0_1066_156" style="mask-type:alpha" maskUnits="userSpaceOnUse" x="0" y="0" width="25" height="27">
<rect width="25" height="27" fill="#C4C4C4"/>
</mask>
<g mask="url(#mask0_1066_156)">
<path d="M10.3333 14.4016V4H8.66667V14.4016C8.11066 14.5877 7.64204 14.9539 7.34364 15.4355C7.04525 15.9171 6.93628 16.4831 7.03601 17.0334C7.13573 17.5837 7.43773 18.0829 7.88862 18.4427C8.33951 18.8026 8.91026 19 9.5 19C10.0897 19 10.6605 18.8026 11.1114 18.4427C11.5623 18.0829 11.8643 17.5837 11.964 17.0334C12.0637 16.4831 11.9548 15.9171 11.6564 15.4355C11.358 14.9539 10.8893 14.5877 10.3333 14.4016Z" fill="#616161"/>
<path d="M9.5 22C8.4174 22.0012 7.35857 21.6825 6.45647 21.0839C5.55438 20.4853 4.84922 19.6335 4.42956 18.6354C4.0099 17.6373 3.89444 16.5375 4.09768 15.474C4.30092 14.4105 4.8138 13.4308 5.57192 12.6579V3.92857C5.57192 2.88665 5.98577 1.8874 6.72243 1.15065C7.45908 0.413902 8.45821 0 9.5 0C10.5418 0 11.5409 0.413902 12.2776 1.15065C13.0142 1.8874 13.4281 2.88665 13.4281 3.92857V12.6579C14.1862 13.4308 14.6991 14.4105 14.9023 15.474C15.1056 16.5375 14.9901 17.6373 14.5704 18.6354C14.1508 19.6335 13.4456 20.4853 12.5435 21.0839C11.6414 21.6825 10.5826 22.0012 9.5 22ZM9.5 1.57143C8.87512 1.57205 8.276 1.82059 7.83414 2.26251C7.39228 2.70442 7.14377 3.30361 7.14315 3.92857V13.3438L6.88233 13.5787C6.28909 14.109 5.87086 14.807 5.68299 15.5802C5.49512 16.3535 5.54647 17.1656 5.83024 17.909C6.11402 18.6524 6.61683 19.2921 7.27214 19.7434C7.92745 20.1947 8.70434 20.4364 9.5 20.4364C10.2957 20.4364 11.0726 20.1947 11.7279 19.7434C12.3832 19.2921 12.886 18.6524 13.1698 17.909C13.4535 17.1656 13.5049 16.3535 13.317 15.5802C13.1291 14.807 12.7109 14.109 12.1177 13.5787L11.8568 13.3438V3.92857C11.8562 3.30361 11.6077 2.70442 11.1659 2.26251C10.724 1.82059 10.1249 1.57205 9.5 1.57143V1.57143Z" fill="#616161"/>
<path d="M18.6695 4.86181V15.286C18.6695 15.6803 18.9298 16 19.2508 16H19.7491C20.0702 16 20.3305 15.6803 20.3305 15.286V4.86181H21.8885C22.3197 4.86181 22.5487 4.35271 22.2627 4.03012L19.9425 1.41291C19.7464 1.19174 19.4023 1.188 19.2015 1.40486L16.7777 4.02207C16.4813 4.34215 16.7083 4.86181 17.1445 4.86181H18.6695Z" fill="#616161"/>
</g>
</svg>
