<svg width="25" height="27" viewBox="0 0 25 27" fill="none" xmlns="http://www.w3.org/2000/svg">
<mask id="mask0_1066_155" style="mask-type:alpha" maskUnits="userSpaceOnUse" x="0" y="0" width="25" height="27">
<rect width="25" height="27" fill="#C4C4C4"/>
</mask>
<g mask="url(#mask0_1066_155)">
<path d="M10.3333 14.4016V4.1C10.3333 4.04477 10.2886 4 10.2333 4H8.76667C8.71144 4 8.66667 4.04477 8.66667 4.1V14.4016C8.11066 14.5877 7.64204 14.9539 7.34364 15.4355C7.04525 15.9171 6.93628 16.4831 7.03601 17.0334C7.13573 17.5837 7.43773 18.0829 7.88862 18.4427C8.33951 18.8026 8.91026 19 9.5 19C10.0897 19 10.6605 18.8026 11.1114 18.4427C11.5623 18.0829 11.8643 17.5837 11.964 17.0334C12.0637 16.4831 11.9548 15.9171 11.6564 15.4355C11.358 14.9539 10.8893 14.5877 10.3333 14.4016Z" fill="#616161"/>
<path d="M9.5 22C10.5826 22.0012 11.6414 21.6825 12.5435 21.0839C13.4456 20.4853 14.1508 19.6335 14.5704 18.6354C14.9901 17.6373 15.1056 16.5375 14.9023 15.474C14.6991 14.4105 14.1862 13.4308 13.4281 12.6579V3.92857C13.4281 2.88665 13.0142 1.8874 12.2776 1.15065C11.5409 0.413902 10.5418 0 9.5 0C8.45821 0 7.45908 0.413902 6.72243 1.15065C5.98577 1.8874 5.57192 2.88665 5.57192 3.92857V12.6579C4.8138 13.4308 4.30092 14.4105 4.09768 15.474C3.89444 16.5375 4.0099 17.6373 4.42956 18.6354C4.84922 19.6335 5.55438 20.4853 6.45647 21.0839C7.35857 21.6825 8.4174 22.0012 9.5 22ZM9.5 1.57143C10.1249 1.57205 10.724 1.82059 11.1659 2.26251C11.6077 2.70442 11.8562 3.30361 11.8569 3.92857V13.3438L12.1177 13.5787C12.7109 14.109 13.1291 14.807 13.317 15.5802C13.5049 16.3535 13.4535 17.1656 13.1698 17.909C12.886 18.6524 12.3832 19.2921 11.7279 19.7434C11.0726 20.1947 10.2957 20.4364 9.5 20.4364C8.70435 20.4364 7.92745 20.1947 7.27214 19.7434C6.61684 19.2921 6.11402 18.6524 5.83024 17.909C5.54647 17.1656 5.49512 16.3535 5.68299 15.5802C5.87086 14.807 6.28909 14.109 6.88233 13.5787L7.14315 13.3438V3.92857C7.14377 3.30361 7.39228 2.70442 7.83414 2.26251C8.276 1.82059 8.87512 1.57205 9.5 1.57143V1.57143Z" fill="#616161"/>
<path d="M20.3305 12.1382V1.71399C20.3305 1.31966 20.0702 1 19.7492 1H19.2509C18.9298 1 18.6695 1.31966 18.6695 1.71399V12.1382H17.1115C16.6803 12.1382 16.4513 12.6473 16.7373 12.9699L19.0575 15.5871C19.2536 15.8083 19.5977 15.812 19.7985 15.5951L22.2223 12.9779C22.5187 12.6578 22.2917 12.1382 21.8555 12.1382H20.3305Z" fill="#616161"/>
</g>
</svg>
