<svg width="25" height="27" viewBox="0 0 25 27" fill="none" xmlns="http://www.w3.org/2000/svg">
<path fill-rule="evenodd" clip-rule="evenodd" d="M12.3931 3.08002C11.1422 3.38161 10.1457 4.77361 10.1457 6.21937C10.1457 6.96382 10.8503 7.36045 11.316 6.87826C11.4954 6.69251 11.5336 6.58703 11.5897 6.1228C11.7071 5.15067 12.41 4.52699 13.2234 4.67319C14.5075 4.90396 14.8527 6.87733 13.7454 7.65805C13.3724 7.92116 13.6533 7.90692 8.3409 7.93254C3.43403 7.95624 3.42875 7.95637 3.31854 8.04998C2.86746 8.4331 2.90131 9.16679 3.38291 9.44563L3.55699 9.54641H8.41637C13.8816 9.54641 13.5972 9.5628 14.23 9.21118C17.2339 7.54231 15.6609 2.29208 12.3931 3.08002ZM19.6731 6.31975C18.2462 6.61883 17.0799 8.31117 17.3143 9.74269C17.4426 10.5263 18.5693 10.5407 18.6838 9.76011C18.6956 9.67953 18.7222 9.48553 18.7428 9.32898C18.917 8.00842 20.3302 7.46459 21.149 8.40304C21.96 9.33243 21.4987 10.9466 20.361 11.1602C20.2197 11.1867 16.9638 11.2033 11.868 11.2035L3.60417 11.2037L3.43497 11.2976C2.94067 11.5718 2.94133 12.4485 3.43602 12.7229L3.60632 12.8174L20.7181 12.7938L20.9721 12.6923C23.3963 11.7232 23.7288 8.12058 21.5258 6.69377C21.0104 6.35993 20.2316 6.20271 19.6731 6.31975ZM3.38291 14.5743C2.90131 14.8531 2.86746 15.5869 3.31854 15.97C3.42875 16.0635 3.43403 16.0637 8.3409 16.0874C12.2199 16.1061 13.2847 16.1233 13.4039 16.1693C14.4412 16.5689 14.756 18.0141 13.9956 18.8856C13.1418 19.864 11.7585 19.2958 11.5897 17.8971C11.5336 17.4329 11.4954 17.3274 11.316 17.1417C10.8503 16.6595 10.1457 17.0561 10.1457 17.8006C10.1457 20.1371 12.3757 21.7082 14.23 20.678C16.3853 19.4806 16.3853 16.0062 14.23 14.8088C13.5972 14.4572 13.8816 14.4735 8.41637 14.4735H3.55699L3.38291 14.5743Z" fill="#616161"/>
</svg>
