<svg width="512" height="512" viewBox="0 0 512 512"  xmlns="http://www.w3.org/2000/svg">
<path d="M264.933 80.9306C267.535 82.2464 270.637 84.9842 272.399 87.5198L275.414 91.8576L275.98 199.682L283.201 203.431C302.381 213.388 314.905 234.073 314.905 255.792C314.905 277.511 302.381 298.196 283.201 308.154L275.98 311.902L275.414 419.727L272.399 424.065C264.299 435.718 247.509 435.718 239.408 424.065L236.394 419.727L235.827 311.902L228.607 308.154C209.427 298.196 196.903 277.511 196.903 255.792C196.903 234.073 209.427 213.388 228.607 203.431L235.827 199.682L236.394 91.8576L239.408 87.5198C243.137 82.1554 249.624 78.6792 255.904 78.6792C258.666 78.6792 262.248 79.5727 264.933 80.9306Z" />
<path fill-rule="evenodd" clip-rule="evenodd" d="M256 0.0465199C247.529 -0.0903982 240.03 0.0690184 235.838 0.603286C234.9 0.722835 234.009 0.864493 233.159 1.03012C227.412 1.43763 222.169 1.95219 218.183 2.54853C192.001 6.46703 169.073 13.6146 144.209 25.6113C118.307 38.1072 98.9562 51.7009 77.9421 72.16C55.1435 94.3572 40.6799 114.075 26.9146 141.719C11.1003 173.481 3.27038 202.431 0.593997 239.031C-1.89428 273.051 3.51647 311.499 15.2956 343.491C20.2842 357.042 31.3418 379.687 38.6417 391.305C63.0395 430.126 98.8961 463.085 138.825 483.391C175.451 502.017 218.078 512.279 256.001 511.993C293.923 512.279 336.548 502.017 373.175 483.391C413.104 463.085 448.961 430.126 473.358 391.305C480.658 379.687 491.716 357.042 496.704 343.491C508.484 311.499 513.894 273.051 511.406 239.031C508.73 202.431 500.899 173.481 485.085 141.719C471.32 114.075 456.857 94.3572 434.058 72.16C413.044 51.7009 393.693 38.1072 367.791 25.6113C342.927 13.6146 319.999 6.46703 293.817 2.54853C289.831 1.9522 284.589 1.43774 278.843 1.03024C277.992 0.864601 277.1 0.72284 276.162 0.603286C271.97 0.0690184 264.47 -0.0903982 256 0.0465199ZM256 471.811C220.487 471.558 192.175 464.967 161.355 449.948C138.017 438.576 121.788 426.985 103.26 408.454C84.7627 389.955 72.2952 372.424 61.0945 349.162C25.3358 274.902 35.2078 186.601 86.5707 121.285C94.3006 111.456 113.734 92.2919 123.357 85.0102C147.866 66.4634 174.874 53.2579 202.747 46.1914C222.088 41.2881 229.918 40.3859 256 40.1205C282.082 40.3859 289.911 41.2881 309.253 46.1914C337.126 53.2579 364.134 66.4634 388.643 85.0102C398.266 92.2919 417.699 111.456 425.429 121.285C476.792 186.601 486.664 274.902 450.906 349.162C439.705 372.424 427.237 389.955 408.739 408.454C390.212 426.985 373.983 438.576 350.645 449.948C319.825 464.967 291.513 471.558 256 471.811Z" />
</svg>
