<svg width="512" height="512" viewBox="0 0 512 512"  xmlns="http://www.w3.org/2000/svg">
<path fill-rule="evenodd" clip-rule="evenodd" d="M235.837 0.603286C227.629 1.64996 222.877 4.39872 219.643 9.97228C214.853 18.2236 215.437 26.5719 221.269 33.2142C226.954 39.6903 227.717 39.8444 255.504 40.1156C281.983 40.3747 289.789 41.2573 309.253 46.1915C337.126 53.258 364.134 66.4635 388.643 85.0103C398.266 92.292 417.699 111.456 425.429 121.286C476.792 186.601 486.664 274.903 450.905 349.162C439.705 372.424 427.237 389.956 408.739 408.454C390.212 426.985 373.983 438.577 350.645 449.949C317.853 465.928 287.9 472.367 249.092 471.783C228.41 471.472 227.041 471.796 221.269 478.371C215.437 485.013 214.853 493.362 219.643 501.613C223.184 507.714 227.422 509.904 237.797 510.996C279.802 515.416 330.552 505.067 373.175 483.391C413.104 463.085 448.96 430.126 473.358 391.305C480.658 379.688 491.716 357.042 496.704 343.492C508.483 311.499 513.894 273.052 511.406 239.031C508.73 202.431 500.9 173.481 485.085 141.72C471.32 114.075 456.857 94.3573 434.058 72.1601C413.044 51.701 393.693 38.1073 367.791 25.6113C342.927 13.6146 319.999 6.46704 293.816 2.54853C278.941 0.323107 246.563 -0.763589 235.837 0.603286ZM138.534 28.4731C124.27 35.9679 111.371 44.0031 107.227 47.9756C103.276 51.764 100.59 59.8842 101.566 65.0886C103.291 74.2895 111.849 81.6812 120.776 81.6812C126.293 81.6812 128.552 80.7176 140.416 73.3018C145.985 69.8216 154.742 64.8154 159.876 62.1767C171.415 56.2479 174.269 52.6346 174.87 43.1966C175.666 30.6915 167.981 22.6154 155.333 22.6674C150.238 22.6874 148.215 23.3859 138.534 28.4731ZM247.066 80.9307C244.465 82.2466 241.363 84.9843 239.6 87.5199L236.586 91.8577L236.302 145.77L236.019 199.683L228.799 203.431C209.618 213.389 197.095 234.074 197.095 255.793C197.095 277.512 209.618 298.197 228.799 308.154L236.019 311.903L236.302 365.815L236.586 419.728L239.6 424.065C247.7 435.719 264.491 435.719 272.591 424.065L275.606 419.728L275.889 365.815L276.172 311.903L283.393 308.154C302.573 298.197 315.097 277.512 315.097 255.793C315.097 234.074 302.573 213.389 283.393 203.431L276.172 199.683L275.889 145.77L275.606 91.8577L272.591 87.5199C268.862 82.1555 262.376 78.6793 256.096 78.6793C253.333 78.6793 249.751 79.5728 247.066 80.9307ZM56.1344 102.143C53.7372 102.916 50.6335 104.594 49.2388 105.873C45.5399 109.263 36.5572 123.427 29.3004 137.313C23.6865 148.054 22.9741 150.058 22.9741 155.123C22.9741 167.685 31.0843 175.349 43.5358 174.557C52.9607 173.956 56.5766 171.097 62.5027 159.561C65.1411 154.427 70.1467 145.669 73.6265 140.1C81.0784 128.174 82.0049 125.986 82.0049 120.298C82.0049 107.692 68.4458 98.1768 56.1344 102.143ZM15.7343 216.764C11.0679 218.169 6.16033 221.72 3.95718 225.284C0.347295 231.125 -1.11347 254.738 0.9316 274.18C2.00516 284.382 4.50447 289.069 10.7317 292.554C18.6999 297.015 27.0732 296.307 33.5436 290.624C40.1411 284.831 40.2641 284.194 40.2641 255.793C40.2641 227.4 40.1391 226.752 33.5576 220.973C28.3869 216.432 21.9115 214.903 15.7343 216.764ZM264.89 238.676C271.595 242.098 275.106 247.981 275.106 255.793C275.106 266.943 267.245 274.805 256.096 274.805C244.951 274.805 237.086 266.943 237.086 255.803C237.086 244.66 244.766 236.905 255.886 236.821C259.175 236.796 262.583 237.498 264.89 238.676ZM33.4796 338.456C26.2528 342.407 22.9741 347.989 22.9741 356.339C22.9741 362.678 26.3399 370.2 37.7568 389.378C45.6729 402.676 50.9147 408.13 57.328 409.745C69.5844 412.832 82.0049 403.461 82.0049 391.128C82.0049 385.611 81.0414 383.351 73.6265 371.486C70.1467 365.916 65.1411 357.159 62.5027 352.024C56.4496 340.241 52.9307 337.536 43.0956 337.105C38.4032 336.899 35.6087 337.291 33.4796 338.456ZM112.218 432.037C104.24 435.987 99.9543 445.328 102.072 454.156C103.707 460.971 108.884 466.034 122.526 474.157C141.702 485.576 149.223 488.942 155.561 488.942C167.99 488.942 175.659 480.779 174.87 468.389C174.269 458.951 171.415 455.337 159.876 449.409C154.742 446.77 145.985 441.764 140.416 438.283C134.848 434.803 129.078 431.494 127.595 430.93C123.258 429.281 116.853 429.742 112.218 432.037Z" />
</svg>
