<svg width="512" height="512" viewBox="0 0 512 512" xmlns="http://www.w3.org/2000/svg">
<g clip-path="url(#clip0_1472_320)">
<path fill-rule="evenodd" clip-rule="evenodd" d="M107.227 47.9756C111.371 44.0031 124.27 35.9679 138.534 28.4731C148.215 23.3859 150.238 22.6874 155.333 22.6674C167.981 22.6154 175.666 30.6915 174.87 43.1966C174.269 52.6346 171.415 56.2479 159.876 62.1767C154.742 64.8154 145.985 69.8216 140.416 73.3018C128.552 80.7176 126.293 81.6812 120.776 81.6812C111.849 81.6812 103.291 74.2895 101.566 65.0886C100.59 59.8842 103.276 51.764 107.227 47.9756ZM239.6 87.5199C241.363 84.9843 244.465 82.2466 247.066 80.9307C249.751 79.5728 253.333 78.6793 256.096 78.6793C262.376 78.6793 268.862 82.1555 272.591 87.5199L275.606 91.8577L276.172 199.683L283.393 203.431C302.573 213.389 315.097 234.074 315.097 255.793C315.097 277.512 302.573 298.197 283.393 308.154L276.172 311.903L275.606 419.728L272.591 424.065C264.491 435.719 247.7 435.719 239.6 424.065L236.586 419.728L236.019 311.903L228.799 308.154C209.618 298.197 197.095 277.512 197.095 255.793C197.095 234.074 209.618 213.389 228.799 203.431L236.019 199.683L236.586 91.8577L239.6 87.5199ZM49.2388 105.873C50.6335 104.594 53.7372 102.916 56.1344 102.143C68.4458 98.1768 82.0049 107.692 82.0049 120.298C82.0049 125.986 81.0784 128.174 73.6265 140.1C70.1467 145.669 65.1411 154.427 62.5027 159.561C56.5766 171.097 52.9607 173.956 43.5358 174.557C31.0843 175.349 22.9741 167.685 22.9741 155.123C22.9741 150.058 23.6865 148.054 29.3004 137.313C36.5572 123.427 45.5399 109.263 49.2388 105.873ZM3.95718 225.284C6.16033 221.72 11.0679 218.169 15.7343 216.764C21.9115 214.903 28.3869 216.432 33.5576 220.973C40.1391 226.752 40.2641 227.4 40.2641 255.793C40.2641 284.194 40.1411 284.831 33.5436 290.624C27.0732 296.307 18.6999 297.015 10.7317 292.554C4.50447 289.069 2.00516 284.382 0.931602 274.18C-1.11347 254.738 0.347297 231.125 3.95718 225.284ZM275.106 255.793C275.106 247.981 271.595 242.098 264.89 238.676C262.583 237.498 259.175 236.796 255.886 236.821C244.766 236.905 237.086 244.66 237.086 255.803C237.086 266.943 244.951 274.805 256.096 274.805C267.245 274.805 275.106 266.943 275.106 255.793ZM22.9741 356.339C22.9741 347.989 26.2528 342.407 33.4796 338.456C35.6087 337.291 38.4032 336.899 43.0956 337.105C52.9307 337.536 56.4496 340.241 62.5027 352.024C65.1411 357.159 70.1467 365.916 73.6265 371.486C81.0414 383.351 82.0049 385.611 82.0049 391.128C82.0049 403.461 69.5844 412.832 57.328 409.745C50.9147 408.13 45.6729 402.676 37.7568 389.378C26.3399 370.2 22.9741 362.678 22.9741 356.339ZM102.072 454.156C99.9543 445.328 104.24 435.987 112.218 432.037C116.853 429.742 123.258 429.281 127.595 430.93C129.078 431.494 134.848 434.803 140.416 438.283C145.985 441.764 154.742 446.77 159.876 449.409C171.415 455.337 174.269 458.951 174.87 468.389C175.659 480.779 167.99 488.942 155.561 488.942C149.223 488.942 141.702 485.576 122.526 474.157C108.884 466.034 103.707 460.971 102.072 454.156Z" />
<path d="M462.687 105.873C461.293 104.594 458.189 102.916 455.792 102.143C443.48 98.1769 429.921 107.692 429.921 120.298C429.921 125.986 430.848 128.174 438.3 140.1C441.78 145.669 446.785 154.427 449.424 159.561C455.35 171.097 458.966 173.956 468.39 174.557C480.842 175.349 488.952 167.685 488.952 155.123C488.952 150.058 488.24 148.054 482.626 137.313C475.369 123.427 466.386 109.263 462.687 105.873Z" />
<path d="M507.969 225.284C505.766 221.72 500.858 218.169 496.192 216.764C490.015 214.903 483.539 216.432 478.369 220.973C471.787 226.752 471.662 227.4 471.662 255.793C471.662 284.194 471.785 284.831 478.383 290.624C484.853 296.307 493.226 297.015 501.195 292.554C507.422 289.069 509.921 284.382 510.995 274.18C513.04 254.738 511.579 231.125 507.969 225.284Z" />
<path d="M488.952 356.339C488.952 347.989 485.673 342.407 478.447 338.456C476.318 337.291 473.523 336.899 468.831 337.105C458.996 337.536 455.477 340.241 449.424 352.024C446.785 357.159 441.78 365.916 438.3 371.486C430.885 383.351 429.921 385.611 429.921 391.128C429.921 403.461 442.342 412.832 454.598 409.745C461.012 408.13 466.253 402.676 474.169 389.378C485.586 370.2 488.952 362.678 488.952 356.339Z" />
<path d="M409.854 454.156C411.972 445.328 407.686 435.987 399.708 432.037C395.073 429.742 388.668 429.281 384.331 430.93C382.848 431.494 377.078 434.803 371.51 438.283C365.941 441.764 357.184 446.77 352.05 449.409C340.511 455.337 337.657 458.951 337.056 468.389C336.267 480.779 343.936 488.942 356.365 488.942C362.703 488.942 370.224 485.576 389.4 474.157C403.042 466.034 408.219 460.971 409.854 454.156Z" />
<path d="M235.837 0.603286C227.629 1.64996 222.877 4.39872 219.643 9.97228C214.853 18.2236 215.437 26.5719 221.269 33.2142C226.954 39.6903 227.717 39.8444 255.504 40.1156C281.983 40.3747 289.789 41.2573 309.253 46.1915C324.426 50.0382 339.343 55.7041 353.739 63.0605C358.949 65.8277 366.513 70.1791 371.51 73.3019C383.374 80.7177 385.633 81.6813 391.15 81.6813C400.077 81.6813 408.635 74.2896 410.36 65.0887C411.336 59.8843 408.65 51.7641 404.699 47.9757C400.555 44.0032 387.656 35.968 373.392 28.4732C371.152 27.2957 369.321 26.3534 367.768 25.6001C367.622 25.5296 367.475 25.4592 367.329 25.389C342.643 13.5262 319.837 6.44278 293.816 2.54853C278.941 0.323107 246.563 -0.763589 235.837 0.603286Z" />
<path d="M222.439 502.068C216.233 495.442 215.339 485.204 220.32 477.826C223.214 473.539 228.553 469.971 233.138 469.26C234.706 469.017 241.358 469.039 247.918 469.311C254.48 469.583 264.567 469.603 270.334 469.359C283.295 468.805 287.563 470.535 292.752 478.441C299.565 488.82 296.935 499.708 286.132 505.854C280.624 508.988 272.422 509.781 250.108 509.338C234.234 509.024 227.23 507.183 222.439 502.068Z" />
</g>

</svg>
