<svg width="53" height="53" viewBox="0 0 53 53" fill="none" xmlns="http://www.w3.org/2000/svg">
<rect width="53" height="53" rx="26.5" fill="#C4C4C4"/>
<rect width="53" height="53" rx="26.5" fill="white"/>
<path d="M15.9524 39.3256H24.1334H36.4049C49.1309 39.3256 47.3129 20.4114 33.6779 23.2486C26.4059 8.1172 14.5889 20.4114 16.8614 26.5585C4.13544 27.9771 9.13493 39.3256 15.9524 39.3256Z" fill="#505050"/>
<path d="M28.1935 29.716C26.9066 30.2775 27.5146 33.6465 27.7743 35.3309H26.6354C26.5483 34.3893 26.5094 32.9455 26.6775 31.6859C26.6896 31.5948 26.7028 31.5046 26.7172 31.4157C26.7335 31.3154 26.7511 31.2166 26.7704 31.1197C26.6706 30.446 25.9463 29.5288 25.5967 29.1545C21.0264 30.2775 20.4032 25.692 20.6628 23.2588C26.0641 23.0342 26.3757 26.7214 25.8564 28.593C26.4796 29.0422 26.8779 29.9032 26.9992 30.2775C27.2097 29.7036 27.511 29.2851 27.9338 29.1545C27.8472 27.6572 28.8167 25.1118 33.387 26.9085C31.5173 31.6251 29.1456 30.7454 28.1935 29.716Z" fill="#FE922D"/>
</svg>
