<svg width="53" height="53" viewBox="0 0 53 53" fill="none" xmlns="http://www.w3.org/2000/svg">
<rect width="53" height="53" rx="26.5" fill="#C4C4C4"/>
<rect width="53" height="53" rx="26.5" fill="white"/>
<mask id="mask0_208_404" style="mask-type:alpha" maskUnits="userSpaceOnUse" x="9" y="8" width="33" height="26">
<path d="M41.1268 8.5L41.2427 32.5017L37.7166 32.272C36.885 31.6522 35.0552 30.9041 33.19 31.9873H27.9201C27.4346 31.7367 26.7369 31.4595 26.0564 31.4545C25.3001 31.4042 24.5641 31.6973 24.0436 31.9873H18.7845C18.5303 31.8476 18.2965 31.7479 18.1509 31.6965L18.142 31.6934L18.133 31.6906C16.6397 31.2267 15.4085 31.5898 14.6507 32.0363L10.1447 32.0914V8.5H41.1268ZM29.9327 32.9873H31.1418C30.7673 33.0539 30.3569 33.0666 29.9327 32.9873ZM20.6185 32.9873H22.102C21.5493 33.1113 21.0434 33.0841 20.6185 32.9873Z" fill="#C4C4C4" stroke="black"/>
</mask>
<g mask="url(#mask0_208_404)">
<path fill-rule="evenodd" clip-rule="evenodd" d="M12.5325 20.4034L13.2129 20.8292C13.5234 21.0235 13.9152 21.0326 14.2343 20.8528L25.3849 14.5695C25.6908 14.3971 26.0646 14.3978 26.3699 14.5712L37.5506 20.9241C37.8665 21.1037 38.255 21.0977 38.5653 20.9084L39.2742 20.476C39.9247 20.0793 39.9103 19.1299 39.248 18.7531L33.9416 15.7341L33.9315 10.5014C33.9304 9.94922 33.4821 9.50244 32.9299 9.5033L30.5864 9.50695C30.0339 9.50781 29.5869 9.95646 29.5879 10.5089L29.5933 13.2601L26.3766 11.4299C26.0707 11.2559 25.6958 11.2555 25.3895 11.4289L12.5704 18.6855C11.911 19.0588 11.8902 20.0014 12.5325 20.4034ZM14.5614 22.8656V30.416V32.9731C14.5614 33.5254 15.0092 33.9731 15.5614 33.9731H36.3888C36.9411 33.9731 37.3888 33.5254 37.3888 32.9731V22.9696C37.3888 22.6078 37.1933 22.2742 36.8777 22.0973L26.4108 16.2309C26.108 16.0613 25.739 16.0607 25.4358 16.2294L15.0754 21.9917C14.7581 22.1681 14.5614 22.5026 14.5614 22.8656ZM22.4584 22.3872C22.4584 21.8349 22.9061 21.3872 23.4584 21.3872H24.7406C25.2929 21.3872 25.7406 21.8349 25.7406 22.3872V23.6868C25.7406 24.239 25.2929 24.6868 24.7406 24.6868H23.4584C22.9061 24.6868 22.4584 24.239 22.4584 23.6868V22.3872ZM23.4584 25.5587C22.9061 25.5587 22.4584 26.0064 22.4584 26.5587V27.8582C22.4584 28.4105 22.9061 28.8582 23.4584 28.8582H24.7406C25.2929 28.8582 25.7406 28.4105 25.7406 27.8582V26.5587C25.7406 26.0064 25.2929 25.5587 24.7406 25.5587H23.4584ZM26.4829 22.3872C26.4829 21.8349 26.9306 21.3872 27.4829 21.3872H28.7651C29.3173 21.3872 29.7651 21.8349 29.7651 22.3872V23.6868C29.7651 24.239 29.3173 24.6868 28.7651 24.6868H27.4829C26.9306 24.6868 26.4829 24.239 26.4829 23.6868V22.3872ZM27.4829 25.5587C26.9306 25.5587 26.4829 26.0064 26.4829 26.5587V27.8582C26.4829 28.4105 26.9306 28.8582 27.4829 28.8582H28.7651C29.3173 28.8582 29.7651 28.4105 29.7651 27.8582V26.5587C29.7651 26.0064 29.3173 25.5587 28.7651 25.5587H27.4829Z" fill="#555555"/>
<path d="M13.2129 20.8293L12.5325 20.4035C11.8902 20.0015 11.911 19.0589 12.5704 18.6856L25.3895 11.429C25.6958 11.2556 26.0707 11.256 26.3767 11.43L29.5933 13.2602L29.588 10.509C29.5869 9.95655 30.034 9.50791 30.5864 9.50705L32.9299 9.50339C33.4821 9.50253 33.9304 9.94932 33.9315 10.5014L33.9417 15.7342L39.248 18.7532C39.9103 19.13 39.9247 20.0794 39.2742 20.4761L38.5653 20.9085C38.2551 21.0977 37.8666 21.1038 37.5506 20.9242L26.3699 14.5713C26.0646 14.3979 25.6908 14.3972 25.3849 14.5696L14.2344 20.8529C13.9153 21.0327 13.5234 21.0236 13.2129 20.8293Z" fill="#FE922D"/>
<path d="M22.4585 22.3873C22.4585 21.835 22.9062 21.3873 23.4585 21.3873H24.7407C25.293 21.3873 25.7407 21.835 25.7407 22.3873V23.6868C25.7407 24.2391 25.293 24.6868 24.7407 24.6868H23.4585C22.9062 24.6868 22.4585 24.2391 22.4585 23.6868V22.3873Z" fill="white"/>
<path d="M22.4585 26.5587C22.4585 26.0064 22.9062 25.5587 23.4585 25.5587H24.7407C25.293 25.5587 25.7407 26.0064 25.7407 26.5587V27.8583C25.7407 28.4106 25.293 28.8583 24.7407 28.8583H23.4585C22.9062 28.8583 22.4585 28.4106 22.4585 27.8583V26.5587Z" fill="white"/>
<path d="M26.4829 22.3873C26.4829 21.835 26.9306 21.3873 27.4829 21.3873H28.7651C29.3174 21.3873 29.7651 21.835 29.7651 22.3873V23.6868C29.7651 24.2391 29.3174 24.6868 28.7651 24.6868H27.4829C26.9306 24.6868 26.4829 24.2391 26.4829 23.6868V22.3873Z" fill="white"/>
<path d="M26.4829 26.5587C26.4829 26.0064 26.9306 25.5587 27.4829 25.5587H28.7651C29.3174 25.5587 29.7651 26.0064 29.7651 26.5587V27.8583C29.7651 28.4106 29.3174 28.8583 28.7651 28.8583H27.4829C26.9306 28.8583 26.4829 28.4106 26.4829 27.8583V26.5587Z" fill="white"/>
</g>
<path d="M8 32.0459C8.29152 32.0255 9.10779 32.1619 10.0407 32.8699C11.2067 33.7549 12.8466 33.877 14.3771 32.8699C14.8265 32.4019 16.1772 31.6064 17.9846 32.168C18.2154 32.2493 18.779 32.5037 19.1872 32.8699C19.8431 33.3989 21.6505 34.1395 23.6329 32.8699C24.0094 32.5444 25.0468 31.8811 26.038 31.9543C26.8858 31.9543 27.8468 32.4833 28.2213 32.7478C30.1162 34.1883 32.169 33.348 32.9586 32.7478C34.8243 31.2829 36.7727 32.1374 37.5136 32.7478C39.3211 34.2616 41.3763 33.3785 42.178 32.7478C42.9359 32.1374 43.7085 32.0052 44 32.0154" stroke="#505050" stroke-width="1.5" stroke-linecap="round"/>
<path d="M8 35.3473C8.29152 35.3247 9.10779 35.4762 10.0407 36.2629C11.2067 37.2463 12.8466 37.3819 14.3771 36.2629C14.8265 35.7429 16.1772 34.859 17.9846 35.483C18.2154 35.5734 18.779 35.856 19.1872 36.2629C19.8431 36.8507 21.6505 37.6735 23.6329 36.2629C24.0094 35.9012 25.0468 35.1642 26.038 35.2456C26.8858 35.2456 27.8468 35.8334 28.2213 36.1272C30.1162 37.7278 32.169 36.7941 32.9586 36.1272C34.8243 34.4996 36.7727 35.449 37.5136 36.1272C39.3211 37.8092 41.3763 36.828 42.178 36.1272C42.9359 35.449 43.7085 35.3021 44 35.3134" stroke="#505050" stroke-width="1.5" stroke-linecap="round"/>
<path d="M8 38.8074C8.29152 38.7871 9.10779 38.9234 10.0407 39.6314C11.2067 40.5165 12.8466 40.6386 14.3771 39.6314C14.8265 39.1635 16.1772 38.3679 17.9846 38.9295C18.2154 39.0109 18.779 39.2652 19.1872 39.6314C19.8431 40.1604 21.6505 40.901 23.6329 39.6314C24.0094 39.3059 25.0468 38.6426 26.038 38.7159C26.8858 38.7159 27.8468 39.2449 28.2213 39.5094C30.1162 40.9499 32.169 40.1096 32.9586 39.5094C34.8243 38.0444 36.7727 38.899 37.5136 39.5094C39.3211 41.0231 41.3763 40.1401 42.178 39.5094C42.9359 38.899 43.7085 38.7667 44 38.7769" stroke="#505050" stroke-width="1.5" stroke-linecap="round"/>
</svg>
