<svg width="53" height="53" viewBox="0 0 53 53" fill="none" xmlns="http://www.w3.org/2000/svg">
<rect width="53" height="53" rx="26.5" fill="#C4C4C4"/>
<rect width="53" height="53" rx="26.5" fill="white"/>
<path d="M21.9402 23.9078C19.3325 23.9078 17.2185 21.782 17.2185 19.1597C17.2185 16.5374 19.3325 14.4116 21.9402 14.4116V23.9078Z" fill="#FE922D"/>
<rect x="29.634" y="17.6539" width="3.22459" height="0.926459" rx="0.46323" fill="#555555"/>
<rect width="5.54598" height="0.926192" rx="0.463096" transform="matrix(0.97329 0.229581 -0.227169 0.973855 11.5854 15.697)" fill="#FE922D"/>
<rect width="5.54574" height="0.926233" rx="0.463116" transform="matrix(0.977434 -0.21124 0.209002 0.977915 11 21.3735)" fill="#FE922D"/>
<rect width="5.55686" height="0.92439" rx="0.462195" transform="matrix(0.771098 -0.636716 0.632493 0.774566 13.1041 26.7082)" fill="#FE922D"/>
<rect width="5.56749" height="0.922622" rx="0.461311" transform="matrix(0.501877 -0.864939 0.862495 0.506066 17.449 30.3447)" fill="#FE922D"/>
<rect width="5.5573" height="0.924317" rx="0.462159" transform="matrix(0.761884 0.647714 -0.643519 0.76543 13.6676 10.4739)" fill="#FE922D"/>
<rect width="5.56803" height="0.922533" rx="0.461266" transform="matrix(0.484386 0.874854 -0.872551 0.488523 18.2539 7)" fill="#FE922D"/>
<rect x="29.634" y="22.5178" width="3.22459" height="0.926459" rx="0.46323" fill="#555555"/>
<rect x="29.634" y="27.3821" width="3.22459" height="0.926459" rx="0.46323" fill="#555555"/>
<path fill-rule="evenodd" clip-rule="evenodd" d="M26.8745 11.8488C25.7468 11.8488 24.8327 12.7629 24.8327 13.8905V32.8195C22.4537 33.6605 20.7493 35.9293 20.7493 38.5962C20.7493 41.9791 23.4917 44.7215 26.8746 44.7215C30.2575 44.7215 32.9999 41.9791 32.9999 38.5962C32.9999 35.9292 31.2954 33.6603 28.9162 32.8194V13.8905C28.9162 12.7629 28.0021 11.8488 26.8745 11.8488ZM27.8956 32.5557V32.368V13.6013C27.8956 13.0375 27.4385 12.5804 26.8747 12.5804C26.3109 12.5804 25.8538 13.0375 25.8538 13.6013V32.368V33.1682V33.2873H25.8538V33.5935C23.5238 34.0665 21.7702 36.1264 21.7702 38.5959C21.7702 41.415 24.0555 43.7003 26.8746 43.7003C29.6937 43.7003 31.979 41.415 31.979 38.5959C31.979 36.1264 30.2254 34.0666 27.8955 33.5936V32.5556C27.8955 32.5556 27.8956 32.5556 27.8956 32.5557Z" fill="#555555"/>
<path fill-rule="evenodd" clip-rule="evenodd" d="M26.8746 15.831C26.6773 15.831 26.5173 15.991 26.5173 16.1883V34.9904C24.7117 35.1707 23.3015 36.7028 23.3015 38.5663C23.3015 40.551 24.9012 42.1599 26.8746 42.1599C28.8479 42.1599 30.4477 40.551 30.4477 38.5663C30.4477 36.7029 29.0375 35.1707 27.2319 34.9904V16.1883C27.2319 15.991 27.0719 15.831 26.8746 15.831Z" fill="#555555"/>
</svg>
