<svg width="53" height="53" viewBox="0 0 53 53" fill="none" xmlns="http://www.w3.org/2000/svg">
<rect width="53" height="53" rx="26.5" fill="#C4C4C4"/>
<rect width="53" height="53" rx="26.5" fill="white"/>
<path d="M27.4538 17.6126C25.8075 17.9457 24.3663 18.6136 23.6043 20.2145C22.8666 21.7644 23.121 23.2787 23.9562 24.7233C24.9198 26.3896 26.3242 27.6326 27.8696 28.7348C30.6006 30.6824 33.6003 32.1016 36.7488 33.2302C38.749 33.9473 40.787 34.5215 42.8829 34.8793C43.4266 34.972 43.7794 35.2761 44 35.7614C44 36.9665 44 38.1716 44 39.3768C43.7796 39.0354 43.4804 38.8837 43.06 38.8975C41.4921 38.9487 39.9344 38.8002 38.3768 38.6353C36.4015 38.426 34.4506 38.0881 32.5254 37.6024C28.7831 36.6584 25.2706 35.1964 22.0922 32.9832C21.1499 32.3271 20.2533 31.6169 19.4582 30.7852C19.4738 30.3823 19.4647 29.9838 19.2535 29.6206C19.8733 29.6746 20.4265 29.5302 20.8768 29.0787C21.3522 29.4837 21.744 29.973 22.2227 30.3775C22.8048 30.8694 23.4054 31.3355 24.016 31.7901C24.2531 31.9667 24.5011 31.9844 24.7406 31.811C24.9385 31.6677 24.9711 31.4475 24.921 31.2268C24.8695 31.0001 24.673 30.8764 24.4985 30.7549C23.4672 30.0366 22.5385 29.2023 21.701 28.2698C20.9385 27.4209 20.3001 26.4839 19.8023 25.4544C19.7462 25.3381 19.719 25.2203 19.7205 25.0937C19.7239 24.824 19.8452 24.6335 20.1115 24.5634C20.3559 24.4991 20.564 24.5792 20.6975 24.7923C20.9624 25.2153 21.1834 25.6634 21.4683 26.0762C22.5867 27.697 24.0242 28.9951 25.5985 30.1517C27.7969 31.7669 30.1767 33.0712 32.664 34.1826C34.2925 34.9102 35.9498 35.5671 37.6493 36.1132C37.9713 36.2167 38.2454 36.103 38.3593 35.8335C38.4889 35.5269 38.3655 35.2284 38.0385 35.0789C37.915 35.0224 37.7835 34.9833 37.6545 34.9397C33.7029 33.606 29.9445 31.8811 26.5438 29.4418C24.8244 28.2085 23.2585 26.8174 22.1177 25.0045C21.4995 24.0221 21.1004 22.9596 21.1246 21.7996C21.1614 20.0258 21.8753 18.5069 23.0559 17.1952C23.5519 16.6442 24.122 16.1755 24.6911 15.7052C25.8341 16.0206 26.7568 16.6538 27.4538 17.6126ZM40.181 35.7041C39.8518 35.7367 39.6518 35.8887 39.5952 36.1534C39.5377 36.4222 39.6516 36.6575 39.9302 36.7429C40.2646 36.8454 40.6087 36.9173 40.9507 36.9928C41.2564 37.0603 41.4702 36.9039 41.5703 36.6434C41.6789 36.3608 41.5489 36.1021 41.2795 36.0011C40.912 35.8632 40.5193 35.7924 40.181 35.7041ZM26.2123 31.9424C25.9255 31.9741 25.7642 32.0643 25.6787 32.2851C25.59 32.5144 25.6074 32.7355 25.8018 32.8692C26.1071 33.079 26.4237 33.2775 26.7911 33.3824C27.035 33.452 27.1922 33.3458 27.3182 33.1766C27.459 32.9876 27.4861 32.7496 27.3272 32.5784C27.012 32.2387 26.5816 32.0834 26.2123 31.9424Z" fill="#FEC590"/>
<path d="M19.4583 30.7851C20.2532 31.6168 21.1499 32.3269 22.0922 32.9832C25.2707 35.1964 28.7832 36.6584 32.5255 37.6024C34.4506 38.0881 36.4015 38.4259 38.3768 38.6352C39.9344 38.8002 41.4921 38.9487 43.0601 38.8975H44V39.3768V39.7178C43.7021 40.0389 43.3273 40.0628 42.9299 40.0641C42.8974 40.0642 42.8646 40.0642 42.8317 40.0641L42.8111 40.0641C35.5921 40.0566 28.3732 40.0555 21.1542 40.0607C19.0537 40.0622 17.1169 39.4984 15.3404 38.4C14.3186 37.7682 13.4265 36.982 12.7614 35.9653C12.6838 35.7663 12.6027 35.5686 12.5295 35.368C12.1196 34.2454 11.8469 33.1063 12.2835 31.9301C12.585 31.1178 13.1209 30.5255 14.0279 30.3983C14.6946 30.3049 15.2731 30.5806 15.8105 30.9351C16.1901 31.1854 16.5108 31.5109 16.8469 31.8161C17.5117 32.4199 18.3534 32.3553 18.9529 31.6879C19.1936 31.42 19.287 31.084 19.4583 30.7851Z" fill="#FE922D"/>
<path d="M44 39.7178C43.7021 40.0389 43.3273 40.0628 42.9299 40.0641H44V39.7178Z" fill="#FE922D"/>
<path d="M13.58 19.6641C13.08 19.8359 12.5625 19.9497 12.076 20.1688C10.8262 20.7313 9.95203 21.6495 9.41301 22.8972C9.3643 23.01 9.33597 23.1319 9.18848 23.2683C9.30861 22.6703 9.45837 22.1421 9.65977 21.6349C10.3514 19.8926 11.3434 18.3372 12.5859 16.9291C14.4373 14.8308 16.6254 13.1892 19.1728 12.0366C20.3424 11.5074 21.5644 11.1271 22.8643 11.0647C22.915 11.0623 22.9639 11.0224 23.0136 11C23.5149 11 24.0162 11 24.5175 11C24.9158 11.1604 25.3503 11.1451 25.76 11.2679C27.3691 11.7504 28.5434 12.6785 29.0276 14.344C28.8949 14.3556 28.7883 14.2855 28.6745 14.2343C27.6939 13.7928 26.661 13.5373 25.5931 13.464C24.7213 13.4041 23.851 13.5011 22.9904 13.6597C21.3106 13.9692 19.7439 14.5657 18.2872 15.462C17.4938 15.9501 16.7399 16.4834 16.0367 17.0952C15.1378 17.8772 14.2869 18.701 13.58 19.6641Z" fill="#FEC590"/>
<path d="M12.1449 35.4235C11.5094 34.803 11.0209 34.075 10.5727 33.3141C9.85236 32.0909 9.43422 30.7615 9.16344 29.3806C9.1031 29.0728 9.09865 28.7541 9.06739 28.4405C9.05658 28.3319 9.10371 28.2106 9 28.1214C9 27.5757 9 27.03 9 26.4843C9.06622 26.1344 9.12868 25.7837 9.19935 25.4347C9.42334 24.3284 9.9428 23.4014 10.8794 22.7402C11.1666 22.5374 11.4905 22.3951 11.8243 22.2797C11.894 22.2556 11.9569 22.2521 12.0072 22.3167C11.783 22.5068 11.5053 22.6129 11.2788 22.8059C9.66744 24.1789 9.80857 27.0387 11.3933 28.4003C11.3658 28.4608 11.3449 28.5254 11.3097 28.5809C10.8575 29.2929 10.6211 30.0829 10.5816 30.9115C10.522 32.1639 10.9132 33.3071 11.5372 34.3864C11.7379 34.7333 12.0548 35.0133 12.1449 35.4235Z" fill="#FFE9D5"/>
<path d="M13.58 19.6641C14.2869 18.701 15.1378 17.8772 16.0367 17.0951C16.7399 16.4834 17.4939 15.9501 18.2872 15.462C19.744 14.5657 21.3106 13.9691 22.9904 13.6596C23.851 13.5011 24.7213 13.404 25.5932 13.4639C26.661 13.5372 27.6939 13.7928 28.6746 14.2342C28.7884 14.2855 28.8948 14.3555 29.0277 14.3439C29.4294 14.6705 29.8872 14.9183 30.2465 15.3083C31.1726 16.3134 30.9751 18.1022 29.6531 18.6725C29.1729 18.8797 28.5654 18.7855 28.163 18.4296C27.8886 18.1871 27.7085 17.8689 27.4539 17.6127C26.7568 16.6539 25.8341 16.0206 24.6911 15.7051C24.6521 15.684 24.6154 15.6552 24.5738 15.6429C23.0092 15.1815 21.4798 15.3639 19.9696 15.8961C18.553 16.3953 17.3481 17.2318 16.2806 18.2637C15.9018 18.6299 15.4823 18.975 15.2262 19.4555C14.6662 19.4371 14.1299 19.6037 13.58 19.6641Z" fill="#FFE9D5"/>
<path d="M15.2261 19.4554C15.4822 18.9749 15.9016 18.6298 16.2804 18.2636C17.348 17.2318 18.5529 16.3953 19.9695 15.8961C21.4797 15.3639 23.009 15.1815 24.5737 15.6428C24.6153 15.655 24.652 15.6839 24.691 15.7051C24.1218 16.1755 23.5518 16.644 23.0558 17.1951C21.8753 18.5068 21.1614 20.0257 21.1245 21.7994C21.1004 22.9595 21.4995 24.0219 22.1176 25.0043C23.2584 26.8173 24.8243 28.2083 26.5437 29.4417C29.9444 31.8811 33.7028 33.6059 37.6544 34.9396C37.7834 34.9832 37.915 35.0223 38.0384 35.0787C38.3655 35.2283 38.4888 35.5267 38.3592 35.8333C38.2453 36.1028 37.9712 36.2165 37.6492 36.113C35.9497 35.5669 34.2924 34.91 32.6639 34.1825C30.1766 33.0711 27.7968 31.7667 25.5984 30.1516C24.0242 28.995 22.5867 27.6969 21.4683 26.0761C21.1834 25.6632 20.9624 25.2151 20.6974 24.7922C20.5639 24.579 20.3559 24.499 20.1114 24.5633C19.8452 24.6333 19.7239 24.8239 19.7204 25.0936C19.7189 25.2201 19.7461 25.3381 19.8023 25.4542C20.3 26.4838 20.9384 27.4208 21.7009 28.2697C22.5384 29.2022 23.4671 30.0364 24.4985 30.7547C24.6729 30.8762 24.8694 31 24.9209 31.2266C24.9711 31.4474 24.9384 31.6675 24.7405 31.8109C24.5011 31.9842 24.2531 31.9666 24.0159 31.79C23.4053 31.3353 22.8048 30.8693 22.2226 30.3773C21.744 29.9728 21.3521 29.4835 20.8768 29.0786C20.8533 28.83 20.9913 28.5996 20.9316 28.3395C20.8145 27.8297 20.4991 27.4755 20.0942 27.1819C19.361 26.65 18.5243 26.357 17.6406 26.2397C15.2031 25.916 12.9901 26.2832 11.3933 28.4004C9.80859 27.0387 9.66745 24.1789 11.2788 22.8059C11.5054 22.6129 11.7831 22.5068 12.0072 22.3167C13.2596 21.7852 14.4866 22.1313 15.7272 22.3928C16.3432 22.5225 16.9701 22.4379 17.4986 22.0467C18.3306 21.4307 18.2001 20.3076 17.2476 19.7913C16.6131 19.4473 15.9205 19.4451 15.2261 19.4554Z" fill="#FE922D"/>
<path d="M12.7613 35.9654C12.6209 35.9627 12.5476 35.8696 12.4854 35.7615C12.6101 35.5809 12.4511 35.5878 12.3495 35.5569C12.3647 35.4035 12.3105 35.2735 12.2369 35.1397C11.4501 33.708 11.0399 32.2135 11.53 30.5865C11.8542 29.5105 12.4599 28.6564 13.5215 28.186C14.2374 27.8687 14.986 27.7907 15.7647 27.8432C17.188 27.9391 18.3498 28.5215 19.2536 29.6205C19.4647 29.9837 19.4739 30.3822 19.4583 30.7851C19.287 31.0839 19.1936 31.4199 18.9528 31.6879C18.3533 32.3553 17.5116 32.4199 16.8468 31.8161C16.5107 31.5108 16.19 31.1854 15.8104 30.9351C15.273 30.5806 14.6945 30.3048 14.0279 30.3983C13.1208 30.5255 12.5849 31.1179 12.2834 31.9301C11.8468 33.1063 12.1195 34.2454 12.5294 35.368C12.6026 35.5687 12.6837 35.7664 12.7613 35.9654Z" fill="#FFE9D5"/>
<path d="M19.2536 29.6206C18.3498 28.5216 17.1879 27.9391 15.7647 27.8433C14.9861 27.7908 14.2374 27.8688 13.5215 28.1861C12.4599 28.6566 11.8542 29.5106 11.5301 30.5866C11.04 32.2136 11.4502 33.7081 12.237 35.1398C12.3105 35.2736 12.3648 35.4036 12.3495 35.557L12.3499 35.5567C12.3258 35.5568 12.3018 35.5569 12.2777 35.5571C12.2335 35.5126 12.1892 35.4681 12.145 35.4236C12.0549 35.0133 11.7379 34.7333 11.5374 34.3865C10.9133 33.3073 10.5221 32.1641 10.5818 30.9116C10.6213 30.083 10.8578 29.293 11.3098 28.581C11.3451 28.5255 11.3659 28.4609 11.3934 28.4005C12.9903 26.2834 15.2033 25.9162 17.6407 26.2399C18.5245 26.3572 19.3611 26.6502 20.0944 27.182C20.4993 27.4757 20.8146 27.83 20.9317 28.3397C20.9914 28.5998 20.8534 28.8302 20.8769 29.0788C20.4265 29.5302 19.8733 29.6746 19.2536 29.6206Z" fill="#EBF4F5"/>
<path d="M40.181 35.7042C40.5192 35.7923 40.9119 35.8633 41.2794 36.0011C41.5488 36.1022 41.6788 36.3609 41.5703 36.6435C41.4702 36.9039 41.2563 37.0604 40.9506 36.9929C40.6086 36.9173 40.2645 36.8454 39.9302 36.7429C39.6516 36.6576 39.5377 36.4224 39.5952 36.1534C39.6518 35.8887 39.8518 35.7368 40.181 35.7042Z" fill="#FE922D"/>
<path d="M26.2123 31.9424C26.5816 32.0834 27.0119 32.2387 27.3271 32.5783C27.486 32.7495 27.4589 32.9876 27.3182 33.1765C27.1921 33.3458 27.0349 33.452 26.791 33.3823C26.4237 33.2775 26.107 33.079 25.8017 32.8691C25.6073 32.7354 25.5899 32.5143 25.6786 32.2851C25.7642 32.0644 25.9255 31.9741 26.2123 31.9424Z" fill="#FE922D"/>
<path d="M12.3495 35.557C12.4511 35.5879 12.6101 35.5809 12.4854 35.7615C12.4208 35.736 12.3755 35.6911 12.3496 35.6268C12.3497 35.6034 12.3498 35.58 12.3498 35.5567L12.3495 35.557Z" fill="#EBF4F5"/>
<path d="M12.3497 35.5566C12.3497 35.58 12.3496 35.6034 12.3495 35.6267C12.3256 35.6035 12.3017 35.5802 12.2777 35.5571C12.3017 35.5569 12.3257 35.5568 12.3497 35.5566Z" fill="#D5EBEE"/>
</svg>
