<svg width="53" height="53" viewBox="0 0 53 53" fill="none" xmlns="http://www.w3.org/2000/svg">
<rect width="53" height="53" rx="26.5" fill="#C4C4C4"/>
<rect width="53" height="53" rx="26.5" fill="white"/>
<mask id="mask0_208_445" style="mask-type:alpha" maskUnits="userSpaceOnUse" x="8" y="13" width="37" height="29">
<rect x="8" y="13" width="37" height="28.1522" fill="#C4C4C4"/>
</mask>
<g mask="url(#mask0_208_445)">
<mask id="path-3-inside-1_208_445" fill="white">
<path fill-rule="evenodd" clip-rule="evenodd" d="M19.1716 13.1672L19.0179 13.3251V14.6297V15.9344L19.1716 16.0923L19.3252 16.2501H25.4774C28.921 16.2501 31.6618 16.2324 31.7356 16.1918C31.7546 16.1814 31.7721 16.1701 31.7884 16.1574C31.9588 16.0244 31.9905 15.7334 31.9905 14.6297C31.9905 13.4205 31.9524 13.1869 31.7356 13.0676C31.6618 13.027 28.921 13.0093 25.4774 13.0093H19.3252L19.1716 13.1672ZM23.2564 21.2175C23.5707 21.3641 23.7026 21.6001 23.6761 21.9679L23.6553 22.2572L22.2653 23.6828L20.8754 25.1085H20.6243C20.4862 25.1085 20.3216 25.0815 20.2585 25.0486C20.0938 24.9627 19.0206 23.8668 18.9313 23.6933C18.7094 23.2627 18.9663 22.6853 19.4211 22.5926C19.7332 22.529 19.9401 22.6109 20.2769 22.9313L20.5951 23.2341L21.6046 22.2053C22.7371 21.051 22.8084 21.0084 23.2564 21.2175ZM31.6739 22.8669C31.9528 23.0357 32.0736 23.2397 32.0736 23.5421C32.0736 23.8445 31.9528 24.0484 31.6739 24.2173C31.5011 24.3218 31.401 24.3253 28.5261 24.3253C25.65 24.3253 25.5513 24.3219 25.3824 24.2173C24.783 23.8461 24.9206 22.9535 25.6036 22.7822C25.6935 22.7596 27.0559 22.7452 28.6312 22.75C31.3927 22.7585 31.5019 22.7628 31.6739 22.8669ZM23.3106 27.0527C23.6505 27.2657 23.7902 27.7307 23.6157 28.0685C23.5005 28.2915 21.0049 30.8211 20.8366 30.8855C20.4635 31.0281 20.2536 30.9267 19.6244 30.2998C18.9811 29.6588 18.856 29.474 18.8563 29.165C18.8566 28.8242 19.008 28.5858 19.3121 28.4476C19.6486 28.2946 19.8793 28.3709 20.2864 28.7699L20.5951 29.0726L21.5782 28.0692C22.1188 27.5173 22.6085 27.0393 22.6663 27.007C22.8315 26.9147 23.1234 26.9354 23.3106 27.0527ZM31.6739 28.2683C31.9528 28.4372 32.0736 28.6411 32.0736 28.9435C32.0736 29.2459 31.9528 29.4498 31.6739 29.6187C31.5011 29.7233 31.401 29.7267 28.5261 29.7267C25.65 29.7267 25.5513 29.7233 25.3824 29.6187C24.783 29.2475 24.9206 28.3549 25.6036 28.1836C25.6935 28.1611 27.0559 28.1466 28.6312 28.1514C31.3927 28.16 31.5019 28.1642 31.6739 28.2683ZM23.3106 32.4542C23.6505 32.6671 23.7902 33.1322 23.6157 33.4699C23.5005 33.6929 21.0049 36.2225 20.8366 36.2869C20.4635 36.4296 20.2536 36.3281 19.6244 35.7012C18.9811 35.0602 18.856 34.8754 18.8563 34.5664C18.8566 34.2256 19.008 33.9873 19.3121 33.849C19.6486 33.696 19.8793 33.7723 20.2864 34.1713L20.5951 34.474L21.5782 33.4706C22.1188 32.9187 22.6085 32.4408 22.6663 32.4085C22.8315 32.3161 23.1234 32.3369 23.3106 32.4542ZM31.7319 33.6795C31.9722 33.8334 32.0998 34.0643 32.0998 34.3449C32.0998 34.6256 31.9722 34.8565 31.7319 35.0103C31.5485 35.1278 31.5396 35.1281 28.5524 35.1281C25.65 35.1281 25.5514 35.1248 25.3824 35.0201C24.783 34.6489 24.9204 33.757 25.6036 33.5848C25.6935 33.5622 27.0677 33.5477 28.6575 33.5527C31.5292 33.5617 31.5492 33.5625 31.7319 33.6795Z"/>
<path fill-rule="evenodd" clip-rule="evenodd" d="M16.9379 14.7056C16.0958 14.9804 15.4551 15.6898 15.285 16.5354C15.2453 16.733 15.2325 20.1196 15.2422 27.8632L15.2561 38.9091L15.4359 39.2872C15.671 39.782 16.0886 40.2112 16.57 40.4529L16.9379 40.6376L25.3595 40.6518C33.7278 40.6658 33.7831 40.6652 34.1008 40.5552C34.5056 40.4151 34.7441 40.26 35.0576 39.9331C35.3442 39.6343 35.5891 39.1654 35.6709 38.7589C35.7106 38.5613 35.7234 35.1744 35.7137 27.43L35.6998 16.3829L35.5195 16.006C35.2811 15.5072 34.8451 15.0593 34.3755 14.8308C34.0256 14.6604 34.0001 14.6563 33.1641 14.6386L32.31 14.6204V17.8205H30.4275C29.9392 17.7542 21.1198 17.8151 20.5207 17.8151H18.7723L18.687 14.6297L17.9175 14.6333C17.4506 14.6355 17.0654 14.6639 16.9379 14.7056ZM23.6761 21.9679C23.7026 21.6001 23.5707 21.3641 23.2564 21.2175C22.8084 21.0084 22.7371 21.051 21.6046 22.2053L20.5951 23.2341L20.2769 22.9313C19.9401 22.6109 19.7332 22.529 19.4211 22.5926C18.9663 22.6853 18.7094 23.2627 18.9313 23.6933C19.0206 23.8668 20.0938 24.9627 20.2585 25.0486C20.3216 25.0815 20.4862 25.1085 20.6243 25.1085H20.8754L22.2653 23.6828L23.6553 22.2572L23.6761 21.9679ZM32.0736 23.5421C32.0736 23.2397 31.9528 23.0357 31.6739 22.8669C31.5019 22.7628 31.3927 22.7585 28.6312 22.75C27.0559 22.7452 25.6935 22.7596 25.6036 22.7822C24.9206 22.9535 24.783 23.8461 25.3824 24.2173C25.5513 24.3219 25.65 24.3253 28.5261 24.3253C31.401 24.3253 31.5011 24.3218 31.6739 24.2173C31.9528 24.0484 32.0736 23.8445 32.0736 23.5421ZM23.6157 28.0685C23.7902 27.7307 23.6505 27.2657 23.3106 27.0527C23.1234 26.9354 22.8315 26.9147 22.6663 27.007C22.6085 27.0393 22.1188 27.5173 21.5782 28.0692L20.5951 29.0726L20.2864 28.7699C19.8793 28.3709 19.6486 28.2946 19.3121 28.4476C19.008 28.5858 18.8566 28.8242 18.8563 29.165C18.856 29.474 18.9811 29.6588 19.6244 30.2998C20.2536 30.9267 20.4635 31.0281 20.8366 30.8855C21.0049 30.8211 23.5005 28.2915 23.6157 28.0685ZM32.0736 28.9435C32.0736 28.6411 31.9528 28.4372 31.6739 28.2683C31.5019 28.1642 31.3927 28.16 28.6312 28.1514C27.0559 28.1466 25.6935 28.1611 25.6036 28.1836C24.9206 28.3549 24.783 29.2475 25.3824 29.6187C25.5513 29.7233 25.65 29.7267 28.5261 29.7267C31.401 29.7267 31.5011 29.7233 31.6739 29.6187C31.9528 29.4498 32.0736 29.2459 32.0736 28.9435ZM23.6157 33.4699C23.7902 33.1322 23.6505 32.6671 23.3106 32.4542C23.1234 32.3369 22.8315 32.3161 22.6663 32.4085C22.6085 32.4408 22.1188 32.9187 21.5782 33.4706L20.5951 34.474L20.2864 34.1713C19.8793 33.7723 19.6486 33.696 19.3121 33.849C19.008 33.9873 18.8566 34.2256 18.8563 34.5664C18.856 34.8754 18.9811 35.0602 19.6244 35.7012C20.2536 36.3281 20.4635 36.4296 20.8366 36.2869C21.0049 36.2225 23.5005 33.6929 23.6157 33.4699ZM32.0998 34.3449C32.0998 34.0643 31.9722 33.8334 31.7319 33.6795C31.5492 33.5625 31.5292 33.5617 28.6575 33.5527C27.0677 33.5477 25.6935 33.5622 25.6036 33.5848C24.9204 33.757 24.783 34.6489 25.3824 35.0201C25.5514 35.1248 25.65 35.1281 28.5524 35.1281C31.5396 35.1281 31.5485 35.1278 31.7319 35.0103C31.9722 34.8565 32.0998 34.6256 32.0998 34.3449Z"/>
</mask>
<path d="M32.3097 15.1517L31.8097 15.1514V15.1514L32.3097 15.1517ZM23.2564 21.2175L23.045 21.6706L23.045 21.6706L23.2564 21.2175ZM23.6761 21.9679L24.1748 22.0038L24.1748 22.0038L23.6761 21.9679ZM23.6553 22.2572L24.0133 22.6063L24.1408 22.4755L24.154 22.2932L23.6553 22.2572ZM22.2653 23.6828L21.9073 23.3338L21.9073 23.3338L22.2653 23.6828ZM20.8754 25.1085V25.6085H21.0862L21.2334 25.4575L20.8754 25.1085ZM20.2585 25.0486L20.0272 25.4919L20.0272 25.4919L20.2585 25.0486ZM18.9313 23.6933L18.4868 23.9223L18.4868 23.9223L18.9313 23.6933ZM19.4211 22.5926L19.5209 23.0826L19.5209 23.0825L19.4211 22.5926ZM20.2769 22.9313L19.9322 23.2936L19.9322 23.2936L20.2769 22.9313ZM20.5951 23.2341L20.2505 23.5964L20.6072 23.9358L20.952 23.5843L20.5951 23.2341ZM21.6046 22.2053L21.2477 21.8551L21.2477 21.8551L21.6046 22.2053ZM31.6739 22.8669L31.4149 23.2946L31.415 23.2946L31.6739 22.8669ZM31.6739 24.2173L31.415 23.7895L31.4149 23.7895L31.6739 24.2173ZM25.3824 24.2173L25.1191 24.6423L25.1191 24.6424L25.3824 24.2173ZM25.6036 22.7822L25.4821 22.2971L25.4819 22.2972L25.6036 22.7822ZM28.6312 22.75L28.6328 22.25H28.6328L28.6312 22.75ZM23.3106 27.0527L23.045 27.4764L23.0451 27.4764L23.3106 27.0527ZM23.6157 28.0685L23.1715 27.839L23.1715 27.839L23.6157 28.0685ZM20.8366 30.8855L21.0152 31.3525L21.0152 31.3525L20.8366 30.8855ZM19.6244 30.2998L19.9774 29.9456L19.9774 29.9456L19.6244 30.2998ZM18.8563 29.165L19.3563 29.1654V29.1654L18.8563 29.165ZM19.3121 28.4476L19.519 28.9028L19.5191 28.9028L19.3121 28.4476ZM20.2864 28.7699L20.6364 28.4129L20.6364 28.4129L20.2864 28.7699ZM20.5951 29.0726L20.2451 29.4296L20.6023 29.7798L20.9523 29.4225L20.5951 29.0726ZM21.5782 28.0692L21.221 27.7193L21.221 27.7193L21.5782 28.0692ZM22.6663 27.007L22.9102 27.4435L22.9103 27.4434L22.6663 27.007ZM31.6739 28.2683L31.4149 28.6961L31.415 28.6961L31.6739 28.2683ZM31.6739 29.6187L31.415 29.1909L31.4149 29.191L31.6739 29.6187ZM25.3824 29.6187L25.1191 30.0438L25.1191 30.0438L25.3824 29.6187ZM25.6036 28.1836L25.4821 27.6986L25.4819 27.6986L25.6036 28.1836ZM28.6312 28.1514L28.6328 27.6514H28.6328L28.6312 28.1514ZM23.3106 32.4542L23.045 32.8778L23.0451 32.8779L23.3106 32.4542ZM23.6157 33.4699L23.1715 33.2404L23.1715 33.2404L23.6157 33.4699ZM20.8366 36.2869L21.0152 36.7539L21.0152 36.7539L20.8366 36.2869ZM19.6244 35.7012L19.9774 35.347L19.9774 35.347L19.6244 35.7012ZM18.8563 34.5664L19.3563 34.5668V34.5668L18.8563 34.5664ZM19.3121 33.849L19.519 34.3042L19.5191 34.3042L19.3121 33.849ZM20.2864 34.1713L20.6364 33.8143L20.6364 33.8143L20.2864 34.1713ZM20.5951 34.474L20.2451 34.8311L20.6023 35.1812L20.9523 34.8239L20.5951 34.474ZM21.5782 33.4706L21.221 33.1207L21.221 33.1207L21.5782 33.4706ZM22.6663 32.4085L22.9102 32.845L22.9103 32.8449L22.6663 32.4085ZM31.7319 33.6795L31.4623 34.1006L31.4623 34.1006L31.7319 33.6795ZM31.7319 35.0103L31.4623 34.5893L31.4623 34.5893L31.7319 35.0103ZM25.3824 35.0201L25.1191 35.4452L25.1191 35.4452L25.3824 35.0201ZM25.6036 33.5848L25.4815 33.0999L25.4813 33.1L25.6036 33.5848ZM28.6575 33.5527L28.6591 33.0527H28.6591L28.6575 33.5527ZM19.1716 13.1579L19.5299 13.5066L19.5299 13.5066L19.1716 13.1579ZM19.0179 13.3158L18.6596 12.9671L18.5179 13.1127V13.3158H19.0179ZM19.0179 15.9251H18.5179V16.1282L18.6596 16.2738L19.0179 15.9251ZM19.1716 16.083L19.5299 15.7343L19.5299 15.7343L19.1716 16.083ZM19.3252 16.2409L18.9668 16.5895L19.1141 16.7409H19.3252V16.2409ZM31.7356 16.1825L31.9766 16.6206L31.9767 16.6206L31.7356 16.1825ZM19.3252 13V12.5H19.1141L18.9668 12.6513L19.3252 13ZM31.81 14.6201L31.8097 15.1514L32.8097 15.152L32.81 14.6207L31.81 14.6201ZM31.8097 15.1514C31.8096 15.4314 31.7866 15.787 31.7641 15.9285L32.7516 16.0857C32.7859 15.8707 32.8096 15.4565 32.8097 15.152L31.8097 15.1514ZM19.2066 15.414L19.1868 14.6173L18.1871 14.6422L18.2069 15.4389L19.2066 15.414ZM23.045 21.6706C23.1315 21.711 23.1516 21.7431 23.1577 21.7538C23.1655 21.7677 23.1859 21.8137 23.1774 21.932L24.1748 22.0038C24.1928 21.7543 24.1606 21.4984 24.0304 21.2657C23.8985 21.0299 23.6956 20.8707 23.4678 20.7644L23.045 21.6706ZM23.1774 21.9319L23.1566 22.2213L24.154 22.2932L24.1748 22.0038L23.1774 21.9319ZM23.2973 21.9082L21.9073 23.3338L22.6233 24.0319L24.0133 22.6063L23.2973 21.9082ZM21.9073 23.3338L20.5174 24.7595L21.2334 25.4575L22.6233 24.0319L21.9073 23.3338ZM20.8754 24.6085H20.6243V25.6085H20.8754V24.6085ZM20.6243 24.6085C20.5847 24.6085 20.5361 24.6043 20.4941 24.5975C20.4736 24.5941 20.4599 24.591 20.4534 24.5892C20.4503 24.5884 20.4514 24.5885 20.4559 24.5901C20.4595 24.5914 20.472 24.5961 20.4897 24.6053L20.0272 25.4919C20.1342 25.5477 20.2587 25.5723 20.3325 25.5843C20.4232 25.5992 20.5259 25.6085 20.6243 25.6085V24.6085ZM20.4898 24.6053C20.5267 24.6246 20.5329 24.6354 20.4818 24.592C20.4453 24.5609 20.3961 24.5165 20.3364 24.4605C20.2178 24.3491 20.0706 24.2039 19.9239 24.054C19.7771 23.9041 19.6344 23.7534 19.5247 23.6315C19.4695 23.5703 19.4254 23.5194 19.3942 23.4813C19.3524 23.4302 19.3593 23.4325 19.3757 23.4643L18.4868 23.9223C18.5255 23.9976 18.5855 24.072 18.6201 24.1144C18.6654 24.1697 18.7211 24.2336 18.7817 24.3009C18.9034 24.436 19.0561 24.5971 19.2094 24.7536C19.3626 24.9101 19.5202 25.0658 19.6519 25.1895C19.7174 25.251 19.7798 25.3077 19.8338 25.3536C19.8733 25.3872 19.949 25.4511 20.0272 25.4919L20.4898 24.6053ZM19.3757 23.4643C19.3436 23.4019 19.3387 23.3105 19.3792 23.2195C19.4201 23.1277 19.4811 23.0907 19.5209 23.0826L19.3213 22.1027C18.9063 22.1872 18.6115 22.4851 18.4656 22.8129C18.3194 23.1414 18.297 23.5541 18.4868 23.9223L19.3757 23.4643ZM19.5209 23.0825C19.606 23.0652 19.6335 23.0741 19.6558 23.0829C19.6983 23.0997 19.7783 23.147 19.9322 23.2936L20.6216 22.5691C20.4388 22.3952 20.2469 22.2413 20.0238 22.153C19.7803 22.0567 19.5483 22.0564 19.3212 22.1027L19.5209 23.0825ZM19.9322 23.2936L20.2505 23.5964L20.9398 22.8719L20.6216 22.5691L19.9322 23.2936ZM20.952 23.5843L21.9615 22.5555L21.2477 21.8551L20.2382 22.884L20.952 23.5843ZM21.9615 22.5555C22.246 22.2655 22.4559 22.0536 22.6205 21.8984C22.7895 21.739 22.8856 21.6641 22.9438 21.6293C22.987 21.6035 22.9695 21.6232 22.9265 21.6196C22.9139 21.6185 22.9275 21.6158 23.045 21.6706L23.4679 20.7644C23.3614 20.7147 23.198 20.6389 23.0106 20.6231C22.7929 20.6047 22.6028 20.668 22.4306 20.771C22.2734 20.865 22.1114 21.004 21.9345 21.1708C21.7532 21.3417 21.5295 21.5679 21.2477 21.8551L21.9615 22.5555ZM31.415 23.2946C31.506 23.3497 31.5364 23.3894 31.5481 23.4091C31.5581 23.4261 31.5736 23.4601 31.5736 23.5421H32.5736C32.5736 23.3216 32.5287 23.1026 32.4086 22.8997C32.2902 22.6996 32.1207 22.5529 31.9328 22.4392L31.415 23.2946ZM31.5736 23.5421C31.5736 23.624 31.5581 23.6581 31.5481 23.675C31.5364 23.6947 31.506 23.7344 31.415 23.7895L31.9328 24.645C32.1207 24.5312 32.2902 24.3845 32.4086 24.1844C32.5287 23.9816 32.5736 23.7625 32.5736 23.5421H31.5736ZM31.4149 23.7895C31.411 23.7919 31.4278 23.7856 31.4195 23.7872C31.3821 23.7943 31.2972 23.8039 31.0961 23.8108C30.7011 23.8243 29.9691 23.8253 28.5261 23.8253V24.8253C29.9579 24.8253 30.7134 24.8245 31.1304 24.8102C31.3353 24.8032 31.4876 24.7923 31.6073 24.7694C31.7562 24.7409 31.8504 24.6949 31.9328 24.645L31.4149 23.7895ZM28.5261 23.8253C27.0824 23.8253 26.3505 23.8244 25.9562 23.8108C25.7553 23.8039 25.6714 23.7943 25.6351 23.7873C25.6288 23.7861 25.6476 23.7934 25.6456 23.7922L25.1191 24.6424C25.2016 24.6934 25.2961 24.7404 25.4457 24.7692C25.5653 24.7923 25.7175 24.8032 25.9219 24.8102C26.3382 24.8245 27.0937 24.8253 28.5261 24.8253V23.8253ZM25.6456 23.7922C25.4199 23.6524 25.4732 23.3304 25.7252 23.2671L25.4819 22.2972C24.368 22.5766 24.1461 24.0398 25.1191 24.6423L25.6456 23.7922ZM25.7251 23.2672C25.6869 23.2767 25.6598 23.2778 25.6788 23.2761C25.6857 23.2755 25.6991 23.2746 25.7208 23.2734C25.7636 23.2712 25.8256 23.2689 25.9065 23.2668C26.0675 23.2624 26.2924 23.2587 26.5657 23.2558C27.1116 23.25 27.8437 23.2476 28.6297 23.25L28.6328 22.25C27.8434 22.2476 27.1066 22.25 26.5551 22.2558C26.2796 22.2588 26.0485 22.2626 25.8796 22.2671C25.7955 22.2694 25.724 22.2719 25.6689 22.2748C25.6417 22.2762 25.6151 22.2779 25.5914 22.2799C25.5798 22.281 25.5315 22.2848 25.4821 22.2971L25.7251 23.2672ZM28.6297 23.25C30.016 23.2543 30.7217 23.2575 31.1044 23.2722C31.299 23.2797 31.3816 23.2894 31.4182 23.2966C31.4273 23.2984 31.4116 23.2926 31.4149 23.2946L31.9328 22.4392C31.8501 22.3891 31.7563 22.3438 31.6102 22.3152C31.4916 22.292 31.3421 22.2806 31.1428 22.273C30.7375 22.2574 30.0078 22.2543 28.6328 22.25L28.6297 23.25ZM23.0451 27.4764C23.1839 27.5634 23.2165 27.752 23.1715 27.839L24.06 28.298C24.364 27.7095 24.1171 26.968 23.576 26.629L23.0451 27.4764ZM23.1715 27.839C23.1902 27.8028 23.2042 27.7898 23.177 27.8237C23.1591 27.8461 23.1319 27.8784 23.0945 27.921C23.0201 28.0057 22.9167 28.1185 22.7919 28.2516C22.5429 28.5171 22.218 28.853 21.8902 29.1853C21.5623 29.5176 21.2342 29.8436 20.9789 30.0893C20.8508 30.2126 20.744 30.3128 20.666 30.3827C20.6265 30.4181 20.5986 30.4419 20.5813 30.4558C20.5724 30.4629 20.5708 30.4638 20.5747 30.4611C20.5767 30.4597 20.5835 30.4551 20.5938 30.449C20.6021 30.4442 20.6251 30.4311 20.658 30.4185L21.0152 31.3525C21.0804 31.3276 21.1295 31.2932 21.1434 31.2836C21.1667 31.2676 21.1887 31.2506 21.2073 31.2356C21.2451 31.2053 21.2882 31.1679 21.3333 31.1275C21.4244 31.0459 21.5411 30.9362 21.6724 30.8098C21.936 30.5561 22.2706 30.2236 22.602 29.8876C22.9336 29.5516 23.2647 29.2093 23.5213 28.9357C23.6492 28.7993 23.761 28.6774 23.8459 28.5808C23.888 28.5328 23.9264 28.4878 23.9578 28.4486C23.9799 28.421 24.0269 28.362 24.06 28.2979L23.1715 27.839ZM20.658 30.4185C20.5958 30.4422 20.5746 30.4423 20.5737 30.4423C20.5737 30.4423 20.5738 30.4425 20.5719 30.442C20.5695 30.4414 20.5607 30.4391 20.5441 30.431C20.4536 30.3873 20.3 30.2671 19.9774 29.9456L19.2715 30.6539C19.578 30.9594 19.8439 31.2033 20.109 31.3314C20.2572 31.403 20.4137 31.4438 20.5829 31.4423C20.7459 31.4408 20.8908 31.4001 21.0152 31.3525L20.658 30.4185ZM19.9774 29.9456C19.6505 29.6199 19.4934 29.4462 19.4131 29.3276C19.3572 29.245 19.3563 29.2192 19.3563 29.1654L18.3563 29.1645C18.3561 29.4197 18.4176 29.6408 18.585 29.8881C18.728 30.0994 18.955 30.3386 19.2715 30.654L19.9774 29.9456ZM19.3563 29.1654C19.3564 29.0702 19.3768 29.0228 19.3923 28.9985C19.4073 28.9748 19.439 28.9392 19.519 28.9028L19.1052 27.9924C18.8811 28.0943 18.685 28.2469 18.5483 28.4622C18.4119 28.6768 18.3565 28.919 18.3563 29.1646L19.3563 29.1654ZM19.5191 28.9028C19.5705 28.8794 19.5953 28.8752 19.6027 28.8744C19.6058 28.8741 19.6071 28.8736 19.6158 28.8764C19.6514 28.8882 19.7422 28.9367 19.9364 29.127L20.6364 28.4129C20.4235 28.2041 20.1954 28.0149 19.9298 27.927C19.6257 27.8264 19.3504 27.8809 19.1051 27.9925L19.5191 28.9028ZM19.9363 29.1269L20.2451 29.4296L20.9452 28.7156L20.6364 28.4129L19.9363 29.1269ZM20.9523 29.4225L21.9353 28.4191L21.221 27.7193L20.238 28.7227L20.9523 29.4225ZM21.9353 28.4191C22.2037 28.1452 22.4586 27.8904 22.6526 27.7011C22.7499 27.6061 22.83 27.5294 22.888 27.4755C22.9173 27.4483 22.9383 27.4295 22.9518 27.4179C22.9813 27.3924 22.9558 27.4181 22.9102 27.4435L22.4224 26.5706C22.3624 26.6041 22.3089 26.6518 22.2985 26.6608C22.2719 26.6837 22.241 26.7117 22.2078 26.7425C22.1409 26.8046 22.054 26.8879 21.9541 26.9855C21.7536 27.1811 21.4933 27.4413 21.221 27.7193L21.9353 28.4191ZM22.9103 27.4434C22.8917 27.4539 22.8843 27.4533 22.8951 27.4515C22.9048 27.4498 22.9219 27.4484 22.9448 27.45C22.9673 27.4516 22.9898 27.4558 23.0096 27.4618C23.0297 27.4678 23.0412 27.474 23.045 27.4764L23.5761 26.6291C23.4009 26.5193 23.1986 26.4655 23.0156 26.4525C22.8382 26.4399 22.6173 26.4616 22.4223 26.5706L22.9103 27.4434ZM31.415 28.6961C31.506 28.7512 31.5364 28.7908 31.5481 28.8105C31.5581 28.8275 31.5736 28.8616 31.5736 28.9435H32.5736C32.5736 28.7231 32.5287 28.504 32.4086 28.3012C32.2902 28.1011 32.1207 27.9544 31.9328 27.8406L31.415 28.6961ZM31.5736 28.9435C31.5736 29.0254 31.5581 29.0595 31.5481 29.0765C31.5364 29.0962 31.506 29.1359 31.415 29.1909L31.9328 30.0464C32.1207 29.9327 32.2902 29.7859 32.4086 29.5859C32.5287 29.383 32.5736 29.1639 32.5736 28.9435H31.5736ZM31.4149 29.191C31.411 29.1933 31.4278 29.187 31.4195 29.1886C31.3821 29.1957 31.2972 29.2053 31.0961 29.2122C30.7011 29.2258 29.9691 29.2267 28.5261 29.2267V30.2267C29.9579 30.2267 30.7134 30.2259 31.1304 30.2116C31.3353 30.2046 31.4876 30.1937 31.6073 30.1708C31.7562 30.1423 31.8504 30.0963 31.9328 30.0464L31.4149 29.191ZM28.5261 29.2267C27.0824 29.2267 26.3505 29.2258 25.9562 29.2122C25.7553 29.2053 25.6714 29.1958 25.6351 29.1888C25.6288 29.1875 25.6476 29.1948 25.6456 29.1936L25.1191 30.0438C25.2016 30.0948 25.2961 30.1418 25.4457 30.1707C25.5653 30.1937 25.7175 30.2046 25.9219 30.2116C26.3382 30.226 27.0937 30.2267 28.5261 30.2267V29.2267ZM25.6456 29.1936C25.4199 29.0538 25.4732 28.7318 25.7252 28.6686L25.4819 27.6986C24.368 27.978 24.1461 29.4412 25.1191 30.0438L25.6456 29.1936ZM25.7251 28.6686C25.6869 28.6782 25.6598 28.6792 25.6788 28.6775C25.6857 28.6769 25.6991 28.676 25.7208 28.6749C25.7636 28.6726 25.8256 28.6704 25.9065 28.6682C26.0675 28.6639 26.2924 28.6601 26.5657 28.6572C27.1116 28.6514 27.8437 28.649 28.6297 28.6514L28.6328 27.6514C27.8434 27.649 27.1066 27.6514 26.5551 27.6573C26.2796 27.6602 26.0485 27.664 25.8796 27.6686C25.7955 27.6708 25.724 27.6734 25.6689 27.6762C25.6417 27.6776 25.6151 27.6793 25.5914 27.6814C25.5798 27.6824 25.5315 27.6862 25.4821 27.6986L25.7251 28.6686ZM28.6297 28.6514C30.016 28.6557 30.7217 28.659 31.1044 28.6737C31.299 28.6811 31.3816 28.6909 31.4182 28.698C31.4273 28.6998 31.4116 28.694 31.4149 28.6961L31.9328 27.8406C31.8501 27.7906 31.7563 27.7452 31.6102 27.7166C31.4916 27.6934 31.3421 27.6821 31.1428 27.6744C30.7375 27.6588 30.0078 27.6557 28.6328 27.6514L28.6297 28.6514ZM23.0451 32.8779C23.1839 32.9648 23.2165 33.1534 23.1715 33.2404L24.06 33.6994C24.364 33.1109 24.1171 32.3695 23.576 32.0305L23.0451 32.8779ZM23.1715 33.2404C23.1902 33.2042 23.2042 33.1912 23.177 33.2251C23.1591 33.2475 23.1319 33.2798 23.0945 33.3224C23.0201 33.4071 22.9167 33.5199 22.7919 33.653C22.5429 33.9185 22.218 34.2545 21.8902 34.5867C21.5623 34.9191 21.2342 35.245 20.9789 35.4907C20.8508 35.614 20.744 35.7142 20.666 35.7841C20.6265 35.8195 20.5986 35.8433 20.5813 35.8572C20.5724 35.8644 20.5708 35.8652 20.5747 35.8625C20.5767 35.8611 20.5835 35.8565 20.5938 35.8505C20.6021 35.8456 20.6251 35.8325 20.658 35.8199L21.0152 36.7539C21.0804 36.729 21.1295 36.6947 21.1434 36.6851C21.1667 36.669 21.1887 36.652 21.2073 36.637C21.2451 36.6067 21.2882 36.5693 21.3333 36.5289C21.4244 36.4473 21.5411 36.3376 21.6724 36.2112C21.936 35.9575 22.2706 35.6251 22.602 35.2891C22.9336 34.953 23.2647 34.6107 23.5213 34.3372C23.6492 34.2007 23.761 34.0789 23.8459 33.9823C23.888 33.9342 23.9264 33.8892 23.9578 33.85C23.9799 33.8224 24.0269 33.7634 24.06 33.6994L23.1715 33.2404ZM20.658 35.8199C20.5958 35.8437 20.5746 35.8438 20.5737 35.8438C20.5737 35.8438 20.5738 35.8439 20.5719 35.8434C20.5695 35.8429 20.5607 35.8405 20.5441 35.8324C20.4536 35.7887 20.3 35.6685 19.9774 35.347L19.2715 36.0553C19.578 36.3608 19.8439 36.6048 20.109 36.7328C20.2572 36.8045 20.4137 36.8453 20.5829 36.8437C20.7459 36.8422 20.8908 36.8015 21.0152 36.7539L20.658 35.8199ZM19.9774 35.347C19.6505 35.0213 19.4934 34.8477 19.4131 34.729C19.3572 34.6464 19.3563 34.6207 19.3563 34.5668L18.3563 34.566C18.3561 34.8211 18.4176 35.0423 18.585 35.2896C18.728 35.5008 18.955 35.74 19.2715 36.0554L19.9774 35.347ZM19.3563 34.5668C19.3564 34.4716 19.3768 34.4242 19.3923 34.3999C19.4073 34.3762 19.439 34.3406 19.519 34.3042L19.1052 33.3939C18.8811 33.4957 18.685 33.6483 18.5483 33.8636C18.4119 34.0782 18.3565 34.3204 18.3563 34.566L19.3563 34.5668ZM19.5191 34.3042C19.5705 34.2808 19.5953 34.2766 19.6027 34.2758C19.6058 34.2755 19.6071 34.275 19.6158 34.2779C19.6514 34.2897 19.7422 34.3381 19.9364 34.5284L20.6364 33.8143C20.4235 33.6056 20.1954 33.4163 19.9298 33.3285C19.6257 33.2278 19.3504 33.2823 19.1051 33.3939L19.5191 34.3042ZM19.9363 34.5284L20.2451 34.8311L20.9452 34.117L20.6364 33.8143L19.9363 34.5284ZM20.9523 34.8239L21.9353 33.8205L21.221 33.1207L20.238 34.1241L20.9523 34.8239ZM21.9353 33.8205C22.2037 33.5466 22.4586 33.2919 22.6526 33.1025C22.7498 33.0075 22.83 32.9308 22.888 32.877C22.9173 32.8498 22.9383 32.8309 22.9518 32.8193C22.9813 32.7938 22.9558 32.8195 22.9102 32.845L22.4224 31.972C22.3624 32.0055 22.3089 32.0532 22.2985 32.0622C22.2719 32.0851 22.241 32.1132 22.2078 32.1439C22.1409 32.206 22.054 32.2894 21.9541 32.3869C21.7536 32.5826 21.4933 32.8427 21.221 33.1207L21.9353 33.8205ZM22.9103 32.8449C22.8917 32.8553 22.8843 32.8548 22.8951 32.8529C22.9048 32.8512 22.9219 32.8498 22.9448 32.8514C22.9673 32.853 22.9898 32.8572 23.0096 32.8632C23.0297 32.8693 23.0412 32.8754 23.045 32.8778L23.5761 32.0305C23.4009 31.9207 23.1986 31.8669 23.0156 31.8539C22.8382 31.8414 22.6173 31.863 22.4223 31.9721L22.9103 32.8449ZM31.4623 34.1006C31.5618 34.1643 31.5998 34.2381 31.5998 34.3449H32.5998C32.5998 33.8905 32.3825 33.5024 32.0016 33.2585L31.4623 34.1006ZM31.5998 34.3449C31.5998 34.4518 31.5618 34.5255 31.4623 34.5893L32.0016 35.4314C32.3825 35.1875 32.5998 34.7994 32.5998 34.3449H31.5998ZM31.4623 34.5893C31.4369 34.6055 31.4416 34.6018 31.4502 34.5977C31.4637 34.5913 31.4723 34.5896 31.4677 34.5906C31.4438 34.596 31.3732 34.6063 31.1751 34.6136C30.7885 34.628 30.0528 34.6281 28.5524 34.6281V35.6281C30.0392 35.6281 30.8016 35.6282 31.2121 35.613C31.4126 35.6055 31.5652 35.5937 31.688 35.566C31.8455 35.5305 31.9383 35.4719 32.0016 35.4314L31.4623 34.5893ZM28.5524 34.6281C27.0956 34.6281 26.357 34.6272 25.9594 34.6137C25.7567 34.6068 25.6719 34.5972 25.635 34.5901C25.6284 34.5888 25.6474 34.5961 25.6456 34.595L25.1191 35.4452C25.2019 35.4964 25.2965 35.5434 25.4466 35.5722C25.5665 35.5952 25.7194 35.6061 25.9253 35.6131C26.3448 35.6274 27.1068 35.6281 28.5524 35.6281V34.6281ZM25.6456 34.595C25.4204 34.4555 25.4723 34.1335 25.7258 34.0696L25.4813 33.1C24.3686 33.3805 24.1456 34.8422 25.1191 35.4452L25.6456 34.595ZM25.7256 34.0697C25.6871 34.0794 25.6596 34.0804 25.6788 34.0787C25.6858 34.0781 25.6994 34.0772 25.7213 34.076C25.7645 34.0738 25.827 34.0715 25.9085 34.0693C26.0709 34.065 26.2977 34.0612 26.5734 34.0583C27.1241 34.0525 27.8627 34.0502 28.6559 34.0527L28.6591 33.0527C27.8625 33.0502 27.1192 33.0525 26.5628 33.0584C26.285 33.0613 26.052 33.0651 25.8817 33.0697C25.797 33.072 25.7249 33.0745 25.6695 33.0774C25.6422 33.0788 25.6154 33.0805 25.5916 33.0826C25.5801 33.0836 25.5313 33.0874 25.4815 33.0999L25.7256 34.0697ZM28.6559 34.0527C30.0987 34.0572 30.808 34.0597 31.1825 34.0752C31.3741 34.0831 31.4428 34.0935 31.4661 34.0989C31.4708 34.0999 31.4629 34.0983 31.4505 34.0924C31.4422 34.0885 31.4384 34.0853 31.4623 34.1006L32.0016 33.2585C31.9372 33.2172 31.8451 33.1599 31.6905 33.1243C31.5689 33.0964 31.4189 33.0841 31.2237 33.076C30.8246 33.0595 30.088 33.0571 28.6591 33.0527L28.6559 34.0527ZM18.8132 12.8092L18.6596 12.9671L19.3763 13.6644L19.5299 13.5066L18.8132 12.8092ZM18.5179 13.3158V14.6297H19.5179V13.3158H18.5179ZM18.5179 14.6297V15.9251H19.5179V14.6297H18.5179ZM18.6596 16.2738L18.8132 16.4317L19.5299 15.7343L19.3763 15.5764L18.6596 16.2738ZM18.8132 16.4317L18.9668 16.5895L19.6835 15.8922L19.5299 15.7343L18.8132 16.4317ZM19.3252 16.7409H25.4774V15.7409H19.3252V16.7409ZM25.4774 16.7409C27.1998 16.7409 28.7475 16.7364 29.8744 16.7269C30.4375 16.7221 30.8976 16.7161 31.2224 16.7086C31.3842 16.7049 31.516 16.7008 31.6114 16.6961C31.6583 16.6938 31.702 16.6911 31.7381 16.6877C31.7555 16.686 31.7783 16.6835 31.802 16.6797C31.8137 16.6777 31.8321 16.6744 31.8536 16.6689C31.8666 16.6656 31.9184 16.6527 31.9766 16.6206L31.4947 15.7444C31.5506 15.7137 31.5988 15.7019 31.6068 15.6999C31.6234 15.6956 31.6357 15.6936 31.6399 15.6929C31.6487 15.6914 31.6516 15.6914 31.644 15.6921C31.6302 15.6934 31.604 15.6952 31.5622 15.6973C31.4801 15.7013 31.3587 15.7052 31.1994 15.7089C30.882 15.7162 30.4277 15.7222 29.866 15.7269C28.7431 15.7364 27.1987 15.7409 25.4774 15.7409V16.7409ZM31.9766 12.6202C31.9184 12.5882 31.8666 12.5752 31.8536 12.5719C31.8321 12.5664 31.8137 12.5631 31.802 12.5612C31.7783 12.5573 31.7555 12.5548 31.7381 12.5532C31.702 12.5498 31.6583 12.5471 31.6114 12.5448C31.516 12.5401 31.3842 12.5359 31.2224 12.5322C30.8976 12.5248 30.4375 12.5187 29.8744 12.514C28.7475 12.5044 27.1998 12.5 25.4774 12.5V13.5C27.1987 13.5 28.7431 13.5044 29.866 13.5139C30.4277 13.5187 30.882 13.5247 31.1994 13.532C31.3587 13.5356 31.4801 13.5395 31.5622 13.5436C31.604 13.5456 31.6302 13.5475 31.644 13.5488C31.6516 13.5495 31.6487 13.5494 31.6399 13.548C31.6357 13.5473 31.6234 13.5452 31.6068 13.541C31.5988 13.5389 31.5506 13.5272 31.4947 13.4964L31.9766 12.6202ZM25.4774 12.5H19.3252V13.5H25.4774V12.5ZM18.9668 12.6513L18.8132 12.8092L19.5299 13.5066L19.6835 13.3487L18.9668 12.6513ZM31.9767 16.6206C31.9725 16.6229 31.971 16.6235 31.9736 16.6223C31.9759 16.6212 31.9802 16.6192 31.9872 16.6162L31.5896 15.6986C31.5639 15.7098 31.5294 15.7253 31.4946 15.7444L31.9767 16.6206ZM19.1716 13.1672L19.8883 13.8645L19.8883 13.8645L19.1716 13.1672ZM19.0179 13.3251L18.3012 12.6277L18.0179 12.9188V13.3251H19.0179ZM19.0179 15.9344H18.0179V16.3406L18.3012 16.6317L19.0179 15.9344ZM19.1716 16.0923L19.8883 15.3949L19.8883 15.3949L19.1716 16.0923ZM19.3252 16.2501L18.6085 16.9475L18.9029 17.2501H19.3252V16.2501ZM31.7356 16.1918L32.2176 17.068L32.2177 17.068L31.7356 16.1918ZM31.7356 13.0676L32.2177 12.1915L32.2176 12.1914L31.7356 13.0676ZM19.3252 13.0093V12.0093H18.9029L18.6085 12.3119L19.3252 13.0093ZM16.9379 14.7056L17.2482 15.6562L17.2482 15.6562L16.9379 14.7056ZM15.285 16.5354L14.3047 16.3382L14.3046 16.3383L15.285 16.5354ZM15.2422 27.8632L14.2422 27.8645V27.8645L15.2422 27.8632ZM15.2561 38.9091L14.2561 38.9104L14.2564 39.1353L14.353 39.3385L15.2561 38.9091ZM15.4359 39.2872L14.5327 39.7166L14.5327 39.7166L15.4359 39.2872ZM16.57 40.4529L16.1212 41.3465L16.1212 41.3465L16.57 40.4529ZM16.9379 40.6376L16.4891 41.5313L16.7001 41.6372L16.9362 41.6376L16.9379 40.6376ZM25.3595 40.6518L25.3578 41.6518H25.3578L25.3595 40.6518ZM34.1008 40.5552L34.428 41.5002L34.428 41.5002L34.1008 40.5552ZM35.0576 39.9331L34.3359 39.2409L34.3359 39.2409L35.0576 39.9331ZM35.6709 38.7589L36.6513 38.9562L36.6513 38.956L35.6709 38.7589ZM35.7137 27.43L36.7137 27.4287L35.7137 27.43ZM35.6998 16.3829L36.6998 16.3817L36.6995 16.1555L36.602 15.9515L35.6998 16.3829ZM35.5195 16.006L34.6174 16.4373L34.6174 16.4374L35.5195 16.006ZM34.3755 14.8308L33.9378 15.7299L33.9379 15.7299L34.3755 14.8308ZM33.1641 14.6386L33.1853 13.6388L33.1853 13.6388L33.1641 14.6386ZM32.31 14.6204L32.3313 13.6207L31.31 13.599V14.6204H32.31ZM30.4275 17.8205L30.293 18.8114L30.3599 18.8205H30.4275V17.8205ZM18.687 14.6297L19.6866 14.603L19.6604 13.6251L18.6823 13.6297L18.687 14.6297ZM17.9175 14.6333L17.9222 15.6333L17.9222 15.6333L17.9175 14.6333ZM31.7884 16.1574L31.1729 15.3693L31.1729 15.3693L31.7884 16.1574ZM18.7723 17.8151L17.7726 17.8419L17.7987 18.8151H18.7723V17.8151ZM32.31 17.8205V18.8205H33.31V17.8205H32.31ZM18.4548 12.4698L18.3012 12.6277L19.7347 14.0224L19.8883 13.8645L18.4548 12.4698ZM18.0179 13.3251V14.6297H20.0179V13.3251H18.0179ZM18.0179 14.6297V15.9344H20.0179V14.6297H18.0179ZM18.3012 16.6317L18.4548 16.7896L19.8883 15.3949L19.7347 15.237L18.3012 16.6317ZM18.4548 16.7896L18.6085 16.9475L20.0419 15.5528L19.8883 15.3949L18.4548 16.7896ZM19.3252 17.2501H25.4774V15.2501H19.3252V17.2501ZM25.4774 17.2501C27.2003 17.2501 28.7496 17.2457 29.8786 17.2362C30.4424 17.2314 30.9053 17.2253 31.2339 17.2178C31.397 17.2141 31.5339 17.2098 31.636 17.2048C31.6854 17.2023 31.7379 17.1992 31.7852 17.1947C31.8074 17.1926 31.8431 17.1889 31.8831 17.1823C31.9026 17.1791 31.9365 17.1731 31.977 17.1628C32.0005 17.1568 32.1023 17.1315 32.2176 17.068L31.2537 15.3156C31.3667 15.2534 31.4649 15.2294 31.4835 15.2246C31.5191 15.2155 31.5468 15.2108 31.5589 15.2088C31.5731 15.2064 31.5835 15.2051 31.5883 15.2045C31.5936 15.2039 31.5967 15.2036 31.5969 15.2036C31.597 15.2036 31.5922 15.204 31.581 15.2048C31.5702 15.2055 31.5559 15.2063 31.5376 15.2072C31.4621 15.2109 31.346 15.2147 31.1879 15.2183C30.8742 15.2255 30.4228 15.2315 29.8617 15.2362C28.741 15.2457 27.1981 15.2501 25.4774 15.2501V17.2501ZM32.9905 14.6297C32.9905 14.048 32.9836 13.5995 32.9313 13.2789C32.9035 13.1085 32.8516 12.8923 32.7276 12.6828C32.5869 12.4449 32.3995 12.2915 32.2177 12.1915L31.2536 13.9438C31.1802 13.9034 31.0789 13.8239 31.0063 13.7012C30.9504 13.6068 30.9486 13.5469 30.9574 13.601C30.9656 13.6512 30.9754 13.7484 30.9818 13.9282C30.9881 14.1034 30.9905 14.3301 30.9905 14.6297H32.9905ZM32.2176 12.1914C32.1023 12.128 32.0005 12.1026 31.977 12.0967C31.9365 12.0863 31.9026 12.0803 31.8831 12.0771C31.8431 12.0705 31.8074 12.0668 31.7852 12.0647C31.7379 12.0602 31.6854 12.0571 31.636 12.0547C31.5339 12.0496 31.397 12.0454 31.2339 12.0416C30.9053 12.0341 30.4424 12.028 29.8786 12.0233C28.7496 12.0137 27.2003 12.0093 25.4774 12.0093V14.0093C27.1981 14.0093 28.741 14.0137 29.8617 14.0232C30.4228 14.0279 30.8742 14.0339 31.1879 14.0411C31.346 14.0447 31.4621 14.0485 31.5376 14.0522C31.5559 14.0531 31.5702 14.054 31.581 14.0547C31.5922 14.0554 31.597 14.0558 31.5969 14.0558C31.5967 14.0558 31.5936 14.0555 31.5883 14.0549C31.5835 14.0543 31.5731 14.053 31.5589 14.0507C31.5468 14.0487 31.5191 14.0439 31.4835 14.0348C31.4649 14.0301 31.3667 14.006 31.2537 13.9438L32.2176 12.1914ZM25.4774 12.0093H19.3252V14.0093H25.4774V12.0093ZM18.6085 12.3119L18.4548 12.4698L19.8883 13.8645L20.0419 13.7066L18.6085 12.3119ZM16.6275 13.7549C15.4541 14.138 14.5482 15.1274 14.3047 16.3382L16.2654 16.7326C16.362 16.2522 16.7376 15.8229 17.2482 15.6562L16.6275 13.7549ZM14.3046 16.3383C14.2863 16.4294 14.2813 16.523 14.2797 16.5497C14.2766 16.6006 14.2741 16.6613 14.2719 16.7287C14.2675 16.8645 14.2637 17.0504 14.2603 17.2856C14.2536 17.7572 14.2486 18.4453 14.2451 19.3658C14.2381 21.2078 14.2374 23.9925 14.2422 27.8645L16.2422 27.862C16.2374 23.9904 16.2381 21.21 16.2451 19.3734C16.2485 18.4546 16.2536 17.7749 16.2601 17.314C16.2634 17.0829 16.267 16.9114 16.2708 16.7939C16.2728 16.7346 16.2746 16.6948 16.2761 16.6705C16.279 16.6221 16.2788 16.6661 16.2654 16.7325L14.3046 16.3383ZM14.2422 27.8645L14.2561 38.9104L16.2561 38.9079L16.2422 27.862L14.2422 27.8645ZM14.353 39.3385L14.5327 39.7166L16.339 38.8579L16.1593 38.4798L14.353 39.3385ZM14.5327 39.7166C14.8617 40.4086 15.4373 41.0031 16.1212 41.3465L17.0187 39.5592C16.7399 39.4192 16.4804 39.1553 16.339 38.8579L14.5327 39.7166ZM16.1212 41.3465L16.4891 41.5313L17.3866 39.7439L17.0187 39.5592L16.1212 41.3465ZM16.9362 41.6376L25.3578 41.6518L25.3612 39.6518L16.9395 39.6376L16.9362 41.6376ZM25.3578 41.6518C29.5373 41.6588 31.6523 41.6622 32.7602 41.6499C33.8173 41.6383 34.0858 41.6187 34.428 41.5002L33.7737 39.6102C33.7655 39.6131 33.7839 39.6146 33.6934 39.6223C33.5543 39.634 33.2907 39.644 32.7381 39.6501C31.6467 39.6621 29.55 39.6588 25.3612 39.6518L25.3578 41.6518ZM34.428 41.5002C34.991 41.3053 35.3626 41.0598 35.7793 40.6254L34.3359 39.2409C34.1255 39.4603 34.0201 39.5249 33.7737 39.6103L34.428 41.5002ZM35.7793 40.6254C36.1976 40.1893 36.5321 39.5485 36.6513 38.9562L34.6905 38.5617C34.6462 38.7823 34.4908 39.0794 34.3359 39.2409L35.7793 40.6254ZM36.6513 38.956C36.6696 38.8649 36.6746 38.7713 36.6762 38.7446C36.6793 38.6938 36.6818 38.633 36.684 38.5657C36.6884 38.4298 36.6923 38.2439 36.6956 38.0087C36.7023 37.537 36.7074 36.8489 36.7108 35.9283C36.7178 34.0861 36.7185 31.3011 36.7137 27.4287L34.7137 27.4312C34.7185 31.3032 34.7178 34.0839 34.7108 35.9207C34.7074 36.8396 34.7024 37.5193 34.6958 37.9802C34.6925 38.2113 34.6889 38.3829 34.6851 38.5004C34.6831 38.5597 34.6813 38.5996 34.6799 38.6238C34.6769 38.6722 34.6772 38.6282 34.6905 38.5618L36.6513 38.956ZM36.7137 27.4287L36.6998 16.3817L34.6998 16.3842L34.7137 27.4312L36.7137 27.4287ZM36.602 15.9515L36.4217 15.5745L34.6174 16.4374L34.7977 16.8143L36.602 15.9515ZM36.4217 15.5746C36.0919 14.8848 35.4984 14.2652 34.8132 13.9316L33.9379 15.7299C34.1917 15.8534 34.4703 16.1297 34.6174 16.4373L36.4217 15.5746ZM34.8132 13.9316C34.6343 13.8445 34.4235 13.7397 34.1088 13.6898C33.8695 13.6518 33.5684 13.6469 33.1853 13.6388L33.1428 15.6384C33.355 15.6429 33.501 15.6462 33.6127 15.6512C33.7254 15.6562 33.7738 15.6617 33.7954 15.6651C33.8048 15.6666 33.8002 15.6659 33.8004 15.6659C33.8165 15.6721 33.844 15.6842 33.9378 15.7299L34.8132 13.9316ZM33.1853 13.6388L32.3313 13.6207L32.2888 15.6202L33.1428 15.6384L33.1853 13.6388ZM30.562 16.8296C30.4263 16.8112 30.1581 16.8055 29.9024 16.8014C29.6072 16.7966 29.2156 16.7935 28.7618 16.7917C27.8534 16.7881 26.6837 16.7895 25.5127 16.793C23.1622 16.7999 20.8203 16.8151 20.5207 16.8151V18.8151C20.8202 18.8151 23.1875 18.7999 25.5186 18.7929C26.6884 18.7895 27.8525 18.7881 28.7538 18.7917C29.2049 18.7935 29.587 18.7965 29.87 18.8011C30.1924 18.8063 30.3066 18.8133 30.293 18.8114L30.562 16.8296ZM18.6823 13.6297L17.9128 13.6333L17.9222 15.6333L18.6917 15.6297L18.6823 13.6297ZM17.9129 13.6333C17.6625 13.6345 17.4258 13.6427 17.2269 13.6573C17.0681 13.6691 16.8231 13.6911 16.6275 13.7549L17.2482 15.6562C17.1938 15.6739 17.171 15.6739 17.2172 15.6674C17.2505 15.6628 17.3024 15.6572 17.374 15.6519C17.5163 15.6414 17.7057 15.6343 17.9222 15.6333L17.9129 13.6333ZM30.9905 14.6297C30.9905 15.1952 30.9811 15.4777 30.9615 15.63C30.9524 15.7013 30.9477 15.6826 30.9719 15.6259C31.0054 15.5471 31.0708 15.449 31.1729 15.3693L32.4039 16.9456C32.8088 16.6293 32.9065 16.1863 32.9452 15.8851C32.9841 15.5828 32.9905 15.168 32.9905 14.6297H30.9905ZM32.2177 17.068C32.275 17.0364 32.3386 16.9965 32.4039 16.9456L31.1729 15.3693C31.2056 15.3437 31.2341 15.3264 31.2536 15.3156L32.2177 17.068ZM17.6873 14.6565L17.7726 17.8419L19.7719 17.7883L19.6866 14.603L17.6873 14.6565ZM18.7723 18.8151H20.5207V16.8151H18.7723V18.8151ZM31.31 14.6204V17.8205H33.31V14.6204H31.31ZM32.31 16.8205H30.4275V18.8205H32.31V16.8205Z" fill="#555555" mask="url(#path-3-inside-1_208_445)"/>
<path d="M38.7085 33.4356L42.0895 34.0687L43.9375 23.4209C44.031 22.8819 43.674 22.3677 43.1362 22.267L41.7212 22.0021C41.1732 21.8995 40.6472 22.2647 40.5519 22.814L38.7085 33.4356Z" fill="#FE922D"/>
<path d="M38.7085 33.4356L38.9736 35.6366C39.0856 36.5663 40.2997 36.8458 40.807 36.0587L42.0895 34.0687L38.7085 33.4356Z" fill="#FE922D"/>
</g>
</svg>
