<svg width="53" height="53" viewBox="0 0 53 53" fill="none" xmlns="http://www.w3.org/2000/svg">
<rect width="53" height="53" rx="26.5" fill="#C4C4C4"/>
<rect width="53" height="53" rx="26.5" fill="white"/>
<path fill-rule="evenodd" clip-rule="evenodd" d="M12.5932 18.486C12.7776 18.3576 13.1381 18.197 13.3943 18.129C13.6504 18.0612 13.9094 18.0031 13.9698 18C14.0303 17.997 15.5499 18.2432 17.3468 18.5473C20.2785 19.0434 20.6652 19.1276 21.1125 19.3667C21.3868 19.5133 21.7357 19.7715 21.888 19.9405C22.0402 20.1095 22.73 21.1452 23.4206 22.2419C24.1113 23.3386 24.7386 24.2963 24.8146 24.37C24.8906 24.4438 26.209 24.8961 27.7444 25.3751C29.2797 25.8541 30.6372 26.3185 30.7612 26.407C31.0306 26.5994 31.2621 27.0564 31.2594 27.3908C31.2584 27.5238 31.0543 28.3887 30.8058 29.3127C30.3326 31.0724 30.2298 31.2811 29.7003 31.5573C29.5135 31.6548 29.3034 31.6744 28.8536 31.6363L28.2553 31.5857L28.0619 32.0009C27.8 32.5632 27.2794 33.0804 26.7019 33.3519C26.3015 33.5401 26.1051 33.577 25.5033 33.577C24.9048 33.577 24.7043 33.5397 24.3139 33.3561C23.3635 32.9091 22.8519 32.2466 22.6222 31.1657L22.487 30.5296L17.9949 29.7589L13.5028 28.9882L13.2283 29.5193C12.9085 30.1377 12.5234 30.5051 11.8901 30.7958C10.8255 31.2846 9.63217 31.0827 8.751 30.2646C8.18552 29.7395 7.89482 29.175 7.81412 28.445L7.76315 27.9837L7.18987 27.8437C6.53243 27.6831 6.1568 27.3846 6.02919 26.9212C5.97178 26.7126 5.99794 26.0349 6.11759 24.6351C6.31481 22.3282 6.3806 22.117 6.9941 21.8192C7.37007 21.6366 7.38489 21.6361 8.4979 21.7656C9.12079 21.838 9.65418 21.864 9.69441 21.8237C9.7342 21.7837 10.3273 21.069 11.0123 20.2353C11.6973 19.4017 12.4087 18.6145 12.5932 18.486ZM33.176 20.2727C33.3468 19.9362 33.7578 19.6814 34.2522 19.6054C34.4935 19.5683 36.6152 19.5442 38.9671 19.5517C43.1154 19.565 43.2523 19.5706 43.5395 19.7398C43.979 19.9988 44.1259 20.2741 44.7645 22.0361C45.3067 23.532 45.4267 23.9509 45.6855 24.0714C45.8186 24.1333 45.9883 24.1164 46.271 24.1264L46.9692 24.151L46.9938 24.9025C47.0229 25.7914 46.9673 25.8919 46.4469 25.8919H46.0724L46.1398 26.2103C46.1768 26.3855 46.2071 27.478 46.2071 28.638C46.2071 30.723 46.2049 30.7491 46.0166 30.902C45.8381 31.0468 45.8261 31.1212 45.8261 32.0786C45.8261 33.0364 45.8133 33.1154 45.6217 33.3387C45.4204 33.5733 45.4029 33.577 44.4712 33.577C43.5395 33.577 43.522 33.5733 43.3207 33.3387C43.1284 33.1144 43.1163 33.0383 43.1163 32.0437V30.987H38.6351H34.1539L34.126 32.0888C34.0898 33.5193 34.0555 33.5636 32.95 33.6068C31.5126 33.6629 31.4307 33.5829 31.4307 32.1215C31.4307 31.3187 31.4017 31.0244 31.3155 30.9539C31.2199 30.8757 31.2703 30.5986 31.6105 29.3311C32.0955 27.5244 32.1259 27.0653 31.8031 26.4156C31.5534 25.9132 31.2021 25.6098 30.61 25.3849L30.2029 25.2304L30.1771 24.79C30.1405 24.1671 30.2155 24.1086 31.051 24.1086C31.5335 24.1086 31.7638 24.0755 31.7912 24.0024C31.8131 23.9441 32.1078 23.132 32.4459 22.1979C32.7842 21.2638 33.1126 20.3975 33.176 20.2727ZM16.1031 20.2387C16.1039 20.081 16.0003 20.0438 15.0952 19.8778C14.205 19.7146 13.9894 19.6712 13.8133 19.7358C13.7488 19.7595 13.6896 19.7976 13.6045 19.8496C13.3933 19.9788 11.709 21.9405 11.6363 22.1418C11.6242 22.1754 12.5293 22.3584 13.6474 22.5485C14.7657 22.7387 15.6809 22.8904 15.6814 22.8857C15.6818 22.8811 15.7768 22.3231 15.8923 21.6459C16.0078 20.9687 16.1027 20.3355 16.1031 20.2387ZM20.3288 20.8352C20.2073 20.7719 19.6505 20.6417 19.0915 20.5461C18.5325 20.4504 18.0153 20.3721 17.9423 20.3721C17.8501 20.3721 17.7817 20.5085 17.7185 20.818C17.5454 21.6656 17.2902 23.1186 17.311 23.1384C17.3224 23.1492 18.4178 23.3343 19.7451 23.5495C21.0725 23.7648 22.2636 23.9627 22.3922 23.9892C22.6106 24.0343 22.5697 23.9499 21.7657 22.6931C20.8249 21.2227 20.6583 21.0072 20.3288 20.8352ZM43.3545 22.9166C42.7726 21.3097 42.7351 21.2341 42.4972 21.1863C42.2238 21.1315 35.0482 21.1385 34.7755 21.1939C34.64 21.2214 34.4897 21.5542 34.0236 22.8595C33.7032 23.7567 33.4228 24.5385 33.4006 24.5968C33.3686 24.6811 34.4554 24.703 38.6617 24.703C41.5775 24.703 43.9631 24.6791 43.9631 24.65C43.9631 24.6209 43.6893 23.8408 43.3545 22.9166ZM12.2088 28.0557C12.2088 27.4294 11.8817 26.9641 11.2577 26.7027C10.8184 26.5186 10.4339 26.5388 9.99925 26.7686C8.9693 27.3133 8.88886 28.6831 9.84513 29.3931C10.3262 29.7504 11.19 29.6896 11.6727 29.2645C12.0471 28.9349 12.2088 28.5704 12.2088 28.0557ZM35.5738 28.7252C35.8345 28.3928 35.8178 27.736 35.5414 27.459C35.3438 27.2607 35.2837 27.2506 34.3136 27.2506C33.4109 27.2506 33.2744 27.2698 33.1264 27.4183C32.9126 27.6327 32.8365 27.9416 32.8997 28.3378C32.9853 28.8744 33.1628 28.9489 34.3554 28.9489C35.3812 28.9489 35.4012 28.9453 35.5738 28.7252ZM44.211 28.7252C44.4717 28.3928 44.4549 27.736 44.1786 27.459C43.9809 27.2607 43.9211 27.2506 42.947 27.2506C41.9729 27.2506 41.9131 27.2607 41.7153 27.459C41.439 27.736 41.4223 28.3928 41.683 28.7252C41.8563 28.9461 41.8719 28.9489 42.947 28.9489C44.0221 28.9489 44.0376 28.9461 44.211 28.7252ZM26.9904 30.2634C26.9221 29.8985 26.492 29.3889 26.1212 29.2335C25.4289 28.9434 24.5503 29.2177 24.1885 29.8368C23.7863 30.525 23.9545 31.3548 24.6011 31.8726C24.8859 32.1006 24.9922 32.1332 25.448 32.1321C25.8416 32.1311 26.0461 32.0832 26.2825 31.9367C26.822 31.6023 27.1124 30.9158 26.9904 30.2634Z" fill="#505050"/>
<path d="M27.7953 18.8791C27.7405 18.9453 27.6208 19.318 27.5294 19.7071C27.438 20.0962 27.3469 20.46 27.327 20.5156C27.3008 20.5887 27.1111 20.561 26.6416 20.4158C26.2846 20.3053 25.941 20.2347 25.8781 20.2589C25.6274 20.3553 25.6627 20.6305 26.0056 21.2533C26.195 21.5975 26.35 21.8986 26.35 21.9225C26.35 21.9464 26.1433 22.0501 25.8906 22.1529C25.0397 22.4992 25.1609 22.7379 26.4909 23.3361C27.5474 23.8112 27.7472 23.8245 27.7472 23.42C27.7472 23.2539 27.6409 23.1633 27.1625 22.9227L26.5777 22.6283L26.8482 22.5177C26.997 22.4568 27.1398 22.3518 27.1657 22.2842C27.1916 22.2166 27.0963 21.9457 26.954 21.6823C26.7051 21.2214 26.7024 21.2054 26.8825 21.2592C26.9855 21.2899 27.2089 21.3367 27.379 21.3632C27.7354 21.4186 27.8168 21.3228 27.9141 20.7335C27.9923 20.2604 28.0729 20.2266 28.2083 20.6102C28.4207 21.2117 28.5704 21.2614 29.157 20.9251C29.3597 20.809 29.5507 20.7134 29.5814 20.7128C29.6123 20.7122 29.5834 20.9442 29.5173 21.2284C29.3819 21.8106 29.401 21.8743 29.7569 22.0243L30.0103 22.1311L29.4927 22.4953C28.9831 22.8537 28.9245 22.9436 29.0265 23.21C29.125 23.4675 29.493 23.3414 30.3751 22.748C31.4904 21.9976 31.5393 21.7827 30.6464 21.5572C30.4258 21.5015 30.2452 21.419 30.2452 21.374C30.2452 21.3289 30.3231 20.986 30.4184 20.6119C30.6765 19.5981 30.4697 19.4573 29.5118 19.9946C29.2157 20.1605 28.9426 20.2771 28.9047 20.2537C28.8668 20.2302 28.73 19.9404 28.6007 19.6098C28.2826 18.7966 28.0433 18.5795 27.7953 18.8791Z" fill="#555555"/>
<path fill-rule="evenodd" clip-rule="evenodd" d="M13.3943 18.129C13.1381 18.197 12.7776 18.3576 12.5932 18.486C12.4087 18.6145 11.6973 19.4017 11.0123 20.2353C10.3273 21.069 9.7342 21.7837 9.6944 21.8237C9.65418 21.864 9.12079 21.838 8.4979 21.7656C7.38489 21.6361 7.37007 21.6366 6.9941 21.8192C6.3806 22.117 6.31481 22.3282 6.11759 24.6351C5.99794 26.0349 5.97178 26.7126 6.02919 26.9212C6.1568 27.3846 6.53243 27.6831 7.18987 27.8437L7.76315 27.9837L7.81412 28.445C7.89482 29.175 8.18552 29.7395 8.751 30.2646C9.63217 31.0827 10.8255 31.2846 11.8901 30.7958C12.5234 30.5051 12.9085 30.1377 13.2283 29.5193L13.5028 28.9882L17.9949 29.7589L22.487 30.5296L22.6222 31.1657C22.8519 32.2466 23.3635 32.9091 24.3139 33.3561C24.7043 33.5397 24.9048 33.577 25.5033 33.577C26.1051 33.577 26.3015 33.5401 26.7019 33.3519C27.2794 33.0804 27.8 32.5632 28.0619 32.0009L28.2553 31.5857L28.8536 31.6363C29.3034 31.6744 29.5135 31.6548 29.7003 31.5573C30.2298 31.2811 30.3326 31.0724 30.8058 29.3127C31.0543 28.3887 31.2584 27.5238 31.2594 27.3908C31.2621 27.0564 31.0306 26.5994 30.7612 26.407C30.6372 26.3185 29.2797 25.8541 27.7444 25.3751C26.209 24.8961 24.8906 24.4438 24.8146 24.37C24.7386 24.2963 24.1113 23.3386 23.4206 22.2419C22.73 21.1452 22.0402 20.1095 21.888 19.9405C21.7357 19.7715 21.3868 19.5133 21.1125 19.3667C20.6652 19.1276 20.2785 19.0434 17.3468 18.5473C15.5499 18.2432 14.0303 17.997 13.9698 18C13.9094 18.0031 13.6504 18.0612 13.3943 18.129ZM15.0952 19.8778C16.0003 20.0438 16.1039 20.081 16.1031 20.2387C16.1027 20.3355 16.0078 20.9687 15.8923 21.6459C15.7768 22.3231 15.6818 22.8811 15.6814 22.8857C15.6809 22.8904 14.7657 22.7387 13.6474 22.5485C12.5293 22.3584 11.6242 22.1754 11.6363 22.1418C11.709 21.9405 13.3933 19.9788 13.6045 19.8496C13.6132 19.8443 13.6216 19.8392 13.6297 19.8342C13.7017 19.79 13.7554 19.7571 13.8133 19.7358C13.9828 19.6736 14.1891 19.7115 14.999 19.8602C15.0302 19.8659 15.0622 19.8718 15.0952 19.8778ZM19.0915 20.5461C19.6505 20.6417 20.2073 20.7719 20.3288 20.8352C20.6583 21.0072 20.8249 21.2227 21.7657 22.6931C22.5697 23.9499 22.6106 24.0343 22.3922 23.9892C22.2636 23.9627 21.0725 23.7648 19.7451 23.5495C18.4178 23.3343 17.3224 23.1492 17.311 23.1384C17.2902 23.1186 17.5454 21.6656 17.7185 20.818C17.7817 20.5085 17.8501 20.3721 17.9423 20.3721C18.0153 20.3721 18.5325 20.4504 19.0915 20.5461ZM11.2577 26.7027C11.8817 26.9641 12.2088 27.4294 12.2088 28.0557C12.2088 28.5704 12.0471 28.9349 11.6727 29.2645C11.19 29.6896 10.3262 29.7504 9.84513 29.3931C8.88886 28.6831 8.9693 27.3133 9.99925 26.7686C10.4339 26.5388 10.8184 26.5186 11.2577 26.7027ZM26.1212 29.2335C26.492 29.3889 26.9221 29.8985 26.9904 30.2634C27.1124 30.9158 26.822 31.6023 26.2825 31.9367C26.0461 32.0832 25.8416 32.1311 25.448 32.1321C24.9922 32.1332 24.8859 32.1006 24.6011 31.8726C23.9545 31.3548 23.7863 30.525 24.1885 29.8368C24.5503 29.2177 25.4289 28.9434 26.1212 29.2335Z" fill="#FE922D"/>
<path fill-rule="evenodd" clip-rule="evenodd" d="M13.3943 18.129C13.1381 18.197 12.7776 18.3576 12.5932 18.486C12.4087 18.6145 11.6973 19.4017 11.0123 20.2353C10.3273 21.069 9.7342 21.7837 9.6944 21.8237C9.65418 21.864 9.12079 21.838 8.4979 21.7656C7.38489 21.6361 7.37007 21.6366 6.9941 21.8192C6.3806 22.117 6.31481 22.3282 6.11759 24.6351C5.99794 26.0349 5.97178 26.7126 6.02919 26.9212C6.1568 27.3846 6.53243 27.6831 7.18987 27.8437L7.76315 27.9837L7.81412 28.445C7.89482 29.175 8.18552 29.7395 8.751 30.2646C9.63217 31.0827 10.8255 31.2846 11.8901 30.7958C12.5234 30.5051 12.9085 30.1377 13.2283 29.5193L13.5028 28.9882L17.9949 29.7589L22.487 30.5296L22.6222 31.1657C22.8519 32.2466 23.3635 32.9091 24.3139 33.3561C24.7043 33.5397 24.9048 33.577 25.5033 33.577C26.1051 33.577 26.3015 33.5401 26.7019 33.3519C27.2794 33.0804 27.8 32.5632 28.0619 32.0009L28.2553 31.5857L28.8536 31.6363C29.3034 31.6744 29.5135 31.6548 29.7003 31.5573C30.2298 31.2811 30.3326 31.0724 30.8058 29.3127C31.0543 28.3887 31.2584 27.5238 31.2594 27.3908C31.2621 27.0564 31.0306 26.5994 30.7612 26.407C30.6372 26.3185 29.2797 25.8541 27.7444 25.3751C26.209 24.8961 24.8906 24.4438 24.8146 24.37C24.7386 24.2963 24.1113 23.3386 23.4206 22.2419C22.73 21.1452 22.0402 20.1095 21.888 19.9405C21.7357 19.7715 21.3868 19.5133 21.1125 19.3667C20.6652 19.1276 20.2785 19.0434 17.3468 18.5473C15.5499 18.2432 14.0303 17.997 13.9698 18C13.9094 18.0031 13.6504 18.0612 13.3943 18.129ZM15.0952 19.8778C16.0003 20.0438 16.1039 20.081 16.1031 20.2387C16.1027 20.3355 16.0078 20.9687 15.8923 21.6459C15.7768 22.3231 15.6818 22.8811 15.6814 22.8857C15.6809 22.8904 14.7657 22.7387 13.6474 22.5485C12.5293 22.3584 11.6242 22.1754 11.6363 22.1418C11.709 21.9405 13.3933 19.9788 13.6045 19.8496C13.6132 19.8443 13.6216 19.8392 13.6297 19.8342C13.7017 19.79 13.7554 19.7571 13.8133 19.7358C13.9828 19.6736 14.1891 19.7115 14.999 19.8602C15.0302 19.8659 15.0622 19.8718 15.0952 19.8778ZM19.0915 20.5461C19.6505 20.6417 20.2073 20.7719 20.3288 20.8352C20.6583 21.0072 20.8249 21.2227 21.7657 22.6931C22.5697 23.9499 22.6106 24.0343 22.3922 23.9892C22.2636 23.9627 21.0725 23.7648 19.7451 23.5495C18.4178 23.3343 17.3224 23.1492 17.311 23.1384C17.2902 23.1186 17.5454 21.6656 17.7185 20.818C17.7817 20.5085 17.8501 20.3721 17.9423 20.3721C18.0153 20.3721 18.5325 20.4504 19.0915 20.5461ZM11.2577 26.7027C11.8817 26.9641 12.2088 27.4294 12.2088 28.0557C12.2088 28.5704 12.0471 28.9349 11.6727 29.2645C11.19 29.6896 10.3262 29.7504 9.84513 29.3931C8.88886 28.6831 8.9693 27.3133 9.99925 26.7686C10.4339 26.5388 10.8184 26.5186 11.2577 26.7027ZM26.1212 29.2335C26.492 29.3889 26.9221 29.8985 26.9904 30.2634C27.1124 30.9158 26.822 31.6023 26.2825 31.9367C26.0461 32.0832 25.8416 32.1311 25.448 32.1321C24.9922 32.1332 24.8859 32.1006 24.6011 31.8726C23.9545 31.3548 23.7863 30.525 24.1885 29.8368C24.5503 29.2177 25.4289 28.9434 26.1212 29.2335Z" fill="#FE922D"/>
</svg>
