<svg width="53" height="53" viewBox="0 0 53 53" fill="none" xmlns="http://www.w3.org/2000/svg">
<rect width="53" height="53" rx="26.5" fill="#C4C4C4"/>
<rect width="53" height="53" rx="26.5" fill="white"/>
<path d="M37.9999 21.3864C37.9999 21.1034 37.8811 20.8585 37.6435 20.6517C37.4059 20.445 37.1245 20.3416 36.7993 20.3416H34.3982C34.073 20.3416 33.7916 20.445 33.554 20.6517C33.3164 20.8585 33.1976 21.1034 33.1976 21.3864V40.4553C33.1976 40.7383 33.3164 40.9832 33.554 41.19C33.7916 41.3967 34.073 41.5001 34.3982 41.5001H36.7993C37.1245 41.5001 37.4059 41.3967 37.6435 41.19C37.8811 40.9832 37.9999 40.7383 37.9999 40.4553V21.3864Z" fill="#505050"/>
<path d="M28.3952 27.9169C28.3952 27.6339 28.2764 27.389 28.0388 27.1822C27.8011 26.9754 27.5198 26.872 27.1946 26.872H24.7934C24.4683 26.872 24.1869 26.9754 23.9492 27.1822C23.7116 27.389 23.5928 27.6339 23.5928 27.9169V40.4553C23.5928 40.7383 23.7116 40.9832 23.9492 41.19C24.1869 41.3967 24.4683 41.5001 24.7934 41.5001H27.1946C27.5198 41.5001 27.8011 41.3967 28.0388 41.19C28.2764 40.9832 28.3952 40.7383 28.3952 40.4553V27.9169Z" fill="#505050"/>
<path d="M18.7904 32.3575C18.7904 32.0746 18.6716 31.8297 18.434 31.6229C18.1964 31.4161 17.915 31.3127 17.5899 31.3127H15.1887C14.8635 31.3127 14.5821 31.4161 14.3445 31.6229C14.1069 31.8297 13.9881 32.0746 13.9881 32.3575V40.4553C13.9881 40.7383 14.1069 40.9832 14.3445 41.19C14.5821 41.3967 14.8635 41.5001 15.1887 41.5001H17.5899C17.915 41.5001 18.1964 41.3967 18.434 41.19C18.6716 40.9832 18.7904 40.7383 18.7904 40.4553V32.3575Z" fill="#505050"/>
<path d="M31.2041 13.5947L26.4511 20.1276L19.7593 15.633L13.1975 24.3835L15.6512 26.0315L20.4042 19.4986L27.0961 23.9932L33.6578 15.2427L31.2041 13.5947Z" fill="#FE922D"/>
<path d="M35.9305 17.5863L28.1233 12.3427L34.8556 11.1436L35.9305 17.5863Z" fill="#FE922D"/>
</svg>
