<svg width="28" height="25" viewBox="0 0 28 25" fill="none" xmlns="http://www.w3.org/2000/svg">
<g clip-path="url(#clip0_1098_29)">
<path d="M25.1725 0.560394H14.7045C13.776 0.560394 13.0233 1.31307 13.0233 2.24155V12.7095C13.0233 13.638 13.776 14.3907 14.7045 14.3907H25.1725C26.101 14.3907 26.8536 13.638 26.8536 12.7095V2.24155C26.8536 1.31307 26.101 0.560394 25.1725 0.560394Z" fill="white" stroke="#02528C"/>
<path d="M18.4703 9.53774L17.697 12.1043H15.9822L18.885 3.04849H21.0032L23.9396 12.1043H22.1576L21.2946 9.53774H18.4703ZM21.0705 8.28248L20.3532 6.04094C20.1851 5.49177 20.0282 4.92018 19.8937 4.34858C19.7592 4.87535 19.6135 5.46935 19.4678 6.04094L18.7617 8.28248H21.0705Z" fill="#02528C"/>
<path d="M12.7095 10.1093H2.24155C1.31307 10.1093 0.560394 10.862 0.560394 11.7905V22.2585C0.560394 23.187 1.31307 23.9396 2.24155 23.9396H12.7095C13.638 23.9396 14.3907 23.187 14.3907 22.2585V11.7905C14.3907 10.862 13.638 10.1093 12.7095 10.1093Z" fill="#02528C" stroke="#02528C"/>
<path d="M8.89891 13.6398H10.2662V20.9696H8.89891V19.2324C8.7 19.4875 8.47037 19.7171 8.21524 19.9161C7.93199 20.1509 7.6238 20.3538 7.29621 20.5213C6.94166 20.709 6.5652 20.8521 6.17544 20.9472C5.76297 21.0609 5.33683 21.1175 4.90897 21.1153C4.62845 21.1089 4.34983 21.0675 4.0796 20.992C3.78779 20.9219 3.51076 20.8004 3.26144 20.6333C3.01271 20.4669 2.80252 20.249 2.64502 19.9945C2.47539 19.7104 2.38988 19.3839 2.39845 19.0531C2.38597 18.748 2.46819 18.4466 2.63381 18.1901C2.79617 17.9548 3.00619 17.7562 3.25023 17.6073C3.52153 17.4432 3.81118 17.3115 4.11323 17.215L5.06588 16.9236L5.51419 16.8003L5.96249 16.677C6.10022 16.6335 6.23499 16.581 6.36597 16.5201C6.49158 16.463 6.60557 16.3832 6.7022 16.2848C6.79556 16.1905 6.87146 16.0805 6.92635 15.9597C6.9832 15.8095 7.00986 15.6496 7.00481 15.489C7.02038 15.2364 6.96609 14.9843 6.8479 14.7605C6.80036 14.6993 6.73905 14.6501 6.66894 14.617C6.59884 14.5839 6.52192 14.5678 6.44442 14.57C6.35356 14.5392 6.2551 14.5392 6.16423 14.57C6.07758 14.6342 6.00825 14.7189 5.96249 14.8166C5.9063 14.9304 5.86487 15.0509 5.83921 15.1752C5.82207 15.3241 5.82207 15.4746 5.83921 15.6235V16.2624H4.58395V15.6908C4.59591 15.5453 4.59591 15.3991 4.58395 15.2537C4.56619 15.1157 4.53234 14.9803 4.48308 14.8502C4.43715 14.7431 4.36828 14.6475 4.28134 14.57C4.21237 14.5461 4.13736 14.5461 4.0684 14.57C4.00029 14.5742 3.9342 14.5948 3.87568 14.6299C3.81717 14.665 3.76795 14.7136 3.73216 14.7717C3.62063 14.9324 3.56546 15.1255 3.57526 15.3209C3.55601 15.4397 3.55601 15.5608 3.57526 15.6796C3.59518 15.7795 3.62522 15.8771 3.66492 15.971C3.66492 16.0606 3.75458 16.1279 3.7882 16.1839L3.88907 16.3296L3.03729 17.0021C2.94623 16.8968 2.86378 16.7843 2.79072 16.6658C2.70298 16.543 2.62788 16.4115 2.56657 16.2736C2.50464 16.1288 2.45588 15.9788 2.42087 15.8253C2.37508 15.6534 2.35246 15.4763 2.35362 15.2985C2.35533 15.0964 2.38939 14.8958 2.45449 14.7045C2.52143 14.4978 2.62382 14.3044 2.7571 14.1329C2.91871 13.9303 3.12614 13.7689 3.36231 13.6622C3.59593 13.549 3.85383 13.4951 4.11323 13.5053C4.24809 13.503 4.38187 13.5298 4.50549 13.5837C4.6317 13.6261 4.74936 13.6906 4.85293 13.7742C4.94704 13.8516 5.03338 13.9379 5.11071 14.032C5.16888 14.1144 5.21422 14.2051 5.2452 14.301C5.29308 14.2065 5.34935 14.1165 5.41332 14.032C5.46235 13.9363 5.52671 13.8492 5.60385 13.7742C5.71402 13.6915 5.83461 13.6237 5.96249 13.5725C6.10363 13.5267 6.25122 13.504 6.39959 13.5053C6.66447 13.4907 6.92862 13.5449 7.16628 13.6628C7.40395 13.7806 7.60703 13.958 7.75572 14.1777C7.88518 14.3648 7.98007 14.5736 8.03592 14.7941C8.08749 14.9956 8.11385 15.2026 8.11437 15.4106C8.12311 15.6904 8.07349 15.9691 7.96867 16.2287C7.87429 16.4545 7.7373 16.66 7.56519 16.8339C7.40346 17.0062 7.21405 17.1501 7.00481 17.2598C6.78455 17.3803 6.5561 17.4852 6.32114 17.5736L5.61506 17.7978L4.9538 17.9883L4.48308 18.1677C4.3286 18.2275 4.17876 18.2987 4.03477 18.3806C3.90739 18.4493 3.79648 18.5449 3.70975 18.6608C3.62738 18.7706 3.584 18.9047 3.58646 19.0419C3.58116 19.216 3.628 19.3877 3.72096 19.535C3.80391 19.6699 3.91956 19.7817 4.05719 19.86C4.20998 19.9502 4.37659 20.0146 4.55033 20.0505C4.73673 20.0676 4.92431 20.0676 5.11071 20.0505C5.39619 20.0497 5.67979 20.0043 5.95129 19.9161C6.21598 19.8338 6.47442 19.7327 6.72462 19.6134C6.98733 19.4688 7.23839 19.3039 7.47553 19.1203C7.70359 18.9512 7.92071 18.7677 8.12558 18.5711C8.2951 18.4072 8.45243 18.2312 8.5963 18.0444C8.70467 17.9192 8.79519 17.7797 8.86528 17.6297L8.89891 13.6398ZM11.2974 13.6398H12.6647V20.9696H11.2974V13.6398Z" fill="white"/>
</g>
<defs>
<clipPath id="clip0_1098_29">
<rect width="27.414" height="24.5" fill="white"/>
</clipPath>
</defs>
</svg>
