<svg xmlns="http://www.w3.org/2000/svg" viewBox="0 0 24.46 21.86"><defs><style>.cls-1,.cls-3{fill:#02528c;}.cls-1,.cls-2{stroke:#02528c;}.cls-2,.cls-4{fill:#fff;}</style></defs><g id="Layer_2" data-name="Layer 2"><g id="Layer_1-2" data-name="Layer 1"><rect class="cls-1" x="0.5" y="9.02" width="12.34" height="12.34" rx="1.5"/><rect class="cls-2" x="11.62" y="0.5" width="12.34" height="12.34" rx="1.5"/><path class="cls-3" d="M16.48,8.51l-.69,2.29H14.26l2.59-8.08h1.89l2.62,8.08H19.77L19,8.51ZM18.8,7.39l-.64-2c-.15-.49-.29-1-.41-1.51h0c-.12.47-.25,1-.38,1.51l-.63,2Z"/><text/><path class="cls-4" d="M7.94,12.17H9.16v6.54H7.94V17.16a3.51,3.51,0,0,1-.61.61,4.48,4.48,0,0,1-.82.54,4.33,4.33,0,0,1-1,.38,4.17,4.17,0,0,1-1.13.15,3,3,0,0,1-.74-.11,2.26,2.26,0,0,1-.73-.32,1.87,1.87,0,0,1-.55-.57A1.56,1.56,0,0,1,2.14,17a1.32,1.32,0,0,1,.21-.77,1.82,1.82,0,0,1,.55-.52,3.61,3.61,0,0,1,.77-.35l.85-.26.4-.11.4-.11a3,3,0,0,0,.36-.14,1,1,0,0,0,.3-.21,1,1,0,0,0,.2-.29,1.09,1.09,0,0,0,.07-.42,1.23,1.23,0,0,0-.14-.65A.44.44,0,0,0,5.75,13,.39.39,0,0,0,5.5,13a.58.58,0,0,0-.18.22,1.33,1.33,0,0,0-.11.32,1.75,1.75,0,0,0,0,.4v.57H4.09V14a2.38,2.38,0,0,0,0-.39A1.59,1.59,0,0,0,4,13.25.71.71,0,0,0,3.82,13,.29.29,0,0,0,3.63,13a.38.38,0,0,0-.3.18.79.79,0,0,0-.14.49,1,1,0,0,0,0,.32,1.34,1.34,0,0,0,.08.26c0,.08.08.14.11.19l.09.13-.76.6a2.32,2.32,0,0,1-.22-.3,2,2,0,0,1-.2-.35,2.34,2.34,0,0,1-.13-.4,1.78,1.78,0,0,1-.06-.47,1.69,1.69,0,0,1,.09-.53,1.67,1.67,0,0,1,.27-.51A1.46,1.46,0,0,1,3,12.19a1.41,1.41,0,0,1,.67-.14.84.84,0,0,1,.35.07,1,1,0,0,1,.31.17,1.67,1.67,0,0,1,.23.23.89.89,0,0,1,.12.24,1.58,1.58,0,0,1,.15-.24A.88.88,0,0,1,5,12.29a1.4,1.4,0,0,1,.32-.18,1.23,1.23,0,0,1,.39-.06,1.37,1.37,0,0,1,1.21.6,1.7,1.7,0,0,1,.25.55,2.24,2.24,0,0,1,.07.55,1.8,1.8,0,0,1-.13.73,1.7,1.7,0,0,1-.36.54,1.89,1.89,0,0,1-.5.38,4.78,4.78,0,0,1-.61.28l-.63.2-.59.17L4,16.21a3,3,0,0,0-.4.19.89.89,0,0,0-.29.25.55.55,0,0,0-.11.34.78.78,0,0,0,.12.44.84.84,0,0,0,.3.29,1.44,1.44,0,0,0,.44.17,2.74,2.74,0,0,0,.5,0,2.45,2.45,0,0,0,.75-.12A5.16,5.16,0,0,0,6,17.5a5.16,5.16,0,0,0,.67-.44,6,6,0,0,0,.58-.49,4.32,4.32,0,0,0,.42-.47,1.6,1.6,0,0,0,.24-.37Zm2.14,0H11.3v6.54H10.08Z"/></g></g></svg>