<svg width="28" height="25" viewBox="0 0 28 25" fill="none" xmlns="http://www.w3.org/2000/svg">
<g clip-path="url(#clip0_1098_37)">
<path d="M25.1725 0.560394H14.7045C13.776 0.560394 13.0233 1.31307 13.0233 2.24155V12.7095C13.0233 13.638 13.776 14.3907 14.7045 14.3907H25.1725C26.101 14.3907 26.8536 13.638 26.8536 12.7095V2.24155C26.8536 1.31307 26.101 0.560394 25.1725 0.560394Z" fill="white" stroke="#02528C"/>
<path d="M12.7095 10.1093H2.24155C1.31307 10.1093 0.560394 10.862 0.560394 11.7905V22.2584C0.560394 23.1869 1.31307 23.9396 2.24155 23.9396H12.7095C13.638 23.9396 14.3907 23.1869 14.3907 22.2584V11.7905C14.3907 10.862 13.638 10.1093 12.7095 10.1093Z" fill="#02528C" stroke="#02528C"/>
<path d="M5.9849 18.9858L5.20036 21.5524H3.4968L6.39959 12.4966H8.50663L11.4543 21.5524H9.66102L8.84286 18.9858H5.9849ZM8.57388 17.7418L7.86779 15.5002C7.68847 14.9511 7.54277 14.3234 7.40828 13.8079C7.27379 14.3234 7.12809 14.9286 6.98239 15.5002L6.28751 17.7418H8.57388Z" fill="white"/>
<path d="M21.2946 3.81062H22.6619V11.1404H21.2946V9.39205C21.0966 9.64759 20.8711 9.88062 20.6221 10.0869C20.3371 10.3192 20.0291 10.522 19.7031 10.6921C19.3447 10.8713 18.9693 11.0139 18.5823 11.118C18.1692 11.2273 17.7432 11.2801 17.3159 11.2749C17.0357 11.2741 16.7569 11.2364 16.4865 11.1629C16.2059 11.081 15.938 10.9603 15.6908 10.8042C15.4383 10.6339 15.2245 10.4124 15.0631 10.1542C14.8902 9.86727 14.8046 9.53627 14.8166 9.20152C14.8055 8.89663 14.8876 8.59561 15.0519 8.33853C15.221 8.10107 15.4388 7.90239 15.6908 7.75573C15.9605 7.59613 16.2459 7.46468 16.5426 7.36346L17.5064 7.07206L17.9547 6.95998L18.3918 6.8367L18.7729 6.72462C18.8789 6.64474 18.9732 6.55043 19.0531 6.44443C19.1527 6.35113 19.2294 6.23605 19.2772 6.1082C19.3611 5.95301 19.4072 5.78021 19.4117 5.60385C19.4317 5.34953 19.373 5.0952 19.2436 4.87535C19.2115 4.81903 19.1681 4.76995 19.1161 4.73119C19.0642 4.69242 19.0048 4.66481 18.9416 4.65008C18.8785 4.63535 18.813 4.63382 18.7492 4.64558C18.6855 4.65734 18.6249 4.68215 18.5711 4.71844C18.4895 4.78776 18.4212 4.8713 18.3694 4.96501C18.3101 5.08147 18.2686 5.20613 18.2461 5.33487C18.2278 5.48374 18.2278 5.6343 18.2461 5.78317V6.41081H16.9909V5.82801C17.0028 5.68255 17.0028 5.53636 16.9909 5.39091C16.9702 5.26316 16.9325 5.13877 16.8788 5.02105C16.8411 4.93044 16.788 4.84702 16.7219 4.77448C16.6948 4.74526 16.6618 4.72214 16.6251 4.70668C16.5884 4.69122 16.5488 4.68377 16.5089 4.68482C16.4395 4.68994 16.3722 4.71076 16.312 4.74571C16.2518 4.78066 16.2003 4.82882 16.1615 4.88656C16.0555 5.04518 16.0044 5.23411 16.0158 5.42453C16.0037 5.54752 16.0037 5.67139 16.0158 5.79438C16.0442 5.89325 16.0778 5.99053 16.1167 6.08578C16.1528 6.1595 16.194 6.23065 16.2399 6.29873C16.2785 6.34371 16.3123 6.39253 16.3408 6.44443L15.4778 7.11689C15.3994 7.01602 15.3097 6.90394 15.2313 6.78066C15.1536 6.65361 15.0826 6.52269 15.0183 6.38839C14.9526 6.24011 14.9001 6.08635 14.8614 5.92887C14.843 5.75751 14.843 5.58468 14.8614 5.41332C14.8638 5.2076 14.8978 5.00348 14.9623 4.80811C15.0202 4.60114 15.1236 4.4097 15.2649 4.24772C15.4174 4.0602 15.6108 3.91015 15.8304 3.80911C16.0499 3.70808 16.2897 3.65875 16.5313 3.66492C16.6695 3.66598 16.8063 3.69258 16.9348 3.74338C17.0544 3.79719 17.1673 3.8649 17.271 3.94511C17.3678 4.01945 17.4545 4.10611 17.5288 4.20289C17.5985 4.27943 17.6485 4.37174 17.6745 4.47188C17.7166 4.37077 17.7732 4.27637 17.8426 4.19168C17.917 4.0949 18.0036 4.00824 18.1004 3.93391C18.2125 3.85718 18.3328 3.79327 18.4591 3.74338C18.6032 3.69277 18.7546 3.66626 18.9074 3.66492C19.197 3.6554 19.4838 3.72515 19.7367 3.86666C19.9463 3.98148 20.1236 4.14722 20.2523 4.34859C20.3882 4.53194 20.4837 4.74204 20.5325 4.96501C20.5865 5.16243 20.6166 5.36563 20.6221 5.57023C20.6264 5.85341 20.577 6.13483 20.4764 6.3996C20.3821 6.62537 20.2451 6.83086 20.073 7.00481C19.9049 7.17471 19.7122 7.31829 19.5014 7.4307C19.2881 7.55413 19.0628 7.65552 18.8289 7.73331C18.5936 7.82297 18.3582 7.90143 18.1116 7.96867C17.8651 8.03592 17.6633 8.09196 17.4504 8.1592L16.9348 8.33853C16.7748 8.39369 16.6208 8.46505 16.4753 8.55147C16.3511 8.62032 16.2439 8.71605 16.1615 8.83166C16.0749 8.93916 16.031 9.07486 16.0382 9.21273C16.035 9.38511 16.0775 9.55528 16.1615 9.70586C16.2547 9.83612 16.3728 9.9466 16.5089 10.0309C16.6583 10.1173 16.8213 10.178 16.9909 10.2102C17.1785 10.2516 17.3704 10.2704 17.5624 10.2662C17.8276 10.2446 18.0881 10.1841 18.3358 10.0869C18.6236 9.99561 18.9015 9.87546 19.1651 9.72828C19.4261 9.58481 19.677 9.4238 19.9161 9.24635C20.1514 9.05582 20.3644 8.8765 20.5549 8.69717C20.7251 8.53059 20.886 8.35474 21.0368 8.17041C21.135 8.07241 21.2215 7.96334 21.2946 7.84539V3.81062ZM23.6931 3.81062H25.0604V11.1404H23.7043L23.6931 3.81062Z" fill="#02528C"/>
</g>
<defs>
<clipPath id="clip0_1098_37">
<rect width="27.414" height="24.5" fill="white"/>
</clipPath>
</defs>
</svg>
