<svg xmlns="http://www.w3.org/2000/svg" viewBox="0 0 24.46 21.86">
<g clip-path="url(#clip0_774_325)">
<path d="M11.34 9.02H2C1.17157 9.02 0.5 9.69158 0.5 10.52V19.86C0.5 20.6884 1.17157 21.36 2 21.36H11.34C12.1684 21.36 12.84 20.6884 12.84 19.86V10.52C12.84 9.69158 12.1684 9.02 11.34 9.02Z" fill="#0066A6" stroke="#0066A6"/>
<path d="M22.46 0.5H13.12C12.2916 0.5 11.62 1.17157 11.62 2V11.34C11.62 12.1684 12.2916 12.84 13.12 12.84H22.46C23.2884 12.84 23.96 12.1684 23.96 11.34V2C23.96 1.17157 23.2884 0.5 22.46 0.5Z" fill="#FE922D" stroke="#FE922D"/>
<path d="M16.48 8.51L15.79 10.8H14.26L16.85 2.72H18.74L21.36 10.8H19.77L19 8.51H16.48ZM18.8 7.39L18.16 5.39C18.01 4.9 17.87 4.39 17.75 3.88C17.63 4.35 17.5 4.88 17.37 5.39L16.74 7.39H18.8Z" fill="white"/>
<path d="M7.94 12.17H9.16V18.71H7.94V17.16C7.76252 17.3876 7.55764 17.5925 7.33 17.77C7.07727 17.9795 6.80229 18.1606 6.51 18.31C6.19365 18.4775 5.85776 18.6051 5.51 18.69C5.14197 18.7915 4.76176 18.842 4.38 18.84C4.12971 18.8343 3.88111 18.7974 3.64 18.73C3.37963 18.6674 3.13245 18.5591 2.91 18.41C2.68807 18.2614 2.50053 18.0671 2.36 17.84C2.20864 17.5865 2.13236 17.2952 2.14 17C2.12887 16.7278 2.20222 16.4588 2.35 16.23C2.49486 16.02 2.68225 15.8429 2.9 15.71C3.14206 15.5636 3.4005 15.4461 3.67 15.36L4.52 15.1L4.92 14.99L5.32 14.88C5.44288 14.8411 5.56313 14.7943 5.68 14.74C5.79207 14.6891 5.89378 14.6179 5.98 14.53C6.0633 14.4459 6.13102 14.3477 6.18 14.24C6.23071 14.106 6.2545 13.9632 6.25 13.82C6.26389 13.5946 6.21545 13.3697 6.11 13.17C6.06758 13.1154 6.01287 13.0715 5.95033 13.0419C5.88778 13.0124 5.81914 12.998 5.75 13C5.66892 12.9726 5.58107 12.9726 5.5 13C5.42268 13.0573 5.36082 13.1329 5.32 13.22C5.26986 13.3215 5.23289 13.4291 5.21 13.54C5.19471 13.6729 5.19471 13.8071 5.21 13.94V14.51H4.09V14C4.10067 13.8702 4.10067 13.7398 4.09 13.61C4.07415 13.4869 4.04395 13.3661 4 13.25C3.95902 13.1545 3.89757 13.0691 3.82 13C3.75846 12.9787 3.69153 12.9787 3.63 13C3.56923 13.0038 3.51026 13.0221 3.45805 13.0534C3.40584 13.0847 3.36193 13.1282 3.33 13.18C3.23049 13.3234 3.18126 13.4957 3.19 13.67C3.17282 13.776 3.17282 13.884 3.19 13.99C3.20778 14.0791 3.23458 14.1663 3.27 14.25C3.27 14.33 3.35 14.39 3.38 14.44L3.47 14.57L2.71 15.17C2.62875 15.076 2.55518 14.9757 2.49 14.87C2.41171 14.7604 2.34471 14.6431 2.29 14.52C2.23475 14.3908 2.19124 14.257 2.16 14.12C2.11914 13.9667 2.09896 13.8086 2.1 13.65C2.10153 13.4697 2.13191 13.2907 2.19 13.12C2.24972 12.9356 2.34109 12.763 2.46 12.61C2.6042 12.4292 2.78928 12.2852 3 12.19C3.20844 12.089 3.43856 12.0409 3.67 12.05C3.79033 12.048 3.90969 12.0719 4.02 12.12C4.13261 12.1578 4.23758 12.2154 4.33 12.29C4.41397 12.359 4.491 12.436 4.56 12.52C4.6119 12.5935 4.65236 12.6744 4.68 12.76C4.72272 12.6757 4.77292 12.5953 4.83 12.52C4.87374 12.4346 4.93117 12.3569 5 12.29C5.0983 12.2162 5.20589 12.1557 5.32 12.11C5.44592 12.0691 5.57762 12.0489 5.71 12.05C5.94633 12.037 6.18202 12.0854 6.39407 12.1905C6.60613 12.2957 6.78732 12.454 6.92 12.65C7.0355 12.8169 7.12017 13.0032 7.17 13.2C7.21602 13.3797 7.23953 13.5645 7.24 13.75C7.2478 13.9997 7.20352 14.2483 7.11 14.48C7.02579 14.6814 6.90356 14.8648 6.75 15.02C6.60569 15.1737 6.43669 15.3021 6.25 15.4C6.05348 15.5075 5.84964 15.6011 5.64 15.68L5.01 15.88L4.42 16.05L4 16.21C3.86217 16.2634 3.72847 16.3269 3.6 16.4C3.48634 16.4613 3.38738 16.5466 3.31 16.65C3.23651 16.7479 3.1978 16.8676 3.2 16.99C3.19527 17.1453 3.23706 17.2986 3.32 17.43C3.39402 17.5504 3.4972 17.6501 3.62 17.72C3.75632 17.8005 3.90498 17.8579 4.06 17.89C4.22632 17.9052 4.39368 17.9052 4.56 17.89C4.81472 17.8892 5.06776 17.8487 5.31 17.77C5.54617 17.6966 5.77677 17.6064 6 17.5C6.2344 17.3709 6.45841 17.2238 6.67 17.06C6.87348 16.9091 7.0672 16.7454 7.25 16.57C7.40126 16.4238 7.54163 16.2667 7.67 16.1C7.76669 15.9883 7.84746 15.8638 7.91 15.73L7.94 12.17ZM10.08 12.17H11.3V18.71H10.08V12.17Z" fill="white"/>
</g>
<defs>
<clipPath id="clip0_774_325">
<rect width="24.46" height="21.86" fill="white"/>
</clipPath>
</defs>
</svg>
