<svg xmlns="http://www.w3.org/2000/svg" viewBox="0 0 24.46 21.86"><defs><style>.cls-1,.cls-4{fill:#02528c;}.cls-1,.cls-2{stroke:#02528c;}.cls-2,.cls-3{fill:#fff;}</style></defs><g id="Layer_2" data-name="Layer 2"><g id="Layer_1-2" data-name="Layer 1"><rect class="cls-1" x="0.5" y="9.02" width="12.34" height="12.34" rx="1.5"/><rect class="cls-2" x="11.62" y="0.5" width="12.34" height="12.34" rx="1.5"/><path class="cls-3" d="M5.34,16.94l-.7,2.29H3.12l2.59-8.08H7.59l2.63,8.08H8.62l-.73-2.29Zm2.31-1.11-.63-2c-.16-.49-.29-1.05-.41-1.51h0c-.12.46-.25,1-.38,1.51l-.62,2Z"/><text/><path class="cls-4" d="M19,3.4h1.22V9.94H19V8.38A3.94,3.94,0,0,1,18.4,9a4.85,4.85,0,0,1-.82.54,5.34,5.34,0,0,1-1,.38,4.22,4.22,0,0,1-1.13.14,2.85,2.85,0,0,1-.74-.1A2.8,2.8,0,0,1,14,9.64a1.94,1.94,0,0,1-.56-.58,1.54,1.54,0,0,1-.22-.85,1.34,1.34,0,0,1,.21-.77A1.83,1.83,0,0,1,14,6.92a4.08,4.08,0,0,1,.76-.35l.86-.26.4-.1.39-.11L16.75,6A1.27,1.27,0,0,0,17,5.75a.79.79,0,0,0,.2-.3A1,1,0,0,0,17.32,5a1.11,1.11,0,0,0-.15-.65.42.42,0,0,0-.6-.14.79.79,0,0,0-.18.22,1.17,1.17,0,0,0-.11.33,1.64,1.64,0,0,0,0,.4v.56H15.16V5.2a2.38,2.38,0,0,0,0-.39,1.29,1.29,0,0,0-.1-.33.76.76,0,0,0-.14-.22.25.25,0,0,0-.19-.08.41.41,0,0,0-.31.18.78.78,0,0,0-.13.48,1.69,1.69,0,0,0,0,.33,2.56,2.56,0,0,0,.09.26,1.6,1.6,0,0,0,.11.19.77.77,0,0,1,.09.13l-.77.6c-.07-.09-.15-.19-.22-.3a3.9,3.9,0,0,1-.19-.35,2.47,2.47,0,0,1-.14-.41,2.16,2.16,0,0,1,0-.46,1.79,1.79,0,0,1,.09-.54,1.29,1.29,0,0,1,.27-.5,1.41,1.41,0,0,1,1.13-.52,1,1,0,0,1,.36.07,1.49,1.49,0,0,1,.3.18,1.25,1.25,0,0,1,.23.23.57.57,0,0,1,.13.24,1,1,0,0,1,.15-.25,1.25,1.25,0,0,1,.23-.23,1.62,1.62,0,0,1,.32-.17,1.24,1.24,0,0,1,.4-.07,1.42,1.42,0,0,1,.74.18,1.27,1.27,0,0,1,.46.43,1.44,1.44,0,0,1,.25.55,2.28,2.28,0,0,1,.08.54,2,2,0,0,1-.13.74,1.7,1.7,0,0,1-.36.54,2.12,2.12,0,0,1-.51.38,3.24,3.24,0,0,1-.6.27c-.21.08-.42.15-.64.21s-.4.11-.59.17l-.46.16a2.22,2.22,0,0,0-.41.19.85.85,0,0,0-.28.25.5.5,0,0,0-.11.34.87.87,0,0,0,.11.44,1.08,1.08,0,0,0,.31.29,1.37,1.37,0,0,0,.43.16,2.15,2.15,0,0,0,.51.05A2.43,2.43,0,0,0,16.36,9a4,4,0,0,0,.74-.32,5.87,5.87,0,0,0,.67-.43c.21-.17.4-.33.57-.49a5.77,5.77,0,0,0,.43-.47A1.6,1.6,0,0,0,19,7Zm2.14,0h1.22V9.94H21.15Z"/></g></g></svg>