<svg width="27" height="21" viewBox="0 0 27 21" fill="none" xmlns="http://www.w3.org/2000/svg">
<rect y="6.5625" width="14.4375" height="14.4375" rx="2" fill="#0066A6"/>
<path d="M5.31197 11.3235C5.29123 11.2697 5.26664 11.2152 5.23829 11.1602C5.17858 11.0305 5.09678 10.9131 4.99342 10.8081C4.88823 10.6966 4.759 10.6055 4.60698 10.5342C4.45478 10.4606 4.2797 10.425 4.08378 10.425C3.81981 10.425 3.58815 10.4843 3.39197 10.6062C3.20084 10.7248 3.04132 10.877 2.91388 11.0622L2.91388 11.0622L2.91362 11.0626C2.79197 11.2417 2.69987 11.4416 2.63704 11.6617L2.63703 11.6617L2.63664 11.6632C2.57906 11.8816 2.55 12.0942 2.55 12.3006C2.55 12.6251 2.59785 12.9215 2.69475 13.189L2.69474 13.189L2.69516 13.1902C2.79494 13.4525 2.90588 13.662 3.0295 13.8153L3.07546 13.8723L3.13355 13.8277L3.67357 13.4132L3.73894 13.3631L3.68286 13.3027C3.64272 13.2595 3.59771 13.2072 3.54777 13.1457C3.50373 13.0815 3.46158 13.0106 3.42141 12.9328C3.38168 12.8514 3.34833 12.7632 3.3215 12.668C3.29544 12.571 3.28211 12.4646 3.28211 12.3481C3.28211 12.2112 3.30418 12.0921 3.34657 11.9895L3.34657 11.9895L3.34695 11.9885C3.39035 11.8792 3.44797 11.7912 3.51879 11.7225C3.59631 11.6474 3.68159 11.5919 3.77477 11.5549L3.77478 11.555L3.77625 11.5543C3.87495 11.5128 3.97495 11.4923 4.07677 11.4923C4.20336 11.4923 4.31533 11.5248 4.4148 11.589L4.41475 11.5891L4.4178 11.5908C4.52441 11.6528 4.61439 11.7376 4.68788 11.8465L4.68786 11.8465L4.68903 11.8482C4.76753 11.958 4.82708 12.0857 4.86706 12.232C4.90729 12.3793 4.92753 12.5334 4.92753 12.6947V13.2926V13.3676H5.00253H5.58464H5.65964V13.2926V12.7015C5.65964 12.5315 5.68212 12.3735 5.72654 12.2272C5.77097 12.0809 5.83497 11.9531 5.91803 11.8429C6.00002 11.7342 6.10109 11.6488 6.22186 11.586C6.34527 11.5243 6.4899 11.4923 6.65768 11.4923C6.92559 11.4923 7.12831 11.5766 7.2753 11.7393C7.42404 11.904 7.50143 12.1226 7.50143 12.4025C7.50143 12.6989 7.43181 12.9306 7.29936 13.1045L7.29935 13.1045L7.29865 13.1054C7.16589 13.2855 6.98806 13.4346 6.76318 13.5523L6.76263 13.5526C6.54002 13.6714 6.28197 13.7668 5.98778 13.838L5.98752 13.8381C5.69358 13.9104 5.3926 13.9805 5.08459 14.0483C4.7746 14.1166 4.46927 14.1939 4.16861 14.2804M4.16861 14.2804C4.16873 14.2804 4.16885 14.2803 4.16897 14.2803L4.18898 14.3526L4.16825 14.2805C4.16837 14.2805 4.16849 14.2804 4.16861 14.2804ZM11.0831 10.5677H11.0081V10.6427V18.2323V18.3073H11.0831H11.8125H11.8875V18.2323V10.6427V10.5677H11.8125H11.0831Z" fill="white" stroke="white" stroke-width="0.15"/>
<rect x="12.3125" y="0.5" width="13.4375" height="13.4375" rx="1.5" fill="white" stroke="#0066A6"/>
<path d="M18.82 4.11219C18.9472 4.49514 19.1192 4.95447 19.3357 5.48987L19.3356 5.48984L18.82 4.11219ZM18.82 4.11219C18.7181 4.53078 18.5861 4.94679 18.424 5.3602L18.4238 5.36068L18.4238 5.36068L17.5403 7.56915H20.1729L19.3357 5.48994L18.82 4.11219ZM14.9306 10.8515L14.8882 10.955H15H16.1831H16.2345L16.2531 10.9071L17.1592 8.56842H20.5783L21.5413 10.9085L21.5605 10.955H21.6107H22.88H22.9947L22.9487 10.8499L19.5027 2.96995L19.483 2.925H19.4339H18.2336H18.1833L18.1642 2.97153L14.9306 10.8515Z" fill="#0066A6" stroke="#0066A6" stroke-width="0.15"/>
</svg>
