<svg width="17" height="12" viewBox="0 0 17 12" fill="none" xmlns="http://www.w3.org/2000/svg">
<path d="M16.1206 4.28271H0.608841V7.67591H16.1206V4.28271Z" fill="#E6E7E8"/>
<path d="M3.03255 0.647095H13.6969C15.3031 0.647095 16.1206 1.84077 16.1206 3.31318V4.28266H0.608841V3.31318C0.608841 1.84077 1.42636 0.647095 3.03255 0.647095Z" fill="#FF9933"/>
<path d="M16.1206 8.64539C16.1206 10.1178 15.3031 11.3115 13.6969 11.3115H3.03255C1.42636 11.3115 0.608841 10.1178 0.608841 8.64539V7.6759H16.1206V8.64539Z" fill="#128807"/>
<path fill-rule="evenodd" clip-rule="evenodd" d="M8.28968 4.42395C7.98001 4.42395 7.67729 4.51581 7.41983 4.68791C7.16238 4.86001 6.96176 5.10461 6.84336 5.39076C6.72497 5.67691 6.69411 5.99175 6.7547 6.29544C6.8153 6.59913 6.96461 6.87802 7.18376 7.09683C7.4029 7.31563 7.68202 7.46452 7.98581 7.52464C8.2896 7.58476 8.60439 7.55342 8.89035 7.43457C9.17632 7.31573 9.42061 7.11474 9.59231 6.85702C9.76401 6.5993 9.8554 6.29644 9.85492 5.98676C9.85421 5.57207 9.689 5.17461 9.39554 4.88161C9.10209 4.58861 8.70437 4.42401 8.28968 4.42395ZM9.33309 5.10138C9.30619 5.13192 9.30134 5.16464 9.31928 5.19203C9.32688 5.20464 9.33861 5.21423 9.35248 5.21917C9.36313 5.22313 9.37458 5.22445 9.38585 5.22301C9.39712 5.22158 9.40788 5.21743 9.41719 5.21093C9.45932 5.27126 9.49637 5.33498 9.52796 5.40143C9.49136 5.42543 9.47924 5.45548 9.49136 5.48869C9.49784 5.50559 9.51066 5.5193 9.52709 5.5269C9.54352 5.5345 9.56226 5.5354 9.57934 5.52941C9.59679 5.56431 9.63533 5.71167 9.63581 5.74269C9.61977 5.74576 9.60533 5.75444 9.5951 5.76717C9.58428 5.77981 9.57873 5.79612 9.57958 5.81274C9.58419 5.8583 9.6123 5.87769 9.6552 5.87939C9.66199 5.92326 9.66126 6.07014 9.65448 6.09898C9.60891 6.10383 9.58492 6.1237 9.58104 6.15836C9.57571 6.19568 9.59364 6.21992 9.63727 6.23689C9.62418 6.30887 9.60552 6.37964 9.58104 6.44896C9.56395 6.4438 9.54564 6.4444 9.52893 6.45066C9.51269 6.45769 9.49984 6.46981 9.49306 6.48653C9.487 6.49962 9.48579 6.51319 9.48894 6.52749C9.4912 6.53812 9.4959 6.54808 9.50267 6.55657C9.50945 6.56507 9.5181 6.57188 9.52796 6.57645C9.49548 6.64383 9.45961 6.70733 9.41719 6.76695C9.37938 6.74829 9.34642 6.75265 9.32412 6.77931C9.31431 6.79027 9.30873 6.80436 9.30837 6.81906C9.30762 6.82993 9.30952 6.84081 9.31391 6.85078C9.3183 6.86074 9.32505 6.86949 9.33358 6.87626C9.2851 6.93298 9.23348 6.98485 9.17725 7.03259C9.1455 7.00472 9.11253 7.00036 9.08418 7.02023C9.07133 7.0292 9.06236 7.04108 9.05824 7.05562C9.05529 7.06591 9.05467 7.07674 9.05643 7.08731C9.05819 7.09787 9.06229 7.10791 9.06842 7.1167C9.0071 7.15887 8.94384 7.19522 8.87768 7.22673C8.85198 7.19062 8.82266 7.1785 8.79091 7.19062C8.77708 7.19559 8.76508 7.20463 8.75649 7.21655C8.74437 7.23594 8.74268 7.25727 8.7497 7.28005C8.6799 7.30478 8.60961 7.32368 8.5369 7.33653C8.5226 7.29557 8.49788 7.27642 8.46492 7.27884C8.44965 7.28005 8.43583 7.28466 8.42371 7.29508C8.40675 7.31059 8.39875 7.33022 8.4002 7.35446C8.32555 7.35979 8.2526 7.36028 8.18013 7.35446C8.1748 7.30768 8.15614 7.28417 8.11857 7.27884C8.1043 7.27687 8.08978 7.27978 8.07737 7.28708C8.06829 7.29222 8.06048 7.29933 8.05453 7.30789C8.04857 7.31644 8.04461 7.32623 8.04295 7.33653C7.96975 7.32295 7.89874 7.30429 7.83015 7.27981C7.83621 7.234 7.82506 7.20662 7.79428 7.19232C7.78306 7.18749 7.7708 7.18558 7.75865 7.18674C7.74604 7.18771 7.73465 7.19159 7.72544 7.19983C7.71648 7.20734 7.70896 7.21655 7.70024 7.22601C7.63417 7.19482 7.57078 7.15826 7.5107 7.1167C7.53542 7.07792 7.52088 7.04083 7.50077 7.02435C7.49375 7.01834 7.48561 7.01378 7.47681 7.01095C7.46802 7.00812 7.45875 7.00706 7.44954 7.00785C7.44034 7.00864 7.43138 7.01126 7.4232 7.01555C7.41501 7.01984 7.40777 7.02571 7.40188 7.03284C7.34589 6.98485 7.29329 6.93274 7.24627 6.87675C7.27366 6.84548 7.279 6.81252 7.25888 6.78416C7.25074 6.77145 7.23824 6.76215 7.22373 6.75799C7.2134 6.7547 7.20245 6.75385 7.19173 6.75549C7.18101 6.75713 7.17081 6.76122 7.16193 6.76744C7.11951 6.70636 7.08267 6.6431 7.05117 6.57669C7.08655 6.55294 7.0994 6.52507 7.08873 6.49332C7.08486 6.4792 7.07632 6.46681 7.0645 6.45817C7.05508 6.4516 7.04427 6.44731 7.03292 6.44562C7.02156 6.44394 7.00997 6.44492 6.99906 6.44848C6.9833 6.4143 6.94404 6.27033 6.94186 6.23543C6.95863 6.23238 6.97375 6.22344 6.98451 6.21023C6.99016 6.20368 6.99439 6.19604 6.99693 6.18778C6.99948 6.17952 7.00028 6.17082 6.9993 6.16224C6.99838 6.14689 6.99202 6.13237 6.98136 6.12128C6.97407 6.11359 6.96514 6.10764 6.95524 6.10386C6.94534 6.10009 6.93472 6.09859 6.92416 6.09946C6.9181 6.02615 6.9181 5.95246 6.92416 5.87915C6.97046 5.87454 6.99251 5.85661 6.99857 5.82001C7.0013 5.80617 6.99925 5.79181 6.99275 5.77929C6.98776 5.76961 6.98059 5.76122 6.9718 5.75478C6.96301 5.74834 6.95284 5.74404 6.9421 5.74221C6.95483 5.6698 6.97372 5.5986 6.99857 5.52941C7.04341 5.53692 7.07104 5.5248 7.08583 5.49378C7.08966 5.48548 7.09181 5.47651 7.09214 5.46737C7.09247 5.45824 7.09098 5.44913 7.08775 5.44058C7.08453 5.43203 7.07963 5.42421 7.07335 5.41757C7.06707 5.41093 7.05953 5.40561 7.05117 5.40192C7.08257 5.33529 7.11962 5.27147 7.16193 5.21117C7.20095 5.22983 7.2327 5.22547 7.255 5.19881C7.2649 5.18755 7.27041 5.17309 7.27051 5.15809C7.27097 5.14744 7.26893 5.13683 7.26455 5.12711C7.26017 5.11739 7.25358 5.10882 7.24531 5.10211C7.29317 5.04608 7.34527 4.99382 7.40115 4.94578C7.4346 4.97438 7.46708 4.97801 7.49471 4.95814C7.50725 4.94977 7.51643 4.93723 7.52064 4.92275C7.52366 4.91258 7.52431 4.90186 7.52254 4.8914C7.52078 4.88094 7.51665 4.87102 7.51046 4.8624C7.57088 4.82028 7.63468 4.78323 7.70121 4.75164C7.72617 4.78751 7.75429 4.79938 7.78604 4.78872C7.80011 4.78422 7.81241 4.7754 7.82118 4.76351C7.82758 4.75405 7.83165 4.74322 7.83309 4.7319C7.83452 4.72057 7.83326 4.70907 7.82942 4.69831C7.89857 4.67331 7.96977 4.65441 8.04222 4.64184C8.05604 4.68111 8.081 4.70147 8.11324 4.69953C8.12831 4.69904 8.14279 4.69359 8.15444 4.68401C8.16308 4.67673 8.16983 4.66745 8.17409 4.65698C8.17836 4.64651 8.18001 4.63516 8.17892 4.62391C8.25215 4.61768 8.32578 4.61776 8.39899 4.62415C8.40408 4.66778 8.42299 4.69274 8.45522 4.69807C8.46972 4.70117 8.48483 4.69929 8.49812 4.69274C8.50804 4.68784 8.51664 4.68064 8.52321 4.67174C8.52979 4.66285 8.53415 4.65252 8.53593 4.6416C8.60837 4.65478 8.67962 4.67382 8.74898 4.69856C8.74122 4.74146 8.75334 4.76957 8.78291 4.78484C8.79575 4.79139 8.80933 4.79405 8.82435 4.79139C8.83565 4.78985 8.84635 4.78539 8.8554 4.77847C8.86445 4.77154 8.87154 4.76238 8.87598 4.75188C8.91743 4.76739 9.04928 4.84374 9.06673 4.86288C9.04879 4.89876 9.05291 4.93051 9.07763 4.95329C9.08462 4.95946 9.09277 4.96416 9.10161 4.96712C9.11045 4.97008 9.11979 4.97123 9.12908 4.9705C9.13837 4.96978 9.14743 4.9672 9.1557 4.96291C9.16397 4.95862 9.1713 4.95271 9.17725 4.94553C9.23318 4.99334 9.28528 5.04545 9.33309 5.10138Z" fill="#010088"/>
<path fill-rule="evenodd" clip-rule="evenodd" d="M7.61827 7.14916C7.62118 7.14601 7.62409 7.14383 7.62627 7.14044C7.76718 6.92503 7.90848 6.70989 8.05018 6.495C8.05333 6.48894 8.05696 6.48288 8.05987 6.4761C8.09283 6.39927 8.12507 6.32243 8.15876 6.24584C8.15989 6.2419 8.16143 6.23808 8.16336 6.23445C8.17694 6.23954 8.1893 6.24536 8.20384 6.25093L8.19899 6.2633C8.1687 6.3377 8.13961 6.41235 8.10883 6.48676C8.10059 6.50664 8.0972 6.52748 8.09283 6.54832C8.06908 6.65957 8.04678 6.77131 8.02279 6.8828L7.94087 7.28101C7.94046 7.28196 7.94032 7.283 7.94044 7.28402C7.94057 7.28504 7.94097 7.28601 7.94159 7.28683L7.94499 7.27835C8.0114 7.075 8.0795 6.87189 8.14615 6.66854C8.15948 6.62879 8.17136 6.58953 8.1859 6.54978C8.19269 6.5299 8.19487 6.50954 8.19802 6.48894C8.20651 6.43126 8.21378 6.37309 8.22323 6.31541C8.22444 6.30159 8.22662 6.28802 8.22856 6.27469C8.22915 6.26915 8.23004 6.26365 8.23123 6.25821C8.24577 6.25966 8.2591 6.2616 8.27364 6.2633C8.27364 6.26911 8.27316 6.27517 8.27267 6.28123C8.26419 6.35225 8.25692 6.4235 8.24674 6.49428C8.24141 6.53305 8.24407 6.57111 8.24625 6.60989C8.24771 6.64261 8.24989 6.67533 8.25134 6.70829C8.25571 6.7747 8.2591 6.84087 8.2637 6.90703L8.27098 7.04373C8.2751 7.12129 8.27994 7.19861 8.28406 7.27568C8.286 7.29749 8.28649 7.31979 8.28867 7.34112L8.29449 7.26768L8.302 7.10869L8.31072 6.9669C8.31315 6.91843 8.3163 6.87019 8.31897 6.82172C8.32115 6.78997 8.32236 6.75822 8.3243 6.72695C8.32696 6.67678 8.33011 6.62661 8.33254 6.57692C8.33492 6.55044 8.33427 6.52376 8.3306 6.49743C8.32551 6.46156 8.32163 6.42496 8.31727 6.3886C8.31242 6.35273 8.3083 6.31662 8.30394 6.28123C8.30345 6.27566 8.30345 6.26984 8.30273 6.2633L8.34514 6.25772C8.34635 6.26742 8.34853 6.27687 8.35023 6.28656C8.3603 6.36061 8.37064 6.43461 8.38125 6.50857C8.38416 6.53742 8.39555 6.56408 8.40525 6.59098C8.4799 6.81833 8.55479 7.04591 8.63041 7.27301C8.63211 7.27713 8.63284 7.28101 8.63599 7.28489C8.63599 7.28198 8.63599 7.2798 8.63478 7.27713C8.60351 7.12396 8.572 6.97053 8.53952 6.81736C8.51868 6.71556 8.49711 6.61401 8.47651 6.51245L8.47069 6.49573C8.43942 6.4189 8.40937 6.34134 8.37738 6.26451C8.37626 6.25998 8.37463 6.25559 8.37253 6.25142C8.38588 6.2457 8.39929 6.24012 8.41276 6.2347C8.41446 6.23906 8.41713 6.24269 8.41858 6.24706C8.45203 6.32413 8.48475 6.40145 8.51819 6.47852C8.52028 6.48431 8.52288 6.48991 8.52595 6.49525C8.66897 6.71189 8.81156 6.92881 8.95374 7.14601C8.95569 7.14928 8.95824 7.15216 8.96125 7.15449C8.96004 7.15062 8.95786 7.14747 8.9564 7.14407L8.60593 6.44919C8.60291 6.44288 8.59917 6.43695 8.59478 6.4315L8.445 6.23057C8.44185 6.22718 8.43991 6.22403 8.437 6.2204C8.44936 6.21143 8.4593 6.20319 8.47166 6.19373C8.47433 6.19689 8.47675 6.19955 8.47893 6.2027C8.53128 6.26839 8.58291 6.33455 8.63405 6.39999C8.63986 6.40605 8.6452 6.41235 8.65174 6.41793C8.84273 6.5888 9.03372 6.7587 9.22543 6.92982C9.22931 6.93297 9.23319 6.93636 9.23804 6.93854C9.23586 6.93636 9.23464 6.93369 9.23319 6.932C9.07589 6.75628 8.9198 6.5808 8.76323 6.40508C8.75426 6.39539 8.7453 6.38569 8.73681 6.37527C8.71888 6.35443 8.69876 6.33601 8.67695 6.31953L8.50293 6.18259C8.49905 6.17968 8.49614 6.17653 8.49178 6.17362C8.50038 6.16201 8.50927 6.15061 8.51844 6.13944C8.52231 6.14187 8.52547 6.14429 8.5291 6.14696C8.59575 6.19689 8.66265 6.24633 8.7293 6.2965C8.73676 6.30213 8.74471 6.30708 8.75305 6.31128C8.98064 6.42617 9.20944 6.54105 9.43751 6.65594C9.44187 6.65788 9.44599 6.6603 9.45108 6.6603L9.44187 6.65376L9.01627 6.37503C8.9421 6.32631 8.86769 6.2776 8.79401 6.22864C8.78771 6.225 8.78117 6.22185 8.77559 6.21894C8.69828 6.18622 8.6212 6.15326 8.54461 6.1203C8.54098 6.11884 8.53734 6.11739 8.53298 6.11521L8.54922 6.07522C8.55382 6.07643 8.55673 6.07764 8.56037 6.07885C8.6389 6.11012 8.7167 6.14187 8.79571 6.17289C8.81195 6.17895 8.82964 6.18186 8.84685 6.18549L9.37643 6.29553C9.44308 6.30983 9.51095 6.32389 9.57784 6.3377C9.58054 6.33834 9.58337 6.338 9.58584 6.33673C9.56742 6.33092 9.549 6.32437 9.53082 6.31831C9.30202 6.24294 9.07347 6.1678 8.8454 6.09194C8.82746 6.08588 8.80831 6.08418 8.79013 6.08127C8.71645 6.07109 8.64302 6.06043 8.57006 6.05001C8.56558 6.04922 8.56113 6.04825 8.55673 6.0471C8.55819 6.03304 8.56037 6.01899 8.56158 6.00444L8.59697 6.00832L8.74336 6.02601C8.77075 6.02965 8.79789 6.03256 8.82479 6.03595C8.83134 6.03668 8.83764 6.03692 8.84394 6.03668L8.99809 6.02771L9.08922 6.02262L9.24628 6.01341L9.47532 6.00081C9.53058 5.9979 9.58439 5.99426 9.6394 5.99039C9.63068 5.98966 9.62098 5.9882 9.61153 5.9882L9.42369 5.97754L9.17551 5.96348L8.96997 5.95185L8.84103 5.94409C8.83594 5.94385 8.82988 5.94458 8.82479 5.94506L8.67695 5.96275L8.57224 5.97536H8.56158C8.56037 5.96154 8.55819 5.94846 8.55673 5.93343C8.5657 5.93149 8.57588 5.93003 8.58485 5.92834C8.64956 5.91937 8.71379 5.90992 8.7785 5.90047C8.79194 5.89893 8.80536 5.89715 8.81873 5.89513C8.82615 5.89413 8.83345 5.89243 8.84055 5.89004C9.03323 5.82678 9.22471 5.76304 9.41715 5.69978C9.4707 5.68223 9.52419 5.66445 9.5776 5.64646C9.58221 5.64524 9.58657 5.64318 9.59044 5.6404L9.55676 5.64719L9.14545 5.73274C9.03541 5.75577 8.92368 5.77855 8.81364 5.80182C8.80702 5.80328 8.80053 5.80531 8.79426 5.80788C8.7167 5.83842 8.63986 5.86993 8.56158 5.90095L8.54995 5.90556C8.54461 5.89222 8.5388 5.87938 8.53298 5.86556C8.53693 5.86321 8.54106 5.86118 8.54534 5.8595C8.62241 5.82703 8.69925 5.79382 8.77608 5.76062C8.78211 5.75806 8.78794 5.75507 8.79353 5.75165C9.01094 5.60938 9.22737 5.46638 9.44502 5.32386C9.44789 5.32227 9.45018 5.31981 9.45157 5.31684L9.44284 5.32168C9.22616 5.43075 9.00924 5.53982 8.79207 5.64864C8.7562 5.66658 8.7213 5.68815 8.68931 5.71263C8.63647 5.75359 8.58267 5.79285 8.52886 5.83309C8.52522 5.83575 8.52207 5.83818 8.51819 5.8406L8.49153 5.80691L8.50099 5.79867L8.69803 5.64379C8.70482 5.63846 8.71015 5.63289 8.71597 5.62707C8.88757 5.43487 9.05941 5.24243 9.23052 5.05023C9.233 5.04824 9.23492 5.04566 9.2361 5.04271C9.23101 5.0432 9.22907 5.04659 9.22689 5.04877C9.12291 5.14087 9.0199 5.23298 8.91665 5.32508L8.64956 5.56308C8.64471 5.56745 8.64011 5.57278 8.63574 5.57763L8.48281 5.77201C8.47893 5.77637 8.47602 5.78098 8.47166 5.78679L8.43652 5.75989C8.4387 5.7565 8.4416 5.75383 8.4433 5.75068C8.49323 5.68403 8.54292 5.61713 8.59333 5.55072C8.59852 5.5429 8.60329 5.53481 8.60763 5.52649C8.72397 5.29745 8.83934 5.06744 8.95495 4.83815C8.95713 4.83379 8.95931 4.8304 8.95979 4.82579C8.95761 4.82821 8.95543 4.8304 8.95398 4.83258L8.70627 5.21116L8.53104 5.47777C8.52498 5.48795 8.51819 5.49861 8.51432 5.50976C8.4816 5.58441 8.45009 5.65931 8.41834 5.73396C8.41616 5.73735 8.4147 5.74099 8.41252 5.74535L8.37229 5.72862L8.37665 5.71844C8.40695 5.64282 8.43652 5.5672 8.4673 5.49207C8.47578 5.47292 8.47893 5.45305 8.48305 5.43317C8.50947 5.3069 8.53492 5.18038 8.56134 5.05386C8.58727 4.93219 8.61199 4.81149 8.63744 4.68934C8.63793 4.68861 8.63744 4.68764 8.63647 4.68522L8.61514 4.74993C8.53904 4.97848 8.46366 5.20753 8.38901 5.43657C8.38271 5.4545 8.38053 5.47413 8.37786 5.4928C8.36889 5.5563 8.35993 5.62028 8.34975 5.68427C8.34805 5.69639 8.34732 5.70851 8.3449 5.72184L8.30273 5.71651V5.70051C8.30879 5.64985 8.31533 5.59896 8.32115 5.54854C8.32478 5.51897 8.32745 5.49013 8.33157 5.46129C8.33399 5.44189 8.33399 5.42227 8.33157 5.40288C8.32987 5.36991 8.32745 5.33719 8.32599 5.30447L8.31412 5.10694C8.31194 5.07156 8.31121 5.03568 8.30903 5.0003C8.30588 4.95425 8.30345 4.90747 8.30079 4.86118C8.29861 4.82725 8.29691 4.79307 8.29546 4.75938C8.29352 4.71939 8.29037 4.67964 8.28697 4.63989C8.286 4.6508 8.28552 4.66195 8.28503 4.67358C8.28164 4.7223 8.27922 4.77102 8.27631 4.81997L8.2637 5.04199L8.25619 5.16657C8.25231 5.23855 8.24892 5.31078 8.2448 5.38276C8.24359 5.39367 8.2431 5.40385 8.24238 5.41451C8.23922 5.44263 8.2448 5.4705 8.24722 5.49837L8.26273 5.62537C8.26516 5.64937 8.26879 5.67336 8.2717 5.6976C8.27219 5.70342 8.27219 5.70972 8.27388 5.71675C8.25886 5.71893 8.24528 5.72038 8.23026 5.72232C8.22808 5.7119 8.22711 5.70221 8.22541 5.69203C8.21378 5.61326 8.20263 5.53448 8.19148 5.45523C8.19051 5.44941 8.18808 5.44335 8.18663 5.43729C8.10762 5.20025 8.03006 4.96297 7.95153 4.72545C7.94765 4.71454 7.94474 4.70412 7.93868 4.6937C7.93934 4.69923 7.94023 4.70473 7.94135 4.71018C7.97674 4.88178 8.01358 5.05289 8.04872 5.22401C8.06448 5.30423 8.0812 5.3847 8.09792 5.46492C8.0991 5.47157 8.10122 5.47802 8.10422 5.48407L8.19778 5.71796C8.19948 5.72135 8.20069 5.72499 8.20239 5.72935C8.18784 5.73493 8.17597 5.7405 8.16191 5.74608L8.15633 5.73444L8.05866 5.50492C8.05478 5.49716 8.05187 5.48965 8.04678 5.48334L7.62384 4.83815C7.62118 4.83476 7.619 4.83137 7.61488 4.82894C7.61657 4.83234 7.61778 4.83573 7.61997 4.83912L7.96777 5.52988C7.9714 5.53642 7.97504 5.54297 7.9794 5.54878C8.02982 5.61592 8.08047 5.68306 8.13016 5.74971C8.13256 5.75353 8.13524 5.75718 8.13816 5.76062L8.10374 5.78752C8.10102 5.78463 8.09851 5.78155 8.09623 5.77831C8.04484 5.71287 7.9937 5.64719 7.94159 5.58175C7.93585 5.57439 7.92944 5.56757 7.92245 5.56139C7.73097 5.39027 7.53926 5.2194 7.34754 5.04877C7.34439 5.04611 7.34221 5.04344 7.33712 5.04199L7.34342 5.04974C7.42171 5.13821 7.49999 5.22619 7.57949 5.31417C7.67401 5.4196 7.76733 5.52479 7.86113 5.63022C7.86597 5.63555 7.87179 5.64016 7.87688 5.64452L8.07393 5.7994L8.08362 5.80715C8.07441 5.81879 8.06617 5.82994 8.05648 5.84157L8.04606 5.83381L7.84416 5.68257C7.83901 5.6789 7.83367 5.6755 7.82816 5.67239C7.59549 5.55557 7.36426 5.43923 7.13304 5.32241C7.12916 5.32071 7.12601 5.31926 7.12189 5.31926C7.13256 5.32629 7.14249 5.33307 7.15316 5.33962C7.36233 5.47704 7.57149 5.61447 7.78139 5.75189C7.7872 5.75529 7.79253 5.75868 7.79884 5.76134C7.87615 5.79479 7.9542 5.82775 8.03079 5.86096L8.04315 5.86581C8.0366 5.87938 8.032 5.89223 8.02618 5.9058L8.01503 5.90216C7.93723 5.87138 7.85991 5.83915 7.78139 5.80933C7.762 5.80158 7.74067 5.79818 7.71958 5.79382L7.36257 5.71966C7.25156 5.69687 7.14153 5.67361 7.03028 5.65058C7.0201 5.6484 7.01064 5.64622 6.99998 5.64428C6.99731 5.64428 6.99489 5.64379 6.99101 5.64525L7.02494 5.6564C7.26174 5.73468 7.49781 5.81273 7.73461 5.89004C7.75254 5.89635 7.77242 5.89804 7.79108 5.90095C7.84416 5.90895 7.89651 5.91598 7.94814 5.92349C7.96704 5.92616 7.9857 5.92907 8.00461 5.93149L8.01842 5.93391C8.01697 5.94821 8.01479 5.96154 8.01382 5.97705L7.97722 5.97318L7.84634 5.95766C7.81362 5.95354 7.77945 5.94894 7.74527 5.94579C7.73 5.94458 7.71449 5.94603 7.69874 5.94676C7.66553 5.94821 7.63233 5.95112 7.59767 5.95258L7.40183 5.96421C7.37275 5.96591 7.34366 5.96712 7.31361 5.96906L7.1139 5.98045C7.06663 5.98336 7.01792 5.98554 6.9709 5.98845C6.95923 5.98911 6.94759 5.99016 6.93599 5.9916L6.97138 5.99451L7.11802 6.0025L7.29955 6.01317L7.43649 6.02044C7.49951 6.02432 7.56374 6.02795 7.62724 6.03207C7.66214 6.03353 7.69801 6.03692 7.73315 6.03716C7.75327 6.03765 7.77436 6.03377 7.79399 6.03159C7.83706 6.02654 7.88013 6.02137 7.92317 6.01608L8.00582 6.00614H8.01382C8.01479 6.0202 8.01697 6.03401 8.01842 6.0488C7.93299 6.06144 7.84751 6.07381 7.762 6.08588C7.73679 6.08903 7.71473 6.09897 7.69098 6.10648L7.00168 6.33407C6.9972 6.33501 6.99298 6.33691 6.98932 6.33964C6.99513 6.33867 7.00071 6.3377 7.00652 6.33722L7.60518 6.2124L7.76321 6.17943C7.7683 6.17798 7.77508 6.17604 7.78066 6.17338C7.85846 6.14259 7.9365 6.11109 8.01479 6.07982L8.02521 6.07618C8.03087 6.08946 8.03677 6.10263 8.0429 6.11569L8.03006 6.12175C7.95274 6.15471 7.87591 6.18743 7.79908 6.22064C7.79302 6.2233 7.78696 6.22645 7.78066 6.23082L7.13547 6.65351C7.13232 6.65594 7.1282 6.65885 7.12553 6.66345C7.12868 6.66151 7.13231 6.6603 7.13498 6.65836L7.47115 6.48967C7.58846 6.43005 7.70673 6.37091 7.82525 6.31128C7.83281 6.30754 7.83989 6.3029 7.84634 6.29747C7.91299 6.24778 7.98037 6.19785 8.04702 6.14768C8.04999 6.14517 8.05315 6.1429 8.05648 6.1409C8.06569 6.15205 8.07393 6.16295 8.08362 6.17459L8.07441 6.18186C8.00946 6.23373 7.94329 6.28559 7.87809 6.33722C7.87067 6.34253 7.86392 6.34871 7.85798 6.35564L7.34439 6.9303C7.3423 6.93318 7.34066 6.93637 7.33954 6.93975C7.34221 6.93685 7.34584 6.93491 7.34851 6.93272C7.5412 6.7604 7.73412 6.58904 7.92729 6.41696C7.93168 6.41307 7.93558 6.40868 7.93893 6.40387L8.09598 6.20367C8.09816 6.20052 8.10083 6.19761 8.1035 6.19446C8.11465 6.20367 8.12555 6.21191 8.1367 6.22161C8.13573 6.22452 8.13355 6.22767 8.13161 6.23057L7.97916 6.43368C7.97481 6.4396 7.97092 6.44583 7.96753 6.45234C7.85192 6.68163 7.73655 6.9114 7.62118 7.14092C7.6193 7.14404 7.61806 7.1475 7.61754 7.1511H7.61827V7.14916Z" fill="#010088"/>
<path fill-rule="evenodd" clip-rule="evenodd" d="M7.62073 7.14917C7.6181 7.1518 7.61653 7.15468 7.61442 7.15705C7.61574 7.15757 7.61574 7.15836 7.61731 7.15862C7.61784 7.15495 7.61968 7.15258 7.6202 7.14917H7.62073Z" fill="#010088"/>
</svg>
