<svg width="360" height="158" viewBox="0 0 360 158" fill="none" xmlns="http://www.w3.org/2000/svg">
<mask id="mask0_269_38" style="mask-type:alpha" maskUnits="userSpaceOnUse" x="0" y="0" width="361" height="158">
<rect width="361" height="158" fill="#C4C4C4"/>
</mask>
<g mask="url(#mask0_269_38)">
<path d="M383.463 190.464C379.17 191.395 374.481 192.37 374.721 192.456C374.805 192.485 374.904 192.514 375.017 192.514C374.565 194.076 374.071 195.61 373.562 197.129C373.449 197.459 373.336 197.775 373.238 198.09C372.786 199.394 372.305 200.67 371.811 201.917C371.543 202.605 371.26 203.279 370.978 203.953C370.3 205.544 369.594 207.092 368.845 208.583C368.69 208.913 368.52 209.228 368.351 209.544C367.503 211.163 366.614 212.726 365.681 214.174C365.484 214.489 365.286 214.79 365.074 215.091C363.944 216.783 362.744 218.331 361.472 219.721C361.063 220.166 360.653 220.596 360.23 221.011C358.196 223.004 356.007 224.581 353.648 225.627C353.478 225.699 353.309 225.785 353.125 225.857C353.083 225.871 353.04 225.9 352.998 225.914L217.917 226L192.847 225.842L143.258 225.541L-6.53953 224.624C-6.53953 224.624 -12.9094 220.796 -19.5476 213.629C-22.669 205.042 -25.0983 193.546 -23.4882 180.401C-22.4854 172.273 -19.9572 163.528 -15.0845 154.411C-11.0309 146.828 -8.10728 139.102 -5.88984 131.404H13.4034V114.388C15.9598 113.543 18.6434 112.768 21.4823 112.066C25.0838 111.177 28.9255 110.403 32.9932 109.758C33.3887 109.701 33.7983 109.629 34.1938 109.572C36.1428 109.285 38.0072 108.941 39.8009 108.554V129.268H48.7414V124.437L59.2636 124.48V116.639H61.3822V115.091H61.6647V116.639H69.7859H71.4102V115.091H71.6927V116.639H73.6559V132.235H86.1696V137.969H93.1327V134.644H99.5873V121.412H102.808V115.248H103.302V121.412H111.014V109.844H111.776V121.412H116.875V121.255H116.861V119.793H116.875V118.402H116.861V116.094H116.875V114.618H116.861V112.31H116.875V110.819H116.861V108.511H116.875V106.92H116.861V104.598H116.875V102.576H116.861V100.254H116.875V98.7345H118.4V97H118.64V98.7345H129.911V97H130.151V98.7345H132.199V110.819L133.654 110.833V110.819H133.64V108.511H133.654V106.92H133.64V104.598H133.654V103.006H133.64V100.698H133.654H147.312H149.657C149.798 100.842 149.882 100.928 150.024 101.071V114.073H160.009V131.404H168.074V99.3653H169.825V97.129H170.136V99.3653H176.506V97.129H176.817V99.3653H185.842V97.129H186.153V99.3653H191.83V97.129H192.141V99.3653H194.472V129.268H203.384V124.437L213.906 124.48V116.639H216.025V115.091H216.307V116.639H224.428H226.053V115.091H226.335V116.639H228.298V132.235H240.826V137.969H247.789V134.644H254.244V121.412H257.464V115.248H257.944V121.412H265.656V109.844H266.419V121.412H271.517V121.255H271.503V119.793H271.517V118.402H271.503V116.094H271.517V114.618H271.503V112.31H271.517V110.819H271.503V108.511H271.517V106.92H271.503V104.598H271.517V102.576H271.503V100.254H271.517V98.7345H273.043V97H273.283V98.7345H284.54V97H284.78V98.7345H286.842V110.819L288.268 110.833H288.297V110.819H288.282V108.511H288.297V106.92H288.282V104.598H288.297V103.006H288.282V100.698H288.297H301.954H304.299C304.426 100.756 304.539 100.827 304.666 100.885V114.073H321.431V131.404H329.496V99.3653H331.247V97.129H331.558V99.3653H337.928V97.129H338.239V99.3653H347.264V97.129H347.575V99.3653H355.893V129.282H364.806V124.437H370.257C370.667 125.412 371.105 126.344 371.557 127.232C377.108 137.998 383.972 158.999 384 180.386C384 183.755 383.831 187.124 383.463 190.464Z" fill="#0066A6"/>
<path d="M383.463 190.464C379.17 191.395 374.481 192.37 374.721 192.456C374.805 192.485 374.904 192.514 375.017 192.514C374.565 194.076 374.071 195.61 373.562 197.129C373.449 197.459 373.336 197.775 373.238 198.09C372.786 199.394 372.305 200.67 371.811 201.917C371.543 202.605 371.26 203.279 370.978 203.953C370.3 205.544 369.594 207.092 368.845 208.583C368.69 208.913 368.52 209.228 368.351 209.544C367.503 211.163 366.614 212.726 365.681 214.174C365.484 214.489 365.286 214.79 365.074 215.091C363.944 216.783 362.744 218.331 361.472 219.721C361.063 220.166 360.653 220.596 360.23 221.011C358.196 223.004 356.007 224.581 353.648 225.627C353.478 225.699 353.309 225.785 353.125 225.857C353.083 225.871 353.04 225.9 352.998 225.914L217.917 226L192.847 225.842L143.258 225.541L-6.53953 224.624C-6.53953 224.624 -12.9094 220.796 -19.5476 213.629C-22.669 205.042 -25.0983 193.546 -23.4882 180.401C-22.4854 172.273 -19.9572 163.528 -15.0845 154.411C-11.0309 146.828 -8.10728 139.102 -5.88984 131.404H13.4034V114.388C15.9598 113.543 18.6434 112.768 21.4823 112.066C25.0838 111.177 28.9255 110.403 32.9932 109.758C33.3887 109.701 33.7983 109.629 34.1938 109.572C36.1428 109.285 38.0072 108.941 39.8009 108.554V129.268H48.7414V124.437L59.2636 124.48V116.639H61.3822V115.091H61.6647V116.639H69.7859H71.4102V115.091H71.6927V116.639H73.6559V132.235H86.1696V137.969H93.1327V134.644H99.5873V121.412H102.808V115.248H103.302V121.412H111.014V109.844H111.776V121.412H116.875V121.255H116.861V119.793H116.875V118.402H116.861V116.094H116.875V114.618H116.861V112.31H116.875V110.819H116.861V108.511H116.875V106.92H116.861V104.598H116.875V102.576H116.861V100.254H116.875V98.7345H118.4V97H118.64V98.7345H129.911V97H130.151V98.7345H132.199V110.819L133.654 110.833V110.819H133.64V108.511H133.654V106.92H133.64V104.598H133.654V103.006H133.64V100.698H133.654H147.312H149.657C149.798 100.842 149.882 100.928 150.024 101.071V114.073H160.009V131.404H168.074V99.3653H169.825V97.129H170.136V99.3653H176.506V97.129H176.817V99.3653H185.842V97.129H186.153V99.3653H191.83V97.129H192.141V99.3653H194.472V129.268H203.384V124.437L213.906 124.48V116.639H216.025V115.091H216.307V116.639H224.428H226.053V115.091H226.335V116.639H228.298V132.235H240.826V137.969H247.789V134.644H254.244V121.412H257.464V115.248H257.944V121.412H265.656V109.844H266.419V121.412H271.517V121.255H271.503V119.793H271.517V118.402H271.503V116.094H271.517V114.618H271.503V112.31H271.517V110.819H271.503V108.511H271.517V106.92H271.503V104.598H271.517V102.576H271.503V100.254H271.517V98.7345H273.043V97H273.283V98.7345H284.54V97H284.78V98.7345H286.842V110.819L288.268 110.833H288.297V110.819H288.282V108.511H288.297V106.92H288.282V104.598H288.297V103.006H288.282V100.698H288.297H301.954H304.299C304.426 100.756 304.539 100.827 304.666 100.885V114.073H321.431V131.404H329.496V99.3653H331.247V97.129H331.558V99.3653H337.928V97.129H338.239V99.3653H347.264V97.129H347.575V99.3653H355.893V129.282H364.806V124.437H370.257C370.667 125.412 371.105 126.344 371.557 127.232C377.108 137.998 383.972 158.999 384 180.386C384 183.755 383.831 187.124 383.463 190.464Z" fill="url(#paint0_linear_269_38)" fill-opacity="0.2"/>
<g opacity="0.796">
<path opacity="0.796" d="M246.68 139.995H246.304V136.613H246.734L246.68 139.995Z" fill="#6CACCC"/>
</g>
<g opacity="0.7951">
<path opacity="0.7951" d="M203.029 133.499H202.599V130.332H203.029V133.499Z" fill="#6CACCC"/>
</g>
<g opacity="0.6977">
<path opacity="0.6977" d="M197.653 158.516H197.277L197.331 140.532H197.761L197.653 158.516Z" fill="#6CACCC"/>
</g>
<g opacity="0.7558">
<path opacity="0.7558" d="M195.449 112.938H195.073V105.422H195.503L195.449 112.938Z" fill="#6CACCC"/>
</g>
<g opacity="0.9324">
<path opacity="0.9324" d="M272 66.0172H271.57V63.4403H272V66.0172Z" fill="#6CACCC"/>
</g>
<g opacity="0.9052">
<path opacity="0.9052" d="M250.766 115.192H250.336L250.389 110.307H250.766V115.192Z" fill="#6CACCC"/>
</g>
<g opacity="0.7976">
<path opacity="0.7976" d="M265.603 52.0054H265.173L265.227 48.0327H265.603V52.0054Z" fill="#6CACCC"/>
</g>
<g opacity="0.9842">
<path opacity="0.9842" d="M182.386 49.7506H182.01V47.0664H182.386V49.7506Z" fill="#6CACCC"/>
</g>
<g opacity="0.8391">
<path opacity="0.8391" d="M207.545 79.7068H207.168L207.276 58.6624H207.652L207.545 79.7068Z" fill="#6CACCC"/>
</g>
<g opacity="0.7104">
<path opacity="0.7104" d="M253.454 54.2602H253.024L253.077 44.8654H253.507L253.454 54.2602Z" fill="#6CACCC"/>
</g>
<g opacity="0.6665">
<path opacity="0.6665" d="M255.819 94.5238H255.389L255.443 85.9342H255.819V94.5238Z" fill="#6CACCC"/>
</g>
<g opacity="0.7544">
<path opacity="0.7544" d="M199.105 81.6932H198.675L198.782 68.3257H199.158L199.105 81.6932Z" fill="#6CACCC"/>
</g>
<g opacity="0.8958">
<path opacity="0.8958" d="M229.263 85.6121H228.833L228.94 66.0708H229.317L229.263 85.6121Z" fill="#6CACCC"/>
</g>
<g opacity="0.9806">
<path opacity="0.9806" d="M185.719 80.5657H185.289L185.397 64.5139H185.773L185.719 80.5657Z" fill="#6CACCC"/>
</g>
<g opacity="0.8135">
<path opacity="0.8135" d="M251.733 65.3192H251.303L251.357 52.8643H251.787L251.733 65.3192Z" fill="#6CACCC"/>
</g>
<g opacity="0.8601">
<path opacity="0.8601" d="M246.519 93.1816H246.089L246.143 90.1753L246.519 90.229V93.1816Z" fill="#6CACCC"/>
</g>
<g opacity="0.9117">
<path opacity="0.9117" d="M253.185 135.11H252.755L252.862 121.42H253.239L253.185 135.11Z" fill="#6CACCC"/>
</g>
<g opacity="0.7385">
<path opacity="0.7385" d="M244.315 148.96H243.939V145.632H244.315V148.96Z" fill="#6CACCC"/>
</g>
<g opacity="0.8109">
<path opacity="0.8109" d="M251.948 101.288H251.572V97.5302H252.002L251.948 101.288Z" fill="#6CACCC"/>
</g>
<g opacity="0.9949">
<path opacity="0.9949" d="M193.514 158.463H193.084L193.138 155.456H193.514V158.463Z" fill="#6CACCC"/>
</g>
<g opacity="0.8098">
<path opacity="0.8098" d="M223.134 75.1435H222.758L222.812 54.7433H223.242L223.134 75.1435Z" fill="#6CACCC"/>
</g>
<g opacity="0.9912">
<path opacity="0.9912" d="M239.1 82.3374H238.67L238.724 75.7341H239.1V82.3374Z" fill="#6CACCC"/>
</g>
<g opacity="0.6944">
<path opacity="0.6944" d="M176.258 125.661H175.828L175.882 120.829H176.258V125.661Z" fill="#6CACCC"/>
</g>
<g opacity="0.6226">
<path opacity="0.6226" d="M182.547 157.818H182.171V150.034H182.601L182.547 157.818Z" fill="#6CACCC"/>
</g>
<g opacity="0.9815">
<path opacity="0.9815" d="M261.625 59.7897H261.248V57.3202H261.625V59.7897Z" fill="#6CACCC"/>
</g>
<g opacity="0.8307">
<path opacity="0.8307" d="M243.616 71.4931H243.24V68.3257H243.67L243.616 71.4931Z" fill="#6CACCC"/>
</g>
<g opacity="0.7047">
<path opacity="0.7047" d="M221.468 133.929H221.092V130.869H221.522L221.468 133.929Z" fill="#6CACCC"/>
</g>
<g opacity="0.9657">
<path opacity="0.9657" d="M183.676 149.712H183.3V140.478L183.73 140.532L183.676 149.712Z" fill="#6CACCC"/>
</g>
<g opacity="0.9871">
<path opacity="0.9871" d="M238.187 119.917H237.81L237.864 103.167H238.294L238.187 119.917Z" fill="#6CACCC"/>
</g>
<g opacity="0.7471">
<path opacity="0.7471" d="M203.728 109.824H203.298L203.352 98.6576H203.782L203.728 109.824Z" fill="#6CACCC"/>
</g>
<g opacity="0.8136">
<path opacity="0.8136" d="M234.854 155.134H234.423V151.752H234.854V155.134Z" fill="#6CACCC"/>
</g>
<g opacity="0.9326">
<path opacity="0.9326" d="M200.395 131.191H199.965L200.072 114.333H200.449L200.395 131.191Z" fill="#6CACCC"/>
</g>
<g opacity="0.9126">
<path opacity="0.9126" d="M228.51 121.205H228.08L228.134 111.005H228.564L228.51 121.205Z" fill="#6CACCC"/>
</g>
<g opacity="0.6727">
<path opacity="0.6727" d="M253.077 74.7679H252.647L252.701 61.7761H253.131L253.077 74.7679Z" fill="#6CACCC"/>
</g>
<g opacity="0.8469">
<path opacity="0.8469" d="M271.301 122.869H270.925L270.979 102.201H271.409L271.301 122.869Z" fill="#6CACCC"/>
</g>
<g opacity="0.9615">
<path opacity="0.9615" d="M209.802 158.033H209.372L209.426 152.933H209.802V158.033Z" fill="#6CACCC"/>
</g>
<g opacity="0.9157">
<path opacity="0.9157" d="M192.869 143.968H192.439L192.546 124.265H192.923L192.869 143.968Z" fill="#6CACCC"/>
</g>
<g opacity="0.9657">
<path opacity="0.9657" d="M213.781 109.072H213.351L213.404 106.603H213.781V109.072Z" fill="#6CACCC"/>
</g>
<g opacity="0.6843">
<path opacity="0.6843" d="M193.353 91.8396H192.976V89.048H193.353V91.8396Z" fill="#6CACCC"/>
</g>
<g opacity="0.829">
<path opacity="0.829" d="M237.488 130.224H237.058L237.165 113.743H237.541L237.488 130.224Z" fill="#6CACCC"/>
</g>
<g opacity="0.915">
<path opacity="0.915" d="M271.462 78.4184H271.086V74.231L271.462 74.2846V78.4184Z" fill="#6CACCC"/>
</g>
<g opacity="0.8271">
<path opacity="0.8271" d="M257.647 140.263H257.27V134.251H257.7L257.647 140.263Z" fill="#6CACCC"/>
</g>
<g opacity="0.8476">
<path opacity="0.8476" d="M218.888 86.6321H218.511V77.9352H218.941L218.888 86.6321Z" fill="#6CACCC"/>
</g>
<g opacity="0.8754">
<path opacity="0.8754" d="M189.428 61.0244H188.998V57.5349H189.428V61.0244Z" fill="#6CACCC"/>
</g>
<g opacity="0.8695">
<path opacity="0.8695" d="M267.699 142.948H267.323V139.727H267.699V142.948Z" fill="#6CACCC"/>
</g>
<g opacity="0.9686">
<path opacity="0.9686" d="M174.43 154.168H174L174.054 143.807H174.43V154.168Z" fill="#6CACCC"/>
</g>
<g opacity="0.8364">
<path opacity="0.8364" d="M207.867 55.1729H207.491V51.1465H207.921L207.867 55.1729Z" fill="#6CACCC"/>
</g>
<g opacity="0.983">
<path opacity="0.983" d="M271.409 93.3964H271.032L271.086 78.4183H271.462L271.409 93.3964Z" fill="#6CACCC"/>
</g>
<g opacity="0.6695">
<path opacity="0.6695" d="M231.359 137.311H230.929L231.037 124.587H231.413L231.359 137.311Z" fill="#6CACCC"/>
</g>
<g opacity="0.9034">
<path opacity="0.9034" d="M238.402 107.247H238.025L238.133 86.9006H238.509L238.402 107.247Z" fill="#6CACCC"/>
</g>
<g opacity="0.8675">
<path opacity="0.8675" d="M181.096 141.015H180.72L180.773 130.815H181.15L181.096 141.015Z" fill="#6CACCC"/>
</g>
<g opacity="0.7556">
<path opacity="0.7556" d="M261.786 88.1354H261.41V80.6732H261.84L261.786 88.1354Z" fill="#6CACCC"/>
</g>
<g opacity="0.6567">
<path opacity="0.6567" d="M210.878 89.9606H210.448V87.4374H210.878V89.9606Z" fill="#6CACCC"/>
</g>
<g opacity="0.6731">
<path opacity="0.6731" d="M193.729 146.061H193.353V138.331H193.783L193.729 146.061Z" fill="#6CACCC"/>
</g>
<g opacity="0.6708">
<path opacity="0.6708" d="M226.145 56.6223H225.768L225.822 45.9927H226.199L226.145 56.6223Z" fill="#6CACCC"/>
</g>
<g opacity="0.7801">
<path opacity="0.7801" d="M227.435 89.4238H227.005V84.0553H227.435V89.4238Z" fill="#6CACCC"/>
</g>
<g opacity="0.6039">
<path opacity="0.6039" d="M197.17 60.9171H196.739L196.793 44.7579H197.223L197.17 60.9171Z" fill="#6CACCC"/>
</g>
<g opacity="0.8864">
<path opacity="0.8864" d="M237.111 93.8259H236.681L236.735 84.27H237.165L237.111 93.8259Z" fill="#6CACCC"/>
</g>
<g opacity="0.8779">
<path opacity="0.8779" d="M264.098 97.4228H263.668L263.721 94.7385H264.098V97.4228Z" fill="#6CACCC"/>
</g>
<g opacity="0.9546">
<path opacity="0.9546" d="M210.716 87.33H210.34L210.394 67.8424H210.824L210.716 87.33Z" fill="#6CACCC"/>
</g>
<g opacity="0.9403">
<path opacity="0.9403" d="M197.116 66.7687H196.686L196.739 63.8698H197.116V66.7687Z" fill="#6CACCC"/>
</g>
<g opacity="0.8593">
<path opacity="0.8593" d="M248.239 83.25H247.809L247.863 80.4584H248.239V83.25Z" fill="#6CACCC"/>
</g>
<g opacity="0.6842">
<path opacity="0.6842" d="M240.552 133.606H240.176V130.224H240.606L240.552 133.606Z" fill="#6CACCC"/>
</g>
<g opacity="0.7307">
<path opacity="0.7307" d="M226.091 125.607H225.715V123.138H226.091V125.607Z" fill="#6CACCC"/>
</g>
<g opacity="0.6765">
<path opacity="0.6765" d="M234.047 75.2509H233.671L233.725 58.2328H234.155L234.047 75.2509Z" fill="#6CACCC"/>
</g>
<g opacity="0.8681">
<path opacity="0.8681" d="M212.705 133.982H212.329L212.383 121.098H212.813L212.705 133.982Z" fill="#6CACCC"/>
</g>
<g opacity="0.8303">
<path opacity="0.8303" d="M248.024 123.997H247.594L247.648 119.004H248.024V123.997Z" fill="#6CACCC"/>
</g>
<g opacity="0.613">
<path opacity="0.613" d="M225.769 116.374H225.338L225.446 100.429H225.822L225.769 116.374Z" fill="#6CACCC"/>
</g>
<g opacity="0.8322">
<path opacity="0.8322" d="M187.493 136.774H187.063L187.171 117.018H187.547L187.493 136.774Z" fill="#6CACCC"/>
</g>
<g opacity="0.9343">
<path opacity="0.9343" d="M181.15 69.2383H180.773L180.827 59.1455H181.203L181.15 69.2383Z" fill="#6CACCC"/>
</g>
<g opacity="0.7833">
<path opacity="0.7833" d="M217.006 128.184H216.576L216.684 108.214H217.06L217.006 128.184Z" fill="#6CACCC"/>
</g>
<g opacity="0.843">
<path opacity="0.843" d="M207.76 69.7214H207.33L207.437 53.3475H207.813L207.76 69.7214Z" fill="#6CACCC"/>
</g>
<g opacity="0.7184">
<path opacity="0.7184" d="M189.751 88.6185H189.375L189.428 72.1909H189.805L189.751 88.6185Z" fill="#6CACCC"/>
</g>
<g opacity="0.7756">
<path opacity="0.7756" d="M176.957 58.0181H176.58V54.797H176.957V58.0181Z" fill="#6CACCC"/>
</g>
<g opacity="0.8912">
<path opacity="0.8912" d="M192.331 102.308H191.901V99.248H192.331V102.308Z" fill="#6CACCC"/>
</g>
<g opacity="0.9113">
<path opacity="0.9113" d="M231.521 60.2729H231.091L231.144 54.636H231.521V60.2729Z" fill="#6CACCC"/>
</g>
<g opacity="0.8122">
<path opacity="0.8122" d="M176.903 82.8742H176.527V79.7605H176.903V82.8742Z" fill="#6CACCC"/>
</g>
<g opacity="0.9709">
<path opacity="0.9709" d="M241.466 61.6687L241.036 61.615L241.089 59.0918H241.466V61.6687Z" fill="#6CACCC"/>
</g>
<g opacity="0.8207">
<path opacity="0.8207" d="M188.73 118.843H188.353V115.407H188.73V118.843Z" fill="#6CACCC"/>
</g>
<g opacity="0.8822">
<path opacity="0.8822" d="M202.115 94.8997H201.685L201.793 74.0162H202.223L202.115 94.8997Z" fill="#6CACCC"/>
</g>
<g opacity="0.9931">
<path opacity="0.9931" d="M261.625 129.526H261.248L261.356 107.999H261.732L261.625 129.526Z" fill="#6CACCC"/>
</g>
<g opacity="0.6674">
<path opacity="0.6674" d="M221.253 156.476H220.877L220.93 140.746H221.307L221.253 156.476Z" fill="#6CACCC"/>
</g>
<g opacity="0.6067">
<path opacity="0.6067" d="M245.067 111.22H244.691L244.745 98.6039H245.121L245.067 111.22Z" fill="#6CACCC"/>
</g>
<g opacity="0.9423">
<path opacity="0.9423" d="M264.581 140.639H264.205L264.313 118.682H264.689L264.581 140.639Z" fill="#6CACCC"/>
</g>
<g opacity="0.7183">
<path opacity="0.7183" d="M204.696 116.964H204.265L204.319 113.045H204.696V116.964Z" fill="#6CACCC"/>
</g>
<g opacity="0.8992">
<path opacity="0.8992" d="M242.433 58.3939H242.057L242.111 46.8517H242.487L242.433 58.3939Z" fill="#6CACCC"/>
</g>
<g opacity="0.9185">
<path opacity="0.9185" d="M232.703 110.415H232.327L232.381 94.7385H232.811L232.703 110.415Z" fill="#6CACCC"/>
</g>
<g opacity="0.638">
<path opacity="0.638" d="M217.221 61.8297H216.791L216.845 54.2064H217.221V61.8297Z" fill="#6CACCC"/>
</g>
<g opacity="0.935">
<path opacity="0.935" d="M179.053 168.448H178.677L178.731 156.583H179.107L179.053 168.448Z" fill="#6CACCC"/>
</g>
<g opacity="0.7346">
<path opacity="0.7346" d="M206.685 141.069H206.255L206.308 137.472H206.685V141.069Z" fill="#6CACCC"/>
</g>
<g opacity="0.6339">
<path opacity="0.6339" d="M183.408 95.3291H183.031L183.085 80.5121H183.515L183.408 95.3291Z" fill="#6CACCC"/>
</g>
<g opacity="0.7602">
<path opacity="0.7602" d="M231.413 149.39H231.037V145.954H231.467L231.413 149.39Z" fill="#6CACCC"/>
</g>
<g opacity="0.9536">
<path opacity="0.9536" d="M205.341 101.771H204.911L204.964 91.7859H205.394L205.341 101.771Z" fill="#6CACCC"/>
</g>
<g opacity="0.7137">
<path opacity="0.7137" d="M182.279 111.005H181.849V108.428H182.279V111.005Z" fill="#6CACCC"/>
</g>
<g opacity="0.8754">
<path opacity="0.8754" d="M224.478 99.6238H224.048L224.102 96.188H224.478V99.6238Z" fill="#6CACCC"/>
</g>
<g opacity="0.6142">
<path opacity="0.6142" d="M217.866 149.443H217.49L217.544 130.815H217.974L217.866 149.443Z" fill="#6CACCC"/>
</g>
<g opacity="0.7503">
<path opacity="0.7503" d="M182.225 100.375H181.849V97.5302H182.279L182.225 100.375Z" fill="#6CACCC"/>
</g>
<g opacity="0.8448">
<path opacity="0.8448" d="M263.13 71.2783H262.7L262.754 64.7288H263.13V71.2783Z" fill="#6CACCC"/>
</g>
<g opacity="0.7307">
<path opacity="0.7307" d="M216.253 97.7987H215.877V93.4502H216.307L216.253 97.7987Z" fill="#6CACCC"/>
</g>
<g opacity="0.6788">
<path opacity="0.6788" d="M231.682 149.175H231.252L231.359 129.849H231.789L231.682 149.175Z" fill="#6CACCC"/>
</g>
<g opacity="0.8917">
<path opacity="0.8917" d="M208.459 151.537H208.029L208.082 143.592H208.512L208.459 151.537Z" fill="#6CACCC"/>
</g>
<g opacity="0.7656">
<path opacity="0.7656" d="M218.457 78.7942H218.081L218.135 64.4066H218.511L218.457 78.7942Z" fill="#6CACCC"/>
</g>
<g opacity="0.9877">
<path opacity="0.9877" d="M256.303 146.867H255.873V144.397H256.303V146.867Z" fill="#6CACCC"/>
</g>
<g opacity="0.7857">
<path opacity="0.7857" d="M257.055 78.2036H256.625L256.679 75.1973H257.055V78.2036Z" fill="#6CACCC"/>
</g>
<g opacity="0.6446">
<path opacity="0.6446" d="M262.109 106.925H261.732V103.865H262.109V106.925Z" fill="#6CACCC"/>
</g>
<g opacity="0.7693">
<path opacity="0.7693" d="M221.36 159.214H220.984V156.261L221.36 156.315V159.214Z" fill="#6CACCC"/>
</g>
<g opacity="0.6278">
<path opacity="0.6278" d="M190.934 46.4759H190.504L190.557 41H190.934V46.4759Z" fill="#6CACCC"/>
</g>
<g opacity="0.7951">
<path opacity="0.7951" d="M248.078 141.23H247.702V137.042H248.078V141.23Z" fill="#6CACCC"/>
</g>
<g opacity="0.6977">
<path opacity="0.6977" d="M241.036 174.139H240.659L240.767 150.517H241.143L241.036 174.139Z" fill="#6CACCC"/>
</g>
<g opacity="0.7558">
<path opacity="0.7558" d="M238.133 114.172H237.756V104.241H238.187L238.133 114.172Z" fill="#6CACCC"/>
</g>
<g opacity="0.8391">
<path opacity="0.8391" d="M254.099 70.4193H253.669L253.776 42.7179H254.206L254.099 70.4193Z" fill="#6CACCC"/>
</g>
<g opacity="0.7544">
<path opacity="0.7544" d="M242.917 73.0499H242.541L242.595 55.4413H243.025L242.917 73.0499Z" fill="#6CACCC"/>
</g>
<g opacity="0.7975">
<path opacity="0.7975" d="M194.32 57.4812H193.944L193.998 50.2338H194.374L194.32 57.4812Z" fill="#6CACCC"/>
</g>
<g opacity="0.9381">
<path opacity="0.9381" d="M206.846 63.0108H206.47L206.577 42.6642H206.953L206.846 63.0108Z" fill="#6CACCC"/>
</g>
<g opacity="0.8308">
<path opacity="0.8308" d="M196.524 130.761H196.148V124.963H196.578L196.524 130.761Z" fill="#6CACCC"/>
</g>
<g opacity="0.9806">
<path opacity="0.9806" d="M225.338 71.5467H224.908L225.016 50.3949H225.392L225.338 71.5467Z" fill="#6CACCC"/>
</g>
<g opacity="0.9756">
<path opacity="0.9756" d="M207.383 76.1637H206.953L207.061 52.4886H207.491L207.383 76.1637Z" fill="#6CACCC"/>
</g>
<g opacity="0.8499">
<path opacity="0.8499" d="M179.967 117.34H179.591V112.616H180.021L179.967 117.34Z" fill="#6CACCC"/>
</g>
<g opacity="0.6725">
<path opacity="0.6725" d="M197.062 99.5702H196.686V96.1344H197.116L197.062 99.5702Z" fill="#6CACCC"/>
</g>
<g opacity="0.6595">
<path opacity="0.6595" d="M192.815 78.4184H192.439L192.546 58.3402H192.923L192.815 78.4184Z" fill="#6CACCC"/>
</g>
<g opacity="0.7332">
<path opacity="0.7332" d="M178.623 143.699H178.247L178.301 128.721H178.731L178.623 143.699Z" fill="#6CACCC"/>
</g>
<g opacity="0.6944">
<path opacity="0.6944" d="M212.867 130.868H212.437L212.49 124.534H212.867V130.868Z" fill="#6CACCC"/>
</g>
<g opacity="0.9666">
<path opacity="0.9666" d="M206.093 144.827H205.663L205.717 141.23H206.093V144.827Z" fill="#6CACCC"/>
</g>
<g opacity="0.9657">
<path opacity="0.9657" d="M222.651 162.543H222.221L222.274 150.41H222.704L222.651 162.543Z" fill="#6CACCC"/>
</g>
<g opacity="0.69">
<path opacity="0.69" d="M200.126 169.629H199.696L199.857 141.928L200.234 141.981L200.126 169.629Z" fill="#6CACCC"/>
</g>
<g opacity="0.7471">
<path opacity="0.7471" d="M248.992 110.039H248.615L248.669 95.3291H249.099L248.992 110.039Z" fill="#6CACCC"/>
</g>
<g opacity="0.9326">
<path opacity="0.9326" d="M244.637 138.17H244.207L244.315 115.998H244.691L244.637 138.17Z" fill="#6CACCC"/>
</g>
<g opacity="0.9157">
<path opacity="0.9157" d="M234.692 154.973H234.316L234.423 129.097H234.854L234.692 154.973Z" fill="#6CACCC"/>
</g>
<g opacity="0.9167">
<path opacity="0.9167" d="M208.297 85.5048H207.867L207.921 76.9689H208.297V85.5048Z" fill="#6CACCC"/>
</g>
<g opacity="0.9657">
<path opacity="0.9657" d="M262.27 109.072H261.84V105.798H262.27V109.072Z" fill="#6CACCC"/>
</g>
<g opacity="0.6843">
<path opacity="0.6843" d="M235.391 86.4174H234.961L235.015 82.7668H235.391V86.4174Z" fill="#6CACCC"/>
</g>
<g opacity="0.9937">
<path opacity="0.9937" d="M183.569 127.057H183.193V123.514H183.623L183.569 127.057Z" fill="#6CACCC"/>
</g>
<g opacity="0.6072">
<path opacity="0.6072" d="M181.795 65.8023H181.419V56.8906H181.849L181.795 65.8023Z" fill="#6CACCC"/>
</g>
<g opacity="0.7727">
<path opacity="0.7727" d="M190.02 117.394H189.59L189.697 101.342H190.073L190.02 117.394Z" fill="#6CACCC"/>
</g>
<g opacity="0.8476">
<path opacity="0.8476" d="M268.99 79.492H268.613L268.667 68.1108H269.043L268.99 79.492Z" fill="#6CACCC"/>
</g>
<g opacity="0.8481">
<path opacity="0.8481" d="M209.749 93.7722H209.372V90.0143H209.749V93.7722Z" fill="#6CACCC"/>
</g>
<g opacity="0.8754">
<path opacity="0.8754" d="M230.177 45.8317L229.8 45.7781V41.2148H230.23L230.177 45.8317Z" fill="#6CACCC"/>
</g>
<g opacity="0.9686">
<path opacity="0.9686" d="M210.448 168.448H210.018L210.071 154.812H210.501L210.448 168.448Z" fill="#6CACCC"/>
</g>
<g opacity="0.8675">
<path opacity="0.8675" d="M219.264 151.108H218.888L218.941 137.686H219.318L219.264 151.108Z" fill="#6CACCC"/>
</g>
<g opacity="0.6567">
<path opacity="0.6567" d="M258.399 83.8943H258.023V80.5658H258.453L258.399 83.8943Z" fill="#6CACCC"/>
</g>
<g opacity="0.877">
<path opacity="0.877" d="M178.892 85.6122H178.462L178.516 73.3184H178.946L178.892 85.6122Z" fill="#6CACCC"/>
</g>
<g opacity="0.6731">
<path opacity="0.6731" d="M235.875 157.765H235.499L235.552 147.618H235.929L235.875 157.765Z" fill="#6CACCC"/>
</g>
<g opacity="0.6377">
<path opacity="0.6377" d="M192.17 144.826H191.74L191.794 139.941H192.17V144.826Z" fill="#6CACCC"/>
</g>
<g opacity="0.9546">
<path opacity="0.9546" d="M258.238 80.4584H257.808L257.969 54.797H258.346L258.238 80.4584Z" fill="#6CACCC"/>
</g>
<g opacity="0.9403">
<path opacity="0.9403" d="M240.337 53.4012H239.907L239.96 49.5896H240.337V53.4012Z" fill="#6CACCC"/>
</g>
<g opacity="0.8681">
<path opacity="0.8681" d="M260.872 141.82H260.496L260.55 124.856H260.98L260.872 141.82Z" fill="#6CACCC"/>
</g>
<g opacity="0.8322">
<path opacity="0.8322" d="M227.65 145.524H227.22L227.327 119.541H227.758L227.65 145.524Z" fill="#6CACCC"/>
</g>
<g opacity="0.9343">
<path opacity="0.9343" d="M219.318 56.6223H218.941L218.995 43.3622H219.371L219.318 56.6223Z" fill="#6CACCC"/>
</g>
<g opacity="0.7833">
<path opacity="0.7833" d="M266.463 134.251H266.087L266.194 107.891H266.57L266.463 134.251Z" fill="#6CACCC"/>
</g>
<g opacity="0.9084">
<path opacity="0.9084" d="M193.353 92.43H192.923L193.084 64.6749H193.46L193.353 92.43Z" fill="#6CACCC"/>
</g>
<g opacity="0.7184">
<path opacity="0.7184" d="M230.66 82.1764H230.23L230.338 60.5414H230.714L230.66 82.1764Z" fill="#6CACCC"/>
</g>
<g opacity="0.8912">
<path opacity="0.8912" d="M233.993 100.161H233.617V96.1344H234.047L233.993 100.161Z" fill="#6CACCC"/>
</g>
<g opacity="0.6308">
<path opacity="0.6308" d="M206.792 113.099H206.416L206.47 99.6776H206.846L206.792 113.099Z" fill="#6CACCC"/>
</g>
<g opacity="0.8537">
<path opacity="0.8537" d="M181.634 157.711H181.203L181.311 139.727H181.687L181.634 157.711Z" fill="#6CACCC"/>
</g>
<g opacity="0.8122">
<path opacity="0.8122" d="M213.727 74.6068H213.351V70.473H213.727V74.6068Z" fill="#6CACCC"/>
</g>
<g opacity="0.8207">
<path opacity="0.8207" d="M229.317 121.903H228.886L228.94 117.394H229.317V121.903Z" fill="#6CACCC"/>
</g>
<g opacity="0.8822">
<path opacity="0.8822" d="M246.895 90.4438H246.519L246.626 62.9572H247.003L246.895 90.4438Z" fill="#6CACCC"/>
</g>
<g opacity="0.7068">
<path opacity="0.7068" d="M184.859 170.917H184.483L184.59 150.088H184.967L184.859 170.917Z" fill="#6CACCC"/>
</g>
<g opacity="0.7183">
<path opacity="0.7183" d="M250.282 119.434H249.906V114.28H250.336L250.282 119.434Z" fill="#6CACCC"/>
</g>
<g opacity="0.655">
<path opacity="0.655" d="M195.933 90.2827H195.503V85.1826H195.933V90.2827Z" fill="#6CACCC"/>
</g>
<g opacity="0.7346">
<path opacity="0.7346" d="M252.916 151.161H252.486L252.54 146.491H252.916V151.161Z" fill="#6CACCC"/>
</g>
<g opacity="0.6339">
<path opacity="0.6339" d="M222.328 90.9806H221.898L222.005 71.493H222.382L222.328 90.9806Z" fill="#6CACCC"/>
</g>
<g opacity="0.9536">
<path opacity="0.9536" d="M251.142 99.4629H250.712L250.82 86.3638H251.196L251.142 99.4629Z" fill="#6CACCC"/>
</g>
<g opacity="0.7137">
<path opacity="0.7137" d="M220.769 111.596H220.393V108.214H220.769V111.596Z" fill="#6CACCC"/>
</g>
<g opacity="0.6142">
<path opacity="0.6142" d="M267.646 162.167H267.269L267.377 137.686H267.753L267.646 162.167Z" fill="#6CACCC"/>
</g>
<g opacity="0.7097">
<path opacity="0.7097" d="M204.964 130.332H204.534L204.642 104.026H205.072L204.964 130.332Z" fill="#6CACCC"/>
</g>
<g opacity="0.7503">
<path opacity="0.7503" d="M220.769 97.5838H220.339L220.393 93.9332H220.769V97.5838Z" fill="#6CACCC"/>
</g>
<g opacity="0.7307">
<path opacity="0.7307" d="M265.549 94.2017H265.119L265.173 88.5111H265.549V94.2017Z" fill="#6CACCC"/>
</g>
<g opacity="0.8917">
<path opacity="0.8917" d="M255.228 164.958H254.851L254.905 154.49H255.281L255.228 164.958Z" fill="#6CACCC"/>
</g>
<g opacity="0.7656">
<path opacity="0.7656" d="M268.398 69.2382H268.022L268.129 50.2875H268.506L268.398 69.2382Z" fill="#6CACCC"/>
</g>
<g opacity="0.8753">
<path opacity="0.8753" d="M177.763 90.6586H177.333V86.9006H177.763V90.6586Z" fill="#6CACCC"/>
</g>
<g opacity="0.794">
<path opacity="0.794" d="M179.806 101.61H179.376V96.9933H179.806V101.61Z" fill="#6CACCC"/>
</g>
<g opacity="0.9157">
<path opacity="0.9157" d="M261.571 168.233H261.195L261.302 142.303H261.732L261.571 168.233Z" fill="#6CACCC"/>
</g>
<g opacity="0.9157">
<path opacity="0.9157" d="M249.422 163.24L248.992 163.187L249.099 137.311H249.529L249.422 163.24Z" fill="#6CACCC"/>
</g>
<g opacity="0.7951">
<path opacity="0.7951" d="M331.971 157.499H332.401V154.332H331.971V157.499Z" fill="#6CACCC"/>
</g>
<g opacity="0.7558">
<path opacity="0.7558" d="M339.551 136.938H339.927V129.422H339.497L339.551 136.938Z" fill="#6CACCC"/>
</g>
<g opacity="0.9324">
<path opacity="0.9324" d="M263 90.0172H263.43V87.4403H263V90.0172Z" fill="#6CACCC"/>
</g>
<g opacity="0.9052">
<path opacity="0.9052" d="M284.234 139.192H284.664L284.611 134.307H284.234V139.192Z" fill="#6CACCC"/>
</g>
<g opacity="0.7976">
<path opacity="0.7976" d="M269.397 76.0054H269.827L269.773 72.0327H269.397V76.0054Z" fill="#6CACCC"/>
</g>
<g opacity="0.9842">
<path opacity="0.9842" d="M352.614 73.7506H352.99V71.0664H352.614V73.7506Z" fill="#6CACCC"/>
</g>
<g opacity="0.8391">
<path opacity="0.8391" d="M327.455 103.707H327.832L327.724 82.6624H327.348L327.455 103.707Z" fill="#6CACCC"/>
</g>
<g opacity="0.7104">
<path opacity="0.7104" d="M281.546 78.2602H281.976L281.923 68.8654H281.493L281.546 78.2602Z" fill="#6CACCC"/>
</g>
<g opacity="0.6665">
<path opacity="0.6665" d="M279.181 118.524H279.611L279.557 109.934H279.181V118.524Z" fill="#6CACCC"/>
</g>
<g opacity="0.7544">
<path opacity="0.7544" d="M335.895 105.693H336.325L336.218 92.3257H335.842L335.895 105.693Z" fill="#6CACCC"/>
</g>
<g opacity="0.8958">
<path opacity="0.8958" d="M305.737 109.612H306.167L306.06 90.0708H305.683L305.737 109.612Z" fill="#6CACCC"/>
</g>
<g opacity="0.9806">
<path opacity="0.9806" d="M349.281 104.566H349.711L349.603 88.5139H349.227L349.281 104.566Z" fill="#6CACCC"/>
</g>
<g opacity="0.8135">
<path opacity="0.8135" d="M283.267 89.3192H283.697L283.643 76.8643H283.213L283.267 89.3192Z" fill="#6CACCC"/>
</g>
<g opacity="0.8601">
<path opacity="0.8601" d="M288.481 117.182H288.911L288.857 114.175L288.481 114.229V117.182Z" fill="#6CACCC"/>
</g>
<g opacity="0.9117">
<path opacity="0.9117" d="M281.815 159.11H282.245L282.138 145.42H281.761L281.815 159.11Z" fill="#6CACCC"/>
</g>
<g opacity="0.8109">
<path opacity="0.8109" d="M283.052 125.288H283.428V121.53H282.998L283.052 125.288Z" fill="#6CACCC"/>
</g>
<g opacity="0.8098">
<path opacity="0.8098" d="M311.866 99.1435H312.242L312.188 78.7433H311.758L311.866 99.1435Z" fill="#6CACCC"/>
</g>
<g opacity="0.9912">
<path opacity="0.9912" d="M295.9 106.337H296.33L296.276 99.7341H295.9V106.337Z" fill="#6CACCC"/>
</g>
<g opacity="0.6944">
<path opacity="0.6944" d="M358.742 149.661H359.172L359.118 144.829H358.742V149.661Z" fill="#6CACCC"/>
</g>
<g opacity="0.9815">
<path opacity="0.9815" d="M273.375 83.7897H273.752V81.3202H273.375V83.7897Z" fill="#6CACCC"/>
</g>
<g opacity="0.8307">
<path opacity="0.8307" d="M291.384 95.4931H291.76V92.3257H291.33L291.384 95.4931Z" fill="#6CACCC"/>
</g>
<g opacity="0.7047">
<path opacity="0.7047" d="M313.532 157.929H313.908V154.869H313.478L313.532 157.929Z" fill="#6CACCC"/>
</g>
<g opacity="0.9871">
<path opacity="0.9871" d="M296.813 143.917H297.19L297.136 127.167H296.706L296.813 143.917Z" fill="#6CACCC"/>
</g>
<g opacity="0.7471">
<path opacity="0.7471" d="M331.272 133.824H331.702L331.648 122.658H331.218L331.272 133.824Z" fill="#6CACCC"/>
</g>
<g opacity="0.9326">
<path opacity="0.9326" d="M334.605 155.191H335.035L334.928 138.333H334.551L334.605 155.191Z" fill="#6CACCC"/>
</g>
<g opacity="0.9126">
<path opacity="0.9126" d="M306.49 145.205H306.92L306.866 135.005H306.436L306.49 145.205Z" fill="#6CACCC"/>
</g>
<g opacity="0.6727">
<path opacity="0.6727" d="M281.923 98.7679H282.353L282.299 85.7761H281.869L281.923 98.7679Z" fill="#6CACCC"/>
</g>
<g opacity="0.8469">
<path opacity="0.8469" d="M263.699 146.869H264.075L264.021 126.201H263.591L263.699 146.869Z" fill="#6CACCC"/>
</g>
<g opacity="0.9157">
<path opacity="0.9157" d="M342.131 167.968H342.561L342.454 148.265H342.077L342.131 167.968Z" fill="#6CACCC"/>
</g>
<g opacity="0.9657">
<path opacity="0.9657" d="M321.219 133.072H321.649L321.596 130.603H321.219V133.072Z" fill="#6CACCC"/>
</g>
<g opacity="0.6843">
<path opacity="0.6843" d="M341.647 115.84H342.024V113.048H341.647V115.84Z" fill="#6CACCC"/>
</g>
<g opacity="0.829">
<path opacity="0.829" d="M297.512 154.224H297.942L297.835 137.743H297.459L297.512 154.224Z" fill="#6CACCC"/>
</g>
<g opacity="0.915">
<path opacity="0.915" d="M263.538 102.418H263.914V98.231L263.538 98.2846V102.418Z" fill="#6CACCC"/>
</g>
<g opacity="0.8476">
<path opacity="0.8476" d="M316.112 110.632H316.489V101.935H316.059L316.112 110.632Z" fill="#6CACCC"/>
</g>
<g opacity="0.8754">
<path opacity="0.8754" d="M345.572 85.0244H346.002V81.5349H345.572V85.0244Z" fill="#6CACCC"/>
</g>
<g opacity="0.8364">
<path opacity="0.8364" d="M327.133 79.1729H327.509V75.1465H327.079L327.133 79.1729Z" fill="#6CACCC"/>
</g>
<g opacity="0.983">
<path opacity="0.983" d="M263.591 117.396H263.968L263.914 102.418H263.538L263.591 117.396Z" fill="#6CACCC"/>
</g>
<g opacity="0.6695">
<path opacity="0.6695" d="M303.641 161.311H304.071L303.963 148.587H303.587L303.641 161.311Z" fill="#6CACCC"/>
</g>
<g opacity="0.9034">
<path opacity="0.9034" d="M296.598 131.247H296.975L296.867 110.901H296.491L296.598 131.247Z" fill="#6CACCC"/>
</g>
<g opacity="0.8675">
<path opacity="0.8675" d="M353.904 165.015H354.28L354.227 154.815H353.85L353.904 165.015Z" fill="#6CACCC"/>
</g>
<g opacity="0.7556">
<path opacity="0.7556" d="M273.214 112.135H273.59V104.673H273.16L273.214 112.135Z" fill="#6CACCC"/>
</g>
<g opacity="0.6567">
<path opacity="0.6567" d="M324.122 113.961H324.552V111.437H324.122V113.961Z" fill="#6CACCC"/>
</g>
<g opacity="0.6708">
<path opacity="0.6708" d="M308.855 80.6223H309.232L309.178 69.9927H308.801L308.855 80.6223Z" fill="#6CACCC"/>
</g>
<g opacity="0.7801">
<path opacity="0.7801" d="M307.565 113.424H307.995V108.055H307.565V113.424Z" fill="#6CACCC"/>
</g>
<g opacity="0.6039">
<path opacity="0.6039" d="M337.83 84.9171H338.261L338.207 68.7579H337.777L337.83 84.9171Z" fill="#6CACCC"/>
</g>
<g opacity="0.8864">
<path opacity="0.8864" d="M297.889 117.826H298.319L298.265 108.27H297.835L297.889 117.826Z" fill="#6CACCC"/>
</g>
<g opacity="0.8779">
<path opacity="0.8779" d="M270.902 121.423H271.332L271.279 118.739H270.902V121.423Z" fill="#6CACCC"/>
</g>
<g opacity="0.9546">
<path opacity="0.9546" d="M324.284 111.33H324.66L324.606 91.8424H324.176L324.284 111.33Z" fill="#6CACCC"/>
</g>
<g opacity="0.9403">
<path opacity="0.9403" d="M337.884 90.7687H338.314L338.261 87.8698H337.884V90.7687Z" fill="#6CACCC"/>
</g>
<g opacity="0.8593">
<path opacity="0.8593" d="M286.761 107.25H287.191L287.137 104.458H286.761V107.25Z" fill="#6CACCC"/>
</g>
<g opacity="0.6842">
<path opacity="0.6842" d="M294.448 157.606H294.824V154.224H294.394L294.448 157.606Z" fill="#6CACCC"/>
</g>
<g opacity="0.7307">
<path opacity="0.7307" d="M308.909 149.607H309.285V147.138H308.909V149.607Z" fill="#6CACCC"/>
</g>
<g opacity="0.6765">
<path opacity="0.6765" d="M300.953 99.2509H301.329L301.275 82.2328H300.845L300.953 99.2509Z" fill="#6CACCC"/>
</g>
<g opacity="0.8681">
<path opacity="0.8681" d="M322.295 157.982H322.671L322.617 145.098H322.187L322.295 157.982Z" fill="#6CACCC"/>
</g>
<g opacity="0.8303">
<path opacity="0.8303" d="M286.976 147.997H287.406L287.352 143.004H286.976V147.997Z" fill="#6CACCC"/>
</g>
<g opacity="0.613">
<path opacity="0.613" d="M309.231 140.374H309.662L309.554 124.429H309.178L309.231 140.374Z" fill="#6CACCC"/>
</g>
<g opacity="0.8322">
<path opacity="0.8322" d="M347.507 160.774H347.937L347.829 141.018H347.453L347.507 160.774Z" fill="#6CACCC"/>
</g>
<g opacity="0.9343">
<path opacity="0.9343" d="M353.85 93.2383H354.227L354.173 83.1455H353.797L353.85 93.2383Z" fill="#6CACCC"/>
</g>
<g opacity="0.7833">
<path opacity="0.7833" d="M317.994 152.184H318.424L318.316 132.214H317.94L317.994 152.184Z" fill="#6CACCC"/>
</g>
<g opacity="0.843">
<path opacity="0.843" d="M327.24 93.7214H327.67L327.563 77.3475H327.187L327.24 93.7214Z" fill="#6CACCC"/>
</g>
<g opacity="0.7184">
<path opacity="0.7184" d="M345.249 112.618H345.625L345.572 96.1909H345.195L345.249 112.618Z" fill="#6CACCC"/>
</g>
<g opacity="0.7756">
<path opacity="0.7756" d="M358.043 82.0181H358.42V78.797H358.043V82.0181Z" fill="#6CACCC"/>
</g>
<g opacity="0.8912">
<path opacity="0.8912" d="M342.669 126.308H343.099V123.248H342.669V126.308Z" fill="#6CACCC"/>
</g>
<g opacity="0.9113">
<path opacity="0.9113" d="M303.479 84.2729H303.909L303.856 78.636H303.479V84.2729Z" fill="#6CACCC"/>
</g>
<g opacity="0.8122">
<path opacity="0.8122" d="M358.097 106.874H358.473V103.76H358.097V106.874Z" fill="#6CACCC"/>
</g>
<g opacity="0.9709">
<path opacity="0.9709" d="M293.534 85.6687L293.964 85.615L293.911 83.0918H293.534V85.6687Z" fill="#6CACCC"/>
</g>
<g opacity="0.8207">
<path opacity="0.8207" d="M346.27 142.843H346.647V139.407H346.27V142.843Z" fill="#6CACCC"/>
</g>
<g opacity="0.8822">
<path opacity="0.8822" d="M332.885 118.9H333.315L333.207 98.0162H332.777L332.885 118.9Z" fill="#6CACCC"/>
</g>
<g opacity="0.9931">
<path opacity="0.9931" d="M273.375 153.526H273.752L273.644 131.999H273.268L273.375 153.526Z" fill="#6CACCC"/>
</g>
<g opacity="0.6067">
<path opacity="0.6067" d="M289.933 135.22H290.309L290.255 122.604H289.879L289.933 135.22Z" fill="#6CACCC"/>
</g>
<g opacity="0.9423">
<path opacity="0.9423" d="M270.419 164.639H270.795L270.687 142.682H270.311L270.419 164.639Z" fill="#6CACCC"/>
</g>
<g opacity="0.7183">
<path opacity="0.7183" d="M330.304 140.964H330.735L330.681 137.045H330.304V140.964Z" fill="#6CACCC"/>
</g>
<g opacity="0.8992">
<path opacity="0.8992" d="M292.567 82.3939H292.943L292.889 70.8517H292.513L292.567 82.3939Z" fill="#6CACCC"/>
</g>
<g opacity="0.9185">
<path opacity="0.9185" d="M302.297 134.415H302.673L302.619 118.739H302.189L302.297 134.415Z" fill="#6CACCC"/>
</g>
<g opacity="0.638">
<path opacity="0.638" d="M317.779 85.8297H318.209L318.155 78.2064H317.779V85.8297Z" fill="#6CACCC"/>
</g>
<g opacity="0.6339">
<path opacity="0.6339" d="M351.592 119.329H351.969L351.915 104.512H351.485L351.592 119.329Z" fill="#6CACCC"/>
</g>
<g opacity="0.9536">
<path opacity="0.9536" d="M329.659 125.771H330.089L330.036 115.786H329.606L329.659 125.771Z" fill="#6CACCC"/>
</g>
<g opacity="0.7137">
<path opacity="0.7137" d="M352.721 135.005H353.151V132.428H352.721V135.005Z" fill="#6CACCC"/>
</g>
<g opacity="0.8754">
<path opacity="0.8754" d="M310.522 123.624H310.952L310.898 120.188H310.522V123.624Z" fill="#6CACCC"/>
</g>
<g opacity="0.6142">
<path opacity="0.6142" d="M317.134 173.443H317.51L317.456 154.815H317.026L317.134 173.443Z" fill="#6CACCC"/>
</g>
<g opacity="0.7503">
<path opacity="0.7503" d="M352.775 124.375H353.151V121.53H352.721L352.775 124.375Z" fill="#6CACCC"/>
</g>
<g opacity="0.8448">
<path opacity="0.8448" d="M271.87 95.2783H272.3L272.246 88.7288H271.87V95.2783Z" fill="#6CACCC"/>
</g>
<g opacity="0.7307">
<path opacity="0.7307" d="M318.747 121.799H319.123V117.45H318.693L318.747 121.799Z" fill="#6CACCC"/>
</g>
<g opacity="0.6788">
<path opacity="0.6788" d="M303.318 173.175H303.748L303.641 153.849H303.211L303.318 173.175Z" fill="#6CACCC"/>
</g>
<g opacity="0.7656">
<path opacity="0.7656" d="M316.543 102.794H316.919L316.865 88.4066H316.489L316.543 102.794Z" fill="#6CACCC"/>
</g>
<g opacity="0.7857">
<path opacity="0.7857" d="M277.945 102.204H278.375L278.321 99.1973H277.945V102.204Z" fill="#6CACCC"/>
</g>
<g opacity="0.6446">
<path opacity="0.6446" d="M272.891 130.925H273.268V127.865H272.891V130.925Z" fill="#6CACCC"/>
</g>
<g opacity="0.6278">
<path opacity="0.6278" d="M344.066 70.4759H344.496L344.443 65H344.066V70.4759Z" fill="#6CACCC"/>
</g>
<g opacity="0.7558">
<path opacity="0.7558" d="M296.867 138.172H297.244V128.241H296.813L296.867 138.172Z" fill="#6CACCC"/>
</g>
<g opacity="0.8391">
<path opacity="0.8391" d="M280.901 94.4193H281.331L281.224 66.7179H280.794L280.901 94.4193Z" fill="#6CACCC"/>
</g>
<g opacity="0.7544">
<path opacity="0.7544" d="M292.083 97.0499H292.459L292.405 79.4413H291.975L292.083 97.0499Z" fill="#6CACCC"/>
</g>
<g opacity="0.7975">
<path opacity="0.7975" d="M340.68 81.4812H341.056L341.002 74.2338H340.626L340.68 81.4812Z" fill="#6CACCC"/>
</g>
<g opacity="0.9381">
<path opacity="0.9381" d="M328.154 87.0108H328.53L328.423 66.6642H328.047L328.154 87.0108Z" fill="#6CACCC"/>
</g>
<g opacity="0.8308">
<path opacity="0.8308" d="M338.476 154.761H338.852V148.963H338.422L338.476 154.761Z" fill="#6CACCC"/>
</g>
<g opacity="0.9806">
<path opacity="0.9806" d="M309.662 95.5467H310.092L309.984 74.3949H309.608L309.662 95.5467Z" fill="#6CACCC"/>
</g>
<g opacity="0.9756">
<path opacity="0.9756" d="M327.617 100.164H328.047L327.939 76.4886H327.509L327.617 100.164Z" fill="#6CACCC"/>
</g>
<g opacity="0.8499">
<path opacity="0.8499" d="M355.033 141.34H355.409V136.616H354.979L355.033 141.34Z" fill="#6CACCC"/>
</g>
<g opacity="0.6725">
<path opacity="0.6725" d="M337.938 123.57H338.314V120.134H337.884L337.938 123.57Z" fill="#6CACCC"/>
</g>
<g opacity="0.6595">
<path opacity="0.6595" d="M342.185 102.418H342.561L342.454 82.3402H342.077L342.185 102.418Z" fill="#6CACCC"/>
</g>
<g opacity="0.7332">
<path opacity="0.7332" d="M356.377 167.699H356.753L356.699 152.721H356.269L356.377 167.699Z" fill="#6CACCC"/>
</g>
<g opacity="0.6944">
<path opacity="0.6944" d="M322.133 154.868H322.563L322.51 148.534H322.133V154.868Z" fill="#6CACCC"/>
</g>
<g opacity="0.7471">
<path opacity="0.7471" d="M286.008 134.039H286.385L286.331 119.329H285.901L286.008 134.039Z" fill="#6CACCC"/>
</g>
<g opacity="0.9326">
<path opacity="0.9326" d="M290.363 162.17H290.793L290.685 139.998H290.309L290.363 162.17Z" fill="#6CACCC"/>
</g>
<g opacity="0.9157">
<path opacity="0.9157" d="M300.308 178.973H300.684L300.577 153.097H300.146L300.308 178.973Z" fill="#6CACCC"/>
</g>
<g opacity="0.9167">
<path opacity="0.9167" d="M326.703 109.505H327.133L327.079 100.969H326.703V109.505Z" fill="#6CACCC"/>
</g>
<g opacity="0.9657">
<path opacity="0.9657" d="M272.73 133.072H273.16V129.798H272.73V133.072Z" fill="#6CACCC"/>
</g>
<g opacity="0.6843">
<path opacity="0.6843" d="M299.609 110.417H300.039L299.985 106.767H299.609V110.417Z" fill="#6CACCC"/>
</g>
<g opacity="0.9937">
<path opacity="0.9937" d="M351.431 151.057H351.807V147.514H351.377L351.431 151.057Z" fill="#6CACCC"/>
</g>
<g opacity="0.6072">
<path opacity="0.6072" d="M353.205 89.8023H353.581V80.8906H353.151L353.205 89.8023Z" fill="#6CACCC"/>
</g>
<g opacity="0.7727">
<path opacity="0.7727" d="M344.98 141.394H345.41L345.303 125.342H344.927L344.98 141.394Z" fill="#6CACCC"/>
</g>
<g opacity="0.8476">
<path opacity="0.8476" d="M266.01 103.492H266.387L266.333 92.1108H265.957L266.01 103.492Z" fill="#6CACCC"/>
</g>
<g opacity="0.8481">
<path opacity="0.8481" d="M325.251 117.772H325.628V114.014H325.251V117.772Z" fill="#6CACCC"/>
</g>
<g opacity="0.8754">
<path opacity="0.8754" d="M304.823 69.8317L305.2 69.7781V65.2148H304.77L304.823 69.8317Z" fill="#6CACCC"/>
</g>
<g opacity="0.6567">
<path opacity="0.6567" d="M276.601 107.894H276.977V104.566H276.547L276.601 107.894Z" fill="#6CACCC"/>
</g>
<g opacity="0.877">
<path opacity="0.877" d="M356.108 109.612H356.538L356.484 97.3184H356.054L356.108 109.612Z" fill="#6CACCC"/>
</g>
<g opacity="0.9546">
<path opacity="0.9546" d="M276.762 104.458H277.192L277.031 78.797H276.654L276.762 104.458Z" fill="#6CACCC"/>
</g>
<g opacity="0.9403">
<path opacity="0.9403" d="M294.663 77.4012H295.093L295.04 73.5896H294.663V77.4012Z" fill="#6CACCC"/>
</g>
<g opacity="0.8681">
<path opacity="0.8681" d="M274.128 165.82H274.504L274.45 148.856H274.02L274.128 165.82Z" fill="#6CACCC"/>
</g>
<g opacity="0.8322">
<path opacity="0.8322" d="M307.35 169.524H307.78L307.673 143.541H307.242L307.35 169.524Z" fill="#6CACCC"/>
</g>
<g opacity="0.9343">
<path opacity="0.9343" d="M315.682 80.6223H316.059L316.005 67.3622H315.629L315.682 80.6223Z" fill="#6CACCC"/>
</g>
<g opacity="0.7833">
<path opacity="0.7833" d="M268.537 158.251H268.913L268.806 131.891H268.43L268.537 158.251Z" fill="#6CACCC"/>
</g>
<g opacity="0.9084">
<path opacity="0.9084" d="M341.647 116.43H342.077L341.916 88.6749H341.54L341.647 116.43Z" fill="#6CACCC"/>
</g>
<g opacity="0.7184">
<path opacity="0.7184" d="M304.34 106.176H304.77L304.662 84.5414H304.286L304.34 106.176Z" fill="#6CACCC"/>
</g>
<g opacity="0.8912">
<path opacity="0.8912" d="M301.007 124.161H301.383V120.134H300.953L301.007 124.161Z" fill="#6CACCC"/>
</g>
<g opacity="0.6308">
<path opacity="0.6308" d="M328.208 137.099H328.584L328.53 123.678H328.154L328.208 137.099Z" fill="#6CACCC"/>
</g>
<g opacity="0.8122">
<path opacity="0.8122" d="M321.273 98.6068H321.649V94.473H321.273V98.6068Z" fill="#6CACCC"/>
</g>
<g opacity="0.8207">
<path opacity="0.8207" d="M305.683 145.903H306.114L306.06 141.394H305.683V145.903Z" fill="#6CACCC"/>
</g>
<g opacity="0.8822">
<path opacity="0.8822" d="M288.105 114.444H288.481L288.374 86.9572H287.997L288.105 114.444Z" fill="#6CACCC"/>
</g>
<g opacity="0.7183">
<path opacity="0.7183" d="M284.718 143.434H285.094V138.28H284.664L284.718 143.434Z" fill="#6CACCC"/>
</g>
<g opacity="0.655">
<path opacity="0.655" d="M339.067 114.283H339.497V109.183H339.067V114.283Z" fill="#6CACCC"/>
</g>
<g opacity="0.6339">
<path opacity="0.6339" d="M312.672 114.981H313.102L312.995 95.493H312.618L312.672 114.981Z" fill="#6CACCC"/>
</g>
<g opacity="0.9536">
<path opacity="0.9536" d="M283.858 123.463H284.288L284.18 110.364H283.804L283.858 123.463Z" fill="#6CACCC"/>
</g>
<g opacity="0.7137">
<path opacity="0.7137" d="M314.231 135.596H314.607V132.214H314.231V135.596Z" fill="#6CACCC"/>
</g>
<g opacity="0.7097">
<path opacity="0.7097" d="M330.036 154.332H330.466L330.358 128.026H329.928L330.036 154.332Z" fill="#6CACCC"/>
</g>
<g opacity="0.7503">
<path opacity="0.7503" d="M314.231 121.584H314.661L314.607 117.933H314.231V121.584Z" fill="#6CACCC"/>
</g>
<g opacity="0.7307">
<path opacity="0.7307" d="M269.451 118.202H269.881L269.827 112.511H269.451V118.202Z" fill="#6CACCC"/>
</g>
<g opacity="0.7656">
<path opacity="0.7656" d="M266.602 93.2382H266.978L266.871 74.2875H266.494L266.602 93.2382Z" fill="#6CACCC"/>
</g>
<g opacity="0.8753">
<path opacity="0.8753" d="M357.237 114.659H357.667V110.901H357.237V114.659Z" fill="#6CACCC"/>
</g>
<g opacity="0.794">
<path opacity="0.794" d="M355.194 125.61H355.624V120.993H355.194V125.61Z" fill="#6CACCC"/>
</g>
<circle cx="24" cy="33" r="8" fill="#EAA800"/>
<circle cx="24" cy="33" r="11.5" stroke="#FF7033" stroke-linecap="round" stroke-dasharray="1 5"/>
<path d="M60.8289 45.6715C61.1897 43.2036 57.685 41.1471 55.005 40.9415C53.7681 40.8386 52.4281 41.0443 51.2427 40.633C48.6657 39.759 47.6349 36.4171 45.1095 35.3375C43.2026 34.5663 41.0379 35.2346 39.2341 36.1601C37.4302 37.0855 35.6263 38.2166 33.5648 38.3708C31.8125 38.4736 29.854 37.8053 28.3078 38.6793C27.174 39.3477 26.5555 40.633 25.4732 41.4556C24.4424 42.2268 23.0508 42.381 21.7623 42.4324C20.4739 42.4839 19.1339 42.5353 17.9485 43.0494C16.7631 43.5635 15.7838 44.8489 16.0415 46.0828L60.8289 45.6715Z" fill="#0066A6"/>
<path d="M60.8289 45.6715C61.1897 43.2036 57.685 41.1471 55.005 40.9415C53.7681 40.8386 52.4281 41.0443 51.2427 40.633C48.6657 39.759 47.6349 36.4171 45.1095 35.3375C43.2026 34.5663 41.0379 35.2346 39.2341 36.1601C37.4302 37.0855 35.6263 38.2166 33.5648 38.3708C31.8125 38.4736 29.854 37.8053 28.3078 38.6793C27.174 39.3477 26.5555 40.633 25.4732 41.4556C24.4424 42.2268 23.0508 42.381 21.7623 42.4324C20.4739 42.4839 19.1339 42.5353 17.9485 43.0494C16.7631 43.5635 15.7838 44.8489 16.0415 46.0828L60.8289 45.6715Z" fill="url(#paint1_linear_269_38)" fill-opacity="0.2"/>
<path d="M273.944 41.5941C274.752 35.8314 266.615 31.1221 260.465 30.6264C257.546 30.3786 254.502 30.8123 251.769 29.8828C245.744 27.7761 243.383 20.0925 237.544 17.6139C233.196 15.755 228.165 17.4281 223.879 19.5348C219.655 21.6416 215.431 24.368 210.71 24.6159C206.611 24.8637 202.138 23.3766 198.535 25.3595C195.864 26.8466 194.436 29.9448 191.951 31.7418C189.529 33.5387 186.361 33.9105 183.379 34.0344C180.398 34.2203 177.292 34.2203 174.497 35.4596C171.763 36.6989 169.527 39.6112 170.086 42.5235L273.944 41.5941Z" fill="#0066A6"/>
<path d="M273.944 41.5941C274.752 35.8314 266.615 31.1221 260.465 30.6264C257.546 30.3786 254.502 30.8123 251.769 29.8828C245.744 27.7761 243.383 20.0925 237.544 17.6139C233.196 15.755 228.165 17.4281 223.879 19.5348C219.655 21.6416 215.431 24.368 210.71 24.6159C206.611 24.8637 202.138 23.3766 198.535 25.3595C195.864 26.8466 194.436 29.9448 191.951 31.7418C189.529 33.5387 186.361 33.9105 183.379 34.0344C180.398 34.2203 177.292 34.2203 174.497 35.4596C171.763 36.6989 169.527 39.6112 170.086 42.5235L273.944 41.5941Z" fill="url(#paint2_linear_269_38)" fill-opacity="0.2"/>
<path d="M126.884 68.8641C127.245 66.3963 123.74 64.3397 121.06 64.1341C119.823 64.0313 118.483 64.2369 117.298 63.8256C114.721 62.9516 113.69 59.6098 111.165 58.5301C109.258 57.7589 107.093 58.4273 105.289 59.3527C103.485 60.2781 101.681 61.4092 99.6198 61.5634C97.8674 61.6663 95.909 60.9979 94.3628 61.8719C93.2289 62.5403 92.6105 63.8256 91.5281 64.6482C90.4974 65.4194 89.1058 65.5737 87.8173 65.6251C86.5289 65.6765 85.1888 65.7279 84.0034 66.242C82.818 66.7562 81.8388 68.0415 82.0965 69.2754L126.884 68.8641Z" fill="#0066A6"/>
<path d="M126.884 68.8641C127.245 66.3963 123.74 64.3397 121.06 64.1341C119.823 64.0313 118.483 64.2369 117.298 63.8256C114.721 62.9516 113.69 59.6098 111.165 58.5301C109.258 57.7589 107.093 58.4273 105.289 59.3527C103.485 60.2781 101.681 61.4092 99.6198 61.5634C97.8674 61.6663 95.909 60.9979 94.3628 61.8719C93.2289 62.5403 92.6105 63.8256 91.5281 64.6482C90.4974 65.4194 89.1058 65.5737 87.8173 65.6251C86.5289 65.6765 85.1888 65.7279 84.0034 66.242C82.818 66.7562 81.8388 68.0415 82.0965 69.2754L126.884 68.8641Z" fill="url(#paint3_linear_269_38)" fill-opacity="0.2"/>
<path d="M126.884 68.8639C126.884 68.8639 126.832 68.8639 126.678 68.8639C126.523 68.8639 126.317 68.8639 126.008 68.8639C125.389 68.8639 124.565 68.8639 123.431 68.9154C121.215 68.9668 117.968 68.9668 113.948 69.0696C105.908 69.1724 94.672 69.2752 82.148 69.4295H82.045V69.3267C81.8903 68.6069 82.148 67.8357 82.6119 67.2187C83.0757 66.6018 83.7457 66.1905 84.4673 65.9334C86.1165 65.3679 87.8689 65.6249 89.4666 65.3164C90.2397 65.1622 91.0127 64.9051 91.6312 64.391C92.2497 63.8769 92.7135 63.2085 93.2289 62.643C93.4866 62.3345 93.7958 62.0774 94.1566 61.8204C94.5174 61.6147 94.8782 61.4605 95.2905 61.3576C96.0636 61.2034 96.8882 61.2548 97.6613 61.3062C98.4344 61.3576 99.1559 61.4605 99.929 61.3576C100.651 61.3062 101.372 61.0492 102.042 60.7921C103.382 60.278 104.619 59.5068 105.908 58.8898C107.196 58.3243 108.536 57.913 109.876 58.0158C110.546 58.0672 111.165 58.2729 111.731 58.5813C112.298 58.8898 112.762 59.3011 113.175 59.7638C113.999 60.6379 114.669 61.6147 115.494 62.3859C116.267 63.1571 117.195 63.7226 118.174 63.8769C119.153 64.0311 120.081 63.9283 121.008 64.0311C122.812 64.1854 124.204 64.8537 125.235 65.6249C126.265 66.3447 126.781 67.2187 126.935 67.8871C126.987 68.1956 127.039 68.4526 126.987 68.6069C126.884 68.7611 126.884 68.8639 126.884 68.8639C126.884 68.8639 126.884 68.7611 126.884 68.6069C126.884 68.4526 126.884 68.1956 126.781 67.8871C126.626 67.2701 126.059 66.3961 125.08 65.6763C124.101 64.9566 122.658 64.2882 120.905 64.1854C120.029 64.1339 119.102 64.2368 118.071 64.0825C117.04 63.9283 116.061 63.3628 115.288 62.5916C114.463 61.8204 113.793 60.8435 112.968 59.9695C112.556 59.5582 112.092 59.1469 111.577 58.8384C111.061 58.5299 110.443 58.3757 109.773 58.3243C108.484 58.2215 107.196 58.6328 105.908 59.1983C104.671 59.7638 103.434 60.535 102.042 61.1006C101.372 61.3576 100.651 61.6147 99.8775 61.6661C99.1044 61.7689 98.3313 61.6661 97.5582 61.6147C96.7851 61.5633 96.012 61.5119 95.2905 61.6661C94.9297 61.7689 94.5689 61.8718 94.2597 62.0774C93.9505 62.2831 93.6412 62.5401 93.3835 62.8486C92.8681 63.4142 92.4043 64.0825 91.7343 64.6481C91.0643 65.1622 90.2396 65.4707 89.415 65.6249C87.7658 65.9334 86.065 65.6763 84.4673 66.2419C83.7973 66.4475 83.1788 66.9102 82.7665 67.4244C82.3542 67.9899 82.0965 68.6583 82.2511 69.2752L82.0965 69.1724C94.6205 69.0696 105.804 68.9668 113.845 68.9154C117.865 68.9154 121.112 68.8639 123.328 68.8639C124.462 68.8639 125.286 68.8639 125.905 68.8639C126.214 68.8639 126.42 68.8639 126.575 68.8639C126.781 68.8125 126.884 68.8639 126.884 68.8639Z" fill="#0066A6"/>
<path d="M126.884 68.8639C126.884 68.8639 126.832 68.8639 126.678 68.8639C126.523 68.8639 126.317 68.8639 126.008 68.8639C125.389 68.8639 124.565 68.8639 123.431 68.9154C121.215 68.9668 117.968 68.9668 113.948 69.0696C105.908 69.1724 94.672 69.2752 82.148 69.4295H82.045V69.3267C81.8903 68.6069 82.148 67.8357 82.6119 67.2187C83.0757 66.6018 83.7457 66.1905 84.4673 65.9334C86.1165 65.3679 87.8689 65.6249 89.4666 65.3164C90.2397 65.1622 91.0127 64.9051 91.6312 64.391C92.2497 63.8769 92.7135 63.2085 93.2289 62.643C93.4866 62.3345 93.7958 62.0774 94.1566 61.8204C94.5174 61.6147 94.8782 61.4605 95.2905 61.3576C96.0636 61.2034 96.8882 61.2548 97.6613 61.3062C98.4344 61.3576 99.1559 61.4605 99.929 61.3576C100.651 61.3062 101.372 61.0492 102.042 60.7921C103.382 60.278 104.619 59.5068 105.908 58.8898C107.196 58.3243 108.536 57.913 109.876 58.0158C110.546 58.0672 111.165 58.2729 111.731 58.5813C112.298 58.8898 112.762 59.3011 113.175 59.7638C113.999 60.6379 114.669 61.6147 115.494 62.3859C116.267 63.1571 117.195 63.7226 118.174 63.8769C119.153 64.0311 120.081 63.9283 121.008 64.0311C122.812 64.1854 124.204 64.8537 125.235 65.6249C126.265 66.3447 126.781 67.2187 126.935 67.8871C126.987 68.1956 127.039 68.4526 126.987 68.6069C126.884 68.7611 126.884 68.8639 126.884 68.8639C126.884 68.8639 126.884 68.7611 126.884 68.6069C126.884 68.4526 126.884 68.1956 126.781 67.8871C126.626 67.2701 126.059 66.3961 125.08 65.6763C124.101 64.9566 122.658 64.2882 120.905 64.1854C120.029 64.1339 119.102 64.2368 118.071 64.0825C117.04 63.9283 116.061 63.3628 115.288 62.5916C114.463 61.8204 113.793 60.8435 112.968 59.9695C112.556 59.5582 112.092 59.1469 111.577 58.8384C111.061 58.5299 110.443 58.3757 109.773 58.3243C108.484 58.2215 107.196 58.6328 105.908 59.1983C104.671 59.7638 103.434 60.535 102.042 61.1006C101.372 61.3576 100.651 61.6147 99.8775 61.6661C99.1044 61.7689 98.3313 61.6661 97.5582 61.6147C96.7851 61.5633 96.012 61.5119 95.2905 61.6661C94.9297 61.7689 94.5689 61.8718 94.2597 62.0774C93.9505 62.2831 93.6412 62.5401 93.3835 62.8486C92.8681 63.4142 92.4043 64.0825 91.7343 64.6481C91.0643 65.1622 90.2396 65.4707 89.415 65.6249C87.7658 65.9334 86.065 65.6763 84.4673 66.2419C83.7973 66.4475 83.1788 66.9102 82.7665 67.4244C82.3542 67.9899 82.0965 68.6583 82.2511 69.2752L82.0965 69.1724C94.6205 69.0696 105.804 68.9668 113.845 68.9154C117.865 68.9154 121.112 68.8639 123.328 68.8639C124.462 68.8639 125.286 68.8639 125.905 68.8639C126.214 68.8639 126.42 68.8639 126.575 68.8639C126.781 68.8125 126.884 68.8639 126.884 68.8639Z" fill="url(#paint4_linear_269_38)" fill-opacity="0.2"/>
<path d="M153.091 61.0951C153.091 61.0951 153.142 61.0437 153.246 60.9923C153.349 60.9408 153.503 60.838 153.709 60.6838C154.122 60.4267 154.689 60.0668 155.565 59.7583C156.389 59.4499 157.472 59.1414 158.709 59.0386C159.327 58.9871 160.049 58.9871 160.719 59.0386C161.44 59.09 162.213 59.2442 162.986 59.4499C164.533 59.9126 166.13 60.7866 167.47 62.0719C168.81 63.3572 169.996 65.1053 170.614 67.1618C171.233 69.1669 171.233 71.4805 170.614 73.7427C169.996 75.9534 168.81 78.0614 167.264 79.9637C165.718 81.8659 163.914 83.4083 162.059 84.7451C160.203 86.0818 158.348 87.2643 156.544 88.344C154.74 89.4236 153.091 90.5033 151.545 91.583C149.999 92.6627 148.659 93.6909 147.422 94.7192C144.999 96.7243 143.144 98.5237 141.907 99.8091C141.288 100.426 140.825 100.94 140.515 101.3C140.361 101.454 140.258 101.609 140.155 101.66C140.052 101.763 140.052 101.763 140 101.763C140 101.763 140.052 101.711 140.103 101.609C140.206 101.506 140.309 101.351 140.464 101.197C140.773 100.837 141.237 100.323 141.855 99.7062C143.092 98.4209 144.896 96.6215 147.319 94.5649C148.555 93.5367 149.895 92.457 151.442 91.3773C152.988 90.2977 154.637 89.218 156.441 88.0869C158.245 86.9558 160.1 85.8247 161.956 84.488C163.811 83.1513 165.615 81.6089 167.109 79.758C168.604 77.9071 169.79 75.7992 170.408 73.6399C171.026 71.4805 171.026 69.2183 170.408 67.2132C169.79 65.2081 168.707 63.5115 167.367 62.2262C166.027 60.9408 164.481 60.0668 162.986 59.6041C162.213 59.3985 161.492 59.2442 160.77 59.1928C160.049 59.1414 159.379 59.1414 158.76 59.1928C157.523 59.2956 156.441 59.5527 155.616 59.8612C154.792 60.1696 154.173 60.4781 153.761 60.7352C153.555 60.838 153.4 60.9408 153.297 60.9923C153.142 61.0437 153.091 61.0951 153.091 61.0951Z" fill="#008EE7"/>
<path d="M45.9347 119.083C45.9347 119.083 45.617 119.01 45.0525 118.847C44.4879 118.685 43.6417 118.291 42.7262 117.614C42.2684 117.276 41.82 116.823 41.3542 116.299C40.8885 115.775 40.4321 115.137 40.0732 114.437C39.3112 113.012 38.7723 111.12 38.8967 109.03C39.0212 106.939 39.7997 104.765 41.2308 102.807C42.6179 100.823 44.6751 99.125 47.1712 97.9949C49.6234 96.838 52.5146 96.2488 55.4831 96.1277C58.4516 96.0066 61.5148 96.4243 64.5673 97.2567C66.0581 97.6815 67.5129 98.2648 68.941 98.8921C70.3424 99.5633 71.6464 100.296 72.8969 101.116C74.1742 101.892 75.3807 102.686 76.73 103.145C78.0527 103.648 79.4742 103.79 80.7303 103.41C81.367 103.255 81.969 102.959 82.5096 102.566C83.0503 102.173 83.5028 101.726 83.8673 101.225C84.2758 100.752 84.5522 100.198 84.8285 99.6436C85.1049 99.0897 85.2665 98.5261 85.34 97.9089C85.4576 97.3186 85.4603 96.7186 85.4364 96.1626C85.4124 95.6066 85.3445 95.0238 85.179 94.5021C84.9189 93.4416 84.4906 92.4593 83.9382 91.5821C82.904 89.8105 81.5761 88.5221 80.2735 87.4898C79.015 86.4843 77.7818 85.7348 76.8129 85.1459C75.8439 84.557 75.0244 84.1192 74.5133 83.8687C74.249 83.708 74.0728 83.601 73.914 83.5646C73.7819 83.4843 73.6938 83.4308 73.6938 83.4308C73.6938 83.4308 73.7819 83.4843 73.9407 83.5207C74.0728 83.601 74.3197 83.6909 74.54 83.8247C75.0952 84.102 75.8706 84.5131 76.8663 85.0581C77.8352 85.6469 79.0951 86.3525 80.3536 87.358C81.6122 88.3635 82.9841 89.6786 84.0623 91.477C84.6148 92.3543 85.0431 93.3365 85.3205 94.4678C85.4593 95.0334 85.5539 95.5723 85.5952 96.199C85.6632 96.7818 85.5897 97.3989 85.5162 98.016C85.3986 98.6064 85.2544 99.2407 84.978 99.7947C84.7457 100.375 84.3985 100.947 83.99 101.42C83.5989 101.965 83.1023 102.385 82.5616 102.778C82.021 103.172 81.419 103.467 80.7556 103.666C79.4288 104.063 77.9632 103.894 76.5698 103.408C75.2471 102.905 73.9699 102.129 72.6927 101.353C71.4421 100.532 70.1382 99.8002 68.7808 99.1557C67.4235 98.5113 65.942 97.9719 64.4511 97.5471C61.4694 96.6975 58.3795 96.3237 55.4817 96.4276C52.5399 96.5048 49.6927 97.1208 47.2673 98.2338C44.8419 99.3467 42.7847 101.045 41.4243 102.985C40.0199 104.899 39.2414 107.073 39.0996 109.093C38.9578 111.112 39.4794 112.933 40.2146 114.403C40.5736 115.102 41.03 115.741 41.4957 116.265C41.9615 116.788 42.4099 117.241 42.8677 117.58C43.7565 118.3 44.5586 118.668 45.1673 118.857C45.4582 118.974 45.6611 119.037 45.8199 119.073C45.8466 119.029 45.9347 119.083 45.9347 119.083Z" fill="#008EE7"/>
<path d="M26.8908 55C26.8908 55 26.8393 55.0514 26.7362 55.2056C26.6331 55.3599 26.4785 55.5655 26.2724 55.8226C26.0662 56.0797 25.9116 56.4396 25.6539 56.9023C25.4477 57.365 25.19 57.8277 24.9839 58.4447C24.5716 59.6272 24.2623 61.1696 24.3139 62.969C24.3654 64.7685 24.7777 66.7736 25.7054 68.8301C26.2208 69.8583 26.8393 70.8352 27.6124 71.812C28.3855 72.7889 29.3132 73.6629 30.3955 74.4855C32.5086 76.0793 35.1371 77.3646 38.0233 78.1358C40.9094 78.907 44.1049 79.1641 47.3518 79.0099C50.5988 78.8556 53.9488 78.2387 57.3504 77.5189C60.752 76.7477 63.9989 75.8737 67.1943 75.1539C70.3898 74.4341 73.5336 73.8686 76.5229 73.6115C82.553 73.0974 88.0161 74.2284 92.2423 75.8737C94.3554 76.6963 96.2108 77.6217 97.757 78.5471C99.3032 79.4726 100.592 80.398 101.571 81.1692C102.55 81.9404 103.323 82.6088 103.787 83.0715C104.045 83.2771 104.199 83.4828 104.354 83.5856C104.457 83.6884 104.56 83.7913 104.56 83.7913C104.56 83.7913 104.509 83.7399 104.354 83.637C104.199 83.5342 104.045 83.3285 103.787 83.1229C103.323 82.6602 102.55 82.0432 101.519 81.272C100.54 80.5008 99.2516 79.6268 97.7054 78.7014C96.1593 77.8274 94.3039 76.9019 92.1908 76.0793C87.9646 74.4855 82.553 73.3544 76.5229 73.8686C73.5336 74.1256 70.4413 74.6912 67.2459 75.4109C64.0505 76.1307 60.8035 77.0048 57.4019 77.7759C54.0004 78.5471 50.6503 79.1127 47.3518 79.2669C44.0533 79.4212 40.8579 79.1641 37.9717 78.3929C35.034 77.6217 32.4055 76.3364 30.2924 74.6912C29.2101 73.8686 28.2824 72.9431 27.5093 72.0177C26.7362 71.0408 26.1177 70.0126 25.6024 68.9843C24.6746 66.8764 24.2108 64.8199 24.2108 63.0204C24.1593 61.221 24.4685 59.6272 24.9323 58.4447C25.1385 57.8277 25.3962 57.3136 25.6024 56.9023C25.86 56.491 26.0662 56.1311 26.2724 55.874C26.4785 55.617 26.6331 55.4113 26.7362 55.2571C26.8393 55.0514 26.8908 55 26.8908 55Z" fill="#008EE7"/>
<path d="M346.376 64.7405C346.789 61.6043 342.356 58.9823 339.006 58.7252C337.409 58.571 335.759 58.828 334.213 58.3139C330.915 57.1828 329.626 52.9669 326.431 51.5788C324.06 50.5505 321.277 51.476 318.958 52.6585C316.638 53.841 314.319 55.2805 311.742 55.4348C309.475 55.589 307.052 54.7664 305.042 55.8461C303.548 56.6687 302.826 58.3653 301.434 59.3422C300.094 60.319 298.394 60.5247 296.744 60.6275C295.095 60.7303 293.394 60.7303 291.9 61.3987C290.405 62.067 289.168 63.6608 289.477 65.2546L346.376 64.7405Z" fill="#0066A6"/>
<path d="M346.376 64.7405C346.789 61.6043 342.356 58.9823 339.006 58.7252C337.409 58.571 335.759 58.828 334.213 58.3139C330.915 57.1828 329.626 52.9669 326.431 51.5788C324.06 50.5505 321.277 51.476 318.958 52.6585C316.638 53.841 314.319 55.2805 311.742 55.4348C309.475 55.589 307.052 54.7664 305.042 55.8461C303.548 56.6687 302.826 58.3653 301.434 59.3422C300.094 60.319 298.394 60.5247 296.744 60.6275C295.095 60.7303 293.394 60.7303 291.9 61.3987C290.405 62.067 289.168 63.6608 289.477 65.2546L346.376 64.7405Z" fill="url(#paint5_linear_269_38)" fill-opacity="0.2"/>
<path d="M346.377 64.7404C346.377 64.7404 346.273 64.7404 346.119 64.7404C345.913 64.7404 345.655 64.7404 345.294 64.7404C344.521 64.7404 343.439 64.7918 342.047 64.7918C339.213 64.8432 335.09 64.8946 329.987 64.946C319.731 65.0488 305.506 65.2031 289.529 65.4087H289.426V65.3059C289.22 64.3805 289.581 63.4036 290.147 62.6838C290.714 61.9127 291.539 61.3471 292.467 61.0386C294.58 60.3188 296.744 60.6273 298.806 60.2674C299.837 60.1132 300.816 59.7533 301.589 59.0849C302.362 58.468 302.981 57.594 303.651 56.8742C304.011 56.5143 304.372 56.1544 304.836 55.8459C305.3 55.5889 305.764 55.3832 306.279 55.2804C307.31 55.0747 308.289 55.1261 309.268 55.229C310.248 55.2804 311.227 55.3832 312.155 55.2804C313.082 55.1776 314.01 54.9205 314.835 54.5606C316.535 53.8922 318.082 52.9154 319.731 52.1442C321.329 51.4244 323.081 50.9103 324.73 51.0131C325.555 51.0645 326.379 51.3216 327.101 51.7329C327.822 52.1442 328.389 52.6583 328.956 53.2239C330.039 54.3549 330.863 55.5374 331.894 56.5657C332.873 57.5425 334.059 58.2623 335.296 58.468C336.533 58.6736 337.77 58.5708 338.852 58.6222C339.986 58.6736 341.016 58.9821 341.893 59.342C342.769 59.7019 343.542 60.1646 344.212 60.6273C344.83 61.09 345.346 61.6042 345.707 62.1183C346.067 62.6324 346.273 63.0951 346.377 63.5065C346.48 63.9178 346.48 64.2262 346.48 64.4319C346.377 64.6375 346.377 64.7404 346.377 64.7404C346.377 64.7404 346.377 64.6375 346.377 64.4319C346.377 64.2262 346.377 63.9178 346.273 63.5065C346.17 63.0951 345.964 62.6324 345.603 62.1697C345.243 61.707 344.727 61.1929 344.109 60.7302C343.49 60.2674 342.717 59.8561 341.79 59.4962C340.913 59.1364 339.883 58.8793 338.8 58.8279C337.666 58.7765 336.481 58.8793 335.193 58.6736C333.904 58.5194 332.667 57.7482 331.688 56.7714C330.657 55.7945 329.833 54.5606 328.75 53.4809C328.235 52.9154 327.616 52.4013 326.946 52.0414C326.276 51.6301 325.452 51.4244 324.679 51.373C323.029 51.2702 321.38 51.7843 319.782 52.5041C318.185 53.2239 316.639 54.2007 314.886 54.9205C314.01 55.2804 313.082 55.5374 312.103 55.6403C311.124 55.7431 310.145 55.6403 309.165 55.5889C308.186 55.5374 307.207 55.4346 306.279 55.6403C305.815 55.7431 305.351 55.9487 304.939 56.2058C304.527 56.4629 304.166 56.8228 303.805 57.1827C303.135 57.9024 302.517 58.7765 301.692 59.4448C300.868 60.1132 299.837 60.4731 298.806 60.6787C296.693 61.0386 294.528 60.7816 292.518 61.4499C291.642 61.7584 290.869 62.2725 290.302 62.9923C289.735 63.7121 289.477 64.5861 289.632 65.4087L289.477 65.3059C305.403 65.1517 319.628 65.0488 329.832 64.946C334.935 64.8946 339.058 64.8946 341.944 64.8432C343.387 64.8432 344.47 64.8432 345.243 64.8432C345.603 64.8432 345.913 64.8432 346.119 64.8432C346.273 64.7404 346.377 64.7404 346.377 64.7404Z" fill="#0066A6"/>
<path d="M346.377 64.7404C346.377 64.7404 346.273 64.7404 346.119 64.7404C345.913 64.7404 345.655 64.7404 345.294 64.7404C344.521 64.7404 343.439 64.7918 342.047 64.7918C339.213 64.8432 335.09 64.8946 329.987 64.946C319.731 65.0488 305.506 65.2031 289.529 65.4087H289.426V65.3059C289.22 64.3805 289.581 63.4036 290.147 62.6838C290.714 61.9127 291.539 61.3471 292.467 61.0386C294.58 60.3188 296.744 60.6273 298.806 60.2674C299.837 60.1132 300.816 59.7533 301.589 59.0849C302.362 58.468 302.981 57.594 303.651 56.8742C304.011 56.5143 304.372 56.1544 304.836 55.8459C305.3 55.5889 305.764 55.3832 306.279 55.2804C307.31 55.0747 308.289 55.1261 309.268 55.229C310.248 55.2804 311.227 55.3832 312.155 55.2804C313.082 55.1776 314.01 54.9205 314.835 54.5606C316.535 53.8922 318.082 52.9154 319.731 52.1442C321.329 51.4244 323.081 50.9103 324.73 51.0131C325.555 51.0645 326.379 51.3216 327.101 51.7329C327.822 52.1442 328.389 52.6583 328.956 53.2239C330.039 54.3549 330.863 55.5374 331.894 56.5657C332.873 57.5425 334.059 58.2623 335.296 58.468C336.533 58.6736 337.77 58.5708 338.852 58.6222C339.986 58.6736 341.016 58.9821 341.893 59.342C342.769 59.7019 343.542 60.1646 344.212 60.6273C344.83 61.09 345.346 61.6042 345.707 62.1183C346.067 62.6324 346.273 63.0951 346.377 63.5065C346.48 63.9178 346.48 64.2262 346.48 64.4319C346.377 64.6375 346.377 64.7404 346.377 64.7404C346.377 64.7404 346.377 64.6375 346.377 64.4319C346.377 64.2262 346.377 63.9178 346.273 63.5065C346.17 63.0951 345.964 62.6324 345.603 62.1697C345.243 61.707 344.727 61.1929 344.109 60.7302C343.49 60.2674 342.717 59.8561 341.79 59.4962C340.913 59.1364 339.883 58.8793 338.8 58.8279C337.666 58.7765 336.481 58.8793 335.193 58.6736C333.904 58.5194 332.667 57.7482 331.688 56.7714C330.657 55.7945 329.833 54.5606 328.75 53.4809C328.235 52.9154 327.616 52.4013 326.946 52.0414C326.276 51.6301 325.452 51.4244 324.679 51.373C323.029 51.2702 321.38 51.7843 319.782 52.5041C318.185 53.2239 316.639 54.2007 314.886 54.9205C314.01 55.2804 313.082 55.5374 312.103 55.6403C311.124 55.7431 310.145 55.6403 309.165 55.5889C308.186 55.5374 307.207 55.4346 306.279 55.6403C305.815 55.7431 305.351 55.9487 304.939 56.2058C304.527 56.4629 304.166 56.8228 303.805 57.1827C303.135 57.9024 302.517 58.7765 301.692 59.4448C300.868 60.1132 299.837 60.4731 298.806 60.6787C296.693 61.0386 294.528 60.7816 292.518 61.4499C291.642 61.7584 290.869 62.2725 290.302 62.9923C289.735 63.7121 289.477 64.5861 289.632 65.4087L289.477 65.3059C305.403 65.1517 319.628 65.0488 329.832 64.946C334.935 64.8946 339.058 64.8946 341.944 64.8432C343.387 64.8432 344.47 64.8432 345.243 64.8432C345.603 64.8432 345.913 64.8432 346.119 64.8432C346.273 64.7404 346.377 64.7404 346.377 64.7404Z" fill="url(#paint6_linear_269_38)" fill-opacity="0.2"/>
<path d="M225.256 49.552L220.434 49.3519L225.768 37.2001L230.246 37.3859L227.195 44.3976L229.95 44.512L222.755 59.9178L225.256 49.552Z" fill="#FFD12F"/>
<g filter="url(#filter0_d_269_38)">
<path d="M308.422 68.1728L305.282 68.0425L308.756 60.1303L311.671 60.2513L309.685 64.8167L311.479 64.8912L306.794 74.9222L308.422 68.1728Z" fill="#FFD12F"/>
</g>
<g filter="url(#filter1_d_269_38)">
<path d="M317.806 68.1728L314.666 68.0425L318.14 60.1303L321.055 60.2513L319.069 64.8167L320.863 64.8912L316.178 74.9222L317.806 68.1728Z" fill="#FFD12F"/>
</g>
<g filter="url(#filter2_d_269_38)">
<path d="M327.806 68.1728L324.666 68.0425L328.14 60.1303L331.055 60.2513L329.069 64.8167L330.863 64.8912L326.178 74.9222L327.806 68.1728Z" fill="#FFD12F"/>
</g>
</g>
<defs>
<filter id="filter0_d_269_38" x="301.282" y="56.1302" width="14.389" height="22.7919" filterUnits="userSpaceOnUse" color-interpolation-filters="sRGB">
<feFlood flood-opacity="0" result="BackgroundImageFix"/>
<feColorMatrix in="SourceAlpha" type="matrix" values="0 0 0 0 0 0 0 0 0 0 0 0 0 0 0 0 0 0 127 0" result="hardAlpha"/>
<feOffset/>
<feGaussianBlur stdDeviation="2"/>
<feComposite in2="hardAlpha" operator="out"/>
<feColorMatrix type="matrix" values="0 0 0 0 0 0 0 0 0 0 0 0 0 0 0 0 0 0 0.25 0"/>
<feBlend mode="normal" in2="BackgroundImageFix" result="effect1_dropShadow_269_38"/>
<feBlend mode="normal" in="SourceGraphic" in2="effect1_dropShadow_269_38" result="shape"/>
</filter>
<filter id="filter1_d_269_38" x="310.666" y="56.1302" width="14.389" height="22.7919" filterUnits="userSpaceOnUse" color-interpolation-filters="sRGB">
<feFlood flood-opacity="0" result="BackgroundImageFix"/>
<feColorMatrix in="SourceAlpha" type="matrix" values="0 0 0 0 0 0 0 0 0 0 0 0 0 0 0 0 0 0 127 0" result="hardAlpha"/>
<feOffset/>
<feGaussianBlur stdDeviation="2"/>
<feComposite in2="hardAlpha" operator="out"/>
<feColorMatrix type="matrix" values="0 0 0 0 0 0 0 0 0 0 0 0 0 0 0 0 0 0 0.25 0"/>
<feBlend mode="normal" in2="BackgroundImageFix" result="effect1_dropShadow_269_38"/>
<feBlend mode="normal" in="SourceGraphic" in2="effect1_dropShadow_269_38" result="shape"/>
</filter>
<filter id="filter2_d_269_38" x="320.666" y="56.1302" width="14.389" height="22.7919" filterUnits="userSpaceOnUse" color-interpolation-filters="sRGB">
<feFlood flood-opacity="0" result="BackgroundImageFix"/>
<feColorMatrix in="SourceAlpha" type="matrix" values="0 0 0 0 0 0 0 0 0 0 0 0 0 0 0 0 0 0 127 0" result="hardAlpha"/>
<feOffset/>
<feGaussianBlur stdDeviation="2"/>
<feComposite in2="hardAlpha" operator="out"/>
<feColorMatrix type="matrix" values="0 0 0 0 0 0 0 0 0 0 0 0 0 0 0 0 0 0 0.25 0"/>
<feBlend mode="normal" in2="BackgroundImageFix" result="effect1_dropShadow_269_38"/>
<feBlend mode="normal" in="SourceGraphic" in2="effect1_dropShadow_269_38" result="shape"/>
</filter>
<linearGradient id="paint0_linear_269_38" x1="180" y1="97" x2="180" y2="226" gradientUnits="userSpaceOnUse">
<stop/>
<stop offset="1" stop-opacity="0"/>
</linearGradient>
<linearGradient id="paint1_linear_269_38" x1="38.4273" y1="35" x2="38.4273" y2="46.0828" gradientUnits="userSpaceOnUse">
<stop/>
<stop offset="1" stop-opacity="0"/>
</linearGradient>
<linearGradient id="paint2_linear_269_38" x1="222" y1="16.8108" x2="222" y2="42.5235" gradientUnits="userSpaceOnUse">
<stop/>
<stop offset="1" stop-opacity="0"/>
</linearGradient>
<linearGradient id="paint3_linear_269_38" x1="104.482" y1="58.1926" x2="104.482" y2="69.2754" gradientUnits="userSpaceOnUse">
<stop/>
<stop offset="1" stop-opacity="0"/>
</linearGradient>
<linearGradient id="paint4_linear_269_38" x1="104.504" y1="58" x2="104.504" y2="69.4295" gradientUnits="userSpaceOnUse">
<stop/>
<stop offset="1" stop-opacity="0"/>
</linearGradient>
<linearGradient id="paint5_linear_269_38" x1="317.916" y1="51.135" x2="317.916" y2="65.2546" gradientUnits="userSpaceOnUse">
<stop/>
<stop offset="1" stop-opacity="0"/>
</linearGradient>
<linearGradient id="paint6_linear_269_38" x1="317.923" y1="51" x2="317.923" y2="65.4087" gradientUnits="userSpaceOnUse">
<stop/>
<stop offset="1" stop-opacity="0"/>
</linearGradient>
</defs>
</svg>
