<svg width="19" height="13" viewBox="0 0 19 13" fill="none" xmlns="http://www.w3.org/2000/svg">
<path d="M17.9878 1.5653L10.4878 5.5943C10.2358 5.7293 9.90977 5.7933 9.58177 5.7933C9.25377 5.7933 8.92777 5.7293 8.67577 5.5943L1.17577 1.5653C0.68677 1.3023 0.224769 0.279297 1.12177 0.279297H18.0408C18.9378 0.279297 18.4758 1.3023 17.9878 1.5653ZM0.948768 3.7683L8.67577 7.7953C9.01577 7.9733 9.25377 7.9943 9.58177 7.9943C9.90977 7.9943 10.1478 7.9733 10.4878 7.7953C10.8278 7.6173 17.6208 4.0563 18.1758 3.7673C18.5658 3.5633 18.5618 3.8023 18.5618 3.9863V11.2793C18.5618 11.6993 17.9958 12.2793 17.5618 12.2793H1.56177C1.12777 12.2793 0.561769 11.6993 0.561769 11.2793V3.9873C0.561769 3.8033 0.557768 3.5643 0.948768 3.7683Z" fill="#454545"/>
</svg>
