<svg width="19" height="13" viewBox="0 0 19 13" fill="none" xmlns="http://www.w3.org/2000/svg">
<path d="M15.6368 0C16.4125 0 17.1565 0.308169 17.7051 0.856713C18.2536 1.40526 18.5618 2.14924 18.5618 2.925V9.675C18.5618 10.4508 18.2536 11.1947 17.7051 11.7433C17.1565 12.2918 16.4125 12.6 15.6368 12.6H3.48677C3.10265 12.6 2.7223 12.5243 2.36742 12.3773C2.01254 12.2304 1.69009 12.0149 1.41848 11.7433C1.14687 11.4717 0.931414 11.1492 0.784419 10.7943C0.637424 10.4395 0.561768 10.0591 0.561768 9.675V2.925C0.561768 2.54088 0.637424 2.16053 0.784419 1.80565C0.931414 1.45077 1.14687 1.12832 1.41848 0.856713C1.69009 0.585101 2.01254 0.369648 2.36742 0.222653C2.7223 0.0756575 3.10265 0 3.48677 0H15.6368ZM14.7098 4.698L14.0618 5.346L13.4138 4.698C13.352 4.63168 13.2775 4.57849 13.1947 4.5416C13.1119 4.5047 13.0225 4.48487 12.9318 4.48327C12.8412 4.48167 12.7512 4.49834 12.6671 4.53229C12.5831 4.56624 12.5067 4.61677 12.4426 4.68087C12.3785 4.74496 12.328 4.82131 12.2941 4.90536C12.2601 4.98941 12.2434 5.07944 12.245 5.17007C12.2466 5.2607 12.2665 5.35009 12.3034 5.43288C12.3403 5.51568 12.3934 5.5902 12.4598 5.652L13.1069 6.3L12.4589 6.9462C12.3961 7.0089 12.3463 7.08335 12.3123 7.16529C12.2783 7.24723 12.2608 7.33507 12.2608 7.42378C12.2607 7.51249 12.2782 7.60035 12.3121 7.68232C12.346 7.7643 12.3957 7.83879 12.4584 7.90155C12.5211 7.96431 12.5956 8.0141 12.6775 8.04809C12.7595 8.08208 12.8473 8.09959 12.936 8.09964C13.0247 8.09968 13.1126 8.08224 13.1945 8.04833C13.2765 8.01442 13.351 7.9647 13.4138 7.902L14.0618 7.254L14.7098 7.902C14.8377 8.02123 15.007 8.08614 15.1818 8.08306C15.3567 8.07997 15.5236 8.00913 15.6472 7.88546C15.7709 7.76179 15.8417 7.59494 15.8448 7.42007C15.8479 7.2452 15.783 7.07596 15.6638 6.948L15.0158 6.3L15.6638 5.652C15.783 5.52404 15.8479 5.3548 15.8448 5.17993C15.8417 5.00506 15.7709 4.83821 15.6472 4.71454C15.5236 4.59087 15.3567 4.52003 15.1818 4.51694C15.007 4.51386 14.8377 4.57877 14.7098 4.698ZM9.75977 4.698L9.11177 5.346L8.46377 4.698C8.40197 4.63168 8.32745 4.57849 8.24465 4.5416C8.16185 4.5047 8.07247 4.48487 7.98184 4.48327C7.8912 4.48167 7.80118 4.49834 7.71713 4.53229C7.63308 4.56624 7.55673 4.61677 7.49263 4.68087C7.42854 4.74496 7.37801 4.82131 7.34406 4.90536C7.31011 4.98941 7.29344 5.07944 7.29503 5.17007C7.29663 5.2607 7.31647 5.35009 7.35336 5.43288C7.39026 5.51568 7.44345 5.5902 7.50977 5.652L8.15687 6.3L7.50887 6.9462C7.38224 7.07283 7.3111 7.24457 7.3111 7.42365C7.3111 7.60273 7.38224 7.77447 7.50887 7.9011C7.63549 8.02773 7.80724 8.09887 7.98632 8.09887C8.1654 8.09887 8.33714 8.02773 8.46377 7.9011L9.11177 7.254L9.75977 7.902C9.82156 7.96832 9.89608 8.02151 9.97888 8.0584C10.0617 8.0953 10.1511 8.11513 10.2417 8.11673C10.3323 8.11833 10.4224 8.10166 10.5064 8.06771C10.5905 8.03376 10.6668 7.98323 10.7309 7.91913C10.795 7.85504 10.8455 7.77869 10.8795 7.69464C10.9134 7.61059 10.9301 7.52056 10.9285 7.42993C10.9269 7.3393 10.9071 7.24992 10.8702 7.16712C10.8333 7.08432 10.7801 7.0098 10.7138 6.948L10.0658 6.3L10.7138 5.652C10.833 5.52404 10.8979 5.3548 10.8948 5.17993C10.8917 5.00506 10.8209 4.83821 10.6972 4.71454C10.5736 4.59087 10.4067 4.52003 10.2318 4.51694C10.057 4.51386 9.88772 4.57877 9.75977 4.698ZM6.18677 8.325C6.18677 8.14598 6.11565 7.97429 5.98906 7.8477C5.86248 7.72112 5.69079 7.65 5.51177 7.65H3.93677C3.75775 7.65 3.58606 7.72112 3.45947 7.8477C3.33288 7.97429 3.26177 8.14598 3.26177 8.325C3.26177 8.50402 3.33288 8.67571 3.45947 8.8023C3.58606 8.92888 3.75775 9 3.93677 9H5.51177C5.69079 9 5.86248 8.92888 5.98906 8.8023C6.11565 8.67571 6.18677 8.50402 6.18677 8.325Z" fill="#454545"/>
</svg>
