<svg width="219" height="102" viewBox="0 0 219 102" fill="none" xmlns="http://www.w3.org/2000/svg">
<mask id="mask0_118_5076" style="mask-type:alpha" maskUnits="userSpaceOnUse" x="0" y="0" width="100" height="102">
<rect width="99.325" height="101.879" transform="matrix(-1 0 0 1 99.325 0)" fill="#C4C4C4"/>
</mask>
<g mask="url(#mask0_118_5076)">
<path d="M56.3493 35.5075L41.7736 21.7733L50.0833 14.3352L63.2314 28.8057L56.3493 35.5075Z" fill="#514D57"/>
<path d="M55.9434 34.08L43.3362 22.179L50.5189 15.7477L61.8939 28.2798L55.9434 34.08Z" fill="#3E3B42"/>
<path d="M64.6289 35.7329C64.6289 35.7329 62.435 35.207 63.0812 32.5774C63.7273 29.9477 62.7205 29.3467 62.7205 29.3467L55.0721 36.7698C55.0721 36.7698 58.7836 40.3461 59.9106 40.4963C61.0376 40.6165 65.7709 37.1604 64.6289 35.7329Z" fill="#FEBA5C"/>
<path d="M55.0718 36.7547C55.0718 36.7547 50.4136 33.7795 49.9778 33.3287C49.5421 32.8779 47.4534 30.8944 46.5969 29.7223C45.7404 28.5503 49.1364 28.8358 50.1281 30.0529C51.1199 31.2701 51.9914 31.6157 52.6826 31.8862C53.3588 32.1566 57.4911 32.3971 58.3025 33.6142C59.1139 34.8313 55.0718 36.7547 55.0718 36.7547Z" fill="#FEBA5C"/>
<path d="M61.2776 27.7388C61.2776 27.7388 60.7216 28.475 60.2708 27.6185C59.82 26.7771 59.8651 24.8236 60.9921 25.2894C62.1341 25.7703 61.2776 27.7388 61.2776 27.7388Z" fill="#EEA987"/>
<path d="M59.8504 25.1693C59.8504 25.1693 59.655 26.6119 58.9488 25.9657C58.2426 25.3196 57.5363 22.9154 58.7685 22.9755C59.9856 23.0206 59.8504 25.1693 59.8504 25.1693Z" fill="#EEA987"/>
<path d="M57.8366 23.0656C57.8366 23.0656 57.8366 24.7936 57.0252 24.2978C56.4091 23.9221 55.5376 20.7966 56.7547 20.8567C57.9869 20.9318 57.8366 23.0656 57.8366 23.0656Z" fill="#EEA987"/>
<path d="M-11.5856 124.765C-11.5856 124.765 -5.95067 129.213 -3.72675 128.627C-1.87849 128.131 11.1344 110.565 16.4087 102C17.5057 100.226 18.272 98.829 18.5274 98.0627C20.0151 93.6148 21.6379 80.4066 21.6379 80.4066C21.6379 80.4066 26.4163 93.6599 27.0625 100.046C27.348 102.886 28.0091 106.778 28.6703 110.219C34.8312 113.089 41.7133 114.697 48.9561 114.697C56.0335 114.697 62.7353 113.164 68.791 110.429C68.0397 104.704 66.9427 95.4331 67.8744 90.0686C68.9863 83.7274 68.0246 72.8182 68.0246 72.8182C68.0246 72.8182 83.9377 77.6116 85.7859 78.1225C87.6342 78.6485 92.4577 75.7484 93.7199 72.7882C94.9821 69.8279 64.794 34.08 64.794 34.08L57.8367 40.0455L66.4168 54.7113C65.4551 54.0501 46.4016 47.138 46.4016 47.138C46.4016 47.138 32.9078 46.9126 31.871 47.0628C30.8341 47.2131 17.4906 53.7346 15.5522 55.3725C13.8242 56.83 9.33125 84.1482 7.69336 91.3008C7.51304 92.1122 7.36279 92.6682 7.2576 92.8936C6.22077 95.1025 -11.5856 124.765 -11.5856 124.765Z" fill="#5CA195"/>
<path d="M31.8712 47.0478C32.2468 48.6857 44.7038 58.2426 44.7038 58.2426C44.7038 58.2426 47.5287 47.5738 46.4168 47.123C45.981 46.9426 45.7406 46.1162 45.6053 45.1695C45.4851 44.2679 45.4701 43.2612 45.4701 42.6301C45.4701 42.2394 45.4851 41.9689 45.4851 41.9689C45.4851 41.9689 43.8172 40.4662 41.6834 38.6781C37.9719 35.5526 32.908 31.5706 33.0432 33.3136C33.0432 33.4038 33.0733 33.509 33.1033 33.6442C34.2453 37.4609 31.8712 47.0478 31.8712 47.0478Z" fill="#FEBA5C"/>
<path d="M46.056 46.7924L49.6023 48.3852L48.0395 62.6303L44.7037 58.2576L46.056 46.7924Z" fill="#464B7A"/>
<path d="M32.0511 46.3116L44.7034 58.2577L43.0805 63.0962L27.9038 48.7009L32.0511 46.3116Z" fill="#464B7A"/>
<path d="M35.372 37.3257C35.402 37.3557 35.9129 38.0019 36.7694 38.9335C38.6026 40.887 41.9836 44.0726 45.605 45.1695C45.4848 44.2679 45.4697 43.2611 45.4697 42.63C45.8304 42.585 46.191 42.5248 46.5366 42.4197C45.4397 40.8118 43.907 39.1589 43.907 39.1589L41.6831 38.6781L35.372 37.3257Z" fill="#D38417"/>
<path d="M33.0429 33.3137C34.1399 35.2821 35.0715 36.7547 35.372 37.3257C35.5674 37.6864 36.0633 38.2724 36.7695 38.9336C38.7079 40.7067 42.2241 42.9757 45.4698 42.6301C45.8305 42.585 46.1911 42.5249 46.5367 42.4197C47.829 42.029 49.3316 41.2927 50.0529 39.5496C55.7479 25.8004 50.0078 15.3871 50.0078 15.3871C50.0078 15.3871 31.1346 11.6305 28.7003 17.4156C26.9722 21.4728 30.4584 28.7005 33.0429 33.3137Z" fill="#FEBA5C"/>
<path d="M50.0079 15.3871C50.0079 15.3871 52.6676 11.4802 52.8329 8.20444C52.9414 5.84925 50.8945 4.61052 48.5843 5.08142C47.1346 5.37691 45.5831 5.59991 44.4631 5.5147C41.6983 5.31935 30.9543 4.94369 29.5268 6.88211C29.5268 6.88211 25.6199 6.29607 25.079 12.7424C24.2225 22.9604 32.3518 32.0815 32.3518 32.0815C32.3518 32.0815 31.7057 25.5901 33.0881 24.5983C34.4705 23.6066 35.898 25.5901 35.898 25.5901L38.9184 25.8906C38.9184 25.8906 33.629 16.499 39.0236 15.7026C44.403 14.9213 46.9425 16.1985 50.0079 15.3871Z" fill="#242528"/>
<path d="M35.6123 22.9754C35.1014 20.0903 29.752 19.3991 30.353 22.4194C30.9391 25.4397 33.7641 28.1595 34.9511 27.9642C36.1382 27.7538 36.003 25.1692 35.6123 22.9754Z" fill="#FEBA5C"/>
<path d="M61.879 52.848L73.8551 66.5972L66.432 54.7113L61.879 52.848Z" fill="#333759"/>
</g>
<path d="M218.97 79.8495C218.97 80.9421 218.06 81.8526 216.967 81.8526H143.034C141.941 81.8526 141.031 80.9421 141.031 79.8495V35.4772C141.031 34.3846 141.941 33.4741 143.034 33.4741H216.967C218.06 33.4741 218.97 34.3846 218.97 35.4772V79.8495Z" fill="black"/>
<path d="M215.935 35.72H144.066V76.9965H215.935V35.72Z" fill="#5C5B59"/>
<path d="M180.547 78.7568H179.454V80.0316H180.547V78.7568Z" fill="#E2E2E2"/>
<path d="M181.882 81.4884H178.119V84.5234H181.882V81.4884Z" fill="black"/>
<path d="M190.38 84.7662C190.38 83.795 185.767 82.9452 180 82.9452C174.234 82.9452 169.621 83.7343 169.621 84.7662C169.621 85.7374 174.234 86.5872 180 86.5872C185.767 86.5872 190.38 85.7374 190.38 84.7662Z" fill="black"/>
<path d="M27.4379 31.2792L79.5698 83.4111M79.5697 31.2792L27.4379 83.4111" stroke="#FF1717" stroke-width="4" stroke-linecap="round" stroke-linejoin="round"/>
<path d="M148.831 25.7916L211.938 88.8987M211.938 25.7916L148.831 88.8987" stroke="#FF1717" stroke-width="4" stroke-linecap="round" stroke-linejoin="round"/>
</svg>
