<svg width="164" height="149" viewBox="0 0 164 149" fill="none" xmlns="http://www.w3.org/2000/svg">
<path d="M77.6816 113.671C77.3442 114.924 77.0704 116.72 77.0914 117.544C77.1014 117.937 77.3248 117.066 77.5875 115.608C78.0693 112.937 78.1111 112.076 77.6816 113.671Z" fill="#0060B9"/>
<path d="M95.3419 105.987C95.1174 106.131 94.2938 106.654 93.5119 107.15C92.7299 107.645 90.3728 109.392 88.2738 111.032C86.1747 112.672 83.6221 114.55 82.6013 115.206C81.5806 115.863 80.7454 116.469 80.7454 116.554C80.7454 116.792 82.2263 116.215 83.223 115.59C84.3844 114.862 86.0598 113.583 88.7072 111.406C90.6333 109.822 94.3359 106.978 95.6549 106.071C96.2371 105.67 95.9533 105.594 95.3419 105.987Z" fill="#0060B9"/>
<path fill-rule="evenodd" clip-rule="evenodd" d="M73.0314 50.9209C73.8496 50.7522 74.9324 50.5267 75.4376 50.4193C75.9429 50.3121 76.9671 50.2133 77.7135 50.1998C78.8418 50.1794 79.2584 50.2741 80.1828 50.7602C82.3431 51.8967 84.5426 53.5247 86.2892 55.2798C87.764 56.7621 88.2125 57.377 89.0017 58.9995L89.9473 60.9434L91.5242 61.0349C92.5886 61.0963 93.288 61.2486 93.6761 61.5028C94.4673 62.0213 96.8444 65.4324 97.0028 66.2768C97.0831 66.7053 97.4162 67.2228 97.8829 67.6443C98.9967 68.6506 99.6088 69.9532 100.514 73.2439C101.29 76.0682 102.573 80.1342 104.442 85.6968C104.914 87.1003 105.332 88.708 105.373 89.2694C105.413 89.8308 105.627 90.7954 105.848 91.4129C106.38 92.8983 106.376 94.8499 105.837 96.3124C105.609 96.93 105.261 98.1938 105.064 99.1209C104.865 100.054 104.503 101.08 104.254 101.418C103.959 101.816 103.893 102.029 104.063 102.031C104.56 102.034 106.556 103.073 107.406 103.768C109.261 105.289 110.551 108.074 110.551 110.559C110.551 112.311 110.151 113.684 108.976 115.968C107.584 118.672 106.389 120.174 102.64 123.931C100.032 126.545 98.9484 127.489 98.0726 127.911C96.7481 128.551 96.6029 128.921 96.8091 131.13C96.8875 131.969 96.8401 132.645 96.6752 133.044C96.4337 133.627 93.6857 135.903 92.6482 136.379C92.4018 136.492 92.1554 136.701 92.1009 136.843C91.8696 137.446 91.7144 143.47 91.9302 143.47C92.3469 143.47 93.0038 144.672 93.2167 145.824C93.3984 146.807 93.3807 147.035 93.0977 147.347C92.551 147.951 91.1551 148.166 87.7626 148.166C84.9406 148.166 84.4438 148.115 83.6849 147.747C82.3319 147.092 82.0955 146.572 82.259 144.611C82.3347 143.703 82.4441 142.77 82.5023 142.538C82.576 142.245 82.3513 141.81 81.7649 141.109C79.6479 138.58 79.6167 137.376 81.59 134.344C82.0434 133.648 82.3562 132.984 82.2853 132.869C81.9962 132.401 82.6038 131.031 83.404 130.346C84.1776 129.684 84.2159 129.595 84.2159 128.465C84.2159 127.299 84.2337 127.262 85.2877 126.269C86.2999 125.316 86.3254 125.268 85.747 125.404C84.1912 125.771 82.4017 125.864 80.5723 125.674C79.4885 125.562 76.7646 125.445 74.519 125.416C70.3446 125.36 68.8059 125.155 65.9797 124.275C65.2965 124.063 64.7212 123.908 64.7012 123.931C64.6812 123.955 64.7689 124.487 64.8965 125.115C65.0852 126.044 65.3259 126.472 66.1929 127.42C67.5337 128.887 67.8242 129.792 67.2963 130.858L66.9184 131.622L67.6056 133.301C68.5305 135.561 68.5056 136.172 67.4249 137.747L67.2772 137.961C66.562 139.002 66.2522 139.453 66.1448 139.947C66.0627 140.325 66.0988 140.729 66.1625 141.441L66.1796 141.633C66.5748 146.108 66.1945 146.409 60.1267 146.422C57.5891 146.428 56.3669 146.351 55.9082 146.158C54.6892 145.643 54.5306 144.072 55.5236 142.347C56.1333 141.288 56.6376 139.019 56.7948 136.628L56.9199 134.722L56.2023 134.422C55.3333 134.059 54.8188 133.376 54.8188 132.583C54.8188 132.191 54.64 131.854 54.2838 131.574C53.4682 130.932 53.1857 130.016 53.1857 128.011C53.1857 125.883 52.9572 124.955 52.3244 124.513C50.9603 123.559 48.5861 121.238 47.5012 119.798C45.8407 117.595 45.0478 116.1 43.8695 112.95C42.9673 110.54 42.8763 110.137 42.8763 108.561C42.8763 107.044 42.9557 106.658 43.5097 105.489C43.858 104.754 44.4368 103.818 44.7957 103.409C46.3492 101.64 48.9004 100.564 51.6407 100.523L53.3073 100.497L52.8609 99.8388C52.6153 99.4767 52.3187 98.6362 52.2015 97.9709C52.0843 97.3058 51.7301 96.2702 51.4145 95.6694C50.9119 94.7123 50.8423 94.3624 50.8529 92.8419C50.8633 91.3719 50.9697 90.8415 51.5494 89.3716C52.3236 87.4092 53.1857 84.2688 53.1857 83.4118C53.1857 83.0974 53.3761 82.2902 53.6087 81.618C53.8414 80.9455 53.9765 80.221 53.9088 80.0076C53.841 79.7945 53.8769 79.2131 53.9884 78.716C54.0998 78.2187 54.2499 77.0373 54.322 76.0905C54.4524 74.3754 54.8934 72.6443 55.92 69.8165C56.3979 68.5001 56.4449 68.1447 56.3275 66.7359C56.1666 64.8073 56.4922 62.734 57.1643 61.4077C58.1162 59.5295 59.5773 58.7248 62.5717 58.4298L64.0099 58.2879L64.6701 57.0387C65.038 56.3424 65.9661 55.1498 66.7663 54.3446C68.4664 52.6341 70.7361 51.3937 73.0314 50.9209ZM85.9859 58.5267C85.0893 55.554 82.7291 52.5122 80.4474 51.389C78.2046 50.2849 75.703 50.443 72.6774 51.8797C70.1437 53.0832 68.7069 55.0436 68.7028 57.3035C68.7016 57.9116 68.6492 58.3577 68.5863 58.2946C68.5232 58.2315 68.4662 57.7851 68.4595 57.3025L68.4475 56.4249L68.1557 56.9816C67.6701 57.9084 67.0674 60.5807 67.0707 61.7933C67.0782 64.6569 68.3233 67.4751 70.6945 69.9957C74.5318 74.0749 78.2918 73.9422 82.7947 69.5692C84.4944 67.9185 85.4151 66.389 85.9534 64.3221C86.3307 62.8734 86.3484 59.7283 85.9859 58.5267ZM67.025 59.1004C67.9663 55.8006 69.6507 53.1748 71.5589 52.0333C72.7368 51.3285 71.9124 51.549 70.3346 52.3607C68.0026 53.5603 65.452 56.2019 64.7081 58.1881C64.408 58.9891 64.9576 58.4569 65.3961 57.5219C65.6558 56.9683 66.2817 56.0764 66.7871 55.5399L67.7062 54.5645L66.859 55.6767C66.3931 56.2885 65.735 57.3376 65.3963 58.0084C65.0578 58.679 64.5834 59.3925 64.3421 59.5938L63.9034 59.9599L64.6689 60.6946C65.5398 61.5301 65.5921 61.7129 65.0445 62.006C64.8039 62.1348 64.6922 62.3578 64.7526 62.5888C64.8063 62.7946 64.7063 63.0827 64.5301 63.2288C63.5208 64.0665 64.939 68.7541 66.9919 71.3671L67.905 72.5294L66.9627 71.5086C65.9307 70.3905 64.5225 67.6925 64.299 66.405C64.0926 65.2162 63.8139 64.8071 63.8123 65.6904C63.8107 66.5279 64.5052 68.3031 65.4671 69.9208C67.4531 73.2606 71.3688 76.0609 74.9273 76.6862C77.1694 77.0802 77.3672 77.0902 79.0743 76.8981C83.4441 76.4061 86.8051 73.7263 88.4142 69.4516C88.9732 67.9667 88.9795 67.9361 88.7345 67.9361C88.6373 67.9361 88.3523 68.5103 88.1014 69.212C87.5813 70.6669 86.326 72.7164 85.4943 73.4688C84.3153 74.5351 84.1537 74.5206 85.1548 73.4384C86.4685 72.018 87.1867 70.8817 87.7989 69.255C88.2309 68.1073 88.2486 67.9442 87.9665 67.7103C87.7373 67.52 87.6815 67.2222 87.7624 66.6205C87.8236 66.1651 87.9279 65.2413 87.9939 64.5676C88.0598 63.894 88.1545 63.2231 88.2041 63.077C88.2537 62.9306 88.1533 62.596 87.9812 62.3333C87.6868 61.8839 87.7005 61.8302 88.2123 61.4277L88.7561 60.9998L87.9204 59.3133C87.4606 58.3857 87.2632 57.8563 87.4819 58.137C87.7003 58.4177 88.1241 59.219 88.4236 59.9178C89.0752 61.4385 89.4852 61.4362 88.8933 59.9151C88.1676 58.0497 86.3595 55.6115 84.9666 54.6196L84.3511 54.1813L84.9104 55.0875C87.0844 58.6086 88.0663 62.9185 87.4074 66.0481C86.7753 69.0505 84.562 72.1541 81.9432 73.7097C77.7431 76.2046 73.3982 75.7081 70.0484 72.3505C68.6973 70.996 67.5413 69.0135 66.9386 67.0174C66.3813 65.1707 66.4246 61.2056 67.025 59.1004ZM70.0498 57.506C69.6225 55.5164 71.0307 53.6252 73.7824 52.4932C74.4122 52.2343 75.0651 52.0247 75.2335 52.0275C75.4019 52.0302 74.9757 52.2496 74.2862 52.5152C71.5607 53.5646 70.5449 54.6861 70.3368 56.875C70.2164 58.1436 70.1964 58.1879 70.0498 57.506ZM79.8225 53.0928C79.3278 52.7794 78.9198 52.4587 78.9157 52.3803C78.9022 52.1253 80.4143 52.8556 81.4132 53.5866C82.2518 54.2003 83.0325 55.1224 83.7103 56.2997C83.8072 56.4681 83.1746 55.9437 82.3043 55.1342C81.434 54.3248 80.3171 53.4061 79.8225 53.0928ZM61.2258 59.9833C62.2973 59.9713 63.5165 59.585 63.9317 59.1265C64.2586 58.7652 64.2353 58.7501 63.3736 58.7646C62.3643 58.7813 59.8539 59.3601 59.1653 59.7345C58.6209 60.0307 57.8782 60.9934 57.2884 62.1675C56.8691 63.0024 56.8554 63.257 56.9079 69.2105C56.9548 74.529 56.9124 75.6001 56.6021 76.9185C56.0901 79.0937 55.1606 81.8656 53.79 85.3038C52.1302 89.468 51.1442 92.3671 51.1442 93.0838C51.1442 93.4197 51.4539 94.3987 51.8324 95.2594C52.2107 96.1201 52.5892 97.2374 52.6731 97.7423C52.9746 99.5557 53.7314 100.391 55.5538 100.92C57.6522 101.53 59.2419 100.454 60.646 97.4732C61.3111 96.0611 62.3037 91.5934 62.0452 91.1751C61.9872 91.0814 61.7694 91.0046 61.5612 91.0046C61.2184 91.0046 61.176 91.2263 61.1139 93.3427C61.0659 94.9812 60.9618 95.7598 60.766 95.9456C60.4588 96.2367 60.469 95.4985 60.9498 82.6346C61.1427 77.4711 61.2705 75.8823 61.5988 74.5708C61.8235 73.6726 62.1036 72.4324 62.2214 71.8148C62.339 71.1973 62.4745 70.807 62.5227 70.9472C62.6909 71.4366 62.9486 71.1957 63.2717 70.2474C63.8129 68.6589 63.5853 65.8932 62.9137 65.8954C62.5805 65.8964 61.2985 66.6838 60.9943 67.0742C60.6133 67.5631 60.6856 68.6638 61.1594 69.5929C61.3907 70.0461 61.5514 70.6624 61.5167 70.9627C61.4644 71.4151 61.3575 71.2724 60.8922 70.1284C60.5835 69.3694 60.3308 68.5226 60.3308 68.2466C60.3308 67.8591 60.2522 67.775 59.9854 67.8773C59.7653 67.9618 59.8805 67.7105 60.3018 67.186C60.7019 66.6881 61.4848 66.1004 62.2806 65.7007C63.945 64.8641 64.0712 64.3525 62.5691 64.5305C61.0439 64.7112 59.5679 65.5972 58.8509 66.7624C58.5221 67.2967 58.1699 67.6821 58.0678 67.6192C57.7912 67.4481 58.4392 66.2908 59.2268 65.5494C59.6245 65.175 59.8717 64.7746 59.8078 64.6081C59.6494 64.1953 60.9345 63.6359 62.4813 63.444C63.1829 63.3571 63.9101 63.2001 64.0971 63.0953C64.3792 62.9375 64.2929 62.84 63.5922 62.5239C62.8212 62.1763 62.5944 62.165 60.9953 62.3963C60.0317 62.5356 59.0661 62.7444 58.8495 62.8604C58.6329 62.9763 58.2307 63.58 57.9556 64.202C57.6806 64.824 57.407 65.2844 57.3478 65.2252C57.1657 65.0433 58.0909 63.1025 58.5776 62.645C59.2064 62.0546 61.749 61.5838 63.4516 61.7427C65.0558 61.8925 65.3071 61.6383 64.3082 60.8765C63.6106 60.3445 63.5126 60.3277 61.7702 60.4406C59.6028 60.5811 58.931 60.8887 58.0752 62.1326C57.7222 62.6456 57.3899 63.0218 57.3368 62.9686C57.1859 62.8177 57.9948 61.344 58.4582 60.9246C59.0208 60.4159 60.2606 59.9941 61.2258 59.9833ZM82.2567 62.7787C82.2063 62.7283 82.5474 61.8903 83.0145 60.9165C83.4818 59.9429 83.9077 59.1896 83.9607 59.2429C84.014 59.2962 83.6731 60.134 83.203 61.1049C82.733 62.076 82.3074 62.8291 82.2567 62.7787ZM88.6561 62.1144C88.8525 62.0323 89.289 61.8941 89.6258 61.8074C90.2117 61.6561 90.2021 61.6483 89.4047 61.6283C88.5677 61.6075 88.2989 61.7153 88.2989 62.0717C88.2989 62.1773 88.4597 62.1965 88.6561 62.1144ZM96.4169 66.5822C96.3294 65.4892 96.1185 65.1397 94.0625 62.6793L93.1667 61.6075L91.8047 61.6385L90.4424 61.6698L91.6971 61.7917C93.0853 61.9266 93.4268 62.1526 94.5427 63.6727C95.603 65.1172 95.3799 65.0798 93.9619 63.5755L92.6841 62.22H91.0947C89.6793 62.22 89.4502 62.2749 89.0042 62.7211C88.3483 63.3769 88.325 63.9568 88.9623 63.7562C89.8679 63.4712 91.7116 63.3995 92.147 63.6327C92.7013 63.9293 94.2822 66.0114 94.182 66.3125C94.1401 66.4376 93.6697 65.9781 93.1365 65.2915C92.0025 63.8311 91.5497 63.6045 90.3168 63.8801C89.1624 64.1381 88.503 64.5754 88.503 65.0827C88.503 65.3871 88.6412 65.4863 89.0658 65.4863C90.0537 65.4863 91.0089 65.8691 91.705 66.5436C92.669 67.478 92.5441 67.6984 91.5385 66.8375C90.1594 65.6574 88.0915 65.559 88.0978 66.6738C88.1017 67.3573 88.3924 67.872 88.592 67.5488C88.8452 67.1393 89.812 67.5596 90.5549 68.4019L91.2798 69.224L91.0997 70.6724C90.7794 73.2492 90.9938 74.7639 91.9367 76.5853C93.1245 78.8795 93.3117 79.8456 94.018 87.33C94.3034 90.3515 94.689 92.227 95.5714 94.8834C96.3886 97.3438 97.8872 100.478 98.6285 101.278C99.1184 101.806 99.2086 101.824 101.375 101.824H103.616L104 101.193C104.211 100.845 104.446 100.041 104.522 99.4063C104.598 98.7714 104.895 97.5169 105.183 96.6186C105.894 94.4049 105.893 92.6927 105.182 91.1389C104.891 90.5036 104.559 89.9839 104.443 89.9839C104.223 89.9839 104.402 90.6055 104.871 91.4776C105.195 92.0811 105.435 93.4544 105.216 93.4544C105.118 93.4544 105.039 93.337 105.039 93.1935C105.039 92.8078 103.779 90.2531 102.954 88.9631C101.822 87.1954 98.4402 81.2672 97.5234 79.4438C95.7629 75.9421 95.5461 74.412 96.1767 69.9334C96.3549 68.6665 96.4631 67.1585 96.4169 66.5822ZM72.2099 66.1349C71.4235 65.1858 70.334 63.4514 70.334 63.1484C70.334 63.0612 70.698 63.5351 71.1428 64.2012C72.1343 65.6862 73.959 67.4426 74.9326 67.8493C75.8521 68.2335 76.8854 67.9914 78.5776 66.9951C79.238 66.6065 79.8074 66.3174 79.8427 66.3529C79.9709 66.4811 77.9154 67.7707 77.1451 68.0453C75.3378 68.6896 73.8492 68.1133 72.2099 66.1349ZM62.6785 64.1312C62.8469 64.0665 62.9847 63.9775 62.9847 63.9334C62.9847 63.8893 62.8469 63.8531 62.6785 63.8531C62.5101 63.8531 62.3723 63.9421 62.3723 64.0509C62.3723 64.1596 62.5101 64.1957 62.6785 64.1312ZM63.8013 64.2614C63.9136 64.2614 64.0054 64.1696 64.0054 64.0573C64.0054 63.945 63.9136 63.8531 63.8013 63.8531C63.689 63.8531 63.5971 63.945 63.5971 64.0573C63.5971 64.1696 63.689 64.2614 63.8013 64.2614ZM61.3115 68.2025C61.1925 67.9561 61.1498 67.6117 61.2168 67.4369C61.4232 66.8994 61.5563 67.0829 61.5418 67.885C61.5293 68.5738 61.5063 68.6057 61.3115 68.2025ZM90.3603 71.9059C90.5498 71.4214 90.5916 69.3173 90.4206 68.8715C90.3524 68.6938 90.2146 68.5485 90.1143 68.5485C89.9047 68.5485 89.8714 71.0573 90.0713 71.8038C90.195 72.2664 90.2162 72.274 90.3603 71.9059ZM59.9101 74.6351C59.6318 74.7409 58.9267 74.2842 58.6923 73.8465C58.5088 73.5035 58.6029 73.5291 59.2764 74.0043C59.718 74.3158 60.0031 74.5998 59.9101 74.6351ZM81.0006 77.148C78.3161 77.8482 74.7348 77.4817 71.8675 76.2138C71.2208 75.9276 70.6526 75.6936 70.6051 75.6936C70.3362 75.6936 72.057 77.851 73.3731 79.1641C74.4953 80.2834 74.9273 80.6038 74.9801 80.3553C75.02 80.1683 75.1912 79.9623 75.3605 79.8972C75.5924 79.8082 75.6369 79.8788 75.5403 80.1828C75.3682 80.7252 76.262 81.6139 76.98 81.6139C77.3252 81.6139 77.7784 81.3554 78.2369 80.8969C78.8291 80.3047 78.9102 80.1271 78.7019 79.8762C78.4964 79.6285 78.5111 79.5724 78.7811 79.5724C78.9982 79.5724 79.1123 79.7482 79.1123 80.0828C79.1123 80.3635 79.1876 80.5931 79.2797 80.5931C79.8639 80.5931 82.3786 77.6683 82.3786 76.9887C82.3786 76.8738 81.7929 76.9414 81.0006 77.148ZM78.9632 78.2602C79.5551 78.1863 80.2669 78.0009 80.5454 77.8484C81.7262 77.2014 81.9697 77.8116 80.8665 78.6531C79.9319 79.366 78.824 79.5401 78.291 79.058C77.691 78.5149 77.7812 78.4078 78.9632 78.2602ZM75.6206 79.1931C74.9018 79.6771 72.776 78.8861 72.6165 78.0752C72.5573 77.7747 72.6182 77.772 73.2735 78.0458C73.6705 78.2118 74.3687 78.3475 74.825 78.3475C75.7085 78.3475 76.1613 78.8287 75.6206 79.1931ZM98.1448 101.416L97.7682 100.855C97.561 100.546 96.9933 99.5583 96.5064 98.6601C95.7931 97.3444 95.6447 97.1657 95.7427 97.7414C95.8096 98.1344 95.9211 99.1219 95.9903 99.936L96.1162 101.416H97.1306H98.1448ZM60.1267 100.395C60.4572 100.395 60.5349 100.259 60.5349 99.6808C60.5349 99.2879 60.5088 98.9663 60.477 98.9663C60.3931 98.9663 59.7184 100.129 59.7184 100.274C59.7184 100.341 59.9021 100.395 60.1267 100.395ZM74.2836 104.971C69.5172 102.892 65.768 101.77 61.404 101.117C60.2538 100.945 59.2892 100.808 59.2605 100.812C59.2315 100.817 58.8865 100.997 58.4935 101.212C57.6297 101.685 56.5255 101.717 55.023 101.314C53.0128 100.774 49.6372 101.047 47.7821 101.898C44.6205 103.35 42.597 107.646 43.7025 110.56C43.9027 111.089 44.6615 112.465 45.3885 113.619C46.1155 114.773 46.6642 115.763 46.6081 115.819C46.5519 115.875 46.1716 115.551 45.7629 115.099C45.3542 114.646 45.0198 114.328 45.0198 114.391C45.0198 114.792 46.624 117.668 47.4943 118.827C48.4966 120.163 52.5667 124.355 52.7159 124.206C52.8782 124.043 51.6554 121.027 50.9013 119.729C49.913 118.029 49.972 117.51 50.9921 118.93C52.8637 121.535 53.5511 123.622 53.7303 127.241C53.8869 130.403 54.0862 130.891 55.4817 131.53C56.5892 132.037 58.6833 132.433 60.3308 132.446C60.9963 132.451 61.1651 132.507 60.9432 132.649C60.6035 132.866 56.6245 132.782 55.8727 132.542C55.4574 132.409 55.4043 132.45 55.4644 132.857C55.5811 133.648 56.4647 134.12 58.0401 134.233C60.4723 134.407 63.7813 133.598 64.9851 132.535L65.5365 132.048L64.2606 132.174C63.4359 132.256 62.9847 132.226 62.9847 132.089C62.9847 131.848 63.461 131.63 63.985 131.63C64.18 131.63 64.8159 131.488 65.3979 131.315C67.2899 130.754 67.4267 129.852 65.9026 127.992L65.1697 127.098L64.8847 127.776C64.5285 128.623 64.0695 129.136 63.3234 129.522C62.429 129.985 62.4813 129.737 63.4914 128.727C64.3764 127.842 64.4137 127.756 64.4125 126.604C64.4111 125.097 64.1196 124.028 63.52 123.331L63.0535 122.788L62.4131 123.262C61.996 123.57 61.3962 123.766 60.6944 123.823C59.7194 123.902 59.4183 123.811 57.5473 122.872C55.713 121.951 53.2153 120.1 53.4674 119.848C53.5186 119.796 54.267 120.231 55.1302 120.813C57.0759 122.126 58.923 122.991 60.1267 123.153C62.7305 123.502 63.4796 120.84 61.7898 117.242C60.7632 115.056 60.3808 114.752 56.4896 113.039C55.3104 112.52 54.0902 111.331 53.8808 110.496C53.6781 109.688 53.9079 109.687 54.4067 110.494C54.935 111.349 55.8545 112.092 56.9503 112.55L57.7328 112.877L57.0161 111.893C56.6217 111.352 56.0984 110.512 55.8533 110.026C55.0142 108.364 55.5391 108.746 56.9665 110.836C58.1377 112.55 58.5947 113.043 59.5152 113.582C60.1322 113.943 60.9126 114.613 61.2495 115.07C61.5863 115.527 61.9284 115.903 62.0097 115.906C62.2802 115.915 62.8126 114.654 63.0743 113.385C63.3166 112.21 63.3411 112.173 63.4773 112.78C63.6447 113.527 63.3285 114.899 62.7652 115.869C62.3782 116.536 62.3786 116.555 62.8091 117.809C63.086 118.615 63.2525 119.631 63.2674 120.606C63.2936 122.304 63.3244 122.353 64.861 123.16C67.0152 124.291 71.7526 125.033 75.0747 124.76C76.1072 124.676 77.6918 124.758 79.668 124.998C82.535 125.347 82.7863 125.348 84.7263 125.016C86.6508 124.686 86.8184 124.617 87.6517 123.81C88.6929 122.801 89.0469 122.18 89.4404 120.668C89.6005 120.054 90.1439 118.77 90.6482 117.814C91.1526 116.858 91.5652 115.957 91.5652 115.812C91.5652 115.668 91.9098 115.259 92.3308 114.903C94.3067 113.235 95.1614 112.577 96.2293 111.899C96.864 111.496 98.0724 110.556 98.9145 109.811C101.084 107.89 101.16 107.835 101.16 108.192C101.16 108.639 98.8167 110.863 96.873 112.262L95.1378 113.51L96.1908 113.379C97.4705 113.219 99.2772 112.615 100.476 111.945C101.523 111.359 101.653 111.587 100.69 112.321C99.6167 113.14 98.2516 113.655 96.0397 114.076C92.9124 114.672 92.8615 114.72 90.6978 119.056C90.4789 119.494 90.1339 120.791 89.9312 121.937C89.5774 123.938 89.1559 125.126 88.7004 125.407C88.4795 125.544 88.591 124.859 88.9468 123.895C89.0458 123.627 89.0965 123.377 89.0591 123.34C89.0217 123.302 88.2744 124.065 87.3982 125.034L85.8048 126.796L85.8912 127.99C85.9585 128.922 86.1229 129.39 86.6394 130.123C87.3878 131.185 87.3373 131.538 86.543 130.797C85.8054 130.109 85.2356 128.919 85.1809 127.953C85.1409 127.247 85.1001 127.184 84.8794 127.483C84.4901 128.011 84.5679 128.55 85.2369 129.964C85.8424 131.244 86.0402 132.446 85.645 132.446C85.5327 132.446 85.4408 132.311 85.4408 132.146C85.4408 131.644 84.5548 129.986 84.327 130.061C84.2098 130.099 83.8058 130.533 83.4294 131.026C82.8535 131.779 82.7612 132.044 82.8486 132.694C83.1323 134.811 84.9896 136.325 87.3012 136.325C88.0155 136.325 88.839 136.484 89.4217 136.733C90.5516 137.218 91.0207 137.245 91.3513 136.847C91.7434 136.375 90.2574 135.714 89.352 135.958C87.7362 136.394 85.2209 135.262 83.8587 133.484C82.8498 132.168 83.0631 132.08 84.369 133.275C85.7911 134.576 87.2632 135.3 88.491 135.302C89.3318 135.304 89.3688 135.283 89.0013 135.005C88.2186 134.413 89.5529 134.656 90.6465 135.304C91.208 135.637 91.8136 135.912 91.9925 135.913C92.442 135.918 95.05 134.058 95.7347 133.244C96.2751 132.602 96.2912 132.516 96.1577 131.008C95.867 127.725 97.4789 124.254 100.488 121.684C101.714 120.636 102.153 120.653 101.246 121.713C100.918 122.096 100.114 123.037 99.4593 123.804C98.3335 125.124 97.7145 126.101 97.2778 127.25L97.0857 127.755L97.9425 127.318C99.0813 126.737 104.718 121.158 106.374 118.973C107.676 117.254 109.26 114.309 109.736 112.718C109.878 112.245 109.951 111.162 109.908 110.177C109.846 108.764 109.716 108.212 109.175 107.068C108.327 105.271 106.714 103.668 105.099 103.016C104.005 102.575 103.642 102.54 100.285 102.557C97.0204 102.573 96.1832 102.463 97.3834 102.174C98.4043 101.928 95.3121 102.061 93.7865 102.328C91.3439 102.756 89.6046 103.399 85.2287 105.492C83.1084 106.506 81.1174 107.333 80.8042 107.329L80.2351 107.322L80.7454 107.03C81.2342 106.751 81.2078 106.738 80.1191 106.731C78.6678 106.722 77.4689 106.36 74.2836 104.971ZM69.6713 116.845C69.3212 117.196 65.6711 113.647 64.9298 112.236C64.8414 112.067 65.4928 112.667 66.3776 113.568C67.2624 114.469 68.385 115.555 68.8721 115.982C69.3592 116.409 69.7189 116.798 69.6713 116.845ZM94.5368 118.56C97.3285 117.499 100.091 116.011 101.698 114.704C102.889 113.734 103.307 113.624 102.474 114.499C100.786 116.273 98.0803 117.877 95.6273 118.556C94.1395 118.969 93.4558 118.971 94.5368 118.56ZM57.849 119.469C55.9606 118.501 52.8386 115.791 52.219 114.584C52.0053 114.167 52.5226 114.567 53.8377 115.835C54.9005 116.86 56.43 118.137 57.2363 118.673C58.7411 119.674 59.0628 120.092 57.849 119.469ZM90.5445 125.735C93.6434 124.931 96.1905 123.385 98.7077 120.78C99.4359 120.026 100.067 119.445 100.11 119.488C100.153 119.531 99.7564 120.172 99.228 120.912C97.0857 123.915 93.2551 126.155 89.7379 126.462C87.9761 126.616 88.3097 126.315 90.5445 125.735ZM89.5919 132.93C88.6633 132.18 87.0076 129.861 87.1901 129.566C87.2526 129.464 87.8107 130.002 88.4301 130.761C89.0497 131.52 90.0129 132.541 90.5706 133.032C92.1862 134.453 91.3721 134.368 89.5919 132.93ZM90.4254 132.429C89.9465 131.939 89.7179 131.542 89.7963 131.338C89.9829 130.852 91.4541 130.934 93.2061 131.53C95.8008 132.413 95.5606 132.801 92.8922 132.038C92.107 131.813 91.2345 131.634 90.9534 131.639C90.4883 131.647 90.5479 131.746 91.6162 132.732C92.262 133.328 92.7901 133.881 92.7901 133.96C92.7901 134.241 91.17 133.191 90.4254 132.429ZM66.6208 136.299C67.0427 134.939 67.0946 134.274 66.8651 133.168C66.7367 132.551 66.5691 132.01 66.4926 131.966C66.4158 131.923 66.1277 132.165 65.8523 132.504C65.5767 132.844 65.0562 133.296 64.6955 133.509C64.0818 133.871 64.0328 133.984 63.9393 135.264C63.7997 137.168 63.6623 138.364 63.5006 139.081C63.4246 139.418 63.3448 140.199 63.323 140.816L63.2836 141.939L62.6748 141.837C62.34 141.781 61.1015 141.735 59.9225 141.735C58.1744 141.735 57.6355 141.81 57.001 142.143C55.653 142.851 56.0966 143.142 59.0038 143.46C61.0876 143.688 63.9168 143.398 64.6179 142.884C65.1042 142.527 65.1331 142.389 65.2303 139.949C65.3161 137.797 65.3953 137.318 65.7256 136.954C65.994 136.657 66.1647 136.594 66.2631 136.753C66.3484 136.891 66.4946 136.705 66.6208 136.299ZM86.3736 133.615C85.2673 133.545 84.8768 133.138 85.786 133.003C86.6553 132.873 87.6687 133.056 88.9113 133.565C92.8734 135.191 93.4144 135.509 92.223 135.509C91.911 135.509 91.0152 135.202 90.2325 134.826C88.3742 133.936 87.5958 133.692 86.3736 133.615ZM62.8826 134.692C63.2003 134.692 63.393 134.576 63.393 134.386C63.393 134.072 63.3444 134.06 62.7295 134.22C62.1926 134.361 62.3002 134.692 62.8826 134.692ZM84.3164 136.163C83.8038 135.802 83.1948 135.185 82.9633 134.793C82.7318 134.401 82.5074 134.08 82.4646 134.08C82.4219 134.08 82.1065 134.562 81.7637 135.151C81.3093 135.933 81.1705 136.385 81.2513 136.821C81.3854 137.544 82.6324 139.545 82.7428 139.214C82.7857 139.085 82.9051 138.979 83.008 138.979C83.264 138.979 83.2442 141.701 82.9778 143.142C82.7961 144.125 82.813 144.398 83.0819 144.809C83.876 146.021 85.8238 146.32 89.8065 145.841C91.2533 145.667 92.4771 145.484 92.5265 145.435C92.7388 145.223 91.9131 144.062 91.338 143.764C89.9116 143.027 86.7725 143.034 84.585 143.78L83.7056 144.08L84.2159 143.622C84.7022 143.186 84.7243 143.068 84.6818 141.136C84.6571 140.02 84.7145 139.01 84.809 138.89C84.9037 138.771 85.0413 138.256 85.1148 137.747C85.2477 136.827 85.2418 136.816 84.3164 136.163ZM66.5444 138.06C67.2103 137.267 67.8842 135.906 67.8842 135.354C67.8842 135.115 67.7924 134.863 67.6801 134.794C67.5662 134.724 67.4759 134.879 67.4759 135.145C67.4759 135.407 67.1507 136.309 66.7532 137.147C66.1126 138.499 66.089 138.603 66.5444 138.06ZM57.2508 139.489C57.3627 138.816 57.5075 137.507 57.5724 136.58C57.6373 135.654 57.6416 134.896 57.5816 134.896C57.5217 134.896 57.4695 134.965 57.4654 135.049C57.3968 136.475 57.0269 139.431 56.737 140.867C56.6747 141.176 56.7031 141.429 56.8003 141.429C56.8975 141.429 56.9928 141.268 57.0122 141.072C57.0314 140.875 57.139 140.163 57.2508 139.489ZM63.4171 136.504L63.354 135.853L63.2909 135.202L61.2495 135.151C58.9199 135.092 58.2228 135.316 58.1246 136.158C58.0621 136.692 58.0676 136.694 58.9412 136.49C59.4248 136.378 60.6297 136.335 61.6188 136.395L63.4171 136.504ZM63.1889 137.715C63.1889 137.413 63.1145 137.12 63.0237 137.064C62.9329 137.008 62.1749 136.914 61.3395 136.857C59.1806 136.707 57.881 137.111 57.881 137.932C57.881 138.222 58.2195 138.265 60.5347 138.265H63.1886L63.1889 137.715ZM82.5656 141.112C83.0062 141.384 82.7808 140.275 82.2543 139.58C81.9615 139.193 81.5157 138.442 81.2636 137.911C80.7642 136.859 80.5413 136.845 80.5413 137.868C80.5413 138.325 80.8167 138.9 81.4428 139.75C81.9389 140.424 82.4441 141.037 82.5656 141.112ZM88.9113 137.322C89.1834 137.338 89.1834 137.318 88.9113 137.142C88.7429 137.033 88.3754 136.952 88.0947 136.961L87.5843 136.978L88.0947 137.142C88.3754 137.232 88.7429 137.313 88.9113 137.322ZM90.5445 138.882C90.5445 138.48 89.6199 138.024 88.0539 137.655C87.3465 137.488 86.7218 137.352 86.6657 137.352C86.318 137.352 85.5355 137.923 85.4788 138.219C85.4214 138.516 85.5794 138.571 86.4977 138.574C87.0954 138.576 88.1355 138.71 88.8092 138.873C90.3658 139.249 90.5445 139.25 90.5445 138.882ZM91.0093 139.461C90.9836 141.488 91.2825 141.242 91.409 139.132C91.4611 138.262 91.4948 137.551 91.4835 137.553C91.1651 137.602 91.0256 138.163 91.0093 139.461ZM62.5225 139.881C62.9177 139.9 63.0764 139.428 62.8124 139.019C62.5421 138.6 59.1727 138.481 58.3404 138.861C57.9756 139.027 57.6769 139.306 57.6769 139.48C57.6769 139.744 58.046 139.801 59.9225 139.83C61.1576 139.848 62.3276 139.871 62.5225 139.881ZM90.3403 139.936C90.1719 139.762 89.2661 139.476 88.3274 139.299C87.3886 139.123 86.3664 138.979 86.0557 138.979C85.4202 138.979 84.93 139.438 85.0982 139.876C85.1879 140.11 85.3804 140.127 86.0908 139.962C86.9143 139.772 88.6216 139.844 90.0341 140.129C90.5841 140.24 90.6153 140.221 90.3403 139.936ZM62.732 140.818C62.6997 140.65 62.399 140.455 62.0636 140.383C61.0735 140.171 58.2171 140.199 57.83 140.424C57.6334 140.539 57.4728 140.744 57.4728 140.881C57.4728 141.063 58.1787 141.128 60.1316 141.126C62.3778 141.123 62.7814 141.075 62.732 140.818ZM89.9167 141.393C90.8007 141.701 90.7049 141.123 89.7924 140.643C89.547 140.514 88.5279 140.408 87.5274 140.408C86.0243 140.408 85.6494 140.473 85.3704 140.781C84.8404 141.367 84.9386 141.703 85.5939 141.545C86.7443 141.268 89.2994 141.178 89.9167 141.393ZM90.7484 142.618C90.7486 142.541 90.5065 142.289 90.2107 142.056C89.7752 141.714 89.3961 141.636 88.2203 141.649C86.7686 141.664 85.0893 142.026 85.1856 142.303C85.2136 142.384 85.2367 142.525 85.2367 142.618C85.2367 142.71 86.4769 142.779 87.9924 142.771C89.5082 142.762 90.7484 142.693 90.7484 142.618ZM63.995 145.719C65.1101 145.418 65.8428 144.697 65.8428 143.9C65.8428 143.565 65.7738 143.252 65.6896 143.205C65.6055 143.159 65.1231 143.314 64.6179 143.55C63.8023 143.932 63.344 143.979 60.5349 143.966C58.1446 143.956 57.1624 143.872 56.5192 143.624C55.5621 143.255 55.4313 143.361 55.4313 144.503C55.4313 145.602 56.089 145.809 59.828 145.886C61.8907 145.929 63.4477 145.866 63.995 145.719ZM88.445 146.524C86.5985 146.718 84.829 146.555 83.9701 146.11C83.7123 145.977 83.3406 145.727 83.1442 145.556C82.8175 145.271 82.7869 145.283 82.7869 145.698C82.7869 146.381 83.1348 146.897 83.8648 147.296C84.4307 147.605 84.9911 147.647 87.8906 147.6C92.1399 147.53 92.6656 147.427 92.7556 146.648L92.823 146.064L91.5307 146.2L90.4096 146.318L88.445 146.524Z" fill="#0060B9"/>
<path fill-rule="evenodd" clip-rule="evenodd" d="M61.404 101.117C65.768 101.77 69.5172 102.892 74.2836 104.971C77.4689 106.36 78.6678 106.722 80.1191 106.731C81.2078 106.738 81.2342 106.751 80.7454 107.03L80.2351 107.322L80.8042 107.329C81.1174 107.333 83.1084 106.506 85.2287 105.492C89.6046 103.399 91.3439 102.756 93.7865 102.328C95.3121 102.061 98.4043 101.928 97.3834 102.174C96.1832 102.463 97.0204 102.573 100.285 102.557C103.642 102.54 104.005 102.575 105.1 103.016C106.714 103.668 108.327 105.271 109.175 107.068C109.716 108.212 109.846 108.764 109.908 110.177C109.951 111.162 109.878 112.245 109.736 112.718C109.26 114.309 107.676 117.254 106.374 118.973C104.718 121.158 99.0813 126.737 97.9425 127.318L97.0857 127.755L97.2778 127.25C97.7145 126.101 98.3335 125.124 99.4593 123.804C100.114 123.037 100.918 122.096 101.246 121.713C102.153 120.653 101.714 120.636 100.488 121.684C97.4789 124.254 95.867 127.725 96.1577 131.008C96.2912 132.516 96.2751 132.602 95.7347 133.244C95.05 134.058 92.442 135.918 91.9925 135.913C91.8136 135.912 91.208 135.637 90.6465 135.304C89.5529 134.656 88.2186 134.413 89.0013 135.005C89.3688 135.283 89.3318 135.304 88.491 135.302C87.2632 135.3 85.7911 134.576 84.369 133.275C83.0631 132.08 82.8498 132.168 83.8587 133.484C85.2209 135.262 87.7362 136.394 89.3521 135.958C90.2574 135.714 91.7434 136.375 91.3513 136.847C91.0207 137.245 90.5516 137.218 89.4217 136.733C88.839 136.484 88.0155 136.325 87.3012 136.325C84.9897 136.325 83.1323 134.811 82.8486 132.694C82.7612 132.044 82.8535 131.779 83.4294 131.026C83.8058 130.533 84.2098 130.099 84.327 130.061C84.5548 129.986 85.4408 131.644 85.4408 132.146C85.4408 132.311 85.5327 132.446 85.645 132.446C86.0402 132.446 85.8424 131.244 85.2369 129.964C84.5679 128.55 84.4901 128.011 84.8794 127.483C85.1001 127.184 85.1409 127.247 85.1809 127.953C85.2356 128.919 85.8054 130.109 86.543 130.797C87.3373 131.538 87.3878 131.185 86.6394 130.123C86.1229 129.39 85.9585 128.922 85.8912 127.99L85.8048 126.796L87.3982 125.034C88.2744 124.065 89.0217 123.302 89.0591 123.34C89.0965 123.377 89.0458 123.627 88.9468 123.895C88.591 124.859 88.4795 125.544 88.7004 125.407C89.1559 125.126 89.5774 123.938 89.9312 121.937C90.1339 120.791 90.4789 119.494 90.6978 119.056C92.8615 114.72 92.9124 114.672 96.0397 114.076C98.2516 113.655 99.6167 113.14 100.69 112.321C101.653 111.587 101.523 111.359 100.476 111.945C99.2772 112.615 97.4705 113.219 96.1908 113.379L95.1378 113.51L96.873 112.262C98.8167 110.863 101.16 108.639 101.16 108.192C101.16 107.835 101.084 107.89 98.9145 109.811C98.0724 110.556 96.864 111.496 96.2293 111.899C95.1614 112.577 94.3067 113.235 92.3308 114.903C91.9098 115.259 91.5652 115.668 91.5652 115.812C91.5652 115.957 91.1526 116.858 90.6482 117.814C90.1439 118.77 89.6005 120.054 89.4405 120.668C89.0469 122.18 88.6929 122.801 87.6517 123.81C86.8184 124.617 86.6508 124.686 84.7263 125.016C82.7863 125.348 82.535 125.347 79.668 124.998C77.6918 124.758 76.1072 124.676 75.0747 124.76C71.7526 125.033 67.0152 124.291 64.861 123.16C63.3244 122.353 63.2936 122.304 63.2674 120.606C63.2525 119.631 63.086 118.615 62.8091 117.809C62.3786 116.555 62.3782 116.536 62.7652 115.869C63.3285 114.899 63.6447 113.527 63.4773 112.78C63.3411 112.173 63.3166 112.21 63.0743 113.385C62.8126 114.654 62.2802 115.915 62.0097 115.906C61.9285 115.903 61.5863 115.527 61.2495 115.07C60.9126 114.613 60.1322 113.943 59.5152 113.582C58.5947 113.043 58.1377 112.55 56.9665 110.836C55.5391 108.746 55.0142 108.364 55.8533 110.026C56.0984 110.512 56.6217 111.352 57.0161 111.893L57.7328 112.877L56.9503 112.55C55.8545 112.092 54.935 111.349 54.4067 110.494C53.9079 109.687 53.6781 109.688 53.8808 110.496C54.0902 111.331 55.3104 112.52 56.4896 113.039C60.3808 114.752 60.7632 115.056 61.7898 117.242C63.4796 120.84 62.7305 123.502 60.1267 123.153C58.923 122.991 57.0759 122.126 55.1302 120.813C54.267 120.231 53.5186 119.796 53.4674 119.848C53.2153 120.1 55.713 121.951 57.5473 122.872C59.4183 123.811 59.7194 123.902 60.6944 123.823C61.3962 123.766 61.996 123.57 62.4131 123.262L63.0535 122.788L63.52 123.331C64.1196 124.028 64.4111 125.097 64.4125 126.604C64.4137 127.756 64.3764 127.842 63.4914 128.727C62.4813 129.737 62.429 129.985 63.3234 129.522C64.0695 129.136 64.5285 128.623 64.8847 127.776L65.1697 127.098L65.9026 127.992C67.4267 129.852 67.2899 130.754 65.3979 131.315C64.8159 131.488 64.18 131.63 63.985 131.63C63.461 131.63 62.9847 131.848 62.9847 132.089C62.9847 132.226 63.4359 132.256 64.2606 132.174L65.5365 132.048L64.9851 132.535C63.7813 133.598 60.4723 134.407 58.0401 134.233C56.4647 134.12 55.5811 133.648 55.4644 132.857C55.4043 132.45 55.4574 132.409 55.8727 132.542C56.6245 132.782 60.6035 132.866 60.9432 132.649C61.1651 132.507 60.9963 132.451 60.3308 132.446C58.6833 132.433 56.5892 132.037 55.4817 131.53C54.0862 130.891 53.8869 130.403 53.7303 127.241C53.5511 123.622 52.8637 121.535 50.9921 118.93C49.972 117.51 49.913 118.029 50.9013 119.729C51.6554 121.027 52.8782 124.043 52.7159 124.206C52.5667 124.355 48.4966 120.163 47.4943 118.827C46.624 117.668 45.0198 114.792 45.0198 114.391C45.0198 114.328 45.3542 114.646 45.7629 115.099C46.1716 115.551 46.5519 115.875 46.6081 115.819C46.6642 115.763 46.1155 114.773 45.3885 113.619C44.6615 112.465 43.9027 111.089 43.7025 110.56C42.597 107.646 44.6205 103.35 47.7821 101.898C49.6372 101.047 53.0128 100.774 55.023 101.314C56.5255 101.717 57.6297 101.685 58.4935 101.212C58.8865 100.997 59.2315 100.817 59.2605 100.812C59.2892 100.808 60.2538 100.945 61.404 101.117ZM64.6593 103.844C62.79 103.177 61.166 102.531 61.0508 102.409C60.9022 102.252 60.9602 102.22 61.2495 102.302C61.474 102.365 62.4386 102.612 63.393 102.852C65.492 103.378 68.5267 104.492 70.3464 105.406C71.8136 106.142 75.5128 108.554 75.3795 108.688C75.3335 108.733 74.4322 108.294 73.3764 107.711C70.4183 106.078 68.3587 105.164 64.6593 103.844ZM83.8085 108.099C87.6985 105.481 89.0865 104.684 90.8507 104.055C91.8455 103.701 92.3818 103.588 92.3818 103.734C92.3818 103.773 91.6309 104.197 90.7131 104.676C88.6122 105.772 87.0658 106.718 83.6431 108.997C81.9607 110.118 80.7238 110.807 80.3937 110.807C80.1005 110.807 79.8991 110.769 79.9458 110.724C79.9928 110.678 81.7309 109.497 83.8085 108.099ZM61.6067 105.914C60.7926 105.436 60.1267 105.009 60.1267 104.965C60.1267 104.669 63.007 106.164 64.6179 107.296C65.9489 108.232 72.1713 114.193 72.1713 114.532C72.1713 114.888 70.8002 113.735 67.9863 111.013C64.971 108.097 64.0042 107.324 61.6067 105.914ZM93.5119 107.15C94.2938 106.654 95.1174 106.131 95.3419 105.987C95.9533 105.594 96.2371 105.67 95.6549 106.071C94.3359 106.978 90.6333 109.822 88.7072 111.406C86.0598 113.583 84.3844 114.862 83.223 115.59C82.2263 116.215 80.7454 116.792 80.7454 116.554C80.7454 116.469 81.5806 115.863 82.6013 115.206C83.6221 114.55 86.1747 112.672 88.2738 111.032C90.3728 109.392 92.7299 107.645 93.5119 107.15ZM69.6713 116.845C69.3212 117.196 65.6711 113.647 64.9298 112.236C64.8414 112.067 65.4928 112.667 66.3776 113.568C67.2624 114.469 68.385 115.555 68.8721 115.982C69.3592 116.409 69.7189 116.798 69.6713 116.845ZM77.0914 117.544C77.0704 116.72 77.3442 114.924 77.6816 113.671C78.1111 112.076 78.0693 112.937 77.5875 115.608C77.3248 117.066 77.1014 117.937 77.0914 117.544ZM94.5368 118.56C97.3285 117.499 100.091 116.011 101.698 114.704C102.889 113.734 103.307 113.624 102.474 114.499C100.786 116.273 98.0803 117.877 95.6273 118.556C94.1395 118.969 93.4558 118.971 94.5368 118.56ZM57.849 119.469C55.9606 118.501 52.8386 115.791 52.219 114.584C52.0053 114.167 52.5226 114.567 53.8377 115.835C54.9005 116.86 56.43 118.137 57.2363 118.673C58.7411 119.674 59.0628 120.092 57.849 119.469ZM90.5445 125.735C93.6434 124.931 96.1905 123.385 98.7077 120.78C99.4359 120.026 100.067 119.445 100.11 119.488C100.153 119.531 99.7564 120.172 99.228 120.912C97.0857 123.915 93.2551 126.155 89.7379 126.462C87.9761 126.616 88.3097 126.315 90.5445 125.735ZM89.5919 132.93C88.6633 132.18 87.0076 129.861 87.1901 129.566C87.2526 129.464 87.8107 130.002 88.4301 130.761C89.0497 131.52 90.0129 132.541 90.5706 133.032C92.1862 134.453 91.3721 134.368 89.5919 132.93ZM90.4255 132.429C89.9465 131.939 89.7179 131.542 89.7963 131.338C89.9829 130.852 91.4541 130.934 93.2061 131.53C95.8008 132.413 95.5606 132.801 92.8922 132.038C92.107 131.813 91.2345 131.634 90.9534 131.639C90.4883 131.647 90.5479 131.746 91.6162 132.732C92.262 133.328 92.7901 133.881 92.7901 133.96C92.7901 134.241 91.17 133.191 90.4255 132.429ZM86.3736 133.615C85.2673 133.545 84.8768 133.138 85.786 133.003C86.6553 132.873 87.6687 133.056 88.9113 133.565C92.8734 135.191 93.4144 135.509 92.223 135.509C91.911 135.509 91.0152 135.202 90.2325 134.826C88.3742 133.936 87.5958 133.692 86.3736 133.615Z" fill="black"/>
<path fill-rule="evenodd" clip-rule="evenodd" d="M70.0498 57.506C69.6225 55.5164 71.0307 53.6252 73.7824 52.4932C74.4122 52.2343 75.0651 52.0247 75.2335 52.0275C75.4019 52.0302 74.9757 52.2496 74.2863 52.5152C71.5607 53.5646 70.5449 54.6861 70.3368 56.875C70.2164 58.1436 70.1964 58.1879 70.0498 57.506ZM79.8225 53.0928C79.3279 52.7794 78.9198 52.4587 78.9157 52.3803C78.9022 52.1253 80.4143 52.8556 81.4132 53.5866C82.2518 54.2003 83.0325 55.1224 83.7103 56.2997C83.8072 56.4681 83.1746 55.9437 82.3043 55.1342C81.434 54.3248 80.3171 53.4061 79.8225 53.0928ZM82.2567 62.7787C82.2063 62.7283 82.5474 61.8903 83.0145 60.9165C83.4818 59.9429 83.9077 59.1896 83.9607 59.2429C84.014 59.2962 83.6731 60.134 83.203 61.1049C82.733 62.076 82.3074 62.8291 82.2567 62.7787ZM72.2099 66.1349C71.4235 65.1858 70.334 63.4514 70.334 63.1484C70.334 63.0612 70.698 63.5351 71.1428 64.2012C72.1343 65.6862 73.959 67.4426 74.9326 67.8493C75.8521 68.2335 76.8854 67.9914 78.5776 66.9951C79.238 66.6065 79.8074 66.3174 79.8427 66.3529C79.9709 66.4811 77.9154 67.7707 77.1451 68.0453C75.3378 68.6896 73.8492 68.1133 72.2099 66.1349ZM61.3115 68.2025C61.1925 67.9561 61.1498 67.6117 61.2168 67.4369C61.4232 66.8994 61.5563 67.0829 61.5418 67.885C61.5293 68.5738 61.5063 68.6057 61.3115 68.2025ZM59.9101 74.6351C59.6318 74.7409 58.9267 74.2842 58.6923 73.8465C58.5088 73.5035 58.6029 73.5291 59.2764 74.0043C59.718 74.3158 60.0031 74.5998 59.9101 74.6351ZM78.9632 78.2602C79.5551 78.1863 80.2669 78.0009 80.5454 77.8484C81.7262 77.2015 81.9697 77.8116 80.8665 78.6531C79.9319 79.366 78.824 79.5402 78.291 79.058C77.691 78.5149 77.7812 78.4078 78.9632 78.2602ZM75.6206 79.1931C74.9018 79.6771 72.776 78.8861 72.6165 78.0752C72.5573 77.7747 72.6182 77.772 73.2735 78.0458C73.6705 78.2118 74.3687 78.3475 74.825 78.3475C75.7085 78.3475 76.1613 78.8287 75.6206 79.1931ZM64.6593 103.844C62.79 103.177 61.166 102.531 61.0508 102.409C60.9022 102.252 60.9602 102.22 61.2495 102.302C61.474 102.365 62.4386 102.612 63.393 102.852C65.492 103.378 68.5267 104.492 70.3464 105.406C71.8136 106.142 75.5128 108.554 75.3795 108.688C75.3335 108.733 74.4322 108.294 73.3764 107.711C70.4183 106.078 68.3587 105.164 64.6593 103.844ZM83.8085 108.099C87.6985 105.481 89.0865 104.684 90.8507 104.055C91.8455 103.701 92.3818 103.588 92.3818 103.734C92.3818 103.773 91.6309 104.197 90.7131 104.676C88.6122 105.772 87.0658 106.718 83.6431 108.997C81.9607 110.118 80.7238 110.807 80.3937 110.807C80.1005 110.807 79.8991 110.769 79.9458 110.724C79.9928 110.678 81.7309 109.497 83.8085 108.099ZM61.6067 105.914C60.7926 105.436 60.1267 105.009 60.1267 104.965C60.1267 104.669 63.007 106.164 64.6179 107.296C65.9489 108.232 72.1713 114.193 72.1713 114.532C72.1713 114.888 70.8002 113.735 67.9863 111.013C64.971 108.097 64.0042 107.324 61.6067 105.914ZM93.5119 107.15C94.2938 106.654 95.1174 106.131 95.3419 105.987C95.9533 105.594 96.2371 105.67 95.6549 106.071C94.3359 106.978 90.6333 109.822 88.7072 111.406C86.0598 113.583 84.3844 114.862 83.223 115.59C82.2263 116.215 80.7454 116.792 80.7454 116.554C80.7454 116.469 81.5806 115.863 82.6013 115.206C83.6221 114.55 86.1747 112.672 88.2738 111.032C90.3728 109.392 92.7299 107.645 93.5119 107.15ZM69.6713 116.845C69.3212 117.196 65.6711 113.647 64.9298 112.236C64.8414 112.067 65.4928 112.667 66.3776 113.568C67.2624 114.469 68.385 115.555 68.8721 115.982C69.3592 116.409 69.7189 116.798 69.6713 116.845ZM77.0914 117.544C77.0704 116.72 77.3442 114.924 77.6816 113.671C78.1111 112.076 78.0693 112.937 77.5875 115.608C77.3248 117.066 77.1014 117.937 77.0914 117.544ZM94.5368 118.56C97.3285 117.499 100.091 116.011 101.698 114.704C102.889 113.734 103.307 113.624 102.474 114.499C100.786 116.273 98.0803 117.877 95.6273 118.556C94.1395 118.969 93.4558 118.971 94.5368 118.56ZM57.849 119.469C55.9606 118.501 52.8386 115.791 52.219 114.584C52.0053 114.167 52.5226 114.567 53.8377 115.835C54.9005 116.86 56.43 118.137 57.2363 118.673C58.7411 119.674 59.0628 120.092 57.849 119.469ZM90.5445 125.735C93.6434 124.931 96.1905 123.385 98.7077 120.78C99.4359 120.026 100.067 119.445 100.11 119.488C100.153 119.531 99.7564 120.172 99.228 120.912C97.0857 123.915 93.2551 126.155 89.7379 126.462C87.9761 126.616 88.3097 126.315 90.5445 125.735ZM89.5919 132.93C88.6633 132.18 87.0076 129.861 87.1901 129.566C87.2526 129.464 87.8107 130.002 88.4301 130.761C89.0497 131.52 90.0129 132.541 90.5706 133.032C92.1862 134.453 91.3721 134.368 89.5919 132.93ZM90.4255 132.429C89.9465 131.939 89.7179 131.542 89.7963 131.338C89.9829 130.852 91.4541 130.934 93.2061 131.53C95.8008 132.413 95.5606 132.801 92.8922 132.038C92.107 131.813 91.2345 131.634 90.9534 131.639C90.4883 131.647 90.5479 131.746 91.6162 132.732C92.262 133.328 92.7901 133.881 92.7901 133.96C92.7901 134.241 91.17 133.191 90.4255 132.429ZM86.3736 133.615C85.2673 133.545 84.8768 133.138 85.786 133.003C86.6553 132.873 87.6687 133.056 88.9113 133.565C92.8734 135.191 93.4144 135.509 92.223 135.509C91.911 135.509 91.0152 135.202 90.2325 134.826C88.3742 133.936 87.5958 133.692 86.3736 133.615Z" fill="black"/>
<path fill-rule="evenodd" clip-rule="evenodd" d="M80.4474 51.389C82.7291 52.5122 85.0893 55.554 85.9859 58.5267C86.3484 59.7283 86.3307 62.8734 85.9534 64.3221C85.4151 66.389 84.4944 67.9185 82.7947 69.5692C78.2918 73.9423 74.5318 74.0749 70.6945 69.9957C68.3233 67.4751 67.0782 64.6569 67.0707 61.7933C67.0674 60.5807 67.6701 57.9084 68.1557 56.9816L68.4475 56.4249L68.4595 57.3025C68.4662 57.7851 68.5232 58.2315 68.5863 58.2946C68.6492 58.3577 68.7016 57.9116 68.7028 57.3035C68.7069 55.0436 70.1437 53.0832 72.6774 51.8797C75.703 50.443 78.2046 50.2849 80.4474 51.389ZM70.0498 57.506C69.6225 55.5164 71.0307 53.6252 73.7824 52.4932C74.4122 52.2343 75.0651 52.0247 75.2335 52.0275C75.4019 52.0302 74.9757 52.2496 74.2863 52.5152C71.5607 53.5646 70.5449 54.6861 70.3368 56.875C70.2164 58.1436 70.1964 58.1879 70.0498 57.506ZM79.8225 53.0928C79.3279 52.7794 78.9198 52.4587 78.9157 52.3803C78.9022 52.1253 80.4143 52.8556 81.4132 53.5866C82.2518 54.2003 83.0325 55.1224 83.7103 56.2997C83.8072 56.4681 83.1746 55.9437 82.3043 55.1342C81.434 54.3248 80.3171 53.4061 79.8225 53.0928ZM82.2567 62.7787C82.2063 62.7283 82.5474 61.8903 83.0145 60.9165C83.4818 59.9429 83.9077 59.1896 83.9607 59.2429C84.014 59.2962 83.6731 60.134 83.203 61.1049C82.733 62.076 82.3074 62.8291 82.2567 62.7787ZM72.2099 66.1349C71.4235 65.1858 70.334 63.4514 70.334 63.1484C70.334 63.0612 70.698 63.5351 71.1428 64.2012C72.1343 65.6862 73.959 67.4426 74.9326 67.8493C75.8521 68.2335 76.8854 67.9914 78.5776 66.9951C79.238 66.6065 79.8074 66.3174 79.8427 66.3529C79.9709 66.4811 77.9154 67.7707 77.1451 68.0453C75.3378 68.6896 73.8492 68.1133 72.2099 66.1349Z" fill="black"/>
<path d="M71.5589 52.0333C69.6507 53.1748 67.9663 55.8006 67.025 59.1004C66.4246 61.2056 66.3813 65.1707 66.9386 67.0174C67.5413 69.0135 68.6973 70.996 70.0484 72.3505C73.3982 75.7081 77.7431 76.2046 81.9432 73.7097C84.562 72.1541 86.7753 69.0505 87.4074 66.0481C88.0663 62.9185 87.0844 58.6086 84.9104 55.0875L84.3511 54.1813L84.9666 54.6196C86.3595 55.6115 88.1676 58.0497 88.8933 59.9151C89.4852 61.4362 89.0752 61.4385 88.4236 59.9178C88.1241 59.219 87.7003 58.4177 87.4819 58.137C87.2632 57.8563 87.4606 58.3857 87.9204 59.3133L88.7561 60.9998L88.2123 61.4277C87.7005 61.8302 87.6868 61.8839 87.9812 62.3333C88.1533 62.596 88.2537 62.9306 88.2041 63.077C88.1545 63.2231 88.0598 63.894 87.9939 64.5676C87.9279 65.2413 87.8236 66.1651 87.7624 66.6205C87.6815 67.2222 87.7373 67.52 87.9665 67.7103C88.2486 67.9442 88.2309 68.1073 87.7989 69.255C87.1867 70.8817 86.4685 72.018 85.1548 73.4384C84.1537 74.5206 84.3154 74.5351 85.4943 73.4688C86.326 72.7164 87.5813 70.6669 88.1015 69.212C88.3523 68.5103 88.6373 67.9361 88.7345 67.9361C88.9795 67.9361 88.9732 67.9667 88.4142 69.4516C86.8051 73.7263 83.4441 76.4061 79.0743 76.8981C77.3672 77.0902 77.1694 77.0802 74.9273 76.6862C71.3688 76.0609 67.4531 73.2606 65.4671 69.9208C64.5052 68.3031 63.8107 66.5279 63.8123 65.6904C63.8139 64.8071 64.0926 65.2162 64.299 66.405C64.5225 67.6925 65.9307 70.3905 66.9627 71.5086L67.905 72.5294L66.9919 71.3671C64.939 68.7541 63.5208 64.0665 64.5301 63.2288C64.7063 63.0827 64.8063 62.7946 64.7526 62.5888C64.6922 62.3578 64.8039 62.1348 65.0445 62.006C65.5921 61.7129 65.5398 61.5301 64.6689 60.6946L63.9034 59.9599L64.3421 59.5938C64.5834 59.3925 65.0578 58.679 65.3963 58.0084C65.735 57.3376 66.3931 56.2885 66.859 55.6767L67.7062 54.5645L66.7871 55.5399C66.2817 56.0764 65.6558 56.9683 65.3961 57.5219C64.9576 58.4569 64.408 58.9891 64.7081 58.1881C65.452 56.2019 68.0026 53.5603 70.3346 52.3607C71.9124 51.549 72.7368 51.3285 71.5589 52.0333Z" fill="black"/>
<path d="M94.0625 62.6793C96.1185 65.1397 96.3294 65.4892 96.4169 66.5822C96.4631 67.1585 96.3549 68.6665 96.1767 69.9334C95.5461 74.412 95.7629 75.9421 97.5234 79.4438C98.4402 81.2672 101.822 87.1954 102.954 88.9631C103.779 90.2531 105.039 92.8078 105.039 93.1935C105.039 93.337 105.118 93.4544 105.216 93.4544C105.435 93.4544 105.195 92.0811 104.871 91.4776C104.402 90.6055 104.223 89.9839 104.443 89.9839C104.559 89.9839 104.891 90.5036 105.182 91.1389C105.893 92.6927 105.894 94.4049 105.183 96.6186C104.895 97.5169 104.598 98.7714 104.522 99.4063C104.446 100.041 104.211 100.845 104 101.193L103.616 101.824H101.375C99.2087 101.824 99.1184 101.806 98.6285 101.278C97.8872 100.478 96.3886 97.3438 95.5714 94.8834C94.6891 92.227 94.3034 90.3515 94.018 87.33C93.3117 79.8456 93.1245 78.8795 91.9368 76.5853C90.9938 74.7639 90.7794 73.2492 91.0998 70.6724L91.2798 69.224L90.5549 68.4019C89.812 67.5596 88.8452 67.1393 88.592 67.5488C88.3924 67.872 88.1017 67.3573 88.0978 66.6738C88.0915 65.559 90.1595 65.6574 91.5385 66.8375C92.5441 67.6984 92.669 67.478 91.705 66.5436C91.0089 65.8691 90.0537 65.4863 89.0658 65.4863C88.6412 65.4863 88.503 65.3871 88.503 65.0827C88.503 64.5754 89.1624 64.1381 90.3169 63.8801C91.5497 63.6045 92.0025 63.8311 93.1365 65.2915C93.6697 65.9781 94.1401 66.4376 94.182 66.3125C94.2822 66.0114 92.7013 63.9293 92.147 63.6327C91.7116 63.3995 89.8679 63.4712 88.9623 63.7562C88.325 63.9568 88.3483 63.3769 89.0042 62.7211C89.4502 62.2749 89.6793 62.22 91.0947 62.22H92.6841L93.9619 63.5755C95.3799 65.0798 95.603 65.1172 94.5427 63.6727C93.4268 62.1526 93.0853 61.9266 91.6971 61.7917L90.4424 61.6698L91.8047 61.6385L93.1667 61.6075L94.0625 62.6793Z" fill="#F6DD9B"/>
<path fill-rule="evenodd" clip-rule="evenodd" d="M63.9317 59.1265C63.5165 59.585 62.2973 59.9713 61.2258 59.9833C60.2606 59.9941 59.0208 60.4159 58.4582 60.9246C57.9948 61.344 57.1859 62.8177 57.3368 62.9686C57.3899 63.0218 57.7222 62.6456 58.0752 62.1326C58.931 60.8887 59.6028 60.5811 61.7702 60.4406C63.5126 60.3277 63.6106 60.3445 64.3082 60.8765C65.3071 61.6383 65.0558 61.8925 63.4516 61.7427C61.749 61.5838 59.2064 62.0546 58.5776 62.645C58.0909 63.1025 57.1657 65.0433 57.3478 65.2252C57.407 65.2844 57.6806 64.824 57.9556 64.202C58.2307 63.58 58.6329 62.9763 58.8495 62.8604C59.0661 62.7444 60.0317 62.5356 60.9953 62.3963C62.5944 62.165 62.8212 62.1763 63.5922 62.5239C64.2929 62.8399 64.3792 62.9375 64.0971 63.0953C63.9101 63.2001 63.1829 63.3571 62.4813 63.444C60.9345 63.6359 59.6494 64.1953 59.8078 64.6081C59.8717 64.7746 59.6245 65.175 59.2268 65.5494C58.4392 66.2908 57.7912 67.4481 58.0678 67.6192C58.1699 67.6821 58.5221 67.2967 58.8509 66.7624C59.5679 65.5972 61.0439 64.7112 62.5691 64.5305C64.0712 64.3525 63.945 64.8641 62.2806 65.7007C61.4848 66.1004 60.7019 66.6881 60.3018 67.186C59.8805 67.7105 59.7653 67.9618 59.9854 67.8773C60.2522 67.775 60.3308 67.8591 60.3308 68.2466C60.3308 68.5226 60.5835 69.3694 60.8922 70.1284C61.3575 71.2724 61.4644 71.4151 61.5167 70.9627C61.5514 70.6624 61.3907 70.0461 61.1594 69.5929C60.6856 68.6638 60.6133 67.5631 60.9943 67.0742C61.2985 66.6838 62.5805 65.8964 62.9137 65.8954C63.5853 65.8932 63.8129 68.6589 63.2717 70.2474C62.9486 71.1957 62.6909 71.4366 62.5227 70.9472C62.4745 70.807 62.339 71.1973 62.2214 71.8148C62.1036 72.4324 61.8235 73.6726 61.5988 74.5708C61.2705 75.8823 61.1427 77.4711 60.9498 82.6346C60.469 95.4985 60.4588 96.2367 60.766 95.9456C60.9618 95.7598 61.0659 94.9812 61.1139 93.3427C61.176 91.2263 61.2184 91.0046 61.5612 91.0046C61.7694 91.0046 61.9872 91.0814 62.0452 91.1751C62.3037 91.5934 61.3111 96.0611 60.646 97.4732C59.2419 100.454 57.6522 101.53 55.5538 100.92C53.7314 100.391 52.9746 99.5557 52.6731 97.7423C52.5892 97.2374 52.2107 96.1201 51.8324 95.2594C51.4539 94.3987 51.1442 93.4197 51.1442 93.0838C51.1442 92.3671 52.1302 89.468 53.79 85.3038C55.1606 81.8656 56.0901 79.0937 56.6021 76.9185C56.9124 75.6001 56.9548 74.529 56.9079 69.2105C56.8554 63.257 56.8691 63.0024 57.2884 62.1675C57.8782 60.9934 58.6209 60.0307 59.1653 59.7345C59.8539 59.3601 62.3643 58.7813 63.3736 58.7646C64.2353 58.7501 64.2586 58.7652 63.9317 59.1265ZM61.3115 68.2025C61.1925 67.9561 61.1498 67.6117 61.2168 67.4369C61.4232 66.8994 61.5563 67.0829 61.5418 67.885C61.5293 68.5738 61.5063 68.6057 61.3115 68.2025ZM59.9101 74.6351C59.6318 74.7409 58.9267 74.2842 58.6923 73.8465C58.5088 73.5035 58.6029 73.5291 59.2764 74.0043C59.718 74.3158 60.0031 74.5998 59.9101 74.6351Z" fill="#F6DD9B"/>
<path fill-rule="evenodd" clip-rule="evenodd" d="M71.8675 76.2138C74.7348 77.4817 78.3161 77.8482 81.0006 77.148C81.7929 76.9414 82.3786 76.8738 82.3786 76.9887C82.3786 77.6683 79.8639 80.5931 79.2797 80.5931C79.1876 80.5931 79.1123 80.3635 79.1123 80.0828C79.1123 79.7482 78.9982 79.5724 78.7811 79.5724C78.5111 79.5724 78.4964 79.6285 78.7019 79.8762C78.9102 80.1271 78.8291 80.3047 78.2369 80.8969C77.7784 81.3554 77.3252 81.6139 76.98 81.6139C76.262 81.6139 75.3682 80.7252 75.5403 80.1828C75.6369 79.8788 75.5924 79.8082 75.3605 79.8972C75.1912 79.9623 75.02 80.1683 74.9801 80.3553C74.9273 80.6038 74.4953 80.2834 73.3731 79.1641C72.057 77.851 70.3362 75.6936 70.6051 75.6936C70.6527 75.6936 71.2208 75.9276 71.8675 76.2138ZM78.9632 78.2602C79.5551 78.1863 80.2669 78.0009 80.5454 77.8484C81.7262 77.2014 81.9697 77.8116 80.8665 78.6531C79.9319 79.366 78.824 79.5401 78.291 79.058C77.691 78.5149 77.7812 78.4078 78.9632 78.2602ZM75.6206 79.1931C74.9018 79.6771 72.776 78.8861 72.6165 78.0752C72.5573 77.7747 72.6182 77.772 73.2735 78.0458C73.6705 78.2118 74.3687 78.3475 74.825 78.3475C75.7085 78.3475 76.1613 78.8287 75.6206 79.1931Z" fill="#F6DD9B"/>
<path fill-rule="evenodd" clip-rule="evenodd" d="M61.3115 68.2025C61.1925 67.9561 61.1498 67.6117 61.2168 67.4369C61.4232 66.8994 61.5563 67.0829 61.5418 67.885C61.5293 68.5738 61.5063 68.6057 61.3115 68.2025ZM59.9101 74.6351C59.6318 74.7409 58.9267 74.2842 58.6923 73.8465C58.5088 73.5035 58.6029 73.5291 59.2764 74.0043C59.718 74.3158 60.0031 74.5998 59.9101 74.6351Z" fill="#F6DD9B"/>
<path d="M32.7276 30.3929L22.122 27.2668L26.4587 13.1913L21.6667 11.924L18.0771 28.0192L17.6723 29.8667L19.3771 30.244L30.6345 32.8044L28.9753 38.607L22.4108 39.3685L21.6033 39.46L21.6655 40.1631L22.1102 45.0375L18.2064 44.2866L18.3437 44.8561L21.0953 56.9872L19.1457 45.3066L22.6137 46.2699L23.2711 46.4457L23.2656 45.7041L23.2494 40.9121L29.9036 40.711L30.5499 40.6872L30.8393 39.953L33.7108 32.2112L34.2712 30.8379L32.7276 30.3929Z" fill="#E5AC00"/>
<path d="M26.479 49.5312L24.3898 48.5863L23.6171 48.2402L23.7086 49.0477L24.2871 52.7136L22.7819 52.3253L22.553 52.2319L22.5072 52.4699L21.6208 57.3351L22.8423 52.7812L24.558 53.3581L24.9773 53.4881L24.9078 53.0798L24.6552 49.7728L26.5742 50.8331L27.0612 51.1243L27.3231 50.5329L29.8466 44.6002L28.2829 44.0032L26.479 49.5312Z" fill="#E5AC00"/>
<path d="M17.7355 51.3546L17.6 51.0323L17.3931 51.3381L16.6606 52.5796L15.736 48.4028L15.5896 47.8809L15.1355 48.1885L13.3464 49.2761L11.1495 40.1645L9.9538 40.4776L12.592 50.1184L12.7677 50.7446L13.2786 50.3986L15.1043 49.1205L16.2668 53.3431L16.4902 53.9785L16.7521 53.3871L17.5871 51.8691L20.3134 56.6887L17.7355 51.3546Z" fill="#E5AC00"/>
<path d="M111.607 36.1319L123.917 38.9526L142.381 43.1835C161.53 47.5712 165.062 19.5896 143.606 18.9918C137.679 -5.39932 115.824 8.30701 117.206 17.9808C97.5875 15.6448 101.349 33.7814 111.607 36.1319Z" fill="#5BCBFB"/>
<path d="M127.816 42.9908L118.242 40.797L131.89 25.2102L140.781 27.2473L132.959 36.2518L138.43 37.5054L120.265 57.0957L127.816 42.9908Z" fill="#FFD12F"/>
</svg>
