<svg width="165" height="139" viewBox="0 0 165 139" fill="none" xmlns="http://www.w3.org/2000/svg">
<mask id="mask0_118_4933" style="mask-type:alpha" maskUnits="userSpaceOnUse" x="0" y="0" width="165" height="139">
<rect width="164.711" height="138.091" fill="#C4C4C4"/>
</mask>
<g mask="url(#mask0_118_4933)">
<path d="M101.749 36.3315C101.999 37.0816 102.249 37.8942 102.437 38.7068L101.811 38.8319C101.624 38.0193 101.374 37.2692 101.124 36.5191C101.374 36.5191 101.561 36.4566 101.749 36.3315Z" fill="#0066A6"/>
<path d="M89.8722 19.392C94.5603 23.0174 98.2482 27.768 100.561 33.1437C100.311 33.2062 100.123 33.2687 99.9985 33.3937C97.7482 28.0805 94.1227 23.455 89.4972 19.892L89.8722 19.392Z" fill="#0066A6"/>
<path d="M86.1221 22.0798C85.8096 21.5173 85.5595 20.9547 85.247 20.4546L85.8096 20.1421C86.1221 20.7047 86.4347 21.2672 86.7472 21.8298C86.4972 21.8298 86.2471 21.9548 86.1221 22.0798Z" fill="#0066A6"/>
<path d="M91.4975 35.9566C91.7475 37.1442 91.935 38.3319 92.0601 39.5195L91.435 39.582C91.2475 38.3319 91.0599 37.0817 90.8099 35.8315C90.9974 35.9566 91.2475 36.0191 91.4975 35.9566Z" fill="#0066A6"/>
<path d="M90.2471 33.3937C89.497 30.3308 88.4969 27.3929 87.3093 24.7051C87.4968 24.6426 87.6843 24.5801 87.8718 24.4551C89.0595 27.1429 89.9971 30.0808 90.7472 33.0811C90.6222 33.0811 90.4347 33.2062 90.2471 33.3937Z" fill="#0066A6"/>
<path d="M80.6215 24.1426C80.559 23.08 80.4965 22.0173 80.434 20.9547H81.0591C81.1216 22.0173 81.1216 23.08 81.1841 24.2676C81.0591 24.1426 80.809 24.0801 80.6215 24.1426Z" fill="#0066A6"/>
<path d="M80.7462 26.893C80.9962 26.893 81.1837 26.8305 81.3087 26.7679C81.5588 30.8935 81.8713 35.4565 82.2463 40.3321L81.6213 40.3946C81.3087 35.4565 80.9337 30.956 80.7462 26.893Z" fill="#0066A6"/>
<path d="M71.9327 34.8314H71.8077C72.2453 32.8312 72.8078 30.8934 73.4954 28.9557C73.6829 29.0807 73.8705 29.2057 74.058 29.2682C73.4329 31.1435 72.8703 33.0187 72.4328 34.9564C72.3078 34.8939 72.1202 34.8314 71.9327 34.8314Z" fill="#0066A6"/>
<path d="M71.8702 37.6442C71.6827 38.8318 71.4952 40.0195 71.3702 41.2071L70.7451 41.1446C70.8701 39.957 71.0576 38.8318 71.2452 37.6442H71.8702Z" fill="#0066A6"/>
<path d="M74.4955 26.3303C75.1831 24.6426 75.9332 23.0174 76.8083 21.3922L77.3708 21.7048C76.5582 23.2674 75.7456 24.8926 75.1206 26.5178C74.933 26.4553 74.7455 26.3303 74.4955 26.3303Z" fill="#0066A6"/>
<path d="M115.938 147.47C115.75 147.47 115.563 147.533 115.438 147.595C113.688 137.032 111.812 125.968 109.875 114.904C110.062 114.904 110.312 114.904 110.5 114.841C112.375 125.78 114.25 136.907 116.063 147.533C116 147.47 115.938 147.47 115.938 147.47Z" fill="#0066A6"/>
<path d="M109.312 111.841C104.374 83.275 99.3108 55.459 95.6229 39.457C95.8104 39.457 95.9979 39.3945 96.1854 39.332C99.8734 55.459 104.937 83.0249 109.937 111.841C109.75 111.779 109.562 111.779 109.312 111.841Z" fill="#0066A6"/>
<path d="M91.7474 25.0177C92.6226 25.7053 93.9977 29.9558 95.6229 36.7066H95.4979C95.3729 36.7066 95.1854 36.7066 95.0604 36.7692C93.4977 30.2683 92.2475 26.1428 91.4349 25.5178L91.7474 25.0177Z" fill="#0066A6"/>
<path d="M89.435 41.8947H89.31C89.185 41.8947 89.06 41.8947 88.935 41.9572C87.4348 33.2062 86.3096 27.643 85.8721 26.8304L86.4347 26.5178C86.9347 27.3929 88.0599 33.0811 89.6226 41.8947C89.4975 41.8947 89.4975 41.8947 89.435 41.8947Z" fill="#0066A6"/>
<path d="M108.813 169.16C108.688 169.16 108.5 169.16 108.375 169.223C102.437 128.53 94.1859 72.8985 89.4353 44.7075C89.6229 44.7075 89.8729 44.645 89.9979 44.5825C94.811 72.8985 103.062 128.468 108.938 169.223C108.938 169.16 108.875 169.16 108.813 169.16Z" fill="#0066A6"/>
<path d="M85.7465 43.895C85.684 43.895 85.6215 43.895 85.559 43.895C84.2463 32.8936 83.4337 25.7052 83.4337 24.6426H84.0588C84.0588 25.7052 84.8714 32.9561 86.1841 43.9575C86.1216 43.9575 85.9341 43.895 85.7465 43.895Z" fill="#0066A6"/>
<path d="M88.872 70.3357C87.7469 61.5846 86.8092 53.5211 85.9341 46.7703C86.1842 46.7703 86.3717 46.6453 86.5592 46.5203C87.3718 53.3336 88.3719 61.3971 89.4971 70.2107C89.247 70.2107 89.0595 70.2732 88.872 70.3357Z" fill="#0066A6"/>
<path d="M89.497 72.9611H89.8096C89.8096 72.9611 89.8096 72.9611 89.8721 72.9611C91.8098 88.2755 93.9976 105.653 96.1854 122.842C100.561 157.284 104.686 190.288 106.562 206.29C106.437 206.228 106.312 206.228 106.187 206.228H105.937C103.999 189.851 99.7483 155.971 95.5603 122.905C93.3725 105.653 91.1847 88.213 89.247 72.8986C89.3095 72.9611 89.372 72.9611 89.497 72.9611Z" fill="#0066A6"/>
<path d="M77.7457 30.2683C77.7457 28.5806 77.8708 27.4555 78.1208 27.0804L78.6208 27.3305C78.4333 27.7055 78.3083 28.7682 78.3083 30.4559C78.1208 30.3308 77.9333 30.2683 77.7457 30.2683Z" fill="#0066A6"/>
<path d="M78.8708 46.5829C78.7458 46.5829 78.6208 46.5829 78.4958 46.6454C78.1207 41.0822 77.8082 36.4566 77.7457 33.0812C77.9332 33.0812 78.1207 33.0187 78.3083 32.8937C78.3708 36.2066 78.6833 40.8947 79.0583 46.6454C79.0583 46.5829 78.9333 46.5829 78.8708 46.5829Z" fill="#0066A6"/>
<path d="M80.0586 65.3976C79.5586 59.5219 79.0585 54.1462 78.6835 49.3331C78.746 49.3331 78.746 49.3331 78.8085 49.3331C78.996 49.3331 79.121 49.2706 79.3085 49.2706C79.6836 54.1462 80.1837 59.6469 80.6837 65.6477C80.5587 65.5226 80.3087 65.4601 80.0586 65.3976Z" fill="#0066A6"/>
<path d="M88.5598 146.283C88.4348 146.283 88.3098 146.283 88.1847 146.345C85.3719 119.592 82.3715 90.7758 80.3088 68.2105C80.5588 68.148 80.7463 68.023 80.9338 67.8979C82.9966 90.8383 86.0595 120.154 88.8098 146.283C88.7473 146.283 88.6848 146.283 88.5598 146.283Z" fill="#0066A6"/>
<path d="M21.9893 221.855H49.7427C51.743 221.855 53.3682 220.229 53.3682 218.229V6.57792C53.3682 4.76519 51.9305 3.32751 50.1178 3.32751H21.6142C19.8015 3.32751 18.3638 4.76519 18.3638 6.57792V218.167C18.3638 220.229 19.989 221.855 21.9893 221.855Z" fill="#0066A6"/>
<g opacity="0.2">
<path opacity="0.2" d="M22.1143 221.855H49.5552C51.6805 221.855 53.3682 220.167 53.3682 218.042V7.14049C53.3682 5.01522 51.6805 3.32751 49.5552 3.32751H22.1143C19.989 3.32751 18.3013 5.01522 18.3013 7.14049V218.042C18.3638 220.167 20.0515 221.855 22.1143 221.855Z" fill="white"/>
</g>
<path d="M43.4919 7.203H47.1798C48.1799 7.203 48.9926 8.0156 48.9926 9.01573V90.2758C48.9926 91.2759 48.1799 92.0885 47.1798 92.0885H43.4919C42.4917 92.0885 41.6791 91.2759 41.6791 90.2758V89.5882C41.6791 88.5881 42.4917 87.7755 43.4919 87.7755H44.242C45.2421 87.7755 46.0547 86.9629 46.0547 85.9627V12.7037C46.0547 11.7036 45.2421 10.891 44.242 10.891H43.4294C42.4292 10.891 41.6166 10.0784 41.6166 9.07823C41.6166 8.0156 42.4292 7.203 43.4919 7.203Z" fill="#0066A6"/>
<path opacity="0.4" d="M43.4919 7.203H47.1798C48.1799 7.203 48.9926 8.0156 48.9926 9.01573V90.2758C48.9926 91.2759 48.1799 92.0885 47.1798 92.0885H43.4919C42.4917 92.0885 41.6791 91.2759 41.6791 90.2758V89.5882C41.6791 88.5881 42.4917 87.7755 43.4919 87.7755H44.242C45.2421 87.7755 46.0547 86.9629 46.0547 85.9627V12.7037C46.0547 11.7036 45.2421 10.891 44.242 10.891H43.4294C42.4292 10.891 41.6166 10.0784 41.6166 9.07823C41.6166 8.0156 42.4292 7.203 43.4919 7.203Z" fill="white"/>
<path d="M44.5542 33.5187L54.743 27.518C55.118 27.3304 55.5556 27.2679 55.9306 27.3304L59.8061 28.2056C60.5562 28.3931 61.0563 29.0182 61.0563 29.7682V31.1434C61.0563 31.7685 60.7437 32.3311 60.1812 32.5811L53.3053 36.144C52.7427 36.3941 52.4302 36.9566 52.4302 37.5817C52.4302 38.4568 51.6801 39.2069 50.805 39.2069H45.4293C44.5542 39.2069 43.8041 38.4568 43.8041 37.5817V34.8939C43.7416 34.3313 44.0542 33.8313 44.5542 33.5187Z" fill="#0066A6"/>
<path d="M44.5542 33.5187L54.743 27.518C55.118 27.3304 55.5556 27.2679 55.9306 27.3304L59.8061 28.2056C60.5562 28.3931 61.0563 29.0182 61.0563 29.7682V31.1434C61.0563 31.7685 60.7437 32.3311 60.1812 32.5811L53.3053 36.144C52.7427 36.3941 52.4302 36.9566 52.4302 37.5817C52.4302 38.4568 51.6801 39.2069 50.805 39.2069H45.4293C44.5542 39.2069 43.8041 38.4568 43.8041 37.5817V34.8939C43.7416 34.3313 44.0542 33.8313 44.5542 33.5187Z" fill="#0066A6"/>
<path opacity="0.2" d="M44.4919 38.9569C44.7419 39.1445 45.0545 39.207 45.367 39.207H50.8052C51.2427 39.207 51.6803 39.0194 51.9303 38.7069C52.2428 38.3944 52.4304 38.0193 52.4304 37.5192C52.4304 36.8942 52.7429 36.3316 53.3055 36.0816L60.1813 32.5186C60.4314 32.3936 60.6814 32.2061 60.8064 31.9561L56.4309 30.7059C55.7433 30.5184 54.9932 30.6434 54.4306 31.0184L47.8048 35.394C47.3047 35.7065 47.0547 36.2691 47.0547 36.7692C47.0547 37.2692 46.8672 37.7068 46.4921 38.0193C46.3046 38.1443 46.1171 38.2693 45.9296 38.3318L44.4919 38.9569Z" fill="black"/>
<path d="M46.8672 114.779C46.8672 117.592 48.4298 119.842 50.4301 119.842C52.4303 119.842 53.993 117.592 53.993 114.779C53.993 111.966 52.4303 109.716 50.4301 109.716C48.4298 109.716 46.8672 111.966 46.8672 114.779Z" fill="#0066A6"/>
<path d="M35.5531 114.779C35.5531 117.592 37.1158 119.842 39.116 119.842H50.4299C48.4922 119.842 46.867 117.592 46.867 114.779C46.867 111.966 48.4297 109.716 50.4299 109.716H39.116C37.1158 109.716 35.5531 111.966 35.5531 114.779Z" fill="#0066A6"/>
<path opacity="0.4" d="M35.5531 114.779C35.5531 117.592 37.1158 119.842 39.116 119.842H50.4299C48.4922 119.842 46.867 117.592 46.867 114.779C46.867 111.966 48.4297 109.716 50.4299 109.716H39.116C37.1158 109.716 35.5531 111.966 35.5531 114.779Z" fill="white"/>
<path d="M43.4294 153.471C43.6169 153.471 43.8044 153.471 43.9919 153.471C46.7423 153.159 49.0551 150.596 49.3051 147.658C49.5551 144.533 49.3051 120.905 49.3051 119.842H47.4299C47.4299 120.092 47.6799 144.408 47.4299 147.47C47.2423 149.783 45.4296 151.408 43.8044 151.596C42.0542 151.783 40.679 150.471 39.9289 147.97C38.6163 143.595 47.6174 87.4005 52.4305 57.2092C54.0557 46.958 55.3683 38.6444 56.0559 34.2689C56.1184 33.7688 55.7434 33.2688 55.2433 33.2063C54.7433 33.1437 54.2432 33.4563 54.1807 34.0189C53.5556 38.3944 52.243 46.7079 50.5553 56.9592C43.5544 100.84 36.8035 144.095 38.1162 148.533C38.9913 151.658 40.9916 153.471 43.4294 153.471Z" fill="#0066A6"/>
<g opacity="0.8">
<path opacity="0.8" d="M43.4294 153.471C43.6169 153.471 43.8044 153.471 43.9919 153.471C46.7423 153.159 49.0551 150.596 49.3051 147.658C49.5551 144.533 49.3051 120.905 49.3051 119.842H47.4299C47.4299 120.092 47.6799 144.408 47.4299 147.47C47.2423 149.783 45.4296 151.408 43.8044 151.596C42.0542 151.783 40.679 150.471 39.9289 147.97C38.6163 143.595 47.6174 87.4005 52.4305 57.2092C54.0557 46.958 55.3683 38.6444 56.0559 34.2689C56.1184 33.7688 55.7434 33.2688 55.2433 33.2063C54.7433 33.1437 54.2432 33.4563 54.1807 34.0189C53.5556 38.3944 52.243 46.7079 50.5553 56.9592C43.5544 100.84 36.8035 144.095 38.1162 148.533C38.9913 151.658 40.9916 153.471 43.4294 153.471Z" fill="white"/>
</g>
<path d="M44.8672 82.0873H50.9304C51.5555 82.0873 52.0555 81.5872 52.0555 80.9622C52.0555 80.3371 51.5555 79.837 50.9304 79.837H44.8672C44.2421 79.837 43.742 80.3371 43.742 80.9622C43.742 81.5872 44.2421 82.0873 44.8672 82.0873Z" fill="#0066A6"/>
<path d="M81.2468 11.9535C80.4967 11.8285 79.4966 11.766 78.3715 11.7035C68.1827 11.0159 61.6194 20.017 61.6194 20.017L64.4948 21.9548C64.4948 21.9548 67.1201 17.5792 71.2456 16.0165C73.6209 15.1414 75.1836 14.8289 76.3087 14.7664L81.2468 11.9535Z" fill="#0066A6"/>
<path opacity="0.4" d="M81.1831 11.9535C80.433 11.8285 79.4329 11.766 78.3078 11.7035C68.119 11.0159 61.4307 20.142 61.4307 20.142L64.3685 21.9548C64.3685 21.9548 66.9939 17.5792 71.1194 16.0165C73.4947 15.1414 75.0573 14.8289 76.1825 14.7664C76.245 14.7664 80.683 12.141 81.1831 11.9535Z" fill="white"/>
<path d="M75.6208 15.1414L75.8708 18.3918C79.4338 19.1419 85.3095 18.3918 88.6224 17.0166L88.7474 16.9541L88.8724 13.5162L85.122 12.4536C84.6219 12.2035 84.0593 12.016 83.4968 11.9535C82.9967 11.891 82.4966 11.8285 82.0591 11.891C81.8091 11.891 81.559 11.9535 81.309 12.016C80.0588 12.2661 78.9337 12.8286 78.0586 13.7037L76.3709 14.7664L75.6208 15.1414Z" fill="#0066A6"/>
<path d="M64.4318 21.9548L59.8687 28.2056L56.8058 27.518L61.5564 20.0171L64.4318 21.9548Z" fill="#0066A6"/>
<path d="M48.7425 114.841C48.7425 116.404 49.6801 117.654 50.8053 117.654C51.9304 117.654 52.868 116.404 52.868 114.841C52.868 113.279 51.9304 112.028 50.8053 112.028C49.6801 112.028 48.7425 113.279 48.7425 114.841Z" fill="white"/>
<path opacity="0.5" d="M75.6208 15.1415L75.8708 18.3919C79.4338 19.142 85.3095 18.3919 88.6224 17.0168L88.7474 16.9543L88.8724 13.5163L85.122 12.4537C84.6219 12.2037 84.0593 12.0161 83.4968 11.9536C82.9967 11.8911 82.4966 11.8286 82.0591 11.8911C81.8091 11.8911 81.559 11.9536 81.309 12.0161C80.0588 12.2662 78.9337 12.8287 78.0586 13.7039L76.3709 14.7665L75.6208 15.1415Z" fill="white"/>
<path d="M76.9334 17.2042C76.9959 17.9543 79.4962 18.2044 82.434 17.8918C85.3719 17.5168 87.6847 16.6417 87.6222 15.8916C87.5597 15.1415 85.0594 14.8914 82.1215 15.204C79.1836 15.579 76.8708 16.5166 76.9334 17.2042Z" fill="#0066A6"/>
<path opacity="0.5" d="M76.9334 17.2042C76.9959 17.9543 79.4962 18.2044 82.434 17.8918C85.3719 17.5168 87.6847 16.6417 87.6222 15.8916C87.5597 15.1415 85.0594 14.8914 82.1215 15.204C79.1836 15.579 76.8708 16.5166 76.9334 17.2042Z" fill="black"/>
<path d="M55.6179 92.9011H56.1179V97.9017H55.6179V92.9011Z" fill="#0066A6"/>
<path d="M55.6187 102.465H56.1188V122.28H55.6187V102.465Z" fill="#0066A6"/>
<path d="M89.4352 59.1469C89.3727 59.5844 89.1226 59.897 88.8101 59.8344C88.4976 59.7719 88.3725 59.3969 88.4351 59.0218C88.4976 58.6468 88.7476 58.2718 89.0601 58.3343C89.3727 58.3343 89.4977 58.7093 89.4352 59.1469Z" fill="#263238"/>
<path d="M89.1226 59.897C88.435 61.1471 87.5599 62.2098 86.6222 63.2099C87.2473 64.0225 88.56 63.835 88.56 63.835L89.1226 59.897Z" fill="#A02724"/>
<path d="M91.31 57.0217C91.435 57.0217 91.5601 56.8967 91.5601 56.7716C91.5601 56.7091 91.5601 56.6466 91.4976 56.5841C90.935 56.0216 90.1224 55.7715 89.3098 55.8965C89.1848 55.959 89.1223 56.0841 89.1848 56.2091C89.2473 56.3341 89.3098 56.3966 89.4348 56.3966C90.0599 56.2716 90.685 56.5216 91.1225 56.9592C91.185 56.9592 91.2475 57.0217 91.31 57.0217Z" fill="#263238"/>
<path d="M101.374 63.0848C100.499 66.9603 99.5612 74.0237 102.187 76.649C102.187 76.649 100.999 80.5245 93.8105 80.337C85.9345 80.0869 90.1225 76.3365 90.1225 76.3365C94.4981 75.4614 94.4356 72.211 93.8105 69.2106L101.374 63.0848Z" fill="#F7BE67"/>
<path d="M81.1838 80.712C79.6836 85.9002 80.2462 101.59 79.7461 122.342L107.937 124.155C108.75 116.904 105.374 105.09 111.063 84.525C111.75 81.0871 109.5 77.7742 106.062 77.0866C105.999 77.0866 105.937 77.0866 105.874 77.0241C104.999 76.8991 104.062 76.774 103.187 76.649C99.186 76.149 95.1855 75.8989 91.185 75.8989C89.4973 75.9614 87.8721 76.0864 86.497 76.274C83.9967 76.524 81.9339 78.2742 81.1838 80.712Z" fill="#F7BE67"/>
<path d="M88.3724 122.405C88.3724 122.405 89.31 144.532 90.2476 150.221C101.186 151.533 106.625 150.283 109.75 148.283C109.688 143.032 113.688 133.656 107.812 122.717C104.499 123.217 101.186 123.28 98.5611 123.092C92.1228 122.717 88.3724 122.405 88.3724 122.405Z" fill="#263238"/>
<path opacity="0.2" d="M89.5601 141.22L95.3108 136.156C95.2483 136.281 92.998 147.095 90.3102 150.221C90.3102 150.221 90.0601 146.533 89.9976 146.533L89.5601 141.22Z" fill="black"/>
<path d="M88.1223 65.5226C88.3723 68.0855 89.8725 70.1482 91.8728 71.2733C92.5603 71.6484 93.3104 71.8984 94.0605 72.0859C95.7482 72.3985 97.561 72.0234 99.1862 70.7733C102.187 68.523 102.562 65.4601 103.562 60.272C103.812 59.1468 103.812 58.0217 103.499 56.9591C102.499 53.1461 98.6236 50.8333 94.8106 51.8334C89.4975 53.1461 87.6847 60.7095 88.1223 65.5226Z" fill="#F7BE67"/>
<path opacity="0.2" d="M91.9352 71.2108C92.6227 71.5859 93.3728 71.8359 94.1229 71.9609L93.8104 69.0856C93.8104 69.1481 92.9978 71.0233 91.9352 71.2108Z" fill="black"/>
<path opacity="0.2" d="M80.184 85.4626L83.0593 88.6505C83.6219 89.2756 83.9344 90.1507 83.8094 91.0258L83.3719 94.3388C83.4344 94.3388 79.3089 91.2759 80.184 85.4626Z" fill="#97661C"/>
<path d="M88.185 65.7102C88.81 65.5852 89.3726 65.3352 89.8727 64.8976C89.9352 64.8351 89.9352 64.7726 89.8727 64.7101C89.8102 64.6476 89.7477 64.6476 89.6851 64.7101C89.2476 65.0851 88.7475 65.3352 88.185 65.4602V65.7102Z" fill="#263238"/>
<path d="M93.6228 58.7094C92.9977 59.772 92.5601 60.9596 92.3726 62.1473C92.1851 59.3969 92.6852 58.6469 92.3726 55.8965C92.0601 53.2087 91.4975 53.9588 91.1225 54.2088C91.06 52.5211 92.2476 50.5834 93.8728 49.9583C96.0606 49.0832 98.5609 49.5832 100.749 50.0208C103.624 50.6459 106.312 52.0835 108.312 54.2088C110.5 56.5841 110.875 59.2719 109.812 62.3973C109.187 64.21 108.062 64.5851 107.499 66.3978C106.937 68.2105 107.499 71.3359 109.312 71.8985C105.937 72.8361 104.562 70.2108 104.562 70.2108C104.562 70.2108 104.124 71.7735 105.937 73.5237C103.624 73.5862 101.436 70.5858 101.436 70.5858C101.436 70.5858 100.624 72.211 102.936 74.3363C98.4984 73.0236 96.4356 70.3983 95.498 67.523C94.6229 64.7101 95.248 61.6472 95.8731 58.7094C95.4355 57.8343 94.1853 57.8343 93.6228 58.7094Z" fill="#263238"/>
<path d="M103.874 46.6453C105.875 45.5827 108.5 46.0828 110 47.708C111.5 49.3957 111.688 52.0835 110.438 53.8962C112.75 54.5838 114.126 57.3967 113.313 59.6469C115.688 60.7721 116.438 64.3975 114.688 66.3978C112.938 68.398 109.25 68.0855 107.875 65.8352C107.812 67.6479 106.25 69.2106 104.437 69.2731C102.624 69.3356 100.936 67.8355 100.811 66.0852C99.9363 67.8355 97.0609 68.0855 95.9358 66.4603C94.7481 66.3353 93.8105 65.3977 93.8105 64.21C93.8105 63.3974 94.0606 62.5848 94.7481 62.0848C95.8108 61.2722 95.8733 60.0845 94.7481 59.3969C93.248 58.4593 93.748 60.272 92.1853 60.3345C91.5602 60.397 90.9352 60.0845 90.6226 59.5219C89.435 57.8967 91.3102 56.2715 92.6854 56.8341C91.2477 56.5841 90.0601 55.2714 89.9976 53.8337C89.935 52.3961 90.9977 50.9584 92.4354 50.6458C90.8102 48.4581 91.6228 44.8951 93.9981 43.645C96.3733 42.3948 99.7488 43.7075 100.686 46.2703C100.874 45.4577 101.812 44.8951 102.624 45.1452C103.437 45.3952 103.937 46.3328 103.624 47.1454L103.874 46.6453Z" fill="#0066A6"/>
<path opacity="0.8" d="M103.874 46.6453C105.875 45.5827 108.5 46.0828 110 47.708C111.5 49.3957 111.688 52.0835 110.438 53.8962C112.75 54.5838 114.126 57.3967 113.313 59.6469C115.688 60.7721 116.438 64.3975 114.688 66.3978C112.938 68.398 109.25 68.0855 107.875 65.8352C107.812 67.6479 106.25 69.2106 104.437 69.2731C102.624 69.3356 100.936 67.8355 100.811 66.0852C99.9363 67.8355 97.0609 68.0855 95.9358 66.4603C94.7481 66.3353 93.8105 65.3977 93.8105 64.21C93.8105 63.3974 94.0606 62.5848 94.7481 62.0848C95.8108 61.2722 95.8733 60.0845 94.7481 59.3969C93.248 58.4593 93.748 60.272 92.1853 60.3345C91.5602 60.397 90.9352 60.0845 90.6226 59.5219C89.435 57.8967 91.3102 56.2715 92.6854 56.8341C91.2477 56.5841 90.0601 55.2714 89.9976 53.8337C89.935 52.3961 90.9977 50.9584 92.4354 50.6458C90.8102 48.4581 91.6228 44.8951 93.9981 43.645C96.3733 42.3948 99.7488 43.7075 100.686 46.2703C100.874 45.4577 101.812 44.8951 102.624 45.1452C103.437 45.3952 103.937 46.3328 103.624 47.1454L103.874 46.6453Z" fill="white"/>
<path d="M96.436 60.1471C96.0609 61.3972 95.3108 62.5224 94.2482 63.2725C92.873 64.2726 91.8729 63.2725 91.9354 61.7098C92.0604 60.3346 92.873 58.0843 94.3732 57.7093C95.9984 57.3342 96.8735 58.6469 96.436 60.1471Z" fill="#F7BE67"/>
<path d="M79.3712 119.154L78.7461 121.78L108.437 123.78V121.03L79.3712 119.154Z" fill="white"/>
<path d="M68.995 140.845C69.0575 145.283 80.559 150.408 88.1849 149.783C88.1849 149.783 88.9975 147.47 90.6227 144.532C91.0603 144.032 91.4978 143.532 91.9354 143.032C93.1855 141.532 94.3732 139.844 95.4358 137.969C97.6861 133.969 99.4363 128.718 99.0612 123.217C99.0612 123.155 79.1838 121.842 79.1838 121.842C79.1838 121.842 77.5586 125.843 74.6207 131.156C72.683 134.781 68.995 140.219 68.995 140.845Z" fill="#263238"/>
<path d="M97.2484 45.7078C96.6858 46.1453 93.7479 45.7078 92.5603 47.8955L94.498 53.7088L100.686 49.9583L97.2484 45.7078Z" fill="#F7BE67"/>
<path d="M94.5605 53.7712L93.3729 46.9579L88.8723 50.0208L89.81 54.0838L94.5605 53.7712Z" fill="#F7BE67"/>
<path d="M91.4978 53.0212L72.0579 66.0853C72.0579 66.0853 62.7442 68.5856 63.5568 63.96C64.3694 59.522 89.8101 49.4583 89.8101 49.4583L90.4352 51.4585L91.4978 53.0212Z" fill="#F7BE67"/>
<path d="M78.4964 71.3984C74.6834 68.2105 75.1835 67.3354 71.3705 64.1475C70.3704 63.3349 69.3703 62.4598 68.1826 62.0848C66.995 61.6472 65.4948 61.7722 64.5572 62.6473C63.557 63.5849 63.432 65.1476 63.8696 66.3978C65.3698 70.5233 67.5575 72.8361 68.5577 73.7737C76.2461 80.8371 83.9971 89.7757 83.9971 89.7757C85.7473 89.4006 86.8724 80.462 86.9349 78.5243C86.9349 76.524 79.8091 72.5236 78.4964 71.3984Z" fill="#F7BE67"/>
<path d="M111.813 52.521L127.377 70.0232C127.377 70.0232 135.753 74.7738 136.128 70.0857C136.441 65.5851 114.313 49.5206 114.313 49.5206L113.25 51.2708L111.813 52.521Z" fill="#F7BE67"/>
<path d="M114.313 49.5208C114.313 49.5208 114.563 51.396 113.438 51.7086C112.375 52.0211 111.813 52.5212 111.813 52.5212L107.062 50.7085C107.062 50.7085 108.125 47.2705 107.812 45.8329C107.562 44.3952 114.313 49.5208 114.313 49.5208Z" fill="#F7BE67"/>
<path d="M108 45.5826L104.437 45.5201C104.437 45.5201 102.187 48.8331 102.499 48.9581C102.812 49.0831 107.062 50.7083 107.062 50.7083C107.062 50.7083 109.125 47.2704 108 45.5826Z" fill="#F7BE67"/>
<path d="M119.814 73.5862C124.314 71.4609 124.064 70.4608 128.502 68.3355C129.69 67.7729 130.878 67.2104 132.128 67.0854C133.378 66.9603 134.816 67.3979 135.503 68.523C136.253 69.6482 135.941 71.2109 135.191 72.336C134.441 73.4612 133.315 74.2738 132.19 75.0238C129.565 76.8366 110.063 88.0255 110.063 88.0255C108.5 87.2129 106.25 80.1495 106.75 78.2743C107.25 76.3365 118.251 74.3363 119.814 73.5862Z" fill="#F7BE67"/>
<path d="M108.438 122.717C108.625 122.717 108.75 122.592 108.75 122.405C108.75 122.217 108.625 122.092 108.438 122.092L79.0589 120.154C78.8714 120.154 78.7464 120.279 78.7464 120.467C78.7464 120.654 78.8714 120.779 79.0589 120.779L108.438 122.717C108.438 122.655 108.438 122.717 108.438 122.717Z" fill="black"/>
<path d="M29.0001 21L124 116M124 21L29 116" stroke="#FF1717" stroke-width="5" stroke-linecap="round" stroke-linejoin="round"/>
</g>
</svg>
