<svg width="214" height="159" viewBox="0 0 214 159" fill="none" xmlns="http://www.w3.org/2000/svg">
<path d="M208.259 147.239C208.259 147.239 208.495 145.496 206.412 145.256C204.282 145.015 198.175 147.42 197.038 145.737C195.902 144.054 199.074 144.534 198.695 141.829C198.317 139.064 191.405 145.496 188.422 145.316C185.44 145.075 187.854 143.392 182.836 142.25C177.817 141.108 171.568 146.458 167.828 146.037C164.088 145.556 161.626 140.086 147.234 141.889C143.4 142.37 139.944 142.911 136.914 143.392C134.168 143.813 131.801 144.234 129.86 144.474C128.724 145.075 127.682 145.436 126.877 145.376C125.741 145.316 125.362 145.015 125.126 144.595C124.841 144.174 124.605 143.633 123.658 143.152C123.137 142.851 122.427 142.611 121.338 142.37C116.32 141.228 110.071 146.578 106.331 146.157C104.626 145.917 103.253 144.715 100.886 143.633C97.9984 142.25 93.6903 141.048 85.7368 142.01C84.6006 142.13 83.4644 142.31 82.4228 142.43C79.535 142.851 76.8365 143.272 74.4693 143.633C74.2326 143.633 73.9959 143.633 73.8065 143.753C66.3265 144.955 61.8763 145.556 62.1604 143.092C62.5391 139.545 67.7941 138.223 57.2368 140.327C46.6794 142.43 26.3696 146.157 24.5233 145.196C22.6296 144.234 26.2276 138.523 23.3871 138.523C20.5939 138.523 21.162 145.196 19.2683 146.518C17.3746 147.841 14.0133 142.611 12.1196 143.813C10.2259 145.015 11.2201 146.879 10.4626 147.48C9.70516 148.081 3.92941 147.119 2.03572 147.48C0.189369 147.841 0 149.163 0 149.163H61.5449H152.442H213.987C214.318 146.218 208.259 147.239 208.259 147.239Z" fill="#B49555"/>
<path opacity="0.7" d="M208.259 147.239C208.259 147.239 208.495 145.496 206.412 145.256C204.282 145.015 198.175 147.42 197.038 145.737C195.902 144.054 199.074 144.534 198.695 141.829C198.317 139.064 191.405 145.496 188.422 145.316C185.44 145.075 187.854 143.392 182.836 142.25C177.817 141.108 171.568 146.458 167.828 146.037C164.088 145.556 161.626 140.086 147.234 141.889C143.4 142.37 139.944 142.911 136.914 143.392C134.168 143.813 131.801 144.234 129.86 144.474C128.724 145.075 127.682 145.436 126.877 145.376C125.741 145.316 125.362 145.015 125.126 144.595C124.841 144.174 124.605 143.633 123.658 143.152C123.137 142.851 122.427 142.611 121.338 142.37C116.32 141.228 110.071 146.578 106.331 146.157C104.626 145.917 103.253 144.715 100.886 143.633C97.9984 142.25 93.6903 141.048 85.7368 142.01C84.6006 142.13 83.4644 142.31 82.4228 142.43C79.535 142.851 76.8365 143.272 74.4693 143.633C74.2326 143.633 73.9959 143.633 73.8065 143.753C66.3265 144.955 61.8763 145.556 62.1604 143.092C62.5391 139.545 67.7941 138.223 57.2368 140.327C46.6794 142.43 26.3696 146.157 24.5233 145.196C22.6296 144.234 26.2276 138.523 23.3871 138.523C20.5939 138.523 21.162 145.196 19.2683 146.518C17.3746 147.841 14.0133 142.611 12.1196 143.813C10.2259 145.015 11.2201 146.879 10.4626 147.48C9.70516 148.081 3.92941 147.119 2.03572 147.48C0.189369 147.841 0 149.163 0 149.163H61.5449H152.442H213.987C214.318 146.218 208.259 147.239 208.259 147.239Z" fill="#0D80F2"/>
<path d="M128.821 95.2424C128.821 95.2424 120.706 97.4665 119.624 97.6469C118.542 97.8272 104.716 96.2042 104.716 96.2042C104.716 96.2042 103.874 94.2806 102.973 94.4609C102.071 94.6412 95.9995 96.5648 95.9995 96.5648L98.8849 101.915L104.776 100.472L105.257 99.1497C105.257 99.1497 118.421 101.554 119.864 101.554C121.307 101.494 130.744 99.9912 130.744 99.9912L128.821 95.2424Z" fill="#E4897B"/>
<path d="M70.6321 152.65L68.5883 151.387L104.535 94.2204C104.776 93.8597 105.257 93.7395 105.617 93.98L106.339 94.4609C106.7 94.7013 106.82 95.1822 106.579 95.5429L70.6321 152.65Z" fill="#263238"/>
<path d="M185.146 123.134C185.146 123.134 168.198 120.129 149.518 123.555C137.58 125.719 105.978 135.758 105.978 135.758C105.978 135.758 134.115 148.742 149.518 146.037C164.874 143.332 185.146 123.134 185.146 123.134Z" fill="#B49555"/>
<path opacity="0.2" d="M185.146 123.134C185.146 123.134 168.198 120.129 149.518 123.555C137.58 125.719 105.978 135.758 105.978 135.758C105.978 135.758 134.115 148.742 149.518 146.037C164.874 143.332 185.146 123.134 185.146 123.134Z" fill="black"/>
<path d="M134.171 91.7559L123.471 95.6632C123.471 95.6632 127.498 103.177 127.799 103.117C128.16 103.057 137.657 102.215 137.657 102.215L134.171 91.7559Z" fill="black"/>
<path opacity="0.6" d="M137.717 102.215C137.717 102.215 133.629 102.576 130.684 102.877C129.121 102.997 127.919 103.117 127.798 103.177C127.438 103.237 123.47 95.7232 123.47 95.7232L134.17 91.8159L135.974 97.1058L137.717 102.215Z" fill="black"/>
<path opacity="0.2" d="M137.717 102.215C137.717 102.215 133.629 102.576 130.684 102.877C131.165 101.013 132.427 98.0075 135.132 97.1659C135.433 97.1058 135.673 97.0457 135.914 97.1058L137.717 102.215Z" fill="black"/>
<path d="M157.675 94.9418C157.554 95.6632 157.374 96.3845 157.254 97.1059C157.013 98.1879 156.773 99.33 156.532 100.472C156.172 102.336 155.751 104.259 155.33 106.303C155.21 106.844 155.09 107.385 155.03 107.926C154.128 112.194 154.969 118.746 153.166 121.692C152.986 122.053 151.844 122.594 151.844 122.594C151.844 122.594 151.904 123.315 151.844 123.736L128.7 121.692L128.58 121.572C127.859 120.61 127.498 119.347 127.678 118.145C128.219 113.697 129.903 102.456 132.968 93.0183C133.449 91.5756 134.772 90.5536 136.275 90.4935C136.455 90.4935 136.635 90.4935 136.816 90.4935L155.691 92.1767C156.172 92.2368 156.593 92.4171 156.893 92.6576C157.494 93.1986 157.855 94.0402 157.675 94.9418Z" fill="black"/>
<path opacity="0.2" d="M156.833 92.7176C155.511 94.8817 149.92 96.5047 142.947 95.4828C136.094 94.4609 135.734 92.0564 136.275 90.5536C136.455 90.5536 136.635 90.5536 136.816 90.5536L155.691 92.2367C156.112 92.2367 156.533 92.4171 156.833 92.7176Z" fill="black"/>
<path d="M142.947 95.4828C142.947 95.4828 154.729 94.7615 156.232 92.7778C157.735 90.7941 155.871 88.2092 148.177 87.2474C139.761 86.2255 136.695 88.8705 136.575 90.2531C136.455 92.0564 136.455 93.6194 142.947 95.4828Z" fill="#B49555"/>
<path opacity="0.2" d="M143.067 94.8216C144.69 94.5812 151.002 93.4991 151.122 91.275C151.242 88.6901 144.69 87.7885 142.105 89.7722C139.941 91.3952 141.805 93.8598 142.526 94.6413C142.406 94.8817 142.286 95.2424 142.286 95.3626C142.286 95.4227 142.286 95.6632 142.286 95.7834C141.865 96.8654 136.455 112.495 136.695 123.615H137.296C137.056 112.254 142.827 96.1441 142.887 95.9637V95.9036V95.8435C142.887 95.8435 142.887 95.543 142.887 95.4828C142.827 95.3626 142.947 95.0621 143.067 94.8216Z" fill="black"/>
<path d="M141.685 102.396L155.571 104.981L155.33 106.183L141.324 103.658L139.1 103.117L130.744 101.194L131.045 99.8711L139.34 101.855L141.685 102.396Z" fill="#263238"/>
<path d="M141.892 102.081L139.204 101.432L138.696 103.536L141.384 104.184L141.892 102.081Z" fill="#263238"/>
<path opacity="0.2" d="M141.892 102.081L139.204 101.432L138.696 103.536L141.384 104.184L141.892 102.081Z" fill="white"/>
<path d="M138.799 115.14L154.248 117.183L154.128 118.265L138.499 116.402L136.274 115.981L128.099 114.659L128.34 113.156L136.455 114.659L138.799 115.14Z" fill="#263238"/>
<path d="M139.025 114.765L136.309 114.247L135.904 116.373L138.62 116.89L139.025 114.765Z" fill="#263238"/>
<path opacity="0.2" d="M139.025 114.765L136.309 114.247L135.904 116.373L138.62 116.89L139.025 114.765Z" fill="white"/>
<path d="M149.74 92.1165L143.187 94.8816L141.564 91.9718C141.564 91.9718 141.324 91.2148 141.985 90.7339C142.406 90.4333 142.767 90.0726 142.947 89.7721C143.548 88.5097 142.947 83.6406 142.947 83.6406L149.74 85.1434C149.74 85.1434 149.139 89.171 149.199 90.6738C149.199 91.0946 149.379 91.5755 149.74 92.1165Z" fill="#E4897B"/>
<path opacity="0.2" d="M149.74 85.1434C149.74 85.1434 146.373 92.7777 141.985 90.7339C142.406 90.4333 142.767 90.0726 142.947 89.7721C143.548 88.5097 142.947 83.6406 142.947 83.6406L149.74 85.1434Z" fill="black"/>
<path d="M138.739 73.7222C138.739 73.7222 137.296 79.3727 140.122 81.8373C142.947 84.3019 143.969 73.7222 143.969 73.7222H138.739Z" fill="#263238"/>
<path d="M148.537 87.2475C146.854 89.2312 144.39 89.5317 142.406 88.6902C141.083 88.1491 140.001 87.0671 139.4 85.6845C139.34 85.5042 139.22 85.3239 139.16 85.0834C138.018 81.4767 138.138 75.2851 142.045 73.3615C144.81 71.9789 148.237 73.0609 149.619 75.8862C150.04 76.6677 150.221 77.5694 150.221 78.4109C150.221 82.5587 150.461 84.9632 148.537 87.2475Z" fill="#E4897B"/>
<path d="M146.794 73.5417L146.434 74.3232C147.816 74.744 147.576 76.3069 147.335 77.0283C146.794 78.5912 147.696 80.9356 148.898 81.8373C148.898 81.8373 148.898 81.176 149.499 81.2962C150.04 81.4165 149.98 84.903 148.958 86.5861C148.958 86.5861 150.581 85.0833 151.423 81.4165C152.204 78.0502 152.264 75.285 151.543 73.9625L146.794 73.5417Z" fill="#263238"/>
<path d="M152.204 81.7171C151.844 82.6789 151.062 83.4604 150.1 83.8811C148.838 84.4222 148.057 83.3401 148.237 82.0177C148.417 80.8755 149.319 79.1924 150.641 79.1924C152.024 79.1924 152.685 80.5149 152.204 81.7171Z" fill="#E4897B"/>
<path d="M152.144 76.4872C152.144 76.4872 153.527 72.9406 149.079 70.3558C144.63 67.771 140.002 70.1754 139.22 71.7985C139.22 71.7985 136.335 73.0608 138.439 75.7058L140.122 73.7822C140.122 73.7221 144.27 78.1704 152.144 76.4872Z" fill="#263238"/>
<path d="M147.636 75.4053C147.636 75.4053 148.177 79.3126 146.854 83.8811C145.532 88.4497 143.067 89.171 141.083 87.9688C141.083 87.9688 141.745 88.8103 142.406 88.9907C143.067 89.171 145.772 89.171 147.335 84.3019C148.958 79.4328 148.537 75.4053 148.537 75.4053H147.636Z" fill="#263238"/>
<path opacity="0.2" d="M147.636 75.4053C147.636 75.4053 148.177 79.3126 146.854 83.8811C145.532 88.4497 143.067 89.171 141.083 87.9688C141.083 87.9688 141.745 88.8103 142.406 88.9907C143.067 89.171 145.772 89.171 147.335 84.3019C148.958 79.4328 148.537 75.4053 148.537 75.4053H147.636Z" fill="white"/>
<path d="M153.346 77.1485C153.346 77.1485 152.565 77.8699 151.904 78.2306C151.242 78.5912 150.341 78.2907 150.16 78.0502C149.98 77.8098 148.297 76.3671 147.936 76.307C147.516 76.1867 138.619 76.3671 138.439 76.3671C138.258 76.3671 137.537 76.0665 137.537 76.0665C137.537 76.0665 142.947 73.2412 146.193 73.4817C149.439 73.662 153.407 75.8261 153.346 77.1485Z" fill="black"/>
<path d="M153.467 77.3289C153.467 77.3289 154.489 72.8204 149.86 69.7547C145.231 66.689 139.04 70.1755 138.018 71.498C136.996 72.8204 137.236 76.1266 137.236 76.1266C137.236 76.1266 147.035 76.1867 148.057 76.0064C149.139 75.8862 150.281 78.1103 151.062 78.2306C151.904 78.3508 152.745 77.1485 153.467 77.3289Z" fill="#B49555"/>
<path opacity="0.2" d="M142.346 70.8368C142.346 70.957 142.406 71.0171 142.466 71.0772C142.707 71.2575 143.067 71.1974 143.368 70.957C143.488 70.8368 143.548 70.7165 143.548 70.5963C143.608 70.416 143.548 70.1755 143.428 70.0553C143.187 69.875 142.827 69.9351 142.526 70.1755C142.346 70.416 142.286 70.6564 142.346 70.8368Z" fill="black"/>
<path opacity="0.2" d="M147.816 70.5963C147.876 70.7165 147.936 70.8969 148.057 70.957C148.297 71.1974 148.718 71.2575 148.958 71.0772C149.018 71.0171 149.078 70.957 149.078 70.8368C149.139 70.5963 149.078 70.3559 148.838 70.1755C148.537 69.9351 148.177 69.875 147.936 70.0553C147.816 70.2356 147.756 70.416 147.816 70.5963Z" fill="black"/>
<path opacity="0.2" d="M139.641 70.8368L139.701 70.8969C139.821 70.957 140.062 70.8368 140.362 70.6565C140.543 70.5363 140.663 70.416 140.723 70.2958C140.783 70.1756 140.843 70.1155 140.783 70.0554C140.723 69.9351 140.362 69.9952 140.062 70.2357C139.761 70.4761 139.581 70.7166 139.641 70.8368Z" fill="black"/>
<path opacity="0.2" d="M150.281 70.3559C150.221 70.416 150.221 70.5362 150.281 70.6564C150.341 70.7767 150.461 70.8969 150.581 71.0171C150.822 71.2576 151.122 71.4379 151.242 71.3778C151.363 71.2576 151.182 70.957 150.942 70.7165C150.641 70.3559 150.341 70.2357 150.281 70.3559Z" fill="black"/>
<path d="M142.346 70.8367C142.346 70.957 142.406 71.0171 142.466 71.0772C142.706 71.2575 143.067 71.1974 143.368 70.957C143.488 70.8367 143.548 70.7165 143.548 70.5963C143.548 70.4761 143.488 70.4159 143.428 70.3558C143.187 70.1755 142.827 70.2356 142.526 70.4761C142.406 70.5963 142.346 70.7165 142.346 70.8367Z" fill="#263238"/>
<path d="M147.816 70.5963C147.876 70.7165 147.936 70.8969 148.056 70.957C148.297 71.1974 148.718 71.2575 148.958 71.0772C149.018 71.0171 149.078 70.957 149.078 70.8368C149.018 70.7165 148.958 70.5362 148.838 70.4761C148.597 70.1755 148.177 70.1755 147.936 70.3559C147.876 70.416 147.816 70.5362 147.816 70.5963Z" fill="#263238"/>
<path d="M139.701 70.8969C139.821 70.957 140.061 70.8368 140.362 70.6565C140.542 70.5362 140.663 70.416 140.723 70.2958C140.602 70.2357 140.302 70.3559 140.061 70.5362C139.881 70.6565 139.761 70.7767 139.701 70.8969Z" fill="#263238"/>
<path d="M150.281 70.5964C150.341 70.7166 150.461 70.8368 150.581 70.957C150.822 71.1975 151.122 71.3778 151.242 71.3177C151.182 71.1975 151.062 71.0773 150.942 70.957C150.701 70.7166 150.401 70.5363 150.281 70.5964Z" fill="#263238"/>
<path d="M74.2388 140.447L69.6101 146.578H75.3809L78.7472 141.89L74.2388 140.447Z" fill="#E4897B"/>
<path d="M126.536 127.583C126.536 127.583 102.371 114.959 95.0376 116.943C87.8842 118.867 72.0746 142.25 72.0746 142.25L78.2061 144.895C78.2061 144.895 95.0376 127.944 98.1634 127.102C100.868 126.381 124.192 151.207 129.001 151.207C137.417 151.207 143.548 149.103 143.548 149.103L126.536 127.583Z" fill="#263238"/>
<path opacity="0.2" d="M126.536 127.583C126.536 127.583 102.371 114.959 95.0376 116.943C87.8842 118.867 72.0746 142.25 72.0746 142.25L78.2061 144.895C78.2061 144.895 95.0376 127.944 98.1634 127.102C100.868 126.381 124.192 151.207 129.001 151.207C137.417 151.207 143.548 149.103 143.548 149.103L126.536 127.583Z" fill="black"/>
<path d="M70.3914 146.037H75.6813C75.8617 146.037 76.042 146.158 76.042 146.338L76.8836 150.185C76.9437 150.546 76.7032 150.846 76.4027 150.967C76.3426 150.967 76.2824 150.967 76.2824 150.967C74.5993 150.906 73.3369 150.846 71.1729 150.846C69.8504 150.846 65.883 150.967 64.0195 150.967C62.2162 150.967 61.9757 149.163 62.6971 148.983C66.0633 148.262 68.5881 147.24 69.6701 146.278C69.9105 146.158 70.151 146.037 70.3914 146.037Z" fill="#263238"/>
<path opacity="0.2" d="M70.3914 146.037H75.6813C75.8617 146.037 76.042 146.158 76.042 146.338L76.8836 150.185C76.9437 150.546 76.7032 150.846 76.4027 150.967C76.3426 150.967 76.2824 150.967 76.2824 150.967C74.5993 150.906 73.3369 150.846 71.1729 150.846C69.8504 150.846 65.883 150.967 64.0195 150.967C62.2162 150.967 61.9757 149.163 62.6971 148.983C66.0633 148.262 68.5881 147.24 69.6701 146.278C69.9105 146.158 70.151 146.037 70.3914 146.037Z" fill="black"/>
<path d="M84.5779 141.288L80.0094 147.42H85.7802L89.0864 142.731L84.5779 141.288Z" fill="#E4897B"/>
<path d="M80.791 146.278H86.0809C86.2612 146.278 86.4415 146.398 86.4415 146.578L87.2831 150.425C87.3432 150.786 87.1028 151.087 86.8022 151.207C86.7421 151.207 86.682 151.207 86.682 151.207C84.9988 151.147 83.7365 151.087 81.5724 151.087C80.25 151.087 76.2825 151.207 74.4191 151.207C72.6157 151.207 72.3752 149.404 73.0966 149.223C76.4629 148.502 78.9876 147.48 80.0696 146.518C80.25 146.338 80.4904 146.218 80.791 146.278Z" fill="#263238"/>
<path d="M151.904 123.135L152.144 127.763C152.144 127.763 153.587 151.027 143.067 151.027C129.903 151.027 113.312 126.861 111.869 126.561C110.426 126.26 88.9661 145.917 88.9661 145.917L81.6324 142.25C81.6324 142.25 103.453 118.205 109.164 115.32C114.874 112.495 127.378 124.758 127.378 124.758L128.52 121.632L151.904 123.135Z" fill="#263238"/>
<path d="M132.427 124.637L143.248 125.719L143.488 123.074L132.608 122.113L132.427 124.637Z" fill="black"/>
<path d="M144.33 123.135L144.089 125.779L151.543 126.561L151.784 123.796L144.33 123.135Z" fill="black"/>
<path d="M131.826 121.992L128.64 121.752L128.099 124.156L131.586 124.517L131.826 121.992Z" fill="black"/>
<path d="M139.169 122.183L134.918 121.806L134.647 124.86L138.898 125.237L139.169 122.183Z" fill="white"/>
<path opacity="0.2" d="M127.498 124.818L136.996 131.911C136.936 131.911 135.072 126.561 127.498 124.818Z" fill="black"/>
<path d="M185.432 123.856C185.432 123.856 177.555 152.53 171.463 152.53C166.608 152.53 98.5469 156.918 65.7988 155.175C57.5546 154.754 51.5545 153.912 49.3561 152.53C38.4095 145.677 29.0202 120.369 29.0202 120.369L49.7225 113.457C49.7225 113.457 109.31 128.665 137.432 128.665C180.349 128.665 185.432 123.856 185.432 123.856Z" fill="#B49555"/>
<path opacity="0.2" d="M65.753 155.175C57.5087 154.754 51.5087 153.912 49.3102 152.53C38.3637 145.677 28.9743 120.369 28.9743 120.369L49.6767 113.457C49.6767 113.457 52.6995 148.382 65.753 155.175Z" fill="black"/>
<path d="M27.0506 120.79L30.3941 128.424L50.5468 123.195C50.5468 123.195 140.318 147.48 184.012 132.031L186.348 123.195C186.348 123.195 161.707 128.725 141.234 128.725C120.761 128.725 49.2185 111.894 49.2185 111.894L27.0506 120.79Z" fill="#B49555"/>
<path opacity="0.2" d="M27.0506 120.79L30.3941 128.424L50.5468 123.195C50.5468 123.195 140.318 147.48 184.012 132.031L186.348 123.195C186.348 123.195 161.707 128.725 141.234 128.725C120.761 128.725 49.2185 111.894 49.2185 111.894L27.0506 120.79Z" fill="white"/>
<path opacity="0.2" d="M49.2185 111.894L50.5468 123.135L30.3941 128.364L27.0506 120.79L49.2185 111.894Z" fill="black"/>
<path d="M164.107 157.819L119.443 102.937C119.203 102.636 119.203 102.095 119.563 101.855L120.225 101.314C120.525 101.073 121.066 101.073 121.307 101.434L165.97 156.317L164.107 157.819Z" fill="#263238"/>
<path d="M150.161 100.472C150.161 100.472 142.526 103.959 141.504 104.319C140.482 104.68 126.536 105.281 126.536 105.281C126.536 105.281 125.394 103.538 124.553 103.838C123.711 104.139 118 107.024 118 107.024L121.727 111.894L127.318 109.489L127.558 108.106C127.558 108.106 140.963 108.407 142.346 108.106C143.728 107.806 152.866 104.8 152.866 104.8L150.161 100.472Z" fill="#E4897B"/>
<path d="M145.892 101.013L152.264 108.948C152.264 108.948 158.336 103.718 159.538 100.652C160.74 97.5867 159.177 95.062 157.674 94.8817C154.368 94.521 145.892 101.013 145.892 101.013Z" fill="black"/>
<path opacity="0.6" d="M145.892 101.013L152.264 108.948C152.264 108.948 158.336 103.718 159.538 100.652C160.74 97.5867 159.177 95.062 157.674 94.8817C154.368 94.521 145.892 101.013 145.892 101.013Z" fill="black"/>
<path d="M198.916 158.661H12.4819C12.4819 158.661 14.3282 153.491 17.8789 153.431C21.4769 153.431 25.2643 155.355 27.3474 153.431C29.4304 151.508 24.7435 148.983 27.3474 146.759C29.9512 144.534 31.8922 150.005 34.0226 147.6C36.153 145.196 31.9395 144.054 31.1821 141.769C30.4246 139.485 40.0351 141.95 43.1123 150.065C46.1896 158.18 49.1721 150.726 52.9122 147.48C56.6522 144.234 69.3399 153.311 76.1099 151.447C82.8798 149.644 75.3997 145.136 77.3881 143.753C79.3765 142.37 87.0933 150.005 86.6198 151.267C86.1464 152.529 92.6796 151.688 93.6738 146.218C94.668 140.747 104.894 145.556 102.906 150.786C102.906 150.786 109.391 145.677 113.889 148.742C118.386 151.808 128.139 155.295 132.494 153.431C136.897 151.568 127.145 146.278 131.311 146.278C135.477 146.278 142.862 153.611 144.33 152.89C145.845 152.169 134.578 142.431 136.092 140.928C137.607 139.425 151.147 153.792 155.219 153.431C159.29 153.07 168.238 148.742 175.481 144.534C182.772 140.387 178.985 144.655 177.28 147.6C175.529 150.546 182.109 147.119 184.95 146.939C187.79 146.759 185.802 151.988 188.406 151.387C191.009 150.786 194.986 149.824 196.501 150.005C198.016 150.185 192.382 152.409 194.087 153.672C195.744 154.994 199.2 156.256 198.916 158.661Z" fill="#1B68B5"/>
<path opacity="0.6" d="M12.4345 158.661H198.916C199.2 156.316 195.744 154.994 194.087 153.732C192.382 152.469 198.016 150.245 196.501 150.065C194.986 149.884 191.009 150.906 188.406 151.447C185.802 151.988 187.743 146.759 184.95 146.999C182.109 147.179 175.529 150.606 177.28 147.66C179.032 144.715 182.772 140.447 175.481 144.595C171.789 146.698 167.717 148.863 164.072 150.486C160.474 152.109 157.254 153.251 155.219 153.431C154.319 153.491 152.946 152.89 151.337 151.808C145.703 148.201 137.276 139.786 136.092 140.928C135.051 141.95 139.927 146.759 142.72 149.945C143.999 151.447 144.851 152.589 144.377 152.83C142.862 153.551 135.477 146.218 131.358 146.218C127.192 146.218 136.945 151.568 132.542 153.371C129.843 154.513 125.156 153.671 120.896 152.109C118.197 151.147 115.641 149.884 113.889 148.682C109.391 145.616 102.906 150.666 102.906 150.666C104.894 145.496 94.668 140.627 93.6738 146.097C92.727 151.568 86.1464 152.349 86.6198 151.147C87.0933 149.884 79.3765 142.25 77.3881 143.633C75.3997 145.015 82.8798 149.524 76.1099 151.327C69.3399 153.13 56.6522 144.114 52.9122 147.36C49.1721 150.606 46.1895 158.06 43.1123 149.945C40.035 141.829 30.4246 139.365 31.1821 141.649C31.9395 143.933 36.153 145.075 34.0226 147.48C33.3125 148.261 32.6497 148.201 31.9869 147.841C30.5666 147.119 29.099 145.136 27.3473 146.638C25.9744 147.841 26.6845 149.103 27.3 150.365C27.8208 151.447 28.2942 152.409 27.3473 153.311C25.9271 154.633 23.6546 154.152 21.2402 153.671C20.104 153.491 18.9678 153.311 17.8315 153.311C14.2809 153.431 12.4345 158.661 12.4345 158.661Z" fill="#4080C0"/>
<path opacity="0.2" d="M21.0199 156.016C18.9369 155.355 21.3987 154.754 24.1919 156.016C26.9377 157.278 31.1512 159.022 30.157 156.016C29.2102 153.01 28.3107 150.125 30.8198 152.049C33.3289 153.972 40.2409 156.497 40.9984 156.437C41.7558 156.316 34.9386 152.169 37.1163 150.666C39.294 149.223 42.75 157.399 48.9045 157.459C55.059 157.519 59.3672 154.092 59.3672 154.092C59.3672 154.092 53.26 158.661 48.9045 158.661C44.549 158.661 43.4128 156.377 43.4128 156.377C43.4128 156.377 40.7143 158.06 38.868 157.399C37.0216 156.737 32.1454 153.251 32.2401 154.513C32.3821 155.836 35.9328 160.705 21.0199 156.016Z" fill="#4080C0"/>
<path opacity="0.2" d="M60.0775 151.808C59.7934 152.049 55.3906 155.535 52.0293 155.235C48.5733 154.934 47.3897 150.546 47.3424 150.426C50.9404 152.049 54.1597 153.191 56.1954 153.371C57.0949 153.491 58.4678 152.89 60.0775 151.808Z" fill="#4080C0"/>
<path opacity="0.2" d="M90.5657 152.169C86.4942 157.158 78.5881 156.377 76.221 154.573C73.8539 152.77 78.1147 148.502 77.2152 148.201C76.363 147.961 65.9951 156.196 64.2434 156.016C62.4917 155.775 65.569 151.868 68.6936 150.005C67.4153 151.507 66.5632 152.65 67.0366 152.89C68.5515 153.611 75.9369 146.278 80.0557 146.278C84.2218 146.278 74.4693 151.628 78.8721 153.431C81.5706 154.573 86.3049 153.732 90.5657 152.169Z" fill="#4080C0"/>
<path opacity="0.2" d="M90.6604 156.016C92.9329 155.475 103.301 153.371 102.922 151.147C102.543 148.923 106.757 148.682 107.136 151.808C107.514 154.934 105.668 155.956 105.668 155.956C105.668 155.956 109.787 156.857 110.307 154.513C110.828 152.229 108.508 150.726 108.508 150.726C108.508 150.726 111.538 148.983 112.627 151.808C113.669 154.633 110.497 156.677 113.479 156.136C116.462 155.595 118.072 152.77 119.208 154.032C120.344 155.295 118.214 157.459 118.214 157.459C118.214 157.459 121.102 158.661 123.469 157.459C125.836 156.256 127.209 158.661 127.209 158.661H84.8847C84.8373 158.661 87.3465 156.797 90.6604 156.016Z" fill="#4080C0"/>
<path opacity="0.2" d="M132.842 158.661C130.191 158.661 129.623 155.295 131.706 155.054C133.789 154.814 133.268 156.437 133.268 156.437C133.268 156.437 135.067 158.721 137.671 157.459C140.275 156.256 141.79 153.611 143.021 154.032C144.299 154.513 141.411 157.459 141.411 157.459C141.411 157.459 149.744 156.737 152.773 154.032C155.756 151.327 160.254 151.087 158.786 154.032C157.271 156.978 154.809 157.399 154.809 157.399C154.809 157.399 160.159 159.743 164.798 157.399C169.438 155.054 171.805 156.377 170.053 157.399C168.302 158.42 180.043 158.601 180.043 158.601L132.842 158.661Z" fill="#4080C0"/>
<path opacity="0.2" d="M173.841 147.36C174.078 144.835 178.48 142.431 180.185 141.769C179.427 144.054 175.214 145.196 177.344 147.6C178.054 148.382 178.717 148.322 179.38 147.961C177.06 152.049 173.651 149.644 173.841 147.36Z" fill="#4080C0"/>
<path opacity="0.2" d="M190.126 153.792C185.487 158.24 180.327 156.978 178.954 156.377C177.581 155.776 178.717 153.672 181.321 151.868C182.362 151.147 183.262 150.786 184.019 150.426C183.499 151.508 183.025 152.469 183.972 153.371C185.44 154.754 187.712 154.273 190.126 153.792Z" fill="#4080C0"/>
<path d="M39.6368 40.198L54.1184 40.7989L75.841 41.7002C98.368 42.6349 96.4852 10.3199 72.1488 14.1456C60.3444 -12.1337 38.5585 7.91631 42.1472 18.5422C19.52 20.0211 27.5687 39.6972 39.6368 40.198Z" fill="#5BCBFB"/>
<path d="M59.0364 52.4715L47.7728 52.0041L60.2335 23.6197L70.6925 24.0537L63.5655 40.4319L70.0019 40.6989L53.1962 76.6842L59.0364 52.4715Z" fill="#FFD12F"/>
</svg>
