<svg width="98" height="43" viewBox="0 0 98 43" fill="none" xmlns="http://www.w3.org/2000/svg">
<path d="M83.3137 20.3903C83.5332 19.9228 83.7808 19.639 84.203 19.3711C84.6934 19.0603 84.9227 19 85.6164 19C86.6598 19 87.4 19.3935 87.8721 20.1991C88.1822 20.7283 88.1959 20.839 88.1988 22.853C88.2029 25.7043 88.3686 26.2925 89.3258 26.8531C90.2042 27.3674 93.0898 27.2387 94.4294 26.6254C95.3116 26.2215 96.443 25.0885 96.8484 24.203C97.0227 23.8222 97.2147 23.1729 97.275 22.76C97.3504 22.2438 97.3895 23.316 97.4002 26.1918C97.4143 29.9641 97.392 30.4507 97.1732 31.1538C96.7037 32.6622 95.4486 34.1228 94.0223 34.8207C93.5913 35.0316 93.318 35.4695 93.318 35.9494V36.4158V38.8638V41.538C93.318 42.1038 92.8594 42.5625 92.2936 42.5625C91.7278 42.5625 91.2691 42.1038 91.2691 41.538V38.9769V36.4158C91.2691 35.85 90.8665 35.6674 90.3007 35.6674C89.7349 35.6674 89.2202 35.85 89.2202 36.4158V38.9769V41.538C89.2202 42.1038 88.7615 42.5625 88.1957 42.5625C87.6299 42.5625 87.1713 42.1038 87.1713 41.538V38.797V36.4158V35.6674C87.1713 35.2735 86.9625 34.9091 86.6227 34.7099C85.8492 34.2567 84.9085 33.2064 84.5051 32.3459C84.1677 31.6259 84.1609 31.5586 84.0979 28.3482C84.0349 25.1378 84.0282 25.072 83.7 24.4424C83.5164 24.0903 83.328 23.6436 83.2814 23.45C83.2317 23.2434 83.0469 23.0978 82.8344 23.0978H81.5984H81.0245C80.4587 23.0978 80.0001 22.6392 80.0001 22.0734C80.0001 21.507 80.4582 21.0473 81.0245 21.0453L81.5048 21.0437L82.2935 21.0409C82.7307 21.0394 83.1279 20.7861 83.3137 20.3903Z" fill="#FAC721"/>
<path fill-rule="evenodd" clip-rule="evenodd" d="M82.2935 21.0409C83.3086 21.0374 83.0771 22.4107 82.8344 23.0978H81.5984H81.0245C80.4587 23.0978 80.0001 22.6392 80.0001 22.0734C80.0001 21.507 80.4582 21.0473 81.0245 21.0453L81.5048 21.0437L82.2935 21.0409ZM87.1713 36.4158H89.2202V38.9769V41.538C89.2202 42.1038 88.7615 42.5625 88.1957 42.5625C87.6299 42.5625 87.1713 42.1038 87.1713 41.538V38.797V36.4158ZM91.2691 36.4158H93.318V38.8638V41.538C93.318 42.1038 92.8594 42.5625 92.2936 42.5625C91.7278 42.5625 91.2691 42.1038 91.2691 41.538V38.9769V36.4158Z" fill="#DFDFDF"/>
<path d="M94.0223 34.8207C93.5913 35.0316 93.318 35.4695 93.318 35.9494V36.4158H91.2691C91.2691 35.85 90.8665 35.6674 90.3007 35.6674C89.7349 35.6674 89.2202 35.85 89.2202 36.4158H87.1713V35.6674C87.1713 35.2735 86.9625 34.9091 86.6227 34.7099C88.9255 35.9926 92.5153 35.3182 94.0223 34.8207Z" fill="#DFDFDF"/>
<path fill-rule="evenodd" clip-rule="evenodd" d="M82.2935 21.0409C83.3086 21.0374 83.0771 22.4107 82.8344 23.0978H81.5984H81.0245C80.4587 23.0978 80.0001 22.6392 80.0001 22.0734C80.0001 21.507 80.4582 21.0473 81.0245 21.0453L81.5048 21.0437L82.2935 21.0409Z" fill="#F15D00"/>
<path d="M56.2715 0C53.6787 1.04369 51.0858 2.08739 50.8756 5.49679C51.9268 5.21847 52.9779 5.00974 54.0991 4.73142C55.5007 4.03562 56.9723 3.33982 58.7943 2.43529C58.8644 1.94823 58.9344 0.974115 59.0746 0C58.0935 0 57.1825 0 56.2715 0Z" fill="#686665"/>
<path d="M54.0991 4.73138C53.048 5.0097 51.9968 5.21844 50.8756 5.49676C50.5953 5.49676 50.315 5.56634 49.9646 5.56634C50.385 6.0534 50.9457 6.54045 51.226 7.09709C51.7165 8.00163 52.137 8.97574 52.5574 9.94986C51.5763 10.2978 50.4551 11.0631 49.5441 10.924C48.0024 10.5761 46.6009 9.67154 45.1293 8.97574C42.7467 9.25406 40.3641 9.53238 37.9815 9.8107C37.9815 10.924 38.4019 12.3851 37.9114 13.1505C36.5799 15.0988 35.1784 17.534 33.1462 18.369C31.4643 19.0648 28.3109 18.5082 26.9094 17.2557C24.6669 15.2379 23.2654 12.246 21.5835 9.67154C19.6915 9.67154 17.7293 9.67154 15.8372 9.67154C15.2766 11.4806 14.8562 13.2897 14.1554 14.9596C13.735 15.9337 12.2633 16.6991 12.1232 17.6036C11.7027 20.8739 9.67051 21.4305 6.93752 21.2218C6.93752 27.3448 6.86744 33.3982 6.93752 39.5212C6.93752 42.861 7.91859 43.4177 11.002 42.5131C11.5626 42.374 12.3334 42.4436 12.894 42.6523C15.8372 43.4177 17.0986 42.5827 17.2388 39.3821C17.3789 37.0163 17.2388 34.5811 17.2388 31.0325C19.5513 32.0066 21.4434 32.3545 22.6347 33.4678C23.6858 34.3723 23.4173 36.6535 23.7676 38.393C26.8391 39.1609 25.0874 36.1814 25.9984 35.5552C30.1329 34.7898 32.2171 35.3315 31.4462 38.393C33.8989 39.0888 33.2863 37.7121 33.2163 35.6248C33.0761 33.0503 34.1973 31.7283 36.7902 31.5891C36.2296 28.8059 35.6689 25.9532 34.8981 22.4742C37.8413 23.7962 39.5232 29.2234 38.7523 31.7283C38.7523 34.3723 38.6822 37.0163 38.8224 39.6604C38.9625 42.374 40.6444 43.4177 43.0971 42.7219C43.7978 42.5131 44.6388 42.4436 45.3395 42.6523C48.2827 43.4177 49.7544 42.3044 49.8244 39.1733C49.8945 35.2769 49.8244 31.3804 49.8244 27.4839C49.8244 23.2396 51.5763 21.4305 55.851 21.3609C57.3226 21.3609 58.8643 21.2913 60.3359 21.2913C59.9855 20.1781 59.5651 19.0648 59.2147 17.8819C61.5272 17.534 61.5272 17.534 63.7697 20.7347C66.5727 18.2298 66.783 16.4208 64.1201 13.9159C60.9666 10.7152 57.5329 7.72331 54.0991 4.73138ZM20.4623 21.848C20.4623 21.7088 20.182 21.6392 20.4623 21.848C21.5135 25.2574 19.3411 29.4322 16.3278 31.2412C14.9263 32.0762 14.0153 34.0244 13.3145 35.6943C12.894 36.6684 13.3145 37.9905 13.1043 39.1037C13.0342 39.5908 12.2633 40.0083 11.8429 40.4953C11.4224 40.0779 10.5114 39.5212 10.5815 39.1733C11.2122 36.251 11.4925 33.0503 12.9641 30.5454C14.8562 27.4144 17.7293 24.9095 20.4623 21.848ZM43.0971 31.8674C43.0971 29.7105 42.9569 27.5535 43.1671 25.3965C43.2372 24.5616 44.0781 23.8658 44.5687 23.1004C44.9891 23.7962 45.8301 24.492 45.8301 25.1878C45.9702 29.6409 45.9702 34.094 45.8301 38.5471C45.8301 39.2429 44.9191 39.8691 44.4285 40.4953C44.0081 39.7995 43.2372 39.1037 43.1671 38.4079C42.9569 36.1814 43.0971 34.0244 43.0971 31.8674Z" fill="#DFDEDE"/>
<path d="M21.6535 9.67157C23.4055 12.246 24.7369 15.2379 26.9794 17.2558C28.3809 18.5082 31.5343 19.0648 33.2162 18.369C35.1783 17.5341 36.6499 15.0988 37.9814 13.1506C38.542 12.3852 38.0515 10.924 38.0515 9.81073C32.5855 9.74115 27.1195 9.74115 21.6535 9.67157Z" fill="#5A5A5A"/>
<path d="M7.00762 21.2914C9.74061 21.5001 11.7028 20.9435 12.1933 17.6732C12.3334 16.6991 13.805 16.0033 14.2255 15.0292C14.9964 13.3593 15.3467 11.4806 15.9073 9.74115C14.2255 9.88031 12.5437 9.94989 10.8618 10.089C9.88076 11.1327 8.82961 12.1764 7.84854 13.2201C7.49815 15.9337 7.28792 18.5778 7.00762 21.2914Z" fill="#5D5C5C"/>
<path d="M1.33151 30.2671C1.33151 33.018 2.8732 31.0325 2.8732 30.2671C3.01335 26.3706 2.73304 20.3172 2.8732 16.4208C3.01335 13.2897 5.04557 12.1068 7.77857 13.2201C8.75964 12.1764 9.8108 11.1327 10.7919 10.089C3.1535 8.55826 0.0701265 10.9935 4.95911e-05 18.5777" fill="#C2C2C2"/>
<path d="M45.1292 8.97578C46.6009 9.67158 48.0024 10.5761 49.5441 10.924C50.4551 11.1328 51.5062 10.2978 52.5574 9.9499C52.1369 8.97578 51.7165 8.00167 51.2259 7.09713C50.8755 6.5405 50.385 6.05344 49.9645 5.56638C47.652 3.82689 45.4796 1.60034 41.205 2.36572C42.6766 4.87058 43.9379 6.88839 45.1292 8.97578Z" fill="#C1C1C1"/>
<path d="M38.8924 31.7283C39.5932 29.2235 37.9114 23.7963 35.0382 22.4742C35.739 25.9532 36.2996 28.806 36.9303 31.5892C37.561 31.6588 38.2617 31.6588 38.8924 31.7283Z" fill="#C2C1C1"/>
<path d="M63.9099 20.6652C61.6675 17.4645 61.6675 17.4645 59.3549 17.8124C59.7053 18.9952 60.1258 20.1085 60.4762 21.2218C61.6675 21.0826 62.7887 20.8739 63.9099 20.6652Z" fill="#C4C4C3"/>
<path d="M20.4623 21.848C17.7293 24.9095 14.7861 27.4144 12.9641 30.4759C11.4925 32.9112 11.2122 36.1814 10.5815 39.1037C10.5114 39.4516 11.4224 40.0083 11.8429 40.4258C12.2633 39.9387 12.9641 39.5908 13.1043 39.0342C13.3145 37.9209 12.894 36.5989 13.3145 35.6248C14.0853 34.0244 14.9263 32.0066 16.3278 31.1717C20.0176 28.9735 21.5835 25.2574 20.4623 21.848C20.4623 21.7088 20.182 21.6393 20.4623 21.848Z" fill="#C1C1C1"/>
<path d="M43.0972 31.8675C43.0972 34.0245 42.957 36.1814 43.1673 38.3384C43.2374 39.0342 44.0082 39.73 44.4287 40.4258C44.9192 39.7996 45.7601 39.1038 45.8302 38.4776C45.9703 34.0245 45.9703 29.5714 45.8302 25.1183C45.8302 24.4225 44.9893 23.7267 44.5688 23.0309C44.0783 23.7963 43.2374 24.5616 43.1673 25.327C42.957 27.484 43.0972 29.641 43.0972 31.8675Z" fill="#C1C0C0"/>
<circle r="1.07501" transform="matrix(-1 0 0 1 54.1749 13.3608)" fill="#575757"/>
</svg>
