<svg width="100" height="91" viewBox="0 0 100 91" fill="none" xmlns="http://www.w3.org/2000/svg">
<mask id="mask0_895_24" style="mask-type:alpha" maskUnits="userSpaceOnUse" x="0" y="0" width="100" height="91">
<rect width="100" height="91" fill="#C4C4C4"/>
</mask>
<g mask="url(#mask0_895_24)">
<circle cx="22.2107" cy="18.458" r="12.2072" fill="#FF7033"/>
<circle cx="22.2107" cy="18.458" r="17.2849" stroke="#FF7033" stroke-linecap="round" stroke-dasharray="1 5"/>
<path d="M80.195 34.3832C80.195 40.7037 75.0712 45.8275 68.7507 45.8275C62.4302 45.8275 57.3065 40.7037 57.3065 34.3832C57.3065 30.3066 59.4379 26.7279 62.6471 24.7006C64.4137 23.5847 66.5068 22.9389 68.7507 22.9389C75.0712 22.9389 80.195 28.0627 80.195 34.3832Z" fill="#FFBAA4"/>
<path d="M82.8991 60.6022C86.2988 63.5635 91.7622 70.0653 87.7536 71.8026C81.7781 74.3925 81.3055 64.2494 82.8991 60.6022Z" fill="#64B9FD"/>
<path d="M42.3493 46.0534C45.749 49.0147 51.2124 55.5165 47.2039 57.2538C41.2283 59.8437 40.7558 49.7006 42.3493 46.0534Z" fill="#64B9FD"/>
<path d="M74.1339 35.9679C74.1339 36.8347 73.5874 37.5374 72.9132 37.5374C72.239 37.5374 71.0821 36.8347 71.0821 35.9679C71.0821 35.1011 72.239 34.3984 72.9132 34.3984C73.5874 34.3984 74.1339 35.1011 74.1339 35.9679Z" fill="black"/>
<path d="M64.936 35.9243C64.936 36.767 63.7791 37.4502 63.1049 37.4502C62.4307 37.4502 61.8842 36.767 61.8842 35.9243C61.8842 35.0815 62.4307 34.3984 63.1049 34.3984C63.7791 34.3984 64.936 35.0815 64.936 35.9243Z" fill="black"/>
<path d="M68.7507 22.9389C75.0712 22.9389 80.195 28.0627 80.195 34.3832C80.5241 31.9417 82.3667 33.3659 83.2468 34.3832C85.0779 32.5521 81.9752 29.5512 80.195 28.2796C83.8572 27.6692 84.7727 24.9734 84.7727 23.7019C78.6691 24.4648 77.1432 18.3612 74.0914 16.8353C64.936 13.7835 62.6471 20.8073 62.6471 24.7006C64.4137 23.5847 66.5068 22.9389 68.7507 22.9389Z" fill="#303748"/>
<path d="M80.195 34.3832C80.195 28.0627 75.0712 22.9389 68.7507 22.9389C66.5068 22.9389 64.4137 23.5847 62.6471 24.7006C64.2279 25.8936 62.9922 28.9619 64.173 29.8207C72.5655 35.9243 76.869 26.7689 78.6691 36.6872L76.3803 42.9134C78.7216 40.8179 80.195 37.7726 80.195 34.3832Z" fill="#303748"/>
<path fill-rule="evenodd" clip-rule="evenodd" d="M84.0098 72.5459C85.5357 52.7091 77.9062 51.9462 74.8544 51.9462C72.8042 51.9462 72.4039 48.0008 72.4789 45.0796C70.5785 45.69 65.7519 45.0058 63.5761 44.5875C63.7183 48.0326 62.819 52.0321 58.0694 49.6573C57.3815 49.3134 56.8487 49.0082 56.3835 48.7418C54.785 47.8263 53.9858 47.3685 50.4399 47.3685C48.6597 47.3685 46.1674 46.4529 50.4399 42.7908C53.1695 40.4511 55.6125 38.0242 57.3935 36.255C59.0971 34.5626 60.195 33.472 60.3583 33.6354C61.6998 34.9769 63.0413 33.9596 67.4933 30.5836C68.1053 30.1195 68.7761 29.6108 69.5137 29.0576C69.5137 28.2947 69.5137 27.5317 68.7507 26.7688C68.4347 26.4527 68.7732 26.1367 69.1698 25.7665C69.7306 25.2429 70.4075 24.6108 69.5137 23.717C69.1562 23.3595 68.8545 22.9647 68.5622 22.5822C66.9828 20.5156 65.6756 18.8051 57.3065 25.2429C56.5435 26.0058 55.1702 27.8369 55.7806 29.0576C56.0488 29.5942 54.0531 30.8854 51.3524 32.6327C46.3725 35.8547 38.9956 40.6275 38.9956 45.0796C38.9956 48.4225 43.3354 51.5845 47.7895 54.8299C52.4845 58.2507 57.3065 61.7641 57.3065 65.6793C57.3065 68.2514 57.3932 71.4305 57.4789 74.5734C57.6475 80.7533 57.8122 86.7935 57.3065 87.8049C56.6961 89.0257 55.5262 98.9949 55.0176 103.827H80.958V101.538C85.7974 99.6023 85.7254 98.8944 85.0255 92.0154C84.622 88.0495 84.0098 82.0322 84.0098 72.5459Z" fill="#FFBCA7"/>
<path fill-rule="evenodd" clip-rule="evenodd" d="M84.0098 72.5459C85.5357 52.7091 77.9062 51.9462 74.8544 51.9462C72.8042 51.9462 72.4039 48.0008 72.4789 45.0796C70.5785 45.69 65.7519 45.0058 63.5761 44.5875C63.7183 48.0326 62.819 52.0321 58.0694 49.6573C57.3815 49.3134 56.8487 49.0082 56.3835 48.7418C54.785 47.8263 53.9858 47.3685 50.4399 47.3685C48.6597 47.3685 46.1674 46.4529 50.4399 42.7908C53.1695 40.4511 55.6125 38.0242 57.3935 36.255C59.0971 34.5626 60.195 33.472 60.3583 33.6354C61.6998 34.9769 63.0413 33.9596 67.4933 30.5836C68.1053 30.1195 68.7761 29.6108 69.5137 29.0576C69.5137 28.2947 69.5137 27.5317 68.7507 26.7688C68.4347 26.4527 68.7732 26.1367 69.1698 25.7665C69.7306 25.2429 70.4075 24.6108 69.5137 23.717C69.1562 23.3595 68.8545 22.9647 68.5622 22.5822C66.9828 20.5156 65.6756 18.8051 57.3065 25.2429C56.5435 26.0058 55.1702 27.8369 55.7806 29.0576C56.0488 29.5942 54.0531 30.8854 51.3524 32.6327C46.3725 35.8547 38.9956 40.6275 38.9956 45.0796C38.9956 48.4225 43.3354 51.5845 47.7895 54.8299C52.4845 58.2507 57.3065 61.7641 57.3065 65.6793C57.3065 68.2514 57.3932 71.4305 57.4789 74.5734C57.6475 80.7533 57.8122 86.7935 57.3065 87.8049C56.6961 89.0257 55.5262 98.9949 55.0176 103.827H80.958V101.538C85.7974 99.6023 85.7254 98.8944 85.0255 92.0154C84.622 88.0495 84.0098 82.0322 84.0098 72.5459Z" fill="url(#paint0_linear_895_24)" fill-opacity="0.2"/>
<path d="M78.6689 64.1535C77.4482 73.9193 78.1603 83.4816 78.6689 87.042C76.38 87.042 77.1431 80.1755 77.1431 70.2571C77.1431 62.3224 78.1603 62.8819 78.6689 64.1535Z" fill="#F18372"/>
<path d="M57.3065 87.8049C56.6961 89.0257 55.5262 98.9949 55.0176 103.827H80.958V101.538C80.4298 101.802 79.9016 98.2741 79.3734 93.6015C79.1386 91.5249 78.9039 89.4482 78.6691 87.8049C78.0588 83.5324 64.173 86.0247 57.3065 87.8049Z" fill="#81B2EF"/>
<path d="M75.2875 67.4534C73.7616 66.9448 70.5572 66.2327 69.9468 67.4534C69.1838 68.9793 79.1022 68.9793 75.2875 67.4534Z" fill="#F18372"/>
<path d="M66.132 65.9275V61.3498C66.7424 59.5187 67.9122 60.5868 68.4209 61.3498C70.0604 71.0201 67.9064 69.4942 61.6679 69.4942C60.142 69.4942 59.0214 67.4534 63.8431 67.4534C65.4827 67.2053 66.132 66.6904 66.132 65.9275Z" fill="#F18372"/>
<path d="M72.7014 77.1236C65.8349 77.8866 67.3608 75.5977 67.403 71.1307C69.6918 70.3677 68.3693 73.7683 68.8012 74.647C74.2697 74.9454 74.2179 76.9551 72.7014 77.1236Z" fill="#F18372"/>
<path d="M65.8773 75.7084C63.5884 75.7084 60.8559 75.2651 62.0623 76.4714C64.3514 78.7602 68.1661 76.4714 65.8773 75.7084Z" fill="#F18372"/>
<path d="M68.1659 77.9973C68.8012 77.9973 68.8012 83.2273 67.403 83.2273C66.4619 83.2273 66.4619 77.9973 68.1659 77.9973Z" fill="#F18372"/>
<path d="M65.5602 41.8198C65.4454 41.8964 65.4143 42.0517 65.4909 42.1665C65.5675 42.2814 65.7227 42.3125 65.8376 42.2359L65.5602 41.8198ZM69.5137 40.752C69.6517 40.752 69.7637 40.64 69.7637 40.502C69.7637 40.3639 69.6517 40.252 69.5137 40.252V40.752ZM65.8376 42.2359C66.209 41.9882 66.8455 41.6137 67.5373 41.3021C68.2366 40.9871 68.959 40.752 69.5137 40.752V40.252C68.8476 40.252 68.0441 40.5254 67.332 40.8462C66.6123 41.1704 65.9517 41.5588 65.5602 41.8198L65.8376 42.2359Z" fill="#FF7575"/>
<g filter="url(#filter0_d_895_24)">
<path d="M60.7474 55.761C61.7646 58.0498 63.0363 62.6276 60.7474 62.6276C57.3354 62.6276 59.2215 57.2869 60.7474 55.761Z" fill="#64B9FD"/>
</g>
<g filter="url(#filter1_d_895_24)">
<path d="M76.0064 49.6574C77.0237 51.9463 78.2953 56.524 76.0064 56.524C72.5944 56.524 74.4805 51.1833 76.0064 49.6574Z" fill="#64B9FD"/>
</g>
<g filter="url(#filter2_d_895_24)">
<path d="M54.6437 45.0797C55.661 47.3685 56.9327 51.9462 54.6438 51.9462C51.2318 51.9462 53.1178 46.6056 54.6437 45.0797Z" fill="#64B9FD"/>
</g>
</g>
<defs>
<filter id="filter0_d_895_24" x="58.8324" y="55.761" width="3.39775" height="7.36658" filterUnits="userSpaceOnUse" color-interpolation-filters="sRGB">
<feFlood flood-opacity="0" result="BackgroundImageFix"/>
<feColorMatrix in="SourceAlpha" type="matrix" values="0 0 0 0 0 0 0 0 0 0 0 0 0 0 0 0 0 0 127 0" result="hardAlpha"/>
<feOffset dx="0.2" dy="0.5"/>
<feComposite in2="hardAlpha" operator="out"/>
<feColorMatrix type="matrix" values="0 0 0 0 0.945098 0 0 0 0 0.513726 0 0 0 0 0.447059 0 0 0 1 0"/>
<feBlend mode="normal" in2="BackgroundImageFix" result="effect1_dropShadow_895_24"/>
<feBlend mode="normal" in="SourceGraphic" in2="effect1_dropShadow_895_24" result="shape"/>
</filter>
<filter id="filter1_d_895_24" x="74.0914" y="49.6574" width="3.39775" height="7.36658" filterUnits="userSpaceOnUse" color-interpolation-filters="sRGB">
<feFlood flood-opacity="0" result="BackgroundImageFix"/>
<feColorMatrix in="SourceAlpha" type="matrix" values="0 0 0 0 0 0 0 0 0 0 0 0 0 0 0 0 0 0 127 0" result="hardAlpha"/>
<feOffset dx="0.2" dy="0.5"/>
<feComposite in2="hardAlpha" operator="out"/>
<feColorMatrix type="matrix" values="0 0 0 0 0.945098 0 0 0 0 0.513726 0 0 0 0 0.447059 0 0 0 1 0"/>
<feBlend mode="normal" in2="BackgroundImageFix" result="effect1_dropShadow_895_24"/>
<feBlend mode="normal" in="SourceGraphic" in2="effect1_dropShadow_895_24" result="shape"/>
</filter>
<filter id="filter2_d_895_24" x="52.7288" y="45.0797" width="3.39775" height="7.36658" filterUnits="userSpaceOnUse" color-interpolation-filters="sRGB">
<feFlood flood-opacity="0" result="BackgroundImageFix"/>
<feColorMatrix in="SourceAlpha" type="matrix" values="0 0 0 0 0 0 0 0 0 0 0 0 0 0 0 0 0 0 127 0" result="hardAlpha"/>
<feOffset dx="0.2" dy="0.5"/>
<feComposite in2="hardAlpha" operator="out"/>
<feColorMatrix type="matrix" values="0 0 0 0 0.945098 0 0 0 0 0.513726 0 0 0 0 0.447059 0 0 0 1 0"/>
<feBlend mode="normal" in2="BackgroundImageFix" result="effect1_dropShadow_895_24"/>
<feBlend mode="normal" in="SourceGraphic" in2="effect1_dropShadow_895_24" result="shape"/>
</filter>
<linearGradient id="paint0_linear_895_24" x1="62.1837" y1="20.7133" x2="62.1837" y2="103.827" gradientUnits="userSpaceOnUse">
<stop offset="0.307794" stop-color="#FD462A"/>
<stop offset="0.525353" stop-color="#FFBCA7"/>
</linearGradient>
</defs>
</svg>
