<svg width="128" height="64" viewBox="0 0 128 64" fill="none" xmlns="http://www.w3.org/2000/svg">
<path d="M110.746 63.9465C110.234 63.9465 109.728 63.9465 109.216 63.9465C109.096 63.9266 108.969 63.8866 108.85 63.88C108.065 63.8334 107.279 63.7935 106.494 63.7469C106.281 63.7269 106.068 63.7003 105.855 63.6804L105.849 63.6937C105.776 63.6671 105.709 63.6271 105.636 63.6138C104.971 63.5007 104.305 63.4076 103.646 63.2678C102.342 63.0017 101.058 62.6557 99.9403 61.8972C99.5278 61.6111 99.1419 61.2651 99.0687 60.7394C98.889 59.4619 98.7426 58.1844 98.5829 56.9002C98.4366 55.7225 98.2902 54.5381 98.1438 53.3604C98.0041 52.2027 97.8577 51.0382 97.718 49.8805C97.9109 50.0069 98.1105 50.1267 98.3035 50.2531C99.9403 51.2844 101.697 52.0563 103.58 52.5087C103.846 53.1209 104.312 53.3471 104.977 53.3404C108.331 53.3205 111.678 53.3205 115.031 53.3404C115.696 53.3471 116.162 53.1209 116.428 52.5087C116.914 52.3623 117.406 52.2359 117.892 52.0762C119.449 51.5705 120.886 50.832 122.25 49.9271C122.19 50.5592 122.144 51.1913 122.071 51.8234C121.911 53.1475 121.738 54.4649 121.572 55.789C121.385 57.2861 121.186 58.7832 121.033 60.287C120.966 60.9257 120.72 61.4314 120.214 61.8107C120.001 61.9704 119.775 62.1101 119.542 62.2365C118.098 62.9817 116.528 63.2811 114.945 63.5473C114.845 63.5606 114.758 63.6271 114.658 63.6671C113.474 63.7403 112.29 63.8068 111.105 63.88C110.992 63.8866 110.872 63.9266 110.746 63.9465ZM100.32 59.5484C100.306 59.422 100.28 59.1957 100.253 58.9629C100.1 57.7718 99.9536 56.5742 99.7939 55.3831C99.7407 54.9839 99.4479 54.751 99.1286 54.8043C98.7759 54.8642 98.5963 55.1569 98.6495 55.5828C98.7027 56.0086 98.7493 56.4344 98.8025 56.8669C98.9223 57.8384 99.0421 58.8165 99.1751 59.7879C99.235 60.2204 99.4812 60.4001 99.8405 60.3602C100.173 60.3202 100.333 60.0873 100.32 59.5484ZM99.4546 52.6551C99.4346 52.5154 99.4147 52.2825 99.3681 52.0563C99.3015 51.7435 99.0021 51.5506 98.7027 51.5972C98.4166 51.6437 98.197 51.9099 98.217 52.2093C98.2303 52.4289 98.2636 52.6485 98.3035 52.8614C98.3767 53.234 98.6561 53.4735 98.9556 53.4336C99.2683 53.4003 99.4679 53.1275 99.4546 52.6551Z" fill="#ABABAB"/>
<path d="M93.0137 41.2372C93.0137 40.0662 93.0137 38.8885 93.0137 37.7174C93.5128 38.629 94.3977 38.9484 95.3026 39.2478C95.4157 39.3808 95.5089 39.5871 95.6553 39.6403C96.1277 39.8266 96.6068 40.0063 97.0991 40.1061C100.08 40.7182 103.107 40.8846 106.135 40.9578C108.643 41.0177 111.159 41.0044 113.667 40.9644C116.422 40.9179 119.17 40.7515 121.891 40.2991C122.683 40.166 123.461 39.9398 124.233 39.7135C124.426 39.6536 124.572 39.4075 124.732 39.2478C125.105 39.0947 125.491 38.9617 125.857 38.7887C126.349 38.5558 126.782 38.2431 127.014 37.7174C127.021 38.6423 126.988 39.5672 127.034 40.492C127.068 41.1441 126.888 41.6564 126.356 42.0357C125.983 42.2353 125.61 42.4349 125.238 42.6345C124.526 42.8608 123.821 43.0803 123.109 43.3066C123.075 43.3066 123.042 43.2999 123.009 43.3132C121.146 43.759 119.256 44.0518 117.347 44.2115C115.444 44.3712 113.534 44.4843 111.624 44.5508C110.347 44.5974 109.056 44.5508 107.778 44.4976C106.188 44.4377 104.598 44.3512 103.014 44.2248C101.817 44.125 100.619 43.9586 99.4346 43.7856C98.5962 43.6592 97.7645 43.4729 96.9261 43.3066C96.2142 43.0803 95.5089 42.8608 94.7969 42.6345C94.4243 42.4349 94.0517 42.2353 93.6791 42.0357C93.4595 41.7695 93.2333 41.5034 93.0137 41.2372Z" fill="#505050"/>
<path d="M95.3026 39.2478C94.3977 38.9484 93.5061 38.629 93.0137 37.7174C93.0137 37.5843 93.0137 37.4513 93.0137 37.3182C93.24 36.8059 93.6658 36.5064 94.1382 36.2536C95.2028 35.6947 96.3539 35.382 97.525 35.1291C101.105 34.3573 104.744 34.0978 108.397 34.0179C111.984 33.9381 115.57 34.0845 119.13 34.5502C121.006 34.7964 122.876 35.0892 124.659 35.7479C125.318 35.9874 125.936 36.3401 126.535 36.706C126.888 36.919 127.081 37.2783 127.008 37.7307C126.775 38.2564 126.342 38.5624 125.85 38.802C125.484 38.975 125.105 39.1081 124.726 39.2611C124.572 39.128 124.446 38.9351 124.273 38.8619C123.867 38.6955 123.441 38.5558 123.015 38.4693C120.114 37.8638 117.167 37.6842 114.213 37.6176C111.458 37.5511 108.703 37.571 105.955 37.611C103.447 37.6509 100.938 37.8239 98.4565 38.2098C97.5982 38.3429 96.7531 38.5691 95.9148 38.802C95.6819 38.8552 95.5022 39.0947 95.3026 39.2478Z" fill="#813035"/>
<path d="M105.855 63.7003C103.52 63.5273 101.218 63.188 99.0154 62.3496C98.6961 62.2298 98.39 62.0635 98.0972 61.8971C97.4451 61.5378 97.0992 61.0055 96.9927 60.2403C96.3872 55.942 95.7484 51.6437 95.1163 47.3454C95.1097 47.3121 95.0964 47.2788 95.0897 47.2522C95.1363 47.2988 95.1962 47.3321 95.2295 47.3853C95.9148 48.3701 96.7665 49.1752 97.7246 49.8805C97.8643 51.0382 98.0041 52.2026 98.1504 53.3604C98.2968 54.5447 98.4432 55.7225 98.5896 56.9002C98.7493 58.1777 98.8957 59.4619 99.0753 60.7394C99.1485 61.2717 99.5344 61.6177 99.947 61.8971C101.065 62.6623 102.349 63.0017 103.653 63.2678C104.312 63.4009 104.977 63.494 105.643 63.6138C105.716 63.6338 105.789 63.6737 105.855 63.7003Z" fill="#9A9898"/>
<path d="M124.925 47.3254C124.293 51.6304 123.648 55.942 123.035 60.247C122.922 61.0255 122.556 61.5512 121.898 61.9238C120.993 62.4361 120.021 62.7754 119.01 62.9618C117.566 63.2346 116.109 63.4342 114.665 63.6671C114.758 63.6271 114.851 63.5672 114.951 63.5473C116.535 63.2811 118.105 62.9817 119.549 62.2365C119.782 62.1167 120.008 61.9703 120.221 61.8107C120.72 61.4314 120.973 60.9257 121.039 60.2869C121.192 58.7832 121.392 57.2928 121.578 55.789C121.745 54.4649 121.918 53.1475 122.077 51.8234C122.151 51.1913 122.197 50.5592 122.257 49.9271C123.215 49.1885 124.107 48.3834 124.812 47.392C124.839 47.3587 124.885 47.3454 124.925 47.3254Z" fill="#9A9898"/>
<path d="M116.442 52.5087C116.175 53.1209 115.71 53.3471 115.044 53.3404C111.691 53.3205 108.344 53.3205 104.99 53.3404C104.325 53.3471 103.859 53.1209 103.593 52.5087C103.527 52.0762 103.613 51.677 103.899 51.3377C104.212 51.0782 104.571 50.9917 104.977 50.9917C108.337 50.9983 111.704 50.9983 115.064 50.9917C115.47 50.9917 115.829 51.0715 116.142 51.3377C116.422 51.6837 116.515 52.0762 116.442 52.5087Z" fill="#FFDA05"/>
<path d="M116.442 52.5087C116.515 52.0762 116.422 51.6836 116.135 51.3376C116.275 51.311 116.428 51.311 116.555 51.2645C117.48 50.9251 118.418 50.6257 119.309 50.2265C120.507 49.6942 121.618 49.0155 122.57 48.1039C124.213 46.6468 125.125 44.8436 125.231 42.6345C125.604 42.4349 125.976 42.2353 126.349 42.0357C126.342 42.548 126.389 43.067 126.322 43.5727C126.156 44.8037 125.724 45.9415 125.065 46.9927C125.005 47.0926 124.965 47.2123 124.918 47.3188C124.879 47.3387 124.832 47.3521 124.812 47.3853C124.107 48.3834 123.215 49.1818 122.257 49.9204C120.9 50.8253 119.456 51.5572 117.899 52.0696C117.42 52.2359 116.927 52.369 116.442 52.5087Z" fill="black"/>
<path d="M103.899 51.3376C103.613 51.677 103.527 52.0762 103.593 52.5087C101.71 52.0563 99.9536 51.2844 98.3168 50.2531C98.1238 50.1267 97.9242 50.0069 97.7312 49.8805C96.7731 49.1752 95.9148 48.3634 95.2361 47.3853C95.2028 47.3321 95.1429 47.2988 95.0964 47.2522C94.8036 46.6734 94.4776 46.1078 94.2314 45.5156C93.8321 44.5442 93.6126 43.5195 93.6192 42.4615C93.6192 42.3218 93.6658 42.1821 93.6858 42.0424C94.0584 42.242 94.431 42.4416 94.8036 42.6412C94.8967 44.8569 95.8549 46.6601 97.4717 48.1372C97.6714 48.3102 97.8577 48.4965 98.0706 48.6562C99.2416 49.5278 100.513 50.2331 101.89 50.7388C102.535 50.9717 103.221 51.138 103.899 51.3376Z" fill="black"/>
<path d="M100.32 59.5484C100.326 60.0874 100.173 60.3202 99.8338 60.3602C99.4745 60.4001 99.2283 60.2204 99.1684 59.7879C99.0287 58.8165 98.9156 57.8384 98.7958 56.8669C98.7426 56.4411 98.696 56.0153 98.6428 55.5828C98.5895 55.1569 98.7692 54.8642 99.1218 54.8043C99.4479 54.751 99.734 54.9839 99.7872 55.3832C99.9469 56.5742 100.093 57.7652 100.246 58.9629C100.28 59.1958 100.306 59.422 100.32 59.5484Z" fill="#ABABAB"/>
<path d="M99.4546 52.6551C99.4612 53.1275 99.2616 53.4003 98.9489 53.4402C98.6561 53.4801 98.37 53.2406 98.2968 52.868C98.2569 52.6551 98.2236 52.4355 98.2103 52.2159C98.1904 51.9165 98.4166 51.6437 98.6961 51.6038C98.9955 51.5572 99.2949 51.7502 99.3614 52.0629C99.4213 52.2891 99.4413 52.5153 99.4546 52.6551Z" fill="#ABABAB"/>
<path d="M106.501 63.7469C106.288 63.7269 106.075 63.7003 105.862 63.6804C106.075 63.707 106.288 63.7269 106.501 63.7469Z" fill="#C03C2C"/>
<path d="M103.899 51.3377C103.227 51.138 102.542 50.9717 101.883 50.7322C100.513 50.2265 99.2417 49.5212 98.0639 48.6495C97.851 48.4899 97.6647 48.3035 97.4651 48.1305C97.4119 47.5849 97.3586 47.0327 97.2988 46.4871C97.179 45.4225 97.0526 44.3645 96.9261 43.3066C97.7645 43.4663 98.5896 43.6592 99.4346 43.7856C100.626 43.9586 101.817 44.125 103.014 44.2248C104.598 44.3512 106.188 44.4377 107.778 44.4976C109.063 44.5508 110.347 44.5908 111.624 44.5508C113.534 44.4843 115.444 44.3712 117.347 44.2115C119.249 44.0518 121.146 43.759 123.009 43.3132C123.042 43.3066 123.075 43.3132 123.109 43.3066C123.009 44.1915 122.902 45.0831 122.803 45.9681C122.723 46.68 122.65 47.392 122.576 48.1039C121.625 49.0222 120.514 49.7008 119.316 50.2265C118.418 50.6257 117.48 50.9251 116.561 51.2645C116.428 51.311 116.282 51.3177 116.142 51.3377C115.829 51.0782 115.47 50.9917 115.064 50.9917C111.704 50.9983 108.337 50.9983 104.977 50.9917C104.565 50.9917 104.212 51.0782 103.899 51.3377Z" fill="#ABABAB"/>
<path d="M95.3026 39.2478C95.5022 39.0881 95.6819 38.8486 95.9081 38.7887C96.7465 38.5558 97.5915 38.3296 98.4498 38.1965C100.932 37.8106 103.44 37.6376 105.949 37.5977C108.703 37.5511 111.458 37.5378 114.206 37.6043C117.154 37.6775 120.108 37.8505 123.009 38.456C123.441 38.5425 123.861 38.6889 124.266 38.8486C124.446 38.9218 124.572 39.1081 124.719 39.2478C124.553 39.4075 124.413 39.6537 124.22 39.7136C123.448 39.9464 122.669 40.1727 121.878 40.2991C119.156 40.7515 116.408 40.9112 113.654 40.9645C111.145 41.011 108.63 41.0243 106.122 40.9578C103.094 40.8846 100.067 40.7116 97.0858 40.1061C96.5934 40.0063 96.1077 39.8267 95.642 39.6404C95.5089 39.5871 95.4224 39.3875 95.3026 39.2478Z" fill="#6ED2FF"/>
<path d="M96.9261 43.3066C97.0525 44.3645 97.1789 45.4291 97.2987 46.4871C97.3586 47.0327 97.4118 47.5849 97.465 48.1306C95.8548 46.6468 94.89 44.8503 94.7969 42.6346C95.5088 42.8608 96.2141 43.0804 96.9261 43.3066Z" fill="#9A9898"/>
<path d="M122.576 48.1039C122.649 47.392 122.723 46.68 122.803 45.9681C122.902 45.0831 123.009 44.1915 123.109 43.3066C123.821 43.0804 124.526 42.8608 125.238 42.6346C125.131 44.8369 124.22 46.6468 122.576 48.1039Z" fill="#9A9898"/>
<path d="M81.8495 0C78.0781 1.5181 74.3067 3.0362 74.0009 7.99534C75.5299 7.59051 77.0588 7.28689 78.6897 6.88206C80.7283 5.86999 82.8688 4.85793 85.519 3.54224C85.6209 2.83379 85.7228 1.41689 85.9267 0C84.4997 0 83.1746 0 81.8495 0Z" fill="#7C0202"/>
<path d="M78.6896 6.88205C77.1607 7.28688 75.6317 7.5905 74.0008 7.99532C73.5931 7.99532 73.1854 8.09653 72.6758 8.09653C73.2873 8.80498 74.1028 9.51343 74.5105 10.3231C75.224 11.6388 75.8356 13.0557 76.4472 14.4726C75.0201 14.9786 73.3893 16.0919 72.0642 15.8895C69.8217 15.3834 67.7831 14.0677 65.6426 13.0557C62.177 13.4605 58.7114 13.8653 55.2458 14.2701C55.2458 15.8895 55.8574 18.0148 55.1439 19.1281C53.2072 21.9619 51.1686 25.5041 48.2126 26.7186C45.7663 27.7306 41.1795 26.921 39.1409 25.0993C35.8792 22.1643 33.8405 17.8124 31.3942 14.0677C28.6421 14.0677 25.7881 14.0677 23.036 14.0677C22.2206 16.6991 21.609 19.3305 20.5897 21.7594C19.9781 23.1763 17.8376 24.2896 17.6337 25.6053C17.0221 30.362 14.0662 31.1717 10.0909 30.8681C10.0909 39.7743 9.98901 48.5792 10.0909 57.4854C10.0909 62.3434 11.5179 63.153 16.0029 61.8373C16.8183 61.6349 17.9395 61.7361 18.755 62.0397C23.036 63.153 24.8707 61.9385 25.0746 57.283C25.2785 53.842 25.0746 50.2998 25.0746 45.1382C28.4383 46.5551 31.1904 47.0611 32.9232 48.6804C34.4521 49.9961 34.0615 53.3143 34.5711 55.8444C39.0387 56.9613 36.4907 52.6275 37.8158 51.7166C43.8297 50.6034 46.8612 51.3913 45.74 55.8444C49.3075 56.8565 48.4165 54.8541 48.3146 51.8179C48.1107 48.0732 49.7416 46.1503 53.513 45.9479C52.6975 41.8996 51.8821 37.7501 50.7609 32.6898C55.0419 34.6127 57.4882 42.5068 56.367 46.1503C56.367 49.9961 56.2651 53.842 56.4689 57.6879C56.6728 61.6349 59.1191 63.153 62.6866 62.1409C63.7059 61.8373 64.9291 61.7361 65.9484 62.0397C70.2294 63.153 72.37 61.5337 72.4719 56.9794C72.5738 51.3118 72.4719 45.6442 72.4719 39.9767C72.4719 33.803 75.0201 31.1717 81.2378 31.0705C83.3784 31.0705 85.6208 30.9693 87.7613 30.9693C87.2517 29.35 86.6401 27.7306 86.1305 26.0101C89.4941 25.5041 89.4941 25.5041 92.7559 30.1596C96.8331 26.5162 97.1389 23.8848 93.2655 20.2413C88.6787 15.5858 83.6842 11.2339 78.6896 6.88205ZM29.7634 31.7789C29.7634 31.5765 29.3556 31.4753 29.7634 31.7789C31.2923 36.738 28.1325 42.8105 23.7495 45.4418C21.7109 46.6563 20.3858 49.4901 19.3665 51.9191C18.755 53.336 19.3665 55.2589 19.0607 56.8782C18.9588 57.5866 17.8376 58.1939 17.226 58.9023C16.6144 58.2951 15.2893 57.4854 15.3913 56.9794C16.3086 52.7287 16.7164 48.0732 18.8569 44.4298C21.609 39.8755 25.7881 36.232 29.7634 31.7789ZM62.6866 46.3527C62.6866 43.2153 62.4828 40.0779 62.7886 36.9405C62.8905 35.726 64.1137 34.7139 64.8272 33.6006C65.4387 34.6127 66.6619 35.6248 66.6619 36.6368C66.8658 43.1141 66.8658 49.5913 66.6619 56.0685C66.6619 57.0806 65.3368 57.9915 64.6233 58.9023C64.0117 57.8903 62.8905 56.8782 62.7886 55.8661C62.4828 52.6275 62.6866 49.4901 62.6866 46.3527Z" fill="#FDAB7D"/>
<path d="M31.496 14.0678C34.0443 17.8124 35.981 22.1643 39.2427 25.0993C41.2813 26.921 45.8681 27.7307 48.3144 26.7186C51.1685 25.5041 53.309 21.9619 55.2457 19.1281C56.0611 18.0148 55.3476 15.8895 55.3476 14.2702C47.3971 14.169 39.4466 14.169 31.496 14.0678Z" fill="#7C0202"/>
<path d="M10.1929 30.9693C14.1681 31.2729 17.0222 30.4632 17.7357 25.7065C17.9395 24.2896 20.08 23.2776 20.6916 21.8607C21.8129 19.4317 22.3225 16.6991 23.1379 14.1689C20.6916 14.3714 18.2453 14.4726 15.799 14.675C14.372 16.1931 12.843 17.7112 11.416 19.2293C10.9064 23.1763 10.6006 27.0222 10.1929 30.9693Z" fill="#7C0202"/>
<path d="M1.93668 44.0249C1.93668 48.0262 4.17913 45.1382 4.17913 44.0249C4.38299 38.3573 3.97527 29.5524 4.17913 23.8848C4.38299 19.3305 7.33896 17.61 11.3142 19.2293C12.7412 17.7112 14.2702 16.1931 15.6972 14.675C4.58685 12.4484 0.101941 15.9907 1.14441e-05 27.0222" fill="#B40505"/>
<path d="M65.6425 13.0557C67.7831 14.0677 69.8217 15.3834 72.0641 15.8895C73.3892 16.1931 74.9181 14.9786 76.4471 14.4726C75.8355 13.0557 75.2239 11.6388 74.5104 10.3231C74.0008 9.51344 73.2873 8.80499 72.6757 8.09654C69.312 5.56637 66.1522 2.32776 59.9345 3.44103C62.075 7.08447 63.9097 10.0195 65.6425 13.0557Z" fill="#7C0202"/>
<path d="M56.5707 46.1503C57.59 42.5069 55.1437 34.6127 50.9646 32.6898C51.9839 37.7502 52.7993 41.8996 53.7167 45.9479C54.634 46.0491 55.6533 46.0491 56.5707 46.1503Z" fill="#7C0202"/>
<path d="M92.96 30.0584C89.6982 25.4029 89.6982 25.4029 86.3345 25.9089C86.8442 27.6294 87.4558 29.2487 87.9654 30.868C89.6982 30.6656 91.3291 30.362 92.96 30.0584Z" fill="#7C0202"/>
<path d="M29.7634 31.7789C25.7881 36.232 21.5071 39.8754 18.8569 44.3285C16.7164 47.8708 16.3086 52.6275 15.3913 56.8782C15.2894 57.3842 16.6144 58.1939 17.226 58.8011C17.8376 58.0927 18.8569 57.5866 19.0607 56.777C19.3665 55.1577 18.755 53.2347 19.3665 51.8178C20.4878 49.4901 21.7109 46.5551 23.7495 45.3406C29.1165 42.1432 31.3942 36.738 29.7634 31.7789C29.7634 31.5765 29.3556 31.4753 29.7634 31.7789Z" fill="#7C0202"/>
<path d="M62.6869 46.3527C62.6869 49.4901 62.483 52.6275 62.7888 55.7649C62.8907 56.777 64.0119 57.7891 64.6235 58.8011C65.337 57.8903 66.5602 56.8782 66.6621 55.9674C66.866 49.4901 66.866 43.0129 66.6621 36.5357C66.6621 35.5236 65.439 34.5115 64.8274 33.4995C64.1139 34.6127 62.8907 35.726 62.7888 36.8393C62.483 39.9767 62.6869 43.1141 62.6869 46.3527Z" fill="#7C0202"/>
<circle r="1.56364" transform="matrix(-1 0 0 1 78.7999 19.4339)" fill="#7C0202"/>
</svg>
