<svg width="53" height="63" viewBox="0 0 53 63" fill="none" xmlns="http://www.w3.org/2000/svg">
<path d="M31.4808 17.0601C31.4808 16.8877 31.4895 16.7239 31.4895 16.5515C31.4636 15.7241 31.4636 15.7068 32.2738 15.4741C32.8945 15.2931 33.5237 15.1552 34.1529 15C34.9287 15 35.7045 15 36.4716 15C37.1698 15.1724 37.8594 15.3362 38.5576 15.5086C38.6955 15.543 38.8506 15.5689 38.9541 15.6465C39.0747 15.7413 39.204 15.8964 39.2213 16.0344C39.2558 16.3705 39.2299 16.7153 39.2299 17.0515C39.1696 17.5428 39.092 18.0255 39.0661 18.5168C38.9713 20.1632 38.8851 21.8181 38.7989 23.4731C38.7731 23.9558 38.7558 24.4385 38.7041 24.9212C38.6955 25.016 38.5317 25.1539 38.4283 25.1626C38.0145 25.1798 37.6008 25.1453 37.187 25.1453C35.5407 25.1539 33.903 25.1798 32.2566 25.1712C32.179 25.1712 32.0325 24.9816 32.0239 24.8781C31.9204 23.2404 31.8429 21.6027 31.748 19.9649C31.7222 19.465 31.7049 18.965 31.6532 18.4737C31.6101 18.0083 31.5412 17.5342 31.4808 17.0601Z" fill="#F7E352"/>
<path d="M51.6853 57.3225C49.677 57.3225 47.6686 57.3139 45.6602 57.3139C45.6602 56.4777 45.6602 55.6416 45.6602 54.7452C45.3499 54.7452 45.0827 54.7452 44.8155 54.7452C44.6776 54.5469 44.5483 54.3401 44.4017 54.1418C43.738 53.2971 43.4794 52.3403 43.5053 51.2629C43.5398 49.5217 43.5139 47.7719 43.5139 46.0307C46.3067 46.4445 48.6771 47.5736 50.2717 50.0216C50.9871 51.1163 51.4354 52.3145 51.5991 53.6074C51.6078 53.6677 51.6509 53.7281 51.6767 53.797C51.6853 54.9693 51.6853 56.1502 51.6853 57.3225Z" fill="#817D7E"/>
<path d="M43.1604 33.8167C43.1604 36.325 42.2122 38.3937 40.2642 39.9884C39.9022 40.2901 39.5057 40.54 39.1264 40.8159C39.0057 40.859 38.8851 40.9021 38.773 40.9538C37.2129 41.7037 35.5751 42.0054 33.877 41.583C33.0927 41.3934 32.3428 41.0745 31.5756 40.8159C30.4464 40.1177 29.4552 39.2729 28.7484 38.1265C27.9467 36.8077 27.4813 35.3855 27.5416 33.8167C28.2226 32.1359 28.9035 30.455 29.5758 28.7828C33.4288 28.7828 37.2732 28.7828 41.1262 28.7828C41.8071 30.455 42.4795 32.1359 43.1604 33.8167Z" fill="#F5D2B3"/>
<path d="M41.1262 28.7742C37.2733 28.7742 33.4289 28.7742 29.5759 28.7742C28.895 28.7742 28.214 28.7742 27.5331 28.7742C27.0417 28.7742 26.5504 28.7742 26.0591 28.7742C25.335 28.7742 24.611 28.7742 23.8611 28.7742C23.8611 28.2398 23.8611 27.7571 23.8611 27.214C24.4817 27.1278 25.1109 27.0158 25.7402 26.9641C26.0763 26.9382 26.1798 26.8175 26.1625 26.49C26.0936 24.9212 26.2229 23.3783 26.8435 21.913C27.5848 20.189 28.6881 18.7668 30.2827 17.7497C30.3431 18.8013 30.3948 19.8615 30.4637 20.9131C30.5758 22.6198 30.6965 24.3265 30.7913 26.0331C30.8085 26.3521 30.8947 26.4469 31.2136 26.4469C32.8859 26.4297 34.5667 26.4383 36.2389 26.4383C37.3422 26.4383 38.4455 26.4383 39.5488 26.4383C39.7471 26.4383 39.9109 26.4469 39.9195 26.1624C39.9281 25.5504 39.9712 24.9385 40.0057 24.3265C40.0315 23.7748 40.0574 23.2145 40.1005 22.6629C40.2126 21.0251 40.3246 19.396 40.4367 17.7583C42.5743 19.1719 43.8932 21.1458 44.3672 23.6455C44.5482 24.5937 44.5138 25.5763 44.5482 26.5417C44.5569 26.8262 44.6344 26.9382 44.9275 26.9641C45.5654 27.0244 46.1946 27.1192 46.8497 27.2054C46.8497 27.7226 46.8497 28.2053 46.8497 28.7742C46.117 28.7742 45.3843 28.7742 44.6517 28.7742C44.1604 28.7742 43.669 28.7742 43.1777 28.7742C42.4881 28.7742 41.8072 28.7742 41.1262 28.7742Z" fill="#F7E353"/>
<path d="M43.5225 46.0308C43.5225 47.7719 43.5484 49.5217 43.5139 51.2629C43.488 52.3403 43.7466 53.2971 44.4103 54.1418C44.5569 54.3315 44.6862 54.5383 44.8241 54.7452C44.8241 55.5986 44.8155 56.4519 44.8155 57.3053C44.7551 57.3139 44.7034 57.3225 44.6431 57.3225C38.4542 57.3225 32.2653 57.3225 26.0677 57.3225C26.0074 57.3225 25.9557 57.3139 25.8953 57.3053C25.8953 56.4519 25.8867 55.5986 25.8867 54.7452C26.1367 54.3832 26.3867 54.0125 26.628 53.6419C26.9987 53.073 27.1797 52.4524 27.1797 51.7801C27.1883 49.8665 27.1797 47.9529 27.1797 46.0308C27.9813 45.8411 28.7829 45.6515 29.5845 45.4619C29.5845 47.4961 29.5932 49.5303 29.5932 51.5646C29.6018 53.6764 31.0757 55.159 33.1876 55.1676C34.6184 55.1676 36.0493 55.1676 37.4801 55.1676C39.6437 55.1676 41.109 53.6936 41.1176 51.5215C41.1176 49.5045 41.1263 47.4789 41.1263 45.4619C41.9193 45.6601 42.7209 45.8411 43.5225 46.0308Z" fill="#DCF14E"/>
<path d="M27.1796 46.0394C27.1796 47.9529 27.1883 49.8665 27.1796 51.7887C27.1796 52.461 26.9986 53.0902 26.628 53.6505C26.3866 54.0212 26.128 54.3832 25.8867 54.7538C25.6195 54.7538 25.3523 54.7538 25.042 54.7538C25.042 55.6417 25.042 56.4778 25.042 57.3225C23.0508 57.3225 21.0683 57.3225 19.0168 57.3225C19.0168 56.495 18.9737 55.6761 19.0255 54.8745C19.0858 54.0384 19.1289 53.1851 19.3616 52.4093C20.327 49.1338 22.5337 47.1341 25.835 46.3238C26.2832 46.2118 26.7314 46.1256 27.1796 46.0394Z" fill="#868283"/>
<path d="M41.1262 45.4705C41.1262 47.4875 41.1176 49.5131 41.1176 51.5301C41.1176 53.7022 39.6522 55.1762 37.4801 55.1762C36.0492 55.1762 34.6183 55.1762 33.1875 55.1762C31.0757 55.1676 29.6017 53.6936 29.5931 51.5732C29.5845 49.5389 29.5845 47.5047 29.5845 45.4705C29.9034 45.3843 29.8948 45.617 29.9293 45.8153C30.2051 47.565 31.1015 48.8925 32.6358 49.7803C35.7561 51.599 39.8246 49.8665 40.678 46.3583C40.7297 46.1514 40.7555 45.9359 40.79 45.7291C40.8159 45.5308 40.8848 45.3929 41.1262 45.4705Z" fill="#828083"/>
<path d="M39.1178 42.7725C39.1006 43.8844 39.2557 44.9964 38.9713 46.0997C38.4282 48.2029 35.8423 49.4183 33.8771 48.5046C32.3083 47.7719 31.5756 46.5393 31.567 44.8326C31.5584 44.1172 31.5756 43.4017 31.5756 42.6863C32.61 43.1259 33.6788 43.4017 34.7994 43.4535C36.0578 43.5224 37.2991 43.3586 38.4972 42.919C38.6954 42.8587 38.9109 42.8242 39.1178 42.7725Z" fill="#F5D3B3"/>
<path d="M40.4194 17.7497C40.3074 19.3874 40.1953 21.0165 40.0833 22.6543C40.0488 23.2059 40.0229 23.7662 39.9885 24.3178C39.954 24.9298 39.9195 25.5418 39.9023 26.1538C39.8937 26.4383 39.7299 26.4297 39.5316 26.4297C38.4283 26.4297 37.325 26.4297 36.2217 26.4297C34.5495 26.4297 32.8686 26.421 31.1964 26.4383C30.8775 26.4383 30.7913 26.3435 30.7741 26.0245C30.6792 24.3178 30.55 22.6112 30.4465 20.9045C30.3776 19.8529 30.3258 18.7927 30.2655 17.7411C30.6706 17.5083 31.0671 17.2842 31.4723 17.0515C31.524 17.5256 31.5929 17.9996 31.636 18.4737C31.6791 18.9737 31.6964 19.465 31.7308 19.9649C31.817 21.6027 31.9032 23.2404 32.0067 24.8781C32.0153 24.9816 32.1618 25.1712 32.2394 25.1712C33.8858 25.1712 35.5235 25.154 37.1698 25.1453C37.5836 25.1453 37.9973 25.1798 38.4111 25.1626C38.5059 25.1626 38.6697 25.016 38.6869 24.9212C38.7386 24.4385 38.7559 23.9558 38.7817 23.4731C38.8679 21.8181 38.9541 20.1718 39.0489 18.5168C39.0748 18.0255 39.161 17.5428 39.2127 17.0515C39.6178 17.2928 40.0229 17.5256 40.4194 17.7497Z" fill="#FAB338"/>
<path d="M39.1179 42.7725C38.911 42.8243 38.6955 42.8587 38.4973 42.9277C37.2991 43.3673 36.0665 43.5311 34.7994 43.4621C33.6875 43.4018 32.61 43.1259 31.5757 42.695C31.5757 42.0657 31.5757 41.4365 31.5757 40.8073C32.3428 41.0658 33.0927 41.3848 33.8771 41.5744C35.5752 41.9881 37.2129 41.6951 38.7731 40.9452C38.8851 40.8934 39.0144 40.8503 39.1265 40.8073C39.1265 41.4623 39.1179 42.1174 39.1179 42.7725Z" fill="#F7B98C"/>
<path d="M26.0591 28.7742C26.5504 28.7742 27.0417 28.7742 27.5331 28.7742C27.5244 30.1792 27.5244 31.5756 27.5158 32.9806C27.1279 32.9806 26.74 32.9892 26.3608 32.9806C25.8264 32.9634 25.4816 32.6186 25.473 32.0928C25.4643 31.2911 25.473 30.4895 25.4643 29.6879C25.4557 29.2397 25.6971 28.9725 26.0591 28.7742Z" fill="#F5D3B3"/>
<path d="M43.1691 28.7742C43.6604 28.7742 44.1517 28.7742 44.643 28.7742C45.0999 29.0069 45.2636 29.3862 45.2378 29.8948C45.2119 30.5929 45.2378 31.2998 45.2292 31.9979C45.2292 32.6358 44.893 32.972 44.2551 32.972C43.9017 32.972 43.5397 32.972 43.1863 32.972C43.1777 31.5756 43.1777 30.1792 43.1691 28.7742Z" fill="#F5D3B3"/>
<path d="M27.5159 32.9806C27.5245 31.5756 27.5245 30.1792 27.5331 28.7742C28.2141 28.7742 28.895 28.7742 29.576 28.7742C28.895 30.455 28.2141 32.1359 27.5417 33.8081C27.5331 33.5322 27.5245 33.2564 27.5159 32.9806Z" fill="#1F1F1F"/>
<path d="M43.1691 28.7742C43.1777 30.1792 43.1777 31.5756 43.1863 32.9806C43.1777 33.2564 43.1691 33.5409 43.1605 33.8167C42.4795 32.1359 41.7986 30.455 41.1262 28.7828C41.8072 28.7742 42.4881 28.7742 43.1691 28.7742Z" fill="#1F1F1F"/>
<path d="M25.042 57.3139C25.042 56.4778 25.042 55.6417 25.042 54.7452C25.3523 54.7452 25.6195 54.7452 25.8867 54.7452C25.8867 55.5986 25.8953 56.4519 25.8953 57.3052C25.6109 57.3052 25.3264 57.3052 25.042 57.3139Z" fill="#47618A"/>
<path d="M44.8069 57.3052C44.8069 56.4519 44.8155 55.5986 44.8155 54.7452C45.0827 54.7452 45.3499 54.7452 45.6602 54.7452C45.6602 55.633 45.6602 56.4691 45.6602 57.3139C45.3758 57.3052 45.0913 57.3052 44.8069 57.3052Z" fill="#47618A"/>
<circle cx="12" cy="12" r="8" fill="#CE0000"/>
<circle cx="12" cy="12" r="11" stroke="#FE4E03" stroke-width="2" stroke-linecap="square" stroke-dasharray="0.1 7"/>
<g filter="url(#filter0_d_106_1369)">
<path d="M25.255 44C25.9216 45.5 26.755 48.5 25.255 48.5C23.0189 48.5 24.255 45 25.255 44Z" fill="#64B9FD"/>
</g>
<g filter="url(#filter1_d_106_1369)">
<path d="M50.255 50C50.9216 51.5 51.755 54.5 50.255 54.5C48.0189 54.5 49.255 51 50.255 50Z" fill="#64B9FD"/>
</g>
<g filter="url(#filter2_d_106_1369)">
<path d="M44.255 42C44.9216 43.5 45.755 46.5 44.255 46.5C42.0189 46.5 43.255 43 44.255 42Z" fill="#64B9FD"/>
</g>
<path d="M19 29L52 62M52 29L19 62" stroke="#FF1717" stroke-width="2" stroke-linecap="round" stroke-linejoin="round"/>
<defs>
<filter id="filter0_d_106_1369" x="24" y="44" width="2.29558" height="5" filterUnits="userSpaceOnUse" color-interpolation-filters="sRGB">
<feFlood flood-opacity="0" result="BackgroundImageFix"/>
<feColorMatrix in="SourceAlpha" type="matrix" values="0 0 0 0 0 0 0 0 0 0 0 0 0 0 0 0 0 0 127 0" result="hardAlpha"/>
<feOffset dx="0.2" dy="0.5"/>
<feComposite in2="hardAlpha" operator="out"/>
<feColorMatrix type="matrix" values="0 0 0 0 0.216667 0 0 0 0 0.216667 0 0 0 0 0.216667 0 0 0 0.31 0"/>
<feBlend mode="normal" in2="BackgroundImageFix" result="effect1_dropShadow_106_1369"/>
<feBlend mode="normal" in="SourceGraphic" in2="effect1_dropShadow_106_1369" result="shape"/>
</filter>
<filter id="filter1_d_106_1369" x="49" y="50" width="2.29558" height="5" filterUnits="userSpaceOnUse" color-interpolation-filters="sRGB">
<feFlood flood-opacity="0" result="BackgroundImageFix"/>
<feColorMatrix in="SourceAlpha" type="matrix" values="0 0 0 0 0 0 0 0 0 0 0 0 0 0 0 0 0 0 127 0" result="hardAlpha"/>
<feOffset dx="0.2" dy="0.5"/>
<feComposite in2="hardAlpha" operator="out"/>
<feColorMatrix type="matrix" values="0 0 0 0 0.216667 0 0 0 0 0.216667 0 0 0 0 0.216667 0 0 0 0.31 0"/>
<feBlend mode="normal" in2="BackgroundImageFix" result="effect1_dropShadow_106_1369"/>
<feBlend mode="normal" in="SourceGraphic" in2="effect1_dropShadow_106_1369" result="shape"/>
</filter>
<filter id="filter2_d_106_1369" x="43" y="42" width="2.29558" height="5" filterUnits="userSpaceOnUse" color-interpolation-filters="sRGB">
<feFlood flood-opacity="0" result="BackgroundImageFix"/>
<feColorMatrix in="SourceAlpha" type="matrix" values="0 0 0 0 0 0 0 0 0 0 0 0 0 0 0 0 0 0 127 0" result="hardAlpha"/>
<feOffset dx="0.2" dy="0.5"/>
<feComposite in2="hardAlpha" operator="out"/>
<feColorMatrix type="matrix" values="0 0 0 0 0.216667 0 0 0 0 0.216667 0 0 0 0 0.216667 0 0 0 0.31 0"/>
<feBlend mode="normal" in2="BackgroundImageFix" result="effect1_dropShadow_106_1369"/>
<feBlend mode="normal" in="SourceGraphic" in2="effect1_dropShadow_106_1369" result="shape"/>
</filter>
</defs>
</svg>
