<svg width="53" height="49" viewBox="0 0 53 49" fill="none" xmlns="http://www.w3.org/2000/svg">
<path d="M10.7038 37.0002C11.5322 37.0002 12.2038 36.3286 12.2038 35.5002C12.2038 34.6718 11.5322 34.0002 10.7038 34.0002V37.0002ZM40.2038 34.5002C39.3754 34.5002 38.7038 35.1718 38.7038 36.0002C38.7038 36.8286 39.3754 37.5002 40.2038 37.5002V34.5002ZM35.0661 14.2952L33.7287 14.9743L35.0661 14.2952ZM36.2073 14.8703L35.9612 13.3906L36.2073 14.8703ZM12.1965 19.537L11.9575 18.0562L12.1965 19.537ZM10.7038 34.0002C7.15306 34.0002 4.37863 31.2089 4.03557 28.2579C3.87063 26.839 4.26482 25.3651 5.4725 24.0887C6.70284 22.7882 8.87919 21.5917 12.4354 21.0179L11.9575 18.0562C7.97391 18.699 5.11054 20.1061 3.29327 22.0269C1.45334 23.9716 0.792009 26.3364 1.05564 28.6043C1.56972 33.0265 5.58877 37.0002 10.7038 37.0002V34.0002ZM14.6469 17.9216C14.4204 16.3093 14.9334 14.2764 16.1081 12.3342C17.2734 10.4076 18.9939 8.73487 20.938 7.79997C22.8527 6.87919 24.9574 6.67836 27.0654 7.59606C29.2083 8.5289 31.5633 10.7094 33.7287 14.9743L36.4036 13.6161C34.0451 8.97078 31.2557 6.14825 28.2629 4.84539C25.2352 3.52737 22.2126 3.85812 19.6378 5.09635C17.0924 6.32045 14.961 8.43416 13.5411 10.7815C12.1307 13.1134 11.3253 15.842 11.6761 18.339L14.6469 17.9216ZM36.4535 16.35C40.3671 15.6989 43.3561 16.5913 45.4535 18.1691C47.5746 19.7648 48.8855 22.1376 49.2817 24.6051C49.6786 27.0772 49.1448 29.5466 47.7117 31.3719C46.3056 33.1628 43.903 34.5002 40.2038 34.5002V37.5002C44.6882 37.5002 48.0176 35.8403 50.0714 33.2245C52.0982 30.6429 52.7521 27.2959 52.2437 24.1296C51.7347 20.9586 50.0475 17.871 47.257 15.7718C44.4429 13.6548 40.6068 12.6178 35.9612 13.3906L36.4535 16.35ZM33.7287 14.9743C34.2358 15.9732 35.3571 16.5324 36.4535 16.35L35.9612 13.3906C36.07 13.3725 36.1579 13.3946 36.2188 13.4253C36.28 13.4561 36.3521 13.5147 36.4036 13.6161L33.7287 14.9743ZM12.4354 21.0179C14.0091 20.7639 14.832 19.2388 14.6469 17.9216L11.6761 18.339C11.6681 18.2819 11.6814 18.2391 11.7054 18.2032C11.7333 18.1613 11.8138 18.0794 11.9575 18.0562L12.4354 21.0179Z" fill="white"/>
<path d="M17.3489 37.5418H13.2038L17.3489 29.5002H21.1978L18.8292 34.1396H21.1978L15.5724 44.3463L17.3489 37.5418Z" stroke="white" stroke-linejoin="round"/>
<path d="M25.9139 37.5418H21.7689L25.9139 29.5002H29.7629L27.3943 34.1396H29.7629L24.1375 44.3463L25.9139 37.5418Z" stroke="white" stroke-linejoin="round"/>
<path d="M34.4789 37.5418H30.3338L34.4789 29.5002H38.3278L35.9592 34.1396H38.3278L32.7024 44.3463L34.4789 37.5418Z" stroke="white" stroke-linejoin="round"/>
</svg>
