<?xml version="1.0" encoding="utf-8"?>
<!-- Generator: Adobe Illustrator 25.2.1, SVG Export Plug-In . SVG Version: 6.00 Build 0)  -->
<svg version="1.1" id="Layer_1" xmlns="http://www.w3.org/2000/svg" xmlns:xlink="http://www.w3.org/1999/xlink" x="0px" y="0px"
	 viewBox="0 0 512 512" style="enable-background:new 0 0 512 512;" xml:space="preserve">

<path  d="M379,325.9H111.4c-56.9,0-108.9-44-111.3-94.1c-0.8-17.6,4.3-72.9,99.1-89.5c-0.8-40.7,30.3-87.7,77.4-110.5
	C227.8,6.9,300.1,12.7,354,99.7c58.3-6.8,107.1,10.5,135.7,48.7c25.1,33.5,29.4,76.8,11.2,113.2C480.4,302.5,436,325.9,379,325.9z
	 M231.2,59.7c-12.1,0-24.4,2.9-36.7,8.9c-40.2,19.5-61.5,61.4-52.4,83.1l10.9,25.7l-27.8,2.7c-54,5.3-85.6,23.8-84.3,49.7
	c1.2,25.5,32.3,55.2,70.4,55.2H379c40.9,0,72-15.2,85.2-41.8c11.2-22.4,8.4-49.3-7.3-70.3c-21.3-28.4-61.4-39.6-109.9-30.8
	l-14.5,2.6l-7.1-12.9C299.3,84.6,266.3,59.7,231.2,59.7z"/>
<path  d="M249.9,359.3h-84.5l84.5-157h78.5l-48.3,90.6h48.3L213.7,492.1L249.9,359.3z"/>
</svg>
