<svg width="53" height="49" viewBox="0 0 53 49" fill="none" xmlns="http://www.w3.org/2000/svg">
<path fill-rule="evenodd" clip-rule="evenodd" d="M30.758 5.04719C30.3438 5.22355 30.3181 5.36296 30.3181 7.42375V9.34446L30.5194 9.56416C30.7916 9.861 31.3062 9.87188 31.5882 9.58675C31.8555 9.31639 31.8992 8.91867 31.8659 7.0555C31.8379 5.49233 31.8345 5.46684 31.6321 5.26241C31.4008 5.02876 31.0209 4.93518 30.758 5.04719ZM16.596 9.52837C16.2855 9.84232 16.2844 10.1593 16.5925 10.581C16.9803 11.1116 19.0906 13.1701 19.3487 13.2693C19.8689 13.4693 20.3803 13.1058 20.3803 12.5361C20.3803 12.2611 20.2691 12.126 18.92 10.7621C17.5405 9.36746 17.4424 9.28567 17.1479 9.28567C16.9128 9.28567 16.7771 9.34537 16.596 9.52837ZM43.2445 10.718C42.3153 11.6558 41.8059 12.2322 41.7688 12.3874C41.6429 12.9128 42.1746 13.4453 42.6976 13.3175C42.8422 13.2821 43.4408 12.7396 44.3417 11.8273C45.6494 10.5033 45.7585 10.3699 45.7585 10.0947C45.7585 9.63798 45.4275 9.28567 44.9983 9.28567C44.6743 9.28567 44.6172 9.33225 43.2445 10.718ZM30.0306 13.7792C27.443 14.0347 25.1231 15.2558 23.444 17.1394V17.9242L24.5185 18.2812C25.84 16.7753 27.6202 15.7388 29.4968 15.4326C29.8355 15.3774 30.1682 15.3185 30.2359 15.302C30.5177 15.233 32.2131 15.3441 32.8139 15.4708C36.2554 16.1972 38.8862 18.8544 39.6469 22.3725C39.8366 23.2497 39.8361 25.0305 39.6459 25.9207L39.8165 26.7812L40.8983 27.2084C41.5543 25.0378 41.4951 22.7034 40.7054 20.477C39.8812 18.153 37.9147 15.9548 35.6154 14.7872C34.036 13.9851 31.8823 13.5965 30.0306 13.7792ZM45.6938 23.4402C45.3411 23.5992 45.1505 24.0278 45.2736 24.3851C45.4406 24.8693 45.5617 24.8958 47.6089 24.8958C48.7249 24.8958 49.5281 24.8617 49.6231 24.8103C49.8594 24.6825 50.048 24.258 49.9891 23.9868C49.9613 23.8589 49.8452 23.6654 49.7311 23.557C49.5273 23.3633 49.4911 23.3593 47.7437 23.3392C46.3246 23.3228 45.9091 23.3432 45.6938 23.4402Z" fill="white"/>
<path d="M10.918 43.5341H20.2353H34.2111C48.7046 43.5341 46.6341 22.8291 31.1054 25.9348C22.8234 9.37086 9.36516 22.8291 11.9533 29.5582C-2.54019 31.1111 3.15367 43.5341 10.918 43.5341Z" stroke="white" stroke-width="2"/>
</svg>
