<svg width="11" height="14" viewBox="0 0 11 14" fill="none" xmlns="http://www.w3.org/2000/svg">
<path fill-rule="evenodd" clip-rule="evenodd" d="M5.5 0C8.53267 0 11 2.67723 11 5.96831C11 10.0139 6.696 14 5.5 14C4.304 14 0 10.0139 0 5.96831C0 2.67723 2.46733 0 5.5 0ZM5.5 1.07692C3.01867 1.07692 1 3.27169 1 5.96831C1 9.39938 4.74933 12.7422 5.5 12.9202C6.25067 12.7414 10 9.39867 10 5.96831C10 3.27169 7.98133 1.07692 5.5 1.07692ZM5.50067 3.58974C6.69533 3.58974 7.66733 4.63651 7.66733 5.9238C7.66733 7.21036 6.69533 8.25641 5.50067 8.25641C4.306 8.25641 3.334 7.21036 3.334 5.9238C3.334 4.63651 4.306 3.58974 5.50067 3.58974ZM5.50067 4.66667C4.85733 4.66667 4.334 5.23026 4.334 5.9238C4.334 6.61662 4.85733 7.17949 5.50067 7.17949C6.144 7.17949 6.66733 6.61662 6.66733 5.9238C6.66733 5.23026 6.144 4.66667 5.50067 4.66667Z" fill="#5a5a5a"/>
</svg>
